<svg width="40" height="13" viewBox="0 0 40 13" fill="none" xmlns="http://www.w3.org/2000/svg">
<path opacity="0.2" d="M0.507812 6.39844C0.507812 5.35156 0.651042 4.45312 0.9375 3.70312C1.22917 2.95312 1.64062 2.36719 2.17188 1.94531C3.18229 1.13802 4.5 0.734375 6.125 0.734375H6.67188C8.29688 0.734375 9.61458 1.13802 10.625 1.94531C11.7344 2.83073 12.2891 4.3151 12.2891 6.39844C12.2891 8.49219 11.7344 9.97917 10.625 10.8594C9.61458 11.6615 8.29688 12.0625 6.67188 12.0625H6.125C4.5 12.0625 3.18229 11.6615 2.17188 10.8594C1.0625 9.97917 0.507812 8.49219 0.507812 6.39844ZM6.39844 2.94531C4.4349 2.94531 3.45312 4.09896 3.45312 6.40625C3.45312 8.70833 4.4349 9.85938 6.39844 9.85938C8.36198 9.85938 9.34375 8.70833 9.34375 6.40625C9.34375 4.09896 8.36198 2.94531 6.39844 2.94531ZM15.4219 9.46875C16.125 9.46875 16.4766 9.82292 16.4766 10.5312V11.0234C16.4766 11.3516 16.3854 11.6094 16.2031 11.7969C16.026 11.9844 15.7656 12.0781 15.4219 12.0781H14.4609C14.1172 12.0781 13.8542 11.9844 13.6719 11.7969C13.4948 11.6094 13.4062 11.3516 13.4062 11.0234V10.5312C13.4062 10.1875 13.4974 9.92448 13.6797 9.74219C13.862 9.5599 14.1224 9.46875 14.4609 9.46875H15.4219ZM17.6016 11.2656V10.125C17.6016 9.46354 17.737 8.89062 18.0078 8.40625C18.2839 7.92188 18.6354 7.54167 19.0625 7.26562C19.4896 6.98958 19.9635 6.7526 20.4844 6.55469C21.0052 6.35677 21.526 6.19792 22.0469 6.07812C22.5729 5.95312 23.0495 5.82812 23.4766 5.70312C24.4453 5.41146 24.9297 4.9974 24.9297 4.46094C24.9297 3.8776 24.7786 3.47917 24.4766 3.26562C24.1745 3.05208 23.6641 2.94531 22.9453 2.94531H22.3906C21.3854 2.94531 20.724 3.26562 20.4062 3.90625C20.1719 4.39583 19.8203 4.64062 19.3516 4.64062H18.4219C18.1667 4.64062 17.9688 4.54948 17.8281 4.36719C17.6875 4.1849 17.6172 3.98698 17.6172 3.77344C17.6172 3.17969 17.8438 2.64583 18.2969 2.17188C18.7552 1.69271 19.3229 1.33333 20 1.09375C20.6771 0.854167 21.3828 0.734375 22.1172 0.734375H23.1719C25.4583 0.734375 26.9062 1.36979 27.5156 2.64062C27.7552 3.14062 27.875 3.72135 27.875 4.38281C27.875 5.04427 27.7396 5.60677 27.4688 6.07031C27.1979 6.53385 26.849 6.90365 26.4219 7.17969C25.9948 7.45052 25.5182 7.6849 24.9922 7.88281C24.4714 8.08073 23.9505 8.24479 23.4297 8.375C22.9089 8.5 22.4349 8.61979 22.0078 8.73438C21.0339 9.00521 20.5469 9.35677 20.5469 9.78906H27.0312C27.2448 9.78906 27.4219 9.86198 27.5625 10.0078C27.7083 10.1536 27.7812 10.3281 27.7812 10.5312V11.2656C27.7812 11.4688 27.7057 11.6432 27.5547 11.7891C27.4089 11.9297 27.2344 12 27.0312 12H18.3594C18.1562 12 17.9792 11.9297 17.8281 11.7891C17.6771 11.6432 17.6016 11.4688 17.6016 11.2656ZM29 9.29688C29 8.98438 29.0911 8.76302 29.2734 8.63281C29.4557 8.4974 29.6302 8.42969 29.7969 8.42969H30.7266C31.1641 8.42969 31.513 8.66927 31.7734 9.14844C32.0339 9.6224 32.5911 9.85938 33.4453 9.85938H34.6797C35.3203 9.85938 35.7891 9.75781 36.0859 9.55469C36.388 9.35156 36.5391 9.00521 36.5391 8.51562C36.5391 8.02083 36.388 7.67448 36.0859 7.47656C35.7891 7.27344 35.3203 7.17188 34.6797 7.17188H30.1328C29.9297 7.17188 29.7552 7.10156 29.6094 6.96094C29.4688 6.82031 29.3984 6.64844 29.3984 6.44531V1.53906C29.3984 1.32552 29.4688 1.14844 29.6094 1.00781C29.7552 0.867188 29.9297 0.796875 30.1328 0.796875H38.1797C38.3932 0.796875 38.5703 0.867188 38.7109 1.00781C38.8516 1.14844 38.9219 1.32552 38.9219 1.53906V2.27344C38.9219 2.48698 38.8516 2.66406 38.7109 2.80469C38.5703 2.9401 38.3932 3.00781 38.1797 3.00781H32.3438V4.96094H34.9531C36.4323 4.96094 37.5547 5.23958 38.3203 5.79688C39.0911 6.34896 39.4766 7.25521 39.4766 8.51562C39.4766 9.77083 39.0911 10.6771 38.3203 11.2344C37.5547 11.7865 36.4323 12.0625 34.9531 12.0625H33.1719C32 12.0625 31.0104 11.7995 30.2031 11.2734C29.401 10.7422 29 10.0833 29 9.29688Z" fill="#F6B4FA"/>
</svg>
