<svg width="46" height="24" viewBox="0 0 46 24" fill="none" xmlns="http://www.w3.org/2000/svg">
<path opacity="0.2" d="M0.265625 6.04688C0.140625 5.86979 0.078125 5.66146 0.078125 5.42188C0.078125 5.18229 0.25 4.91667 0.59375 4.625L4.40625 1.34375C4.95833 0.854167 5.72396 0.604167 6.70312 0.59375H9C9.42708 0.59375 9.78646 0.739583 10.0781 1.03125C10.3698 1.32292 10.5156 1.67188 10.5156 2.07812V21.5312C10.5156 21.9375 10.3646 22.2865 10.0625 22.5781C9.76042 22.8594 9.40625 23 9 23H6.09375C5.6875 23 5.33854 22.8646 5.04688 22.5938C4.76562 22.3125 4.625 21.9688 4.625 21.5625V6.45312L2.82812 7.76562C2.61979 7.91146 2.38021 7.95833 2.10938 7.90625C1.83854 7.85417 1.61979 7.73438 1.45312 7.54688L0.265625 6.04688ZM18.0781 17.9375C19.4844 17.9375 20.1875 18.6458 20.1875 20.0625V21.0469C20.1875 21.7031 20.0052 22.2188 19.6406 22.5938C19.2865 22.9688 18.7656 23.1562 18.0781 23.1562H16.1562C15.4688 23.1562 14.9427 22.9688 14.5781 22.5938C14.224 22.2188 14.0469 21.7031 14.0469 21.0469V20.0625C14.0469 19.375 14.2292 18.849 14.5938 18.4844C14.9583 18.1198 15.4792 17.9375 16.1562 17.9375H18.0781ZM22.4375 11.7969C22.4375 9.70312 22.724 7.90625 23.2969 6.40625C23.8802 4.90625 24.7031 3.73438 25.7656 2.89062C27.7865 1.27604 30.4219 0.46875 33.6719 0.46875H34.7656C38.0156 0.46875 40.651 1.27604 42.6719 2.89062C44.8906 4.66146 46 7.63021 46 11.7969C46 15.9844 44.8906 18.9583 42.6719 20.7188C40.651 22.3229 38.0156 23.125 34.7656 23.125H33.6719C30.4219 23.125 27.7865 22.3229 25.7656 20.7188C23.5469 18.9583 22.4375 15.9844 22.4375 11.7969ZM34.2188 4.89062C30.2917 4.89062 28.3281 7.19792 28.3281 11.8125C28.3281 16.4167 30.2917 18.7188 34.2188 18.7188C38.1458 18.7188 40.1094 16.4167 40.1094 11.8125C40.1094 7.19792 38.1458 4.89062 34.2188 4.89062Z" fill="#F6B4FA"/>
</svg>
