<svg width="33" height="13" viewBox="0 0 33 13" fill="none" xmlns="http://www.w3.org/2000/svg">
<path opacity="0.2" d="M0.34375 3.52344C0.28125 3.4349 0.25 3.33073 0.25 3.21094C0.25 3.09115 0.335938 2.95833 0.507812 2.8125L2.41406 1.17188C2.6901 0.927083 3.07292 0.802083 3.5625 0.796875H4.71094C4.92448 0.796875 5.10417 0.869792 5.25 1.01562C5.39583 1.16146 5.46875 1.33594 5.46875 1.53906V11.2656C5.46875 11.4688 5.39323 11.6432 5.24219 11.7891C5.09115 11.9297 4.91406 12 4.71094 12H3.25781C3.05469 12 2.88021 11.9323 2.73438 11.7969C2.59375 11.6562 2.52344 11.4844 2.52344 11.2812V3.72656L1.625 4.38281C1.52083 4.45573 1.40104 4.47917 1.26562 4.45312C1.13021 4.42708 1.02083 4.36719 0.9375 4.27344L0.34375 3.52344ZM9.25 9.46875C9.95312 9.46875 10.3047 9.82292 10.3047 10.5312V11.0234C10.3047 11.3516 10.2135 11.6094 10.0312 11.7969C9.85417 11.9844 9.59375 12.0781 9.25 12.0781H8.28906C7.94531 12.0781 7.68229 11.9844 7.5 11.7969C7.32292 11.6094 7.23438 11.3516 7.23438 11.0234V10.5312C7.23438 10.1875 7.32552 9.92448 7.50781 9.74219C7.6901 9.5599 7.95052 9.46875 8.28906 9.46875H9.25ZM11.1094 2.27344V1.53906C11.1094 1.33594 11.1849 1.16146 11.3359 1.01562C11.487 0.869792 11.6641 0.796875 11.8672 0.796875H20.2344C20.4375 0.796875 20.612 0.869792 20.7578 1.01562C20.9089 1.16146 20.9844 1.33594 20.9844 1.53906V2.25781C20.9844 2.61719 20.8255 3.09115 20.5078 3.67969L16.4062 11.2656C16.1406 11.7552 15.7995 12 15.3828 12H13.7812C13.5729 12 13.4245 11.9323 13.3359 11.7969C13.2526 11.6562 13.2526 11.5052 13.3359 11.3438L17.8516 3.00781H11.8672C11.6536 3.00781 11.474 2.9375 11.3281 2.79688C11.1823 2.65104 11.1094 2.47656 11.1094 2.27344ZM21.7969 9.29688C21.7969 8.98438 21.888 8.76302 22.0703 8.63281C22.2526 8.4974 22.4271 8.42969 22.5938 8.42969H23.5234C23.9609 8.42969 24.3099 8.66927 24.5703 9.14844C24.8307 9.6224 25.388 9.85938 26.2422 9.85938H27.4766C28.1172 9.85938 28.5859 9.75781 28.8828 9.55469C29.1849 9.35156 29.3359 9.00521 29.3359 8.51562C29.3359 8.02083 29.1849 7.67448 28.8828 7.47656C28.5859 7.27344 28.1172 7.17188 27.4766 7.17188H22.9297C22.7266 7.17188 22.5521 7.10156 22.4062 6.96094C22.2656 6.82031 22.1953 6.64844 22.1953 6.44531V1.53906C22.1953 1.32552 22.2656 1.14844 22.4062 1.00781C22.5521 0.867188 22.7266 0.796875 22.9297 0.796875H30.9766C31.1901 0.796875 31.3672 0.867188 31.5078 1.00781C31.6484 1.14844 31.7188 1.32552 31.7188 1.53906V2.27344C31.7188 2.48698 31.6484 2.66406 31.5078 2.80469C31.3672 2.9401 31.1901 3.00781 30.9766 3.00781H25.1406V4.96094H27.75C29.2292 4.96094 30.3516 5.23958 31.1172 5.79688C31.888 6.34896 32.2734 7.25521 32.2734 8.51562C32.2734 9.77083 31.888 10.6771 31.1172 11.2344C30.3516 11.7865 29.2292 12.0625 27.75 12.0625H25.9688C24.7969 12.0625 23.8073 11.7995 23 11.2734C22.1979 10.7422 21.7969 10.0833 21.7969 9.29688Z" fill="#F6B4FA"/>
</svg>
