<svg width="81" height="24" viewBox="0 0 81 24" fill="none" xmlns="http://www.w3.org/2000/svg">
<path opacity="0.2" d="M0.34375 17.5938C0.34375 16.9688 0.526042 16.526 0.890625 16.2656C1.25521 15.9948 1.60417 15.8594 1.9375 15.8594H3.79688C4.67188 15.8594 5.36979 16.3385 5.89062 17.2969C6.41146 18.2448 7.52604 18.7188 9.23438 18.7188H11.7031C12.9844 18.7188 13.9219 18.5156 14.5156 18.1094C15.1198 17.7031 15.4219 17.0104 15.4219 16.0312C15.4219 15.0417 15.1198 14.349 14.5156 13.9531C13.9219 13.5469 12.9844 13.3438 11.7031 13.3438H2.60938C2.20312 13.3438 1.85417 13.2031 1.5625 12.9219C1.28125 12.6406 1.14062 12.2969 1.14062 11.8906V2.07812C1.14062 1.65104 1.28125 1.29688 1.5625 1.01562C1.85417 0.734375 2.20312 0.59375 2.60938 0.59375H18.7031C19.1302 0.59375 19.4844 0.734375 19.7656 1.01562C20.0469 1.29688 20.1875 1.65104 20.1875 2.07812V3.54688C20.1875 3.97396 20.0469 4.32812 19.7656 4.60938C19.4844 4.88021 19.1302 5.01562 18.7031 5.01562H7.03125V8.92188H12.25C15.2083 8.92188 17.4531 9.47917 18.9844 10.5938C20.526 11.6979 21.2969 13.5104 21.2969 16.0312C21.2969 18.5417 20.526 20.3542 18.9844 21.4688C17.4531 22.5729 15.2083 23.125 12.25 23.125H8.6875C6.34375 23.125 4.36458 22.599 2.75 21.5469C1.14583 20.4844 0.34375 19.1667 0.34375 17.5938ZM27.5938 17.9375C29 17.9375 29.7031 18.6458 29.7031 20.0625V21.0469C29.7031 21.7031 29.5208 22.2188 29.1562 22.5938C28.8021 22.9688 28.2812 23.1562 27.5938 23.1562H25.6719C24.9844 23.1562 24.4583 22.9688 24.0938 22.5938C23.7396 22.2188 23.5625 21.7031 23.5625 21.0469V20.0625C23.5625 19.375 23.7448 18.849 24.1094 18.4844C24.474 18.1198 24.9948 17.9375 25.6719 17.9375H27.5938ZM31.9531 11.7969C31.9531 9.70312 32.2396 7.90625 32.8125 6.40625C33.3958 4.90625 34.2188 3.73438 35.2812 2.89062C37.3021 1.27604 39.9375 0.46875 43.1875 0.46875H44.2812C47.5312 0.46875 50.1667 1.27604 52.1875 2.89062C54.4062 4.66146 55.5156 7.63021 55.5156 11.7969C55.5156 15.9844 54.4062 18.9583 52.1875 20.7188C50.1667 22.3229 47.5312 23.125 44.2812 23.125H43.1875C39.9375 23.125 37.3021 22.3229 35.2812 20.7188C33.0625 18.9583 31.9531 15.9844 31.9531 11.7969ZM43.7344 4.89062C39.8073 4.89062 37.8438 7.19792 37.8438 11.8125C37.8438 16.4167 39.8073 18.7188 43.7344 18.7188C47.6615 18.7188 49.625 16.4167 49.625 11.8125C49.625 7.19792 47.6615 4.89062 43.7344 4.89062ZM57.4219 11.7969C57.4219 9.70312 57.7083 7.90625 58.2812 6.40625C58.8646 4.90625 59.6875 3.73438 60.75 2.89062C62.7708 1.27604 65.4062 0.46875 68.6562 0.46875H69.75C73 0.46875 75.6354 1.27604 77.6562 2.89062C79.875 4.66146 80.9844 7.63021 80.9844 11.7969C80.9844 15.9844 79.875 18.9583 77.6562 20.7188C75.6354 22.3229 73 23.125 69.75 23.125H68.6562C65.4062 23.125 62.7708 22.3229 60.75 20.7188C58.5312 18.9583 57.4219 15.9844 57.4219 11.7969ZM69.2031 4.89062C65.276 4.89062 63.3125 7.19792 63.3125 11.8125C63.3125 16.4167 65.276 18.7188 69.2031 18.7188C73.1302 18.7188 75.0938 16.4167 75.0938 11.8125C75.0938 7.19792 73.1302 4.89062 69.2031 4.89062Z" fill="#F6B4FA"/>
</svg>
