<svg width="109" height="48" viewBox="0 0 109 48" fill="none" xmlns="http://www.w3.org/2000/svg">
<rect width="109" height="48" rx="8" fill="black"/>
<rect x="2" y="3.84619" width="105" height="42" rx="7" fill="url(#paint0_linear_2530_1399)"/>
<rect x="2" y="2" width="105" height="40" rx="7" fill="url(#paint1_linear_2530_1399)"/>
<rect x="2" y="2" width="105" height="42" rx="7" fill="url(#paint2_linear_2530_1399)"/>
<rect x="5" y="5" width="99" height="34" rx="6" fill="url(#paint3_linear_2530_1399)"/>
<ellipse cx="3.5438" cy="1.99141" rx="3.5438" ry="1.99141" transform="matrix(0.73474 -0.678349 0.574531 0.818483 3.78052 8.24414)" fill="#FCF7FF"/>
<ellipse cx="2.90149" cy="1.99141" rx="2.90149" ry="1.99141" transform="matrix(0.73474 -0.678349 0.574531 0.818483 98.7805 36.2441)" fill="#F2DCF7"/>
<g filter="url(#filter0_d_2530_1399)">
<mask id="path-8-outside-1_2530_1399" maskUnits="userSpaceOnUse" x="22" y="16" width="67" height="13" fill="black">
<rect fill="white" x="22" y="16" width="67" height="13"/>
<path d="M26.3212 28H23.9962C23.8062 28 23.6662 27.96 23.5762 27.88C23.4962 27.79 23.4562 27.65 23.4562 27.46V17.74C23.4562 17.55 23.4962 17.415 23.5762 17.335C23.6662 17.245 23.8062 17.2 23.9962 17.2H30.6862C30.8762 17.2 31.0112 17.245 31.0912 17.335C31.1812 17.415 31.2262 17.55 31.2262 17.74V19.525C31.2262 19.715 31.1812 19.855 31.0912 19.945C31.0112 20.025 30.8762 20.065 30.6862 20.065H26.8612V21.625H29.4712C29.6612 21.625 29.7962 21.67 29.8762 21.76C29.9662 21.84 30.0112 21.975 30.0112 22.165V23.965C30.0112 24.155 29.9662 24.295 29.8762 24.385C29.7962 24.465 29.6612 24.505 29.4712 24.505H26.8612V27.46C26.8612 27.65 26.8162 27.79 26.7262 27.88C26.6462 27.96 26.5112 28 26.3212 28ZM35.2187 19.9V21.82H36.3437C36.6037 21.82 36.7787 21.755 36.8687 21.625C36.9587 21.485 37.0037 21.315 37.0037 21.115V20.605C37.0037 20.405 36.9587 20.24 36.8687 20.11C36.7787 19.97 36.6037 19.9 36.3437 19.9H35.2187ZM34.6787 28H32.3687C32.1787 28 32.0387 27.96 31.9487 27.88C31.8687 27.79 31.8287 27.65 31.8287 27.46V17.74C31.8287 17.55 31.8687 17.415 31.9487 17.335C32.0387 17.245 32.1787 17.2 32.3687 17.2H37.3637C38.4837 17.2 39.2537 17.435 39.6737 17.905C40.1037 18.365 40.3187 18.965 40.3187 19.705V20.395C40.3187 20.815 40.2537 21.175 40.1237 21.475C40.0037 21.765 39.7887 21.975 39.4787 22.105C40.0187 22.165 40.4537 22.385 40.7837 22.765C41.1237 23.145 41.2937 23.65 41.2937 24.28V27.46C41.2937 27.65 41.2487 27.79 41.1587 27.88C41.0787 27.96 40.9437 28 40.7537 28H38.4287C38.2387 28 38.0987 27.96 38.0087 27.88C37.9287 27.79 37.8887 27.65 37.8887 27.46V25.165C37.8887 24.945 37.8437 24.785 37.7537 24.685C37.6737 24.575 37.5287 24.52 37.3187 24.52H35.2187V27.46C35.2187 27.65 35.1737 27.79 35.0837 27.88C35.0037 27.96 34.8687 28 34.6787 28ZM42.3761 28C42.1861 28 42.0461 27.96 41.9561 27.88C41.8761 27.79 41.8361 27.65 41.8361 27.46V25.675C41.8361 25.485 41.8761 25.35 41.9561 25.27C42.0461 25.18 42.1861 25.135 42.3761 25.135H43.8611V20.095H42.3761C42.1861 20.095 42.0461 20.055 41.9561 19.975C41.8761 19.885 41.8361 19.745 41.8361 19.555V17.74C41.8361 17.55 41.8761 17.415 41.9561 17.335C42.0461 17.245 42.1861 17.2 42.3761 17.2H48.7661C48.9561 17.2 49.0911 17.245 49.1711 17.335C49.2611 17.415 49.3061 17.55 49.3061 17.74V19.555C49.3061 19.745 49.2611 19.885 49.1711 19.975C49.0911 20.055 48.9561 20.095 48.7661 20.095H47.3111V25.135H48.7661C48.9561 25.135 49.0911 25.18 49.1711 25.27C49.2611 25.35 49.3061 25.485 49.3061 25.675V27.46C49.3061 27.65 49.2611 27.79 49.1711 27.88C49.0911 27.96 48.9561 28 48.7661 28H42.3761ZM57.7581 28H50.7981C50.6081 28 50.4681 27.96 50.3781 27.88C50.2981 27.79 50.2581 27.65 50.2581 27.46V17.74C50.2581 17.55 50.2981 17.415 50.3781 17.335C50.4681 17.245 50.6081 17.2 50.7981 17.2H57.7581C57.9481 17.2 58.0831 17.245 58.1631 17.335C58.2531 17.415 58.2981 17.55 58.2981 17.74V19.495C58.2981 19.685 58.2531 19.825 58.1631 19.915C58.0831 19.995 57.9481 20.035 57.7581 20.035H53.6181V21.19H56.5431C56.7331 21.19 56.8681 21.235 56.9481 21.325C57.0381 21.405 57.0831 21.54 57.0831 21.73V23.335C57.0831 23.525 57.0381 23.665 56.9481 23.755C56.8681 23.835 56.7331 23.875 56.5431 23.875H53.6181V25.165H57.7581C57.9481 25.165 58.0831 25.21 58.1631 25.3C58.2531 25.38 58.2981 25.515 58.2981 25.705V27.46C58.2981 27.65 58.2531 27.79 58.1631 27.88C58.0831 27.96 57.9481 28 57.7581 28ZM61.9626 28H59.7126C59.5226 28 59.3826 27.96 59.2926 27.88C59.2126 27.79 59.1726 27.65 59.1726 27.46V17.74C59.1726 17.55 59.2126 17.415 59.2926 17.335C59.3826 17.245 59.5226 17.2 59.7126 17.2H61.2726C61.4626 17.2 61.6226 17.23 61.7526 17.29C61.8926 17.35 62.0276 17.455 62.1576 17.605L65.0676 20.935V17.74C65.0676 17.55 65.1076 17.415 65.1876 17.335C65.2776 17.245 65.4176 17.2 65.6076 17.2H67.8576C68.0476 17.2 68.1826 17.245 68.2626 17.335C68.3526 17.415 68.3976 17.55 68.3976 17.74V27.46C68.3976 27.65 68.3526 27.79 68.2626 27.88C68.1826 27.96 68.0476 28 67.8576 28H65.6076C65.4176 28 65.2776 27.96 65.1876 27.88C65.1076 27.79 65.0676 27.65 65.0676 27.46V25.615L62.5026 22.51V27.46C62.5026 27.65 62.4576 27.79 62.3676 27.88C62.2876 27.96 62.1526 28 61.9626 28ZM75.1615 28H70.1065C69.9165 28 69.7765 27.96 69.6865 27.88C69.6065 27.79 69.5665 27.65 69.5665 27.46V17.74C69.5665 17.55 69.6065 17.415 69.6865 17.335C69.7765 17.245 69.9165 17.2 70.1065 17.2H75.1615C76.4115 17.2 77.3365 17.45 77.9365 17.95C78.5465 18.45 78.8515 19.22 78.8515 20.26V24.94C78.8515 25.98 78.5465 26.75 77.9365 27.25C77.3365 27.75 76.4115 28 75.1615 28ZM72.9715 20.065V25.165H74.7565C74.9965 25.165 75.1715 25.105 75.2815 24.985C75.4015 24.865 75.4615 24.68 75.4615 24.43V20.785C75.4615 20.535 75.4015 20.355 75.2815 20.245C75.1715 20.125 74.9965 20.065 74.7565 20.065H72.9715ZM84.8679 28H80.1279C79.9379 28 79.7979 27.96 79.7079 27.88C79.6279 27.79 79.5879 27.65 79.5879 27.46V25.705C79.5879 25.515 79.6279 25.38 79.7079 25.3C79.7979 25.21 79.9379 25.165 80.1279 25.165H84.1629C84.2929 25.165 84.3879 25.125 84.4479 25.045C84.5179 24.955 84.5529 24.85 84.5529 24.73C84.5529 24.56 84.5179 24.435 84.4479 24.355C84.3879 24.275 84.2929 24.23 84.1629 24.22L81.9129 23.905C81.2129 23.805 80.6479 23.575 80.2179 23.215C79.7979 22.855 79.5879 22.255 79.5879 21.415V19.84C79.5879 18.99 79.8629 18.34 80.4129 17.89C80.9629 17.43 81.7229 17.2 82.6929 17.2H86.8929C87.0829 17.2 87.2179 17.245 87.2979 17.335C87.3879 17.415 87.4329 17.55 87.4329 17.74V19.525C87.4329 19.715 87.3879 19.855 87.2979 19.945C87.2179 20.025 87.0829 20.065 86.8929 20.065H83.3979C83.2679 20.065 83.1679 20.11 83.0979 20.2C83.0279 20.28 82.9929 20.385 82.9929 20.515C82.9929 20.645 83.0279 20.755 83.0979 20.845C83.1679 20.935 83.2679 20.985 83.3979 20.995L85.6329 21.295C86.3329 21.395 86.8979 21.625 87.3279 21.985C87.7579 22.345 87.9729 22.945 87.9729 23.785V25.36C87.9729 26.21 87.6929 26.865 87.1329 27.325C86.5829 27.775 85.8279 28 84.8679 28Z"/>
</mask>
<path d="M26.3212 28H23.9962C23.8062 28 23.6662 27.96 23.5762 27.88C23.4962 27.79 23.4562 27.65 23.4562 27.46V17.74C23.4562 17.55 23.4962 17.415 23.5762 17.335C23.6662 17.245 23.8062 17.2 23.9962 17.2H30.6862C30.8762 17.2 31.0112 17.245 31.0912 17.335C31.1812 17.415 31.2262 17.55 31.2262 17.74V19.525C31.2262 19.715 31.1812 19.855 31.0912 19.945C31.0112 20.025 30.8762 20.065 30.6862 20.065H26.8612V21.625H29.4712C29.6612 21.625 29.7962 21.67 29.8762 21.76C29.9662 21.84 30.0112 21.975 30.0112 22.165V23.965C30.0112 24.155 29.9662 24.295 29.8762 24.385C29.7962 24.465 29.6612 24.505 29.4712 24.505H26.8612V27.46C26.8612 27.65 26.8162 27.79 26.7262 27.88C26.6462 27.96 26.5112 28 26.3212 28ZM35.2187 19.9V21.82H36.3437C36.6037 21.82 36.7787 21.755 36.8687 21.625C36.9587 21.485 37.0037 21.315 37.0037 21.115V20.605C37.0037 20.405 36.9587 20.24 36.8687 20.11C36.7787 19.97 36.6037 19.9 36.3437 19.9H35.2187ZM34.6787 28H32.3687C32.1787 28 32.0387 27.96 31.9487 27.88C31.8687 27.79 31.8287 27.65 31.8287 27.46V17.74C31.8287 17.55 31.8687 17.415 31.9487 17.335C32.0387 17.245 32.1787 17.2 32.3687 17.2H37.3637C38.4837 17.2 39.2537 17.435 39.6737 17.905C40.1037 18.365 40.3187 18.965 40.3187 19.705V20.395C40.3187 20.815 40.2537 21.175 40.1237 21.475C40.0037 21.765 39.7887 21.975 39.4787 22.105C40.0187 22.165 40.4537 22.385 40.7837 22.765C41.1237 23.145 41.2937 23.65 41.2937 24.28V27.46C41.2937 27.65 41.2487 27.79 41.1587 27.88C41.0787 27.96 40.9437 28 40.7537 28H38.4287C38.2387 28 38.0987 27.96 38.0087 27.88C37.9287 27.79 37.8887 27.65 37.8887 27.46V25.165C37.8887 24.945 37.8437 24.785 37.7537 24.685C37.6737 24.575 37.5287 24.52 37.3187 24.52H35.2187V27.46C35.2187 27.65 35.1737 27.79 35.0837 27.88C35.0037 27.96 34.8687 28 34.6787 28ZM42.3761 28C42.1861 28 42.0461 27.96 41.9561 27.88C41.8761 27.79 41.8361 27.65 41.8361 27.46V25.675C41.8361 25.485 41.8761 25.35 41.9561 25.27C42.0461 25.18 42.1861 25.135 42.3761 25.135H43.8611V20.095H42.3761C42.1861 20.095 42.0461 20.055 41.9561 19.975C41.8761 19.885 41.8361 19.745 41.8361 19.555V17.74C41.8361 17.55 41.8761 17.415 41.9561 17.335C42.0461 17.245 42.1861 17.2 42.3761 17.2H48.7661C48.9561 17.2 49.0911 17.245 49.1711 17.335C49.2611 17.415 49.3061 17.55 49.3061 17.74V19.555C49.3061 19.745 49.2611 19.885 49.1711 19.975C49.0911 20.055 48.9561 20.095 48.7661 20.095H47.3111V25.135H48.7661C48.9561 25.135 49.0911 25.18 49.1711 25.27C49.2611 25.35 49.3061 25.485 49.3061 25.675V27.46C49.3061 27.65 49.2611 27.79 49.1711 27.88C49.0911 27.96 48.9561 28 48.7661 28H42.3761ZM57.7581 28H50.7981C50.6081 28 50.4681 27.96 50.3781 27.88C50.2981 27.79 50.2581 27.65 50.2581 27.46V17.74C50.2581 17.55 50.2981 17.415 50.3781 17.335C50.4681 17.245 50.6081 17.2 50.7981 17.2H57.7581C57.9481 17.2 58.0831 17.245 58.1631 17.335C58.2531 17.415 58.2981 17.55 58.2981 17.74V19.495C58.2981 19.685 58.2531 19.825 58.1631 19.915C58.0831 19.995 57.9481 20.035 57.7581 20.035H53.6181V21.19H56.5431C56.7331 21.19 56.8681 21.235 56.9481 21.325C57.0381 21.405 57.0831 21.54 57.0831 21.73V23.335C57.0831 23.525 57.0381 23.665 56.9481 23.755C56.8681 23.835 56.7331 23.875 56.5431 23.875H53.6181V25.165H57.7581C57.9481 25.165 58.0831 25.21 58.1631 25.3C58.2531 25.38 58.2981 25.515 58.2981 25.705V27.46C58.2981 27.65 58.2531 27.79 58.1631 27.88C58.0831 27.96 57.9481 28 57.7581 28ZM61.9626 28H59.7126C59.5226 28 59.3826 27.96 59.2926 27.88C59.2126 27.79 59.1726 27.65 59.1726 27.46V17.74C59.1726 17.55 59.2126 17.415 59.2926 17.335C59.3826 17.245 59.5226 17.2 59.7126 17.2H61.2726C61.4626 17.2 61.6226 17.23 61.7526 17.29C61.8926 17.35 62.0276 17.455 62.1576 17.605L65.0676 20.935V17.74C65.0676 17.55 65.1076 17.415 65.1876 17.335C65.2776 17.245 65.4176 17.2 65.6076 17.2H67.8576C68.0476 17.2 68.1826 17.245 68.2626 17.335C68.3526 17.415 68.3976 17.55 68.3976 17.74V27.46C68.3976 27.65 68.3526 27.79 68.2626 27.88C68.1826 27.96 68.0476 28 67.8576 28H65.6076C65.4176 28 65.2776 27.96 65.1876 27.88C65.1076 27.79 65.0676 27.65 65.0676 27.46V25.615L62.5026 22.51V27.46C62.5026 27.65 62.4576 27.79 62.3676 27.88C62.2876 27.96 62.1526 28 61.9626 28ZM75.1615 28H70.1065C69.9165 28 69.7765 27.96 69.6865 27.88C69.6065 27.79 69.5665 27.65 69.5665 27.46V17.74C69.5665 17.55 69.6065 17.415 69.6865 17.335C69.7765 17.245 69.9165 17.2 70.1065 17.2H75.1615C76.4115 17.2 77.3365 17.45 77.9365 17.95C78.5465 18.45 78.8515 19.22 78.8515 20.26V24.94C78.8515 25.98 78.5465 26.75 77.9365 27.25C77.3365 27.75 76.4115 28 75.1615 28ZM72.9715 20.065V25.165H74.7565C74.9965 25.165 75.1715 25.105 75.2815 24.985C75.4015 24.865 75.4615 24.68 75.4615 24.43V20.785C75.4615 20.535 75.4015 20.355 75.2815 20.245C75.1715 20.125 74.9965 20.065 74.7565 20.065H72.9715ZM84.8679 28H80.1279C79.9379 28 79.7979 27.96 79.7079 27.88C79.6279 27.79 79.5879 27.65 79.5879 27.46V25.705C79.5879 25.515 79.6279 25.38 79.7079 25.3C79.7979 25.21 79.9379 25.165 80.1279 25.165H84.1629C84.2929 25.165 84.3879 25.125 84.4479 25.045C84.5179 24.955 84.5529 24.85 84.5529 24.73C84.5529 24.56 84.5179 24.435 84.4479 24.355C84.3879 24.275 84.2929 24.23 84.1629 24.22L81.9129 23.905C81.2129 23.805 80.6479 23.575 80.2179 23.215C79.7979 22.855 79.5879 22.255 79.5879 21.415V19.84C79.5879 18.99 79.8629 18.34 80.4129 17.89C80.9629 17.43 81.7229 17.2 82.6929 17.2H86.8929C87.0829 17.2 87.2179 17.245 87.2979 17.335C87.3879 17.415 87.4329 17.55 87.4329 17.74V19.525C87.4329 19.715 87.3879 19.855 87.2979 19.945C87.2179 20.025 87.0829 20.065 86.8929 20.065H83.3979C83.2679 20.065 83.1679 20.11 83.0979 20.2C83.0279 20.28 82.9929 20.385 82.9929 20.515C82.9929 20.645 83.0279 20.755 83.0979 20.845C83.1679 20.935 83.2679 20.985 83.3979 20.995L85.6329 21.295C86.3329 21.395 86.8979 21.625 87.3279 21.985C87.7579 22.345 87.9729 22.945 87.9729 23.785V25.36C87.9729 26.21 87.6929 26.865 87.1329 27.325C86.5829 27.775 85.8279 28 84.8679 28Z" fill="white"/>
<path d="M23.5762 27.88L22.8288 28.5444L22.8679 28.5883L22.9118 28.6274L23.5762 27.88ZM23.5762 17.335L22.8691 16.6279L22.8691 16.6279L23.5762 17.335ZM31.0912 17.335L30.3438 17.9994L30.3829 18.0433L30.4268 18.0824L31.0912 17.335ZM26.8612 20.065V19.065H25.8612V20.065H26.8612ZM26.8612 21.625H25.8612V22.625H26.8612V21.625ZM29.8762 21.76L29.1288 22.4244L29.1679 22.4683L29.2118 22.5074L29.8762 21.76ZM29.8762 24.385L29.1691 23.6779L29.1691 23.6779L29.8762 24.385ZM26.8612 24.505V23.505H25.8612V24.505H26.8612ZM26.7262 27.88L26.0191 27.1729L26.0191 27.1729L26.7262 27.88ZM26.3212 27H23.9962V29H26.3212V27ZM23.9962 27C23.9675 27 23.9817 26.9966 24.0234 27.0085C24.068 27.0212 24.1524 27.0542 24.2406 27.1326L22.9118 28.6274C23.2653 28.9416 23.696 29 23.9962 29V27ZM24.3236 27.2156C24.402 27.3038 24.435 27.3882 24.4477 27.4328C24.4596 27.4745 24.4562 27.4887 24.4562 27.46H22.4562C22.4562 27.7602 22.5146 28.1909 22.8288 28.5444L24.3236 27.2156ZM24.4562 27.46V17.74H22.4562V27.46H24.4562ZM24.4562 17.74C24.4562 17.71 24.46 17.7298 24.445 17.7803C24.429 17.8342 24.3866 17.9388 24.2833 18.0421L22.8691 16.6279C22.5084 16.9885 22.4562 17.4546 22.4562 17.74H24.4562ZM24.2833 18.0421C24.1107 18.2147 23.942 18.2 23.9962 18.2V16.2C23.6704 16.2 23.2217 16.2753 22.8691 16.6279L24.2833 18.0421ZM23.9962 18.2H30.6862V16.2H23.9962V18.2ZM30.6862 18.2C30.7074 18.2 30.6759 18.2032 30.6137 18.1824C30.5454 18.1597 30.4397 18.1073 30.3438 17.9994L31.8386 16.6706C31.4825 16.27 30.9991 16.2 30.6862 16.2V18.2ZM30.4268 18.0824C30.3189 17.9865 30.2665 17.8808 30.2438 17.8125C30.223 17.7503 30.2262 17.7188 30.2262 17.74H32.2262C32.2262 17.4271 32.1562 16.9437 31.7556 16.5876L30.4268 18.0824ZM30.2262 17.74V19.525H32.2262V17.74H30.2262ZM30.2262 19.525C30.2262 19.5792 30.2115 19.4105 30.3841 19.2379L31.7983 20.6521C32.1509 20.2995 32.2262 19.8508 32.2262 19.525H30.2262ZM30.3841 19.2379C30.4874 19.1346 30.592 19.0921 30.6459 19.0762C30.6964 19.0612 30.7162 19.065 30.6862 19.065V21.065C30.9716 21.065 31.4376 21.0128 31.7983 20.6521L30.3841 19.2379ZM30.6862 19.065H26.8612V21.065H30.6862V19.065ZM25.8612 20.065V21.625H27.8612V20.065H25.8612ZM26.8612 22.625H29.4712V20.625H26.8612V22.625ZM29.4712 22.625C29.4924 22.625 29.4609 22.6282 29.3987 22.6074C29.3304 22.5847 29.2247 22.5323 29.1288 22.4244L30.6236 21.0956C30.2675 20.695 29.7841 20.625 29.4712 20.625V22.625ZM29.2118 22.5074C29.1039 22.4115 29.0515 22.3058 29.0288 22.2375C29.008 22.1753 29.0112 22.1438 29.0112 22.165H31.0112C31.0112 21.8521 30.9412 21.3687 30.5406 21.0126L29.2118 22.5074ZM29.0112 22.165V23.965H31.0112V22.165H29.0112ZM29.0112 23.965C29.0112 24.0192 28.9965 23.8505 29.1691 23.6779L30.5833 25.0921C30.9359 24.7395 31.0112 24.2908 31.0112 23.965H29.0112ZM29.1691 23.6779C29.2724 23.5746 29.377 23.5321 29.4309 23.5162C29.4814 23.5012 29.5012 23.505 29.4712 23.505V25.505C29.7566 25.505 30.2226 25.4528 30.5833 25.0921L29.1691 23.6779ZM29.4712 23.505H26.8612V25.505H29.4712V23.505ZM25.8612 24.505V27.46H27.8612V24.505H25.8612ZM25.8612 27.46C25.8612 27.5142 25.8465 27.3455 26.0191 27.1729L27.4333 28.5871C27.7859 28.2345 27.8612 27.7858 27.8612 27.46H25.8612ZM26.0191 27.1729C26.1224 27.0696 26.227 27.0271 26.2809 27.0112C26.3314 26.9962 26.3512 27 26.3212 27V29C26.6066 29 27.0726 28.9478 27.4333 28.5871L26.0191 27.1729ZM35.2187 19.9V18.9H34.2187V19.9H35.2187ZM35.2187 21.82H34.2187V22.82H35.2187V21.82ZM36.8687 21.625L37.6908 22.1942L37.7006 22.1801L37.7098 22.1658L36.8687 21.625ZM36.8687 20.11L36.0275 20.6508L36.0367 20.6651L36.0465 20.6792L36.8687 20.11ZM31.9487 27.88L31.2012 28.5444L31.2403 28.5883L31.2843 28.6274L31.9487 27.88ZM31.9487 17.335L31.2415 16.6279L31.2415 16.6279L31.9487 17.335ZM39.6737 17.905L38.928 18.5713L38.9355 18.5797L38.9431 18.5879L39.6737 17.905ZM40.1237 21.475L39.2061 21.0774L39.2028 21.085L39.1996 21.0926L40.1237 21.475ZM39.4787 22.105L39.0919 21.1828L35.5377 22.6733L39.3682 23.0989L39.4787 22.105ZM40.7837 22.765L40.0286 23.4207L40.0335 23.4263L40.0384 23.4318L40.7837 22.765ZM41.1587 27.88L41.8658 28.5871L41.8658 28.5871L41.1587 27.88ZM38.0087 27.88L37.2612 28.5444L37.3003 28.5883L37.3443 28.6274L38.0087 27.88ZM37.7537 24.685L36.9449 25.2732L36.9755 25.3153L37.0104 25.354L37.7537 24.685ZM35.2187 24.52V23.52H34.2187V24.52H35.2187ZM35.0837 27.88L34.3765 27.1729L34.3765 27.1729L35.0837 27.88ZM34.2187 19.9V21.82H36.2187V19.9H34.2187ZM35.2187 22.82H36.3437V20.82H35.2187V22.82ZM36.3437 22.82C36.718 22.82 37.3187 22.7317 37.6908 22.1942L36.0465 21.0558C36.1379 20.9237 36.2528 20.8594 36.3217 20.8338C36.38 20.8122 36.398 20.82 36.3437 20.82V22.82ZM37.7098 22.1658C37.9228 21.8345 38.0037 21.4677 38.0037 21.115H36.0037C36.0037 21.1402 36.0008 21.1456 36.0032 21.1366C36.0044 21.1321 36.0067 21.1246 36.0109 21.1151C36.0151 21.1055 36.0206 21.095 36.0275 21.0842L37.7098 22.1658ZM38.0037 21.115V20.605H36.0037V21.115H38.0037ZM38.0037 20.605C38.0037 20.2556 37.924 19.8775 37.6908 19.5408L36.0465 20.6792C36.0219 20.6437 36.01 20.6123 36.0051 20.5944C36.0007 20.5781 36.0037 20.5793 36.0037 20.605H38.0037ZM37.7098 19.5692C37.3488 19.0076 36.7435 18.9 36.3437 18.9V20.9C36.3914 20.9 36.3647 20.9075 36.2985 20.881C36.2195 20.8494 36.1095 20.7784 36.0275 20.6508L37.7098 19.5692ZM36.3437 18.9H35.2187V20.9H36.3437V18.9ZM34.6787 27H32.3687V29H34.6787V27ZM32.3687 27C32.34 27 32.3541 26.9966 32.3959 27.0085C32.4405 27.0212 32.5248 27.0542 32.613 27.1326L31.2843 28.6274C31.6377 28.9416 32.0684 29 32.3687 29V27ZM32.6961 27.2156C32.7744 27.3038 32.8074 27.3882 32.8202 27.4328C32.8321 27.4745 32.8287 27.4887 32.8287 27.46H30.8287C30.8287 27.7602 30.8871 28.1909 31.2012 28.5444L32.6961 27.2156ZM32.8287 27.46V17.74H30.8287V27.46H32.8287ZM32.8287 17.74C32.8287 17.71 32.8324 17.7298 32.8175 17.7803C32.8015 17.8342 32.759 17.9388 32.6558 18.0421L31.2415 16.6279C30.8809 16.9885 30.8287 17.4546 30.8287 17.74H32.8287ZM32.6558 18.0421C32.4832 18.2147 32.3145 18.2 32.3687 18.2V16.2C32.0428 16.2 31.5941 16.2753 31.2415 16.6279L32.6558 18.0421ZM32.3687 18.2H37.3637V16.2H32.3687V18.2ZM37.3637 18.2C38.4057 18.2 38.8018 18.4301 38.928 18.5713L40.4193 17.2387C39.7055 16.4399 38.5616 16.2 37.3637 16.2V18.2ZM38.9431 18.5879C39.1701 18.8307 39.3187 19.1712 39.3187 19.705H41.3187C41.3187 18.7588 41.0372 17.8993 40.4042 17.2221L38.9431 18.5879ZM39.3187 19.705V20.395H41.3187V19.705H39.3187ZM39.3187 20.395C39.3187 20.7156 39.2686 20.9331 39.2061 21.0774L41.0412 21.8726C41.2387 21.4169 41.3187 20.9144 41.3187 20.395H39.3187ZM39.1996 21.0926C39.1882 21.1204 39.1777 21.1468 39.0919 21.1828L39.8654 23.0272C40.3996 22.8032 40.8191 22.4096 41.0477 21.8574L39.1996 21.0926ZM39.3682 23.0989C39.6802 23.1335 39.8771 23.2462 40.0286 23.4207L41.5387 22.1093C41.0302 21.5238 40.3571 21.1965 39.5891 21.1111L39.3682 23.0989ZM40.0384 23.4318C40.1781 23.5879 40.2937 23.8356 40.2937 24.28H42.2937C42.2937 23.4644 42.0692 22.7021 41.5289 22.0982L40.0384 23.4318ZM40.2937 24.28V27.46H42.2937V24.28H40.2937ZM40.2937 27.46C40.2937 27.5142 40.2789 27.3455 40.4515 27.1729L41.8658 28.5871C42.2184 28.2345 42.2937 27.7858 42.2937 27.46H40.2937ZM40.4515 27.1729C40.5548 27.0696 40.6595 27.0271 40.7133 27.0112C40.7638 26.9962 40.7837 27 40.7537 27V29C41.0391 29 41.5051 28.9478 41.8658 28.5871L40.4515 27.1729ZM40.7537 27H38.4287V29H40.7537V27ZM38.4287 27C38.4 27 38.4141 26.9966 38.4559 27.0085C38.5005 27.0212 38.5848 27.0542 38.673 27.1326L37.3443 28.6274C37.6977 28.9416 38.1284 29 38.4287 29V27ZM38.7561 27.2156C38.8344 27.3038 38.8674 27.3882 38.8802 27.4328C38.8921 27.4745 38.8887 27.4887 38.8887 27.46H36.8887C36.8887 27.7602 36.9471 28.1909 37.2612 28.5444L38.7561 27.2156ZM38.8887 27.46V25.165H36.8887V27.46H38.8887ZM38.8887 25.165C38.8887 24.8453 38.8296 24.3857 38.4969 24.016L37.0104 25.354C36.9313 25.2661 36.9017 25.1845 36.8923 25.1507C36.8835 25.1195 36.8887 25.1189 36.8887 25.165H38.8887ZM38.5624 24.0968C38.2091 23.6111 37.6694 23.52 37.3187 23.52V25.52C37.3426 25.52 37.3034 25.524 37.2302 25.4962C37.1471 25.4647 37.0348 25.3967 36.9449 25.2732L38.5624 24.0968ZM37.3187 23.52H35.2187V25.52H37.3187V23.52ZM34.2187 24.52V27.46H36.2187V24.52H34.2187ZM34.2187 27.46C34.2187 27.5142 34.2039 27.3455 34.3765 27.1729L35.7908 28.5871C36.1434 28.2345 36.2187 27.7858 36.2187 27.46H34.2187ZM34.3765 27.1729C34.4798 27.0696 34.5845 27.0271 34.6383 27.0112C34.6888 26.9962 34.7087 27 34.6787 27V29C34.9641 29 35.4301 28.9478 35.7908 28.5871L34.3765 27.1729ZM41.9561 27.88L41.2087 28.5444L41.2478 28.5883L41.2918 28.6274L41.9561 27.88ZM41.9561 25.27L42.6632 25.9771L42.6632 25.9771L41.9561 25.27ZM43.8611 25.135V26.135H44.8611V25.135H43.8611ZM43.8611 20.095H44.8611V19.095H43.8611V20.095ZM41.9561 19.975L41.2087 20.6394L41.2478 20.6833L41.2918 20.7224L41.9561 19.975ZM41.9561 17.335L41.249 16.6279L41.249 16.6279L41.9561 17.335ZM49.1711 17.335L48.4237 17.9994L48.4628 18.0433L48.5067 18.0824L49.1711 17.335ZM49.1711 19.975L49.8782 20.6821L49.8782 20.6821L49.1711 19.975ZM47.3111 20.095V19.095H46.3111V20.095H47.3111ZM47.3111 25.135H46.3111V26.135H47.3111V25.135ZM49.1711 25.27L48.4237 25.9344L48.4628 25.9783L48.5067 26.0174L49.1711 25.27ZM49.1711 27.88L49.8782 28.5871L49.8782 28.5871L49.1711 27.88ZM42.3761 27C42.3474 27 42.3616 26.9966 42.4033 27.0085C42.4479 27.0212 42.5323 27.0542 42.6205 27.1326L41.2918 28.6274C41.6452 28.9416 42.0759 29 42.3761 29V27ZM42.7035 27.2156C42.7819 27.3038 42.8149 27.3882 42.8276 27.4328C42.8396 27.4745 42.8361 27.4887 42.8361 27.46H40.8361C40.8361 27.7602 40.8945 28.1909 41.2087 28.5444L42.7035 27.2156ZM42.8361 27.46V25.675H40.8361V27.46H42.8361ZM42.8361 25.675C42.8361 25.645 42.8399 25.6648 42.8249 25.7153C42.809 25.7692 42.7665 25.8738 42.6632 25.9771L41.249 24.5629C40.8884 24.9235 40.8361 25.3896 40.8361 25.675H42.8361ZM42.6632 25.9771C42.4906 26.1497 42.3219 26.135 42.3761 26.135V24.135C42.0503 24.135 41.6016 24.2103 41.249 24.5629L42.6632 25.9771ZM42.3761 26.135H43.8611V24.135H42.3761V26.135ZM44.8611 25.135V20.095H42.8611V25.135H44.8611ZM43.8611 19.095H42.3761V21.095H43.8611V19.095ZM42.3761 19.095C42.3474 19.095 42.3616 19.0916 42.4033 19.1035C42.4479 19.1162 42.5323 19.1492 42.6205 19.2276L41.2918 20.7224C41.6452 21.0366 42.0759 21.095 42.3761 21.095V19.095ZM42.7035 19.3106C42.7819 19.3988 42.8149 19.4832 42.8276 19.5278C42.8396 19.5695 42.8361 19.5837 42.8361 19.555H40.8361C40.8361 19.8552 40.8945 20.2859 41.2087 20.6394L42.7035 19.3106ZM42.8361 19.555V17.74H40.8361V19.555H42.8361ZM42.8361 17.74C42.8361 17.71 42.8399 17.7298 42.8249 17.7803C42.809 17.8342 42.7665 17.9388 42.6632 18.0421L41.249 16.6279C40.8884 16.9885 40.8361 17.4546 40.8361 17.74H42.8361ZM42.6632 18.0421C42.4906 18.2147 42.3219 18.2 42.3761 18.2V16.2C42.0503 16.2 41.6016 16.2753 41.249 16.6279L42.6632 18.0421ZM42.3761 18.2H48.7661V16.2H42.3761V18.2ZM48.7661 18.2C48.7873 18.2 48.7558 18.2032 48.6936 18.1824C48.6254 18.1597 48.5196 18.1073 48.4237 17.9994L49.9185 16.6706C49.5624 16.27 49.079 16.2 48.7661 16.2V18.2ZM48.5067 18.0824C48.3988 17.9865 48.3464 17.8808 48.3237 17.8125C48.303 17.7503 48.3061 17.7188 48.3061 17.74H50.3061C50.3061 17.4271 50.2361 16.9437 49.8355 16.5876L48.5067 18.0824ZM48.3061 17.74V19.555H50.3061V17.74H48.3061ZM48.3061 19.555C48.3061 19.6092 48.2914 19.4405 48.464 19.2679L49.8782 20.6821C50.2308 20.3295 50.3061 19.8808 50.3061 19.555H48.3061ZM48.464 19.2679C48.5673 19.1646 48.672 19.1221 48.7258 19.1062C48.7763 19.0912 48.7961 19.095 48.7661 19.095V21.095C49.0515 21.095 49.5176 21.0428 49.8782 20.6821L48.464 19.2679ZM48.7661 19.095H47.3111V21.095H48.7661V19.095ZM46.3111 20.095V25.135H48.3111V20.095H46.3111ZM47.3111 26.135H48.7661V24.135H47.3111V26.135ZM48.7661 26.135C48.7873 26.135 48.7558 26.1382 48.6936 26.1174C48.6254 26.0947 48.5196 26.0423 48.4237 25.9344L49.9185 24.6056C49.5624 24.205 49.079 24.135 48.7661 24.135V26.135ZM48.5067 26.0174C48.3988 25.9215 48.3464 25.8158 48.3237 25.7475C48.303 25.6853 48.3061 25.6538 48.3061 25.675H50.3061C50.3061 25.3621 50.2362 24.8787 49.8355 24.5226L48.5067 26.0174ZM48.3061 25.675V27.46H50.3061V25.675H48.3061ZM48.3061 27.46C48.3061 27.5142 48.2914 27.3455 48.464 27.1729L49.8782 28.5871C50.2308 28.2345 50.3061 27.7858 50.3061 27.46H48.3061ZM48.464 27.1729C48.5673 27.0696 48.672 27.0271 48.7258 27.0112C48.7763 26.9962 48.7961 27 48.7661 27V29C49.0515 29 49.5176 28.9478 49.8782 28.5871L48.464 27.1729ZM48.7661 27H42.3761V29H48.7661V27ZM50.3781 27.88L49.6307 28.5444L49.6698 28.5883L49.7138 28.6274L50.3781 27.88ZM50.3781 17.335L49.671 16.6279L49.671 16.6279L50.3781 17.335ZM58.1631 17.335L57.4157 17.9994L57.4548 18.0433L57.4988 18.0824L58.1631 17.335ZM53.6181 20.035V19.035H52.6181V20.035H53.6181ZM53.6181 21.19H52.6181V22.19H53.6181V21.19ZM56.9481 21.325L56.2007 21.9894L56.2398 22.0333L56.2838 22.0724L56.9481 21.325ZM56.9481 23.755L56.241 23.0479L56.9481 23.755ZM53.6181 23.875V22.875H52.6181V23.875H53.6181ZM53.6181 25.165H52.6181V26.165H53.6181V25.165ZM58.1631 25.3L57.4157 25.9644L57.4548 26.0083L57.4988 26.0474L58.1631 25.3ZM58.1631 27.88L58.8703 28.5871L58.8703 28.5871L58.1631 27.88ZM57.7581 27H50.7981V29H57.7581V27ZM50.7981 27C50.7695 27 50.7836 26.9966 50.8254 27.0085C50.8699 27.0212 50.9543 27.0542 51.0425 27.1326L49.7138 28.6274C50.0672 28.9416 50.4979 29 50.7981 29V27ZM51.1256 27.2156C51.2039 27.3038 51.2369 27.3882 51.2497 27.4328C51.2616 27.4745 51.2581 27.4887 51.2581 27.46H49.2581C49.2581 27.7602 49.3166 28.1909 49.6307 28.5444L51.1256 27.2156ZM51.2581 27.46V17.74H49.2581V27.46H51.2581ZM51.2581 17.74C51.2581 17.71 51.2619 17.7298 51.2469 17.7803C51.231 17.8342 51.1885 17.9388 51.0853 18.0421L49.671 16.6279C49.3104 16.9885 49.2581 17.4546 49.2581 17.74H51.2581ZM51.0853 18.0421C50.9127 18.2147 50.744 18.2 50.7981 18.2V16.2C50.4723 16.2 50.0236 16.2753 49.671 16.6279L51.0853 18.0421ZM50.7981 18.2H57.7581V16.2H50.7981V18.2ZM57.7581 18.2C57.7794 18.2 57.7478 18.2032 57.6857 18.1824C57.6174 18.1597 57.5117 18.1073 57.4157 17.9994L58.9106 16.6706C58.5544 16.27 58.071 16.2 57.7581 16.2V18.2ZM57.4988 18.0824C57.3909 17.9865 57.3385 17.8808 57.3157 17.8125C57.295 17.7503 57.2981 17.7188 57.2981 17.74H59.2981C59.2981 17.4271 59.2282 16.9437 58.8275 16.5876L57.4988 18.0824ZM57.2981 17.74V19.495H59.2981V17.74H57.2981ZM57.2981 19.495C57.2981 19.5492 57.2834 19.3805 57.456 19.2079L58.8703 20.6221C59.2229 20.2695 59.2981 19.8208 59.2981 19.495H57.2981ZM57.456 19.2079C57.5593 19.1046 57.664 19.0621 57.7178 19.0462C57.7683 19.0312 57.7882 19.035 57.7581 19.035V21.035C58.0436 21.035 58.5096 20.9828 58.8703 20.6221L57.456 19.2079ZM57.7581 19.035H53.6181V21.035H57.7581V19.035ZM52.6181 20.035V21.19H54.6181V20.035H52.6181ZM53.6181 22.19H56.5431V20.19H53.6181V22.19ZM56.5431 22.19C56.5644 22.19 56.5328 22.1932 56.4707 22.1724C56.4024 22.1497 56.2967 22.0973 56.2007 21.9894L57.6956 20.6606C57.3394 20.26 56.856 20.19 56.5431 20.19V22.19ZM56.2838 22.0724C56.1759 21.9765 56.1235 21.8708 56.1007 21.8025C56.08 21.7403 56.0831 21.7088 56.0831 21.73H58.0831C58.0831 21.4171 58.0132 20.9337 57.6125 20.5776L56.2838 22.0724ZM56.0831 21.73V23.335H58.0831V21.73H56.0831ZM56.0831 23.335C56.0831 23.3892 56.0684 23.2205 56.241 23.0479L57.6553 24.4621C58.0079 24.1095 58.0831 23.6608 58.0831 23.335H56.0831ZM56.241 23.0479C56.3443 22.9446 56.449 22.9021 56.5028 22.8862C56.5533 22.8712 56.5732 22.875 56.5431 22.875V24.875C56.8286 24.875 57.2946 24.8228 57.6553 24.4621L56.241 23.0479ZM56.5431 22.875H53.6181V24.875H56.5431V22.875ZM52.6181 23.875V25.165H54.6181V23.875H52.6181ZM53.6181 26.165H57.7581V24.165H53.6181V26.165ZM57.7581 26.165C57.7794 26.165 57.7478 26.1682 57.6857 26.1474C57.6174 26.1247 57.5117 26.0723 57.4157 25.9644L58.9106 24.6356C58.5544 24.235 58.071 24.165 57.7581 24.165V26.165ZM57.4988 26.0474C57.3909 25.9515 57.3385 25.8458 57.3157 25.7775C57.295 25.7153 57.2981 25.6838 57.2981 25.705H59.2981C59.2981 25.3921 59.2282 24.9087 58.8275 24.5526L57.4988 26.0474ZM57.2981 25.705V27.46H59.2981V25.705H57.2981ZM57.2981 27.46C57.2981 27.5142 57.2834 27.3455 57.456 27.1729L58.8703 28.5871C59.2229 28.2345 59.2981 27.7858 59.2981 27.46H57.2981ZM57.456 27.1729C57.5593 27.0696 57.664 27.0271 57.7178 27.0112C57.7683 26.9962 57.7882 27 57.7581 27V29C58.0436 29 58.5096 28.9478 58.8703 28.5871L57.456 27.1729ZM59.2926 27.88L58.5452 28.5444L58.5843 28.5883L58.6282 28.6274L59.2926 27.88ZM59.2926 17.335L58.5855 16.6279L58.5855 16.6279L59.2926 17.335ZM61.7526 17.29L61.3335 18.198L61.346 18.2037L61.3587 18.2091L61.7526 17.29ZM62.1576 17.605L61.4019 18.2599L61.4046 18.263L62.1576 17.605ZM65.0676 20.935L64.3146 21.593L66.0676 23.599V20.935H65.0676ZM68.2626 17.335L67.5152 17.9994L67.5543 18.0433L67.5982 18.0824L68.2626 17.335ZM68.2626 27.88L67.5555 27.1729L67.5555 27.1729L68.2626 27.88ZM65.1876 27.88L64.4402 28.5444L64.4793 28.5883L64.5232 28.6274L65.1876 27.88ZM65.0676 25.615H66.0676V25.2554L65.8386 24.9781L65.0676 25.615ZM62.5026 22.51L63.2736 21.8731L61.5026 19.7293V22.51H62.5026ZM62.3676 27.88L61.6605 27.1729L61.6605 27.1729L62.3676 27.88ZM61.9626 27H59.7126V29H61.9626V27ZM59.7126 27C59.6839 27 59.6981 26.9966 59.7398 27.0085C59.7844 27.0212 59.8688 27.0542 59.957 27.1326L58.6282 28.6274C58.9817 28.9416 59.4124 29 59.7126 29V27ZM60.04 27.2156C60.1184 27.3038 60.1514 27.3882 60.1641 27.4328C60.176 27.4745 60.1726 27.4887 60.1726 27.46H58.1726C58.1726 27.7602 58.231 28.1909 58.5452 28.5444L60.04 27.2156ZM60.1726 27.46V17.74H58.1726V27.46H60.1726ZM60.1726 17.74C60.1726 17.71 60.1764 17.7298 60.1614 17.7803C60.1455 17.8342 60.103 17.9388 59.9997 18.0421L58.5855 16.6279C58.2248 16.9885 58.1726 17.4546 58.1726 17.74H60.1726ZM59.9997 18.0421C59.8271 18.2147 59.6584 18.2 59.7126 18.2V16.2C59.3868 16.2 58.9381 16.2753 58.5855 16.6279L59.9997 18.0421ZM59.7126 18.2H61.2726V16.2H59.7126V18.2ZM61.2726 18.2C61.3157 18.2 61.3407 18.2035 61.3508 18.2054C61.3606 18.2072 61.3528 18.2069 61.3335 18.198L62.1717 16.382C61.8747 16.245 61.5622 16.2 61.2726 16.2V18.2ZM61.3587 18.2091C61.3412 18.2016 61.3368 18.1968 61.3449 18.2031C61.3535 18.2098 61.373 18.2266 61.4019 18.2599L62.9133 16.9501C62.7131 16.7191 62.4611 16.5057 62.1465 16.3709L61.3587 18.2091ZM61.4046 18.263L64.3146 21.593L65.8206 20.277L62.9106 16.947L61.4046 18.263ZM66.0676 20.935V17.74H64.0676V20.935H66.0676ZM66.0676 17.74C66.0676 17.71 66.0714 17.7298 66.0564 17.7803C66.0405 17.8342 65.998 17.9388 65.8947 18.0421L64.4805 16.6279C64.1198 16.9885 64.0676 17.4546 64.0676 17.74H66.0676ZM65.8947 18.0421C65.7221 18.2147 65.5534 18.2 65.6076 18.2V16.2C65.2818 16.2 64.8331 16.2753 64.4805 16.6279L65.8947 18.0421ZM65.6076 18.2H67.8576V16.2H65.6076V18.2ZM67.8576 18.2C67.8788 18.2 67.8473 18.2032 67.7851 18.1824C67.7168 18.1597 67.6111 18.1073 67.5152 17.9994L69.01 16.6706C68.6539 16.27 68.1705 16.2 67.8576 16.2V18.2ZM67.5982 18.0824C67.4903 17.9865 67.4379 17.8808 67.4152 17.8125C67.3944 17.7503 67.3976 17.7188 67.3976 17.74H69.3976C69.3976 17.4271 69.3276 16.9437 68.927 16.5876L67.5982 18.0824ZM67.3976 17.74V27.46H69.3976V17.74H67.3976ZM67.3976 27.46C67.3976 27.5142 67.3829 27.3455 67.5555 27.1729L68.9697 28.5871C69.3223 28.2345 69.3976 27.7858 69.3976 27.46H67.3976ZM67.5555 27.1729C67.6588 27.0696 67.7634 27.0271 67.8173 27.0112C67.8678 26.9962 67.8876 27 67.8576 27V29C68.143 29 68.6091 28.9478 68.9697 28.5871L67.5555 27.1729ZM67.8576 27H65.6076V29H67.8576V27ZM65.6076 27C65.5789 27 65.5931 26.9966 65.6348 27.0085C65.6794 27.0212 65.7638 27.0542 65.852 27.1326L64.5232 28.6274C64.8767 28.9416 65.3074 29 65.6076 29V27ZM65.935 27.2156C66.0134 27.3038 66.0464 27.3882 66.0591 27.4328C66.071 27.4745 66.0676 27.4887 66.0676 27.46H64.0676C64.0676 27.7602 64.126 28.1909 64.4402 28.5444L65.935 27.2156ZM66.0676 27.46V25.615H64.0676V27.46H66.0676ZM65.8386 24.9781L63.2736 21.8731L61.7316 23.1469L64.2966 26.2519L65.8386 24.9781ZM61.5026 22.51V27.46H63.5026V22.51H61.5026ZM61.5026 27.46C61.5026 27.5142 61.4879 27.3455 61.6605 27.1729L63.0747 28.5871C63.4273 28.2345 63.5026 27.7858 63.5026 27.46H61.5026ZM61.6605 27.1729C61.7638 27.0696 61.8684 27.0271 61.9223 27.0112C61.9728 26.9962 61.9926 27 61.9626 27V29C62.248 29 62.7141 28.9478 63.0747 28.5871L61.6605 27.1729ZM69.6865 27.88L68.9391 28.5444L68.9782 28.5883L69.0222 28.6274L69.6865 27.88ZM69.6865 17.335L68.9794 16.6279L68.9794 16.6279L69.6865 17.335ZM77.9365 17.95L77.2963 18.7182L77.3026 18.7234L77.9365 17.95ZM77.9365 27.25L77.3026 26.4766L77.2964 26.4818L77.9365 27.25ZM72.9715 20.065V19.065H71.9715V20.065H72.9715ZM72.9715 25.165H71.9715V26.165H72.9715V25.165ZM75.2815 24.985L74.5744 24.2779L74.5591 24.2933L74.5444 24.3093L75.2815 24.985ZM75.2815 20.245L74.5444 20.9207L74.5738 20.9528L74.6058 20.9822L75.2815 20.245ZM75.1615 27H70.1065V29H75.1615V27ZM70.1065 27C70.0779 27 70.092 26.9966 70.1338 27.0085C70.1783 27.0212 70.2627 27.0542 70.3509 27.1326L69.0222 28.6274C69.3756 28.9416 69.8063 29 70.1065 29V27ZM70.434 27.2156C70.5123 27.3038 70.5453 27.3882 70.5581 27.4328C70.57 27.4745 70.5665 27.4887 70.5665 27.46H68.5665C68.5665 27.7602 68.6249 28.1909 68.9391 28.5444L70.434 27.2156ZM70.5665 27.46V17.74H68.5665V27.46H70.5665ZM70.5665 17.74C70.5665 17.71 70.5703 17.7298 70.5553 17.7803C70.5394 17.8342 70.4969 17.9388 70.3937 18.0421L68.9794 16.6279C68.6188 16.9885 68.5665 17.4546 68.5665 17.74H70.5665ZM70.3937 18.0421C70.2211 18.2147 70.0524 18.2 70.1065 18.2V16.2C69.7807 16.2 69.332 16.2753 68.9794 16.6279L70.3937 18.0421ZM70.1065 18.2H75.1615V16.2H70.1065V18.2ZM75.1615 18.2C76.3094 18.2 76.9564 18.4349 77.2964 18.7182L78.5767 17.1818C77.7167 16.4651 76.5137 16.2 75.1615 16.2V18.2ZM77.3026 18.7234C77.6119 18.9769 77.8515 19.4173 77.8515 20.26H79.8515C79.8515 19.0227 79.4812 17.9231 78.5705 17.1766L77.3026 18.7234ZM77.8515 20.26V24.94H79.8515V20.26H77.8515ZM77.8515 24.94C77.8515 25.7827 77.6119 26.2231 77.3026 26.4766L78.5705 28.0234C79.4812 27.2769 79.8515 26.1773 79.8515 24.94H77.8515ZM77.2964 26.4818C76.9564 26.7651 76.3094 27 75.1615 27V29C76.5137 29 77.7167 28.7349 78.5767 28.0182L77.2964 26.4818ZM71.9715 20.065V25.165H73.9715V20.065H71.9715ZM72.9715 26.165H74.7565V24.165H72.9715V26.165ZM74.7565 26.165C75.1427 26.165 75.6445 26.0689 76.0187 25.6607L74.5444 24.3093C74.6169 24.2302 74.6948 24.1907 74.7435 24.1741C74.7861 24.1594 74.7972 24.165 74.7565 24.165V26.165ZM75.9887 25.6921C76.3691 25.3117 76.4615 24.8203 76.4615 24.43H74.4615C74.4615 24.4786 74.4553 24.4787 74.4653 24.4477C74.4769 24.412 74.5074 24.3449 74.5744 24.2779L75.9887 25.6921ZM76.4615 24.43V20.785H74.4615V24.43H76.4615ZM76.4615 20.785C76.4615 20.4037 76.3728 19.8887 75.9573 19.5078L74.6058 20.9822C74.5212 20.9046 74.4826 20.8231 74.4679 20.7787C74.455 20.7402 74.4615 20.7354 74.4615 20.785H76.4615ZM76.0187 19.5693C75.6445 19.1611 75.1427 19.065 74.7565 19.065V21.065C74.7972 21.065 74.7861 21.0706 74.7435 21.0559C74.6948 21.0393 74.6169 20.9998 74.5444 20.9207L76.0187 19.5693ZM74.7565 19.065H72.9715V21.065H74.7565V19.065ZM79.7079 27.88L78.9605 28.5444L78.9996 28.5883L79.0436 28.6274L79.7079 27.88ZM79.7079 25.3L80.4151 26.0071L80.4151 26.0071L79.7079 25.3ZM84.4479 25.045L83.6586 24.4311L83.6532 24.438L83.6479 24.445L84.4479 25.045ZM84.4479 24.355L83.6479 24.955L83.6706 24.9851L83.6954 25.0135L84.4479 24.355ZM84.1629 24.22L84.0243 25.2103L84.0552 25.2147L84.0863 25.2171L84.1629 24.22ZM81.9129 23.905L81.7715 24.895L81.7743 24.8953L81.9129 23.905ZM80.2179 23.215L79.5671 23.9743L79.576 23.9818L80.2179 23.215ZM80.4129 17.89L81.0462 18.664L81.0545 18.6571L80.4129 17.89ZM87.2979 17.335L86.5505 17.9994L86.5896 18.0433L86.6336 18.0824L87.2979 17.335ZM83.0979 20.2L83.8505 20.8585L83.8696 20.8368L83.8873 20.8139L83.0979 20.2ZM83.3979 20.995L83.531 20.0039L83.5029 20.0001L83.4746 19.9979L83.3979 20.995ZM85.6329 21.295L85.7744 20.305L85.766 20.3039L85.6329 21.295ZM87.3279 21.985L87.9699 21.2182L87.9699 21.2182L87.3279 21.985ZM87.1329 27.325L87.7662 28.099L87.7677 28.0977L87.1329 27.325ZM84.8679 27H80.1279V29H84.8679V27ZM80.1279 27C80.0993 27 80.1134 26.9966 80.1552 27.0085C80.1997 27.0212 80.2841 27.0542 80.3723 27.1326L79.0436 28.6274C79.397 28.9416 79.8277 29 80.1279 29V27ZM80.4554 27.2156C80.5337 27.3038 80.5667 27.3882 80.5795 27.4328C80.5914 27.4745 80.5879 27.4887 80.5879 27.46H78.5879C78.5879 27.7602 78.6464 28.1909 78.9605 28.5444L80.4554 27.2156ZM80.5879 27.46V25.705H78.5879V27.46H80.5879ZM80.5879 25.705C80.5879 25.675 80.5917 25.6948 80.5767 25.7453C80.5608 25.7992 80.5183 25.9038 80.4151 26.0071L79.0008 24.5929C78.6402 24.9535 78.5879 25.4196 78.5879 25.705H80.5879ZM80.4151 26.0071C80.2425 26.1797 80.0738 26.165 80.1279 26.165V24.165C79.8021 24.165 79.3534 24.2403 79.0008 24.5929L80.4151 26.0071ZM80.1279 26.165H84.1629V24.165H80.1279V26.165ZM84.1629 26.165C84.5044 26.165 84.9447 26.0494 85.2479 25.645L83.6479 24.445C83.7277 24.3387 83.833 24.2599 83.9436 24.2134C84.0465 24.17 84.1282 24.165 84.1629 24.165V26.165ZM85.2373 25.6589C85.4513 25.3838 85.5529 25.0599 85.5529 24.73H83.5529C83.5529 24.6916 83.5588 24.6402 83.578 24.5825C83.5974 24.5242 83.6261 24.4728 83.6586 24.4311L85.2373 25.6589ZM85.5529 24.73C85.5529 24.4548 85.5017 24.0406 85.2005 23.6965L83.6954 25.0135C83.6128 24.9191 83.5777 24.8284 83.5637 24.7784C83.5504 24.7308 83.5529 24.7097 83.5529 24.73H85.5529ZM85.2479 23.755C84.9663 23.3795 84.5639 23.2479 84.2396 23.2229L84.0863 25.2171C84.0576 25.2149 83.9896 25.2057 83.9036 25.165C83.8121 25.1216 83.7204 25.0516 83.6479 24.955L85.2479 23.755ZM84.3016 23.2297L82.0516 22.9147L81.7743 24.8953L84.0243 25.2103L84.3016 23.2297ZM82.0544 22.9151C81.491 22.8346 81.1142 22.6611 80.8599 22.4482L79.576 23.9818C80.1817 24.4889 80.9349 24.7754 81.7715 24.8949L82.0544 22.9151ZM80.8687 22.4557C80.7646 22.3665 80.5879 22.1156 80.5879 21.415H78.5879C78.5879 22.3944 78.8313 23.3435 79.5672 23.9743L80.8687 22.4557ZM80.5879 21.415V19.84H78.5879V21.415H80.5879ZM80.5879 19.84C80.5879 19.2248 80.7744 18.8863 81.0462 18.664L79.7797 17.116C78.9514 17.7937 78.5879 18.7552 78.5879 19.84H80.5879ZM81.0545 18.6571C81.3699 18.3933 81.8746 18.2 82.6929 18.2V16.2C81.5713 16.2 80.556 16.4667 79.7714 17.1229L81.0545 18.6571ZM82.6929 18.2H86.8929V16.2H82.6929V18.2ZM86.8929 18.2C86.9142 18.2 86.8826 18.2032 86.8205 18.1824C86.7522 18.1597 86.6465 18.1073 86.5505 17.9994L88.0454 16.6706C87.6892 16.27 87.2058 16.2 86.8929 16.2V18.2ZM86.6336 18.0824C86.5257 17.9865 86.4733 17.8808 86.4505 17.8125C86.4298 17.7503 86.4329 17.7188 86.4329 17.74H88.4329C88.4329 17.4271 88.363 16.9437 87.9623 16.5876L86.6336 18.0824ZM86.4329 17.74V19.525H88.4329V17.74H86.4329ZM86.4329 19.525C86.4329 19.5792 86.4182 19.4105 86.5908 19.2379L88.0051 20.6521C88.3577 20.2995 88.4329 19.8508 88.4329 19.525H86.4329ZM86.5908 19.2379C86.6941 19.1346 86.7988 19.0921 86.8526 19.0762C86.9031 19.0612 86.923 19.065 86.8929 19.065V21.065C87.1784 21.065 87.6444 21.0128 88.0051 20.6521L86.5908 19.2379ZM86.8929 19.065H83.3979V21.065H86.8929V19.065ZM83.3979 19.065C83.0084 19.065 82.5963 19.2162 82.3086 19.5861L83.8873 20.8139C83.8263 20.8924 83.7406 20.9635 83.6358 21.0107C83.5351 21.056 83.4485 21.065 83.3979 21.065V19.065ZM82.3454 19.5415C82.0823 19.8421 81.9929 20.1991 81.9929 20.515H83.9929C83.9929 20.5392 83.9897 20.5895 83.9679 20.655C83.9452 20.7232 83.9066 20.7945 83.8505 20.8585L82.3454 19.5415ZM81.9929 20.515C81.9929 20.8347 82.0833 21.1692 82.3086 21.4589L83.8873 20.2311C83.9256 20.2804 83.9543 20.3358 83.9721 20.3918C83.9895 20.4463 83.9929 20.4899 83.9929 20.515H81.9929ZM82.3086 21.4589C82.5772 21.8043 82.9548 21.9639 83.3213 21.9921L83.4746 19.9979C83.5175 20.0012 83.5894 20.0139 83.6727 20.0556C83.7589 20.0987 83.8325 20.1606 83.8873 20.2311L82.3086 21.4589ZM83.2649 21.9861L85.4999 22.2861L85.766 20.3039L83.531 20.0039L83.2649 21.9861ZM85.4915 22.2849C86.0549 22.3654 86.4317 22.5389 86.686 22.7518L87.9699 21.2182C87.3642 20.7111 86.611 20.4246 85.7744 20.3051L85.4915 22.2849ZM86.686 22.7518C86.7949 22.8429 86.9729 23.091 86.9729 23.785H88.9729C88.9729 22.799 88.721 21.8471 87.9699 21.2182L86.686 22.7518ZM86.9729 23.785V25.36H88.9729V23.785H86.9729ZM86.9729 25.36C86.9729 25.9684 86.7858 26.316 86.4982 26.5523L87.7677 28.0977C88.6001 27.414 88.9729 26.4516 88.9729 25.36H86.9729ZM86.4997 26.551C86.1823 26.8107 85.6781 27 84.8679 27V29C85.9778 29 86.9836 28.7393 87.7662 28.099L86.4997 26.551Z" fill="black" mask="url(#path-8-outside-1_2530_1399)"/>
</g>
<defs>
<filter id="filter0_d_2530_1399" x="23.4563" y="17.2002" width="64.5166" height="12.7998" filterUnits="userSpaceOnUse" color-interpolation-filters="sRGB">
<feFlood flood-opacity="0" result="BackgroundImageFix"/>
<feColorMatrix in="SourceAlpha" type="matrix" values="0 0 0 0 0 0 0 0 0 0 0 0 0 0 0 0 0 0 127 0" result="hardAlpha"/>
<feOffset dy="2"/>
<feComposite in2="hardAlpha" operator="out"/>
<feColorMatrix type="matrix" values="0 0 0 0 0 0 0 0 0 0 0 0 0 0 0 0 0 0 1 0"/>
<feBlend mode="normal" in2="BackgroundImageFix" result="effect1_dropShadow_2530_1399"/>
<feBlend mode="normal" in="SourceGraphic" in2="effect1_dropShadow_2530_1399" result="shape"/>
</filter>
<linearGradient id="paint0_linear_2530_1399" x1="56.4444" y1="38.0462" x2="56.4444" y2="47.0462" gradientUnits="userSpaceOnUse">
<stop stop-color="#2E0D68"/>
<stop offset="1" stop-color="#5D22AC"/>
</linearGradient>
<linearGradient id="paint1_linear_2530_1399" x1="41.375" y1="42" x2="41.375" y2="2" gradientUnits="userSpaceOnUse">
<stop stop-color="#F6E6F6"/>
<stop offset="1" stop-color="#D293FE"/>
</linearGradient>
<linearGradient id="paint2_linear_2530_1399" x1="4.43056" y1="5" x2="15.0704" y2="11.8054" gradientUnits="userSpaceOnUse">
<stop stop-color="white"/>
<stop offset="1" stop-color="white" stop-opacity="0"/>
</linearGradient>
<linearGradient id="paint3_linear_2530_1399" x1="68.3029" y1="9.93548" x2="68.3029" y2="30.2258" gradientUnits="userSpaceOnUse">
<stop stop-color="#E4ADFF"/>
<stop offset="1" stop-color="#D590FD"/>
</linearGradient>
</defs>
</svg>
