<svg width="54" height="68" viewBox="0 0 54 68" fill="none" xmlns="http://www.w3.org/2000/svg">
<g filter="url(#filter0_iiiii_2766_913)">
<circle cx="27" cy="24" r="24" fill="url(#paint0_linear_2766_913)"/>
</g>
<g filter="url(#filter1_iii_2766_913)">
<path fill-rule="evenodd" clip-rule="evenodd" d="M38.4106 11.0611C39.2224 11.0611 40.0098 11.401 40.5649 11.9907C41.1269 12.5874 41.4183 13.3991 41.3698 14.2177C40.9084 21.9634 36.9119 26.8231 30.5841 27.5516L31.8122 31.825C33.2727 31.825 34.4557 33.0078 34.4557 34.4682V37.375H20.5651V34.4682C20.5651 33.0078 21.7481 31.825 23.2086 31.825L24.4367 27.5516C18.0951 26.83 14.0951 21.9669 13.6302 14.2177C13.5817 13.3956 13.8731 12.5839 14.4351 11.9907C14.9902 11.401 15.7777 11.0611 16.5895 11.0611H19.1913C19.1809 10.5962 19.174 10.1175 19.174 9.625H35.8434C35.8434 10.1176 35.8365 10.5962 35.826 11.0611H38.4106ZM16.4576 13.8951C16.4299 13.9229 16.3986 13.9749 16.4021 14.0512C16.5964 17.2875 17.658 22.2721 22.109 24.1383C20.9398 22.39 19.736 19.2959 19.3232 13.8396H16.5895C16.5721 13.8396 16.5096 13.8396 16.4576 13.8951ZM35.6907 13.8361C35.2779 19.2855 34.0775 22.3761 32.9085 24.1279C37.3455 22.2547 38.4036 17.2841 38.6014 14.0477C38.6048 13.9714 38.5736 13.9194 38.5459 13.8916C38.4938 13.8361 38.4348 13.8361 38.414 13.8361H35.6907ZM25.5002 17.4705L23.8786 16.0191C23.8078 15.9552 23.7821 15.8606 23.8128 15.774C23.8435 15.6875 23.925 15.6244 24.0231 15.6113L26.2642 15.3125L27.2665 13.4474C27.3542 13.2842 27.6458 13.2842 27.7335 13.4474L28.7358 15.3125L30.9769 15.6113C31.075 15.6244 31.1565 15.6878 31.1872 15.774C31.218 15.8603 31.1922 15.9555 31.1214 16.0191L29.4996 17.4703L29.8825 19.5203C29.8991 19.61 29.8591 19.7006 29.7789 19.7541C29.6987 19.8079 29.5922 19.8148 29.5048 19.7723L27.5 18.8046L25.495 19.7725C25.457 19.7909 25.4153 19.8 25.3739 19.8C25.32 19.8 25.2662 19.7847 25.2209 19.7543C25.1407 19.7008 25.1006 19.6102 25.1173 19.5206L25.5002 17.4705Z" fill="url(#paint1_linear_2766_913)"/>
</g>
<mask id="path-3-outside-1_2766_913" maskUnits="userSpaceOnUse" x="10" y="51" width="35" height="14" fill="black">
<rect fill="white" x="10" y="51" width="35" height="14"/>
<path d="M13.7572 57.912H14.9092C15.4745 57.912 15.9279 57.784 16.2692 57.528C16.6105 57.272 16.7812 56.8987 16.7812 56.408C16.7812 55.9067 16.6159 55.5333 16.2852 55.288C15.9545 55.032 15.4532 54.904 14.7812 54.904C14.5892 54.904 14.4079 54.9147 14.2372 54.936C14.0665 54.9467 13.9065 54.968 13.7572 55V57.912ZM15.1012 59.672H11.4852V54.136C11.4852 53.9333 11.5439 53.7787 11.6612 53.672C11.7785 53.5547 11.9332 53.4587 12.1252 53.384C12.4665 53.2667 12.8719 53.1813 13.3412 53.128C13.8105 53.0747 14.3012 53.048 14.8132 53.048C16.2319 53.048 17.2985 53.3467 18.0132 53.944C18.7385 54.5413 19.1012 55.352 19.1012 56.376C19.1012 57.0267 18.9305 57.6027 18.5892 58.104C18.2479 58.5947 17.7785 58.9787 17.1812 59.256C16.5839 59.5333 15.8905 59.672 15.1012 59.672ZM14.7172 59.128L16.7172 58.632C16.9732 58.9627 17.2345 59.2987 17.5012 59.64C17.7785 59.9813 18.0399 60.312 18.2852 60.632C18.5305 60.952 18.7545 61.2453 18.9572 61.512C19.1599 61.7787 19.3145 62.0027 19.4212 62.184C19.3359 62.4827 19.1759 62.7173 18.9412 62.888C18.7065 63.0587 18.4505 63.144 18.1732 63.144C17.8105 63.144 17.5279 63.064 17.3252 62.904C17.1225 62.7333 16.9359 62.5093 16.7652 62.232L14.7172 59.128ZM11.4852 58.84H13.7892V62.984C13.6825 63.0053 13.5279 63.032 13.3252 63.064C13.1332 63.096 12.9305 63.112 12.7172 63.112C12.2692 63.112 11.9492 63.032 11.7572 62.872C11.5759 62.7013 11.4852 62.424 11.4852 62.04V58.84ZM23.1902 61.576C23.4675 61.576 23.7235 61.5493 23.9582 61.496C24.2035 61.4427 24.3849 61.3787 24.5022 61.304V59.672L23.0622 59.8C22.6782 59.832 22.3795 59.9173 22.1662 60.056C21.9529 60.1947 21.8462 60.3973 21.8462 60.664C21.8462 60.9413 21.9529 61.1653 22.1662 61.336C22.3795 61.496 22.7209 61.576 23.1902 61.576ZM23.1102 55.128C24.1875 55.128 25.0462 55.3573 25.6862 55.816C26.3369 56.264 26.6622 56.9733 26.6622 57.944V61.592C26.6622 61.8587 26.5929 62.072 26.4542 62.232C26.3262 62.3813 26.1609 62.52 25.9582 62.648C25.6489 62.8293 25.2595 62.9733 24.7902 63.08C24.3209 63.1867 23.7875 63.24 23.1902 63.24C22.1129 63.24 21.2542 63.032 20.6142 62.616C19.9849 62.2 19.6702 61.576 19.6702 60.744C19.6702 60.0187 19.8942 59.464 20.3422 59.08C20.7902 58.696 21.4569 58.4613 22.3422 58.376L24.4862 58.152V57.912C24.4862 57.528 24.3422 57.2507 24.0542 57.08C23.7662 56.9093 23.3609 56.824 22.8382 56.824C22.4329 56.824 22.0329 56.8773 21.6382 56.984C21.2435 57.08 20.8915 57.1973 20.5822 57.336C20.4649 57.2507 20.3635 57.128 20.2782 56.968C20.1929 56.7973 20.1502 56.6213 20.1502 56.44C20.1502 56.0133 20.3795 55.704 20.8382 55.512C21.1475 55.384 21.5049 55.288 21.9102 55.224C22.3155 55.16 22.7155 55.128 23.1102 55.128ZM34.9869 58.04V59.56H32.7629V58.104C32.7629 57.688 32.6403 57.384 32.3949 57.192C32.1496 56.9893 31.8243 56.888 31.4189 56.888C31.1309 56.888 30.8696 56.9253 30.6349 57C30.4003 57.064 30.1869 57.1493 29.9949 57.256V59.56H27.7709V57.032C27.7709 56.7653 27.8243 56.552 27.9309 56.392C28.0483 56.2213 28.2136 56.0613 28.4269 55.912C28.7576 55.688 29.1843 55.5013 29.7069 55.352C30.2296 55.2027 30.8109 55.128 31.4509 55.128C32.5709 55.128 33.4403 55.3787 34.0589 55.88C34.6776 56.3707 34.9869 57.0907 34.9869 58.04ZM27.7709 58.808H29.9949V62.984C29.8989 63.0053 29.7603 63.032 29.5789 63.064C29.3976 63.096 29.2003 63.112 28.9869 63.112C28.5709 63.112 28.2616 63.0373 28.0589 62.888C27.8669 62.7387 27.7709 62.4667 27.7709 62.072V58.808ZM32.7629 58.808H34.9869V62.984C34.8909 63.0053 34.7523 63.032 34.5709 63.064C34.3896 63.096 34.1976 63.112 33.9949 63.112C33.5683 63.112 33.2536 63.0373 33.0509 62.888C32.8589 62.7387 32.7629 62.4667 32.7629 62.072V58.808ZM39.3592 59.88L37.7752 58.856L41.3912 55.224C41.8499 55.2347 42.2125 55.3413 42.4792 55.544C42.7459 55.736 42.8792 55.9867 42.8792 56.296C42.8792 56.5627 42.7885 56.7973 42.6072 57C42.4365 57.2027 42.1645 57.4587 41.7912 57.768L39.3592 59.88ZM37.8552 59.192L39.5992 58.392L43.2152 61.848C43.1832 62.2427 43.0605 62.5573 42.8472 62.792C42.6445 63.016 42.3619 63.128 41.9992 63.128C41.7219 63.128 41.4712 63.0587 41.2472 62.92C41.0232 62.7813 40.7832 62.5573 40.5272 62.248L37.8552 59.192ZM36.1592 58.76L38.3832 58.824V62.984C38.2872 63.0053 38.1485 63.032 37.9672 63.064C37.7859 63.096 37.5885 63.112 37.3752 63.112C36.9592 63.112 36.6499 63.0373 36.4472 62.888C36.2552 62.7387 36.1592 62.4667 36.1592 62.072V58.76ZM38.3832 59.976L36.1592 59.912V52.584C36.2552 52.5627 36.3939 52.536 36.5752 52.504C36.7565 52.472 36.9539 52.456 37.1672 52.456C37.5939 52.456 37.9032 52.5307 38.0952 52.68C38.2872 52.8293 38.3832 53.1013 38.3832 53.496V59.976Z"/>
</mask>
<path d="M13.7572 57.912H14.9092C15.4745 57.912 15.9279 57.784 16.2692 57.528C16.6105 57.272 16.7812 56.8987 16.7812 56.408C16.7812 55.9067 16.6159 55.5333 16.2852 55.288C15.9545 55.032 15.4532 54.904 14.7812 54.904C14.5892 54.904 14.4079 54.9147 14.2372 54.936C14.0665 54.9467 13.9065 54.968 13.7572 55V57.912ZM15.1012 59.672H11.4852V54.136C11.4852 53.9333 11.5439 53.7787 11.6612 53.672C11.7785 53.5547 11.9332 53.4587 12.1252 53.384C12.4665 53.2667 12.8719 53.1813 13.3412 53.128C13.8105 53.0747 14.3012 53.048 14.8132 53.048C16.2319 53.048 17.2985 53.3467 18.0132 53.944C18.7385 54.5413 19.1012 55.352 19.1012 56.376C19.1012 57.0267 18.9305 57.6027 18.5892 58.104C18.2479 58.5947 17.7785 58.9787 17.1812 59.256C16.5839 59.5333 15.8905 59.672 15.1012 59.672ZM14.7172 59.128L16.7172 58.632C16.9732 58.9627 17.2345 59.2987 17.5012 59.64C17.7785 59.9813 18.0399 60.312 18.2852 60.632C18.5305 60.952 18.7545 61.2453 18.9572 61.512C19.1599 61.7787 19.3145 62.0027 19.4212 62.184C19.3359 62.4827 19.1759 62.7173 18.9412 62.888C18.7065 63.0587 18.4505 63.144 18.1732 63.144C17.8105 63.144 17.5279 63.064 17.3252 62.904C17.1225 62.7333 16.9359 62.5093 16.7652 62.232L14.7172 59.128ZM11.4852 58.84H13.7892V62.984C13.6825 63.0053 13.5279 63.032 13.3252 63.064C13.1332 63.096 12.9305 63.112 12.7172 63.112C12.2692 63.112 11.9492 63.032 11.7572 62.872C11.5759 62.7013 11.4852 62.424 11.4852 62.04V58.84ZM23.1902 61.576C23.4675 61.576 23.7235 61.5493 23.9582 61.496C24.2035 61.4427 24.3849 61.3787 24.5022 61.304V59.672L23.0622 59.8C22.6782 59.832 22.3795 59.9173 22.1662 60.056C21.9529 60.1947 21.8462 60.3973 21.8462 60.664C21.8462 60.9413 21.9529 61.1653 22.1662 61.336C22.3795 61.496 22.7209 61.576 23.1902 61.576ZM23.1102 55.128C24.1875 55.128 25.0462 55.3573 25.6862 55.816C26.3369 56.264 26.6622 56.9733 26.6622 57.944V61.592C26.6622 61.8587 26.5929 62.072 26.4542 62.232C26.3262 62.3813 26.1609 62.52 25.9582 62.648C25.6489 62.8293 25.2595 62.9733 24.7902 63.08C24.3209 63.1867 23.7875 63.24 23.1902 63.24C22.1129 63.24 21.2542 63.032 20.6142 62.616C19.9849 62.2 19.6702 61.576 19.6702 60.744C19.6702 60.0187 19.8942 59.464 20.3422 59.08C20.7902 58.696 21.4569 58.4613 22.3422 58.376L24.4862 58.152V57.912C24.4862 57.528 24.3422 57.2507 24.0542 57.08C23.7662 56.9093 23.3609 56.824 22.8382 56.824C22.4329 56.824 22.0329 56.8773 21.6382 56.984C21.2435 57.08 20.8915 57.1973 20.5822 57.336C20.4649 57.2507 20.3635 57.128 20.2782 56.968C20.1929 56.7973 20.1502 56.6213 20.1502 56.44C20.1502 56.0133 20.3795 55.704 20.8382 55.512C21.1475 55.384 21.5049 55.288 21.9102 55.224C22.3155 55.16 22.7155 55.128 23.1102 55.128ZM34.9869 58.04V59.56H32.7629V58.104C32.7629 57.688 32.6403 57.384 32.3949 57.192C32.1496 56.9893 31.8243 56.888 31.4189 56.888C31.1309 56.888 30.8696 56.9253 30.6349 57C30.4003 57.064 30.1869 57.1493 29.9949 57.256V59.56H27.7709V57.032C27.7709 56.7653 27.8243 56.552 27.9309 56.392C28.0483 56.2213 28.2136 56.0613 28.4269 55.912C28.7576 55.688 29.1843 55.5013 29.7069 55.352C30.2296 55.2027 30.8109 55.128 31.4509 55.128C32.5709 55.128 33.4403 55.3787 34.0589 55.88C34.6776 56.3707 34.9869 57.0907 34.9869 58.04ZM27.7709 58.808H29.9949V62.984C29.8989 63.0053 29.7603 63.032 29.5789 63.064C29.3976 63.096 29.2003 63.112 28.9869 63.112C28.5709 63.112 28.2616 63.0373 28.0589 62.888C27.8669 62.7387 27.7709 62.4667 27.7709 62.072V58.808ZM32.7629 58.808H34.9869V62.984C34.8909 63.0053 34.7523 63.032 34.5709 63.064C34.3896 63.096 34.1976 63.112 33.9949 63.112C33.5683 63.112 33.2536 63.0373 33.0509 62.888C32.8589 62.7387 32.7629 62.4667 32.7629 62.072V58.808ZM39.3592 59.88L37.7752 58.856L41.3912 55.224C41.8499 55.2347 42.2125 55.3413 42.4792 55.544C42.7459 55.736 42.8792 55.9867 42.8792 56.296C42.8792 56.5627 42.7885 56.7973 42.6072 57C42.4365 57.2027 42.1645 57.4587 41.7912 57.768L39.3592 59.88ZM37.8552 59.192L39.5992 58.392L43.2152 61.848C43.1832 62.2427 43.0605 62.5573 42.8472 62.792C42.6445 63.016 42.3619 63.128 41.9992 63.128C41.7219 63.128 41.4712 63.0587 41.2472 62.92C41.0232 62.7813 40.7832 62.5573 40.5272 62.248L37.8552 59.192ZM36.1592 58.76L38.3832 58.824V62.984C38.2872 63.0053 38.1485 63.032 37.9672 63.064C37.7859 63.096 37.5885 63.112 37.3752 63.112C36.9592 63.112 36.6499 63.0373 36.4472 62.888C36.2552 62.7387 36.1592 62.4667 36.1592 62.072V58.76ZM38.3832 59.976L36.1592 59.912V52.584C36.2552 52.5627 36.3939 52.536 36.5752 52.504C36.7565 52.472 36.9539 52.456 37.1672 52.456C37.5939 52.456 37.9032 52.5307 38.0952 52.68C38.2872 52.8293 38.3832 53.1013 38.3832 53.496V59.976Z" fill="white"/>
<path d="M13.7572 57.912H12.7572V58.912H13.7572V57.912ZM16.2692 57.528L16.8692 58.328V58.328L16.2692 57.528ZM16.2852 55.288L15.673 56.0787L15.6811 56.085L15.6893 56.0911L16.2852 55.288ZM14.2372 54.936L14.2996 55.9341L14.3305 55.9321L14.3612 55.9283L14.2372 54.936ZM13.7572 55L13.5477 54.0222L12.7572 54.1916V55H13.7572ZM11.4852 59.672H10.4852V60.672H11.4852V59.672ZM11.6612 53.672L12.3339 54.4119L12.3515 54.3959L12.3683 54.3791L11.6612 53.672ZM12.1252 53.384L11.8001 52.4383L11.7813 52.4448L11.7627 52.452L12.1252 53.384ZM18.0132 53.944L17.3719 54.7113L17.3775 54.7159L18.0132 53.944ZM18.5892 58.104L19.4101 58.6751L19.4158 58.6668L18.5892 58.104ZM14.7172 59.128L14.4765 58.1574L13.1034 58.4979L13.8825 59.6787L14.7172 59.128ZM16.7172 58.632L17.5079 58.0198L17.109 57.5045L16.4765 57.6614L16.7172 58.632ZM17.5012 59.64L16.7132 60.2556L16.719 60.2632L16.7251 60.2706L17.5012 59.64ZM18.2852 60.632L17.4916 61.2404L18.2852 60.632ZM18.9572 61.512L18.161 62.1171V62.1171L18.9572 61.512ZM19.4212 62.184L20.3827 62.4587L20.5005 62.0465L20.2831 61.677L19.4212 62.184ZM18.9412 62.888L19.5294 63.6967L18.9412 62.888ZM17.3252 62.904L16.6811 63.6689L16.6931 63.6791L16.7055 63.6889L17.3252 62.904ZM16.7652 62.232L17.6168 61.7079L17.6086 61.6945L17.5999 61.6813L16.7652 62.232ZM11.4852 58.84V57.84H10.4852V58.84H11.4852ZM13.7892 58.84H14.7892V57.84H13.7892V58.84ZM13.7892 62.984L13.9853 63.9646L14.7892 63.8038V62.984H13.7892ZM13.3252 63.064L13.1692 62.0762L13.1608 62.0776L13.3252 63.064ZM11.7572 62.872L11.0718 63.6002L11.0938 63.6209L11.117 63.6402L11.7572 62.872ZM13.7572 58.912H14.9092V56.912H13.7572V58.912ZM14.9092 58.912C15.6209 58.912 16.3061 58.7503 16.8692 58.328L15.6692 56.728C15.5496 56.8177 15.3281 56.912 14.9092 56.912V58.912ZM16.8692 58.328C17.5025 57.8531 17.7812 57.1596 17.7812 56.408H15.7812C15.7812 56.6377 15.7186 56.6909 15.6692 56.728L16.8692 58.328ZM17.7812 56.408C17.7812 55.6673 17.5222 54.9606 16.881 54.4849L15.6893 56.0911C15.7095 56.1061 15.7812 56.146 15.7812 56.408H17.7812ZM16.8974 54.4973C16.3133 54.0451 15.55 53.904 14.7812 53.904V55.904C15.3564 55.904 15.5957 56.0189 15.673 56.0787L16.8974 54.4973ZM14.7812 53.904C14.5524 53.904 14.3294 53.9167 14.1132 53.9437L14.3612 55.9283C14.4863 55.9126 14.626 55.904 14.7812 55.904V53.904ZM14.1748 53.9379C13.9604 53.9513 13.7508 53.9787 13.5477 54.0222L13.9667 55.9778C14.0622 55.9573 14.1726 55.942 14.2996 55.9341L14.1748 53.9379ZM12.7572 55V57.912H14.7572V55H12.7572ZM15.1012 58.672H11.4852V60.672H15.1012V58.672ZM12.4852 59.672V54.136H10.4852V59.672H12.4852ZM12.4852 54.136C12.4852 54.1294 12.4863 54.1644 12.4642 54.2227C12.4401 54.2861 12.3968 54.3547 12.3339 54.4119L10.9885 52.9321C10.6081 53.2779 10.4852 53.735 10.4852 54.136H12.4852ZM12.3683 54.3791C12.3669 54.3805 12.3946 54.3522 12.4876 54.316L11.7627 52.452C11.4718 52.5651 11.1901 52.7289 10.9541 52.9649L12.3683 54.3791ZM12.4503 54.3297C12.7055 54.2419 13.0362 54.1691 13.4541 54.1216L13.2283 52.1344C12.7075 52.1936 12.2275 52.2914 11.8001 52.4383L12.4503 54.3297ZM13.4541 54.1216C13.883 54.0729 14.3358 54.048 14.8132 54.048V52.048C14.2666 52.048 13.7381 52.0765 13.2283 52.1344L13.4541 54.1216ZM14.8132 54.048C16.1148 54.048 16.9103 54.3255 17.3719 54.7113L18.6545 53.1767C17.6868 52.3679 16.3489 52.048 14.8132 52.048V54.048ZM17.3775 54.7159C17.8496 55.1047 18.1012 55.6203 18.1012 56.376H20.1012C20.1012 55.0837 19.6275 53.978 18.6489 53.1721L17.3775 54.7159ZM18.1012 56.376C18.1012 56.8413 17.9826 57.2181 17.7626 57.5412L19.4158 58.6668C19.8785 57.9873 20.1012 57.212 20.1012 56.376H18.1012ZM17.7683 57.5329C17.5382 57.8637 17.2136 58.1384 16.7601 58.349L17.6023 60.163C18.3435 59.8189 18.9575 59.3256 19.4101 58.6751L17.7683 57.5329ZM16.7601 58.349C16.3183 58.5541 15.7735 58.672 15.1012 58.672V60.672C16.0075 60.672 16.8495 60.5125 17.6023 60.163L16.7601 58.349ZM14.9579 60.0986L16.9579 59.6026L16.4765 57.6614L14.4765 58.1574L14.9579 60.0986ZM15.9265 59.2442C16.1834 59.576 16.4456 59.9132 16.7132 60.2556L18.2892 59.0244C18.0234 58.6841 17.763 58.3493 17.5079 58.0198L15.9265 59.2442ZM16.7251 60.2706C16.997 60.6053 17.2525 60.9285 17.4916 61.2404L19.0788 60.0236C18.8272 59.6955 18.56 59.3574 18.2773 59.0094L16.7251 60.2706ZM17.4916 61.2404C17.7362 61.5595 17.9594 61.8517 18.161 62.1171L19.7534 60.9069C19.5497 60.6389 19.3248 60.3445 19.0788 60.0236L17.4916 61.2404ZM18.161 62.1171C18.352 62.3684 18.4807 62.5574 18.5593 62.691L20.2831 61.677C20.1484 61.4479 19.9677 61.1889 19.7534 60.9069L18.161 62.1171ZM18.4597 61.9093C18.4311 62.0094 18.394 62.0495 18.353 62.0793L19.5294 63.6967C19.9578 63.3852 20.2407 62.9559 20.3827 62.4587L18.4597 61.9093ZM18.353 62.0793C18.2808 62.1318 18.229 62.144 18.1732 62.144V64.144C18.6721 64.144 19.1322 63.9856 19.5294 63.6967L18.353 62.0793ZM18.1732 62.144C17.9462 62.144 17.9118 62.0931 17.9448 62.1191L16.7055 63.6889C17.1439 64.0349 17.6749 64.144 18.1732 64.144V62.144ZM17.9693 62.1391C17.8644 62.0508 17.7439 61.9144 17.6168 61.7079L15.9135 62.7561C16.1278 63.1043 16.3806 63.4159 16.6811 63.6689L17.9693 62.1391ZM17.5999 61.6813L15.5519 58.5773L13.8825 59.6787L15.9305 62.7827L17.5999 61.6813ZM11.4852 59.84H13.7892V57.84H11.4852V59.84ZM12.7892 58.84V62.984H14.7892V58.84H12.7892ZM13.5931 62.0034C13.5067 62.0207 13.368 62.0449 13.1692 62.0762L13.4812 64.0518C13.6877 64.0191 13.8584 63.99 13.9853 63.9646L13.5931 62.0034ZM13.1608 62.0776C13.028 62.0997 12.8806 62.112 12.7172 62.112V64.112C12.9804 64.112 13.2384 64.0923 13.4896 64.0504L13.1608 62.0776ZM12.7172 62.112C12.5479 62.112 12.4419 62.0964 12.3837 62.0819C12.3251 62.0672 12.3469 62.0617 12.3974 62.1038L11.117 63.6402C11.5843 64.0296 12.2007 64.112 12.7172 64.112V62.112ZM12.4426 62.1438C12.4662 62.1661 12.4826 62.188 12.493 62.205C12.5029 62.2214 12.5052 62.2299 12.5037 62.2253C12.4996 62.2129 12.4852 62.1578 12.4852 62.04H10.4852C10.4852 62.5523 10.603 63.1589 11.0718 63.6002L12.4426 62.1438ZM12.4852 62.04V58.84H10.4852V62.04H12.4852ZM23.9582 61.496L23.7458 60.5188L23.7366 60.5209L23.9582 61.496ZM24.5022 61.304L25.0391 62.1477L25.5022 61.8529V61.304H24.5022ZM24.5022 59.672H25.5022V58.5792L24.4136 58.6759L24.5022 59.672ZM23.0622 59.8L23.1452 60.7966L23.1507 60.7961L23.0622 59.8ZM22.1662 60.056L21.6212 59.2176V59.2176L22.1662 60.056ZM22.1662 61.336L21.5415 62.1169L21.5537 62.1266L21.5662 62.136L22.1662 61.336ZM25.6862 55.816L25.1037 56.6288L25.1113 56.6343L25.1191 56.6396L25.6862 55.816ZM26.4542 62.232L25.6985 61.5771L25.6949 61.5812L26.4542 62.232ZM25.9582 62.648L26.4639 63.5107L26.4782 63.5023L26.4922 63.4935L25.9582 62.648ZM24.7902 63.08L25.0118 64.0551L24.7902 63.08ZM20.6142 62.616L20.0627 63.4502L20.0692 63.4544L20.6142 62.616ZM20.3422 59.08L20.993 59.8393V59.8393L20.3422 59.08ZM22.3422 58.376L22.4381 59.3714L22.4461 59.3706L22.3422 58.376ZM24.4862 58.152L24.5901 59.1466L25.4862 59.053V58.152H24.4862ZM21.6382 56.984L21.8745 57.9557L21.8869 57.9527L21.8991 57.9494L21.6382 56.984ZM20.5822 57.336L19.994 58.1447L20.4626 58.4855L20.9912 58.2485L20.5822 57.336ZM20.2782 56.968L19.3838 57.4152L19.3896 57.427L19.3958 57.4386L20.2782 56.968ZM20.8382 55.512L20.4558 54.588L20.4521 54.5896L20.8382 55.512ZM21.9102 55.224L21.7542 54.2362L21.9102 55.224ZM23.1902 62.576C23.5311 62.576 23.8624 62.5433 24.1798 62.4711L23.7366 60.5209C23.5846 60.5554 23.404 60.576 23.1902 60.576V62.576ZM24.1706 62.4732C24.4538 62.4116 24.7723 62.3174 25.0391 62.1477L23.9653 60.4603C23.9898 60.4448 23.9895 60.4494 23.9454 60.465C23.9039 60.4797 23.8392 60.4985 23.7458 60.5188L24.1706 62.4732ZM25.5022 61.304V59.672H23.5022V61.304H25.5022ZM24.4136 58.6759L22.9736 58.8039L23.1507 60.7961L24.5907 60.6681L24.4136 58.6759ZM22.9791 58.8035C22.5081 58.8427 22.0263 58.9542 21.6212 59.2176L22.7112 60.8944C22.7327 60.8804 22.8482 60.8213 23.1452 60.7965L22.9791 58.8035ZM21.6212 59.2176C21.1081 59.5511 20.8462 60.0784 20.8462 60.664H22.8462C22.8462 60.6662 22.8449 60.7135 22.8111 60.7777C22.7763 60.8439 22.7316 60.8812 22.7112 60.8944L21.6212 59.2176ZM20.8462 60.664C20.8462 61.2398 21.0868 61.7531 21.5415 62.1169L22.7909 60.5551C22.7902 60.5546 22.811 60.5722 22.8291 60.6101C22.8469 60.6475 22.8462 60.6716 22.8462 60.664H20.8462ZM21.5662 62.136C22.0413 62.4923 22.6506 62.576 23.1902 62.576V60.576C23.0082 60.576 22.886 60.5601 22.8104 60.5424C22.734 60.5245 22.7333 60.5113 22.7662 60.536L21.5662 62.136ZM23.1102 56.128C24.0539 56.128 24.6859 56.3294 25.1037 56.6288L26.2687 55.0032C25.4065 54.3852 24.3212 54.128 23.1102 54.128V56.128ZM25.1191 56.6396C25.4353 56.8574 25.6622 57.2171 25.6622 57.944H27.6622C27.6622 56.7296 27.2384 55.6706 26.2533 54.9924L25.1191 56.6396ZM25.6622 57.944V61.592H27.6622V57.944H25.6622ZM25.6622 61.592C25.6622 61.6396 25.6559 61.6529 25.6592 61.6429C25.6608 61.6377 25.6646 61.6279 25.6716 61.6153C25.6787 61.6025 25.6878 61.5894 25.6985 61.5771L27.2099 62.8869C27.5437 62.5017 27.6622 62.0349 27.6622 61.592H25.6622ZM25.6949 61.5812C25.6443 61.6403 25.5602 61.7166 25.4242 61.8025L26.4922 63.4935C26.7615 63.3234 27.0081 63.1223 27.2134 62.8828L25.6949 61.5812ZM25.4525 61.7853C25.2559 61.9005 24.9699 62.0137 24.5686 62.1049L25.0118 64.0551C25.5492 63.933 26.0418 63.7581 26.4639 63.5107L25.4525 61.7853ZM24.5686 62.1049C24.1869 62.1916 23.73 62.24 23.1902 62.24V64.24C23.845 64.24 24.4548 64.1817 25.0118 64.0551L24.5686 62.1049ZM23.1902 62.24C22.2301 62.24 21.5831 62.0531 21.1592 61.7776L20.0692 63.4544C20.9253 64.0109 21.9956 64.24 23.1902 64.24V62.24ZM21.1656 61.7818C20.8488 61.5723 20.6702 61.281 20.6702 60.744H18.6702C18.6702 61.871 19.1209 62.8277 20.0628 63.4502L21.1656 61.7818ZM20.6702 60.744C20.6702 60.2377 20.8166 59.9905 20.993 59.8393L19.6914 58.3207C18.9718 58.9375 18.6702 59.7996 18.6702 60.744H20.6702ZM20.993 59.8393C21.2238 59.6414 21.6598 59.4464 22.4381 59.3714L22.2462 57.3806C21.2539 57.4763 20.3566 57.7506 19.6914 58.3207L20.993 59.8393ZM22.4461 59.3706L24.5901 59.1466L24.3823 57.1574L22.2383 57.3814L22.4461 59.3706ZM25.4862 58.152V57.912H23.4862V58.152H25.4862ZM25.4862 57.912C25.4862 57.2367 25.2056 56.5999 24.564 56.2197L23.5444 57.9403C23.5451 57.9407 23.5361 57.9354 23.5233 57.9221C23.5102 57.9085 23.4989 57.8926 23.4907 57.8768C23.4737 57.8442 23.4862 57.8442 23.4862 57.912H25.4862ZM24.564 56.2197C24.0582 55.92 23.4483 55.824 22.8382 55.824V57.824C23.2734 57.824 23.4742 57.8987 23.5444 57.9403L24.564 56.2197ZM22.8382 55.824C22.344 55.824 21.8563 55.8892 21.3773 56.0186L21.8991 57.9494C22.2094 57.8655 22.5217 57.824 22.8382 57.824V55.824ZM21.4018 56.0123C20.9592 56.12 20.5478 56.2556 20.1731 56.4235L20.9912 58.2485C21.2353 58.1391 21.5279 58.04 21.8745 57.9557L21.4018 56.0123ZM21.1704 56.5273C21.2021 56.5503 21.192 56.5564 21.1605 56.4974L19.3958 57.4386C19.535 57.6996 19.7276 57.951 19.994 58.1447L21.1704 56.5273ZM21.1726 56.5208C21.153 56.4815 21.1502 56.458 21.1502 56.44H19.1502C19.1502 56.7847 19.2327 57.1132 19.3838 57.4152L21.1726 56.5208ZM21.1502 56.44C21.1502 56.4235 21.1523 56.4255 21.1479 56.4395C21.1432 56.4545 21.1351 56.4706 21.1255 56.4836C21.1061 56.5097 21.1136 56.4808 21.2243 56.4344L20.4521 54.5896C20.1042 54.7352 19.7676 54.957 19.5189 55.2924C19.2627 55.638 19.1502 56.0366 19.1502 56.44H21.1502ZM21.2205 56.436C21.443 56.3439 21.7218 56.2661 22.0662 56.2118L21.7542 54.2362C21.2879 54.3099 20.852 54.424 20.4558 54.588L21.2205 56.436ZM22.0662 56.2118C22.4219 56.1556 22.7698 56.128 23.1102 56.128V54.128C22.6613 54.128 22.2091 54.1644 21.7542 54.2362L22.0662 56.2118ZM34.9869 59.56V60.56H35.9869V59.56H34.9869ZM32.7629 59.56H31.7629V60.56H32.7629V59.56ZM32.3949 57.192L31.7581 57.963L31.7682 57.9714L31.7786 57.9795L32.3949 57.192ZM30.6349 57L30.8981 57.9648L30.9182 57.9593L30.9381 57.9529L30.6349 57ZM29.9949 57.256L29.5093 56.3818L28.9949 56.6676V57.256H29.9949ZM29.9949 59.56V60.56H30.9949V59.56H29.9949ZM27.7709 59.56H26.7709V60.56H27.7709V59.56ZM27.9309 56.392L27.1069 55.8255L27.1028 55.8314L27.0989 55.8373L27.9309 56.392ZM28.4269 55.912L27.8661 55.0841L27.8597 55.0884L27.8535 55.0928L28.4269 55.912ZM29.7069 55.352L29.9817 56.3135L29.7069 55.352ZM34.0589 55.88L33.4293 56.657L33.4375 56.6635L34.0589 55.88ZM27.7709 58.808V57.808H26.7709V58.808H27.7709ZM29.9949 58.808H30.9949V57.808H29.9949V58.808ZM29.9949 62.984L30.2119 63.9602L30.9949 63.7862V62.984H29.9949ZM29.5789 63.064L29.7527 64.0488L29.5789 63.064ZM28.0589 62.888L27.445 63.6774L27.4553 63.6853L27.4657 63.6931L28.0589 62.888ZM32.7629 58.808V57.808H31.7629V58.808H32.7629ZM34.9869 58.808H35.9869V57.808H34.9869V58.808ZM34.9869 62.984L35.2039 63.9602L35.9869 63.7862V62.984H34.9869ZM34.5709 63.064L34.3972 62.0792L34.5709 63.064ZM33.0509 62.888L32.437 63.6774L32.4473 63.6853L32.4577 63.6931L33.0509 62.888ZM33.9869 58.04V59.56H35.9869V58.04H33.9869ZM34.9869 58.56H32.7629V60.56H34.9869V58.56ZM33.7629 59.56V58.104H31.7629V59.56H33.7629ZM33.7629 58.104C33.7629 57.4914 33.5744 56.8453 33.0112 56.4045L31.7786 57.9795C31.77 57.9728 31.7607 57.9635 31.7528 57.9528C31.7451 57.9425 31.7428 57.9362 31.7436 57.9382C31.7459 57.944 31.7629 57.9911 31.7629 58.104H33.7629ZM33.0318 56.421C32.5629 56.0336 31.9918 55.888 31.4189 55.888V57.888C31.6568 57.888 31.7364 57.945 31.7581 57.963L33.0318 56.421ZM31.4189 55.888C31.0451 55.888 30.6794 55.9364 30.3317 56.0471L30.9381 57.9529C31.0598 57.9142 31.2168 57.888 31.4189 57.888V55.888ZM30.3718 56.0352C30.0678 56.1181 29.7786 56.2322 29.5093 56.3818L30.4806 58.1302C30.5953 58.0664 30.7327 58.0098 30.8981 57.9648L30.3718 56.0352ZM28.9949 57.256V59.56H30.9949V57.256H28.9949ZM29.9949 58.56H27.7709V60.56H29.9949V58.56ZM28.7709 59.56V57.032H26.7709V59.56H28.7709ZM28.7709 57.032C28.7709 56.9638 28.7779 56.9272 28.7811 56.9145C28.7839 56.9033 28.7817 56.9187 28.763 56.9467L27.0989 55.8373C26.8479 56.2138 26.7709 56.6417 26.7709 57.032H28.7709ZM28.755 56.9585C28.7896 56.9081 28.8608 56.8289 29.0004 56.7312L27.8535 55.0928C27.5664 55.2937 27.3069 55.5346 27.1069 55.8255L28.755 56.9585ZM28.9878 56.7399C29.2055 56.5924 29.5267 56.4435 29.9817 56.3135L29.4322 54.3905C28.8419 54.5591 28.3097 54.7836 27.8661 55.0841L28.9878 56.7399ZM29.9817 56.3135C30.4008 56.1938 30.8879 56.128 31.4509 56.128V54.128C30.734 54.128 30.0584 54.2116 29.4322 54.3905L29.9817 56.3135ZM31.4509 56.128C32.4334 56.128 33.0489 56.3486 33.4294 56.6569L34.6885 55.1031C33.8316 54.4087 32.7085 54.128 31.4509 54.128V56.128ZM33.4375 56.6635C33.768 56.9255 33.9869 57.3273 33.9869 58.04H35.9869C35.9869 56.8541 35.5873 55.8158 34.6803 55.0965L33.4375 56.6635ZM27.7709 59.808H29.9949V57.808H27.7709V59.808ZM28.9949 58.808V62.984H30.9949V58.808H28.9949ZM29.778 62.0078C29.7037 62.0243 29.5822 62.048 29.4052 62.0792L29.7527 64.0488C29.9384 64.016 30.0942 63.9863 30.2119 63.9602L29.778 62.0078ZM29.4052 62.0792C29.2894 62.0997 29.1509 62.112 28.9869 62.112V64.112C29.2496 64.112 29.5058 64.0924 29.7527 64.0488L29.4052 62.0792ZM28.9869 62.112C28.8353 62.112 28.7361 62.098 28.6776 62.0839C28.6194 62.0699 28.622 62.0607 28.6521 62.0829L27.4657 63.6931C27.9201 64.0279 28.4844 64.112 28.9869 64.112V62.112ZM28.6729 62.0986C28.7106 62.128 28.7389 62.1601 28.7585 62.1887C28.7774 62.2164 28.7847 62.2357 28.7859 62.2392C28.787 62.2422 28.7829 62.2315 28.7787 62.2025C28.7746 62.1735 28.7709 62.1309 28.7709 62.072H26.7709C26.7709 62.5838 26.8903 63.2459 27.445 63.6774L28.6729 62.0986ZM28.7709 62.072V58.808H26.7709V62.072H28.7709ZM32.7629 59.808H34.9869V57.808H32.7629V59.808ZM33.9869 58.808V62.984H35.9869V58.808H33.9869ZM34.77 62.0078C34.6957 62.0243 34.5742 62.048 34.3972 62.0792L34.7447 64.0488C34.9304 64.016 35.0862 63.9863 35.2039 63.9602L34.77 62.0078ZM34.3972 62.0792C34.2786 62.1001 34.1451 62.112 33.9949 62.112V64.112C34.2501 64.112 34.5006 64.0919 34.7447 64.0488L34.3972 62.0792ZM33.9949 62.112C33.8362 62.112 33.7319 62.0978 33.6698 62.083C33.6076 62.0683 33.6111 62.0586 33.6441 62.0829L32.4577 63.6931C32.9154 64.0303 33.4886 64.112 33.9949 64.112V62.112ZM33.6649 62.0986C33.7026 62.128 33.7309 62.1601 33.7505 62.1887C33.7694 62.2164 33.7767 62.2357 33.7779 62.2392C33.779 62.2422 33.7749 62.2315 33.7707 62.2025C33.7666 62.1735 33.7629 62.1309 33.7629 62.072H31.7629C31.7629 62.5838 31.8823 63.2459 32.437 63.6774L33.6649 62.0986ZM33.7629 62.072V58.808H31.7629V62.072H33.7629ZM39.3592 59.88L38.8163 60.7198L39.4474 61.1278L40.0149 60.635L39.3592 59.88ZM37.7752 58.856L37.0665 58.1505L36.1954 59.0255L37.2323 59.6958L37.7752 58.856ZM41.3912 55.224L41.4144 54.2243L40.9854 54.2143L40.6825 54.5185L41.3912 55.224ZM42.4792 55.544L41.8741 56.3402L41.8844 56.348L41.8949 56.3555L42.4792 55.544ZM42.6072 57L41.8619 56.3332L41.8519 56.3444L41.8423 56.3559L42.6072 57ZM41.7912 57.768L41.1532 56.998L41.1443 57.0054L41.1355 57.013L41.7912 57.768ZM37.8552 59.192L37.4382 58.2831L36.2205 58.8417L37.1024 59.8502L37.8552 59.192ZM39.5992 58.392L40.2901 57.6691L39.7993 57.2L39.1822 57.4831L39.5992 58.392ZM43.2152 61.848L44.2119 61.9288L44.2504 61.4541L43.9061 61.1251L43.2152 61.848ZM42.8472 62.792L42.1073 62.1193L42.1057 62.1211L42.8472 62.792ZM40.5272 62.248L41.2976 61.6104L41.2889 61.6L41.28 61.5898L40.5272 62.248ZM36.1592 58.76L36.188 57.7604L35.1592 57.7308V58.76H36.1592ZM38.3832 58.824H39.3832V57.8524L38.412 57.8244L38.3832 58.824ZM38.3832 62.984L38.6001 63.9602L39.3832 63.7862V62.984H38.3832ZM37.9672 63.064L38.141 64.0488L37.9672 63.064ZM36.4472 62.888L35.8333 63.6774L35.8435 63.6853L35.854 63.6931L36.4472 62.888ZM38.3832 59.976L38.3544 60.9756L39.3832 61.0052V59.976H38.3832ZM36.1592 59.912H35.1592V60.8836L36.1304 60.9116L36.1592 59.912ZM36.1592 52.584L35.9423 51.6078L35.1592 51.7818V52.584H36.1592ZM36.5752 52.504L36.749 53.4888L36.749 53.4888L36.5752 52.504ZM38.0952 52.68L38.7091 51.8906L38.7091 51.8906L38.0952 52.68ZM39.9021 59.0402L38.3181 58.0162L37.2323 59.6958L38.8163 60.7198L39.9021 59.0402ZM38.4839 59.5615L42.0999 55.9295L40.6825 54.5185L37.0665 58.1505L38.4839 59.5615ZM41.3679 56.2237C41.6923 56.2313 41.8271 56.3044 41.8741 56.3402L43.0843 54.7478C42.598 54.3783 42.0074 54.2381 41.4144 54.2243L41.3679 56.2237ZM41.8949 56.3555C41.9099 56.3663 41.9142 56.3716 41.9122 56.3694C41.91 56.367 41.9034 56.359 41.8963 56.3456C41.8891 56.3321 41.8842 56.3183 41.8814 56.3066C41.8787 56.2953 41.8792 56.2909 41.8792 56.296H43.8792C43.8792 55.6422 43.5721 55.0986 43.0635 54.7325L41.8949 56.3555ZM41.8792 56.296C41.8792 56.3058 41.8784 56.3108 41.8782 56.312C41.8779 56.3132 41.878 56.3127 41.8784 56.3116C41.8788 56.3105 41.8787 56.3111 41.877 56.3139C41.8752 56.3167 41.8708 56.3233 41.8619 56.3332L43.3524 57.6668C43.6942 57.2848 43.8792 56.814 43.8792 56.296H41.8792ZM41.8423 56.3559C41.7294 56.4899 41.5116 56.701 41.1532 56.998L42.4292 58.538C42.8174 58.2164 43.1436 57.9155 43.3721 57.6441L41.8423 56.3559ZM41.1355 57.013L38.7035 59.125L40.0149 60.635L42.4469 58.523L41.1355 57.013ZM38.2721 60.1009L40.0161 59.3009L39.1822 57.4831L37.4382 58.2831L38.2721 60.1009ZM38.9083 59.1149L42.5243 62.5709L43.9061 61.1251L40.2901 57.6691L38.9083 59.1149ZM42.2185 61.7672C42.1998 61.9974 42.1383 62.0852 42.1073 62.1193L43.5871 63.4647C43.9828 63.0294 44.1666 62.488 44.2119 61.9288L42.2185 61.7672ZM42.1057 62.1211C42.1052 62.1216 42.1071 62.1195 42.111 62.1168C42.1148 62.1142 42.1168 62.1135 42.1148 62.1143C42.111 62.1158 42.0782 62.128 41.9992 62.128V64.128C42.5828 64.128 43.1587 63.9382 43.5887 63.4629L42.1057 62.1211ZM41.9992 62.128C41.8976 62.128 41.8309 62.1053 41.7735 62.0697L40.7208 63.7703C41.1115 64.0121 41.5462 64.128 41.9992 64.128V62.128ZM41.7735 62.0697C41.677 62.0099 41.5167 61.8752 41.2976 61.6104L39.7568 62.8856C40.0497 63.2395 40.3694 63.5527 40.7208 63.7703L41.7735 62.0697ZM41.28 61.5898L38.608 58.5338L37.1024 59.8502L39.7744 62.9062L41.28 61.5898ZM36.1304 59.7596L38.3544 59.8236L38.412 57.8244L36.188 57.7604L36.1304 59.7596ZM37.3832 58.824V62.984H39.3832V58.824H37.3832ZM38.1663 62.0078C38.092 62.0243 37.9704 62.048 37.7934 62.0792L38.141 64.0488C38.3266 64.016 38.4824 63.9863 38.6001 63.9602L38.1663 62.0078ZM37.7934 62.0792C37.6776 62.0997 37.5392 62.112 37.3752 62.112V64.112C37.6379 64.112 37.8941 64.0924 38.141 64.0488L37.7934 62.0792ZM37.3752 62.112C37.2235 62.112 37.1244 62.098 37.0658 62.0839C37.0077 62.0699 37.0103 62.0607 37.0404 62.0829L35.854 63.6931C36.3084 64.0279 36.8727 64.112 37.3752 64.112V62.112ZM37.0611 62.0986C37.0988 62.128 37.1272 62.1601 37.1468 62.1887C37.1657 62.2164 37.173 62.2357 37.1742 62.2392C37.1752 62.2422 37.1712 62.2315 37.167 62.2025C37.1628 62.1735 37.1592 62.1309 37.1592 62.072H35.1592C35.1592 62.5838 35.2785 63.2459 35.8333 63.6774L37.0611 62.0986ZM37.1592 62.072V58.76H35.1592V62.072H37.1592ZM38.412 58.9764L36.188 58.9124L36.1304 60.9116L38.3544 60.9756L38.412 58.9764ZM37.1592 59.912V52.584H35.1592V59.912H37.1592ZM36.3761 53.5602C36.4504 53.5437 36.572 53.52 36.749 53.4888L36.4014 51.5192C36.2157 51.552 36.06 51.5817 35.9423 51.6078L36.3761 53.5602ZM36.749 53.4888C36.8648 53.4683 37.0032 53.456 37.1672 53.456V51.456C36.9045 51.456 36.6483 51.4756 36.4014 51.5192L36.749 53.4888ZM37.1672 53.456C37.3264 53.456 37.4277 53.4704 37.4846 53.4841C37.5419 53.4979 37.5262 53.5043 37.4813 53.4694L38.7091 51.8906C38.2517 51.5349 37.6664 51.456 37.1672 51.456V53.456ZM37.4813 53.4694C37.4435 53.44 37.4152 53.4079 37.3956 53.3793C37.3767 53.3516 37.3694 53.3323 37.3682 53.3288C37.3671 53.3258 37.3712 53.3365 37.3754 53.3655C37.3796 53.3945 37.3832 53.4371 37.3832 53.496H39.3832C39.3832 52.9842 39.2639 52.3221 38.7091 51.8906L37.4813 53.4694ZM37.3832 53.496V59.976H39.3832V53.496H37.3832Z" fill="black" mask="url(#path-3-outside-1_2766_913)"/>
<defs>
<filter id="filter0_iiiii_2766_913" x="3" y="-4" width="48" height="52" filterUnits="userSpaceOnUse" color-interpolation-filters="sRGB">
<feFlood flood-opacity="0" result="BackgroundImageFix"/>
<feBlend mode="normal" in="SourceGraphic" in2="BackgroundImageFix" result="shape"/>
<feColorMatrix in="SourceAlpha" type="matrix" values="0 0 0 0 0 0 0 0 0 0 0 0 0 0 0 0 0 0 127 0" result="hardAlpha"/>
<feOffset dy="-1"/>
<feGaussianBlur stdDeviation="0.5"/>
<feComposite in2="hardAlpha" operator="arithmetic" k2="-1" k3="1"/>
<feColorMatrix type="matrix" values="0 0 0 0 0.921569 0 0 0 0 0.545098 0 0 0 0 0.996078 0 0 0 0.37 0"/>
<feBlend mode="normal" in2="shape" result="effect1_innerShadow_2766_913"/>
<feColorMatrix in="SourceAlpha" type="matrix" values="0 0 0 0 0 0 0 0 0 0 0 0 0 0 0 0 0 0 127 0" result="hardAlpha"/>
<feOffset dy="-2"/>
<feGaussianBlur stdDeviation="1"/>
<feComposite in2="hardAlpha" operator="arithmetic" k2="-1" k3="1"/>
<feColorMatrix type="matrix" values="0 0 0 0 0.921569 0 0 0 0 0.545098 0 0 0 0 0.996078 0 0 0 0.32 0"/>
<feBlend mode="normal" in2="effect1_innerShadow_2766_913" result="effect2_innerShadow_2766_913"/>
<feColorMatrix in="SourceAlpha" type="matrix" values="0 0 0 0 0 0 0 0 0 0 0 0 0 0 0 0 0 0 127 0" result="hardAlpha"/>
<feOffset dy="-5"/>
<feGaussianBlur stdDeviation="1.5"/>
<feComposite in2="hardAlpha" operator="arithmetic" k2="-1" k3="1"/>
<feColorMatrix type="matrix" values="0 0 0 0 0.921569 0 0 0 0 0.545098 0 0 0 0 0.996078 0 0 0 0.19 0"/>
<feBlend mode="normal" in2="effect2_innerShadow_2766_913" result="effect3_innerShadow_2766_913"/>
<feColorMatrix in="SourceAlpha" type="matrix" values="0 0 0 0 0 0 0 0 0 0 0 0 0 0 0 0 0 0 127 0" result="hardAlpha"/>
<feOffset dy="-8"/>
<feGaussianBlur stdDeviation="1.5"/>
<feComposite in2="hardAlpha" operator="arithmetic" k2="-1" k3="1"/>
<feColorMatrix type="matrix" values="0 0 0 0 0.921569 0 0 0 0 0.545098 0 0 0 0 0.996078 0 0 0 0.06 0"/>
<feBlend mode="normal" in2="effect3_innerShadow_2766_913" result="effect4_innerShadow_2766_913"/>
<feColorMatrix in="SourceAlpha" type="matrix" values="0 0 0 0 0 0 0 0 0 0 0 0 0 0 0 0 0 0 127 0" result="hardAlpha"/>
<feOffset dy="-13"/>
<feGaussianBlur stdDeviation="2"/>
<feComposite in2="hardAlpha" operator="arithmetic" k2="-1" k3="1"/>
<feColorMatrix type="matrix" values="0 0 0 0 0.921569 0 0 0 0 0.545098 0 0 0 0 0.996078 0 0 0 0.01 0"/>
<feBlend mode="normal" in2="effect4_innerShadow_2766_913" result="effect5_innerShadow_2766_913"/>
</filter>
<filter id="filter1_iii_2766_913" x="13.625" y="9.625" width="28.75" height="28.75" filterUnits="userSpaceOnUse" color-interpolation-filters="sRGB">
<feFlood flood-opacity="0" result="BackgroundImageFix"/>
<feBlend mode="normal" in="SourceGraphic" in2="BackgroundImageFix" result="shape"/>
<feColorMatrix in="SourceAlpha" type="matrix" values="0 0 0 0 0 0 0 0 0 0 0 0 0 0 0 0 0 0 127 0" result="hardAlpha"/>
<feOffset/>
<feGaussianBlur stdDeviation="0.5"/>
<feComposite in2="hardAlpha" operator="arithmetic" k2="-1" k3="1"/>
<feColorMatrix type="matrix" values="0 0 0 0 1 0 0 0 0 0.972549 0 0 0 0 0.780392 0 0 0 0.17 0"/>
<feBlend mode="normal" in2="shape" result="effect1_innerShadow_2766_913"/>
<feColorMatrix in="SourceAlpha" type="matrix" values="0 0 0 0 0 0 0 0 0 0 0 0 0 0 0 0 0 0 127 0" result="hardAlpha"/>
<feOffset dx="1" dy="1"/>
<feGaussianBlur stdDeviation="0.5"/>
<feComposite in2="hardAlpha" operator="arithmetic" k2="-1" k3="1"/>
<feColorMatrix type="matrix" values="0 0 0 0 1 0 0 0 0 0.972549 0 0 0 0 0.780392 0 0 0 0.1 0"/>
<feBlend mode="normal" in2="effect1_innerShadow_2766_913" result="effect2_innerShadow_2766_913"/>
<feColorMatrix in="SourceAlpha" type="matrix" values="0 0 0 0 0 0 0 0 0 0 0 0 0 0 0 0 0 0 127 0" result="hardAlpha"/>
<feOffset dx="2" dy="1"/>
<feGaussianBlur stdDeviation="0.5"/>
<feComposite in2="hardAlpha" operator="arithmetic" k2="-1" k3="1"/>
<feColorMatrix type="matrix" values="0 0 0 0 1 0 0 0 0 0.972549 0 0 0 0 0.780392 0 0 0 0.03 0"/>
<feBlend mode="normal" in2="effect2_innerShadow_2766_913" result="effect3_innerShadow_2766_913"/>
</filter>
<linearGradient id="paint0_linear_2766_913" x1="27" y1="0" x2="27" y2="48" gradientUnits="userSpaceOnUse">
<stop stop-color="#6F00FF"/>
<stop offset="1" stop-color="#B71FFF"/>
</linearGradient>
<linearGradient id="paint1_linear_2766_913" x1="41.375" y1="37.375" x2="13.625" y2="9.625" gradientUnits="userSpaceOnUse">
<stop stop-color="#FF695F"/>
<stop offset="1" stop-color="#FFDD65"/>
</linearGradient>
</defs>
</svg>
