<svg width="252" height="72" viewBox="0 0 252 72" fill="none" xmlns="http://www.w3.org/2000/svg">
<rect width="252" height="72" rx="16.6153" fill="black"/>
<rect x="3.21948" y="5.53857" width="245.561" height="62.7692" rx="14.7692" fill="url(#paint0_linear_2531_1697)"/>
<rect x="3.21948" y="3.69238" width="245.561" height="60.9231" rx="12.923" fill="url(#paint1_linear_2531_1697)"/>
<rect x="3.21948" y="3.69238" width="245.561" height="60.9231" rx="12.923" fill="url(#paint2_linear_2531_1697)"/>
<rect x="6.43896" y="7.38477" width="239.122" height="53.5385" rx="11.0769" fill="url(#paint3_linear_2531_1697)"/>
<ellipse cx="2.90149" cy="1.99141" rx="2.90149" ry="1.99141" transform="matrix(0.73474 -0.678349 0.574531 0.818483 6.43896 11.3213)" fill="#FFFEE2"/>
<ellipse cx="2.90149" cy="1.99141" rx="2.90149" ry="1.99141" transform="matrix(0.734739 -0.67835 0.57453 0.818483 239.122 57.4751)" fill="#FFE638"/>
<g filter="url(#filter0_d_2531_1697)">
<mask id="path-8-outside-1_2531_1697" maskUnits="userSpaceOnUse" x="84" y="23" width="84" height="22" fill="black">
<rect fill="white" x="84" y="23" width="84" height="22"/>
<path d="M98.4982 43H92.6422C90.6422 43 89.1542 42.6 88.1782 41.8C87.2182 41 86.7382 39.768 86.7382 38.104V30.64C86.7382 28.976 87.2182 27.744 88.1782 26.944C89.1542 26.128 90.6422 25.72 92.6422 25.72H98.4982C98.8022 25.72 99.0182 25.792 99.1462 25.936C99.2902 26.064 99.3622 26.28 99.3622 26.584V29.488C99.3622 29.792 99.2902 30.016 99.1462 30.16C99.0182 30.288 98.8022 30.352 98.4982 30.352H93.6742C93.1782 30.352 92.8102 30.456 92.5702 30.664C92.3302 30.856 92.2102 31.152 92.2102 31.552V37.264C92.2102 37.664 92.3302 37.96 92.5702 38.152C92.8102 38.328 93.1782 38.416 93.6742 38.416H98.4982C98.8022 38.416 99.0182 38.488 99.1462 38.632C99.2902 38.76 99.3622 38.976 99.3622 39.28V42.136C99.3622 42.44 99.2902 42.664 99.1462 42.808C99.0182 42.936 98.8022 43 98.4982 43ZM114.433 43H102.217C101.913 43 101.689 42.936 101.545 42.808C101.417 42.664 101.353 42.44 101.353 42.136V26.584C101.353 26.28 101.417 26.064 101.545 25.936C101.689 25.792 101.913 25.72 102.217 25.72H105.937C106.241 25.72 106.457 25.792 106.585 25.936C106.729 26.064 106.801 26.28 106.801 26.584V38.464H110.089V34.576C110.089 34.272 110.153 34.056 110.281 33.928C110.425 33.784 110.649 33.712 110.953 33.712H114.433C114.737 33.712 114.953 33.784 115.081 33.928C115.225 34.056 115.297 34.272 115.297 34.576V42.136C115.297 42.44 115.225 42.664 115.081 42.808C114.953 42.936 114.737 43 114.433 43ZM123.584 30.76L122.456 34.408H126.224L125.096 30.76C125.032 30.616 124.96 30.512 124.88 30.448C124.816 30.384 124.736 30.352 124.64 30.352H124.04C123.944 30.352 123.856 30.384 123.776 30.448C123.712 30.512 123.648 30.616 123.584 30.76ZM122.216 42.136C122.216 42.44 122.144 42.664 122 42.808C121.872 42.936 121.656 43 121.352 43H117.824C117.52 43 117.296 42.936 117.152 42.808C117.024 42.664 116.96 42.44 116.96 42.136V35.8C116.96 35.32 117.032 34.768 117.176 34.144C117.336 33.52 117.576 32.792 117.896 31.96L119.984 26.512C120.08 26.24 120.224 26.04 120.416 25.912C120.624 25.784 120.888 25.72 121.208 25.72H127.664C127.968 25.72 128.216 25.784 128.408 25.912C128.616 26.04 128.768 26.24 128.864 26.512L130.952 31.96C131.272 32.792 131.504 33.52 131.648 34.144C131.808 34.768 131.888 35.32 131.888 35.8V42.136C131.888 42.44 131.816 42.664 131.672 42.808C131.544 42.936 131.328 43 131.024 43H127.4C127.08 43 126.84 42.936 126.68 42.808C126.536 42.664 126.464 42.44 126.464 42.136V38.776H122.216V42.136ZM134.611 43C134.307 43 134.083 42.936 133.939 42.808C133.811 42.664 133.747 42.44 133.747 42.136V39.28C133.747 38.976 133.811 38.76 133.939 38.632C134.083 38.488 134.307 38.416 134.611 38.416H136.987V30.352H134.611C134.307 30.352 134.083 30.288 133.939 30.16C133.811 30.016 133.747 29.792 133.747 29.488V26.584C133.747 26.28 133.811 26.064 133.939 25.936C134.083 25.792 134.307 25.72 134.611 25.72H144.835C145.139 25.72 145.355 25.792 145.483 25.936C145.627 26.064 145.699 26.28 145.699 26.584V29.488C145.699 29.792 145.627 30.016 145.483 30.16C145.355 30.288 145.139 30.352 144.835 30.352H142.507V38.416H144.835C145.139 38.416 145.355 38.488 145.483 38.632C145.627 38.76 145.699 38.976 145.699 39.28V42.136C145.699 42.44 145.627 42.664 145.483 42.808C145.355 42.936 145.139 43 144.835 43H134.611ZM152.383 43H148.807C148.503 43 148.279 42.936 148.135 42.808C148.007 42.664 147.943 42.44 147.943 42.136V26.584C147.943 26.28 148.007 26.064 148.135 25.936C148.279 25.792 148.503 25.72 148.807 25.72H152.671C152.927 25.72 153.135 25.776 153.295 25.888C153.471 26 153.631 26.184 153.775 26.44L155.935 30.352C156.015 30.496 156.079 30.6 156.127 30.664C156.191 30.728 156.271 30.76 156.367 30.76H156.583C156.679 30.76 156.751 30.728 156.799 30.664C156.863 30.6 156.935 30.496 157.015 30.352L159.151 26.44C159.295 26.184 159.447 26 159.607 25.888C159.783 25.776 159.999 25.72 160.255 25.72H164.143C164.447 25.72 164.663 25.792 164.791 25.936C164.935 26.064 165.007 26.28 165.007 26.584V42.136C165.007 42.44 164.935 42.664 164.791 42.808C164.663 42.936 164.447 43 164.143 43H160.447C160.143 43 159.919 42.936 159.775 42.808C159.647 42.664 159.583 42.44 159.583 42.136V33.688L158.167 36.304C158.023 36.576 157.847 36.776 157.639 36.904C157.447 37.016 157.199 37.072 156.895 37.072H155.935C155.631 37.072 155.375 37.016 155.167 36.904C154.975 36.776 154.807 36.576 154.663 36.304L153.247 33.688V42.136C153.247 42.44 153.175 42.664 153.031 42.808C152.903 42.936 152.687 43 152.383 43Z"/>
</mask>
<path d="M98.4982 43H92.6422C90.6422 43 89.1542 42.6 88.1782 41.8C87.2182 41 86.7382 39.768 86.7382 38.104V30.64C86.7382 28.976 87.2182 27.744 88.1782 26.944C89.1542 26.128 90.6422 25.72 92.6422 25.72H98.4982C98.8022 25.72 99.0182 25.792 99.1462 25.936C99.2902 26.064 99.3622 26.28 99.3622 26.584V29.488C99.3622 29.792 99.2902 30.016 99.1462 30.16C99.0182 30.288 98.8022 30.352 98.4982 30.352H93.6742C93.1782 30.352 92.8102 30.456 92.5702 30.664C92.3302 30.856 92.2102 31.152 92.2102 31.552V37.264C92.2102 37.664 92.3302 37.96 92.5702 38.152C92.8102 38.328 93.1782 38.416 93.6742 38.416H98.4982C98.8022 38.416 99.0182 38.488 99.1462 38.632C99.2902 38.76 99.3622 38.976 99.3622 39.28V42.136C99.3622 42.44 99.2902 42.664 99.1462 42.808C99.0182 42.936 98.8022 43 98.4982 43ZM114.433 43H102.217C101.913 43 101.689 42.936 101.545 42.808C101.417 42.664 101.353 42.44 101.353 42.136V26.584C101.353 26.28 101.417 26.064 101.545 25.936C101.689 25.792 101.913 25.72 102.217 25.72H105.937C106.241 25.72 106.457 25.792 106.585 25.936C106.729 26.064 106.801 26.28 106.801 26.584V38.464H110.089V34.576C110.089 34.272 110.153 34.056 110.281 33.928C110.425 33.784 110.649 33.712 110.953 33.712H114.433C114.737 33.712 114.953 33.784 115.081 33.928C115.225 34.056 115.297 34.272 115.297 34.576V42.136C115.297 42.44 115.225 42.664 115.081 42.808C114.953 42.936 114.737 43 114.433 43ZM123.584 30.76L122.456 34.408H126.224L125.096 30.76C125.032 30.616 124.96 30.512 124.88 30.448C124.816 30.384 124.736 30.352 124.64 30.352H124.04C123.944 30.352 123.856 30.384 123.776 30.448C123.712 30.512 123.648 30.616 123.584 30.76ZM122.216 42.136C122.216 42.44 122.144 42.664 122 42.808C121.872 42.936 121.656 43 121.352 43H117.824C117.52 43 117.296 42.936 117.152 42.808C117.024 42.664 116.96 42.44 116.96 42.136V35.8C116.96 35.32 117.032 34.768 117.176 34.144C117.336 33.52 117.576 32.792 117.896 31.96L119.984 26.512C120.08 26.24 120.224 26.04 120.416 25.912C120.624 25.784 120.888 25.72 121.208 25.72H127.664C127.968 25.72 128.216 25.784 128.408 25.912C128.616 26.04 128.768 26.24 128.864 26.512L130.952 31.96C131.272 32.792 131.504 33.52 131.648 34.144C131.808 34.768 131.888 35.32 131.888 35.8V42.136C131.888 42.44 131.816 42.664 131.672 42.808C131.544 42.936 131.328 43 131.024 43H127.4C127.08 43 126.84 42.936 126.68 42.808C126.536 42.664 126.464 42.44 126.464 42.136V38.776H122.216V42.136ZM134.611 43C134.307 43 134.083 42.936 133.939 42.808C133.811 42.664 133.747 42.44 133.747 42.136V39.28C133.747 38.976 133.811 38.76 133.939 38.632C134.083 38.488 134.307 38.416 134.611 38.416H136.987V30.352H134.611C134.307 30.352 134.083 30.288 133.939 30.16C133.811 30.016 133.747 29.792 133.747 29.488V26.584C133.747 26.28 133.811 26.064 133.939 25.936C134.083 25.792 134.307 25.72 134.611 25.72H144.835C145.139 25.72 145.355 25.792 145.483 25.936C145.627 26.064 145.699 26.28 145.699 26.584V29.488C145.699 29.792 145.627 30.016 145.483 30.16C145.355 30.288 145.139 30.352 144.835 30.352H142.507V38.416H144.835C145.139 38.416 145.355 38.488 145.483 38.632C145.627 38.76 145.699 38.976 145.699 39.28V42.136C145.699 42.44 145.627 42.664 145.483 42.808C145.355 42.936 145.139 43 144.835 43H134.611ZM152.383 43H148.807C148.503 43 148.279 42.936 148.135 42.808C148.007 42.664 147.943 42.44 147.943 42.136V26.584C147.943 26.28 148.007 26.064 148.135 25.936C148.279 25.792 148.503 25.72 148.807 25.72H152.671C152.927 25.72 153.135 25.776 153.295 25.888C153.471 26 153.631 26.184 153.775 26.44L155.935 30.352C156.015 30.496 156.079 30.6 156.127 30.664C156.191 30.728 156.271 30.76 156.367 30.76H156.583C156.679 30.76 156.751 30.728 156.799 30.664C156.863 30.6 156.935 30.496 157.015 30.352L159.151 26.44C159.295 26.184 159.447 26 159.607 25.888C159.783 25.776 159.999 25.72 160.255 25.72H164.143C164.447 25.72 164.663 25.792 164.791 25.936C164.935 26.064 165.007 26.28 165.007 26.584V42.136C165.007 42.44 164.935 42.664 164.791 42.808C164.663 42.936 164.447 43 164.143 43H160.447C160.143 43 159.919 42.936 159.775 42.808C159.647 42.664 159.583 42.44 159.583 42.136V33.688L158.167 36.304C158.023 36.576 157.847 36.776 157.639 36.904C157.447 37.016 157.199 37.072 156.895 37.072H155.935C155.631 37.072 155.375 37.016 155.167 36.904C154.975 36.776 154.807 36.576 154.663 36.304L153.247 33.688V42.136C153.247 42.44 153.175 42.664 153.031 42.808C152.903 42.936 152.687 43 152.383 43Z" fill="white"/>
<path d="M88.1782 41.8L86.8979 43.3364L86.9041 43.3416L86.9104 43.3468L88.1782 41.8ZM88.1782 26.944L89.4586 28.4804L89.4611 28.4784L88.1782 26.944ZM99.1462 25.936L97.6514 27.2647L97.7296 27.3527L97.8175 27.4308L99.1462 25.936ZM92.5702 30.664L93.8196 32.2257L93.8504 32.2012L93.8801 32.1754L92.5702 30.664ZM92.5702 38.152L91.3209 39.7137L91.3537 39.74L91.3875 39.7648L92.5702 38.152ZM99.1462 38.632L97.6514 39.9607L97.7296 40.0487L97.8175 40.1268L99.1462 38.632ZM99.1462 42.808L100.56 44.2222L100.56 44.2222L99.1462 42.808ZM98.4982 41H92.6422V45H98.4982V41ZM92.6422 41C90.8505 41 89.9079 40.6318 89.4461 40.2532L86.9104 43.3468C88.4005 44.5682 90.434 45 92.6422 45V41ZM89.4586 40.2636C89.0943 39.9599 88.7382 39.3841 88.7382 38.104H84.7382C84.7382 40.1519 85.3422 42.0401 86.8979 43.3364L89.4586 40.2636ZM88.7382 38.104V30.64H84.7382V38.104H88.7382ZM88.7382 30.64C88.7382 29.3599 89.0943 28.7841 89.4586 28.4804L86.8979 25.4076C85.3422 26.7039 84.7382 28.592 84.7382 30.64H88.7382ZM89.4611 28.4784C89.9216 28.0934 90.8576 27.72 92.6422 27.72V23.72C90.4269 23.72 88.3869 24.1626 86.8954 25.4096L89.4611 28.4784ZM92.6422 27.72H98.4982V23.72H92.6422V27.72ZM98.4982 27.72C98.4965 27.72 98.4742 27.72 98.4354 27.7146C98.3967 27.7092 98.3344 27.6976 98.2558 27.6714C98.0922 27.6168 97.8593 27.4985 97.6514 27.2647L100.641 24.6073C99.9608 23.8419 99.048 23.72 98.4982 23.72V27.72ZM97.8175 27.4308C97.5837 27.223 97.4654 26.99 97.4109 26.8265C97.3847 26.7478 97.373 26.6855 97.3677 26.6468C97.3623 26.608 97.3622 26.5858 97.3622 26.584H101.362C101.362 26.0342 101.24 25.1215 100.475 24.4412L97.8175 27.4308ZM97.3622 26.584V29.488H101.362V26.584H97.3622ZM97.3622 29.488C97.3622 29.4859 97.3623 29.4658 97.3671 29.4308C97.3719 29.3957 97.382 29.3409 97.4042 29.272C97.4503 29.1286 97.5468 28.9311 97.732 28.7458L100.56 31.5742C101.23 30.905 101.362 30.0636 101.362 29.488H97.3622ZM97.732 28.7458C97.9546 28.5233 98.1854 28.4263 98.3201 28.3864C98.4481 28.3485 98.5203 28.352 98.4982 28.352V32.352C98.9931 32.352 99.8712 32.2635 100.56 31.5742L97.732 28.7458ZM98.4982 28.352H93.6742V32.352H98.4982V28.352ZM93.6742 28.352C92.9545 28.352 92.0202 28.4941 91.2604 29.1526L93.8801 32.1754C93.7376 32.2989 93.6119 32.3428 93.5702 32.3546C93.5338 32.3649 93.5588 32.352 93.6742 32.352V28.352ZM91.3209 29.1023C90.4708 29.7823 90.2102 30.7425 90.2102 31.552H94.2102C94.2102 31.5518 94.2102 31.5522 94.2102 31.552C94.2102 31.5518 94.2102 31.5522 94.2102 31.552C94.2102 31.552 94.2102 31.552 94.2102 31.5521C94.2102 31.5521 94.2102 31.5522 94.2102 31.5522C94.2102 31.5524 94.2102 31.5526 94.2102 31.5529C94.2102 31.5535 94.2102 31.5545 94.2102 31.5557C94.2101 31.5581 94.2099 31.5619 94.2095 31.5668C94.2087 31.5766 94.2071 31.5917 94.2037 31.6113C94.1969 31.6507 94.1828 31.7097 94.1537 31.7814C94.0903 31.9378 93.9778 32.0992 93.8196 32.2257L91.3209 29.1023ZM90.2102 31.552V37.264H94.2102V31.552H90.2102ZM90.2102 37.264C90.2102 38.0735 90.4708 39.0337 91.3209 39.7137L93.8196 36.5903C93.9778 36.7168 94.0903 36.8782 94.1537 37.0346C94.1828 37.1063 94.1969 37.1653 94.2037 37.2047C94.2071 37.2243 94.2087 37.2394 94.2095 37.2492C94.2099 37.2541 94.2101 37.2579 94.2102 37.2603C94.2102 37.2615 94.2102 37.2625 94.2102 37.2631C94.2102 37.2634 94.2102 37.2636 94.2102 37.2638C94.2102 37.2638 94.2102 37.2639 94.2102 37.2639C94.2102 37.264 94.2102 37.264 94.2102 37.264C94.2102 37.2638 94.2102 37.2642 94.2102 37.264C94.2102 37.2638 94.2102 37.2642 94.2102 37.264H90.2102ZM91.3875 39.7648C92.1321 40.3108 93.0103 40.416 93.6742 40.416V36.416C93.6086 36.416 93.5609 36.4131 93.5289 36.4098C93.4967 36.4065 93.4855 36.4034 93.4914 36.4048C93.4988 36.4066 93.6086 36.4333 93.753 36.5392L91.3875 39.7648ZM93.6742 40.416H98.4982V36.416H93.6742V40.416ZM98.4982 40.416C98.4965 40.416 98.4742 40.416 98.4354 40.4106C98.3967 40.4052 98.3344 40.3936 98.2558 40.3674C98.0922 40.3128 97.8593 40.1945 97.6514 39.9607L100.641 37.3033C99.9608 36.5379 99.048 36.416 98.4982 36.416V40.416ZM97.8175 40.1268C97.5837 39.919 97.4654 39.686 97.4109 39.5225C97.3847 39.4438 97.373 39.3815 97.3677 39.3428C97.3623 39.304 97.3622 39.2818 97.3622 39.28H101.362C101.362 38.7302 101.24 37.8175 100.475 37.1372L97.8175 40.1268ZM97.3622 39.28V42.136H101.362V39.28H97.3622ZM97.3622 42.136C97.3622 42.1339 97.3623 42.1138 97.3671 42.0788C97.3719 42.0437 97.382 41.9889 97.4042 41.92C97.4503 41.7766 97.5468 41.5791 97.732 41.3938L100.56 44.2222C101.23 43.553 101.362 42.7116 101.362 42.136H97.3622ZM97.732 41.3938C97.9546 41.1713 98.1854 41.0743 98.3201 41.0344C98.4481 40.9965 98.5203 41 98.4982 41V45C98.9931 45 99.8712 44.9115 100.56 44.2222L97.732 41.3938ZM101.545 42.808L100.05 44.1367L100.128 44.2247L100.216 44.3028L101.545 42.808ZM101.545 25.936L100.13 24.5218L100.13 24.5218L101.545 25.936ZM106.585 25.936L105.09 27.2647L105.168 27.3527L105.256 27.4308L106.585 25.936ZM106.801 38.464H104.801V40.464H106.801V38.464ZM110.089 38.464V40.464H112.089V38.464H110.089ZM110.281 33.928L108.866 32.5138L108.866 32.5138L110.281 33.928ZM115.081 33.928L113.586 35.2567L113.664 35.3447L113.752 35.4228L115.081 33.928ZM115.081 42.808L116.495 44.2222L116.495 44.2222L115.081 42.808ZM114.433 41H102.217V45H114.433V41ZM102.217 41C102.197 41 102.259 40.9971 102.37 41.029C102.487 41.0624 102.679 41.1404 102.873 41.3132L100.216 44.3028C100.887 44.8992 101.692 45 102.217 45V41ZM103.039 41.4793C103.212 41.6736 103.29 41.8654 103.324 41.9826C103.355 42.094 103.353 42.1553 103.353 42.136H99.3526C99.3526 42.6605 99.4534 43.4658 100.05 44.1367L103.039 41.4793ZM103.353 42.136V26.584H99.3526V42.136H103.353ZM103.353 26.584C103.353 26.5619 103.356 26.6342 103.318 26.7622C103.278 26.8968 103.181 27.1277 102.959 27.3502L100.13 24.5218C99.441 25.2111 99.3526 26.0892 99.3526 26.584H103.353ZM102.959 27.3502C102.774 27.5355 102.576 27.632 102.433 27.6781C102.364 27.7002 102.309 27.7104 102.274 27.7152C102.239 27.7199 102.219 27.72 102.217 27.72V23.72C101.641 23.72 100.8 23.8526 100.13 24.5218L102.959 27.3502ZM102.217 27.72H105.937V23.72H102.217V27.72ZM105.937 27.72C105.935 27.72 105.913 27.72 105.874 27.7146C105.835 27.7092 105.773 27.6976 105.694 27.6714C105.531 27.6168 105.298 27.4985 105.09 27.2647L108.079 24.6073C107.399 23.8419 106.486 23.72 105.937 23.72V27.72ZM105.256 27.4308C105.022 27.223 104.904 26.99 104.849 26.8265C104.823 26.7478 104.811 26.6855 104.806 26.6468C104.801 26.608 104.801 26.5858 104.801 26.584H108.801C108.801 26.0342 108.679 25.1215 107.913 24.4412L105.256 27.4308ZM104.801 26.584V38.464H108.801V26.584H104.801ZM106.801 40.464H110.089V36.464H106.801V40.464ZM112.089 38.464V34.576H108.089V38.464H112.089ZM112.089 34.576C112.089 34.5539 112.092 34.6262 112.054 34.7542C112.014 34.8888 111.917 35.1197 111.695 35.3422L108.866 32.5138C108.177 33.2031 108.089 34.0812 108.089 34.576H112.089ZM111.695 35.3422C111.51 35.5275 111.312 35.624 111.169 35.6701C111.1 35.6922 111.045 35.7024 111.01 35.7072C110.975 35.7119 110.955 35.712 110.953 35.712V31.712C110.377 31.712 109.536 31.8446 108.866 32.5138L111.695 35.3422ZM110.953 35.712H114.433V31.712H110.953V35.712ZM114.433 35.712C114.431 35.712 114.409 35.712 114.37 35.7066C114.331 35.7012 114.269 35.6896 114.19 35.6634C114.027 35.6088 113.794 35.4905 113.586 35.2567L116.575 32.5993C115.895 31.8339 114.982 31.712 114.433 31.712V35.712ZM113.752 35.4228C113.518 35.215 113.4 34.982 113.345 34.8185C113.319 34.7398 113.307 34.6775 113.302 34.6388C113.297 34.6 113.297 34.5778 113.297 34.576H117.297C117.297 34.0262 117.175 33.1135 116.409 32.4332L113.752 35.4228ZM113.297 34.576V42.136H117.297V34.576H113.297ZM113.297 42.136C113.297 42.1339 113.297 42.1138 113.301 42.0788C113.306 42.0437 113.316 41.9889 113.339 41.92C113.385 41.7766 113.481 41.5791 113.666 41.3938L116.495 44.2222C117.164 43.553 117.297 42.7116 117.297 42.136H113.297ZM113.666 41.3938C113.889 41.1713 114.12 41.0743 114.254 41.0344C114.382 40.9965 114.455 41 114.433 41V45C114.927 45 115.805 44.9115 116.495 44.2222L113.666 41.3938ZM123.584 30.76L121.756 29.9477L121.708 30.056L121.673 30.1692L123.584 30.76ZM122.456 34.408L120.545 33.8172L119.744 36.408H122.456V34.408ZM126.224 34.408V36.408H128.936L128.135 33.8172L126.224 34.408ZM125.096 30.76L127.007 30.1692L126.972 30.056L126.924 29.9477L125.096 30.76ZM124.88 30.448L123.466 31.8622L123.544 31.9405L123.631 32.0097L124.88 30.448ZM123.776 30.448L122.527 28.8863L122.44 28.9555L122.362 29.0338L123.776 30.448ZM122 42.808L120.586 41.3938V41.3938L122 42.808ZM117.152 42.808L115.657 44.1367L115.735 44.2247L115.823 44.3028L117.152 42.808ZM117.176 34.144L115.239 33.6472L115.233 33.6707L115.227 33.6943L117.176 34.144ZM117.896 31.96L119.763 32.678L119.764 32.6758L117.896 31.96ZM119.984 26.512L121.852 27.2278L121.861 27.2028L121.87 27.1776L119.984 26.512ZM120.416 25.912L119.368 24.2087L119.337 24.2277L119.307 24.2479L120.416 25.912ZM128.408 25.912L127.299 27.5761L127.329 27.5963L127.36 27.6153L128.408 25.912ZM128.864 26.512L126.978 27.1776L126.987 27.2028L126.997 27.2278L128.864 26.512ZM130.952 31.96L129.085 32.6758L129.085 32.678L130.952 31.96ZM131.648 34.144L129.699 34.5937L129.705 34.6173L129.711 34.6408L131.648 34.144ZM131.672 42.808L133.086 44.2222L133.086 44.2222L131.672 42.808ZM126.68 42.808L125.266 44.2222L125.344 44.3005L125.431 44.3697L126.68 42.808ZM126.464 38.776H128.464V36.776H126.464V38.776ZM122.216 38.776V36.776H120.216V38.776H122.216ZM121.673 30.1692L120.545 33.8172L124.367 34.9988L125.495 31.3508L121.673 30.1692ZM122.456 36.408H126.224V32.408H122.456V36.408ZM128.135 33.8172L127.007 30.1692L123.185 31.3508L124.313 34.9988L128.135 33.8172ZM126.924 29.9477C126.793 29.6543 126.558 29.2293 126.129 28.8863L123.631 32.0097C123.489 31.896 123.399 31.7841 123.35 31.7124C123.3 31.6403 123.275 31.5879 123.268 31.5723L126.924 29.9477ZM126.294 29.0338C125.831 28.5702 125.231 28.352 124.64 28.352V32.352C124.463 32.352 124.251 32.3217 124.029 32.233C123.805 32.1433 123.616 32.0119 123.466 31.8622L126.294 29.0338ZM124.64 28.352H124.04V32.352H124.64V28.352ZM124.04 28.352C123.458 28.352 122.936 28.559 122.527 28.8863L125.025 32.0097C124.776 32.209 124.43 32.352 124.04 32.352V28.352ZM122.362 29.0338C122.041 29.3545 121.857 29.7205 121.756 29.9477L125.412 31.5723C125.417 31.5596 125.409 31.5803 125.383 31.6222C125.36 31.6602 125.299 31.7532 125.19 31.8622L122.362 29.0338ZM120.216 42.136C120.216 42.1339 120.216 42.1138 120.221 42.0788C120.226 42.0437 120.236 41.9889 120.258 41.92C120.304 41.7766 120.401 41.5791 120.586 41.3938L123.414 44.2222C124.083 43.553 124.216 42.7116 124.216 42.136H120.216ZM120.586 41.3938C120.808 41.1713 121.039 41.0743 121.174 41.0344C121.302 40.9965 121.374 41 121.352 41V45C121.847 45 122.725 44.9115 123.414 44.2222L120.586 41.3938ZM121.352 41H117.824V45H121.352V41ZM117.824 41C117.805 41 117.866 40.9971 117.978 41.029C118.095 41.0624 118.286 41.1404 118.481 41.3132L115.823 44.3028C116.494 44.8992 117.3 45 117.824 45V41ZM118.647 41.4793C118.82 41.6736 118.898 41.8654 118.931 41.9826C118.963 42.094 118.96 42.1553 118.96 42.136H114.96C114.96 42.6605 115.061 43.4658 115.657 44.1367L118.647 41.4793ZM118.96 42.136V35.8H114.96V42.136H118.96ZM118.96 35.8C118.96 35.512 119.004 35.1159 119.125 34.5937L115.227 33.6943C115.06 34.4201 114.96 35.128 114.96 35.8H118.96ZM119.113 34.6408C119.248 34.1141 119.461 33.4629 119.763 32.678L116.029 31.242C115.691 32.1211 115.424 32.9259 115.239 33.6472L119.113 34.6408ZM119.764 32.6758L121.852 27.2278L118.117 25.7962L116.029 31.2442L119.764 32.6758ZM121.87 27.1776C121.859 27.2102 121.775 27.4096 121.525 27.5761L119.307 24.2479C118.673 24.6704 118.302 25.2698 118.098 25.8464L121.87 27.1776ZM121.464 27.6153C121.273 27.7328 121.146 27.72 121.208 27.72V23.72C120.63 23.72 119.975 23.8352 119.368 24.2087L121.464 27.6153ZM121.208 27.72H127.664V23.72H121.208V27.72ZM127.664 27.72C127.697 27.72 127.525 27.7268 127.299 27.5761L129.517 24.2479C128.907 23.8412 128.24 23.72 127.664 23.72V27.72ZM127.36 27.6153C127.248 27.5462 127.155 27.459 127.086 27.3682C127.019 27.2806 126.989 27.2088 126.978 27.1776L130.75 25.8464C130.53 25.2243 130.122 24.6182 129.456 24.2087L127.36 27.6153ZM126.997 27.2278L129.085 32.6758L132.82 31.2442L130.732 25.7962L126.997 27.2278ZM129.085 32.678C129.384 33.4537 129.583 34.0885 129.699 34.5937L133.597 33.6943C133.425 32.9515 133.16 32.1303 132.819 31.242L129.085 32.678ZM129.711 34.6408C129.842 35.1539 129.888 35.5335 129.888 35.8H133.888C133.888 35.1065 133.774 34.3821 133.585 33.6472L129.711 34.6408ZM129.888 35.8V42.136H133.888V35.8H129.888ZM129.888 42.136C129.888 42.1339 129.888 42.1138 129.893 42.0788C129.898 42.0437 129.908 41.9889 129.93 41.92C129.976 41.7766 130.073 41.5791 130.258 41.3938L133.086 44.2222C133.755 43.553 133.888 42.7116 133.888 42.136H129.888ZM130.258 41.3938C130.48 41.1713 130.711 41.0743 130.846 41.0344C130.974 40.9965 131.046 41 131.024 41V45C131.519 45 132.397 44.9115 133.086 44.2222L130.258 41.3938ZM131.024 41H127.4V45H131.024V41ZM127.4 41C127.367 41 127.407 40.996 127.495 41.0195C127.588 41.0441 127.752 41.1045 127.929 41.2463L125.431 44.3697C126.096 44.902 126.866 45 127.4 45V41ZM128.094 41.3938C128.28 41.5791 128.376 41.7766 128.422 41.92C128.444 41.9889 128.454 42.0437 128.459 42.0788C128.464 42.1138 128.464 42.1339 128.464 42.136H124.464C124.464 42.7116 124.597 43.553 125.266 44.2222L128.094 41.3938ZM128.464 42.136V38.776H124.464V42.136H128.464ZM126.464 36.776H122.216V40.776H126.464V36.776ZM120.216 38.776V42.136H124.216V38.776H120.216ZM133.939 42.808L132.444 44.1367L132.523 44.2247L132.611 44.3028L133.939 42.808ZM133.939 38.632L135.354 40.0462H135.354L133.939 38.632ZM136.987 38.416V40.416H138.987V38.416H136.987ZM136.987 30.352H138.987V28.352H136.987V30.352ZM133.939 30.16L132.444 31.4887L132.523 31.5767L132.611 31.6548L133.939 30.16ZM133.939 25.936L132.525 24.5218V24.5218L133.939 25.936ZM145.483 25.936L143.988 27.2647L144.067 27.3527L144.155 27.4308L145.483 25.936ZM145.483 30.16L146.898 31.5742L146.898 31.5742L145.483 30.16ZM142.507 30.352V28.352H140.507V30.352H142.507ZM142.507 38.416H140.507V40.416H142.507V38.416ZM145.483 38.632L143.988 39.9607L144.067 40.0487L144.155 40.1268L145.483 38.632ZM145.483 42.808L146.898 44.2222L146.898 44.2222L145.483 42.808ZM134.611 41C134.592 41 134.653 40.9971 134.765 41.029C134.882 41.0624 135.074 41.1404 135.268 41.3132L132.611 44.3028C133.281 44.8992 134.087 45 134.611 45V41ZM135.434 41.4793C135.607 41.6736 135.685 41.8654 135.718 41.9826C135.75 42.094 135.747 42.1553 135.747 42.136H131.747C131.747 42.6605 131.848 43.4658 132.444 44.1367L135.434 41.4793ZM135.747 42.136V39.28H131.747V42.136H135.747ZM135.747 39.28C135.747 39.2579 135.751 39.3302 135.713 39.4582C135.673 39.5928 135.576 39.8237 135.354 40.0462L132.525 37.2178C131.836 37.9071 131.747 38.7852 131.747 39.28H135.747ZM135.354 40.0462C135.168 40.2315 134.971 40.328 134.827 40.3741C134.758 40.3962 134.704 40.4064 134.669 40.4112C134.634 40.4159 134.613 40.416 134.611 40.416V36.416C134.036 36.416 133.194 36.5486 132.525 37.2178L135.354 40.0462ZM134.611 40.416H136.987V36.416H134.611V40.416ZM138.987 38.416V30.352H134.987V38.416H138.987ZM136.987 28.352H134.611V32.352H136.987V28.352ZM134.611 28.352C134.592 28.352 134.653 28.3491 134.765 28.381C134.882 28.4144 135.074 28.4924 135.268 28.6652L132.611 31.6548C133.281 32.2512 134.087 32.352 134.611 32.352V28.352ZM135.434 28.8313C135.607 29.0256 135.685 29.2174 135.718 29.3346C135.75 29.446 135.747 29.5073 135.747 29.488H131.747C131.747 30.0125 131.848 30.8178 132.444 31.4887L135.434 28.8313ZM135.747 29.488V26.584H131.747V29.488H135.747ZM135.747 26.584C135.747 26.5619 135.751 26.6342 135.713 26.7622C135.673 26.8968 135.576 27.1277 135.354 27.3502L132.525 24.5218C131.836 25.2111 131.747 26.0892 131.747 26.584H135.747ZM135.354 27.3502C135.168 27.5355 134.971 27.632 134.827 27.6781C134.758 27.7002 134.704 27.7104 134.669 27.7152C134.634 27.7199 134.613 27.72 134.611 27.72V23.72C134.036 23.72 133.194 23.8526 132.525 24.5218L135.354 27.3502ZM134.611 27.72H144.835V23.72H134.611V27.72ZM144.835 27.72C144.834 27.72 144.811 27.72 144.773 27.7146C144.734 27.7092 144.671 27.6976 144.593 27.6714C144.429 27.6168 144.196 27.4985 143.988 27.2647L146.978 24.6073C146.298 23.8419 145.385 23.72 144.835 23.72V27.72ZM144.155 27.4308C143.921 27.223 143.802 26.99 143.748 26.8265C143.722 26.7478 143.71 26.6855 143.705 26.6468C143.699 26.608 143.699 26.5858 143.699 26.584H147.699C147.699 26.0342 147.577 25.1215 146.812 24.4412L144.155 27.4308ZM143.699 26.584V29.488H147.699V26.584H143.699ZM143.699 29.488C143.699 29.4859 143.699 29.4658 143.704 29.4308C143.709 29.3957 143.719 29.3409 143.741 29.272C143.787 29.1286 143.884 28.9311 144.069 28.7458L146.898 31.5742C147.567 30.905 147.699 30.0636 147.699 29.488H143.699ZM144.069 28.7458C144.292 28.5233 144.523 28.4263 144.657 28.3864C144.785 28.3485 144.857 28.352 144.835 28.352V32.352C145.33 32.352 146.208 32.2635 146.898 31.5742L144.069 28.7458ZM144.835 28.352H142.507V32.352H144.835V28.352ZM140.507 30.352V38.416H144.507V30.352H140.507ZM142.507 40.416H144.835V36.416H142.507V40.416ZM144.835 40.416C144.834 40.416 144.811 40.416 144.773 40.4106C144.734 40.4052 144.671 40.3936 144.593 40.3674C144.429 40.3128 144.196 40.1945 143.988 39.9607L146.978 37.3033C146.298 36.5379 145.385 36.416 144.835 36.416V40.416ZM144.155 40.1268C143.921 39.919 143.802 39.686 143.748 39.5225C143.722 39.4438 143.71 39.3815 143.705 39.3428C143.699 39.304 143.699 39.2818 143.699 39.28H147.699C147.699 38.7302 147.577 37.8175 146.812 37.1372L144.155 40.1268ZM143.699 39.28V42.136H147.699V39.28H143.699ZM143.699 42.136C143.699 42.1339 143.699 42.1138 143.704 42.0788C143.709 42.0437 143.719 41.9889 143.741 41.92C143.787 41.7766 143.884 41.5791 144.069 41.3938L146.898 44.2222C147.567 43.553 147.699 42.7116 147.699 42.136H143.699ZM144.069 41.3938C144.292 41.1713 144.523 41.0743 144.657 41.0344C144.785 40.9965 144.857 41 144.835 41V45C145.33 45 146.208 44.9115 146.898 44.2222L144.069 41.3938ZM144.835 41H134.611V45H144.835V41ZM148.135 42.808L146.64 44.1367L146.718 44.2247L146.806 44.3028L148.135 42.808ZM148.135 25.936L146.72 24.5218V24.5218L148.135 25.936ZM153.295 25.888L152.148 27.5265L152.184 27.5517L152.221 27.5753L153.295 25.888ZM153.775 26.44L155.525 25.4733L155.522 25.4664L155.518 25.4595L153.775 26.44ZM155.935 30.352L154.184 31.3187L154.186 31.3233L155.935 30.352ZM156.127 30.664L154.527 31.864L154.612 31.9777L154.712 32.0782L156.127 30.664ZM156.799 30.664L155.384 29.2498L155.284 29.3503L155.199 29.464L156.799 30.664ZM157.015 30.352L158.763 31.3233L158.766 31.3169L158.77 31.3105L157.015 30.352ZM159.151 26.44L157.407 25.4595L157.401 25.4705L157.395 25.4815L159.151 26.44ZM159.607 25.888L158.533 24.2007L158.496 24.2243L158.46 24.2495L159.607 25.888ZM164.791 25.936L163.296 27.2647L163.374 27.3527L163.462 27.4308L164.791 25.936ZM164.791 42.808L166.205 44.2222V44.2222L164.791 42.808ZM159.775 42.808L158.28 44.1367L158.358 44.2247L158.446 44.3028L159.775 42.808ZM159.583 33.688H161.583L157.824 32.736L159.583 33.688ZM158.167 36.304L156.408 35.352L156.403 35.3601L156.399 35.3682L158.167 36.304ZM157.639 36.904L158.646 38.6316L158.667 38.6197L158.687 38.6073L157.639 36.904ZM155.167 36.904L154.057 38.5681L154.135 38.6203L154.218 38.6649L155.167 36.904ZM154.663 36.304L156.43 35.3682L156.426 35.3601L156.421 35.352L154.663 36.304ZM153.247 33.688L155.005 32.736L151.247 33.688H153.247ZM153.031 42.808L154.445 44.2222V44.2222L153.031 42.808ZM152.383 41H148.807V45H152.383V41ZM148.807 41C148.787 41 148.849 40.9971 148.96 41.029C149.077 41.0624 149.269 41.1404 149.463 41.3132L146.806 44.3028C147.477 44.8992 148.282 45 148.807 45V41ZM149.629 41.4793C149.802 41.6736 149.88 41.8654 149.914 41.9826C149.945 42.094 149.943 42.1553 149.943 42.136H145.943C145.943 42.6605 146.043 43.4658 146.64 44.1367L149.629 41.4793ZM149.943 42.136V26.584H145.943V42.136H149.943ZM149.943 26.584C149.943 26.5619 149.946 26.6342 149.908 26.7622C149.868 26.8968 149.771 27.1277 149.549 27.3502L146.72 24.5218C146.031 25.2111 145.943 26.0892 145.943 26.584H149.943ZM149.549 27.3502C149.364 27.5355 149.166 27.632 149.023 27.6781C148.954 27.7002 148.899 27.7104 148.864 27.7152C148.829 27.7199 148.809 27.72 148.807 27.72V23.72C148.231 23.72 147.39 23.8526 146.72 24.5218L149.549 27.3502ZM148.807 27.72H152.671V23.72H148.807V27.72ZM152.671 27.72C152.643 27.72 152.414 27.7131 152.148 27.5265L154.441 24.2495C153.855 23.8389 153.211 23.72 152.671 23.72V27.72ZM152.221 27.5753C152.122 27.5122 152.063 27.4518 152.037 27.4224C152.012 27.3937 152.013 27.3876 152.031 27.4205L155.518 25.4595C155.274 25.0267 154.912 24.5469 154.368 24.2007L152.221 27.5753ZM152.024 27.4067L154.184 31.3187L157.685 29.3853L155.525 25.4733L152.024 27.4067ZM154.186 31.3233C154.274 31.482 154.393 31.6854 154.527 31.864L157.727 29.464C157.742 29.4841 157.75 29.4969 157.752 29.4991C157.754 29.5019 157.752 29.4993 157.746 29.4898C157.734 29.4701 157.713 29.435 157.683 29.3807L154.186 31.3233ZM154.712 32.0782C155.176 32.5418 155.776 32.76 156.367 32.76V28.76C156.544 28.76 156.756 28.7903 156.977 28.879C157.201 28.9687 157.391 29.1001 157.541 29.2498L154.712 32.0782ZM156.367 32.76H156.583V28.76H156.367V32.76ZM156.583 32.76C157.167 32.76 157.895 32.535 158.399 31.864L155.199 29.464C155.376 29.2274 155.616 29.0332 155.896 28.9084C156.165 28.7887 156.41 28.76 156.583 28.76V32.76ZM158.213 32.0782C158.474 31.8166 158.654 31.52 158.763 31.3233L155.266 29.3807C155.249 29.4114 155.246 29.4148 155.256 29.3996C155.262 29.3912 155.274 29.3738 155.294 29.3501C155.312 29.3268 155.343 29.2916 155.384 29.2498L158.213 32.0782ZM158.77 31.3105L160.906 27.3985L157.395 25.4815L155.259 29.3935L158.77 31.3105ZM160.894 27.4205C160.92 27.3734 160.929 27.3661 160.914 27.3838C160.9 27.401 160.849 27.4594 160.753 27.5265L158.46 24.2495C157.962 24.598 157.631 25.0623 157.407 25.4595L160.894 27.4205ZM160.68 27.5753C160.469 27.7095 160.292 27.72 160.255 27.72V23.72C159.705 23.72 159.096 23.8425 158.533 24.2007L160.68 27.5753ZM160.255 27.72H164.143V23.72H160.255V27.72ZM164.143 27.72C164.141 27.72 164.119 27.72 164.08 27.7146C164.041 27.7092 163.979 27.6976 163.9 27.6714C163.737 27.6168 163.504 27.4985 163.296 27.2647L166.285 24.6073C165.605 23.8419 164.692 23.72 164.143 23.72V27.72ZM163.462 27.4308C163.228 27.223 163.11 26.99 163.055 26.8265C163.029 26.7478 163.017 26.6855 163.012 26.6468C163.007 26.608 163.007 26.5858 163.007 26.584H167.007C167.007 26.0342 166.885 25.1215 166.119 24.4412L163.462 27.4308ZM163.007 26.584V42.136H167.007V26.584H163.007ZM163.007 42.136C163.007 42.1339 163.007 42.1138 163.011 42.0788C163.016 42.0437 163.026 41.9889 163.049 41.92C163.095 41.7766 163.191 41.5791 163.376 41.3938L166.205 44.2222C166.874 43.553 167.007 42.7116 167.007 42.136H163.007ZM163.376 41.3938C163.599 41.1713 163.83 41.0743 163.964 41.0344C164.092 40.9965 164.165 41 164.143 41V45C164.637 45 165.515 44.9115 166.205 44.2222L163.376 41.3938ZM164.143 41H160.447V45H164.143V41ZM160.447 41C160.427 41 160.489 40.9971 160.6 41.029C160.717 41.0624 160.909 41.1404 161.103 41.3132L158.446 44.3028C159.117 44.8992 159.922 45 160.447 45V41ZM161.269 41.4793C161.442 41.6736 161.52 41.8654 161.554 41.9826C161.585 42.094 161.583 42.1553 161.583 42.136H157.583C157.583 42.6605 157.683 43.4658 158.28 44.1367L161.269 41.4793ZM161.583 42.136V33.688H157.583V42.136H161.583ZM157.824 32.736L156.408 35.352L159.925 37.256L161.341 34.64L157.824 32.736ZM156.399 35.3682C156.379 35.4058 156.425 35.3026 156.59 35.2007L158.687 38.6073C159.268 38.2494 159.666 37.7462 159.934 37.2398L156.399 35.3682ZM156.631 35.1764C156.837 35.0562 156.969 35.072 156.895 35.072V39.072C157.428 39.072 158.056 38.9758 158.646 38.6316L156.631 35.1764ZM156.895 35.072H155.935V39.072H156.895V35.072ZM155.935 35.072C155.869 35.072 155.96 35.0595 156.115 35.1431L154.218 38.6649C154.79 38.9725 155.392 39.072 155.935 39.072V35.072ZM156.276 35.2399C156.437 35.3475 156.469 35.4408 156.43 35.3682L152.895 37.2398C153.145 37.7112 153.512 38.2045 154.057 38.5681L156.276 35.2399ZM156.421 35.352L155.005 32.736L151.488 34.64L152.904 37.256L156.421 35.352ZM151.247 33.688V42.136H155.247V33.688H151.247ZM151.247 42.136C151.247 42.1339 151.247 42.1138 151.251 42.0788C151.256 42.0437 151.266 41.9889 151.289 41.92C151.335 41.7766 151.431 41.5791 151.616 41.3938L154.445 44.2222C155.114 43.553 155.247 42.7116 155.247 42.136H151.247ZM151.616 41.3938C151.839 41.1713 152.07 41.0743 152.204 41.0344C152.332 40.9965 152.405 41 152.383 41V45C152.877 45 153.755 44.9115 154.445 44.2222L151.616 41.3938Z" fill="black" mask="url(#path-8-outside-1_2531_1697)"/>
</g>
<defs>
<filter id="filter0_d_2531_1697" x="86.7383" y="25.7202" width="78.2683" height="20.2798" filterUnits="userSpaceOnUse" color-interpolation-filters="sRGB">
<feFlood flood-opacity="0" result="BackgroundImageFix"/>
<feColorMatrix in="SourceAlpha" type="matrix" values="0 0 0 0 0 0 0 0 0 0 0 0 0 0 0 0 0 0 127 0" result="hardAlpha"/>
<feOffset dy="3"/>
<feComposite in2="hardAlpha" operator="out"/>
<feColorMatrix type="matrix" values="0 0 0 0 0 0 0 0 0 0 0 0 0 0 0 0 0 0 1 0"/>
<feBlend mode="normal" in2="BackgroundImageFix" result="effect1_dropShadow_2531_1697"/>
<feBlend mode="normal" in="SourceGraphic" in2="effect1_dropShadow_2531_1697" result="shape"/>
</filter>
<linearGradient id="paint0_linear_2531_1697" x1="130.547" y1="56.6507" x2="130.547" y2="70.1012" gradientUnits="userSpaceOnUse">
<stop stop-color="#DB8400"/>
<stop offset="1" stop-color="#B94100"/>
</linearGradient>
<linearGradient id="paint1_linear_2531_1697" x1="95.3048" y1="64.6155" x2="95.3048" y2="3.69238" gradientUnits="userSpaceOnUse">
<stop stop-color="#FFDE00"/>
<stop offset="1" stop-color="#FFE636"/>
</linearGradient>
<linearGradient id="paint2_linear_2531_1697" x1="8.90376" y1="8.04403" x2="25.8962" y2="25.5673" gradientUnits="userSpaceOnUse">
<stop stop-color="white"/>
<stop offset="1" stop-color="white" stop-opacity="0"/>
</linearGradient>
<linearGradient id="paint3_linear_2531_1697" x1="159.339" y1="15.1565" x2="159.339" y2="47.1069" gradientUnits="userSpaceOnUse">
<stop stop-color="#FFDC02"/>
<stop offset="1" stop-color="#FFBB00"/>
</linearGradient>
</defs>
</svg>
