<svg width="35" height="35" viewBox="0 0 35 35" fill="none" xmlns="http://www.w3.org/2000/svg">
<rect y="4" width="35" height="31" rx="7" fill="url(#paint0_linear_2530_46)"/>
<rect width="35" height="31" rx="7" fill="url(#paint1_linear_2530_46)"/>
<rect width="35" height="31" rx="7" fill="url(#paint2_linear_2530_46)"/>
<rect x="2" y="2" width="31" height="27" rx="6" fill="url(#paint3_linear_2530_46)"/>
<ellipse cx="31.0351" cy="26.9491" rx="1.70013" ry="1.13342" transform="rotate(-38.8351 31.0351 26.9491)" fill="#FFE638"/>
<ellipse cx="4.03507" cy="3.94909" rx="1.70013" ry="1.13342" transform="rotate(-38.8351 4.03507 3.94909)" fill="#FFFEE2"/>
<g filter="url(#filter0_d_2530_46)">
<mask id="path-7-outside-1_2530_46" maskUnits="userSpaceOnUse" x="9" y="4" width="19" height="22" fill="black">
<rect fill="white" x="9" y="4" width="19" height="22"/>
<path d="M10.1812 8.04C10.2812 7.76 10.4212 7.48 10.6012 7.2C10.7812 6.92 11.0012 6.67 11.2612 6.45C11.5412 6.21 11.8612 6.02 12.2212 5.88C12.5812 5.72 12.9812 5.64 13.4212 5.64C14.0012 5.64 14.5112 5.79 14.9512 6.09C15.3912 6.37 15.8412 6.86 16.3012 7.56L18.6412 11.13L22.0912 6.03C22.2512 5.95 22.4712 5.88 22.7512 5.82C23.0512 5.74 23.3412 5.7 23.6212 5.7C24.5412 5.7 25.2612 5.92 25.7812 6.36C26.3012 6.8 26.5612 7.34 26.5612 7.98C26.5612 8.54 26.4112 9.04 26.1112 9.48C25.8312 9.92 25.4412 10.45 24.9412 11.07L21.8512 14.85L26.7412 21.84C26.5812 22.58 26.2312 23.17 25.6912 23.61C25.1712 24.03 24.4612 24.24 23.5612 24.24C22.9812 24.24 22.4812 24.1 22.0612 23.82C21.6412 23.52 21.2112 23.02 20.7712 22.32L18.3412 18.48L14.5612 24.18C14.4012 24.2 14.2512 24.21 14.1112 24.21C13.9712 24.23 13.8312 24.24 13.6912 24.24C12.5512 24.24 11.7112 24.01 11.1712 23.55C10.6312 23.09 10.3612 22.52 10.3612 21.84C10.3612 21.26 10.4812 20.76 10.7212 20.34C10.9812 19.9 11.3412 19.39 11.8012 18.81L14.9512 14.76L10.1812 8.04Z"/>
</mask>
<path d="M10.1812 8.04C10.2812 7.76 10.4212 7.48 10.6012 7.2C10.7812 6.92 11.0012 6.67 11.2612 6.45C11.5412 6.21 11.8612 6.02 12.2212 5.88C12.5812 5.72 12.9812 5.64 13.4212 5.64C14.0012 5.64 14.5112 5.79 14.9512 6.09C15.3912 6.37 15.8412 6.86 16.3012 7.56L18.6412 11.13L22.0912 6.03C22.2512 5.95 22.4712 5.88 22.7512 5.82C23.0512 5.74 23.3412 5.7 23.6212 5.7C24.5412 5.7 25.2612 5.92 25.7812 6.36C26.3012 6.8 26.5612 7.34 26.5612 7.98C26.5612 8.54 26.4112 9.04 26.1112 9.48C25.8312 9.92 25.4412 10.45 24.9412 11.07L21.8512 14.85L26.7412 21.84C26.5812 22.58 26.2312 23.17 25.6912 23.61C25.1712 24.03 24.4612 24.24 23.5612 24.24C22.9812 24.24 22.4812 24.1 22.0612 23.82C21.6412 23.52 21.2112 23.02 20.7712 22.32L18.3412 18.48L14.5612 24.18C14.4012 24.2 14.2512 24.21 14.1112 24.21C13.9712 24.23 13.8312 24.24 13.6912 24.24C12.5512 24.24 11.7112 24.01 11.1712 23.55C10.6312 23.09 10.3612 22.52 10.3612 21.84C10.3612 21.26 10.4812 20.76 10.7212 20.34C10.9812 19.9 11.3412 19.39 11.8012 18.81L14.9512 14.76L10.1812 8.04Z" fill="white"/>
<path d="M10.1812 8.04L9.23947 7.70366L9.0643 8.19413L9.36576 8.61882L10.1812 8.04ZM10.6012 7.2L9.76003 6.65924L9.76003 6.65924L10.6012 7.2ZM11.2612 6.45L11.9072 7.2134L11.912 7.20926L11.2612 6.45ZM12.2212 5.88L12.5837 6.812L12.6057 6.80342L12.6274 6.79381L12.2212 5.88ZM14.9512 6.09L14.3879 6.91623L14.401 6.92515L14.4143 6.93366L14.9512 6.09ZM16.3012 7.56L17.1376 7.0118L17.1369 7.01082L16.3012 7.56ZM18.6412 11.13L17.8049 11.6782L18.6281 12.9341L19.4695 11.6903L18.6412 11.13ZM22.0912 6.03L21.644 5.13557L21.4097 5.25272L21.2629 5.46969L22.0912 6.03ZM22.7512 5.82L22.9607 6.7978L22.985 6.79261L23.0089 6.78623L22.7512 5.82ZM25.7812 6.36L25.1353 7.12339L25.1353 7.12339L25.7812 6.36ZM26.1112 9.48L25.285 8.91666L25.2761 8.92976L25.2675 8.94312L26.1112 9.48ZM24.9412 11.07L25.7155 11.7029L25.7196 11.6978L24.9412 11.07ZM21.8512 14.85L21.077 14.2171L20.598 14.8031L21.0318 15.4232L21.8512 14.85ZM26.7412 21.84L27.7186 22.0513L27.8109 21.6246L27.5606 21.2668L26.7412 21.84ZM25.6912 23.61L26.3196 24.3879L26.3229 24.3852L25.6912 23.61ZM22.0612 23.82L21.48 24.6337L21.4931 24.6431L21.5065 24.6521L22.0612 23.82ZM20.7712 22.32L21.6179 21.7878L21.6162 21.7853L20.7712 22.32ZM18.3412 18.48L19.1862 17.9453L18.3609 16.641L17.5078 17.9273L18.3412 18.48ZM14.5612 24.18L14.6852 25.1723L15.1408 25.1153L15.3946 24.7327L14.5612 24.18ZM14.1112 24.21V23.21H14.0401L13.9698 23.2201L14.1112 24.21ZM11.1712 23.55L10.5227 24.3112L11.1712 23.55ZM10.7212 20.34L9.86028 19.8313L9.85658 19.8375L9.85297 19.8439L10.7212 20.34ZM11.8012 18.81L12.5847 19.4314L12.5906 19.4239L11.8012 18.81ZM14.9512 14.76L15.7406 15.3739L16.1969 14.7873L15.7667 14.1812L14.9512 14.76ZM11.123 8.37634C11.1945 8.17603 11.2988 7.96418 11.4424 7.74076L9.76003 6.65924C9.54366 6.99582 9.36793 7.34397 9.23947 7.70366L11.123 8.37634ZM11.4424 7.74076C11.5675 7.54618 11.7211 7.37078 11.9072 7.21338L10.6153 5.68661C10.2813 5.96922 9.99495 6.29382 9.76003 6.65924L11.4424 7.74076ZM11.912 7.20926C12.1023 7.04613 12.3238 6.91306 12.5837 6.812L11.8588 4.94799C11.3986 5.12694 10.9801 5.37387 10.6104 5.69074L11.912 7.20926ZM12.6274 6.79381C12.8453 6.69694 13.1047 6.64 13.4212 6.64V4.64C12.8577 4.64 12.3171 4.74305 11.8151 4.96619L12.6274 6.79381ZM13.4212 6.64C13.819 6.64 14.1288 6.73956 14.3879 6.91623L15.5145 5.26377C14.8937 4.84043 14.1834 4.64 13.4212 4.64V6.64ZM14.4143 6.93366C14.6844 7.10549 15.0415 7.46398 15.4655 8.10918L17.1369 7.01082C16.6409 6.25602 16.0981 5.63451 15.4881 5.24634L14.4143 6.93366ZM15.4649 8.10819L17.8049 11.6782L19.4776 10.5818L17.1376 7.0118L15.4649 8.10819ZM19.4695 11.6903L22.9195 6.59031L21.2629 5.46969L17.8129 10.5697L19.4695 11.6903ZM22.5384 6.92443C22.5919 6.89771 22.7202 6.84935 22.9607 6.7978L22.5417 4.8422C22.2222 4.91065 21.9106 5.00229 21.644 5.13557L22.5384 6.92443ZM23.0089 6.78623C23.2338 6.72624 23.4371 6.7 23.6212 6.7V4.7C23.2454 4.7 22.8686 4.75375 22.4935 4.85377L23.0089 6.78623ZM23.6212 6.7C24.3879 6.7 24.8506 6.88248 25.1353 7.12339L26.4272 5.59661C25.6719 4.95752 24.6945 4.7 23.6212 4.7V6.7ZM25.1353 7.12339C25.4472 7.38732 25.5612 7.65506 25.5612 7.98H27.5612C27.5612 7.02494 27.1552 6.21268 26.4272 5.59661L25.1353 7.12339ZM25.5612 7.98C25.5612 8.34998 25.4657 8.65154 25.285 8.91666L26.9374 10.0433C27.3567 9.42846 27.5612 8.73002 27.5612 7.98H25.5612ZM25.2675 8.94312C25.0151 9.33984 24.6502 9.83788 24.1628 10.4422L25.7196 11.6978C26.2322 11.0621 26.6473 10.5002 26.9549 10.0169L25.2675 8.94312ZM24.167 10.4371L21.077 14.2171L22.6254 15.4829L25.7154 11.7029L24.167 10.4371ZM21.0318 15.4232L25.9218 22.4132L27.5606 21.2668L22.6706 14.2768L21.0318 15.4232ZM25.7638 21.6287C25.6473 22.1675 25.408 22.5508 25.0595 22.8348L26.3229 24.3852C27.0544 23.7892 27.5151 22.9925 27.7186 22.0513L25.7638 21.6287ZM25.0629 22.8321C24.7739 23.0655 24.3117 23.24 23.5612 23.24V25.24C24.6108 25.24 25.5686 24.9945 26.3195 24.3879L25.0629 22.8321ZM23.5612 23.24C23.1484 23.24 22.8482 23.1428 22.6159 22.9879L21.5065 24.6521C22.1143 25.0572 22.814 25.24 23.5612 25.24V23.24ZM22.6425 23.0063C22.373 22.8138 22.0253 22.4361 21.6178 21.7878L19.9246 22.8522C20.3971 23.6039 20.9095 24.2262 21.48 24.6337L22.6425 23.0063ZM21.6162 21.7853L19.1862 17.9453L17.4962 19.0147L19.9262 22.8547L21.6162 21.7853ZM17.5078 17.9273L13.7278 23.6273L15.3946 24.7327L19.1746 19.0327L17.5078 17.9273ZM14.4372 23.1877C14.3123 23.2033 14.2041 23.21 14.1112 23.21V25.21C14.2983 25.21 14.4901 25.1967 14.6852 25.1723L14.4372 23.1877ZM13.9698 23.2201C13.8762 23.2334 13.7834 23.24 13.6912 23.24V25.24C13.879 25.24 14.0663 25.2266 14.2526 25.1999L13.9698 23.2201ZM13.6912 23.24C12.6534 23.24 12.0971 23.0251 11.8197 22.7888L10.5227 24.3112C11.3253 24.9949 12.449 25.24 13.6912 25.24V23.24ZM11.8197 22.7888C11.4917 22.5094 11.3612 22.2128 11.3612 21.84H9.36121C9.36121 22.8272 9.77073 23.6706 10.5227 24.3112L11.8197 22.7888ZM11.3612 21.84C11.3612 21.3994 11.4515 21.0776 11.5895 20.8361L9.85297 19.8439C9.51093 20.4424 9.36121 21.1206 9.36121 21.84H11.3612ZM11.5821 20.8487C11.8112 20.4611 12.1417 19.99 12.5847 19.4314L11.0177 18.1886C10.5407 18.79 10.1512 19.3389 9.86028 19.8313L11.5821 20.8487ZM12.5906 19.4239L15.7406 15.3739L14.1619 14.1461L11.0119 18.1961L12.5906 19.4239ZM15.7667 14.1812L10.9967 7.46117L9.36576 8.61882L14.1358 15.3388L15.7667 14.1812Z" fill="black" mask="url(#path-7-outside-1_2530_46)"/>
</g>
<defs>
<filter id="filter0_d_2530_46" x="10.1812" y="5.64014" width="16.5601" height="20.1001" filterUnits="userSpaceOnUse" color-interpolation-filters="sRGB">
<feFlood flood-opacity="0" result="BackgroundImageFix"/>
<feColorMatrix in="SourceAlpha" type="matrix" values="0 0 0 0 0 0 0 0 0 0 0 0 0 0 0 0 0 0 127 0" result="hardAlpha"/>
<feOffset dy="1.5"/>
<feComposite in2="hardAlpha" operator="out"/>
<feColorMatrix type="matrix" values="0 0 0 0 0 0 0 0 0 0 0 0 0 0 0 0 0 0 1 0"/>
<feBlend mode="normal" in2="BackgroundImageFix" result="effect1_dropShadow_2530_46"/>
<feBlend mode="normal" in="SourceGraphic" in2="effect1_dropShadow_2530_46" result="shape"/>
</filter>
<linearGradient id="paint0_linear_2530_46" x1="18.1481" y1="29.2429" x2="18.1481" y2="35.8857" gradientUnits="userSpaceOnUse">
<stop stop-color="#DB8400"/>
<stop offset="1" stop-color="#B94100"/>
</linearGradient>
<linearGradient id="paint1_linear_2530_46" x1="13.125" y1="31" x2="13.125" y2="-4.70897e-07" gradientUnits="userSpaceOnUse">
<stop stop-color="#FFDE00"/>
<stop offset="1" stop-color="#FFE636"/>
</linearGradient>
<linearGradient id="paint2_linear_2530_46" x1="0.810185" y1="2.21429" x2="5.42286" y2="3.54671" gradientUnits="userSpaceOnUse">
<stop stop-color="white"/>
<stop offset="1" stop-color="white" stop-opacity="0"/>
</linearGradient>
<linearGradient id="paint3_linear_2530_46" x1="21.8221" y1="5.91935" x2="21.8221" y2="22.0323" gradientUnits="userSpaceOnUse">
<stop stop-color="#FFDC02"/>
<stop offset="1" stop-color="#FFBB00"/>
</linearGradient>
</defs>
</svg>
