<svg width="157" height="63" viewBox="0 0 157 63" fill="none" xmlns="http://www.w3.org/2000/svg">
<rect y="0.450195" width="156.6" height="62.1" rx="10.8" fill="black"/>
<rect x="2.69995" y="5.64258" width="151.2" height="54" rx="9.45" fill="url(#paint0_linear_2531_1538)"/>
<rect x="2.69995" y="3.15039" width="151.2" height="51.3" rx="9.45" fill="url(#paint1_linear_2531_1538)"/>
<rect x="2.69995" y="3.15039" width="151.2" height="54" rx="9.45" fill="url(#paint2_linear_2531_1538)"/>
<rect x="6.75" y="7.2002" width="143.1" height="43.2" rx="8.1" fill="url(#paint3_linear_2531_1538)"/>
<ellipse cx="4.78413" cy="2.68841" rx="4.78413" ry="2.68841" transform="matrix(0.73474 -0.678349 0.574531 0.818483 5.10327 11.5796)" fill="#F7FFF7"/>
<ellipse cx="3.91701" cy="2.68841" rx="3.91701" ry="2.68841" transform="matrix(0.73474 -0.678349 0.574531 0.818483 142.803 46.6797)" fill="#F7FFF7"/>
<g filter="url(#filter0_d_2531_1538)">
<mask id="path-8-outside-1_2531_1538" maskUnits="userSpaceOnUse" x="32.3999" y="20.3501" width="93" height="18" fill="black">
<rect fill="white" x="32.3999" y="20.3501" width="93" height="18"/>
<path d="M43.9463 36.3501H39.0053C37.3178 36.3501 36.0623 36.0126 35.2388 35.3376C34.4288 34.6626 34.0238 33.6231 34.0238 32.2191V25.9213C34.0238 24.5173 34.4288 23.4778 35.2388 22.8028C36.0623 22.1143 37.3178 21.7701 39.0053 21.7701H43.9463C44.2028 21.7701 44.3851 21.8308 44.4931 21.9523C44.6146 22.0603 44.6753 22.2426 44.6753 22.4991V24.9493C44.6753 25.2058 44.6146 25.3948 44.4931 25.5163C44.3851 25.6243 44.2028 25.6783 43.9463 25.6783H39.8761C39.4576 25.6783 39.1471 25.7661 38.9446 25.9416C38.7421 26.1036 38.6408 26.3533 38.6408 26.6908V31.5103C38.6408 31.8478 38.7421 32.0976 38.9446 32.2596C39.1471 32.4081 39.4576 32.4823 39.8761 32.4823H43.9463C44.2028 32.4823 44.3851 32.5431 44.4931 32.6646C44.6146 32.7726 44.6753 32.9548 44.6753 33.2113V35.6211C44.6753 35.8776 44.6146 36.0666 44.4931 36.1881C44.3851 36.2961 44.2028 36.3501 43.9463 36.3501ZM56.7834 36.3501H46.4762C46.2197 36.3501 46.0307 36.2961 45.9092 36.1881C45.8012 36.0666 45.7472 35.8776 45.7472 35.6211V22.4991C45.7472 22.2426 45.8012 22.0603 45.9092 21.9523C46.0307 21.8308 46.2197 21.7701 46.4762 21.7701H49.6149C49.8714 21.7701 50.0537 21.8308 50.1617 21.9523C50.2832 22.0603 50.3439 22.2426 50.3439 22.4991V32.5228H53.1182V29.2423C53.1182 28.9858 53.1722 28.8036 53.2802 28.6956C53.4017 28.5741 53.5907 28.5133 53.8472 28.5133H56.7834C57.0399 28.5133 57.2222 28.5741 57.3302 28.6956C57.4517 28.8036 57.5124 28.9858 57.5124 29.2423V35.6211C57.5124 35.8776 57.4517 36.0666 57.3302 36.1881C57.2222 36.2961 57.0399 36.3501 56.7834 36.3501ZM63.8975 26.0226L62.9458 29.1006H66.125L65.1733 26.0226C65.1193 25.9011 65.0585 25.8133 64.991 25.7593C64.937 25.7053 64.8695 25.6783 64.7885 25.6783H64.2823C64.2013 25.6783 64.127 25.7053 64.0595 25.7593C64.0055 25.8133 63.9515 25.9011 63.8975 26.0226ZM62.7433 35.6211C62.7433 35.8776 62.6825 36.0666 62.561 36.1881C62.453 36.2961 62.2708 36.3501 62.0143 36.3501H59.0375C58.781 36.3501 58.592 36.2961 58.4705 36.1881C58.3625 36.0666 58.3085 35.8776 58.3085 35.6211V30.2751C58.3085 29.8701 58.3693 29.4043 58.4908 28.8778C58.6258 28.3513 58.8283 27.7371 59.0983 27.0351L60.86 22.4383C60.941 22.2088 61.0625 22.0401 61.2245 21.9321C61.4 21.8241 61.6228 21.7701 61.8928 21.7701H67.34C67.5965 21.7701 67.8058 21.8241 67.9678 21.9321C68.1433 22.0401 68.2715 22.2088 68.3525 22.4383L70.1143 27.0351C70.3843 27.7371 70.58 28.3513 70.7015 28.8778C70.8365 29.4043 70.904 29.8701 70.904 30.2751V35.6211C70.904 35.8776 70.8433 36.0666 70.7218 36.1881C70.6138 36.2961 70.4315 36.3501 70.175 36.3501H67.1173C66.8473 36.3501 66.6448 36.2961 66.5098 36.1881C66.3883 36.0666 66.3275 35.8776 66.3275 35.6211V32.7861H62.7433V35.6211ZM72.5942 36.3501C72.3377 36.3501 72.1487 36.2961 72.0272 36.1881C71.9192 36.0666 71.8652 35.8776 71.8652 35.6211V33.2113C71.8652 32.9548 71.9192 32.7726 72.0272 32.6646C72.1487 32.5431 72.3377 32.4823 72.5942 32.4823H74.599V25.6783H72.5942C72.3377 25.6783 72.1487 25.6243 72.0272 25.5163C71.9192 25.3948 71.8652 25.2058 71.8652 24.9493V22.4991C71.8652 22.2426 71.9192 22.0603 72.0272 21.9523C72.1487 21.8308 72.3377 21.7701 72.5942 21.7701H81.2207C81.4772 21.7701 81.6595 21.8308 81.7675 21.9523C81.889 22.0603 81.9497 22.2426 81.9497 22.4991V24.9493C81.9497 25.2058 81.889 25.3948 81.7675 25.5163C81.6595 25.6243 81.4772 25.6783 81.2207 25.6783H79.2565V32.4823H81.2207C81.4772 32.4823 81.6595 32.5431 81.7675 32.6646C81.889 32.7726 81.9497 32.9548 81.9497 33.2113V35.6211C81.9497 35.8776 81.889 36.0666 81.7675 36.1881C81.6595 36.2961 81.4772 36.3501 81.2207 36.3501H72.5942ZM86.9812 36.3501H83.964C83.7075 36.3501 83.5185 36.2961 83.397 36.1881C83.289 36.0666 83.235 35.8776 83.235 35.6211V22.4991C83.235 22.2426 83.289 22.0603 83.397 21.9523C83.5185 21.8308 83.7075 21.7701 83.964 21.7701H87.2242C87.4402 21.7701 87.6157 21.8173 87.7507 21.9118C87.8992 22.0063 88.0342 22.1616 88.1557 22.3776L89.9782 25.6783C90.0457 25.7998 90.0997 25.8876 90.1402 25.9416C90.1942 25.9956 90.2617 26.0226 90.3427 26.0226H90.525C90.606 26.0226 90.6667 25.9956 90.7072 25.9416C90.7612 25.8876 90.822 25.7998 90.8895 25.6783L92.6917 22.3776C92.8132 22.1616 92.9415 22.0063 93.0765 21.9118C93.225 21.8173 93.4072 21.7701 93.6232 21.7701H96.9037C97.1602 21.7701 97.3425 21.8308 97.4505 21.9523C97.572 22.0603 97.6327 22.2426 97.6327 22.4991V35.6211C97.6327 35.8776 97.572 36.0666 97.4505 36.1881C97.3425 36.2961 97.1602 36.3501 96.9037 36.3501H93.7852C93.5287 36.3501 93.3397 36.2961 93.2182 36.1881C93.1102 36.0666 93.0562 35.8776 93.0562 35.6211V28.4931L91.8615 30.7003C91.74 30.9298 91.5915 31.0986 91.416 31.2066C91.254 31.3011 91.0447 31.3483 90.7882 31.3483H89.9782C89.7217 31.3483 89.5057 31.3011 89.3302 31.2066C89.1682 31.0986 89.0265 30.9298 88.905 30.7003L87.7102 28.4931V35.6211C87.7102 35.8776 87.6495 36.0666 87.528 36.1881C87.42 36.2961 87.2377 36.3501 86.9812 36.3501ZM109.33 36.3501H99.9338C99.6773 36.3501 99.4883 36.2961 99.3668 36.1881C99.2588 36.0666 99.2048 35.8776 99.2048 35.6211V22.4991C99.2048 22.2426 99.2588 22.0603 99.3668 21.9523C99.4883 21.8308 99.6773 21.7701 99.9338 21.7701H109.33C109.586 21.7701 109.769 21.8308 109.877 21.9523C109.998 22.0603 110.059 22.2426 110.059 22.4991V24.8683C110.059 25.1248 109.998 25.3138 109.877 25.4353C109.769 25.5433 109.586 25.5973 109.33 25.5973H103.741V27.1566H107.69C107.946 27.1566 108.128 27.2173 108.236 27.3388C108.358 27.4468 108.419 27.6291 108.419 27.8856V30.0523C108.419 30.3088 108.358 30.4978 108.236 30.6193C108.128 30.7273 107.946 30.7813 107.69 30.7813H103.741V32.5228H109.33C109.586 32.5228 109.769 32.5836 109.877 32.7051C109.998 32.8131 110.059 32.9953 110.059 33.2518V35.6211C110.059 35.8776 109.998 36.0666 109.877 36.1881C109.769 36.2961 109.586 36.3501 109.33 36.3501ZM118.793 36.3501H111.968C111.712 36.3501 111.523 36.2961 111.401 36.1881C111.293 36.0666 111.239 35.8776 111.239 35.6211V22.4991C111.239 22.2426 111.293 22.0603 111.401 21.9523C111.523 21.8308 111.712 21.7701 111.968 21.7701H118.793C120.48 21.7701 121.729 22.1076 122.539 22.7826C123.362 23.4576 123.774 24.4971 123.774 25.9011V32.2191C123.774 33.6231 123.362 34.6626 122.539 35.3376C121.729 36.0126 120.48 36.3501 118.793 36.3501ZM115.836 25.6378V32.5228H118.246C118.57 32.5228 118.806 32.4418 118.955 32.2798C119.117 32.1178 119.198 31.8681 119.198 31.5306V26.6098C119.198 26.2723 119.117 26.0293 118.955 25.8808C118.806 25.7188 118.57 25.6378 118.246 25.6378H115.836Z"/>
</mask>
<path d="M43.9463 36.3501H39.0053C37.3178 36.3501 36.0623 36.0126 35.2388 35.3376C34.4288 34.6626 34.0238 33.6231 34.0238 32.2191V25.9213C34.0238 24.5173 34.4288 23.4778 35.2388 22.8028C36.0623 22.1143 37.3178 21.7701 39.0053 21.7701H43.9463C44.2028 21.7701 44.3851 21.8308 44.4931 21.9523C44.6146 22.0603 44.6753 22.2426 44.6753 22.4991V24.9493C44.6753 25.2058 44.6146 25.3948 44.4931 25.5163C44.3851 25.6243 44.2028 25.6783 43.9463 25.6783H39.8761C39.4576 25.6783 39.1471 25.7661 38.9446 25.9416C38.7421 26.1036 38.6408 26.3533 38.6408 26.6908V31.5103C38.6408 31.8478 38.7421 32.0976 38.9446 32.2596C39.1471 32.4081 39.4576 32.4823 39.8761 32.4823H43.9463C44.2028 32.4823 44.3851 32.5431 44.4931 32.6646C44.6146 32.7726 44.6753 32.9548 44.6753 33.2113V35.6211C44.6753 35.8776 44.6146 36.0666 44.4931 36.1881C44.3851 36.2961 44.2028 36.3501 43.9463 36.3501ZM56.7834 36.3501H46.4762C46.2197 36.3501 46.0307 36.2961 45.9092 36.1881C45.8012 36.0666 45.7472 35.8776 45.7472 35.6211V22.4991C45.7472 22.2426 45.8012 22.0603 45.9092 21.9523C46.0307 21.8308 46.2197 21.7701 46.4762 21.7701H49.6149C49.8714 21.7701 50.0537 21.8308 50.1617 21.9523C50.2832 22.0603 50.3439 22.2426 50.3439 22.4991V32.5228H53.1182V29.2423C53.1182 28.9858 53.1722 28.8036 53.2802 28.6956C53.4017 28.5741 53.5907 28.5133 53.8472 28.5133H56.7834C57.0399 28.5133 57.2222 28.5741 57.3302 28.6956C57.4517 28.8036 57.5124 28.9858 57.5124 29.2423V35.6211C57.5124 35.8776 57.4517 36.0666 57.3302 36.1881C57.2222 36.2961 57.0399 36.3501 56.7834 36.3501ZM63.8975 26.0226L62.9458 29.1006H66.125L65.1733 26.0226C65.1193 25.9011 65.0585 25.8133 64.991 25.7593C64.937 25.7053 64.8695 25.6783 64.7885 25.6783H64.2823C64.2013 25.6783 64.127 25.7053 64.0595 25.7593C64.0055 25.8133 63.9515 25.9011 63.8975 26.0226ZM62.7433 35.6211C62.7433 35.8776 62.6825 36.0666 62.561 36.1881C62.453 36.2961 62.2708 36.3501 62.0143 36.3501H59.0375C58.781 36.3501 58.592 36.2961 58.4705 36.1881C58.3625 36.0666 58.3085 35.8776 58.3085 35.6211V30.2751C58.3085 29.8701 58.3693 29.4043 58.4908 28.8778C58.6258 28.3513 58.8283 27.7371 59.0983 27.0351L60.86 22.4383C60.941 22.2088 61.0625 22.0401 61.2245 21.9321C61.4 21.8241 61.6228 21.7701 61.8928 21.7701H67.34C67.5965 21.7701 67.8058 21.8241 67.9678 21.9321C68.1433 22.0401 68.2715 22.2088 68.3525 22.4383L70.1143 27.0351C70.3843 27.7371 70.58 28.3513 70.7015 28.8778C70.8365 29.4043 70.904 29.8701 70.904 30.2751V35.6211C70.904 35.8776 70.8433 36.0666 70.7218 36.1881C70.6138 36.2961 70.4315 36.3501 70.175 36.3501H67.1173C66.8473 36.3501 66.6448 36.2961 66.5098 36.1881C66.3883 36.0666 66.3275 35.8776 66.3275 35.6211V32.7861H62.7433V35.6211ZM72.5942 36.3501C72.3377 36.3501 72.1487 36.2961 72.0272 36.1881C71.9192 36.0666 71.8652 35.8776 71.8652 35.6211V33.2113C71.8652 32.9548 71.9192 32.7726 72.0272 32.6646C72.1487 32.5431 72.3377 32.4823 72.5942 32.4823H74.599V25.6783H72.5942C72.3377 25.6783 72.1487 25.6243 72.0272 25.5163C71.9192 25.3948 71.8652 25.2058 71.8652 24.9493V22.4991C71.8652 22.2426 71.9192 22.0603 72.0272 21.9523C72.1487 21.8308 72.3377 21.7701 72.5942 21.7701H81.2207C81.4772 21.7701 81.6595 21.8308 81.7675 21.9523C81.889 22.0603 81.9497 22.2426 81.9497 22.4991V24.9493C81.9497 25.2058 81.889 25.3948 81.7675 25.5163C81.6595 25.6243 81.4772 25.6783 81.2207 25.6783H79.2565V32.4823H81.2207C81.4772 32.4823 81.6595 32.5431 81.7675 32.6646C81.889 32.7726 81.9497 32.9548 81.9497 33.2113V35.6211C81.9497 35.8776 81.889 36.0666 81.7675 36.1881C81.6595 36.2961 81.4772 36.3501 81.2207 36.3501H72.5942ZM86.9812 36.3501H83.964C83.7075 36.3501 83.5185 36.2961 83.397 36.1881C83.289 36.0666 83.235 35.8776 83.235 35.6211V22.4991C83.235 22.2426 83.289 22.0603 83.397 21.9523C83.5185 21.8308 83.7075 21.7701 83.964 21.7701H87.2242C87.4402 21.7701 87.6157 21.8173 87.7507 21.9118C87.8992 22.0063 88.0342 22.1616 88.1557 22.3776L89.9782 25.6783C90.0457 25.7998 90.0997 25.8876 90.1402 25.9416C90.1942 25.9956 90.2617 26.0226 90.3427 26.0226H90.525C90.606 26.0226 90.6667 25.9956 90.7072 25.9416C90.7612 25.8876 90.822 25.7998 90.8895 25.6783L92.6917 22.3776C92.8132 22.1616 92.9415 22.0063 93.0765 21.9118C93.225 21.8173 93.4072 21.7701 93.6232 21.7701H96.9037C97.1602 21.7701 97.3425 21.8308 97.4505 21.9523C97.572 22.0603 97.6327 22.2426 97.6327 22.4991V35.6211C97.6327 35.8776 97.572 36.0666 97.4505 36.1881C97.3425 36.2961 97.1602 36.3501 96.9037 36.3501H93.7852C93.5287 36.3501 93.3397 36.2961 93.2182 36.1881C93.1102 36.0666 93.0562 35.8776 93.0562 35.6211V28.4931L91.8615 30.7003C91.74 30.9298 91.5915 31.0986 91.416 31.2066C91.254 31.3011 91.0447 31.3483 90.7882 31.3483H89.9782C89.7217 31.3483 89.5057 31.3011 89.3302 31.2066C89.1682 31.0986 89.0265 30.9298 88.905 30.7003L87.7102 28.4931V35.6211C87.7102 35.8776 87.6495 36.0666 87.528 36.1881C87.42 36.2961 87.2377 36.3501 86.9812 36.3501ZM109.33 36.3501H99.9338C99.6773 36.3501 99.4883 36.2961 99.3668 36.1881C99.2588 36.0666 99.2048 35.8776 99.2048 35.6211V22.4991C99.2048 22.2426 99.2588 22.0603 99.3668 21.9523C99.4883 21.8308 99.6773 21.7701 99.9338 21.7701H109.33C109.586 21.7701 109.769 21.8308 109.877 21.9523C109.998 22.0603 110.059 22.2426 110.059 22.4991V24.8683C110.059 25.1248 109.998 25.3138 109.877 25.4353C109.769 25.5433 109.586 25.5973 109.33 25.5973H103.741V27.1566H107.69C107.946 27.1566 108.128 27.2173 108.236 27.3388C108.358 27.4468 108.419 27.6291 108.419 27.8856V30.0523C108.419 30.3088 108.358 30.4978 108.236 30.6193C108.128 30.7273 107.946 30.7813 107.69 30.7813H103.741V32.5228H109.33C109.586 32.5228 109.769 32.5836 109.877 32.7051C109.998 32.8131 110.059 32.9953 110.059 33.2518V35.6211C110.059 35.8776 109.998 36.0666 109.877 36.1881C109.769 36.2961 109.586 36.3501 109.33 36.3501ZM118.793 36.3501H111.968C111.712 36.3501 111.523 36.2961 111.401 36.1881C111.293 36.0666 111.239 35.8776 111.239 35.6211V22.4991C111.239 22.2426 111.293 22.0603 111.401 21.9523C111.523 21.8308 111.712 21.7701 111.968 21.7701H118.793C120.48 21.7701 121.729 22.1076 122.539 22.7826C123.362 23.4576 123.774 24.4971 123.774 25.9011V32.2191C123.774 33.6231 123.362 34.6626 122.539 35.3376C121.729 36.0126 120.48 36.3501 118.793 36.3501ZM115.836 25.6378V32.5228H118.246C118.57 32.5228 118.806 32.4418 118.955 32.2798C119.117 32.1178 119.198 31.8681 119.198 31.5306V26.6098C119.198 26.2723 119.117 26.0293 118.955 25.8808C118.806 25.7188 118.57 25.6378 118.246 25.6378H115.836Z" fill="white"/>
<path d="M35.2388 35.3376L34.3746 36.3747L34.383 36.3817L35.2388 35.3376ZM35.2388 22.8028L36.1031 23.8399L36.1048 23.8386L35.2388 22.8028ZM44.4931 21.9523L43.4841 22.8492L43.5369 22.9086L43.5962 22.9614L44.4931 21.9523ZM38.9446 25.9416L39.7879 26.9958L39.8087 26.9792L39.8288 26.9618L38.9446 25.9416ZM38.9446 32.2596L38.1013 33.3138L38.1234 33.3315L38.1463 33.3482L38.9446 32.2596ZM44.4931 32.6646L43.4841 33.5615L43.5369 33.6208L43.5962 33.6736L44.4931 32.6646ZM44.4931 36.1881L45.4477 37.1427H45.4477L44.4931 36.1881ZM43.9464 35.0001H39.0053V37.7001H43.9464V35.0001ZM39.0053 35.0001C37.4584 35.0001 36.5711 34.684 36.0947 34.2935L34.383 36.3817C35.5536 37.3411 37.1773 37.7001 39.0053 37.7001V35.0001ZM36.1031 34.3005C35.6952 33.9606 35.3738 33.3639 35.3738 32.2191H32.6738C32.6738 33.8823 33.1625 35.3646 34.3746 36.3747L36.1031 34.3005ZM35.3738 32.2191V25.9213H32.6738V32.2191H35.3738ZM35.3738 25.9213C35.3738 24.7765 35.6952 24.1799 36.1031 23.8399L34.3746 21.7657C33.1625 22.7758 32.6738 24.2582 32.6738 25.9213H35.3738ZM36.1048 23.8386C36.5803 23.441 37.4632 23.1201 39.0053 23.1201V20.4201C37.1725 20.4201 35.5444 20.7877 34.3729 21.7671L36.1048 23.8386ZM39.0053 23.1201H43.9464V20.4201H39.0053V23.1201ZM43.9464 23.1201C43.975 23.1201 43.9324 23.1244 43.8485 23.0964C43.7563 23.0657 43.6136 22.9949 43.4841 22.8492L45.5021 21.0555C45.0213 20.5146 44.3687 20.4201 43.9464 20.4201V23.1201ZM43.5962 22.9614C43.4505 22.8319 43.3798 22.6891 43.3491 22.5969C43.3211 22.513 43.3253 22.4704 43.3253 22.4991H46.0253C46.0253 22.0767 45.9309 21.4242 45.39 20.9433L43.5962 22.9614ZM43.3253 22.4991V24.9493H46.0253V22.4991H43.3253ZM43.3253 24.9493C43.3253 25.0225 43.3055 24.7948 43.5385 24.5618L45.4477 26.4709C45.9237 25.9949 46.0253 25.3892 46.0253 24.9493H43.3253ZM43.5385 24.5618C43.6779 24.4223 43.8192 24.365 43.8919 24.3435C43.9601 24.3233 43.9869 24.3283 43.9464 24.3283V27.0283C44.3317 27.0283 44.9608 26.9578 45.4477 26.4709L43.5385 24.5618ZM43.9464 24.3283H39.8761V27.0283H43.9464V24.3283ZM39.8761 24.3283C39.3066 24.3283 38.6138 24.4418 38.0604 24.9214L39.8288 26.9618C39.7528 27.0276 39.6936 27.0441 39.6965 27.0433C39.6982 27.0428 39.713 27.0388 39.7438 27.0351C39.7746 27.0314 39.8181 27.0283 39.8761 27.0283V24.3283ZM38.1013 24.8874C37.487 25.3789 37.2908 26.0769 37.2908 26.6908H39.9908C39.9908 26.6537 39.9968 26.6863 39.9679 26.7576C39.9352 26.8382 39.8744 26.9266 39.7879 26.9958L38.1013 24.8874ZM37.2908 26.6908V31.5103H39.9908V26.6908H37.2908ZM37.2908 31.5103C37.2908 32.1243 37.487 32.8223 38.1013 33.3138L39.7879 31.2054C39.8744 31.2746 39.9352 31.363 39.9679 31.4436C39.9968 31.5149 39.9908 31.5475 39.9908 31.5103H37.2908ZM38.1463 33.3482C38.6893 33.7465 39.3442 33.8323 39.8761 33.8323V31.1323C39.7419 31.1323 39.6697 31.12 39.6433 31.1137C39.6173 31.1074 39.6657 31.1143 39.7429 31.171L38.1463 33.3482ZM39.8761 33.8323H43.9464V31.1323H39.8761V33.8323ZM43.9464 33.8323C43.975 33.8323 43.9324 33.8366 43.8485 33.8086C43.7563 33.7779 43.6136 33.7072 43.4841 33.5615L45.5021 31.7677C45.0213 31.2268 44.3687 31.1323 43.9464 31.1323V33.8323ZM43.5962 33.6736C43.4505 33.5441 43.3798 33.4014 43.3491 33.3092C43.3211 33.2253 43.3253 33.1827 43.3253 33.2113H46.0253C46.0253 32.789 45.9309 32.1364 45.39 31.6556L43.5962 33.6736ZM43.3253 33.2113V35.6211H46.0253V33.2113H43.3253ZM43.3253 35.6211C43.3253 35.6942 43.3055 35.4665 43.5385 35.2335L45.4477 37.1427C45.9237 36.6667 46.0253 36.0609 46.0253 35.6211H43.3253ZM43.5385 35.2335C43.6779 35.0941 43.8192 35.0367 43.8919 35.0152C43.9601 34.995 43.9869 35.0001 43.9464 35.0001V37.7001C44.3317 37.7001 44.9608 37.6296 45.4477 37.1427L43.5385 35.2335ZM45.9092 36.1881L44.9002 37.085L44.9529 37.1443L45.0123 37.1971L45.9092 36.1881ZM45.9092 21.9523L44.9546 20.9978V20.9978L45.9092 21.9523ZM50.1617 21.9523L49.1527 22.8492L49.2054 22.9086L49.2648 22.9614L50.1617 21.9523ZM50.3439 32.5228H48.9939V33.8728H50.3439V32.5228ZM53.1182 32.5228V33.8728H54.4682V32.5228H53.1182ZM53.2802 28.6956L52.3256 27.741L52.3256 27.741L53.2802 28.6956ZM57.3302 28.6956L56.3212 29.5925L56.3739 29.6518L56.4333 29.7046L57.3302 28.6956ZM57.3302 36.1881L58.2848 37.1427H58.2848L57.3302 36.1881ZM56.7834 35.0001H46.4762V37.7001H56.7834V35.0001ZM46.4762 35.0001C46.4375 35.0001 46.4566 34.9954 46.5129 35.0115C46.5731 35.0287 46.687 35.0733 46.8061 35.1791L45.0123 37.1971C45.4895 37.6213 46.0709 37.7001 46.4762 37.7001V35.0001ZM46.9182 35.2912C47.024 35.4103 47.0685 35.5242 47.0857 35.5843C47.1018 35.6407 47.0972 35.6598 47.0972 35.6211H44.3972C44.3972 36.0264 44.476 36.6078 44.9002 37.085L46.9182 35.2912ZM47.0972 35.6211V22.4991H44.3972V35.6211H47.0972ZM47.0972 22.4991C47.0972 22.4586 47.1023 22.4854 47.0821 22.5536C47.0605 22.6262 47.0032 22.7675 46.8638 22.9069L44.9546 20.9978C44.4677 21.4846 44.3972 22.1138 44.3972 22.4991H47.0972ZM46.8638 22.9069C46.6308 23.14 46.403 23.1201 46.4762 23.1201V20.4201C46.0363 20.4201 45.4306 20.5217 44.9546 20.9978L46.8638 22.9069ZM46.4762 23.1201H49.6149V20.4201H46.4762V23.1201ZM49.6149 23.1201C49.6436 23.1201 49.601 23.1244 49.5171 23.0964C49.4249 23.0657 49.2822 22.9949 49.1527 22.8492L51.1707 21.0555C50.6899 20.5146 50.0373 20.4201 49.6149 20.4201V23.1201ZM49.2648 22.9614C49.1191 22.8319 49.0484 22.6891 49.0176 22.5969C48.9897 22.513 48.9939 22.4704 48.9939 22.4991H51.6939C51.6939 22.0767 51.5995 21.4242 51.0586 20.9433L49.2648 22.9614ZM48.9939 22.4991V32.5228H51.6939V22.4991H48.9939ZM50.3439 33.8728H53.1182V31.1728H50.3439V33.8728ZM54.4682 32.5228V29.2423H51.7682V32.5228H54.4682ZM54.4682 29.2423C54.4682 29.2018 54.4733 29.2286 54.4531 29.2968C54.4315 29.3695 54.3742 29.5108 54.2348 29.6502L52.3256 27.741C51.8387 28.2279 51.7682 28.857 51.7682 29.2423H54.4682ZM54.2348 29.6502C54.0018 29.8832 53.774 29.8633 53.8472 29.8633V27.1633C53.4073 27.1633 52.8016 27.265 52.3256 27.741L54.2348 29.6502ZM53.8472 29.8633H56.7834V27.1633H53.8472V29.8633ZM56.7834 29.8633C56.8121 29.8633 56.7695 29.8676 56.6856 29.8396C56.5934 29.8089 56.4507 29.7382 56.3212 29.5925L58.3392 27.7987C57.8584 27.2578 57.2058 27.1633 56.7834 27.1633V29.8633ZM56.4333 29.7046C56.2876 29.5751 56.2169 29.4324 56.1861 29.3402C56.1582 29.2563 56.1624 29.2137 56.1624 29.2423H58.8624C58.8624 28.82 58.768 28.1674 58.2271 27.6866L56.4333 29.7046ZM56.1624 29.2423V35.6211H58.8624V29.2423H56.1624ZM56.1624 35.6211C56.1624 35.6942 56.1426 35.4665 56.3756 35.2335L58.2848 37.1427C58.7608 36.6667 58.8624 36.0609 58.8624 35.6211H56.1624ZM56.3756 35.2335C56.515 35.0941 56.6563 35.0367 56.729 35.0152C56.7972 34.995 56.824 35.0001 56.7834 35.0001V37.7001C57.1687 37.7001 57.7979 37.6296 58.2848 37.1427L56.3756 35.2335ZM63.8975 26.0226L62.6639 25.4743L62.6314 25.5474L62.6078 25.6238L63.8975 26.0226ZM62.9458 29.1006L61.656 28.7018L61.1153 30.4506H62.9458V29.1006ZM66.125 29.1006V30.4506H67.9555L67.4148 28.7018L66.125 29.1006ZM65.1733 26.0226L66.463 25.6238L66.4394 25.5474L66.4069 25.4743L65.1733 26.0226ZM64.991 25.7593L64.0364 26.7139L64.0893 26.7668L64.1477 26.8135L64.991 25.7593ZM64.0595 25.7593L63.2162 24.7052L63.1578 24.7519L63.1049 24.8047L64.0595 25.7593ZM62.561 36.1881L61.6064 35.2335V35.2335L62.561 36.1881ZM58.4705 36.1881L57.4615 37.085L57.5143 37.1443L57.5736 37.1971L58.4705 36.1881ZM58.4908 28.8778L57.1831 28.5425L57.179 28.5584L57.1753 28.5743L58.4908 28.8778ZM59.0983 27.0351L60.3583 27.5197L60.3588 27.5182L59.0983 27.0351ZM60.86 22.4383L62.1206 22.9215L62.127 22.9047L62.133 22.8877L60.86 22.4383ZM61.2245 21.9321L60.517 20.7824L60.4961 20.7952L60.4757 20.8088L61.2245 21.9321ZM67.9678 21.9321L67.2189 23.0554L67.2393 23.069L67.2602 23.0818L67.9678 21.9321ZM68.3525 22.4383L67.0795 22.8877L67.0855 22.9047L67.0919 22.9215L68.3525 22.4383ZM70.1143 27.0351L68.8537 27.5182L68.8542 27.5197L70.1143 27.0351ZM70.7015 28.8778L69.3861 29.1814L69.3897 29.1973L69.3938 29.2132L70.7015 28.8778ZM70.7218 36.1881L71.6763 37.1427L70.7218 36.1881ZM66.5098 36.1881L65.5552 37.1427L65.608 37.1956L65.6664 37.2423L66.5098 36.1881ZM66.3275 32.7861H67.6775V31.4361H66.3275V32.7861ZM62.7433 32.7861V31.4361H61.3933V32.7861H62.7433ZM62.6078 25.6238L61.656 28.7018L64.2355 29.4994L65.1873 26.4214L62.6078 25.6238ZM62.9458 30.4506H66.125V27.7506H62.9458V30.4506ZM67.4148 28.7018L66.463 25.6238L63.8835 26.4214L64.8353 29.4994L67.4148 28.7018ZM66.4069 25.4743C66.3081 25.2519 66.1372 24.9475 65.8343 24.7052L64.1477 26.8135C64.0585 26.7422 64.0047 26.6737 63.9772 26.6341C63.9629 26.6134 63.9534 26.5971 63.9478 26.5869C63.9422 26.5767 63.9397 26.571 63.9396 26.5709L66.4069 25.4743ZM65.9456 24.8048C65.6219 24.481 65.2034 24.3283 64.7885 24.3283V27.0283C64.6768 27.0283 64.5414 27.0092 64.3985 26.952C64.254 26.8942 64.132 26.8096 64.0364 26.7139L65.9456 24.8048ZM64.7885 24.3283H64.2823V27.0283H64.7885V24.3283ZM64.2823 24.3283C63.8733 24.3283 63.5058 24.4735 63.2162 24.7052L64.9028 26.8135C64.7482 26.9372 64.5292 27.0283 64.2823 27.0283V24.3283ZM63.1049 24.8047C62.8776 25.032 62.7428 25.2966 62.6639 25.4743L65.1311 26.5709C65.1404 26.5502 65.1402 26.5537 65.1282 26.5732C65.1179 26.5901 65.0823 26.6458 65.0141 26.7139L63.1049 24.8047ZM61.3933 35.6211C61.3933 35.6942 61.3734 35.4665 61.6064 35.2335L63.5156 37.1427C63.9916 36.6667 64.0933 36.0609 64.0933 35.6211H61.3933ZM61.6064 35.2335C61.7458 35.0941 61.8871 35.0367 61.9598 35.0152C62.028 34.995 62.0548 35.0001 62.0143 35.0001V37.7001C62.3996 37.7001 63.0287 37.6296 63.5156 37.1427L61.6064 35.2335ZM62.0143 35.0001H59.0375V37.7001H62.0143V35.0001ZM59.0375 35.0001C58.9988 35.0001 59.0179 34.9954 59.0743 35.0115C59.1344 35.0287 59.2483 35.0733 59.3674 35.1791L57.5736 37.1971C58.0508 37.6213 58.6322 37.7001 59.0375 37.7001V35.0001ZM59.4795 35.2912C59.5853 35.4103 59.6299 35.5242 59.6471 35.5843C59.6632 35.6407 59.6585 35.6598 59.6585 35.6211H56.9585C56.9585 36.0264 57.0373 36.6078 57.4615 37.085L59.4795 35.2912ZM59.6585 35.6211V30.2751H56.9585V35.6211H59.6585ZM59.6585 30.2751C59.6585 29.9997 59.7005 29.6392 59.8062 29.1814L57.1753 28.5743C57.038 29.1695 56.9585 29.7405 56.9585 30.2751H59.6585ZM59.7984 29.2132C59.9166 28.7523 60.1005 28.1899 60.3583 27.5197L57.8382 26.5505C57.556 27.2843 57.3349 27.9504 57.1831 28.5425L59.7984 29.2132ZM60.3588 27.5182L62.1206 22.9215L59.5994 21.9552L57.8377 26.552L60.3588 27.5182ZM62.133 22.8877C62.1379 22.8739 62.1332 22.8927 62.1074 22.9285C62.0801 22.9665 62.036 23.0136 61.9733 23.0554L60.4757 20.8088C60.0154 21.1156 59.7405 21.554 59.587 21.989L62.133 22.8877ZM61.932 23.0818C61.8866 23.1098 61.8521 23.12 61.8412 23.1226C61.832 23.1248 61.8465 23.1201 61.8928 23.1201V20.4201C61.4487 20.4201 60.9617 20.5087 60.517 20.7824L61.932 23.0818ZM61.8928 23.1201H67.34V20.4201H61.8928V23.1201ZM67.34 23.1201C67.4132 23.1201 67.3391 23.1355 67.2189 23.0554L68.7166 20.8088C68.2724 20.5127 67.7798 20.4201 67.34 20.4201V23.1201ZM67.2602 23.0818C67.202 23.046 67.1545 23.001 67.1207 22.9565C67.0886 22.9143 67.0788 22.8858 67.0795 22.8877L69.6255 21.989C69.4611 21.5233 69.1596 21.0804 68.6753 20.7824L67.2602 23.0818ZM67.0919 22.9215L68.8537 27.5182L71.3748 26.552L69.6131 21.9552L67.0919 22.9215ZM68.8542 27.5197C69.1096 28.1837 69.2831 28.7351 69.3861 29.1814L72.0169 28.5743C71.8769 27.9676 71.6589 27.2905 71.3743 26.5505L68.8542 27.5197ZM69.3938 29.2132C69.5096 29.6648 69.554 30.0142 69.554 30.2751H72.254C72.254 29.726 72.1634 29.1439 72.0092 28.5425L69.3938 29.2132ZM69.554 30.2751V35.6211H72.254V30.2751H69.554ZM69.554 35.6211C69.554 35.6942 69.5341 35.4665 69.7672 35.2335L71.6763 37.1427C72.1524 36.6667 72.254 36.0609 72.254 35.6211H69.554ZM69.7672 35.2335C69.9066 35.0941 70.0479 35.0367 70.1205 35.0152C70.1887 34.995 70.2155 35.0001 70.175 35.0001V37.7001C70.5603 37.7001 71.1895 37.6296 71.6763 37.1427L69.7672 35.2335ZM70.175 35.0001H67.1173V37.7001H70.175V35.0001ZM67.1173 35.0001C67.0678 35.0001 67.0714 34.9947 67.1107 35.0052C67.1527 35.0164 67.247 35.049 67.3531 35.1339L65.6664 37.2423C66.1425 37.6232 66.703 37.7001 67.1173 37.7001V35.0001ZM67.4643 35.2335C67.6974 35.4665 67.6775 35.6942 67.6775 35.6211H64.9775C64.9775 36.0609 65.0791 36.6667 65.5552 37.1427L67.4643 35.2335ZM67.6775 35.6211V32.7861H64.9775V35.6211H67.6775ZM66.3275 31.4361H62.7433V34.1361H66.3275V31.4361ZM61.3933 32.7861V35.6211H64.0933V32.7861H61.3933ZM72.0272 36.1881L71.0182 37.085L71.071 37.1443L71.1304 37.1971L72.0272 36.1881ZM72.0272 32.6646L72.9818 33.6192L72.9818 33.6192L72.0272 32.6646ZM74.599 32.4823V33.8323H75.949V32.4823H74.599ZM74.599 25.6783H75.949V24.3283H74.599V25.6783ZM72.0272 25.5163L71.0182 26.4132L71.071 26.4726L71.1303 26.5253L72.0272 25.5163ZM72.0272 21.9523L71.0726 20.9978V20.9978L72.0272 21.9523ZM81.7675 21.9523L80.7585 22.8492L80.8112 22.9086L80.8706 22.9613L81.7675 21.9523ZM81.7675 25.5163L82.7221 26.4709V26.4709L81.7675 25.5163ZM79.2565 25.6783V24.3283H77.9065V25.6783H79.2565ZM79.2565 32.4823H77.9065V33.8323H79.2565V32.4823ZM81.7675 32.6646L80.7585 33.5615L80.8112 33.6208L80.8706 33.6736L81.7675 32.6646ZM81.7675 36.1881L82.7221 37.1427L82.7221 37.1427L81.7675 36.1881ZM72.5942 35.0001C72.5555 35.0001 72.5746 34.9954 72.631 35.0115C72.6912 35.0287 72.8051 35.0733 72.9241 35.1791L71.1304 37.1971C71.6075 37.6213 72.1889 37.7001 72.5942 37.7001V35.0001ZM73.0362 35.2912C73.1421 35.4103 73.1866 35.5242 73.2038 35.5843C73.2199 35.6407 73.2152 35.6598 73.2152 35.6211H70.5152C70.5152 36.0264 70.5941 36.6078 71.0182 37.085L73.0362 35.2912ZM73.2152 35.6211V33.2113H70.5152V35.6211H73.2152ZM73.2152 33.2113C73.2152 33.1708 73.2203 33.1976 73.2001 33.2658C73.1786 33.3385 73.1212 33.4798 72.9818 33.6192L71.0726 31.71C70.5858 32.1969 70.5152 32.826 70.5152 33.2113H73.2152ZM72.9818 33.6192C72.7488 33.8522 72.5211 33.8323 72.5942 33.8323V31.1323C72.1544 31.1323 71.5487 31.234 71.0726 31.71L72.9818 33.6192ZM72.5942 33.8323H74.599V31.1323H72.5942V33.8323ZM75.949 32.4823V25.6783H73.249V32.4823H75.949ZM74.599 24.3283H72.5942V27.0283H74.599V24.3283ZM72.5942 24.3283C72.5555 24.3283 72.5746 24.3237 72.631 24.3398C72.6912 24.357 72.8051 24.4015 72.9241 24.5073L71.1303 26.5253C71.6075 26.9495 72.1889 27.0283 72.5942 27.0283V24.3283ZM73.0362 24.6195C73.1421 24.7385 73.1866 24.8524 73.2038 24.9126C73.2199 24.9689 73.2152 24.9881 73.2152 24.9493H70.5152C70.5152 25.3547 70.5941 25.9361 71.0182 26.4132L73.0362 24.6195ZM73.2152 24.9493V22.4991H70.5152V24.9493H73.2152ZM73.2152 22.4991C73.2152 22.4586 73.2203 22.4854 73.2001 22.5536C73.1786 22.6262 73.1212 22.7675 72.9818 22.9069L71.0726 20.9978C70.5858 21.4846 70.5152 22.1138 70.5152 22.4991H73.2152ZM72.9818 22.9069C72.7488 23.14 72.5211 23.1201 72.5942 23.1201V20.4201C72.1544 20.4201 71.5487 20.5217 71.0726 20.9978L72.9818 22.9069ZM72.5942 23.1201H81.2207V20.4201H72.5942V23.1201ZM81.2207 23.1201C81.2494 23.1201 81.2068 23.1244 81.1229 23.0964C81.0307 23.0657 80.888 22.9949 80.7585 22.8492L82.7765 21.0555C82.2957 20.5146 81.6431 20.4201 81.2207 20.4201V23.1201ZM80.8706 22.9613C80.7249 22.8319 80.6542 22.6891 80.6235 22.5969C80.5955 22.513 80.5997 22.4704 80.5997 22.4991H83.2997C83.2997 22.0767 83.2053 21.4242 82.6644 20.9433L80.8706 22.9613ZM80.5997 22.4991V24.9493H83.2997V22.4991H80.5997ZM80.5997 24.9493C80.5997 25.0225 80.5799 24.7948 80.8129 24.5618L82.7221 26.4709C83.1981 25.9949 83.2997 25.3892 83.2997 24.9493H80.5997ZM80.8129 24.5618C80.9523 24.4223 81.0936 24.365 81.1663 24.3435C81.2345 24.3233 81.2613 24.3283 81.2207 24.3283V27.0283C81.606 27.0283 82.2352 26.9578 82.7221 26.4709L80.8129 24.5618ZM81.2207 24.3283H79.2565V27.0283H81.2207V24.3283ZM77.9065 25.6783V32.4823H80.6065V25.6783H77.9065ZM79.2565 33.8323H81.2207V31.1323H79.2565V33.8323ZM81.2207 33.8323C81.2494 33.8323 81.2068 33.8366 81.1229 33.8086C81.0307 33.7779 80.888 33.7072 80.7585 33.5615L82.7765 31.7677C82.2957 31.2268 81.6431 31.1323 81.2207 31.1323V33.8323ZM80.8706 33.6736C80.7249 33.5441 80.6542 33.4014 80.6235 33.3092C80.5955 33.2253 80.5997 33.1827 80.5997 33.2113H83.2997C83.2997 32.789 83.2053 32.1364 82.6644 31.6556L80.8706 33.6736ZM80.5997 33.2113V35.6211H83.2997V33.2113H80.5997ZM80.5997 35.6211C80.5997 35.6942 80.5799 35.4665 80.8129 35.2335L82.7221 37.1427C83.1981 36.6667 83.2997 36.0609 83.2997 35.6211H80.5997ZM80.8129 35.2335C80.9523 35.0941 81.0936 35.0367 81.1663 35.0152C81.2345 34.995 81.2613 35.0001 81.2207 35.0001V37.7001C81.606 37.7001 82.2352 37.6296 82.7221 37.1427L80.8129 35.2335ZM81.2207 35.0001H72.5942V37.7001H81.2207V35.0001ZM83.397 36.1881L82.388 37.085L82.4407 37.1443L82.5001 37.1971L83.397 36.1881ZM83.397 21.9523L82.4424 20.9978V20.9978L83.397 21.9523ZM87.7507 21.9118L86.9766 23.0178L87.0009 23.0348L87.0259 23.0508L87.7507 21.9118ZM88.1557 22.3776L89.3376 21.725L89.3324 21.7157L88.1557 22.3776ZM89.9782 25.6783L88.7964 26.3309L88.7981 26.334L89.9782 25.6783ZM90.1402 25.9416L89.0602 26.7516L89.1178 26.8284L89.1856 26.8962L90.1402 25.9416ZM90.7072 25.9416L89.7526 24.987L89.6848 25.0548L89.6272 25.1316L90.7072 25.9416ZM90.8895 25.6783L92.0696 26.334L92.0744 26.3253L90.8895 25.6783ZM92.6917 22.3776L91.5151 21.7157L91.5109 21.7232L91.5069 21.7306L92.6917 22.3776ZM93.0765 21.9118L92.3517 20.7729L92.3266 20.7889L92.3023 20.8059L93.0765 21.9118ZM97.4505 21.9523L96.4415 22.8492L96.4942 22.9086L96.5536 22.9614L97.4505 21.9523ZM97.4505 36.1881L98.4051 37.1427L97.4505 36.1881ZM93.2182 36.1881L92.2092 37.085L92.262 37.1443L92.3213 37.1971L93.2182 36.1881ZM93.0562 28.4931H94.4062L91.869 27.8505L93.0562 28.4931ZM91.8615 30.7003L90.6742 30.0577L90.6684 30.0687L91.8615 30.7003ZM91.416 31.2066L92.0962 32.3727L92.11 32.3647L92.1235 32.3563L91.416 31.2066ZM89.3302 31.2066L88.5814 32.3299L88.6343 32.3651L88.6902 32.3952L89.3302 31.2066ZM88.905 30.7003L90.0981 30.0687L90.0922 30.0577L88.905 30.7003ZM87.7102 28.4931L88.8975 27.8505L86.3602 28.4931H87.7102ZM87.528 36.1881L88.4826 37.1427L87.528 36.1881ZM86.9812 35.0001H83.964V37.7001H86.9812V35.0001ZM83.964 35.0001C83.9253 35.0001 83.9444 34.9954 84.0007 35.0115C84.0609 35.0287 84.1748 35.0733 84.2939 35.1791L82.5001 37.1971C82.9773 37.6213 83.5587 37.7001 83.964 37.7001V35.0001ZM84.406 35.2912C84.5118 35.4103 84.5563 35.5242 84.5735 35.5843C84.5896 35.6407 84.585 35.6598 84.585 35.6211H81.885C81.885 36.0264 81.9638 36.6078 82.388 37.085L84.406 35.2912ZM84.585 35.6211V22.4991H81.885V35.6211H84.585ZM84.585 22.4991C84.585 22.4586 84.5901 22.4854 84.5699 22.5536C84.5483 22.6262 84.491 22.7675 84.3516 22.9069L82.4424 20.9978C81.9555 21.4846 81.885 22.1138 81.885 22.4991H84.585ZM84.3516 22.9069C84.1186 23.14 83.8908 23.1201 83.964 23.1201V20.4201C83.5241 20.4201 82.9184 20.5217 82.4424 20.9978L84.3516 22.9069ZM83.964 23.1201H87.2242V20.4201H83.964V23.1201ZM87.2242 23.1201C87.2486 23.1201 87.1296 23.1249 86.9766 23.0178L88.5249 20.8059C88.1019 20.5098 87.6319 20.4201 87.2242 20.4201V23.1201ZM87.0259 23.0508C86.9739 23.0177 86.9484 22.9893 86.9446 22.985C86.9413 22.9812 86.9545 22.9957 86.9791 23.0395L89.3324 21.7157C89.1438 21.3804 88.8725 21.0255 88.4755 20.7729L87.0259 23.0508ZM86.9739 23.0301L88.7964 26.3309L91.1601 25.0258L89.3376 21.7251L86.9739 23.0301ZM88.7981 26.334C88.8711 26.4654 88.9617 26.6203 89.0602 26.7516L91.2202 25.1316C91.2284 25.1424 91.2319 25.148 91.2306 25.1459C91.2295 25.1443 91.2257 25.1385 91.2191 25.1278C91.2055 25.1057 91.1855 25.0715 91.1583 25.0227L88.7981 26.334ZM89.1856 26.8962C89.5094 27.2199 89.9278 27.3726 90.3427 27.3726V24.6726C90.4544 24.6726 90.5898 24.6917 90.7327 24.7489C90.8772 24.8067 90.9992 24.8914 91.0948 24.987L89.1856 26.8962ZM90.3427 27.3726H90.525V24.6726H90.3427V27.3726ZM90.525 27.3726C90.9354 27.3726 91.4394 27.2153 91.7872 26.7516L89.6272 25.1316C89.743 24.9773 89.8996 24.8502 90.083 24.7687C90.2586 24.6906 90.4169 24.6726 90.525 24.6726V27.3726ZM91.6618 26.8962C91.8492 26.7088 91.9823 26.4911 92.0696 26.334L89.7094 25.0227C89.7006 25.0384 89.6939 25.0499 89.6891 25.0577C89.6843 25.0656 89.6823 25.0683 89.6833 25.0669C89.6842 25.0656 89.6896 25.0578 89.6997 25.0454C89.7096 25.0332 89.7271 25.0125 89.7526 24.987L91.6618 26.8962ZM92.0744 26.3253L93.8766 23.0246L91.5069 21.7306L89.7046 25.0314L92.0744 26.3253ZM93.8684 23.0395C93.883 23.0135 93.8951 22.9942 93.9042 22.9805C93.9134 22.9668 93.9188 22.9602 93.9198 22.959C93.9209 22.9577 93.9164 22.9633 93.9057 22.9735C93.8949 22.9837 93.8768 22.9995 93.8507 23.0178L92.3023 20.8059C91.9393 21.06 91.6902 21.4045 91.5151 21.7157L93.8684 23.0395ZM93.8013 23.0508C93.7484 23.0844 93.6993 23.103 93.6633 23.1123C93.629 23.1212 93.6131 23.1201 93.6232 23.1201V20.4201C93.209 20.4201 92.7614 20.5122 92.3517 20.7729L93.8013 23.0508ZM93.6232 23.1201H96.9037V20.4201H93.6232V23.1201ZM96.9037 23.1201C96.9324 23.1201 96.8898 23.1244 96.8059 23.0964C96.7137 23.0657 96.571 22.9949 96.4415 22.8492L98.4595 21.0555C97.9787 20.5146 97.3261 20.4201 96.9037 20.4201V23.1201ZM96.5536 22.9614C96.4079 22.8319 96.3372 22.6891 96.3064 22.5969C96.2785 22.513 96.2827 22.4704 96.2827 22.4991H98.9827C98.9827 22.0767 98.8883 21.4242 98.3474 20.9433L96.5536 22.9614ZM96.2827 22.4991V35.6211H98.9827V22.4991H96.2827ZM96.2827 35.6211C96.2827 35.6942 96.2629 35.4665 96.4959 35.2335L98.4051 37.1427C98.8811 36.6667 98.9827 36.0609 98.9827 35.6211H96.2827ZM96.4959 35.2335C96.6353 35.0941 96.7766 35.0367 96.8493 35.0152C96.9175 34.995 96.9443 35.0001 96.9037 35.0001V37.7001C97.289 37.7001 97.9182 37.6296 98.4051 37.1427L96.4959 35.2335ZM96.9037 35.0001H93.7852V37.7001H96.9037V35.0001ZM93.7852 35.0001C93.7465 35.0001 93.7656 34.9954 93.822 35.0115C93.8822 35.0287 93.9961 35.0733 94.1151 35.1791L92.3213 37.1971C92.7985 37.6213 93.3799 37.7001 93.7852 37.7001V35.0001ZM94.2272 35.2912C94.3331 35.4103 94.3776 35.5242 94.3948 35.5843C94.4109 35.6407 94.4062 35.6598 94.4062 35.6211H91.7062C91.7062 36.0264 91.7851 36.6078 92.2092 37.085L94.2272 35.2912ZM94.4062 35.6211V28.4931H91.7062V35.6211H94.4062ZM91.869 27.8505L90.6743 30.0577L93.0487 31.343L94.2435 29.1357L91.869 27.8505ZM90.6684 30.0687C90.6496 30.1041 90.6401 30.1133 90.6455 30.1072C90.6519 30.1 90.6721 30.0792 90.7085 30.0569L92.1235 32.3563C92.5512 32.0932 92.8493 31.7197 93.0546 31.332L90.6684 30.0687ZM90.7358 30.0405C90.7897 30.0091 90.8292 29.9985 90.8402 29.9961C90.8499 29.9939 90.8352 29.9983 90.7882 29.9983V32.6983C91.1995 32.6983 91.6654 32.624 92.0962 32.3727L90.7358 30.0405ZM90.7882 29.9983H89.9782V32.6983H90.7882V29.9983ZM89.9782 29.9983C89.9319 29.9983 89.9119 29.994 89.9123 29.9941C89.9138 29.9944 89.9361 29.9996 89.9703 30.018L88.6902 32.3952C89.1108 32.6217 89.5607 32.6983 89.9782 32.6983V29.9983ZM90.0791 30.0833C90.1176 30.109 90.1353 30.1297 90.1361 30.1307C90.1365 30.1311 90.1329 30.1269 90.1261 30.1166C90.1193 30.1064 90.1098 30.0907 90.0981 30.0687L87.7119 31.332C87.9046 31.6961 88.1809 32.0628 88.5814 32.3299L90.0791 30.0833ZM90.0922 30.0577L88.8975 27.8505L86.523 29.1357L87.7178 31.343L90.0922 30.0577ZM86.3602 28.4931V35.6211H89.0602V28.4931H86.3602ZM86.3602 35.6211C86.3602 35.6942 86.3404 35.4665 86.5734 35.2335L88.4826 37.1427C88.9586 36.6667 89.0602 36.0609 89.0602 35.6211H86.3602ZM86.5734 35.2335C86.7128 35.0941 86.8541 35.0367 86.9268 35.0152C86.995 34.995 87.0218 35.0001 86.9812 35.0001V37.7001C87.3665 37.7001 87.9957 37.6296 88.4826 37.1427L86.5734 35.2335ZM99.3668 36.1881L98.3578 37.085L98.4106 37.1443L98.4699 37.1971L99.3668 36.1881ZM99.3668 21.9523L98.4122 20.9978V20.9978L99.3668 21.9523ZM109.877 21.9523L108.868 22.8492L108.92 22.9086L108.98 22.9614L109.877 21.9523ZM103.741 25.5973V24.2473H102.391V25.5973H103.741ZM103.741 27.1566H102.391V28.5066H103.741V27.1566ZM108.236 27.3388L107.227 28.2357L107.28 28.2951L107.339 28.3478L108.236 27.3388ZM108.236 30.6193L107.282 29.6648L108.236 30.6193ZM103.741 30.7813V29.4313H102.391V30.7813H103.741ZM103.741 32.5228H102.391V33.8728H103.741V32.5228ZM109.877 32.7051L108.868 33.602L108.92 33.6613L108.98 33.7141L109.877 32.7051ZM109.877 36.1881L110.831 37.1427L109.877 36.1881ZM109.33 35.0001H99.9338V37.7001H109.33V35.0001ZM99.9338 35.0001C99.8951 35.0001 99.9142 34.9954 99.9706 35.0115C100.031 35.0287 100.145 35.0733 100.264 35.1791L98.4699 37.1971C98.9471 37.6213 99.5285 37.7001 99.9338 37.7001V35.0001ZM100.376 35.2912C100.482 35.4103 100.526 35.5242 100.543 35.5843C100.559 35.6407 100.555 35.6598 100.555 35.6211H97.8548C97.8548 36.0264 97.9336 36.6078 98.3578 37.085L100.376 35.2912ZM100.555 35.6211V22.4991H97.8548V35.6211H100.555ZM100.555 22.4991C100.555 22.4586 100.56 22.4854 100.54 22.5536C100.518 22.6262 100.461 22.7675 100.321 22.9069L98.4122 20.9978C97.9253 21.4846 97.8548 22.1138 97.8548 22.4991H100.555ZM100.321 22.9069C100.088 23.14 99.8606 23.1201 99.9338 23.1201V20.4201C99.4939 20.4201 98.8882 20.5217 98.4122 20.9978L100.321 22.9069ZM99.9338 23.1201H109.33V20.4201H99.9338V23.1201ZM109.33 23.1201C109.358 23.1201 109.316 23.1244 109.232 23.0964C109.14 23.0657 108.997 22.9949 108.868 22.8492L110.886 21.0555C110.405 20.5146 109.752 20.4201 109.33 20.4201V23.1201ZM108.98 22.9614C108.834 22.8319 108.763 22.6891 108.733 22.5969C108.705 22.513 108.709 22.4704 108.709 22.4991H111.409C111.409 22.0767 111.314 21.4242 110.773 20.9433L108.98 22.9614ZM108.709 22.4991V24.8683H111.409V22.4991H108.709ZM108.709 24.8683C108.709 24.9415 108.689 24.7138 108.922 24.4808L110.831 26.3899C111.307 25.9139 111.409 25.3082 111.409 24.8683H108.709ZM108.922 24.4808C109.061 24.3413 109.203 24.284 109.275 24.2625C109.344 24.2423 109.37 24.2473 109.33 24.2473V26.9473C109.715 26.9473 110.344 26.8768 110.831 26.3899L108.922 24.4808ZM109.33 24.2473H103.741V26.9473H109.33V24.2473ZM102.391 25.5973V27.1566H105.091V25.5973H102.391ZM103.741 28.5066H107.69V25.8066H103.741V28.5066ZM107.69 28.5066C107.718 28.5066 107.676 28.5109 107.592 28.4829C107.5 28.4522 107.357 28.3814 107.227 28.2357L109.245 26.442C108.764 25.9011 108.112 25.8066 107.69 25.8066V28.5066ZM107.339 28.3478C107.194 28.2184 107.123 28.0756 107.092 27.9834C107.064 27.8995 107.069 27.8569 107.069 27.8856H109.769C109.769 27.4632 109.674 26.8107 109.133 26.3298L107.339 28.3478ZM107.069 27.8856V30.0523H109.769V27.8856H107.069ZM107.069 30.0523C107.069 30.1255 107.049 29.8978 107.282 29.6648L109.191 31.5739C109.667 31.0979 109.769 30.4922 109.769 30.0523H107.069ZM107.282 29.6648C107.421 29.5253 107.562 29.468 107.635 29.4465C107.703 29.4263 107.73 29.4313 107.69 29.4313V32.1313C108.075 32.1313 108.704 32.0608 109.191 31.5739L107.282 29.6648ZM107.69 29.4313H103.741V32.1313H107.69V29.4313ZM102.391 30.7813V32.5228H105.091V30.7813H102.391ZM103.741 33.8728H109.33V31.1728H103.741V33.8728ZM109.33 33.8728C109.358 33.8728 109.316 33.8771 109.232 33.8491C109.14 33.8184 108.997 33.7477 108.868 33.602L110.886 31.8082C110.405 31.2673 109.752 31.1728 109.33 31.1728V33.8728ZM108.98 33.7141C108.834 33.5846 108.763 33.4419 108.733 33.3497C108.705 33.2658 108.709 33.2232 108.709 33.2518H111.409C111.409 32.8295 111.314 32.1769 110.773 31.6961L108.98 33.7141ZM108.709 33.2518V35.6211H111.409V33.2518H108.709ZM108.709 35.6211C108.709 35.6942 108.689 35.4665 108.922 35.2335L110.831 37.1427C111.307 36.6667 111.409 36.0609 111.409 35.6211H108.709ZM108.922 35.2335C109.061 35.0941 109.203 35.0367 109.275 35.0152C109.344 34.995 109.37 35.0001 109.33 35.0001V37.7001C109.715 37.7001 110.344 37.6296 110.831 37.1427L108.922 35.2335ZM111.401 36.1881L110.392 37.085L110.445 37.1443L110.504 37.1971L111.401 36.1881ZM111.401 21.9523L110.447 20.9978V20.9978L111.401 21.9523ZM122.539 22.7826L121.675 23.8197L121.683 23.8267L122.539 22.7826ZM122.539 35.3376L121.683 34.2935L121.675 34.3005L122.539 35.3376ZM115.836 25.6378V24.2878H114.486V25.6378H115.836ZM115.836 32.5228H114.486V33.8728H115.836V32.5228ZM118.955 32.2798L118 31.3253L117.979 31.346L117.959 31.3676L118.955 32.2798ZM118.955 25.8808L117.959 26.7931L117.999 26.8363L118.042 26.876L118.955 25.8808ZM118.793 35.0001H111.968V37.7001H118.793V35.0001ZM111.968 35.0001C111.93 35.0001 111.949 34.9954 112.005 35.0115C112.065 35.0287 112.179 35.0733 112.298 35.1791L110.504 37.1971C110.982 37.6213 111.563 37.7001 111.968 37.7001V35.0001ZM112.41 35.2912C112.516 35.4103 112.561 35.5242 112.578 35.5843C112.594 35.6407 112.589 35.6598 112.589 35.6211H109.889C109.889 36.0264 109.968 36.6078 110.392 37.085L112.41 35.2912ZM112.589 35.6211V22.4991H109.889V35.6211H112.589ZM112.589 22.4991C112.589 22.4586 112.594 22.4854 112.574 22.5536C112.553 22.6262 112.495 22.7675 112.356 22.9069L110.447 20.9978C109.96 21.4846 109.889 22.1138 109.889 22.4991H112.589ZM112.356 22.9069C112.123 23.14 111.895 23.1201 111.968 23.1201V20.4201C111.528 20.4201 110.923 20.5217 110.447 20.9978L112.356 22.9069ZM111.968 23.1201H118.793V20.4201H111.968V23.1201ZM118.793 23.1201C120.342 23.1201 121.216 23.4372 121.675 23.8197L123.403 21.7455C122.242 20.778 120.618 20.4201 118.793 20.4201V23.1201ZM121.683 23.8267C122.101 24.169 122.424 24.7635 122.424 25.9011H125.124C125.124 24.2307 124.624 22.7462 123.395 21.7385L121.683 23.8267ZM122.424 25.9011V32.2191H125.124V25.9011H122.424ZM122.424 32.2191C122.424 33.3567 122.101 33.9512 121.683 34.2935L123.395 36.3817C124.624 35.374 125.124 33.8895 125.124 32.2191H122.424ZM121.675 34.3005C121.216 34.683 120.342 35.0001 118.793 35.0001V37.7001C120.618 37.7001 122.242 37.3422 123.403 36.3747L121.675 34.3005ZM114.486 25.6378V32.5228H117.186V25.6378H114.486ZM115.836 33.8728H118.246V31.1728H115.836V33.8728ZM118.246 33.8728C118.767 33.8728 119.445 33.7432 119.95 33.1921L117.959 31.3676C118.057 31.2608 118.162 31.2076 118.228 31.1851C118.286 31.1653 118.301 31.1728 118.246 31.1728V33.8728ZM119.909 33.2344C120.423 32.7208 120.548 32.0575 120.548 31.5306H117.848C117.848 31.5962 117.839 31.5963 117.853 31.5546C117.868 31.5063 117.909 31.4158 118 31.3253L119.909 33.2344ZM120.548 31.5306V26.6098H117.848V31.5306H120.548ZM120.548 26.6098C120.548 26.0951 120.428 25.3999 119.867 24.8857L118.042 26.876C117.928 26.7713 117.876 26.6613 117.856 26.6014C117.839 26.5494 117.848 26.5429 117.848 26.6098H120.548ZM119.95 24.9686C119.445 24.4175 118.767 24.2878 118.246 24.2878V26.9878C118.301 26.9878 118.286 26.9954 118.228 26.9756C118.162 26.9531 118.057 26.8999 117.959 26.7931L119.95 24.9686ZM118.246 24.2878H115.836V26.9878H118.246V24.2878Z" fill="black" mask="url(#path-8-outside-1_2531_1538)"/>
</g>
<defs>
<filter id="filter0_d_2531_1538" x="34.0239" y="21.77" width="89.7502" height="17.2801" filterUnits="userSpaceOnUse" color-interpolation-filters="sRGB">
<feFlood flood-opacity="0" result="BackgroundImageFix"/>
<feColorMatrix in="SourceAlpha" type="matrix" values="0 0 0 0 0 0 0 0 0 0 0 0 0 0 0 0 0 0 127 0" result="hardAlpha"/>
<feOffset dy="2.7"/>
<feComposite in2="hardAlpha" operator="out"/>
<feColorMatrix type="matrix" values="0 0 0 0 0 0 0 0 0 0 0 0 0 0 0 0 0 0 1 0"/>
<feBlend mode="normal" in2="BackgroundImageFix" result="effect1_dropShadow_2531_1538"/>
<feBlend mode="normal" in="SourceGraphic" in2="effect1_dropShadow_2531_1538" result="shape"/>
</filter>
<linearGradient id="paint0_linear_2531_1538" x1="81.0999" y1="49.614" x2="81.0999" y2="61.1854" gradientUnits="userSpaceOnUse">
<stop stop-color="#0D6816"/>
<stop offset="1" stop-color="#007320"/>
</linearGradient>
<linearGradient id="paint1_linear_2531_1538" x1="59.3999" y1="54.4504" x2="59.3999" y2="3.15039" gradientUnits="userSpaceOnUse">
<stop stop-color="#E6F6E8"/>
<stop offset="1" stop-color="#95FE93"/>
</linearGradient>
<linearGradient id="paint2_linear_2531_1538" x1="6.19995" y1="7.00753" x2="20.4675" y2="17.2284" gradientUnits="userSpaceOnUse">
<stop stop-color="white"/>
<stop offset="1" stop-color="white" stop-opacity="0"/>
</linearGradient>
<linearGradient id="paint3_linear_2531_1538" x1="98.2514" y1="13.4712" x2="98.2514" y2="39.2518" gradientUnits="userSpaceOnUse">
<stop stop-color="#5CFA00"/>
<stop offset="1" stop-color="#399900"/>
</linearGradient>
</defs>
</svg>
