<svg width="66" height="72" viewBox="0 0 66 72" fill="none" xmlns="http://www.w3.org/2000/svg">
<rect width="66" height="72" rx="16.6153" fill="black"/>
<rect x="3.21948" y="5.53857" width="59.561" height="62.7692" rx="14.7692" fill="url(#paint0_linear_2531_1142)"/>
<rect x="3.21948" y="3.69238" width="59.561" height="60.9231" rx="12.923" fill="url(#paint1_linear_2531_1142)"/>
<rect x="3.21948" y="3.69238" width="59.561" height="60.9231" rx="12.923" fill="url(#paint2_linear_2531_1142)"/>
<rect x="6.43896" y="7.38477" width="53.1219" height="53.5385" rx="11.0769" fill="url(#paint3_linear_2531_1142)"/>
<ellipse cx="2.90149" cy="1.99141" rx="2.90149" ry="1.99141" transform="matrix(0.73474 -0.678349 0.574531 0.818483 6.43896 11.3213)" fill="#FFFEE2"/>
<ellipse cx="2.90149" cy="1.99141" rx="2.90149" ry="1.99141" transform="matrix(0.73474 -0.678349 0.574531 0.818483 53.1218 57.4751)" fill="#FFE638"/>
<g filter="url(#filter0_d_2531_1142)">
<mask id="path-8-outside-1_2531_1142" maskUnits="userSpaceOnUse" x="8" y="29" width="52" height="13" fill="black">
<rect fill="white" x="8" y="29" width="52" height="13"/>
<path d="M12.0763 41H9.84131C9.65131 41 9.51131 40.96 9.42131 40.88C9.34131 40.79 9.30131 40.65 9.30131 40.46V30.74C9.30131 30.55 9.34131 30.415 9.42131 30.335C9.51131 30.245 9.65131 30.2 9.84131 30.2H12.2563C12.4163 30.2 12.5463 30.235 12.6463 30.305C12.7563 30.375 12.8563 30.49 12.9463 30.65L14.2963 33.095C14.3463 33.185 14.3863 33.25 14.4163 33.29C14.4563 33.33 14.5063 33.35 14.5663 33.35H14.7013C14.7613 33.35 14.8063 33.33 14.8363 33.29C14.8763 33.25 14.9213 33.185 14.9713 33.095L16.3063 30.65C16.3963 30.49 16.4913 30.375 16.5913 30.305C16.7013 30.235 16.8363 30.2 16.9963 30.2H19.4263C19.6163 30.2 19.7513 30.245 19.8313 30.335C19.9213 30.415 19.9663 30.55 19.9663 30.74V40.46C19.9663 40.65 19.9213 40.79 19.8313 40.88C19.7513 40.96 19.6163 41 19.4263 41H17.1163C16.9263 41 16.7863 40.96 16.6963 40.88C16.6163 40.79 16.5763 40.65 16.5763 40.46V35.18L15.6913 36.815C15.6013 36.985 15.4913 37.11 15.3613 37.19C15.2413 37.26 15.0863 37.295 14.8963 37.295H14.2963C14.1063 37.295 13.9463 37.26 13.8163 37.19C13.6963 37.11 13.5913 36.985 13.5013 36.815L12.6163 35.18V40.46C12.6163 40.65 12.5713 40.79 12.4813 40.88C12.4013 40.96 12.2663 41 12.0763 41ZM21.4308 41C21.2408 41 21.1008 40.96 21.0108 40.88C20.9308 40.79 20.8908 40.65 20.8908 40.46V38.675C20.8908 38.485 20.9308 38.35 21.0108 38.27C21.1008 38.18 21.2408 38.135 21.4308 38.135H22.9158V33.095H21.4308C21.2408 33.095 21.1008 33.055 21.0108 32.975C20.9308 32.885 20.8908 32.745 20.8908 32.555V30.74C20.8908 30.55 20.9308 30.415 21.0108 30.335C21.1008 30.245 21.2408 30.2 21.4308 30.2H27.8208C28.0108 30.2 28.1458 30.245 28.2258 30.335C28.3158 30.415 28.3608 30.55 28.3608 30.74V32.555C28.3608 32.745 28.3158 32.885 28.2258 32.975C28.1458 33.055 28.0108 33.095 27.8208 33.095H26.3658V38.135H27.8208C28.0108 38.135 28.1458 38.18 28.2258 38.27C28.3158 38.35 28.3608 38.485 28.3608 38.675V40.46C28.3608 40.65 28.3158 40.79 28.2258 40.88C28.1458 40.96 28.0108 41 27.8208 41H21.4308ZM32.1028 41H29.8528C29.6628 41 29.5228 40.96 29.4328 40.88C29.3528 40.79 29.3128 40.65 29.3128 40.46V30.74C29.3128 30.55 29.3528 30.415 29.4328 30.335C29.5228 30.245 29.6628 30.2 29.8528 30.2H31.4128C31.6028 30.2 31.7628 30.23 31.8928 30.29C32.0328 30.35 32.1678 30.455 32.2978 30.605L35.2078 33.935V30.74C35.2078 30.55 35.2478 30.415 35.3278 30.335C35.4178 30.245 35.5578 30.2 35.7478 30.2H37.9978C38.1878 30.2 38.3228 30.245 38.4028 30.335C38.4928 30.415 38.5378 30.55 38.5378 30.74V40.46C38.5378 40.65 38.4928 40.79 38.4028 40.88C38.3228 40.96 38.1878 41 37.9978 41H35.7478C35.5578 41 35.4178 40.96 35.3278 40.88C35.2478 40.79 35.2078 40.65 35.2078 40.46V38.615L32.6428 35.51V40.46C32.6428 40.65 32.5978 40.79 32.5078 40.88C32.4278 40.96 32.2928 41 32.1028 41ZM47.2068 41H40.2468C40.0568 41 39.9168 40.96 39.8268 40.88C39.7468 40.79 39.7068 40.65 39.7068 40.46V30.74C39.7068 30.55 39.7468 30.415 39.8268 30.335C39.9168 30.245 40.0568 30.2 40.2468 30.2H47.2068C47.3968 30.2 47.5318 30.245 47.6118 30.335C47.7018 30.415 47.7468 30.55 47.7468 30.74V32.495C47.7468 32.685 47.7018 32.825 47.6118 32.915C47.5318 32.995 47.3968 33.035 47.2068 33.035H43.0668V34.19H45.9918C46.1818 34.19 46.3168 34.235 46.3968 34.325C46.4868 34.405 46.5318 34.54 46.5318 34.73V36.335C46.5318 36.525 46.4868 36.665 46.3968 36.755C46.3168 36.835 46.1818 36.875 45.9918 36.875H43.0668V38.165H47.2068C47.3968 38.165 47.5318 38.21 47.6118 38.3C47.7018 38.38 47.7468 38.515 47.7468 38.705V40.46C47.7468 40.65 47.7018 40.79 47.6118 40.88C47.5318 40.96 47.3968 41 47.2068 41ZM52.0112 32.9V34.82H53.1362C53.3962 34.82 53.5712 34.755 53.6612 34.625C53.7512 34.485 53.7962 34.315 53.7962 34.115V33.605C53.7962 33.405 53.7512 33.24 53.6612 33.11C53.5712 32.97 53.3962 32.9 53.1362 32.9H52.0112ZM51.4712 41H49.1612C48.9712 41 48.8312 40.96 48.7412 40.88C48.6612 40.79 48.6212 40.65 48.6212 40.46V30.74C48.6212 30.55 48.6612 30.415 48.7412 30.335C48.8312 30.245 48.9712 30.2 49.1612 30.2H54.1562C55.2762 30.2 56.0462 30.435 56.4662 30.905C56.8962 31.365 57.1112 31.965 57.1112 32.705V33.395C57.1112 33.815 57.0462 34.175 56.9162 34.475C56.7962 34.765 56.5812 34.975 56.2712 35.105C56.8112 35.165 57.2462 35.385 57.5762 35.765C57.9162 36.145 58.0862 36.65 58.0862 37.28V40.46C58.0862 40.65 58.0412 40.79 57.9512 40.88C57.8712 40.96 57.7362 41 57.5462 41H55.2212C55.0312 41 54.8912 40.96 54.8012 40.88C54.7212 40.79 54.6812 40.65 54.6812 40.46V38.165C54.6812 37.945 54.6362 37.785 54.5462 37.685C54.4662 37.575 54.3212 37.52 54.1112 37.52H52.0112V40.46C52.0112 40.65 51.9662 40.79 51.8762 40.88C51.7962 40.96 51.6612 41 51.4712 41Z"/>
</mask>
<path d="M12.0763 41H9.84131C9.65131 41 9.51131 40.96 9.42131 40.88C9.34131 40.79 9.30131 40.65 9.30131 40.46V30.74C9.30131 30.55 9.34131 30.415 9.42131 30.335C9.51131 30.245 9.65131 30.2 9.84131 30.2H12.2563C12.4163 30.2 12.5463 30.235 12.6463 30.305C12.7563 30.375 12.8563 30.49 12.9463 30.65L14.2963 33.095C14.3463 33.185 14.3863 33.25 14.4163 33.29C14.4563 33.33 14.5063 33.35 14.5663 33.35H14.7013C14.7613 33.35 14.8063 33.33 14.8363 33.29C14.8763 33.25 14.9213 33.185 14.9713 33.095L16.3063 30.65C16.3963 30.49 16.4913 30.375 16.5913 30.305C16.7013 30.235 16.8363 30.2 16.9963 30.2H19.4263C19.6163 30.2 19.7513 30.245 19.8313 30.335C19.9213 30.415 19.9663 30.55 19.9663 30.74V40.46C19.9663 40.65 19.9213 40.79 19.8313 40.88C19.7513 40.96 19.6163 41 19.4263 41H17.1163C16.9263 41 16.7863 40.96 16.6963 40.88C16.6163 40.79 16.5763 40.65 16.5763 40.46V35.18L15.6913 36.815C15.6013 36.985 15.4913 37.11 15.3613 37.19C15.2413 37.26 15.0863 37.295 14.8963 37.295H14.2963C14.1063 37.295 13.9463 37.26 13.8163 37.19C13.6963 37.11 13.5913 36.985 13.5013 36.815L12.6163 35.18V40.46C12.6163 40.65 12.5713 40.79 12.4813 40.88C12.4013 40.96 12.2663 41 12.0763 41ZM21.4308 41C21.2408 41 21.1008 40.96 21.0108 40.88C20.9308 40.79 20.8908 40.65 20.8908 40.46V38.675C20.8908 38.485 20.9308 38.35 21.0108 38.27C21.1008 38.18 21.2408 38.135 21.4308 38.135H22.9158V33.095H21.4308C21.2408 33.095 21.1008 33.055 21.0108 32.975C20.9308 32.885 20.8908 32.745 20.8908 32.555V30.74C20.8908 30.55 20.9308 30.415 21.0108 30.335C21.1008 30.245 21.2408 30.2 21.4308 30.2H27.8208C28.0108 30.2 28.1458 30.245 28.2258 30.335C28.3158 30.415 28.3608 30.55 28.3608 30.74V32.555C28.3608 32.745 28.3158 32.885 28.2258 32.975C28.1458 33.055 28.0108 33.095 27.8208 33.095H26.3658V38.135H27.8208C28.0108 38.135 28.1458 38.18 28.2258 38.27C28.3158 38.35 28.3608 38.485 28.3608 38.675V40.46C28.3608 40.65 28.3158 40.79 28.2258 40.88C28.1458 40.96 28.0108 41 27.8208 41H21.4308ZM32.1028 41H29.8528C29.6628 41 29.5228 40.96 29.4328 40.88C29.3528 40.79 29.3128 40.65 29.3128 40.46V30.74C29.3128 30.55 29.3528 30.415 29.4328 30.335C29.5228 30.245 29.6628 30.2 29.8528 30.2H31.4128C31.6028 30.2 31.7628 30.23 31.8928 30.29C32.0328 30.35 32.1678 30.455 32.2978 30.605L35.2078 33.935V30.74C35.2078 30.55 35.2478 30.415 35.3278 30.335C35.4178 30.245 35.5578 30.2 35.7478 30.2H37.9978C38.1878 30.2 38.3228 30.245 38.4028 30.335C38.4928 30.415 38.5378 30.55 38.5378 30.74V40.46C38.5378 40.65 38.4928 40.79 38.4028 40.88C38.3228 40.96 38.1878 41 37.9978 41H35.7478C35.5578 41 35.4178 40.96 35.3278 40.88C35.2478 40.79 35.2078 40.65 35.2078 40.46V38.615L32.6428 35.51V40.46C32.6428 40.65 32.5978 40.79 32.5078 40.88C32.4278 40.96 32.2928 41 32.1028 41ZM47.2068 41H40.2468C40.0568 41 39.9168 40.96 39.8268 40.88C39.7468 40.79 39.7068 40.65 39.7068 40.46V30.74C39.7068 30.55 39.7468 30.415 39.8268 30.335C39.9168 30.245 40.0568 30.2 40.2468 30.2H47.2068C47.3968 30.2 47.5318 30.245 47.6118 30.335C47.7018 30.415 47.7468 30.55 47.7468 30.74V32.495C47.7468 32.685 47.7018 32.825 47.6118 32.915C47.5318 32.995 47.3968 33.035 47.2068 33.035H43.0668V34.19H45.9918C46.1818 34.19 46.3168 34.235 46.3968 34.325C46.4868 34.405 46.5318 34.54 46.5318 34.73V36.335C46.5318 36.525 46.4868 36.665 46.3968 36.755C46.3168 36.835 46.1818 36.875 45.9918 36.875H43.0668V38.165H47.2068C47.3968 38.165 47.5318 38.21 47.6118 38.3C47.7018 38.38 47.7468 38.515 47.7468 38.705V40.46C47.7468 40.65 47.7018 40.79 47.6118 40.88C47.5318 40.96 47.3968 41 47.2068 41ZM52.0112 32.9V34.82H53.1362C53.3962 34.82 53.5712 34.755 53.6612 34.625C53.7512 34.485 53.7962 34.315 53.7962 34.115V33.605C53.7962 33.405 53.7512 33.24 53.6612 33.11C53.5712 32.97 53.3962 32.9 53.1362 32.9H52.0112ZM51.4712 41H49.1612C48.9712 41 48.8312 40.96 48.7412 40.88C48.6612 40.79 48.6212 40.65 48.6212 40.46V30.74C48.6212 30.55 48.6612 30.415 48.7412 30.335C48.8312 30.245 48.9712 30.2 49.1612 30.2H54.1562C55.2762 30.2 56.0462 30.435 56.4662 30.905C56.8962 31.365 57.1112 31.965 57.1112 32.705V33.395C57.1112 33.815 57.0462 34.175 56.9162 34.475C56.7962 34.765 56.5812 34.975 56.2712 35.105C56.8112 35.165 57.2462 35.385 57.5762 35.765C57.9162 36.145 58.0862 36.65 58.0862 37.28V40.46C58.0862 40.65 58.0412 40.79 57.9512 40.88C57.8712 40.96 57.7362 41 57.5462 41H55.2212C55.0312 41 54.8912 40.96 54.8012 40.88C54.7212 40.79 54.6812 40.65 54.6812 40.46V38.165C54.6812 37.945 54.6362 37.785 54.5462 37.685C54.4662 37.575 54.3212 37.52 54.1112 37.52H52.0112V40.46C52.0112 40.65 51.9662 40.79 51.8762 40.88C51.7962 40.96 51.6612 41 51.4712 41Z" fill="white"/>
<path d="M9.42131 40.88L8.6739 41.5444L8.71298 41.5883L8.75694 41.6274L9.42131 40.88ZM9.42131 30.335L8.7142 29.6279L8.7142 29.6279L9.42131 30.335ZM12.6463 30.305L12.0728 31.1242L12.0909 31.1368L12.1094 31.1487L12.6463 30.305ZM12.9463 30.65L13.8218 30.1666L13.8179 30.1597L12.9463 30.65ZM14.2963 33.095L13.4209 33.5784L13.4222 33.5806L14.2963 33.095ZM14.4163 33.29L13.6163 33.89L13.659 33.9469L13.7092 33.9971L14.4163 33.29ZM14.8363 33.29L14.1292 32.5829L14.079 32.6331L14.0363 32.69L14.8363 33.29ZM14.9713 33.095L15.8455 33.5807L15.849 33.5742L14.9713 33.095ZM16.3063 30.65L15.4347 30.1597L15.4286 30.1708L16.3063 30.65ZM16.5913 30.305L16.0544 29.4613L16.0359 29.4731L16.0178 29.4858L16.5913 30.305ZM19.8313 30.335L19.0839 30.9994L19.123 31.0433L19.1669 31.0824L19.8313 30.335ZM19.8313 40.88L20.5384 41.5871L20.5384 41.5871L19.8313 40.88ZM16.6963 40.88L15.9489 41.5444L15.988 41.5883L16.0319 41.6274L16.6963 40.88ZM16.5763 35.18H17.5763L15.6969 34.704L16.5763 35.18ZM15.6913 36.815L14.8118 36.339L14.8075 36.3471L15.6913 36.815ZM15.3613 37.19L15.8652 38.0538L15.8754 38.0478L15.8854 38.0417L15.3613 37.19ZM13.8163 37.19L13.2616 38.022L13.3008 38.0482L13.3422 38.0705L13.8163 37.19ZM13.5013 36.815L14.3851 36.3471L14.3807 36.339L13.5013 36.815ZM12.6163 35.18L13.4957 34.704L11.6163 35.18H12.6163ZM12.4813 40.88L13.1884 41.5871L13.1884 41.5871L12.4813 40.88ZM12.0763 40H9.84131V42H12.0763V40ZM9.84131 40C9.81263 40 9.82679 39.9966 9.86853 40.0085C9.91311 40.0212 9.99749 40.0542 10.0857 40.1326L8.75694 41.6274C9.1104 41.9416 9.54108 42 9.84131 42V40ZM10.1687 40.2156C10.2471 40.3038 10.2801 40.3882 10.2928 40.4328C10.3048 40.4745 10.3013 40.4887 10.3013 40.46H8.30131C8.30131 40.7602 8.35971 41.1909 8.6739 41.5444L10.1687 40.2156ZM10.3013 40.46V30.74H8.30131V40.46H10.3013ZM10.3013 30.74C10.3013 30.71 10.3051 30.7298 10.2901 30.7803C10.2742 30.8342 10.2317 30.9388 10.1284 31.0421L8.7142 29.6279C8.35355 29.9885 8.30131 30.4546 8.30131 30.74H10.3013ZM10.1284 31.0421C9.95581 31.2147 9.78712 31.2 9.84131 31.2V29.2C9.51549 29.2 9.0668 29.2753 8.7142 29.6279L10.1284 31.0421ZM9.84131 31.2H12.2563V29.2H9.84131V31.2ZM12.2563 31.2C12.2743 31.2 12.1862 31.2036 12.0728 31.1242L13.2198 29.4858C12.9064 29.2664 12.5583 29.2 12.2563 29.2V31.2ZM12.1094 31.1487C12.0709 31.1241 12.052 31.1031 12.0492 31.0999C12.0467 31.0971 12.0565 31.1078 12.0747 31.1403L13.8179 30.1597C13.6782 29.9114 13.4772 29.6485 13.1832 29.4613L12.1094 31.1487ZM12.0709 31.1334L13.4209 33.5784L15.1717 32.6116L13.8217 30.1666L12.0709 31.1334ZM13.4222 33.5806C13.4762 33.678 13.5433 33.7927 13.6163 33.89L15.2163 32.69C15.2223 32.698 15.225 32.7021 15.224 32.7006C15.2232 32.6994 15.2204 32.6951 15.2155 32.6872C15.2054 32.6708 15.1906 32.6455 15.1705 32.6094L13.4222 33.5806ZM13.7092 33.9971C13.949 34.2369 14.2589 34.35 14.5663 34.35V32.35C14.649 32.35 14.7493 32.3642 14.8552 32.4065C14.9622 32.4493 15.0526 32.512 15.1234 32.5829L13.7092 33.9971ZM14.5663 34.35H14.7013V32.35H14.5663V34.35ZM14.7013 34.35C15.0053 34.35 15.3787 34.2335 15.6363 33.89L14.0363 32.69C14.122 32.5757 14.238 32.4816 14.3739 32.4212C14.504 32.3634 14.6213 32.35 14.7013 32.35V34.35ZM15.5434 33.9971C15.6822 33.8583 15.7808 33.697 15.8455 33.5806L14.0972 32.6094C14.0907 32.621 14.0857 32.6295 14.0821 32.6353C14.0786 32.6411 14.0771 32.6431 14.0779 32.642C14.0785 32.6411 14.0825 32.6354 14.09 32.6261C14.0973 32.6171 14.1103 32.6018 14.1292 32.5829L15.5434 33.9971ZM15.849 33.5742L17.184 31.1292L15.4286 30.1708L14.0936 32.6158L15.849 33.5742ZM17.1779 31.1403C17.1887 31.121 17.1977 31.1067 17.2045 31.0966C17.2113 31.0865 17.2153 31.0815 17.216 31.0806C17.2168 31.0797 17.2134 31.0839 17.2055 31.0914C17.1975 31.099 17.1841 31.1107 17.1648 31.1242L16.0178 29.4858C15.749 29.674 15.5644 29.9292 15.4347 30.1597L17.1779 31.1403ZM17.1282 31.1487C17.089 31.1736 17.0527 31.1873 17.026 31.1942C17.0006 31.2008 16.9888 31.2 16.9963 31.2V29.2C16.6895 29.2 16.3579 29.2682 16.0544 29.4613L17.1282 31.1487ZM16.9963 31.2H19.4263V29.2H16.9963V31.2ZM19.4263 31.2C19.4475 31.2 19.416 31.2032 19.3538 31.1824C19.2856 31.1597 19.1798 31.1073 19.0839 30.9994L20.5787 29.6706C20.2226 29.27 19.7392 29.2 19.4263 29.2V31.2ZM19.1669 31.0824C19.059 30.9865 19.0066 30.8808 18.9839 30.8125C18.9632 30.7503 18.9663 30.7188 18.9663 30.74H20.9663C20.9663 30.4271 20.8963 29.9437 20.4957 29.5876L19.1669 31.0824ZM18.9663 30.74V40.46H20.9663V30.74H18.9663ZM18.9663 40.46C18.9663 40.5142 18.9516 40.3455 19.1242 40.1729L20.5384 41.5871C20.891 41.2345 20.9663 40.7858 20.9663 40.46H18.9663ZM19.1242 40.1729C19.2275 40.0696 19.3322 40.0271 19.386 40.0112C19.4365 39.9962 19.4563 40 19.4263 40V42C19.7117 42 20.1778 41.9478 20.5384 41.5871L19.1242 40.1729ZM19.4263 40H17.1163V42H19.4263V40ZM17.1163 40C17.0876 40 17.1018 39.9966 17.1435 40.0085C17.1881 40.0212 17.2725 40.0542 17.3607 40.1326L16.0319 41.6274C16.3854 41.9416 16.8161 42 17.1163 42V40ZM17.4437 40.2156C17.5221 40.3038 17.5551 40.3882 17.5678 40.4328C17.5798 40.4745 17.5763 40.4887 17.5763 40.46H15.5763C15.5763 40.7602 15.6347 41.1909 15.9489 41.5444L17.4437 40.2156ZM17.5763 40.46V35.18H15.5763V40.46H17.5763ZM15.6969 34.704L14.8119 36.339L16.5707 37.291L17.4557 35.656L15.6969 34.704ZM14.8075 36.3471C14.7936 36.3733 14.7866 36.3802 14.7906 36.3756C14.7953 36.3703 14.8103 36.3549 14.8372 36.3383L15.8854 38.0417C16.2022 37.8467 16.423 37.5701 16.5751 37.2829L14.8075 36.3471ZM14.8574 36.3262C14.8974 36.3029 14.9267 36.2951 14.9348 36.2933C14.942 36.2917 14.9311 36.295 14.8963 36.295V38.295C15.2009 38.295 15.5461 38.2399 15.8652 38.0538L14.8574 36.3262ZM14.8963 36.295H14.2963V38.295H14.8963V36.295ZM14.2963 36.295C14.262 36.295 14.2472 36.2918 14.2475 36.2919C14.2486 36.2921 14.2651 36.2959 14.2904 36.3095L13.3422 38.0705C13.6538 38.2382 13.987 38.295 14.2963 38.295V36.295ZM14.371 36.358C14.3996 36.377 14.4126 36.3923 14.4133 36.3931C14.4135 36.3934 14.4109 36.3902 14.4058 36.3826C14.4008 36.375 14.3937 36.3634 14.3851 36.3471L12.6175 37.2829C12.7603 37.5526 12.9649 37.8243 13.2616 38.022L14.371 36.358ZM14.3807 36.339L13.4957 34.704L11.7369 35.656L12.6219 37.291L14.3807 36.339ZM11.6163 35.18V40.46H13.6163V35.18H11.6163ZM11.6163 40.46C11.6163 40.5142 11.6016 40.3455 11.7742 40.1729L13.1884 41.5871C13.541 41.2345 13.6163 40.7858 13.6163 40.46H11.6163ZM11.7742 40.1729C11.8775 40.0696 11.9822 40.0271 12.036 40.0112C12.0865 39.9962 12.1063 40 12.0763 40V42C12.3617 42 12.8278 41.9478 13.1884 41.5871L11.7742 40.1729ZM21.0108 40.88L20.2634 41.5444L20.3025 41.5883L20.3464 41.6274L21.0108 40.88ZM21.0108 38.27L21.7179 38.9771L21.7179 38.9771L21.0108 38.27ZM22.9158 38.135V39.135H23.9158V38.135H22.9158ZM22.9158 33.095H23.9158V32.095H22.9158V33.095ZM21.0108 32.975L20.2634 33.6394L20.3025 33.6833L20.3464 33.7224L21.0108 32.975ZM21.0108 30.335L20.3037 29.6279L20.3037 29.6279L21.0108 30.335ZM28.2258 30.335L27.4784 30.9994L27.5175 31.0433L27.5614 31.0824L28.2258 30.335ZM28.2258 32.975L28.9329 33.6821L28.9329 33.6821L28.2258 32.975ZM26.3658 33.095V32.095H25.3658V33.095H26.3658ZM26.3658 38.135H25.3658V39.135H26.3658V38.135ZM28.2258 38.27L27.4784 38.9344L27.5175 38.9783L27.5614 39.0174L28.2258 38.27ZM28.2258 40.88L28.9329 41.5871L28.9329 41.5871L28.2258 40.88ZM21.4308 40C21.4021 40 21.4163 39.9966 21.458 40.0085C21.5026 40.0212 21.587 40.0542 21.6752 40.1326L20.3464 41.6274C20.6999 41.9416 21.1306 42 21.4308 42V40ZM21.7582 40.2156C21.8366 40.3038 21.8696 40.3882 21.8823 40.4328C21.8942 40.4745 21.8908 40.4887 21.8908 40.46H19.8908C19.8908 40.7602 19.9492 41.1909 20.2634 41.5444L21.7582 40.2156ZM21.8908 40.46V38.675H19.8908V40.46H21.8908ZM21.8908 38.675C21.8908 38.645 21.8946 38.6648 21.8796 38.7153C21.8637 38.7692 21.8212 38.8738 21.7179 38.9771L20.3037 37.5629C19.943 37.9235 19.8908 38.3896 19.8908 38.675H21.8908ZM21.7179 38.9771C21.5453 39.1497 21.3766 39.135 21.4308 39.135V37.135C21.105 37.135 20.6563 37.2103 20.3037 37.5629L21.7179 38.9771ZM21.4308 39.135H22.9158V37.135H21.4308V39.135ZM23.9158 38.135V33.095H21.9158V38.135H23.9158ZM22.9158 32.095H21.4308V34.095H22.9158V32.095ZM21.4308 32.095C21.4021 32.095 21.4163 32.0916 21.458 32.1035C21.5026 32.1162 21.587 32.1492 21.6752 32.2276L20.3464 33.7224C20.6999 34.0366 21.1306 34.095 21.4308 34.095V32.095ZM21.7582 32.3106C21.8366 32.3988 21.8696 32.4832 21.8823 32.5278C21.8942 32.5695 21.8908 32.5837 21.8908 32.555H19.8908C19.8908 32.8552 19.9492 33.2859 20.2634 33.6394L21.7582 32.3106ZM21.8908 32.555V30.74H19.8908V32.555H21.8908ZM21.8908 30.74C21.8908 30.71 21.8946 30.7298 21.8796 30.7803C21.8637 30.8342 21.8212 30.9388 21.7179 31.0421L20.3037 29.6279C19.943 29.9885 19.8908 30.4546 19.8908 30.74H21.8908ZM21.7179 31.0421C21.5453 31.2147 21.3766 31.2 21.4308 31.2V29.2C21.105 29.2 20.6563 29.2753 20.3037 29.6279L21.7179 31.0421ZM21.4308 31.2H27.8208V29.2H21.4308V31.2ZM27.8208 31.2C27.842 31.2 27.8105 31.2032 27.7483 31.1824C27.68 31.1597 27.5743 31.1073 27.4784 30.9994L28.9732 29.6706C28.6171 29.27 28.1337 29.2 27.8208 29.2V31.2ZM27.5614 31.0824C27.4535 30.9865 27.4011 30.8808 27.3784 30.8125C27.3576 30.7503 27.3608 30.7188 27.3608 30.74H29.3608C29.3608 30.4271 29.2908 29.9437 28.8902 29.5876L27.5614 31.0824ZM27.3608 30.74V32.555H29.3608V30.74H27.3608ZM27.3608 32.555C27.3608 32.6092 27.3461 32.4405 27.5187 32.2679L28.9329 33.6821C29.2855 33.3295 29.3608 32.8808 29.3608 32.555H27.3608ZM27.5187 32.2679C27.622 32.1646 27.7266 32.1221 27.7805 32.1062C27.831 32.0912 27.8508 32.095 27.8208 32.095V34.095C28.1062 34.095 28.5723 34.0428 28.9329 33.6821L27.5187 32.2679ZM27.8208 32.095H26.3658V34.095H27.8208V32.095ZM25.3658 33.095V38.135H27.3658V33.095H25.3658ZM26.3658 39.135H27.8208V37.135H26.3658V39.135ZM27.8208 39.135C27.842 39.135 27.8105 39.1382 27.7483 39.1174C27.68 39.0947 27.5743 39.0423 27.4784 38.9344L28.9732 37.6056C28.6171 37.205 28.1337 37.135 27.8208 37.135V39.135ZM27.5614 39.0174C27.4535 38.9215 27.4011 38.8158 27.3784 38.7475C27.3576 38.6853 27.3608 38.6538 27.3608 38.675H29.3608C29.3608 38.3621 29.2908 37.8787 28.8902 37.5226L27.5614 39.0174ZM27.3608 38.675V40.46H29.3608V38.675H27.3608ZM27.3608 40.46C27.3608 40.5142 27.3461 40.3455 27.5187 40.1729L28.9329 41.5871C29.2855 41.2345 29.3608 40.7858 29.3608 40.46H27.3608ZM27.5187 40.1729C27.622 40.0696 27.7266 40.0271 27.7805 40.0112C27.831 39.9962 27.8508 40 27.8208 40V42C28.1062 42 28.5723 41.9478 28.9329 41.5871L27.5187 40.1729ZM27.8208 40H21.4308V42H27.8208V40ZM29.4328 40.88L28.6854 41.5444L28.7245 41.5883L28.7685 41.6274L29.4328 40.88ZM29.4328 30.335L28.7257 29.6279V29.6279L29.4328 30.335ZM31.8928 30.29L31.4738 31.198L31.4863 31.2037L31.4989 31.2091L31.8928 30.29ZM32.2978 30.605L31.5421 31.2599L31.5448 31.263L32.2978 30.605ZM35.2078 33.935L34.4548 34.593L36.2078 36.599V33.935H35.2078ZM38.4028 30.335L37.6554 30.9994L37.6945 31.0433L37.7385 31.0824L38.4028 30.335ZM38.4028 40.88L37.6957 40.1729L37.6957 40.1729L38.4028 40.88ZM35.3278 40.88L34.5804 41.5444L34.6195 41.5883L34.6635 41.6274L35.3278 40.88ZM35.2078 38.615H36.2078V38.2554L35.9788 37.9781L35.2078 38.615ZM32.6428 35.51L33.4138 34.8731L31.6428 32.7293V35.51H32.6428ZM32.5078 40.88L31.8007 40.1729H31.8007L32.5078 40.88ZM32.1028 40H29.8528V42H32.1028V40ZM29.8528 40C29.8242 40 29.8383 39.9966 29.8801 40.0085C29.9246 40.0212 30.009 40.0542 30.0972 40.1326L28.7685 41.6274C29.1219 41.9416 29.5526 42 29.8528 42V40ZM30.1802 40.2156C30.2586 40.3038 30.2916 40.3882 30.3044 40.4328C30.3163 40.4745 30.3128 40.4887 30.3128 40.46H28.3128C28.3128 40.7602 28.3712 41.1909 28.6854 41.5444L30.1802 40.2156ZM30.3128 40.46V30.74H28.3128V40.46H30.3128ZM30.3128 30.74C30.3128 30.71 30.3166 30.7298 30.3016 30.7803C30.2857 30.8342 30.2432 30.9388 30.1399 31.0421L28.7257 29.6279C28.3651 29.9885 28.3128 30.4546 28.3128 30.74H30.3128ZM30.1399 31.0421C29.9673 31.2147 29.7986 31.2 29.8528 31.2V29.2C29.527 29.2 29.0783 29.2753 28.7257 29.6279L30.1399 31.0421ZM29.8528 31.2H31.4128V29.2H29.8528V31.2ZM31.4128 31.2C31.456 31.2 31.4809 31.2035 31.491 31.2054C31.5008 31.2072 31.493 31.2069 31.4738 31.198L32.3119 29.382C32.015 29.245 31.7025 29.2 31.4128 29.2V31.2ZM31.4989 31.2091C31.4814 31.2016 31.477 31.1968 31.4851 31.2031C31.4937 31.2098 31.5133 31.2266 31.5421 31.2599L33.0535 29.9501C32.8533 29.7191 32.6013 29.5057 32.2868 29.3709L31.4989 31.2091ZM31.5448 31.263L34.4548 34.593L35.9608 33.277L33.0508 29.947L31.5448 31.263ZM36.2078 33.935V30.74H34.2078V33.935H36.2078ZM36.2078 30.74C36.2078 30.71 36.2116 30.7298 36.1966 30.7803C36.1807 30.8342 36.1382 30.9388 36.0349 31.0421L34.6207 29.6279C34.2601 29.9885 34.2078 30.4546 34.2078 30.74H36.2078ZM36.0349 31.0421C35.8623 31.2147 35.6936 31.2 35.7478 31.2V29.2C35.422 29.2 34.9733 29.2753 34.6207 29.6279L36.0349 31.0421ZM35.7478 31.2H37.9978V29.2H35.7478V31.2ZM37.9978 31.2C38.0191 31.2 37.9875 31.2032 37.9254 31.1824C37.8571 31.1597 37.7513 31.1073 37.6554 30.9994L39.1502 29.6706C38.7941 29.27 38.3107 29.2 37.9978 29.2V31.2ZM37.7385 31.0824C37.6306 30.9865 37.5782 30.8808 37.5554 30.8125C37.5347 30.7503 37.5378 30.7188 37.5378 30.74H39.5378C39.5378 30.4271 39.4679 29.9437 39.0672 29.5876L37.7385 31.0824ZM37.5378 30.74V40.46H39.5378V30.74H37.5378ZM37.5378 40.46C37.5378 40.5142 37.5231 40.3455 37.6957 40.1729L39.1099 41.5871C39.4625 41.2345 39.5378 40.7858 39.5378 40.46H37.5378ZM37.6957 40.1729C37.799 40.0696 37.9037 40.0271 37.9575 40.0112C38.008 39.9962 38.0279 40 37.9978 40V42C38.2832 42 38.7493 41.9478 39.1099 41.5871L37.6957 40.1729ZM37.9978 40H35.7478V42H37.9978V40ZM35.7478 40C35.7192 40 35.7333 39.9966 35.7751 40.0085C35.8196 40.0212 35.904 40.0542 35.9922 40.1326L34.6635 41.6274C35.0169 41.9416 35.4476 42 35.7478 42V40ZM36.0752 40.2156C36.1536 40.3038 36.1866 40.3882 36.1994 40.4328C36.2113 40.4745 36.2078 40.4887 36.2078 40.46H34.2078C34.2078 40.7602 34.2662 41.1909 34.5804 41.5444L36.0752 40.2156ZM36.2078 40.46V38.615H34.2078V40.46H36.2078ZM35.9788 37.9781L33.4138 34.8731L31.8719 36.1469L34.4369 39.2519L35.9788 37.9781ZM31.6428 35.51V40.46H33.6428V35.51H31.6428ZM31.6428 40.46C31.6428 40.5142 31.6281 40.3455 31.8007 40.1729L33.2149 41.5871C33.5675 41.2345 33.6428 40.7858 33.6428 40.46H31.6428ZM31.8007 40.1729C31.904 40.0696 32.0087 40.0271 32.0625 40.0112C32.113 39.9962 32.1329 40 32.1028 40V42C32.3882 42 32.8543 41.9478 33.2149 41.5871L31.8007 40.1729ZM39.8268 40.88L39.0794 41.5444L39.1184 41.5883L39.1624 41.6274L39.8268 40.88ZM39.8268 30.335L39.1197 29.6279V29.6279L39.8268 30.335ZM47.6118 30.335L46.8644 30.9994L46.9034 31.0433L46.9474 31.0824L47.6118 30.335ZM43.0668 33.035V32.035H42.0668V33.035H43.0668ZM43.0668 34.19H42.0668V35.19H43.0668V34.19ZM46.3968 34.325L45.6494 34.9894L45.6884 35.0333L45.7324 35.0724L46.3968 34.325ZM46.3968 36.755L45.6897 36.0479L46.3968 36.755ZM43.0668 36.875V35.875H42.0668V36.875H43.0668ZM43.0668 38.165H42.0668V39.165H43.0668V38.165ZM47.6118 38.3L46.8644 38.9644L46.9034 39.0083L46.9474 39.0474L47.6118 38.3ZM47.6118 40.88L48.3189 41.5871V41.5871L47.6118 40.88ZM47.2068 40H40.2468V42H47.2068V40ZM40.2468 40C40.2181 40 40.2323 39.9966 40.274 40.0085C40.3186 40.0212 40.403 40.0542 40.4911 40.1326L39.1624 41.6274C39.5159 41.9416 39.9465 42 40.2468 42V40ZM40.5742 40.2156C40.6526 40.3038 40.6856 40.3882 40.6983 40.4328C40.7102 40.4745 40.7068 40.4887 40.7068 40.46H38.7068C38.7068 40.7602 38.7652 41.1909 39.0794 41.5444L40.5742 40.2156ZM40.7068 40.46V30.74H38.7068V40.46H40.7068ZM40.7068 30.74C40.7068 30.71 40.7105 30.7298 40.6956 30.7803C40.6796 30.8342 40.6371 30.9388 40.5339 31.0421L39.1197 29.6279C38.759 29.9885 38.7068 30.4546 38.7068 30.74H40.7068ZM40.5339 31.0421C40.3613 31.2147 40.1926 31.2 40.2468 31.2V29.2C39.921 29.2 39.4723 29.2753 39.1197 29.6279L40.5339 31.0421ZM40.2468 31.2H47.2068V29.2H40.2468V31.2ZM47.2068 31.2C47.228 31.2 47.1965 31.2032 47.1343 31.1824C47.066 31.1597 46.9603 31.1073 46.8644 30.9994L48.3592 29.6706C48.003 29.27 47.5197 29.2 47.2068 29.2V31.2ZM46.9474 31.0824C46.8395 30.9865 46.7871 30.8808 46.7643 30.8125C46.7436 30.7503 46.7468 30.7188 46.7468 30.74H48.7468C48.7468 30.4271 48.6768 29.9437 48.2761 29.5876L46.9474 31.0824ZM46.7468 30.74V32.495H48.7468V30.74H46.7468ZM46.7468 32.495C46.7468 32.5492 46.7321 32.3805 46.9047 32.2079L48.3189 33.6221C48.6715 33.2695 48.7468 32.8208 48.7468 32.495H46.7468ZM46.9047 32.2079C47.0079 32.1046 47.1126 32.0621 47.1664 32.0462C47.2169 32.0312 47.2368 32.035 47.2068 32.035V34.035C47.4922 34.035 47.9582 33.9828 48.3189 33.6221L46.9047 32.2079ZM47.2068 32.035H43.0668V34.035H47.2068V32.035ZM42.0668 33.035V34.19H44.0668V33.035H42.0668ZM43.0668 35.19H45.9918V33.19H43.0668V35.19ZM45.9918 35.19C46.013 35.19 45.9815 35.1932 45.9193 35.1724C45.851 35.1497 45.7453 35.0973 45.6494 34.9894L47.1442 33.6606C46.788 33.26 46.3047 33.19 45.9918 33.19V35.19ZM45.7324 35.0724C45.6245 34.9765 45.5721 34.8708 45.5493 34.8025C45.5286 34.7403 45.5318 34.7088 45.5318 34.73H47.5318C47.5318 34.4171 47.4618 33.9337 47.0611 33.5776L45.7324 35.0724ZM45.5318 34.73V36.335H47.5318V34.73H45.5318ZM45.5318 36.335C45.5318 36.3892 45.5171 36.2205 45.6897 36.0479L47.1039 37.4621C47.4565 37.1095 47.5318 36.6608 47.5318 36.335H45.5318ZM45.6897 36.0479C45.7929 35.9446 45.8976 35.9021 45.9514 35.8862C46.0019 35.8712 46.0218 35.875 45.9918 35.875V37.875C46.2772 37.875 46.7432 37.8228 47.1039 37.4621L45.6897 36.0479ZM45.9918 35.875H43.0668V37.875H45.9918V35.875ZM42.0668 36.875V38.165H44.0668V36.875H42.0668ZM43.0668 39.165H47.2068V37.165H43.0668V39.165ZM47.2068 39.165C47.228 39.165 47.1965 39.1682 47.1343 39.1474C47.066 39.1247 46.9603 39.0723 46.8644 38.9644L48.3592 37.6356C48.003 37.235 47.5197 37.165 47.2068 37.165V39.165ZM46.9474 39.0474C46.8395 38.9515 46.7871 38.8458 46.7643 38.7775C46.7436 38.7153 46.7468 38.6838 46.7468 38.705H48.7468C48.7468 38.3921 48.6768 37.9087 48.2761 37.5526L46.9474 39.0474ZM46.7468 38.705V40.46H48.7468V38.705H46.7468ZM46.7468 40.46C46.7468 40.5142 46.7321 40.3455 46.9047 40.1729L48.3189 41.5871C48.6715 41.2345 48.7468 40.7858 48.7468 40.46H46.7468ZM46.9047 40.1729C47.0079 40.0696 47.1126 40.0271 47.1664 40.0112C47.2169 39.9962 47.2368 40 47.2068 40V42C47.4922 42 47.9582 41.9478 48.3189 41.5871L46.9047 40.1729ZM52.0112 32.9V31.9H51.0112V32.9H52.0112ZM52.0112 34.82H51.0112V35.82H52.0112V34.82ZM53.6612 34.625L54.4834 35.1942L54.4932 35.1801L54.5024 35.1658L53.6612 34.625ZM53.6612 33.11L52.8201 33.6508L52.8293 33.6651L52.839 33.6792L53.6612 33.11ZM48.7412 40.88L47.9938 41.5444L48.0329 41.5883L48.0769 41.6274L48.7412 40.88ZM48.7412 30.335L48.0341 29.6279V29.6279L48.7412 30.335ZM56.4662 30.905L55.7206 31.5713L55.728 31.5797L55.7357 31.5879L56.4662 30.905ZM56.9162 34.475L55.9987 34.0774L55.9954 34.085L55.9922 34.0926L56.9162 34.475ZM56.2712 35.105L55.8845 34.1828L52.3303 35.6733L56.1608 36.0989L56.2712 35.105ZM57.5762 35.765L56.8212 36.4207L56.8261 36.4263L56.831 36.4318L57.5762 35.765ZM57.9512 40.88L58.6583 41.5871L58.6583 41.5871L57.9512 40.88ZM54.8012 40.88L54.0538 41.5444L54.0929 41.5883L54.1369 41.6274L54.8012 40.88ZM54.5462 37.685L53.7375 38.2732L53.7681 38.3153L53.8029 38.354L54.5462 37.685ZM52.0112 37.52V36.52H51.0112V37.52H52.0112ZM51.8762 40.88L51.1691 40.1729L51.8762 40.88ZM51.0112 32.9V34.82H53.0112V32.9H51.0112ZM52.0112 35.82H53.1362V33.82H52.0112V35.82ZM53.1362 35.82C53.5106 35.82 54.1113 35.7317 54.4834 35.1942L52.839 34.0558C52.9305 33.9237 53.0454 33.8594 53.1143 33.8338C53.1726 33.8122 53.1906 33.82 53.1362 33.82V35.82ZM54.5024 35.1658C54.7154 34.8345 54.7962 34.4677 54.7962 34.115H52.7962C52.7962 34.1402 52.7934 34.1456 52.7958 34.1366C52.797 34.1321 52.7993 34.1246 52.8035 34.1151C52.8076 34.1055 52.8131 34.095 52.8201 34.0842L54.5024 35.1658ZM54.7962 34.115V33.605H52.7962V34.115H54.7962ZM54.7962 33.605C54.7962 33.2556 54.7165 32.8775 54.4834 32.5408L52.839 33.6792C52.8144 33.6437 52.8026 33.6123 52.7977 33.5944C52.7933 33.5781 52.7962 33.5793 52.7962 33.605H54.7962ZM54.5024 32.5692C54.1414 32.0076 53.5361 31.9 53.1362 31.9V33.9C53.184 33.9 53.1573 33.9075 53.0911 33.881C53.0121 33.8494 52.9021 33.7784 52.8201 33.6508L54.5024 32.5692ZM53.1362 31.9H52.0112V33.9H53.1362V31.9ZM51.4712 40H49.1612V42H51.4712V40ZM49.1612 40C49.1326 40 49.1467 39.9966 49.1885 40.0085C49.233 40.0212 49.3174 40.0542 49.4056 40.1326L48.0769 41.6274C48.4303 41.9416 48.861 42 49.1612 42V40ZM49.4886 40.2156C49.567 40.3038 49.6 40.3882 49.6128 40.4328C49.6247 40.4745 49.6212 40.4887 49.6212 40.46H47.6212C47.6212 40.7602 47.6796 41.1909 47.9938 41.5444L49.4886 40.2156ZM49.6212 40.46V30.74H47.6212V40.46H49.6212ZM49.6212 30.74C49.6212 30.71 49.625 30.7298 49.61 30.7803C49.5941 30.8342 49.5516 30.9388 49.4483 31.0421L48.0341 29.6279C47.6735 29.9885 47.6212 30.4546 47.6212 30.74H49.6212ZM49.4483 31.0421C49.2757 31.2147 49.107 31.2 49.1612 31.2V29.2C48.8354 29.2 48.3867 29.2753 48.0341 29.6279L49.4483 31.0421ZM49.1612 31.2H54.1562V29.2H49.1612V31.2ZM54.1562 31.2C55.1983 31.2 55.5944 31.4301 55.7206 31.5713L57.2119 30.2387C56.4981 29.4399 55.3542 29.2 54.1562 29.2V31.2ZM55.7357 31.5879C55.9627 31.8307 56.1112 32.1712 56.1112 32.705H58.1112C58.1112 31.7588 57.8298 30.8993 57.1968 30.2221L55.7357 31.5879ZM56.1112 32.705V33.395H58.1112V32.705H56.1112ZM56.1112 33.395C56.1112 33.7156 56.0612 33.9331 55.9987 34.0774L57.8338 34.8726C58.0313 34.4169 58.1112 33.9144 58.1112 33.395H56.1112ZM55.9922 34.0926C55.9807 34.1204 55.9703 34.1468 55.8845 34.1828L56.658 36.0272C57.1921 35.8032 57.6117 35.4096 57.8402 34.8574L55.9922 34.0926ZM56.1608 36.0989C56.4727 36.1335 56.6697 36.2462 56.8212 36.4207L58.3313 35.1093C57.8228 34.5238 57.1497 34.1965 56.3817 34.1111L56.1608 36.0989ZM56.831 36.4318C56.9707 36.5879 57.0862 36.8356 57.0862 37.28H59.0862C59.0862 36.4644 58.8618 35.7021 58.3215 35.0982L56.831 36.4318ZM57.0862 37.28V40.46H59.0862V37.28H57.0862ZM57.0862 40.46C57.0862 40.5142 57.0715 40.3455 57.2441 40.1729L58.6583 41.5871C59.0109 41.2345 59.0862 40.7858 59.0862 40.46H57.0862ZM57.2441 40.1729C57.3474 40.0696 57.4521 40.0271 57.5059 40.0112C57.5564 39.9962 57.5763 40 57.5462 40V42C57.8316 42 58.2977 41.9478 58.6583 41.5871L57.2441 40.1729ZM57.5462 40H55.2212V42H57.5462V40ZM55.2212 40C55.1926 40 55.2067 39.9966 55.2485 40.0085C55.293 40.0212 55.3774 40.0542 55.4656 40.1326L54.1369 41.6274C54.4903 41.9416 54.921 42 55.2212 42V40ZM55.5486 40.2156C55.627 40.3038 55.66 40.3882 55.6728 40.4328C55.6847 40.4745 55.6812 40.4887 55.6812 40.46H53.6812C53.6812 40.7602 53.7396 41.1909 54.0538 41.5444L55.5486 40.2156ZM55.6812 40.46V38.165H53.6812V40.46H55.6812ZM55.6812 38.165C55.6812 37.8453 55.6222 37.3857 55.2895 37.016L53.8029 38.354C53.7239 38.2661 53.6943 38.1845 53.6848 38.1507C53.676 38.1195 53.6812 38.1189 53.6812 38.165H55.6812ZM55.355 37.0968C55.0017 36.6111 54.4619 36.52 54.1112 36.52V38.52C54.1352 38.52 54.0959 38.524 54.0228 38.4962C53.9397 38.4647 53.8274 38.3967 53.7375 38.2732L55.355 37.0968ZM54.1112 36.52H52.0112V38.52H54.1112V36.52ZM51.0112 37.52V40.46H53.0112V37.52H51.0112ZM51.0112 40.46C51.0112 40.5142 50.9965 40.3455 51.1691 40.1729L52.5833 41.5871C52.9359 41.2345 53.0112 40.7858 53.0112 40.46H51.0112ZM51.1691 40.1729C51.2724 40.0696 51.3771 40.0271 51.4309 40.0112C51.4814 39.9962 51.5013 40 51.4712 40V42C51.7566 42 52.2227 41.9478 52.5833 41.5871L51.1691 40.1729Z" fill="black" mask="url(#path-8-outside-1_2531_1142)"/>
</g>
<defs>
<filter id="filter0_d_2531_1142" x="9.30127" y="30.2002" width="48.7849" height="12.7998" filterUnits="userSpaceOnUse" color-interpolation-filters="sRGB">
<feFlood flood-opacity="0" result="BackgroundImageFix"/>
<feColorMatrix in="SourceAlpha" type="matrix" values="0 0 0 0 0 0 0 0 0 0 0 0 0 0 0 0 0 0 127 0" result="hardAlpha"/>
<feOffset dy="2"/>
<feComposite in2="hardAlpha" operator="out"/>
<feColorMatrix type="matrix" values="0 0 0 0 0 0 0 0 0 0 0 0 0 0 0 0 0 0 1 0"/>
<feBlend mode="normal" in2="BackgroundImageFix" result="effect1_dropShadow_2531_1142"/>
<feBlend mode="normal" in="SourceGraphic" in2="effect1_dropShadow_2531_1142" result="shape"/>
</filter>
<linearGradient id="paint0_linear_2531_1142" x1="34.103" y1="56.6507" x2="34.1029" y2="70.1012" gradientUnits="userSpaceOnUse">
<stop stop-color="#DB8400"/>
<stop offset="1" stop-color="#B94100"/>
</linearGradient>
<linearGradient id="paint1_linear_2531_1142" x1="25.5548" y1="64.6155" x2="25.5548" y2="3.69238" gradientUnits="userSpaceOnUse">
<stop stop-color="#FFDE00"/>
<stop offset="1" stop-color="#FFE636"/>
</linearGradient>
<linearGradient id="paint2_linear_2531_1142" x1="4.59821" y1="8.04403" x2="12.602" y2="10.046" gradientUnits="userSpaceOnUse">
<stop stop-color="white"/>
<stop offset="1" stop-color="white" stop-opacity="0"/>
</linearGradient>
<linearGradient id="paint3_linear_2531_1142" x1="40.4064" y1="15.1565" x2="40.4064" y2="47.1069" gradientUnits="userSpaceOnUse">
<stop stop-color="#FFDC02"/>
<stop offset="1" stop-color="#FFBB00"/>
</linearGradient>
</defs>
</svg>
