<svg width="252" height="72" viewBox="0 0 252 72" fill="none" xmlns="http://www.w3.org/2000/svg">
<rect width="252" height="72" rx="16.6153" fill="black"/>
<rect x="3.21948" y="5.53857" width="245.561" height="62.7692" rx="14.7692" fill="url(#paint0_linear_2531_1592)"/>
<rect x="3.21948" y="3.69238" width="245.561" height="60.9231" rx="12.923" fill="url(#paint1_linear_2531_1592)"/>
<rect x="3.21948" y="3.69238" width="245.561" height="60.9231" rx="12.923" fill="url(#paint2_linear_2531_1592)"/>
<rect x="6.43896" y="7.38477" width="239.122" height="53.5385" rx="11.0769" fill="url(#paint3_linear_2531_1592)"/>
<ellipse cx="2.90149" cy="1.99141" rx="2.90149" ry="1.99141" transform="matrix(0.73474 -0.678349 0.574531 0.818483 6.43896 11.3213)" fill="#FFFEE2"/>
<ellipse cx="2.90149" cy="1.99141" rx="2.90149" ry="1.99141" transform="matrix(0.734739 -0.67835 0.57453 0.818483 239.122 57.4751)" fill="#FFE638"/>
<g filter="url(#filter0_d_2531_1592)">
<mask id="path-8-outside-1_2531_1592" maskUnits="userSpaceOnUse" x="86" y="23" width="81" height="22" fill="black">
<rect fill="white" x="86" y="23" width="81" height="22"/>
<path d="M100.627 43H94.7712C92.7712 43 91.2832 42.6 90.3072 41.8C89.3472 41 88.8672 39.768 88.8672 38.104V30.64C88.8672 28.976 89.3472 27.744 90.3072 26.944C91.2832 26.128 92.7712 25.72 94.7712 25.72H100.627C100.931 25.72 101.147 25.792 101.275 25.936C101.419 26.064 101.491 26.28 101.491 26.584V29.488C101.491 29.792 101.419 30.016 101.275 30.16C101.147 30.288 100.931 30.352 100.627 30.352H95.8032C95.3072 30.352 94.9392 30.456 94.6992 30.664C94.4592 30.856 94.3392 31.152 94.3392 31.552V37.264C94.3392 37.664 94.4592 37.96 94.6992 38.152C94.9392 38.328 95.3072 38.416 95.8032 38.416H100.627C100.931 38.416 101.147 38.488 101.275 38.632C101.419 38.76 101.491 38.976 101.491 39.28V42.136C101.491 42.44 101.419 42.664 101.275 42.808C101.147 42.936 100.931 43 100.627 43ZM108.905 30.04V33.112H110.705C111.121 33.112 111.401 33.008 111.545 32.8C111.689 32.576 111.761 32.304 111.761 31.984V31.168C111.761 30.848 111.689 30.584 111.545 30.376C111.401 30.152 111.121 30.04 110.705 30.04H108.905ZM108.041 43H104.345C104.041 43 103.817 42.936 103.673 42.808C103.545 42.664 103.481 42.44 103.481 42.136V26.584C103.481 26.28 103.545 26.064 103.673 25.936C103.817 25.792 104.041 25.72 104.345 25.72H112.337C114.129 25.72 115.361 26.096 116.033 26.848C116.721 27.584 117.065 28.544 117.065 29.728V30.832C117.065 31.504 116.961 32.08 116.753 32.56C116.561 33.024 116.217 33.36 115.721 33.568C116.585 33.664 117.281 34.016 117.809 34.624C118.353 35.232 118.625 36.04 118.625 37.048V42.136C118.625 42.44 118.553 42.664 118.409 42.808C118.281 42.936 118.065 43 117.761 43H114.041C113.737 43 113.513 42.936 113.369 42.808C113.241 42.664 113.177 42.44 113.177 42.136V38.464C113.177 38.112 113.105 37.856 112.961 37.696C112.833 37.52 112.601 37.432 112.265 37.432H108.905V42.136C108.905 42.44 108.833 42.664 108.689 42.808C108.561 42.936 108.345 43 108.041 43ZM132.597 43H121.461C121.157 43 120.933 42.936 120.789 42.808C120.661 42.664 120.597 42.44 120.597 42.136V26.584C120.597 26.28 120.661 26.064 120.789 25.936C120.933 25.792 121.157 25.72 121.461 25.72H132.597C132.901 25.72 133.117 25.792 133.245 25.936C133.389 26.064 133.461 26.28 133.461 26.584V29.392C133.461 29.696 133.389 29.92 133.245 30.064C133.117 30.192 132.901 30.256 132.597 30.256H125.973V32.104H130.653C130.957 32.104 131.173 32.176 131.301 32.32C131.445 32.448 131.517 32.664 131.517 32.968V35.536C131.517 35.84 131.445 36.064 131.301 36.208C131.173 36.336 130.957 36.4 130.653 36.4H125.973V38.464H132.597C132.901 38.464 133.117 38.536 133.245 38.68C133.389 38.808 133.461 39.024 133.461 39.328V42.136C133.461 42.44 133.389 42.664 133.245 42.808C133.117 42.936 132.901 43 132.597 43ZM141.845 30.76L140.717 34.408H144.485L143.357 30.76C143.293 30.616 143.221 30.512 143.141 30.448C143.077 30.384 142.997 30.352 142.901 30.352H142.301C142.205 30.352 142.117 30.384 142.037 30.448C141.973 30.512 141.909 30.616 141.845 30.76ZM140.477 42.136C140.477 42.44 140.405 42.664 140.261 42.808C140.133 42.936 139.917 43 139.613 43H136.085C135.781 43 135.557 42.936 135.413 42.808C135.285 42.664 135.221 42.44 135.221 42.136V35.8C135.221 35.32 135.293 34.768 135.437 34.144C135.597 33.52 135.837 32.792 136.157 31.96L138.245 26.512C138.341 26.24 138.485 26.04 138.677 25.912C138.885 25.784 139.149 25.72 139.469 25.72H145.925C146.229 25.72 146.477 25.784 146.669 25.912C146.877 26.04 147.029 26.24 147.125 26.512L149.213 31.96C149.533 32.792 149.765 33.52 149.909 34.144C150.069 34.768 150.149 35.32 150.149 35.8V42.136C150.149 42.44 150.077 42.664 149.933 42.808C149.805 42.936 149.589 43 149.285 43H145.661C145.341 43 145.101 42.936 144.941 42.808C144.797 42.664 144.725 42.44 144.725 42.136V38.776H140.477V42.136ZM159.591 43H155.703C155.399 43 155.175 42.936 155.031 42.808C154.903 42.664 154.839 42.44 154.839 42.136V30.352H151.311C151.007 30.352 150.783 30.288 150.639 30.16C150.511 30.016 150.447 29.792 150.447 29.488V26.584C150.447 26.28 150.511 26.064 150.639 25.936C150.783 25.792 151.007 25.72 151.311 25.72H163.983C164.287 25.72 164.503 25.792 164.631 25.936C164.775 26.064 164.847 26.28 164.847 26.584V29.488C164.847 29.792 164.775 30.016 164.631 30.16C164.503 30.288 164.287 30.352 163.983 30.352H160.455V42.136C160.455 42.44 160.383 42.664 160.239 42.808C160.111 42.936 159.895 43 159.591 43Z"/>
</mask>
<path d="M100.627 43H94.7712C92.7712 43 91.2832 42.6 90.3072 41.8C89.3472 41 88.8672 39.768 88.8672 38.104V30.64C88.8672 28.976 89.3472 27.744 90.3072 26.944C91.2832 26.128 92.7712 25.72 94.7712 25.72H100.627C100.931 25.72 101.147 25.792 101.275 25.936C101.419 26.064 101.491 26.28 101.491 26.584V29.488C101.491 29.792 101.419 30.016 101.275 30.16C101.147 30.288 100.931 30.352 100.627 30.352H95.8032C95.3072 30.352 94.9392 30.456 94.6992 30.664C94.4592 30.856 94.3392 31.152 94.3392 31.552V37.264C94.3392 37.664 94.4592 37.96 94.6992 38.152C94.9392 38.328 95.3072 38.416 95.8032 38.416H100.627C100.931 38.416 101.147 38.488 101.275 38.632C101.419 38.76 101.491 38.976 101.491 39.28V42.136C101.491 42.44 101.419 42.664 101.275 42.808C101.147 42.936 100.931 43 100.627 43ZM108.905 30.04V33.112H110.705C111.121 33.112 111.401 33.008 111.545 32.8C111.689 32.576 111.761 32.304 111.761 31.984V31.168C111.761 30.848 111.689 30.584 111.545 30.376C111.401 30.152 111.121 30.04 110.705 30.04H108.905ZM108.041 43H104.345C104.041 43 103.817 42.936 103.673 42.808C103.545 42.664 103.481 42.44 103.481 42.136V26.584C103.481 26.28 103.545 26.064 103.673 25.936C103.817 25.792 104.041 25.72 104.345 25.72H112.337C114.129 25.72 115.361 26.096 116.033 26.848C116.721 27.584 117.065 28.544 117.065 29.728V30.832C117.065 31.504 116.961 32.08 116.753 32.56C116.561 33.024 116.217 33.36 115.721 33.568C116.585 33.664 117.281 34.016 117.809 34.624C118.353 35.232 118.625 36.04 118.625 37.048V42.136C118.625 42.44 118.553 42.664 118.409 42.808C118.281 42.936 118.065 43 117.761 43H114.041C113.737 43 113.513 42.936 113.369 42.808C113.241 42.664 113.177 42.44 113.177 42.136V38.464C113.177 38.112 113.105 37.856 112.961 37.696C112.833 37.52 112.601 37.432 112.265 37.432H108.905V42.136C108.905 42.44 108.833 42.664 108.689 42.808C108.561 42.936 108.345 43 108.041 43ZM132.597 43H121.461C121.157 43 120.933 42.936 120.789 42.808C120.661 42.664 120.597 42.44 120.597 42.136V26.584C120.597 26.28 120.661 26.064 120.789 25.936C120.933 25.792 121.157 25.72 121.461 25.72H132.597C132.901 25.72 133.117 25.792 133.245 25.936C133.389 26.064 133.461 26.28 133.461 26.584V29.392C133.461 29.696 133.389 29.92 133.245 30.064C133.117 30.192 132.901 30.256 132.597 30.256H125.973V32.104H130.653C130.957 32.104 131.173 32.176 131.301 32.32C131.445 32.448 131.517 32.664 131.517 32.968V35.536C131.517 35.84 131.445 36.064 131.301 36.208C131.173 36.336 130.957 36.4 130.653 36.4H125.973V38.464H132.597C132.901 38.464 133.117 38.536 133.245 38.68C133.389 38.808 133.461 39.024 133.461 39.328V42.136C133.461 42.44 133.389 42.664 133.245 42.808C133.117 42.936 132.901 43 132.597 43ZM141.845 30.76L140.717 34.408H144.485L143.357 30.76C143.293 30.616 143.221 30.512 143.141 30.448C143.077 30.384 142.997 30.352 142.901 30.352H142.301C142.205 30.352 142.117 30.384 142.037 30.448C141.973 30.512 141.909 30.616 141.845 30.76ZM140.477 42.136C140.477 42.44 140.405 42.664 140.261 42.808C140.133 42.936 139.917 43 139.613 43H136.085C135.781 43 135.557 42.936 135.413 42.808C135.285 42.664 135.221 42.44 135.221 42.136V35.8C135.221 35.32 135.293 34.768 135.437 34.144C135.597 33.52 135.837 32.792 136.157 31.96L138.245 26.512C138.341 26.24 138.485 26.04 138.677 25.912C138.885 25.784 139.149 25.72 139.469 25.72H145.925C146.229 25.72 146.477 25.784 146.669 25.912C146.877 26.04 147.029 26.24 147.125 26.512L149.213 31.96C149.533 32.792 149.765 33.52 149.909 34.144C150.069 34.768 150.149 35.32 150.149 35.8V42.136C150.149 42.44 150.077 42.664 149.933 42.808C149.805 42.936 149.589 43 149.285 43H145.661C145.341 43 145.101 42.936 144.941 42.808C144.797 42.664 144.725 42.44 144.725 42.136V38.776H140.477V42.136ZM159.591 43H155.703C155.399 43 155.175 42.936 155.031 42.808C154.903 42.664 154.839 42.44 154.839 42.136V30.352H151.311C151.007 30.352 150.783 30.288 150.639 30.16C150.511 30.016 150.447 29.792 150.447 29.488V26.584C150.447 26.28 150.511 26.064 150.639 25.936C150.783 25.792 151.007 25.72 151.311 25.72H163.983C164.287 25.72 164.503 25.792 164.631 25.936C164.775 26.064 164.847 26.28 164.847 26.584V29.488C164.847 29.792 164.775 30.016 164.631 30.16C164.503 30.288 164.287 30.352 163.983 30.352H160.455V42.136C160.455 42.44 160.383 42.664 160.239 42.808C160.111 42.936 159.895 43 159.591 43Z" fill="white"/>
<path d="M90.3072 41.8L89.0268 43.3364L89.033 43.3416L89.0393 43.3468L90.3072 41.8ZM90.3072 26.944L91.5875 28.4804L91.59 28.4784L90.3072 26.944ZM101.275 25.936L99.7803 27.2647L99.8585 27.3527L99.9464 27.4308L101.275 25.936ZM94.6992 30.664L95.9485 32.2257L95.9793 32.2012L96.009 32.1754L94.6992 30.664ZM94.6992 38.152L93.4498 39.7137L93.4826 39.74L93.5164 39.7648L94.6992 38.152ZM101.275 38.632L99.7803 39.9607L99.8585 40.0487L99.9464 40.1268L101.275 38.632ZM101.275 42.808L102.689 44.2222L102.689 44.2222L101.275 42.808ZM100.627 41H94.7712V45H100.627V41ZM94.7712 41C92.9794 41 92.0369 40.6318 91.575 40.2532L89.0393 43.3468C90.5295 44.5682 92.5629 45 94.7712 45V41ZM91.5875 40.2636C91.2232 39.9599 90.8672 39.3841 90.8672 38.104H86.8672C86.8672 40.1519 87.4711 42.0401 89.0268 43.3364L91.5875 40.2636ZM90.8672 38.104V30.64H86.8672V38.104H90.8672ZM90.8672 30.64C90.8672 29.3599 91.2232 28.7841 91.5875 28.4804L89.0268 25.4076C87.4711 26.7039 86.8672 28.592 86.8672 30.64H90.8672ZM91.59 28.4784C92.0505 28.0934 92.9865 27.72 94.7712 27.72V23.72C92.5558 23.72 90.5158 24.1626 89.0243 25.4096L91.59 28.4784ZM94.7712 27.72H100.627V23.72H94.7712V27.72ZM100.627 27.72C100.625 27.72 100.603 27.72 100.564 27.7146C100.526 27.7092 100.463 27.6976 100.385 27.6714C100.221 27.6168 99.9882 27.4985 99.7803 27.2647L102.77 24.6073C102.09 23.8419 101.177 23.72 100.627 23.72V27.72ZM99.9464 27.4308C99.7126 27.223 99.5943 26.99 99.5398 26.8265C99.5136 26.7478 99.5019 26.6855 99.4966 26.6468C99.4912 26.608 99.4912 26.5858 99.4912 26.584H103.491C103.491 26.0342 103.369 25.1215 102.604 24.4412L99.9464 27.4308ZM99.4912 26.584V29.488H103.491V26.584H99.4912ZM99.4912 29.488C99.4912 29.4859 99.4912 29.4658 99.496 29.4308C99.5008 29.3957 99.5109 29.3409 99.5331 29.272C99.5792 29.1286 99.6757 28.9311 99.8609 28.7458L102.689 31.5742C103.359 30.905 103.491 30.0636 103.491 29.488H99.4912ZM99.8609 28.7458C100.083 28.5233 100.314 28.4263 100.449 28.3864C100.577 28.3485 100.649 28.352 100.627 28.352V32.352C101.122 32.352 102 32.2635 102.689 31.5742L99.8609 28.7458ZM100.627 28.352H95.8032V32.352H100.627V28.352ZM95.8032 28.352C95.0834 28.352 94.1491 28.4941 93.3893 29.1526L96.009 32.1754C95.8665 32.2989 95.7409 32.3428 95.6991 32.3546C95.6627 32.3649 95.6877 32.352 95.8032 32.352V28.352ZM93.4498 29.1023C92.5997 29.7823 92.3392 30.7425 92.3392 31.552H96.3392C96.3392 31.5518 96.3392 31.5522 96.3392 31.552C96.3392 31.5518 96.3392 31.5522 96.3392 31.552C96.3392 31.552 96.3392 31.552 96.3392 31.5521C96.3392 31.5521 96.3392 31.5522 96.3392 31.5522C96.3392 31.5524 96.3391 31.5526 96.3391 31.5529C96.3391 31.5535 96.3391 31.5545 96.3391 31.5557C96.339 31.5581 96.3388 31.5619 96.3384 31.5668C96.3376 31.5766 96.336 31.5917 96.3326 31.6113C96.3258 31.6507 96.3117 31.7097 96.2826 31.7814C96.2192 31.9378 96.1067 32.0992 95.9485 32.2257L93.4498 29.1023ZM92.3392 31.552V37.264H96.3392V31.552H92.3392ZM92.3392 37.264C92.3392 38.0735 92.5997 39.0337 93.4498 39.7137L95.9485 36.5903C96.1067 36.7168 96.2192 36.8782 96.2826 37.0346C96.3117 37.1063 96.3258 37.1653 96.3326 37.2047C96.336 37.2243 96.3376 37.2394 96.3384 37.2492C96.3388 37.2541 96.339 37.2579 96.3391 37.2603C96.3391 37.2615 96.3391 37.2625 96.3391 37.2631C96.3391 37.2634 96.3392 37.2636 96.3392 37.2638C96.3392 37.2638 96.3392 37.2639 96.3392 37.2639C96.3392 37.264 96.3392 37.264 96.3392 37.264C96.3392 37.2638 96.3392 37.2642 96.3392 37.264C96.3392 37.2638 96.3392 37.2642 96.3392 37.264H92.3392ZM93.5164 39.7648C94.261 40.3108 95.1392 40.416 95.8032 40.416V36.416C95.7375 36.416 95.6898 36.4131 95.6578 36.4098C95.6256 36.4065 95.6144 36.4034 95.6203 36.4048C95.6277 36.4066 95.7375 36.4333 95.8819 36.5392L93.5164 39.7648ZM95.8032 40.416H100.627V36.416H95.8032V40.416ZM100.627 40.416C100.625 40.416 100.603 40.416 100.564 40.4106C100.526 40.4052 100.463 40.3936 100.385 40.3674C100.221 40.3128 99.9882 40.1945 99.7803 39.9607L102.77 37.3033C102.09 36.5379 101.177 36.416 100.627 36.416V40.416ZM99.9464 40.1268C99.7126 39.919 99.5943 39.686 99.5398 39.5225C99.5136 39.4438 99.5019 39.3815 99.4966 39.3428C99.4912 39.304 99.4912 39.2818 99.4912 39.28H103.491C103.491 38.7302 103.369 37.8175 102.604 37.1372L99.9464 40.1268ZM99.4912 39.28V42.136H103.491V39.28H99.4912ZM99.4912 42.136C99.4912 42.1339 99.4912 42.1138 99.496 42.0788C99.5008 42.0437 99.5109 41.9889 99.5331 41.92C99.5792 41.7766 99.6757 41.5791 99.8609 41.3938L102.689 44.2222C103.359 43.553 103.491 42.7116 103.491 42.136H99.4912ZM99.8609 41.3938C100.083 41.1713 100.314 41.0743 100.449 41.0344C100.577 40.9965 100.649 41 100.627 41V45C101.122 45 102 44.9115 102.689 44.2222L99.8609 41.3938ZM108.905 30.04V28.04H106.905V30.04H108.905ZM108.905 33.112H106.905V35.112H108.905V33.112ZM111.545 32.8L113.19 33.9384L113.209 33.9103L113.228 33.8815L111.545 32.8ZM111.545 30.376L109.863 31.4575L109.882 31.4863L109.901 31.5144L111.545 30.376ZM103.673 42.808L102.179 44.1367L102.257 44.2247L102.345 44.3028L103.673 42.808ZM103.673 25.936L102.259 24.5218L102.259 24.5218L103.673 25.936ZM116.033 26.848L114.542 28.1807L114.557 28.1974L114.572 28.2138L116.033 26.848ZM116.753 32.56L114.918 31.7648L114.912 31.78L114.905 31.7953L116.753 32.56ZM115.721 33.568L114.948 31.7236L107.84 34.7046L115.501 35.5558L115.721 33.568ZM117.809 34.624L116.299 35.9354L116.309 35.9466L116.319 35.9576L117.809 34.624ZM118.409 42.808L119.824 44.2222V44.2222L118.409 42.808ZM113.369 42.808L111.875 44.1367L111.953 44.2247L112.041 44.3028L113.369 42.808ZM112.961 37.696L111.344 38.8723L111.405 38.9565L111.475 39.0339L112.961 37.696ZM108.905 37.432V35.432H106.905V37.432H108.905ZM108.689 42.808L107.275 41.3938V41.3938L108.689 42.808ZM106.905 30.04V33.112H110.905V30.04H106.905ZM108.905 35.112H110.705V31.112H108.905V35.112ZM110.705 35.112C111.35 35.112 112.482 34.9615 113.19 33.9384L109.901 31.6616C110.102 31.3714 110.358 31.2233 110.531 31.1591C110.683 31.1028 110.762 31.112 110.705 31.112V35.112ZM113.228 33.8815C113.618 33.2749 113.761 32.6093 113.761 31.984H109.761C109.761 31.9944 109.76 31.9682 109.774 31.9162C109.788 31.8618 109.816 31.7918 109.863 31.7185L113.228 33.8815ZM113.761 31.984V31.168H109.761V31.984H113.761ZM113.761 31.168C113.761 30.5492 113.62 29.859 113.19 29.2376L109.901 31.5144C109.759 31.309 109.761 31.1468 109.761 31.168H113.761ZM113.228 29.2945C112.542 28.2273 111.401 28.04 110.705 28.04V32.04C110.749 32.04 110.652 32.0479 110.485 31.981C110.292 31.9038 110.045 31.7407 109.863 31.4575L113.228 29.2945ZM110.705 28.04H108.905V32.04H110.705V28.04ZM108.041 41H104.345V45H108.041V41ZM104.345 41C104.326 41 104.387 40.9971 104.499 41.029C104.616 41.0624 104.808 41.1404 105.002 41.3132L102.345 44.3028C103.016 44.8992 103.821 45 104.345 45V41ZM105.168 41.4793C105.341 41.6736 105.419 41.8654 105.453 41.9826C105.484 42.094 105.481 42.1553 105.481 42.136H101.481C101.481 42.6605 101.582 43.4658 102.179 44.1367L105.168 41.4793ZM105.481 42.136V26.584H101.481V42.136H105.481ZM105.481 26.584C105.481 26.5619 105.485 26.6342 105.447 26.7622C105.407 26.8968 105.31 27.1277 105.088 27.3502L102.259 24.5218C101.57 25.2111 101.481 26.0892 101.481 26.584H105.481ZM105.088 27.3502C104.902 27.5355 104.705 27.632 104.561 27.6781C104.493 27.7002 104.438 27.7104 104.403 27.7152C104.368 27.7199 104.348 27.72 104.345 27.72V23.72C103.77 23.72 102.928 23.8526 102.259 24.5218L105.088 27.3502ZM104.345 27.72H112.337V23.72H104.345V27.72ZM112.337 27.72C113.974 27.72 114.458 28.0862 114.542 28.1807L117.525 25.5153C116.265 24.1058 114.285 23.72 112.337 23.72V27.72ZM114.572 28.2138C114.854 28.5155 115.065 28.9564 115.065 29.728H119.065C119.065 28.1316 118.589 26.6525 117.495 25.4822L114.572 28.2138ZM115.065 29.728V30.832H119.065V29.728H115.065ZM115.065 30.832C115.065 31.3051 114.991 31.5963 114.918 31.7648L118.589 33.3552C118.932 32.5637 119.065 31.7029 119.065 30.832H115.065ZM114.905 31.7953C114.906 31.7945 114.91 31.7851 114.919 31.7708C114.929 31.7562 114.941 31.7418 114.954 31.7292C114.967 31.7168 114.976 31.7105 114.978 31.7093C114.979 31.7083 114.971 31.714 114.948 31.7236L116.495 35.4124C117.439 35.0164 118.192 34.3133 118.602 33.3247L114.905 31.7953ZM115.501 35.5558C115.908 35.6011 116.128 35.7385 116.299 35.9354L119.32 33.3126C118.435 32.2935 117.262 31.7269 115.942 31.5802L115.501 35.5558ZM116.319 35.9576C116.462 36.1178 116.625 36.4112 116.625 37.048H120.625C120.625 35.6688 120.245 34.3462 119.3 33.2904L116.319 35.9576ZM116.625 37.048V42.136H120.625V37.048H116.625ZM116.625 42.136C116.625 42.1339 116.626 42.1138 116.63 42.0788C116.635 42.0437 116.645 41.9889 116.667 41.92C116.713 41.7766 116.81 41.5791 116.995 41.3938L119.824 44.2222C120.493 43.553 120.625 42.7116 120.625 42.136H116.625ZM116.995 41.3938C117.218 41.1713 117.449 41.0743 117.583 41.0344C117.711 40.9965 117.784 41 117.761 41V45C118.256 45 119.134 44.9115 119.824 44.2222L116.995 41.3938ZM117.761 41H114.041V45H117.761V41ZM114.041 41C114.022 41 114.083 40.9971 114.195 41.029C114.312 41.0624 114.504 41.1404 114.698 41.3132L112.041 44.3028C112.712 44.8992 113.517 45 114.041 45V41ZM114.864 41.4793C115.037 41.6736 115.115 41.8654 115.149 41.9826C115.18 42.094 115.177 42.1553 115.177 42.136H111.177C111.177 42.6605 111.278 43.4658 111.875 44.1367L114.864 41.4793ZM115.177 42.136V38.464H111.177V42.136H115.177ZM115.177 38.464C115.177 37.9126 115.077 37.0574 114.448 36.3581L111.475 39.0339C111.299 38.8383 111.226 38.6489 111.198 38.5495C111.172 38.4549 111.177 38.4158 111.177 38.464H115.177ZM114.579 36.5197C113.904 35.5921 112.883 35.432 112.265 35.432V39.432C112.264 39.432 112.237 39.432 112.192 39.4249C112.146 39.4179 112.073 39.4025 111.982 39.368C111.787 39.2939 111.54 39.1415 111.344 38.8723L114.579 36.5197ZM112.265 35.432H108.905V39.432H112.265V35.432ZM106.905 37.432V42.136H110.905V37.432H106.905ZM106.905 42.136C106.905 42.1339 106.906 42.1138 106.91 42.0788C106.915 42.0437 106.925 41.9889 106.947 41.92C106.993 41.7766 107.09 41.5791 107.275 41.3938L110.104 44.2222C110.773 43.553 110.905 42.7116 110.905 42.136H106.905ZM107.275 41.3938C107.498 41.1713 107.729 41.0743 107.863 41.0344C107.991 40.9965 108.064 41 108.041 41V45C108.536 45 109.414 44.9115 110.104 44.2222L107.275 41.3938ZM120.789 42.808L119.295 44.1367L119.373 44.2247L119.461 44.3028L120.789 42.808ZM120.789 25.936L119.375 24.5218V24.5218L120.789 25.936ZM133.245 25.936L131.751 27.2647L131.829 27.3527L131.917 27.4308L133.245 25.936ZM125.973 30.256V28.256H123.973V30.256H125.973ZM125.973 32.104H123.973V34.104H125.973V32.104ZM131.301 32.32L129.807 33.6487L129.885 33.7367L129.973 33.8148L131.301 32.32ZM125.973 36.4V34.4H123.973V36.4H125.973ZM125.973 38.464H123.973V40.464H125.973V38.464ZM133.245 38.68L131.751 40.0087L131.829 40.0967L131.917 40.1748L133.245 38.68ZM133.245 42.808L134.66 44.2222V44.2222L133.245 42.808ZM132.597 41H121.461V45H132.597V41ZM121.461 41C121.442 41 121.503 40.9971 121.615 41.029C121.732 41.0624 121.924 41.1404 122.118 41.3132L119.461 44.3028C120.132 44.8992 120.937 45 121.461 45V41ZM122.284 41.4793C122.457 41.6736 122.535 41.8654 122.568 41.9826C122.6 42.094 122.597 42.1553 122.597 42.136H118.597C118.597 42.6605 118.698 43.4658 119.295 44.1367L122.284 41.4793ZM122.597 42.136V26.584H118.597V42.136H122.597ZM122.597 26.584C122.597 26.5619 122.601 26.6342 122.563 26.7622C122.523 26.8968 122.426 27.1277 122.204 27.3502L119.375 24.5218C118.686 25.2111 118.597 26.0892 118.597 26.584H122.597ZM122.204 27.3502C122.018 27.5355 121.821 27.632 121.677 27.6781C121.608 27.7002 121.554 27.7104 121.519 27.7152C121.484 27.7199 121.463 27.72 121.461 27.72V23.72C120.886 23.72 120.044 23.8526 119.375 24.5218L122.204 27.3502ZM121.461 27.72H132.597V23.72H121.461V27.72ZM132.597 27.72C132.596 27.72 132.573 27.72 132.535 27.7146C132.496 27.7092 132.434 27.6976 132.355 27.6714C132.191 27.6168 131.958 27.4985 131.751 27.2647L134.74 24.6073C134.06 23.8419 133.147 23.72 132.597 23.72V27.72ZM131.917 27.4308C131.683 27.223 131.565 26.99 131.51 26.8265C131.484 26.7478 131.472 26.6855 131.467 26.6468C131.461 26.608 131.461 26.5858 131.461 26.584H135.461C135.461 26.0342 135.339 25.1215 134.574 24.4412L131.917 27.4308ZM131.461 26.584V29.392H135.461V26.584H131.461ZM131.461 29.392C131.461 29.3899 131.461 29.3698 131.466 29.3348C131.471 29.2997 131.481 29.2449 131.503 29.176C131.549 29.0326 131.646 28.8351 131.831 28.6498L134.66 31.4782C135.329 30.809 135.461 29.9676 135.461 29.392H131.461ZM131.831 28.6498C132.054 28.4273 132.285 28.3303 132.419 28.2904C132.547 28.2525 132.619 28.256 132.597 28.256V32.256C133.092 32.256 133.97 32.1675 134.66 31.4782L131.831 28.6498ZM132.597 28.256H125.973V32.256H132.597V28.256ZM123.973 30.256V32.104H127.973V30.256H123.973ZM125.973 34.104H130.653V30.104H125.973V34.104ZM130.653 34.104C130.652 34.104 130.629 34.104 130.591 34.0986C130.552 34.0932 130.49 34.0816 130.411 34.0554C130.247 34.0008 130.014 33.8825 129.807 33.6487L132.796 30.9913C132.116 30.2259 131.203 30.104 130.653 30.104V34.104ZM129.973 33.8148C129.739 33.607 129.621 33.374 129.566 33.2105C129.54 33.1318 129.528 33.0695 129.523 33.0308C129.517 32.992 129.517 32.9698 129.517 32.968H133.517C133.517 32.4182 133.395 31.5055 132.63 30.8252L129.973 33.8148ZM129.517 32.968V35.536H133.517V32.968H129.517ZM129.517 35.536C129.517 35.5339 129.517 35.5138 129.522 35.4788C129.527 35.4437 129.537 35.3889 129.559 35.32C129.605 35.1766 129.702 34.9791 129.887 34.7938L132.716 37.6222C133.385 36.953 133.517 36.1116 133.517 35.536H129.517ZM129.887 34.7938C130.11 34.5713 130.341 34.4743 130.475 34.4344C130.603 34.3965 130.675 34.4 130.653 34.4V38.4C131.148 38.4 132.026 38.3115 132.716 37.6222L129.887 34.7938ZM130.653 34.4H125.973V38.4H130.653V34.4ZM123.973 36.4V38.464H127.973V36.4H123.973ZM125.973 40.464H132.597V36.464H125.973V40.464ZM132.597 40.464C132.596 40.464 132.573 40.464 132.535 40.4586C132.496 40.4532 132.434 40.4416 132.355 40.4154C132.191 40.3608 131.958 40.2425 131.751 40.0087L134.74 37.3513C134.06 36.5859 133.147 36.464 132.597 36.464V40.464ZM131.917 40.1748C131.683 39.967 131.565 39.734 131.51 39.5705C131.484 39.4918 131.472 39.4295 131.467 39.3908C131.461 39.352 131.461 39.3298 131.461 39.328H135.461C135.461 38.7782 135.339 37.8655 134.574 37.1852L131.917 40.1748ZM131.461 39.328V42.136H135.461V39.328H131.461ZM131.461 42.136C131.461 42.1339 131.461 42.1138 131.466 42.0788C131.471 42.0437 131.481 41.9889 131.503 41.92C131.549 41.7766 131.646 41.5791 131.831 41.3938L134.66 44.2222C135.329 43.553 135.461 42.7116 135.461 42.136H131.461ZM131.831 41.3938C132.054 41.1713 132.285 41.0743 132.419 41.0344C132.547 40.9965 132.619 41 132.597 41V45C133.092 45 133.97 44.9115 134.66 44.2222L131.831 41.3938ZM141.845 30.76L140.017 29.9477L139.969 30.056L139.934 30.1692L141.845 30.76ZM140.717 34.408L138.806 33.8172L138.005 36.408H140.717V34.408ZM144.485 34.408V36.408H147.196L146.395 33.8172L144.485 34.408ZM143.357 30.76L145.267 30.1692L145.232 30.056L145.184 29.9477L143.357 30.76ZM143.141 30.448L141.726 31.8622L141.805 31.9405L141.891 32.0097L143.141 30.448ZM142.037 30.448L140.787 28.8863L140.701 28.9555L140.622 29.0338L142.037 30.448ZM140.261 42.808L138.846 41.3938L138.846 41.3938L140.261 42.808ZM135.413 42.808L133.918 44.1367L133.996 44.2247L134.084 44.3028L135.413 42.808ZM135.437 34.144L133.499 33.6472L133.493 33.6707L133.488 33.6943L135.437 34.144ZM136.157 31.96L138.023 32.678L138.024 32.6758L136.157 31.96ZM138.245 26.512L140.112 27.2278L140.122 27.2028L140.131 27.1776L138.245 26.512ZM138.677 25.912L137.628 24.2087L137.597 24.2277L137.567 24.2479L138.677 25.912ZM146.669 25.912L145.559 27.5761L145.589 27.5963L145.62 27.6153L146.669 25.912ZM147.125 26.512L145.239 27.1776L145.247 27.2028L145.257 27.2278L147.125 26.512ZM149.213 31.96L147.345 32.6758L147.346 32.678L149.213 31.96ZM149.909 34.144L147.96 34.5937L147.965 34.6173L147.971 34.6408L149.909 34.144ZM149.933 42.808L151.347 44.2222L151.347 44.2222L149.933 42.808ZM144.941 42.808L143.526 44.2222L143.605 44.3005L143.691 44.3697L144.941 42.808ZM144.725 38.776H146.725V36.776H144.725V38.776ZM140.477 38.776V36.776H138.477V38.776H140.477ZM139.934 30.1692L138.806 33.8172L142.627 34.9988L143.755 31.3508L139.934 30.1692ZM140.717 36.408H144.485V32.408H140.717V36.408ZM146.395 33.8172L145.267 30.1692L141.446 31.3508L142.574 34.9988L146.395 33.8172ZM145.184 29.9477C145.054 29.6543 144.819 29.2293 144.39 28.8863L141.891 32.0097C141.749 31.896 141.66 31.7841 141.61 31.7124C141.56 31.6403 141.536 31.5879 141.529 31.5723L145.184 29.9477ZM144.555 29.0338C144.091 28.5702 143.491 28.352 142.901 28.352V32.352C142.723 32.352 142.512 32.3217 142.29 32.233C142.066 32.1433 141.876 32.0119 141.726 31.8622L144.555 29.0338ZM142.901 28.352H142.301V32.352H142.901V28.352ZM142.301 28.352C141.719 28.352 141.196 28.559 140.787 28.8863L143.286 32.0097C143.037 32.209 142.69 32.352 142.301 32.352V28.352ZM140.622 29.0338C140.302 29.3545 140.118 29.7205 140.017 29.9477L143.672 31.5723C143.678 31.5596 143.67 31.5803 143.644 31.6222C143.62 31.6602 143.56 31.7532 143.451 31.8622L140.622 29.0338ZM138.477 42.136C138.477 42.1339 138.477 42.1138 138.481 42.0788C138.486 42.0437 138.496 41.9889 138.518 41.92C138.565 41.7766 138.661 41.5791 138.846 41.3938L141.675 44.2222C142.344 43.553 142.477 42.7116 142.477 42.136H138.477ZM138.846 41.3938C139.069 41.1713 139.3 41.0743 139.434 41.0344C139.562 40.9965 139.635 41 139.613 41V45C140.107 45 140.985 44.9115 141.675 44.2222L138.846 41.3938ZM139.613 41H136.085V45H139.613V41ZM136.085 41C136.065 41 136.126 40.9971 136.238 41.029C136.355 41.0624 136.547 41.1404 136.741 41.3132L134.084 44.3028C134.755 44.8992 135.56 45 136.085 45V41ZM136.907 41.4793C137.08 41.6736 137.158 41.8654 137.192 41.9826C137.223 42.094 137.221 42.1553 137.221 42.136H133.221C133.221 42.6605 133.321 43.4658 133.918 44.1367L136.907 41.4793ZM137.221 42.136V35.8H133.221V42.136H137.221ZM137.221 35.8C137.221 35.512 137.265 35.1159 137.385 34.5937L133.488 33.6943C133.32 34.4201 133.221 35.128 133.221 35.8H137.221ZM137.374 34.6408C137.509 34.1141 137.721 33.4629 138.023 32.678L134.29 31.242C133.952 32.1211 133.684 32.9259 133.499 33.6472L137.374 34.6408ZM138.024 32.6758L140.112 27.2278L136.377 25.7962L134.289 31.2442L138.024 32.6758ZM140.131 27.1776C140.119 27.2102 140.036 27.4096 139.786 27.5761L137.567 24.2479C136.933 24.6704 136.562 25.2698 136.359 25.8464L140.131 27.1776ZM139.725 27.6153C139.534 27.7328 139.406 27.72 139.469 27.72V23.72C138.891 23.72 138.235 23.8352 137.628 24.2087L139.725 27.6153ZM139.469 27.72H145.925V23.72H139.469V27.72ZM145.925 27.72C145.957 27.72 145.785 27.7268 145.559 27.5761L147.778 24.2479C147.168 23.8412 146.5 23.72 145.925 23.72V27.72ZM145.62 27.6153C145.508 27.5462 145.415 27.459 145.346 27.3682C145.28 27.2806 145.25 27.2088 145.239 27.1776L149.011 25.8464C148.791 25.2243 148.382 24.6182 147.717 24.2087L145.62 27.6153ZM145.257 27.2278L147.345 32.6758L151.08 31.2442L148.992 25.7962L145.257 27.2278ZM147.346 32.678C147.644 33.4537 147.843 34.0885 147.96 34.5937L151.857 33.6943C151.686 32.9515 151.421 32.1303 151.079 31.242L147.346 32.678ZM147.971 34.6408C148.103 35.1539 148.149 35.5335 148.149 35.8H152.149C152.149 35.1065 152.034 34.3821 151.846 33.6472L147.971 34.6408ZM148.149 35.8V42.136H152.149V35.8H148.149ZM148.149 42.136C148.149 42.1339 148.149 42.1138 148.153 42.0788C148.158 42.0437 148.168 41.9889 148.19 41.92C148.237 41.7766 148.333 41.5791 148.518 41.3938L151.347 44.2222C152.016 43.553 152.149 42.7116 152.149 42.136H148.149ZM148.518 41.3938C148.741 41.1713 148.972 41.0743 149.106 41.0344C149.234 40.9965 149.307 41 149.285 41V45C149.779 45 150.657 44.9115 151.347 44.2222L148.518 41.3938ZM149.285 41H145.661V45H149.285V41ZM145.661 41C145.627 41 145.668 40.996 145.756 41.0195C145.848 41.0441 146.013 41.1045 146.19 41.2463L143.691 44.3697C144.356 44.902 145.127 45 145.661 45V41ZM146.355 41.3938C146.54 41.5791 146.637 41.7766 146.683 41.92C146.705 41.9889 146.715 42.0437 146.72 42.0788C146.724 42.1138 146.725 42.1339 146.725 42.136H142.725C142.725 42.7116 142.857 43.553 143.526 44.2222L146.355 41.3938ZM146.725 42.136V38.776H142.725V42.136H146.725ZM144.725 36.776H140.477V40.776H144.725V36.776ZM138.477 38.776V42.136H142.477V38.776H138.477ZM155.031 42.808L153.536 44.1367L153.614 44.2247L153.702 44.3028L155.031 42.808ZM154.839 30.352H156.839V28.352H154.839V30.352ZM150.639 30.16L149.144 31.4887L149.222 31.5767L149.31 31.6548L150.639 30.16ZM150.639 25.936L149.225 24.5218L149.225 24.5218L150.639 25.936ZM164.631 25.936L163.136 27.2647L163.214 27.3527L163.302 27.4308L164.631 25.936ZM160.455 30.352V28.352H158.455V30.352H160.455ZM160.239 42.808L158.825 41.3938V41.3938L160.239 42.808ZM159.591 41H155.703V45H159.591V41ZM155.703 41C155.683 41 155.745 40.9971 155.856 41.029C155.973 41.0624 156.165 41.1404 156.36 41.3132L153.702 44.3028C154.373 44.8992 155.178 45 155.703 45V41ZM156.526 41.4793C156.698 41.6736 156.776 41.8654 156.81 41.9826C156.842 42.094 156.839 42.1553 156.839 42.136H152.839C152.839 42.6605 152.94 43.4658 153.536 44.1367L156.526 41.4793ZM156.839 42.136V30.352H152.839V42.136H156.839ZM154.839 28.352H151.311V32.352H154.839V28.352ZM151.311 28.352C151.291 28.352 151.353 28.3491 151.464 28.381C151.581 28.4144 151.773 28.4924 151.968 28.6652L149.31 31.6548C149.981 32.2512 150.786 32.352 151.311 32.352V28.352ZM152.134 28.8313C152.306 29.0256 152.384 29.2174 152.418 29.3346C152.45 29.446 152.447 29.5073 152.447 29.488H148.447C148.447 30.0125 148.548 30.8178 149.144 31.4887L152.134 28.8313ZM152.447 29.488V26.584H148.447V29.488H152.447ZM152.447 26.584C152.447 26.5619 152.45 26.6342 152.412 26.7622C152.373 26.8968 152.276 27.1277 152.053 27.3502L149.225 24.5218C148.535 25.2111 148.447 26.0892 148.447 26.584H152.447ZM152.053 27.3502C151.868 27.5355 151.67 27.632 151.527 27.6781C151.458 27.7002 151.403 27.7104 151.368 27.7152C151.333 27.7199 151.313 27.72 151.311 27.72V23.72C150.735 23.72 149.894 23.8526 149.225 24.5218L152.053 27.3502ZM151.311 27.72H163.983V23.72H151.311V27.72ZM163.983 27.72C163.981 27.72 163.959 27.72 163.92 27.7146C163.881 27.7092 163.819 27.6976 163.74 27.6714C163.577 27.6168 163.344 27.4985 163.136 27.2647L166.126 24.6073C165.445 23.8419 164.533 23.72 163.983 23.72V27.72ZM163.302 27.4308C163.068 27.223 162.95 26.99 162.895 26.8265C162.869 26.7478 162.858 26.6855 162.852 26.6468C162.847 26.608 162.847 26.5858 162.847 26.584H166.847C166.847 26.0342 166.725 25.1215 165.96 24.4412L163.302 27.4308ZM162.847 26.584V29.488H166.847V26.584H162.847ZM162.847 29.488C162.847 29.4859 162.847 29.4658 162.852 29.4308C162.856 29.3957 162.867 29.3409 162.889 29.272C162.935 29.1286 163.031 28.9311 163.217 28.7458L166.045 31.5742C166.714 30.905 166.847 30.0636 166.847 29.488H162.847ZM163.217 28.7458C163.439 28.5233 163.67 28.4263 163.805 28.3864C163.933 28.3485 164.005 28.352 163.983 28.352V32.352C164.478 32.352 165.356 32.2635 166.045 31.5742L163.217 28.7458ZM163.983 28.352H160.455V32.352H163.983V28.352ZM158.455 30.352V42.136H162.455V30.352H158.455ZM158.455 42.136C158.455 42.1339 158.455 42.1138 158.46 42.0788C158.464 42.0437 158.475 41.9889 158.497 41.92C158.543 41.7766 158.639 41.5791 158.825 41.3938L161.653 44.2222C162.322 43.553 162.455 42.7116 162.455 42.136H158.455ZM158.825 41.3938C159.047 41.1713 159.278 41.0743 159.413 41.0344C159.541 40.9965 159.613 41 159.591 41V45C160.086 45 160.964 44.9115 161.653 44.2222L158.825 41.3938Z" fill="black" mask="url(#path-8-outside-1_2531_1592)"/>
</g>
<defs>
<filter id="filter0_d_2531_1592" x="88.8672" y="25.7202" width="75.9797" height="20.2798" filterUnits="userSpaceOnUse" color-interpolation-filters="sRGB">
<feFlood flood-opacity="0" result="BackgroundImageFix"/>
<feColorMatrix in="SourceAlpha" type="matrix" values="0 0 0 0 0 0 0 0 0 0 0 0 0 0 0 0 0 0 127 0" result="hardAlpha"/>
<feOffset dy="3"/>
<feComposite in2="hardAlpha" operator="out"/>
<feColorMatrix type="matrix" values="0 0 0 0 0 0 0 0 0 0 0 0 0 0 0 0 0 0 1 0"/>
<feBlend mode="normal" in2="BackgroundImageFix" result="effect1_dropShadow_2531_1592"/>
<feBlend mode="normal" in="SourceGraphic" in2="effect1_dropShadow_2531_1592" result="shape"/>
</filter>
<linearGradient id="paint0_linear_2531_1592" x1="130.547" y1="56.6507" x2="130.547" y2="70.1012" gradientUnits="userSpaceOnUse">
<stop stop-color="#DB8400"/>
<stop offset="1" stop-color="#B94100"/>
</linearGradient>
<linearGradient id="paint1_linear_2531_1592" x1="95.3048" y1="64.6155" x2="95.3048" y2="3.69238" gradientUnits="userSpaceOnUse">
<stop stop-color="#FFDE00"/>
<stop offset="1" stop-color="#FFE636"/>
</linearGradient>
<linearGradient id="paint2_linear_2531_1592" x1="8.90376" y1="8.04403" x2="25.8962" y2="25.5673" gradientUnits="userSpaceOnUse">
<stop stop-color="white"/>
<stop offset="1" stop-color="white" stop-opacity="0"/>
</linearGradient>
<linearGradient id="paint3_linear_2531_1592" x1="159.339" y1="15.1565" x2="159.339" y2="47.1069" gradientUnits="userSpaceOnUse">
<stop stop-color="#FFDC02"/>
<stop offset="1" stop-color="#FFBB00"/>
</linearGradient>
</defs>
</svg>
