<svg width="66" height="72" viewBox="0 0 66 72" fill="none" xmlns="http://www.w3.org/2000/svg">
<rect width="66" height="72" rx="16.6153" fill="black"/>
<rect x="3.21973" y="5.53857" width="59.561" height="62.7692" rx="14.7692" fill="url(#paint0_linear_2531_1144)"/>
<rect x="3.21973" y="3.69238" width="59.561" height="60.9231" rx="12.923" fill="url(#paint1_linear_2531_1144)"/>
<rect x="3.21973" y="3.69238" width="59.561" height="60.9231" rx="12.923" fill="url(#paint2_linear_2531_1144)"/>
<rect x="6.43896" y="7.38477" width="53.1219" height="53.5385" rx="11.0769" fill="url(#paint3_linear_2531_1144)"/>
<ellipse cx="2.90149" cy="1.99141" rx="2.90149" ry="1.99141" transform="matrix(0.73474 -0.678349 0.574531 0.818483 6.43896 11.3213)" fill="#FFFEE2"/>
<ellipse cx="2.90149" cy="1.99141" rx="2.90149" ry="1.99141" transform="matrix(0.73474 -0.678349 0.574531 0.818483 53.1221 57.4751)" fill="#F5CFFE"/>
<g filter="url(#filter0_d_2531_1144)">
<mask id="path-8-outside-1_2531_1144" maskUnits="userSpaceOnUse" x="9" y="29" width="50" height="13" fill="black">
<rect fill="white" x="9" y="29" width="50" height="13"/>
<path d="M15.7532 41H10.6982C10.5082 41 10.3682 40.96 10.2782 40.88C10.1982 40.79 10.1582 40.65 10.1582 40.46V30.74C10.1582 30.55 10.1982 30.415 10.2782 30.335C10.3682 30.245 10.5082 30.2 10.6982 30.2H15.7532C17.0032 30.2 17.9282 30.45 18.5282 30.95C19.1382 31.45 19.4432 32.22 19.4432 33.26V37.94C19.4432 38.98 19.1382 39.75 18.5282 40.25C17.9282 40.75 17.0032 41 15.7532 41ZM13.5632 33.065V38.165H15.3482C15.5882 38.165 15.7632 38.105 15.8732 37.985C15.9932 37.865 16.0532 37.68 16.0532 37.43V33.785C16.0532 33.535 15.9932 33.355 15.8732 33.245C15.7632 33.125 15.5882 33.065 15.3482 33.065H13.5632ZM24.3646 33.35L23.6596 35.63H26.0146L25.3096 33.35C25.2696 33.26 25.2246 33.195 25.1746 33.155C25.1346 33.115 25.0846 33.095 25.0246 33.095H24.6496C24.5896 33.095 24.5346 33.115 24.4846 33.155C24.4446 33.195 24.4046 33.26 24.3646 33.35ZM23.5096 40.46C23.5096 40.65 23.4646 40.79 23.3746 40.88C23.2946 40.96 23.1596 41 22.9696 41H20.7646C20.5746 41 20.4346 40.96 20.3446 40.88C20.2646 40.79 20.2246 40.65 20.2246 40.46V36.5C20.2246 36.2 20.2696 35.855 20.3596 35.465C20.4596 35.075 20.6096 34.62 20.8096 34.1L22.1146 30.695C22.1746 30.525 22.2646 30.4 22.3846 30.32C22.5146 30.24 22.6796 30.2 22.8796 30.2H26.9146C27.1046 30.2 27.2596 30.24 27.3796 30.32C27.5096 30.4 27.6046 30.525 27.6646 30.695L28.9696 34.1C29.1696 34.62 29.3146 35.075 29.4046 35.465C29.5046 35.855 29.5546 36.2 29.5546 36.5V40.46C29.5546 40.65 29.5096 40.79 29.4196 40.88C29.3396 40.96 29.2046 41 29.0146 41H26.7496C26.5496 41 26.3996 40.96 26.2996 40.88C26.2096 40.79 26.1646 40.65 26.1646 40.46V38.36H23.5096V40.46ZM33.3717 41H31.0467C30.8567 41 30.7167 40.96 30.6267 40.88C30.5467 40.79 30.5067 40.65 30.5067 40.46V30.74C30.5067 30.55 30.5467 30.415 30.6267 30.335C30.7167 30.245 30.8567 30.2 31.0467 30.2H35.6367C36.9967 30.2 37.9267 30.47 38.4267 31.01C38.9267 31.55 39.1767 32.255 39.1767 33.125V35.045C39.1767 35.915 38.9267 36.62 38.4267 37.16C37.9267 37.7 36.9967 37.97 35.6367 37.97H33.9117V40.46C33.9117 40.65 33.8667 40.79 33.7767 40.88C33.6967 40.96 33.5617 41 33.3717 41ZM33.8817 33.005V35.27H35.2317C35.5217 35.27 35.7117 35.195 35.8017 35.045C35.8917 34.895 35.9367 34.725 35.9367 34.535V33.74C35.9367 33.55 35.8917 33.38 35.8017 33.23C35.7117 33.08 35.5217 33.005 35.2317 33.005H33.8817ZM42.6963 41H40.3713C40.1813 41 40.0413 40.96 39.9513 40.88C39.8713 40.79 39.8313 40.65 39.8313 40.46V30.74C39.8313 30.55 39.8713 30.415 39.9513 30.335C40.0413 30.245 40.1813 30.2 40.3713 30.2H44.9613C46.3213 30.2 47.2513 30.47 47.7513 31.01C48.2513 31.55 48.5013 32.255 48.5013 33.125V35.045C48.5013 35.915 48.2513 36.62 47.7513 37.16C47.2513 37.7 46.3213 37.97 44.9613 37.97H43.2363V40.46C43.2363 40.65 43.1913 40.79 43.1013 40.88C43.0213 40.96 42.8863 41 42.6963 41ZM43.2063 33.005V35.27H44.5563C44.8463 35.27 45.0363 35.195 45.1263 35.045C45.2163 34.895 45.2613 34.725 45.2613 34.535V33.74C45.2613 33.55 45.2163 33.38 45.1263 33.23C45.0363 33.08 44.8463 33.005 44.5563 33.005H43.2063ZM54.1659 41H49.4259C49.2359 41 49.0959 40.96 49.0059 40.88C48.9259 40.79 48.8859 40.65 48.8859 40.46V38.705C48.8859 38.515 48.9259 38.38 49.0059 38.3C49.0959 38.21 49.2359 38.165 49.4259 38.165H53.4609C53.5909 38.165 53.6859 38.125 53.7459 38.045C53.8159 37.955 53.8509 37.85 53.8509 37.73C53.8509 37.56 53.8159 37.435 53.7459 37.355C53.6859 37.275 53.5909 37.23 53.4609 37.22L51.2109 36.905C50.5109 36.805 49.9459 36.575 49.5159 36.215C49.0959 35.855 48.8859 35.255 48.8859 34.415V32.84C48.8859 31.99 49.1609 31.34 49.7109 30.89C50.2609 30.43 51.0209 30.2 51.9909 30.2H56.1909C56.3809 30.2 56.5159 30.245 56.5959 30.335C56.6859 30.415 56.7309 30.55 56.7309 30.74V32.525C56.7309 32.715 56.6859 32.855 56.5959 32.945C56.5159 33.025 56.3809 33.065 56.1909 33.065H52.6959C52.5659 33.065 52.4659 33.11 52.3959 33.2C52.3259 33.28 52.2909 33.385 52.2909 33.515C52.2909 33.645 52.3259 33.755 52.3959 33.845C52.4659 33.935 52.5659 33.985 52.6959 33.995L54.9309 34.295C55.6309 34.395 56.1959 34.625 56.6259 34.985C57.0559 35.345 57.2709 35.945 57.2709 36.785V38.36C57.2709 39.21 56.9909 39.865 56.4309 40.325C55.8809 40.775 55.1259 41 54.1659 41Z"/>
</mask>
<path d="M15.7532 41H10.6982C10.5082 41 10.3682 40.96 10.2782 40.88C10.1982 40.79 10.1582 40.65 10.1582 40.46V30.74C10.1582 30.55 10.1982 30.415 10.2782 30.335C10.3682 30.245 10.5082 30.2 10.6982 30.2H15.7532C17.0032 30.2 17.9282 30.45 18.5282 30.95C19.1382 31.45 19.4432 32.22 19.4432 33.26V37.94C19.4432 38.98 19.1382 39.75 18.5282 40.25C17.9282 40.75 17.0032 41 15.7532 41ZM13.5632 33.065V38.165H15.3482C15.5882 38.165 15.7632 38.105 15.8732 37.985C15.9932 37.865 16.0532 37.68 16.0532 37.43V33.785C16.0532 33.535 15.9932 33.355 15.8732 33.245C15.7632 33.125 15.5882 33.065 15.3482 33.065H13.5632ZM24.3646 33.35L23.6596 35.63H26.0146L25.3096 33.35C25.2696 33.26 25.2246 33.195 25.1746 33.155C25.1346 33.115 25.0846 33.095 25.0246 33.095H24.6496C24.5896 33.095 24.5346 33.115 24.4846 33.155C24.4446 33.195 24.4046 33.26 24.3646 33.35ZM23.5096 40.46C23.5096 40.65 23.4646 40.79 23.3746 40.88C23.2946 40.96 23.1596 41 22.9696 41H20.7646C20.5746 41 20.4346 40.96 20.3446 40.88C20.2646 40.79 20.2246 40.65 20.2246 40.46V36.5C20.2246 36.2 20.2696 35.855 20.3596 35.465C20.4596 35.075 20.6096 34.62 20.8096 34.1L22.1146 30.695C22.1746 30.525 22.2646 30.4 22.3846 30.32C22.5146 30.24 22.6796 30.2 22.8796 30.2H26.9146C27.1046 30.2 27.2596 30.24 27.3796 30.32C27.5096 30.4 27.6046 30.525 27.6646 30.695L28.9696 34.1C29.1696 34.62 29.3146 35.075 29.4046 35.465C29.5046 35.855 29.5546 36.2 29.5546 36.5V40.46C29.5546 40.65 29.5096 40.79 29.4196 40.88C29.3396 40.96 29.2046 41 29.0146 41H26.7496C26.5496 41 26.3996 40.96 26.2996 40.88C26.2096 40.79 26.1646 40.65 26.1646 40.46V38.36H23.5096V40.46ZM33.3717 41H31.0467C30.8567 41 30.7167 40.96 30.6267 40.88C30.5467 40.79 30.5067 40.65 30.5067 40.46V30.74C30.5067 30.55 30.5467 30.415 30.6267 30.335C30.7167 30.245 30.8567 30.2 31.0467 30.2H35.6367C36.9967 30.2 37.9267 30.47 38.4267 31.01C38.9267 31.55 39.1767 32.255 39.1767 33.125V35.045C39.1767 35.915 38.9267 36.62 38.4267 37.16C37.9267 37.7 36.9967 37.97 35.6367 37.97H33.9117V40.46C33.9117 40.65 33.8667 40.79 33.7767 40.88C33.6967 40.96 33.5617 41 33.3717 41ZM33.8817 33.005V35.27H35.2317C35.5217 35.27 35.7117 35.195 35.8017 35.045C35.8917 34.895 35.9367 34.725 35.9367 34.535V33.74C35.9367 33.55 35.8917 33.38 35.8017 33.23C35.7117 33.08 35.5217 33.005 35.2317 33.005H33.8817ZM42.6963 41H40.3713C40.1813 41 40.0413 40.96 39.9513 40.88C39.8713 40.79 39.8313 40.65 39.8313 40.46V30.74C39.8313 30.55 39.8713 30.415 39.9513 30.335C40.0413 30.245 40.1813 30.2 40.3713 30.2H44.9613C46.3213 30.2 47.2513 30.47 47.7513 31.01C48.2513 31.55 48.5013 32.255 48.5013 33.125V35.045C48.5013 35.915 48.2513 36.62 47.7513 37.16C47.2513 37.7 46.3213 37.97 44.9613 37.97H43.2363V40.46C43.2363 40.65 43.1913 40.79 43.1013 40.88C43.0213 40.96 42.8863 41 42.6963 41ZM43.2063 33.005V35.27H44.5563C44.8463 35.27 45.0363 35.195 45.1263 35.045C45.2163 34.895 45.2613 34.725 45.2613 34.535V33.74C45.2613 33.55 45.2163 33.38 45.1263 33.23C45.0363 33.08 44.8463 33.005 44.5563 33.005H43.2063ZM54.1659 41H49.4259C49.2359 41 49.0959 40.96 49.0059 40.88C48.9259 40.79 48.8859 40.65 48.8859 40.46V38.705C48.8859 38.515 48.9259 38.38 49.0059 38.3C49.0959 38.21 49.2359 38.165 49.4259 38.165H53.4609C53.5909 38.165 53.6859 38.125 53.7459 38.045C53.8159 37.955 53.8509 37.85 53.8509 37.73C53.8509 37.56 53.8159 37.435 53.7459 37.355C53.6859 37.275 53.5909 37.23 53.4609 37.22L51.2109 36.905C50.5109 36.805 49.9459 36.575 49.5159 36.215C49.0959 35.855 48.8859 35.255 48.8859 34.415V32.84C48.8859 31.99 49.1609 31.34 49.7109 30.89C50.2609 30.43 51.0209 30.2 51.9909 30.2H56.1909C56.3809 30.2 56.5159 30.245 56.5959 30.335C56.6859 30.415 56.7309 30.55 56.7309 30.74V32.525C56.7309 32.715 56.6859 32.855 56.5959 32.945C56.5159 33.025 56.3809 33.065 56.1909 33.065H52.6959C52.5659 33.065 52.4659 33.11 52.3959 33.2C52.3259 33.28 52.2909 33.385 52.2909 33.515C52.2909 33.645 52.3259 33.755 52.3959 33.845C52.4659 33.935 52.5659 33.985 52.6959 33.995L54.9309 34.295C55.6309 34.395 56.1959 34.625 56.6259 34.985C57.0559 35.345 57.2709 35.945 57.2709 36.785V38.36C57.2709 39.21 56.9909 39.865 56.4309 40.325C55.8809 40.775 55.1259 41 54.1659 41Z" fill="white"/>
<path d="M10.2782 40.88L9.53083 41.5444L9.56991 41.5883L9.61388 41.6274L10.2782 40.88ZM10.2782 30.335L9.57113 29.6279L9.57113 29.6279L10.2782 30.335ZM18.5282 30.95L17.888 31.7182L17.8943 31.7234L18.5282 30.95ZM18.5282 40.25L17.8943 39.4766L17.8881 39.4818L18.5282 40.25ZM13.5632 33.065V32.065H12.5632V33.065H13.5632ZM13.5632 38.165H12.5632V39.165H13.5632V38.165ZM15.8732 37.985L15.1661 37.2779L15.1508 37.2933L15.1361 37.3093L15.8732 37.985ZM15.8732 33.245L15.1361 33.9207L15.1655 33.9528L15.1975 33.9822L15.8732 33.245ZM15.7532 40H10.6982V42H15.7532V40ZM10.6982 40C10.6696 40 10.6837 39.9966 10.7255 40.0085C10.77 40.0212 10.8544 40.0542 10.9426 40.1326L9.61388 41.6274C9.96734 41.9416 10.398 42 10.6982 42V40ZM11.0257 40.2156C11.104 40.3038 11.137 40.3882 11.1498 40.4328C11.1617 40.4745 11.1582 40.4887 11.1582 40.46H9.15824C9.15824 40.7602 9.21665 41.1909 9.53083 41.5444L11.0257 40.2156ZM11.1582 40.46V30.74H9.15824V40.46H11.1582ZM11.1582 30.74C11.1582 30.71 11.162 30.7298 11.147 30.7803C11.1311 30.8342 11.0886 30.9388 10.9853 31.0421L9.57113 29.6279C9.21048 29.9885 9.15824 30.4546 9.15824 30.74H11.1582ZM10.9853 31.0421C10.8127 31.2147 10.6441 31.2 10.6982 31.2V29.2C10.3724 29.2 9.92373 29.2753 9.57113 29.6279L10.9853 31.0421ZM10.6982 31.2H15.7532V29.2H10.6982V31.2ZM15.7532 31.2C16.9011 31.2 17.5481 31.4349 17.8881 31.7182L19.1684 30.1818C18.3084 29.4651 17.1054 29.2 15.7532 29.2V31.2ZM17.8943 31.7234C18.2036 31.9769 18.4432 32.4173 18.4432 33.26H20.4432C20.4432 32.0227 20.0729 30.9231 19.1622 30.1766L17.8943 31.7234ZM18.4432 33.26V37.94H20.4432V33.26H18.4432ZM18.4432 37.94C18.4432 38.7827 18.2036 39.2231 17.8943 39.4766L19.1622 41.0234C20.0729 40.2769 20.4432 39.1773 20.4432 37.94H18.4432ZM17.8881 39.4818C17.5481 39.7651 16.9011 40 15.7532 40V42C17.1054 42 18.3084 41.7349 19.1684 41.0182L17.8881 39.4818ZM12.5632 33.065V38.165H14.5632V33.065H12.5632ZM13.5632 39.165H15.3482V37.165H13.5632V39.165ZM15.3482 39.165C15.7344 39.165 16.2362 39.0689 16.6104 38.6607L15.1361 37.3093C15.2086 37.2302 15.2865 37.1907 15.3352 37.1741C15.3778 37.1594 15.3889 37.165 15.3482 37.165V39.165ZM16.5803 38.6921C16.9608 38.3117 17.0532 37.8203 17.0532 37.43H15.0532C15.0532 37.4786 15.047 37.4787 15.057 37.4477C15.0686 37.412 15.0991 37.3449 15.1661 37.2779L16.5803 38.6921ZM17.0532 37.43V33.785H15.0532V37.43H17.0532ZM17.0532 33.785C17.0532 33.4037 16.9645 32.8887 16.549 32.5078L15.1975 33.9822C15.1129 33.9046 15.0743 33.8231 15.0596 33.7787C15.0467 33.7402 15.0532 33.7354 15.0532 33.785H17.0532ZM16.6104 32.5693C16.2362 32.1611 15.7344 32.065 15.3482 32.065V34.065C15.3889 34.065 15.3778 34.0706 15.3352 34.0559C15.2865 34.0393 15.2086 33.9998 15.1361 33.9207L16.6104 32.5693ZM15.3482 32.065H13.5632V34.065H15.3482V32.065ZM24.3646 33.35L23.4508 32.9439L23.4268 32.998L23.4093 33.0546L24.3646 33.35ZM23.6596 35.63L22.7043 35.3346L22.3037 36.63H23.6596V35.63ZM26.0146 35.63V36.63H27.3706L26.97 35.3346L26.0146 35.63ZM25.3096 33.35L26.265 33.0546L26.2475 32.998L26.2235 32.9439L25.3096 33.35ZM25.1746 33.155L24.4675 33.8621L24.5067 33.9013L24.55 33.9359L25.1746 33.155ZM24.4846 33.155L23.86 32.3741L23.8167 32.4087L23.7775 32.4479L24.4846 33.155ZM23.3746 40.88L22.6675 40.1729H22.6675L23.3746 40.88ZM20.3446 40.88L19.5972 41.5444L19.6363 41.5883L19.6803 41.6274L20.3446 40.88ZM20.3596 35.465L19.391 35.2166L19.388 35.2283L19.3853 35.2401L20.3596 35.465ZM20.8096 34.1L21.743 34.459L21.7434 34.4579L20.8096 34.1ZM22.1146 30.695L23.0484 31.0529L23.0532 31.0404L23.0576 31.0278L22.1146 30.695ZM22.3846 30.32L21.8605 29.4683L21.8451 29.4779L21.83 29.4879L22.3846 30.32ZM27.3796 30.32L26.8249 31.152L26.8401 31.1621L26.8556 31.1717L27.3796 30.32ZM27.6646 30.695L26.7217 31.0278L26.7261 31.0404L26.7309 31.0529L27.6646 30.695ZM28.9696 34.1L28.0359 34.4579L28.0363 34.459L28.9696 34.1ZM29.4046 35.465L28.4303 35.6899L28.433 35.7017L28.436 35.7134L29.4046 35.465ZM29.4196 40.88L30.1268 41.5871V41.5871L29.4196 40.88ZM26.2996 40.88L25.5925 41.5871L25.6317 41.6263L25.675 41.6609L26.2996 40.88ZM26.1646 38.36H27.1646V37.36H26.1646V38.36ZM23.5096 38.36V37.36H22.5096V38.36H23.5096ZM23.4093 33.0546L22.7043 35.3346L24.615 35.9254L25.32 33.6454L23.4093 33.0546ZM23.6596 36.63H26.0146V34.63H23.6596V36.63ZM26.97 35.3346L26.265 33.0546L24.3543 33.6454L25.0593 35.9254L26.97 35.3346ZM26.2235 32.9439C26.1503 32.7791 26.0237 32.5536 25.7993 32.3741L24.55 33.9359C24.4839 33.883 24.444 33.8323 24.4237 33.803C24.4131 33.7876 24.406 33.7755 24.4019 33.768C24.3977 33.7605 24.3959 33.7562 24.3958 33.7561L26.2235 32.9439ZM25.8818 32.4479C25.642 32.2081 25.332 32.095 25.0246 32.095V34.095C24.9419 34.095 24.8416 34.0808 24.7358 34.0385C24.6287 33.9957 24.5384 33.9329 24.4675 33.8621L25.8818 32.4479ZM25.0246 32.095H24.6496V34.095H25.0246V32.095ZM24.6496 32.095C24.3467 32.095 24.0745 32.2025 23.86 32.3741L25.1093 33.9359C24.9948 34.0275 24.8326 34.095 24.6496 34.095V32.095ZM23.7775 32.4479C23.6092 32.6163 23.5093 32.8122 23.4508 32.9439L25.2785 33.7561C25.2853 33.7408 25.2852 33.7434 25.2763 33.7578C25.2686 33.7703 25.2422 33.8116 25.1917 33.8621L23.7775 32.4479ZM22.5096 40.46C22.5096 40.5142 22.4949 40.3455 22.6675 40.1729L24.0818 41.5871C24.4344 41.2345 24.5096 40.7858 24.5096 40.46H22.5096ZM22.6675 40.1729C22.7708 40.0696 22.8755 40.0271 22.9293 40.0112C22.9798 39.9962 22.9997 40 22.9696 40V42C23.2551 42 23.7211 41.9478 24.0818 41.5871L22.6675 40.1729ZM22.9696 40H20.7646V42H22.9696V40ZM20.7646 40C20.736 40 20.7501 39.9966 20.7919 40.0085C20.8364 40.0212 20.9208 40.0542 21.009 40.1326L19.6803 41.6274C20.0337 41.9416 20.4644 42 20.7646 42V40ZM21.0921 40.2156C21.1704 40.3038 21.2034 40.3882 21.2162 40.4328C21.2281 40.4745 21.2246 40.4887 21.2246 40.46H19.2246C19.2246 40.7602 19.2831 41.1909 19.5972 41.5444L21.0921 40.2156ZM21.2246 40.46V36.5H19.2246V40.46H21.2246ZM21.2246 36.5C21.2246 36.296 21.2558 36.029 21.334 35.6899L19.3853 35.2401C19.2835 35.681 19.2246 36.104 19.2246 36.5H21.2246ZM21.3283 35.7134C21.4158 35.372 21.552 34.9554 21.743 34.459L19.8763 33.741C19.6672 34.2846 19.5035 34.778 19.391 35.2166L21.3283 35.7134ZM21.7434 34.4579L23.0484 31.0529L21.1809 30.3371L19.8759 33.7421L21.7434 34.4579ZM23.0576 31.0278C23.0612 31.0176 23.0577 31.0316 23.0387 31.0581C23.0184 31.0862 22.9857 31.1211 22.9393 31.1521L21.83 29.4879C21.489 29.7152 21.2854 30.0399 21.1717 30.3622L23.0576 31.0278ZM22.9087 31.1717C22.8751 31.1924 22.8495 31.1999 22.8415 31.2018C22.8346 31.2035 22.8454 31.2 22.8796 31.2V29.2C22.5508 29.2 22.19 29.2656 21.8605 29.4683L22.9087 31.1717ZM22.8796 31.2H26.9146V29.2H22.8796V31.2ZM26.9146 31.2C26.9689 31.2 26.914 31.2114 26.8249 31.152L27.9344 29.488C27.6053 29.2686 27.2404 29.2 26.9146 29.2V31.2ZM26.8556 31.1717C26.8124 31.1451 26.7773 31.1118 26.7522 31.0788C26.7285 31.0475 26.7212 31.0264 26.7217 31.0278L28.6076 30.3622C28.4859 30.0172 28.2625 29.6891 27.9037 29.4683L26.8556 31.1717ZM26.7309 31.0529L28.0359 34.4579L29.9034 33.7421L28.5984 30.3371L26.7309 31.0529ZM28.0363 34.459C28.2255 34.9508 28.354 35.3592 28.4303 35.6899L30.379 35.2401C30.2753 34.7908 30.1138 34.2892 29.903 33.741L28.0363 34.459ZM28.436 35.7134C28.5218 36.048 28.5546 36.3067 28.5546 36.5H30.5546C30.5546 36.0933 30.4875 35.662 30.3733 35.2166L28.436 35.7134ZM28.5546 36.5V40.46H30.5546V36.5H28.5546ZM28.5546 40.46C28.5546 40.5142 28.5399 40.3455 28.7125 40.1729L30.1268 41.5871C30.4794 41.2345 30.5546 40.7858 30.5546 40.46H28.5546ZM28.7125 40.1729C28.8158 40.0696 28.9205 40.0271 28.9743 40.0112C29.0248 39.9962 29.0447 40 29.0146 40V42C29.3001 42 29.7661 41.9478 30.1268 41.5871L28.7125 40.1729ZM29.0146 40H26.7496V42H29.0146V40ZM26.7496 40C26.713 40 26.7157 39.996 26.7448 40.0038C26.7759 40.012 26.8458 40.0363 26.9243 40.0991L25.675 41.6609C26.0276 41.943 26.4428 42 26.7496 42V40ZM27.0068 40.1729C27.1794 40.3455 27.1646 40.5142 27.1646 40.46H25.1646C25.1646 40.7858 25.2399 41.2345 25.5925 41.5871L27.0068 40.1729ZM27.1646 40.46V38.36H25.1646V40.46H27.1646ZM26.1646 37.36H23.5096V39.36H26.1646V37.36ZM22.5096 38.36V40.46H24.5096V38.36H22.5096ZM30.6267 40.88L29.8793 41.5444L29.9184 41.5883L29.9623 41.6274L30.6267 40.88ZM30.6267 30.335L29.9196 29.6279V29.6279L30.6267 30.335ZM38.4267 31.01L37.6929 31.6894V31.6894L38.4267 31.01ZM38.4267 37.16L37.6929 36.4806L38.4267 37.16ZM33.9117 37.97V36.97H32.9117V37.97H33.9117ZM33.7767 40.88L33.0696 40.1729L33.7767 40.88ZM33.8817 33.005V32.005H32.8817V33.005H33.8817ZM33.8817 35.27H32.8817V36.27H33.8817V35.27ZM35.8017 35.045L36.6592 35.5595L36.6592 35.5595L35.8017 35.045ZM35.8017 33.23L34.9442 33.7445V33.7445L35.8017 33.23ZM33.3717 40H31.0467V42H33.3717V40ZM31.0467 40C31.018 40 31.0322 39.9966 31.0739 40.0085C31.1185 40.0212 31.2029 40.0542 31.291 40.1326L29.9623 41.6274C30.3158 41.9416 30.7465 42 31.0467 42V40ZM31.3741 40.2156C31.4525 40.3038 31.4855 40.3882 31.4982 40.4328C31.5101 40.4745 31.5067 40.4887 31.5067 40.46H29.5067C29.5067 40.7602 29.5651 41.1909 29.8793 41.5444L31.3741 40.2156ZM31.5067 40.46V30.74H29.5067V40.46H31.5067ZM31.5067 30.74C31.5067 30.71 31.5104 30.7298 31.4955 30.7803C31.4795 30.8342 31.4371 30.9388 31.3338 31.0421L29.9196 29.6279C29.5589 29.9885 29.5067 30.4546 29.5067 30.74H31.5067ZM31.3338 31.0421C31.1612 31.2147 30.9925 31.2 31.0467 31.2V29.2C30.7209 29.2 30.2722 29.2753 29.9196 29.6279L31.3338 31.0421ZM31.0467 31.2H35.6367V29.2H31.0467V31.2ZM35.6367 31.2C36.9337 31.2 37.4908 31.4711 37.6929 31.6894L39.1604 30.3306C38.3626 29.4689 37.0597 29.2 35.6367 29.2V31.2ZM37.6929 31.6894C37.9913 32.0116 38.1767 32.4581 38.1767 33.125H40.1767C40.1767 32.0519 39.8621 31.0884 39.1604 30.3306L37.6929 31.6894ZM38.1767 33.125V35.045H40.1767V33.125H38.1767ZM38.1767 35.045C38.1767 35.7119 37.9913 36.1584 37.6929 36.4806L39.1604 37.8394C39.8621 37.0816 40.1767 36.1181 40.1767 35.045H38.1767ZM37.6929 36.4806C37.4908 36.6989 36.9337 36.97 35.6367 36.97V38.97C37.0597 38.97 38.3626 38.7011 39.1604 37.8394L37.6929 36.4806ZM35.6367 36.97H33.9117V38.97H35.6367V36.97ZM32.9117 37.97V40.46H34.9117V37.97H32.9117ZM32.9117 40.46C32.9117 40.5142 32.897 40.3455 33.0696 40.1729L34.4838 41.5871C34.8364 41.2345 34.9117 40.7858 34.9117 40.46H32.9117ZM33.0696 40.1729C33.1728 40.0696 33.2775 40.0271 33.3313 40.0112C33.3818 39.9962 33.4017 40 33.3717 40V42C33.6571 42 34.1231 41.9478 34.4838 41.5871L33.0696 40.1729ZM32.8817 33.005V35.27H34.8817V33.005H32.8817ZM33.8817 36.27H35.2317V34.27H33.8817V36.27ZM35.2317 36.27C35.6341 36.27 36.2925 36.1706 36.6592 35.5595L34.9442 34.5305C35.0307 34.3863 35.1505 34.3128 35.2245 34.2836C35.2844 34.2599 35.2996 34.27 35.2317 34.27V36.27ZM36.6592 35.5595C36.8504 35.2408 36.9367 34.8901 36.9367 34.535H34.9367C34.9367 34.5505 34.9349 34.554 34.9362 34.5491C34.9368 34.5469 34.9378 34.5437 34.9394 34.54C34.9409 34.5363 34.9426 34.5331 34.9442 34.5305L36.6592 35.5595ZM36.9367 34.535V33.74H34.9367V34.535H36.9367ZM36.9367 33.74C36.9367 33.3849 36.8504 33.0342 36.6592 32.7155L34.9442 33.7445C34.9426 33.7419 34.9409 33.7387 34.9394 33.735C34.9378 33.7313 34.9368 33.7281 34.9362 33.7259C34.9349 33.721 34.9367 33.7245 34.9367 33.74H36.9367ZM36.6592 32.7155C36.2925 32.1044 35.6341 32.005 35.2317 32.005V34.005C35.2996 34.005 35.2844 34.0151 35.2245 33.9914C35.1505 33.9622 35.0307 33.8887 34.9442 33.7445L36.6592 32.7155ZM35.2317 32.005H33.8817V34.005H35.2317V32.005ZM39.9513 40.88L39.2039 41.5444L39.243 41.5883L39.2869 41.6274L39.9513 40.88ZM39.9513 30.335L39.2442 29.6279V29.6279L39.9513 30.335ZM47.7513 31.01L47.0175 31.6894L47.0175 31.6894L47.7513 31.01ZM47.7513 37.16L47.0175 36.4806H47.0175L47.7513 37.16ZM43.2363 37.97V36.97H42.2363V37.97H43.2363ZM43.1013 40.88L42.3942 40.1729L43.1013 40.88ZM43.2063 33.005V32.005H42.2063V33.005H43.2063ZM43.2063 35.27H42.2063V36.27H43.2063V35.27ZM45.1263 35.045L45.9838 35.5595V35.5595L45.1263 35.045ZM45.1263 33.23L44.2688 33.7445V33.7445L45.1263 33.23ZM42.6963 40H40.3713V42H42.6963V40ZM40.3713 40C40.3426 40 40.3568 39.9966 40.3985 40.0085C40.4431 40.0212 40.5275 40.0542 40.6157 40.1326L39.2869 41.6274C39.6404 41.9416 40.0711 42 40.3713 42V40ZM40.6987 40.2156C40.7771 40.3038 40.8101 40.3882 40.8228 40.4328C40.8347 40.4745 40.8313 40.4887 40.8313 40.46H38.8313C38.8313 40.7602 38.8897 41.1909 39.2039 41.5444L40.6987 40.2156ZM40.8313 40.46V30.74H38.8313V40.46H40.8313ZM40.8313 30.74C40.8313 30.71 40.8351 30.7298 40.8201 30.7803C40.8041 30.8342 40.7617 30.9388 40.6584 31.0421L39.2442 29.6279C38.8835 29.9885 38.8313 30.4546 38.8313 30.74H40.8313ZM40.6584 31.0421C40.4858 31.2147 40.3171 31.2 40.3713 31.2V29.2C40.0455 29.2 39.5968 29.2753 39.2442 29.6279L40.6584 31.0421ZM40.3713 31.2H44.9613V29.2H40.3713V31.2ZM44.9613 31.2C46.2583 31.2 46.8154 31.4711 47.0175 31.6894L48.4851 30.3306C47.6872 29.4689 46.3843 29.2 44.9613 29.2V31.2ZM47.0175 31.6894C47.3159 32.0116 47.5013 32.4581 47.5013 33.125H49.5013C49.5013 32.0519 49.1867 31.0884 48.485 30.3306L47.0175 31.6894ZM47.5013 33.125V35.045H49.5013V33.125H47.5013ZM47.5013 35.045C47.5013 35.7119 47.3159 36.1584 47.0175 36.4806L48.485 37.8394C49.1867 37.0816 49.5013 36.1181 49.5013 35.045H47.5013ZM47.0175 36.4806C46.8154 36.6989 46.2583 36.97 44.9613 36.97V38.97C46.3843 38.97 47.6872 38.7011 48.4851 37.8394L47.0175 36.4806ZM44.9613 36.97H43.2363V38.97H44.9613V36.97ZM42.2363 37.97V40.46H44.2363V37.97H42.2363ZM42.2363 40.46C42.2363 40.5142 42.2216 40.3455 42.3942 40.1729L43.8084 41.5871C44.161 41.2345 44.2363 40.7858 44.2363 40.46H42.2363ZM42.3942 40.1729C42.4974 40.0696 42.6021 40.0271 42.6559 40.0112C42.7065 39.9962 42.7263 40 42.6963 40V42C42.9817 42 43.4477 41.9478 43.8084 41.5871L42.3942 40.1729ZM42.2063 33.005V35.27H44.2063V33.005H42.2063ZM43.2063 36.27H44.5563V34.27H43.2063V36.27ZM44.5563 36.27C44.9587 36.27 45.6171 36.1706 45.9838 35.5595L44.2688 34.5305C44.3553 34.3863 44.4751 34.3128 44.5491 34.2836C44.6091 34.2599 44.6242 34.27 44.5563 34.27V36.27ZM45.9838 35.5595C46.175 35.2408 46.2613 34.8901 46.2613 34.535H44.2613C44.2613 34.5505 44.2595 34.554 44.2608 34.5491C44.2614 34.5469 44.2624 34.5437 44.264 34.54C44.2655 34.5363 44.2672 34.5331 44.2688 34.5305L45.9838 35.5595ZM46.2613 34.535V33.74H44.2613V34.535H46.2613ZM46.2613 33.74C46.2613 33.3849 46.175 33.0342 45.9838 32.7155L44.2688 33.7445C44.2672 33.7419 44.2655 33.7387 44.264 33.735C44.2624 33.7313 44.2614 33.7281 44.2608 33.7259C44.2595 33.721 44.2613 33.7245 44.2613 33.74H46.2613ZM45.9838 32.7155C45.6171 32.1044 44.9587 32.005 44.5563 32.005V34.005C44.6242 34.005 44.6091 34.0151 44.5491 33.9914C44.4751 33.9622 44.3553 33.8887 44.2688 33.7445L45.9838 32.7155ZM44.5563 32.005H43.2063V34.005H44.5563V32.005ZM49.0059 40.88L48.2585 41.5444L48.2976 41.5883L48.3415 41.6274L49.0059 40.88ZM49.0059 38.3L49.713 39.0071L49.0059 38.3ZM53.7459 38.045L52.9565 37.4311L52.9512 37.438L52.9459 37.445L53.7459 38.045ZM53.7459 37.355L52.9459 37.955L52.9685 37.9851L52.9933 38.0135L53.7459 37.355ZM53.4609 37.22L53.3223 38.2103L53.3531 38.2147L53.3842 38.2171L53.4609 37.22ZM51.2109 36.905L51.0695 37.895L51.0723 37.8953L51.2109 36.905ZM49.5159 36.215L48.8651 36.9743L48.874 36.9818L49.5159 36.215ZM49.7109 30.89L50.3442 31.664L50.3525 31.6571L49.7109 30.89ZM56.5959 30.335L55.8485 30.9994L55.8876 31.0433L55.9315 31.0824L56.5959 30.335ZM52.3959 33.2L53.1485 33.8585L53.1675 33.8368L53.1853 33.8139L52.3959 33.2ZM52.6959 33.995L52.8289 33.0039L52.8008 33.0001L52.7726 32.9979L52.6959 33.995ZM54.9309 34.295L55.0723 33.305L55.0639 33.3039L54.9309 34.295ZM56.6259 34.985L57.2678 34.2182L56.6259 34.985ZM56.4309 40.325L57.0641 41.099L57.0656 41.0977L56.4309 40.325ZM54.1659 40H49.4259V42H54.1659V40ZM49.4259 40C49.3972 40 49.4114 39.9966 49.4531 40.0085C49.4977 40.0212 49.5821 40.0542 49.6703 40.1326L48.3415 41.6274C48.695 41.9416 49.1257 42 49.4259 42V40ZM49.7533 40.2156C49.8317 40.3038 49.8647 40.3882 49.8774 40.4328C49.8893 40.4745 49.8859 40.4887 49.8859 40.46H47.8859C47.8859 40.7602 47.9443 41.1909 48.2585 41.5444L49.7533 40.2156ZM49.8859 40.46V38.705H47.8859V40.46H49.8859ZM49.8859 38.705C49.8859 38.675 49.8897 38.6948 49.8747 38.7453C49.8588 38.7992 49.8163 38.9038 49.713 39.0071L48.2988 37.5929C47.9381 37.9535 47.8859 38.4196 47.8859 38.705H49.8859ZM49.713 39.0071C49.5404 39.1797 49.3717 39.165 49.4259 39.165V37.165C49.1001 37.165 48.6514 37.2403 48.2988 37.5929L49.713 39.0071ZM49.4259 39.165H53.4609V37.165H49.4259V39.165ZM53.4609 39.165C53.8023 39.165 54.2426 39.0494 54.5459 38.645L52.9459 37.445C53.0257 37.3387 53.131 37.2599 53.2416 37.2134C53.3445 37.17 53.4262 37.165 53.4609 37.165V39.165ZM54.5353 38.6589C54.7493 38.3838 54.8509 38.0599 54.8509 37.73H52.8509C52.8509 37.6916 52.8567 37.6402 52.876 37.5825C52.8954 37.5242 52.9241 37.4728 52.9565 37.4311L54.5353 38.6589ZM54.8509 37.73C54.8509 37.4548 54.7996 37.0406 54.4985 36.6965L52.9933 38.0135C52.9108 37.9191 52.8757 37.8284 52.8617 37.7784C52.8484 37.7308 52.8509 37.7097 52.8509 37.73H54.8509ZM54.5459 36.755C54.2643 36.3795 53.8619 36.2479 53.5376 36.2229L53.3842 38.2171C53.3556 38.2149 53.2875 38.2057 53.2016 38.165C53.11 38.1216 53.0184 38.0516 52.9459 37.955L54.5459 36.755ZM53.5995 36.2297L51.3495 35.9147L51.0723 37.8953L53.3223 38.2103L53.5995 36.2297ZM51.3523 35.9151C50.789 35.8346 50.4121 35.6611 50.1578 35.4482L48.874 36.9818C49.4797 37.4889 50.2328 37.7754 51.0695 37.8949L51.3523 35.9151ZM50.1667 35.4557C50.0626 35.3665 49.8859 35.1156 49.8859 34.415H47.8859C47.8859 35.3944 48.1292 36.3435 48.8651 36.9743L50.1667 35.4557ZM49.8859 34.415V32.84H47.8859V34.415H49.8859ZM49.8859 32.84C49.8859 32.2248 50.0724 31.8863 50.3441 31.664L49.0777 30.116C48.2494 30.7937 47.8859 31.7552 47.8859 32.84H49.8859ZM50.3525 31.6571C50.6678 31.3933 51.1726 31.2 51.9909 31.2V29.2C50.8692 29.2 49.854 29.4667 49.0693 30.1229L50.3525 31.6571ZM51.9909 31.2H56.1909V29.2H51.9909V31.2ZM56.1909 31.2C56.2121 31.2 56.1806 31.2032 56.1184 31.1824C56.0501 31.1597 55.9444 31.1073 55.8485 30.9994L57.3433 29.6706C56.9872 29.27 56.5038 29.2 56.1909 29.2V31.2ZM55.9315 31.0824C55.8236 30.9865 55.7712 30.8808 55.7485 30.8125C55.7277 30.7503 55.7309 30.7188 55.7309 30.74H57.7309C57.7309 30.4271 57.6609 29.9437 57.2603 29.5876L55.9315 31.0824ZM55.7309 30.74V32.525H57.7309V30.74H55.7309ZM55.7309 32.525C55.7309 32.5792 55.7162 32.4105 55.8888 32.2379L57.303 33.6521C57.6556 33.2995 57.7309 32.8508 57.7309 32.525H55.7309ZM55.8888 32.2379C55.9921 32.1346 56.0967 32.0921 56.1506 32.0762C56.2011 32.0612 56.2209 32.065 56.1909 32.065V34.065C56.4763 34.065 56.9424 34.0128 57.303 33.6521L55.8888 32.2379ZM56.1909 32.065H52.6959V34.065H56.1909V32.065ZM52.6959 32.065C52.3064 32.065 51.8942 32.2162 51.6065 32.5861L53.1853 33.8139C53.1242 33.8924 53.0385 33.9635 52.9338 34.0107C52.8331 34.056 52.7465 34.065 52.6959 34.065V32.065ZM51.6433 32.5415C51.3803 32.8421 51.2909 33.1991 51.2909 33.515H53.2909C53.2909 33.5392 53.2877 33.5895 53.2658 33.655C53.2431 33.7232 53.2045 33.7945 53.1485 33.8585L51.6433 32.5415ZM51.2909 33.515C51.2909 33.8347 51.3812 34.1692 51.6065 34.4589L53.1853 33.2311C53.2236 33.2804 53.2523 33.3358 53.2701 33.3918C53.2874 33.4463 53.2909 33.4899 53.2909 33.515H51.2909ZM51.6065 34.4589C51.8751 34.8043 52.2528 34.9639 52.6192 34.9921L52.7726 32.9979C52.8154 33.0012 52.8873 33.0139 52.9706 33.0556C53.0569 33.0987 53.1305 33.1606 53.1853 33.2311L51.6065 34.4589ZM52.5629 34.9861L54.7979 35.2861L55.0639 33.3039L52.8289 33.0039L52.5629 34.9861ZM54.7895 35.2849C55.3528 35.3654 55.7297 35.5389 55.984 35.7518L57.2678 34.2182C56.6621 33.7111 55.909 33.4246 55.0723 33.3051L54.7895 35.2849ZM55.984 35.7518C56.0928 35.8429 56.2709 36.091 56.2709 36.785H58.2709C58.2709 35.799 58.019 34.8471 57.2678 34.2182L55.984 35.7518ZM56.2709 36.785V38.36H58.2709V36.785H56.2709ZM56.2709 38.36C56.2709 38.9684 56.0838 39.316 55.7962 39.5523L57.0656 41.0977C57.898 40.414 58.2709 39.4516 58.2709 38.36H56.2709ZM55.7977 39.551C55.4803 39.8107 54.976 40 54.1659 40V42C55.2758 42 56.2815 41.7393 57.0641 41.099L55.7977 39.551Z" fill="black" mask="url(#path-8-outside-1_2531_1144)"/>
</g>
<defs>
<filter id="filter0_d_2531_1144" x="10.1582" y="30.2002" width="47.1128" height="12.7998" filterUnits="userSpaceOnUse" color-interpolation-filters="sRGB">
<feFlood flood-opacity="0" result="BackgroundImageFix"/>
<feColorMatrix in="SourceAlpha" type="matrix" values="0 0 0 0 0 0 0 0 0 0 0 0 0 0 0 0 0 0 127 0" result="hardAlpha"/>
<feOffset dy="2"/>
<feComposite in2="hardAlpha" operator="out"/>
<feColorMatrix type="matrix" values="0 0 0 0 0 0 0 0 0 0 0 0 0 0 0 0 0 0 1 0"/>
<feBlend mode="normal" in2="BackgroundImageFix" result="effect1_dropShadow_2531_1144"/>
<feBlend mode="normal" in="SourceGraphic" in2="effect1_dropShadow_2531_1144" result="shape"/>
</filter>
<linearGradient id="paint0_linear_2531_1144" x1="34.1032" y1="56.6507" x2="34.1032" y2="70.1012" gradientUnits="userSpaceOnUse">
<stop stop-color="#2E0D68"/>
<stop offset="1" stop-color="#3E0B82"/>
</linearGradient>
<linearGradient id="paint1_linear_2531_1144" x1="25.5551" y1="64.6155" x2="25.5551" y2="3.69238" gradientUnits="userSpaceOnUse">
<stop stop-color="#F6E6F6"/>
<stop offset="1" stop-color="#D293FE"/>
</linearGradient>
<linearGradient id="paint2_linear_2531_1144" x1="4.59845" y1="8.04403" x2="12.6023" y2="10.046" gradientUnits="userSpaceOnUse">
<stop stop-color="white"/>
<stop offset="1" stop-color="white" stop-opacity="0"/>
</linearGradient>
<linearGradient id="paint3_linear_2531_1144" x1="40.4064" y1="15.1565" x2="40.4064" y2="47.1069" gradientUnits="userSpaceOnUse">
<stop stop-color="#E4ADFF"/>
<stop offset="1" stop-color="#D590FD"/>
</linearGradient>
</defs>
</svg>
