<svg width="228" height="50" viewBox="0 0 228 50" fill="none" xmlns="http://www.w3.org/2000/svg">
<rect width="228" height="50" rx="8" fill="black"/>
<rect x="2" y="6" width="224" height="42" rx="7" fill="url(#paint0_linear_2530_2301)"/>
<rect x="2" y="2" width="224" height="42" rx="7" fill="url(#paint1_linear_2530_2301)"/>
<rect x="2" y="2" width="224" height="42" rx="7" fill="url(#paint2_linear_2530_2301)"/>
<rect x="4" y="4" width="220" height="38" rx="6" fill="url(#paint3_linear_2530_2301)"/>
<ellipse cx="222.035" cy="39.9491" rx="1.70013" ry="1.13342" transform="rotate(-38.8351 222.035 39.9491)" fill="#FFE638"/>
<ellipse cx="6.03507" cy="5.94909" rx="1.70013" ry="1.13342" transform="rotate(-38.8351 6.03507 5.94909)" fill="#FFFEE2"/>
<g filter="url(#filter0_d_2530_2301)">
<mask id="path-8-outside-1_2530_2301" maskUnits="userSpaceOnUse" x="44" y="17" width="140" height="13" fill="black">
<rect fill="white" x="44" y="17" width="140" height="13"/>
<path d="M45.6231 29C45.4331 29 45.2931 28.96 45.2031 28.88C45.1231 28.79 45.0831 28.65 45.0831 28.46V26.675C45.0831 26.485 45.1231 26.35 45.2031 26.27C45.2931 26.18 45.4331 26.135 45.6231 26.135H47.1081V21.095H45.6231C45.4331 21.095 45.2931 21.055 45.2031 20.975C45.1231 20.885 45.0831 20.745 45.0831 20.555V18.74C45.0831 18.55 45.1231 18.415 45.2031 18.335C45.2931 18.245 45.4331 18.2 45.6231 18.2H52.0131C52.2031 18.2 52.3381 18.245 52.4181 18.335C52.5081 18.415 52.5531 18.55 52.5531 18.74V20.555C52.5531 20.745 52.5081 20.885 52.4181 20.975C52.3381 21.055 52.2031 21.095 52.0131 21.095H50.5581V26.135H52.0131C52.2031 26.135 52.3381 26.18 52.4181 26.27C52.5081 26.35 52.5531 26.485 52.5531 26.675V28.46C52.5531 28.65 52.5081 28.79 52.4181 28.88C52.3381 28.96 52.2031 29 52.0131 29H45.6231ZM57.1951 29H54.9451C54.7551 29 54.6151 28.96 54.5251 28.88C54.4451 28.79 54.4051 28.65 54.4051 28.46V18.74C54.4051 18.55 54.4451 18.415 54.5251 18.335C54.6151 18.245 54.7551 18.2 54.9451 18.2H56.5051C56.6951 18.2 56.8551 18.23 56.9851 18.29C57.1251 18.35 57.2601 18.455 57.3901 18.605L60.3001 21.935V18.74C60.3001 18.55 60.3401 18.415 60.4201 18.335C60.5101 18.245 60.6501 18.2 60.8401 18.2H63.0901C63.2801 18.2 63.4151 18.245 63.4951 18.335C63.5851 18.415 63.6301 18.55 63.6301 18.74V28.46C63.6301 28.65 63.5851 28.79 63.4951 28.88C63.4151 28.96 63.2801 29 63.0901 29H60.8401C60.6501 29 60.5101 28.96 60.4201 28.88C60.3401 28.79 60.3001 28.65 60.3001 28.46V26.615L57.7351 23.51V28.46C57.7351 28.65 57.6901 28.79 57.6001 28.88C57.5201 28.96 57.3851 29 57.1951 29ZM72.0891 29H68.1891C67.9991 29 67.8391 28.965 67.7091 28.895C67.5891 28.825 67.4941 28.695 67.4241 28.505L65.9541 24.83C65.8641 24.61 65.7891 24.42 65.7291 24.26C65.6691 24.09 65.6191 23.93 65.5791 23.78C65.5391 23.63 65.5091 23.475 65.4891 23.315C65.4791 23.145 65.4741 22.94 65.4741 22.7V18.74C65.4741 18.55 65.5141 18.415 65.5941 18.335C65.6841 18.245 65.8241 18.2 66.0141 18.2H68.3991C68.5891 18.2 68.7341 18.245 68.8341 18.335C68.9341 18.415 68.9841 18.55 68.9841 18.74V22.88C68.9841 22.98 68.9941 23.08 69.0141 23.18C69.0341 23.28 69.0641 23.385 69.1041 23.495L69.8091 25.595C69.8391 25.695 69.8741 25.765 69.9141 25.805C69.9541 25.835 70.0141 25.85 70.0941 25.85H70.2591C70.3391 25.85 70.3991 25.835 70.4391 25.805C70.4791 25.765 70.5141 25.695 70.5441 25.595L71.2491 23.48C71.2891 23.37 71.3191 23.265 71.3391 23.165C71.3591 23.065 71.3691 22.965 71.3691 22.865V18.74C71.3691 18.55 71.4091 18.415 71.4891 18.335C71.5791 18.245 71.7191 18.2 71.9091 18.2H74.2641C74.4541 18.2 74.5891 18.245 74.6691 18.335C74.7591 18.415 74.8041 18.55 74.8041 18.74V22.7C74.8041 22.94 74.7941 23.145 74.7741 23.315C74.7641 23.475 74.7391 23.63 74.6991 23.78C74.6591 23.93 74.6091 24.09 74.5491 24.26C74.4891 24.42 74.4141 24.61 74.3241 24.83L72.8541 28.505C72.7841 28.695 72.6841 28.825 72.5541 28.895C72.4341 28.965 72.2791 29 72.0891 29ZM76.9561 29C76.7661 29 76.6261 28.96 76.5361 28.88C76.4561 28.79 76.4161 28.65 76.4161 28.46V26.675C76.4161 26.485 76.4561 26.35 76.5361 26.27C76.6261 26.18 76.7661 26.135 76.9561 26.135H78.4411V21.095H76.9561C76.7661 21.095 76.6261 21.055 76.5361 20.975C76.4561 20.885 76.4161 20.745 76.4161 20.555V18.74C76.4161 18.55 76.4561 18.415 76.5361 18.335C76.6261 18.245 76.7661 18.2 76.9561 18.2H83.3461C83.5361 18.2 83.6711 18.245 83.7511 18.335C83.8411 18.415 83.8861 18.55 83.8861 18.74V20.555C83.8861 20.745 83.8411 20.885 83.7511 20.975C83.6711 21.055 83.5361 21.095 83.3461 21.095H81.8911V26.135H83.3461C83.5361 26.135 83.6711 26.18 83.7511 26.27C83.8411 26.35 83.8861 26.485 83.8861 26.675V28.46C83.8861 28.65 83.8411 28.79 83.7511 28.88C83.6711 28.96 83.5361 29 83.3461 29H76.9561ZM90.8381 29H88.4081C88.2181 29 88.0781 28.96 87.9881 28.88C87.9081 28.79 87.8681 28.65 87.8681 28.46V21.095H85.6631C85.4731 21.095 85.3331 21.055 85.2431 20.975C85.1631 20.885 85.1231 20.745 85.1231 20.555V18.74C85.1231 18.55 85.1631 18.415 85.2431 18.335C85.3331 18.245 85.4731 18.2 85.6631 18.2H93.5831C93.7731 18.2 93.9081 18.245 93.9881 18.335C94.0781 18.415 94.1231 18.55 94.1231 18.74V20.555C94.1231 20.745 94.0781 20.885 93.9881 20.975C93.9081 21.055 93.7731 21.095 93.5831 21.095H91.3781V28.46C91.3781 28.65 91.3331 28.79 91.2431 28.88C91.1631 28.96 91.0281 29 90.8381 29ZM103.082 29H96.1219C95.9319 29 95.7919 28.96 95.7019 28.88C95.6219 28.79 95.5819 28.65 95.5819 28.46V18.74C95.5819 18.55 95.6219 18.415 95.7019 18.335C95.7919 18.245 95.9319 18.2 96.1219 18.2H103.082C103.272 18.2 103.407 18.245 103.487 18.335C103.577 18.415 103.622 18.55 103.622 18.74V20.495C103.622 20.685 103.577 20.825 103.487 20.915C103.407 20.995 103.272 21.035 103.082 21.035H98.9419V22.19H101.867C102.057 22.19 102.192 22.235 102.272 22.325C102.362 22.405 102.407 22.54 102.407 22.73V24.335C102.407 24.525 102.362 24.665 102.272 24.755C102.192 24.835 102.057 24.875 101.867 24.875H98.9419V26.165H103.082C103.272 26.165 103.407 26.21 103.487 26.3C103.577 26.38 103.622 26.515 103.622 26.705V28.46C103.622 28.65 103.577 28.79 103.487 28.88C103.407 28.96 103.272 29 103.082 29ZM112.607 21.35L111.902 23.63H114.257L113.552 21.35C113.512 21.26 113.467 21.195 113.417 21.155C113.377 21.115 113.327 21.095 113.267 21.095H112.892C112.832 21.095 112.777 21.115 112.727 21.155C112.687 21.195 112.647 21.26 112.607 21.35ZM111.752 28.46C111.752 28.65 111.707 28.79 111.617 28.88C111.537 28.96 111.402 29 111.212 29H109.007C108.817 29 108.677 28.96 108.587 28.88C108.507 28.79 108.467 28.65 108.467 28.46V24.5C108.467 24.2 108.512 23.855 108.602 23.465C108.702 23.075 108.852 22.62 109.052 22.1L110.357 18.695C110.417 18.525 110.507 18.4 110.627 18.32C110.757 18.24 110.922 18.2 111.122 18.2H115.157C115.347 18.2 115.502 18.24 115.622 18.32C115.752 18.4 115.847 18.525 115.907 18.695L117.212 22.1C117.412 22.62 117.557 23.075 117.647 23.465C117.747 23.855 117.797 24.2 117.797 24.5V28.46C117.797 28.65 117.752 28.79 117.662 28.88C117.582 28.96 117.447 29 117.257 29H114.992C114.792 29 114.642 28.96 114.542 28.88C114.452 28.79 114.407 28.65 114.407 28.46V26.36H111.752V28.46ZM125.81 29H123.485C123.295 29 123.155 28.96 123.065 28.88C122.985 28.79 122.945 28.65 122.945 28.46V18.74C122.945 18.55 122.985 18.415 123.065 18.335C123.155 18.245 123.295 18.2 123.485 18.2H130.175C130.365 18.2 130.5 18.245 130.58 18.335C130.67 18.415 130.715 18.55 130.715 18.74V20.525C130.715 20.715 130.67 20.855 130.58 20.945C130.5 21.025 130.365 21.065 130.175 21.065H126.35V22.625H128.96C129.15 22.625 129.285 22.67 129.365 22.76C129.455 22.84 129.5 22.975 129.5 23.165V24.965C129.5 25.155 129.455 25.295 129.365 25.385C129.285 25.465 129.15 25.505 128.96 25.505H126.35V28.46C126.35 28.65 126.305 28.79 126.215 28.88C126.135 28.96 126 29 125.81 29ZM135.608 20.9V22.82H136.733C136.993 22.82 137.168 22.755 137.258 22.625C137.348 22.485 137.393 22.315 137.393 22.115V21.605C137.393 21.405 137.348 21.24 137.258 21.11C137.168 20.97 136.993 20.9 136.733 20.9H135.608ZM135.068 29H132.758C132.568 29 132.428 28.96 132.338 28.88C132.258 28.79 132.218 28.65 132.218 28.46V18.74C132.218 18.55 132.258 18.415 132.338 18.335C132.428 18.245 132.568 18.2 132.758 18.2H137.753C138.873 18.2 139.643 18.435 140.063 18.905C140.493 19.365 140.708 19.965 140.708 20.705V21.395C140.708 21.815 140.643 22.175 140.513 22.475C140.393 22.765 140.178 22.975 139.868 23.105C140.408 23.165 140.843 23.385 141.173 23.765C141.513 24.145 141.683 24.65 141.683 25.28V28.46C141.683 28.65 141.638 28.79 141.548 28.88C141.468 28.96 141.333 29 141.143 29H138.818C138.628 29 138.488 28.96 138.398 28.88C138.318 28.79 138.278 28.65 138.278 28.46V26.165C138.278 25.945 138.233 25.785 138.143 25.685C138.063 25.575 137.918 25.52 137.708 25.52H135.608V28.46C135.608 28.65 135.563 28.79 135.473 28.88C135.393 28.96 135.258 29 135.068 29ZM143.665 29C143.475 29 143.335 28.96 143.245 28.88C143.165 28.79 143.125 28.65 143.125 28.46V26.675C143.125 26.485 143.165 26.35 143.245 26.27C143.335 26.18 143.475 26.135 143.665 26.135H145.15V21.095H143.665C143.475 21.095 143.335 21.055 143.245 20.975C143.165 20.885 143.125 20.745 143.125 20.555V18.74C143.125 18.55 143.165 18.415 143.245 18.335C143.335 18.245 143.475 18.2 143.665 18.2H150.055C150.245 18.2 150.38 18.245 150.46 18.335C150.55 18.415 150.595 18.55 150.595 18.74V20.555C150.595 20.745 150.55 20.885 150.46 20.975C150.38 21.055 150.245 21.095 150.055 21.095H148.6V26.135H150.055C150.245 26.135 150.38 26.18 150.46 26.27C150.55 26.35 150.595 26.485 150.595 26.675V28.46C150.595 28.65 150.55 28.79 150.46 28.88C150.38 28.96 150.245 29 150.055 29H143.665ZM159.947 29H152.987C152.797 29 152.657 28.96 152.567 28.88C152.487 28.79 152.447 28.65 152.447 28.46V18.74C152.447 18.55 152.487 18.415 152.567 18.335C152.657 18.245 152.797 18.2 152.987 18.2H159.947C160.137 18.2 160.272 18.245 160.352 18.335C160.442 18.415 160.487 18.55 160.487 18.74V20.495C160.487 20.685 160.442 20.825 160.352 20.915C160.272 20.995 160.137 21.035 159.947 21.035H155.807V22.19H158.732C158.922 22.19 159.057 22.235 159.137 22.325C159.227 22.405 159.272 22.54 159.272 22.73V24.335C159.272 24.525 159.227 24.665 159.137 24.755C159.057 24.835 158.922 24.875 158.732 24.875H155.807V26.165H159.947C160.137 26.165 160.272 26.21 160.352 26.3C160.442 26.38 160.487 26.515 160.487 26.705V28.46C160.487 28.65 160.442 28.79 160.352 28.88C160.272 28.96 160.137 29 159.947 29ZM165.052 29H162.802C162.612 29 162.472 28.96 162.382 28.88C162.302 28.79 162.262 28.65 162.262 28.46V18.74C162.262 18.55 162.302 18.415 162.382 18.335C162.472 18.245 162.612 18.2 162.802 18.2H164.362C164.552 18.2 164.712 18.23 164.842 18.29C164.982 18.35 165.117 18.455 165.247 18.605L168.157 21.935V18.74C168.157 18.55 168.197 18.415 168.277 18.335C168.367 18.245 168.507 18.2 168.697 18.2H170.947C171.137 18.2 171.272 18.245 171.352 18.335C171.442 18.415 171.487 18.55 171.487 18.74V28.46C171.487 28.65 171.442 28.79 171.352 28.88C171.272 28.96 171.137 29 170.947 29H168.697C168.507 29 168.367 28.96 168.277 28.88C168.197 28.79 168.157 28.65 168.157 28.46V26.615L165.592 23.51V28.46C165.592 28.65 165.547 28.79 165.457 28.88C165.377 28.96 165.242 29 165.052 29ZM179.151 29H174.096C173.906 29 173.766 28.96 173.676 28.88C173.596 28.79 173.556 28.65 173.556 28.46V18.74C173.556 18.55 173.596 18.415 173.676 18.335C173.766 18.245 173.906 18.2 174.096 18.2H179.151C180.401 18.2 181.326 18.45 181.926 18.95C182.536 19.45 182.841 20.22 182.841 21.26V25.94C182.841 26.98 182.536 27.75 181.926 28.25C181.326 28.75 180.401 29 179.151 29ZM176.961 21.065V26.165H178.746C178.986 26.165 179.161 26.105 179.271 25.985C179.391 25.865 179.451 25.68 179.451 25.43V21.785C179.451 21.535 179.391 21.355 179.271 21.245C179.161 21.125 178.986 21.065 178.746 21.065H176.961Z"/>
</mask>
<path d="M45.6231 29C45.4331 29 45.2931 28.96 45.2031 28.88C45.1231 28.79 45.0831 28.65 45.0831 28.46V26.675C45.0831 26.485 45.1231 26.35 45.2031 26.27C45.2931 26.18 45.4331 26.135 45.6231 26.135H47.1081V21.095H45.6231C45.4331 21.095 45.2931 21.055 45.2031 20.975C45.1231 20.885 45.0831 20.745 45.0831 20.555V18.74C45.0831 18.55 45.1231 18.415 45.2031 18.335C45.2931 18.245 45.4331 18.2 45.6231 18.2H52.0131C52.2031 18.2 52.3381 18.245 52.4181 18.335C52.5081 18.415 52.5531 18.55 52.5531 18.74V20.555C52.5531 20.745 52.5081 20.885 52.4181 20.975C52.3381 21.055 52.2031 21.095 52.0131 21.095H50.5581V26.135H52.0131C52.2031 26.135 52.3381 26.18 52.4181 26.27C52.5081 26.35 52.5531 26.485 52.5531 26.675V28.46C52.5531 28.65 52.5081 28.79 52.4181 28.88C52.3381 28.96 52.2031 29 52.0131 29H45.6231ZM57.1951 29H54.9451C54.7551 29 54.6151 28.96 54.5251 28.88C54.4451 28.79 54.4051 28.65 54.4051 28.46V18.74C54.4051 18.55 54.4451 18.415 54.5251 18.335C54.6151 18.245 54.7551 18.2 54.9451 18.2H56.5051C56.6951 18.2 56.8551 18.23 56.9851 18.29C57.1251 18.35 57.2601 18.455 57.3901 18.605L60.3001 21.935V18.74C60.3001 18.55 60.3401 18.415 60.4201 18.335C60.5101 18.245 60.6501 18.2 60.8401 18.2H63.0901C63.2801 18.2 63.4151 18.245 63.4951 18.335C63.5851 18.415 63.6301 18.55 63.6301 18.74V28.46C63.6301 28.65 63.5851 28.79 63.4951 28.88C63.4151 28.96 63.2801 29 63.0901 29H60.8401C60.6501 29 60.5101 28.96 60.4201 28.88C60.3401 28.79 60.3001 28.65 60.3001 28.46V26.615L57.7351 23.51V28.46C57.7351 28.65 57.6901 28.79 57.6001 28.88C57.5201 28.96 57.3851 29 57.1951 29ZM72.0891 29H68.1891C67.9991 29 67.8391 28.965 67.7091 28.895C67.5891 28.825 67.4941 28.695 67.4241 28.505L65.9541 24.83C65.8641 24.61 65.7891 24.42 65.7291 24.26C65.6691 24.09 65.6191 23.93 65.5791 23.78C65.5391 23.63 65.5091 23.475 65.4891 23.315C65.4791 23.145 65.4741 22.94 65.4741 22.7V18.74C65.4741 18.55 65.5141 18.415 65.5941 18.335C65.6841 18.245 65.8241 18.2 66.0141 18.2H68.3991C68.5891 18.2 68.7341 18.245 68.8341 18.335C68.9341 18.415 68.9841 18.55 68.9841 18.74V22.88C68.9841 22.98 68.9941 23.08 69.0141 23.18C69.0341 23.28 69.0641 23.385 69.1041 23.495L69.8091 25.595C69.8391 25.695 69.8741 25.765 69.9141 25.805C69.9541 25.835 70.0141 25.85 70.0941 25.85H70.2591C70.3391 25.85 70.3991 25.835 70.4391 25.805C70.4791 25.765 70.5141 25.695 70.5441 25.595L71.2491 23.48C71.2891 23.37 71.3191 23.265 71.3391 23.165C71.3591 23.065 71.3691 22.965 71.3691 22.865V18.74C71.3691 18.55 71.4091 18.415 71.4891 18.335C71.5791 18.245 71.7191 18.2 71.9091 18.2H74.2641C74.4541 18.2 74.5891 18.245 74.6691 18.335C74.7591 18.415 74.8041 18.55 74.8041 18.74V22.7C74.8041 22.94 74.7941 23.145 74.7741 23.315C74.7641 23.475 74.7391 23.63 74.6991 23.78C74.6591 23.93 74.6091 24.09 74.5491 24.26C74.4891 24.42 74.4141 24.61 74.3241 24.83L72.8541 28.505C72.7841 28.695 72.6841 28.825 72.5541 28.895C72.4341 28.965 72.2791 29 72.0891 29ZM76.9561 29C76.7661 29 76.6261 28.96 76.5361 28.88C76.4561 28.79 76.4161 28.65 76.4161 28.46V26.675C76.4161 26.485 76.4561 26.35 76.5361 26.27C76.6261 26.18 76.7661 26.135 76.9561 26.135H78.4411V21.095H76.9561C76.7661 21.095 76.6261 21.055 76.5361 20.975C76.4561 20.885 76.4161 20.745 76.4161 20.555V18.74C76.4161 18.55 76.4561 18.415 76.5361 18.335C76.6261 18.245 76.7661 18.2 76.9561 18.2H83.3461C83.5361 18.2 83.6711 18.245 83.7511 18.335C83.8411 18.415 83.8861 18.55 83.8861 18.74V20.555C83.8861 20.745 83.8411 20.885 83.7511 20.975C83.6711 21.055 83.5361 21.095 83.3461 21.095H81.8911V26.135H83.3461C83.5361 26.135 83.6711 26.18 83.7511 26.27C83.8411 26.35 83.8861 26.485 83.8861 26.675V28.46C83.8861 28.65 83.8411 28.79 83.7511 28.88C83.6711 28.96 83.5361 29 83.3461 29H76.9561ZM90.8381 29H88.4081C88.2181 29 88.0781 28.96 87.9881 28.88C87.9081 28.79 87.8681 28.65 87.8681 28.46V21.095H85.6631C85.4731 21.095 85.3331 21.055 85.2431 20.975C85.1631 20.885 85.1231 20.745 85.1231 20.555V18.74C85.1231 18.55 85.1631 18.415 85.2431 18.335C85.3331 18.245 85.4731 18.2 85.6631 18.2H93.5831C93.7731 18.2 93.9081 18.245 93.9881 18.335C94.0781 18.415 94.1231 18.55 94.1231 18.74V20.555C94.1231 20.745 94.0781 20.885 93.9881 20.975C93.9081 21.055 93.7731 21.095 93.5831 21.095H91.3781V28.46C91.3781 28.65 91.3331 28.79 91.2431 28.88C91.1631 28.96 91.0281 29 90.8381 29ZM103.082 29H96.1219C95.9319 29 95.7919 28.96 95.7019 28.88C95.6219 28.79 95.5819 28.65 95.5819 28.46V18.74C95.5819 18.55 95.6219 18.415 95.7019 18.335C95.7919 18.245 95.9319 18.2 96.1219 18.2H103.082C103.272 18.2 103.407 18.245 103.487 18.335C103.577 18.415 103.622 18.55 103.622 18.74V20.495C103.622 20.685 103.577 20.825 103.487 20.915C103.407 20.995 103.272 21.035 103.082 21.035H98.9419V22.19H101.867C102.057 22.19 102.192 22.235 102.272 22.325C102.362 22.405 102.407 22.54 102.407 22.73V24.335C102.407 24.525 102.362 24.665 102.272 24.755C102.192 24.835 102.057 24.875 101.867 24.875H98.9419V26.165H103.082C103.272 26.165 103.407 26.21 103.487 26.3C103.577 26.38 103.622 26.515 103.622 26.705V28.46C103.622 28.65 103.577 28.79 103.487 28.88C103.407 28.96 103.272 29 103.082 29ZM112.607 21.35L111.902 23.63H114.257L113.552 21.35C113.512 21.26 113.467 21.195 113.417 21.155C113.377 21.115 113.327 21.095 113.267 21.095H112.892C112.832 21.095 112.777 21.115 112.727 21.155C112.687 21.195 112.647 21.26 112.607 21.35ZM111.752 28.46C111.752 28.65 111.707 28.79 111.617 28.88C111.537 28.96 111.402 29 111.212 29H109.007C108.817 29 108.677 28.96 108.587 28.88C108.507 28.79 108.467 28.65 108.467 28.46V24.5C108.467 24.2 108.512 23.855 108.602 23.465C108.702 23.075 108.852 22.62 109.052 22.1L110.357 18.695C110.417 18.525 110.507 18.4 110.627 18.32C110.757 18.24 110.922 18.2 111.122 18.2H115.157C115.347 18.2 115.502 18.24 115.622 18.32C115.752 18.4 115.847 18.525 115.907 18.695L117.212 22.1C117.412 22.62 117.557 23.075 117.647 23.465C117.747 23.855 117.797 24.2 117.797 24.5V28.46C117.797 28.65 117.752 28.79 117.662 28.88C117.582 28.96 117.447 29 117.257 29H114.992C114.792 29 114.642 28.96 114.542 28.88C114.452 28.79 114.407 28.65 114.407 28.46V26.36H111.752V28.46ZM125.81 29H123.485C123.295 29 123.155 28.96 123.065 28.88C122.985 28.79 122.945 28.65 122.945 28.46V18.74C122.945 18.55 122.985 18.415 123.065 18.335C123.155 18.245 123.295 18.2 123.485 18.2H130.175C130.365 18.2 130.5 18.245 130.58 18.335C130.67 18.415 130.715 18.55 130.715 18.74V20.525C130.715 20.715 130.67 20.855 130.58 20.945C130.5 21.025 130.365 21.065 130.175 21.065H126.35V22.625H128.96C129.15 22.625 129.285 22.67 129.365 22.76C129.455 22.84 129.5 22.975 129.5 23.165V24.965C129.5 25.155 129.455 25.295 129.365 25.385C129.285 25.465 129.15 25.505 128.96 25.505H126.35V28.46C126.35 28.65 126.305 28.79 126.215 28.88C126.135 28.96 126 29 125.81 29ZM135.608 20.9V22.82H136.733C136.993 22.82 137.168 22.755 137.258 22.625C137.348 22.485 137.393 22.315 137.393 22.115V21.605C137.393 21.405 137.348 21.24 137.258 21.11C137.168 20.97 136.993 20.9 136.733 20.9H135.608ZM135.068 29H132.758C132.568 29 132.428 28.96 132.338 28.88C132.258 28.79 132.218 28.65 132.218 28.46V18.74C132.218 18.55 132.258 18.415 132.338 18.335C132.428 18.245 132.568 18.2 132.758 18.2H137.753C138.873 18.2 139.643 18.435 140.063 18.905C140.493 19.365 140.708 19.965 140.708 20.705V21.395C140.708 21.815 140.643 22.175 140.513 22.475C140.393 22.765 140.178 22.975 139.868 23.105C140.408 23.165 140.843 23.385 141.173 23.765C141.513 24.145 141.683 24.65 141.683 25.28V28.46C141.683 28.65 141.638 28.79 141.548 28.88C141.468 28.96 141.333 29 141.143 29H138.818C138.628 29 138.488 28.96 138.398 28.88C138.318 28.79 138.278 28.65 138.278 28.46V26.165C138.278 25.945 138.233 25.785 138.143 25.685C138.063 25.575 137.918 25.52 137.708 25.52H135.608V28.46C135.608 28.65 135.563 28.79 135.473 28.88C135.393 28.96 135.258 29 135.068 29ZM143.665 29C143.475 29 143.335 28.96 143.245 28.88C143.165 28.79 143.125 28.65 143.125 28.46V26.675C143.125 26.485 143.165 26.35 143.245 26.27C143.335 26.18 143.475 26.135 143.665 26.135H145.15V21.095H143.665C143.475 21.095 143.335 21.055 143.245 20.975C143.165 20.885 143.125 20.745 143.125 20.555V18.74C143.125 18.55 143.165 18.415 143.245 18.335C143.335 18.245 143.475 18.2 143.665 18.2H150.055C150.245 18.2 150.38 18.245 150.46 18.335C150.55 18.415 150.595 18.55 150.595 18.74V20.555C150.595 20.745 150.55 20.885 150.46 20.975C150.38 21.055 150.245 21.095 150.055 21.095H148.6V26.135H150.055C150.245 26.135 150.38 26.18 150.46 26.27C150.55 26.35 150.595 26.485 150.595 26.675V28.46C150.595 28.65 150.55 28.79 150.46 28.88C150.38 28.96 150.245 29 150.055 29H143.665ZM159.947 29H152.987C152.797 29 152.657 28.96 152.567 28.88C152.487 28.79 152.447 28.65 152.447 28.46V18.74C152.447 18.55 152.487 18.415 152.567 18.335C152.657 18.245 152.797 18.2 152.987 18.2H159.947C160.137 18.2 160.272 18.245 160.352 18.335C160.442 18.415 160.487 18.55 160.487 18.74V20.495C160.487 20.685 160.442 20.825 160.352 20.915C160.272 20.995 160.137 21.035 159.947 21.035H155.807V22.19H158.732C158.922 22.19 159.057 22.235 159.137 22.325C159.227 22.405 159.272 22.54 159.272 22.73V24.335C159.272 24.525 159.227 24.665 159.137 24.755C159.057 24.835 158.922 24.875 158.732 24.875H155.807V26.165H159.947C160.137 26.165 160.272 26.21 160.352 26.3C160.442 26.38 160.487 26.515 160.487 26.705V28.46C160.487 28.65 160.442 28.79 160.352 28.88C160.272 28.96 160.137 29 159.947 29ZM165.052 29H162.802C162.612 29 162.472 28.96 162.382 28.88C162.302 28.79 162.262 28.65 162.262 28.46V18.74C162.262 18.55 162.302 18.415 162.382 18.335C162.472 18.245 162.612 18.2 162.802 18.2H164.362C164.552 18.2 164.712 18.23 164.842 18.29C164.982 18.35 165.117 18.455 165.247 18.605L168.157 21.935V18.74C168.157 18.55 168.197 18.415 168.277 18.335C168.367 18.245 168.507 18.2 168.697 18.2H170.947C171.137 18.2 171.272 18.245 171.352 18.335C171.442 18.415 171.487 18.55 171.487 18.74V28.46C171.487 28.65 171.442 28.79 171.352 28.88C171.272 28.96 171.137 29 170.947 29H168.697C168.507 29 168.367 28.96 168.277 28.88C168.197 28.79 168.157 28.65 168.157 28.46V26.615L165.592 23.51V28.46C165.592 28.65 165.547 28.79 165.457 28.88C165.377 28.96 165.242 29 165.052 29ZM179.151 29H174.096C173.906 29 173.766 28.96 173.676 28.88C173.596 28.79 173.556 28.65 173.556 28.46V18.74C173.556 18.55 173.596 18.415 173.676 18.335C173.766 18.245 173.906 18.2 174.096 18.2H179.151C180.401 18.2 181.326 18.45 181.926 18.95C182.536 19.45 182.841 20.22 182.841 21.26V25.94C182.841 26.98 182.536 27.75 181.926 28.25C181.326 28.75 180.401 29 179.151 29ZM176.961 21.065V26.165H178.746C178.986 26.165 179.161 26.105 179.271 25.985C179.391 25.865 179.451 25.68 179.451 25.43V21.785C179.451 21.535 179.391 21.355 179.271 21.245C179.161 21.125 178.986 21.065 178.746 21.065H176.961Z" fill="white"/>
<path d="M45.2031 28.88L44.4557 29.5444L44.4948 29.5883L44.5387 29.6274L45.2031 28.88ZM45.2031 26.27L45.9102 26.9771L45.9102 26.9771L45.2031 26.27ZM47.1081 26.135V27.135H48.1081V26.135H47.1081ZM47.1081 21.095H48.1081V20.095H47.1081V21.095ZM45.2031 20.975L44.4557 21.6394L44.4948 21.6833L44.5387 21.7224L45.2031 20.975ZM45.2031 18.335L44.496 17.6279L44.496 17.6279L45.2031 18.335ZM52.4181 18.335L51.6707 18.9994L51.7098 19.0433L51.7537 19.0824L52.4181 18.335ZM52.4181 20.975L53.1252 21.6821L53.1252 21.6821L52.4181 20.975ZM50.5581 21.095V20.095H49.5581V21.095H50.5581ZM50.5581 26.135H49.5581V27.135H50.5581V26.135ZM52.4181 26.27L51.6707 26.9344L51.7098 26.9783L51.7537 27.0174L52.4181 26.27ZM52.4181 28.88L53.1252 29.5871L53.1252 29.5871L52.4181 28.88ZM45.6231 28C45.5944 28 45.6086 27.9966 45.6503 28.0085C45.6949 28.0212 45.7793 28.0542 45.8674 28.1326L44.5387 29.6274C44.8922 29.9416 45.3229 30 45.6231 30V28ZM45.9505 28.2156C46.0289 28.3038 46.0619 28.3882 46.0746 28.4328C46.0865 28.4745 46.0831 28.4887 46.0831 28.46H44.0831C44.0831 28.7602 44.1415 29.1909 44.4557 29.5444L45.9505 28.2156ZM46.0831 28.46V26.675H44.0831V28.46H46.0831ZM46.0831 26.675C46.0831 26.645 46.0868 26.6648 46.0719 26.7153C46.0559 26.7692 46.0135 26.8738 45.9102 26.9771L44.496 25.5629C44.1353 25.9235 44.0831 26.3896 44.0831 26.675H46.0831ZM45.9102 26.9771C45.7376 27.1497 45.5689 27.135 45.6231 27.135V25.135C45.2973 25.135 44.8486 25.2103 44.496 25.5629L45.9102 26.9771ZM45.6231 27.135H47.1081V25.135H45.6231V27.135ZM48.1081 26.135V21.095H46.1081V26.135H48.1081ZM47.1081 20.095H45.6231V22.095H47.1081V20.095ZM45.6231 20.095C45.5944 20.095 45.6086 20.0916 45.6503 20.1035C45.6949 20.1162 45.7793 20.1492 45.8675 20.2276L44.5387 21.7224C44.8922 22.0366 45.3229 22.095 45.6231 22.095V20.095ZM45.9505 20.3106C46.0289 20.3988 46.0619 20.4832 46.0746 20.5278C46.0865 20.5695 46.0831 20.5837 46.0831 20.555H44.0831C44.0831 20.8552 44.1415 21.2859 44.4557 21.6394L45.9505 20.3106ZM46.0831 20.555V18.74H44.0831V20.555H46.0831ZM46.0831 18.74C46.0831 18.71 46.0868 18.7298 46.0719 18.7803C46.0559 18.8342 46.0135 18.9388 45.9102 19.0421L44.496 17.6279C44.1353 17.9885 44.0831 18.4546 44.0831 18.74H46.0831ZM45.9102 19.0421C45.7376 19.2147 45.5689 19.2 45.6231 19.2V17.2C45.2973 17.2 44.8486 17.2753 44.496 17.6279L45.9102 19.0421ZM45.6231 19.2H52.0131V17.2H45.6231V19.2ZM52.0131 19.2C52.0343 19.2 52.0028 19.2032 51.9406 19.1824C51.8723 19.1597 51.7666 19.1073 51.6707 18.9994L53.1655 17.6706C52.8093 17.27 52.326 17.2 52.0131 17.2V19.2ZM51.7537 19.0824C51.6458 18.9865 51.5934 18.8808 51.5707 18.8125C51.5499 18.7503 51.5531 18.7188 51.5531 18.74H53.5531C53.5531 18.4271 53.4831 17.9437 53.0825 17.5876L51.7537 19.0824ZM51.5531 18.74V20.555H53.5531V18.74H51.5531ZM51.5531 20.555C51.5531 20.6092 51.5384 20.4405 51.711 20.2679L53.1252 21.6821C53.4778 21.3295 53.5531 20.8808 53.5531 20.555H51.5531ZM51.711 20.2679C51.8142 20.1646 51.9189 20.1221 51.9727 20.1062C52.0233 20.0912 52.0431 20.095 52.0131 20.095V22.095C52.2985 22.095 52.7645 22.0428 53.1252 21.6821L51.711 20.2679ZM52.0131 20.095H50.5581V22.095H52.0131V20.095ZM49.5581 21.095V26.135H51.5581V21.095H49.5581ZM50.5581 27.135H52.0131V25.135H50.5581V27.135ZM52.0131 27.135C52.0343 27.135 52.0028 27.1382 51.9406 27.1174C51.8723 27.0947 51.7666 27.0423 51.6707 26.9344L53.1655 25.6056C52.8093 25.205 52.326 25.135 52.0131 25.135V27.135ZM51.7537 27.0174C51.6458 26.9215 51.5934 26.8158 51.5707 26.7475C51.5499 26.6853 51.5531 26.6538 51.5531 26.675H53.5531C53.5531 26.3621 53.4831 25.8787 53.0825 25.5226L51.7537 27.0174ZM51.5531 26.675V28.46H53.5531V26.675H51.5531ZM51.5531 28.46C51.5531 28.5142 51.5384 28.3455 51.711 28.1729L53.1252 29.5871C53.4778 29.2345 53.5531 28.7858 53.5531 28.46H51.5531ZM51.711 28.1729C51.8142 28.0696 51.9189 28.0271 51.9727 28.0112C52.0233 27.9962 52.0431 28 52.0131 28V30C52.2985 30 52.7645 29.9478 53.1252 29.5871L51.711 28.1729ZM52.0131 28H45.6231V30H52.0131V28ZM54.5251 28.88L53.7777 29.5444L53.8168 29.5883L53.8608 29.6274L54.5251 28.88ZM54.5251 18.335L53.818 17.6279L53.818 17.6279L54.5251 18.335ZM56.9851 18.29L56.5661 19.198L56.5786 19.2037L56.5912 19.2091L56.9851 18.29ZM57.3901 18.605L56.6344 19.2599L56.6371 19.263L57.3901 18.605ZM60.3001 21.935L59.5471 22.593L61.3001 24.599V21.935H60.3001ZM63.4951 18.335L62.7477 18.9994L62.7868 19.0433L62.8308 19.0824L63.4951 18.335ZM63.4951 28.88L62.788 28.1729L62.788 28.1729L63.4951 28.88ZM60.4201 28.88L59.6727 29.5444L59.7118 29.5883L59.7558 29.6274L60.4201 28.88ZM60.3001 26.615H61.3001V26.2554L61.0711 25.9781L60.3001 26.615ZM57.7351 23.51L58.5061 22.8731L56.7351 20.7293V23.51H57.7351ZM57.6001 28.88L56.893 28.1729L57.6001 28.88ZM57.1951 28H54.9451V30H57.1951V28ZM54.9451 28C54.9164 28 54.9306 27.9966 54.9723 28.0085C55.0169 28.0212 55.1013 28.0542 55.1895 28.1326L53.8608 29.6274C54.2142 29.9416 54.6449 30 54.9451 30V28ZM55.2725 28.2156C55.3509 28.3038 55.3839 28.3882 55.3966 28.4328C55.4086 28.4745 55.4051 28.4887 55.4051 28.46H53.4051C53.4051 28.7602 53.4635 29.1909 53.7777 29.5444L55.2725 28.2156ZM55.4051 28.46V18.74H53.4051V28.46H55.4051ZM55.4051 18.74C55.4051 18.71 55.4089 18.7298 55.3939 18.7803C55.378 18.8342 55.3355 18.9388 55.2322 19.0421L53.818 17.6279C53.4574 17.9885 53.4051 18.4546 53.4051 18.74H55.4051ZM55.2322 19.0421C55.0596 19.2147 54.8909 19.2 54.9451 19.2V17.2C54.6193 17.2 54.1706 17.2753 53.818 17.6279L55.2322 19.0421ZM54.9451 19.2H56.5051V17.2H54.9451V19.2ZM56.5051 19.2C56.5483 19.2 56.5732 19.2035 56.5833 19.2054C56.5931 19.2072 56.5853 19.2069 56.5661 19.198L57.4042 17.382C57.1072 17.245 56.7947 17.2 56.5051 17.2V19.2ZM56.5912 19.2091C56.5737 19.2016 56.5693 19.1968 56.5774 19.2031C56.586 19.2098 56.6055 19.2266 56.6344 19.2599L58.1458 17.9501C57.9456 17.7191 57.6936 17.5057 57.379 17.3709L56.5912 19.2091ZM56.6371 19.263L59.5471 22.593L61.0531 21.277L58.1431 17.947L56.6371 19.263ZM61.3001 21.935V18.74H59.3001V21.935H61.3001ZM61.3001 18.74C61.3001 18.71 61.3039 18.7298 61.2889 18.7803C61.273 18.8342 61.2305 18.9388 61.1272 19.0421L59.713 17.6279C59.3524 17.9885 59.3001 18.4546 59.3001 18.74H61.3001ZM61.1272 19.0421C60.9546 19.2147 60.7859 19.2 60.8401 19.2V17.2C60.5143 17.2 60.0656 17.2753 59.713 17.6279L61.1272 19.0421ZM60.8401 19.2H63.0901V17.2H60.8401V19.2ZM63.0901 19.2C63.1113 19.2 63.0798 19.2032 63.0176 19.1824C62.9494 19.1597 62.8436 19.1073 62.7477 18.9994L64.2425 17.6706C63.8864 17.27 63.403 17.2 63.0901 17.2V19.2ZM62.8308 19.0824C62.7228 18.9865 62.6704 18.8808 62.6477 18.8125C62.627 18.7503 62.6301 18.7188 62.6301 18.74H64.6301C64.6301 18.4271 64.5602 17.9437 64.1595 17.5876L62.8308 19.0824ZM62.6301 18.74V28.46H64.6301V18.74H62.6301ZM62.6301 28.46C62.6301 28.5142 62.6154 28.3455 62.788 28.1729L64.2022 29.5871C64.5548 29.2345 64.6301 28.7858 64.6301 28.46H62.6301ZM62.788 28.1729C62.8913 28.0696 62.996 28.0271 63.0498 28.0112C63.1003 27.9962 63.1201 28 63.0901 28V30C63.3755 30 63.8416 29.9478 64.2022 29.5871L62.788 28.1729ZM63.0901 28H60.8401V30H63.0901V28ZM60.8401 28C60.8114 28 60.8256 27.9966 60.8673 28.0085C60.9119 28.0212 60.9963 28.0542 61.0845 28.1326L59.7558 29.6274C60.1092 29.9416 60.5399 30 60.8401 30V28ZM61.1675 28.2156C61.2459 28.3038 61.2789 28.3882 61.2916 28.4328C61.3036 28.4745 61.3001 28.4887 61.3001 28.46H59.3001C59.3001 28.7602 59.3585 29.1909 59.6727 29.5444L61.1675 28.2156ZM61.3001 28.46V26.615H59.3001V28.46H61.3001ZM61.0711 25.9781L58.5061 22.8731L56.9642 24.1469L59.5292 27.2519L61.0711 25.9781ZM56.7351 23.51V28.46H58.7351V23.51H56.7351ZM56.7351 28.46C56.7351 28.5142 56.7204 28.3455 56.893 28.1729L58.3072 29.5871C58.6598 29.2345 58.7351 28.7858 58.7351 28.46H56.7351ZM56.893 28.1729C56.9963 28.0696 57.101 28.0271 57.1548 28.0112C57.2053 27.9962 57.2251 28 57.1951 28V30C57.4805 30 57.9466 29.9478 58.3072 29.5871L56.893 28.1729ZM67.7091 28.895L67.2052 29.7588L67.2199 29.7674L67.235 29.7755L67.7091 28.895ZM67.4241 28.505L68.3624 28.1593L68.3576 28.1464L68.3525 28.1336L67.4241 28.505ZM65.9541 24.83L66.8826 24.4586L66.8796 24.4514L65.9541 24.83ZM65.7291 24.26L64.7861 24.5928L64.7893 24.602L64.7927 24.6111L65.7291 24.26ZM65.5791 23.78L66.5453 23.5223V23.5223L65.5791 23.78ZM65.4891 23.315L64.4908 23.3737L64.4927 23.4065L64.4968 23.439L65.4891 23.315ZM65.5941 18.335L64.887 17.6279V17.6279L65.5941 18.335ZM68.8341 18.335L68.1651 19.0783L68.1867 19.0977L68.2094 19.1159L68.8341 18.335ZM69.0141 23.18L68.0335 23.3761V23.3761L69.0141 23.18ZM69.1041 23.495L70.0521 23.1767L70.0481 23.1649L70.0439 23.1533L69.1041 23.495ZM69.8091 25.595L70.7669 25.3077L70.7622 25.2921L70.7571 25.2767L69.8091 25.595ZM69.9141 25.805L69.207 26.5121L69.2572 26.5624L69.3141 26.605L69.9141 25.805ZM70.4391 25.805L71.0391 26.605L71.0959 26.5624L71.1462 26.5121L70.4391 25.805ZM70.5441 25.595L69.5954 25.2788L69.5906 25.2931L69.5862 25.3077L70.5441 25.595ZM71.2491 23.48L70.3093 23.1383L70.3047 23.151L70.3004 23.1638L71.2491 23.48ZM71.3391 23.165L70.3585 22.9689V22.9689L71.3391 23.165ZM71.4891 18.335L70.782 17.6279L70.782 17.6279L71.4891 18.335ZM74.6691 18.335L73.9217 18.9994L73.9607 19.0433L74.0047 19.0824L74.6691 18.335ZM74.7741 23.315L73.7809 23.1982L73.7777 23.2253L73.776 23.2526L74.7741 23.315ZM74.6991 23.78L73.7328 23.5223V23.5223L74.6991 23.78ZM74.5491 24.26L75.4854 24.6111L75.4888 24.602L75.4921 24.5928L74.5491 24.26ZM74.3241 24.83L73.3985 24.4514L73.3956 24.4586L74.3241 24.83ZM72.8541 28.505L71.9256 28.1336L71.9205 28.1464L71.9157 28.1593L72.8541 28.505ZM72.5541 28.895L72.08 28.0145L72.0649 28.0226L72.0502 28.0312L72.5541 28.895ZM72.0891 28H68.1891V30H72.0891V28ZM68.1891 28C68.1548 28 68.14 27.9968 68.1403 27.9969C68.1413 27.9971 68.1579 28.0009 68.1832 28.0145L67.235 29.7755C67.5465 29.9432 67.8798 30 68.1891 30V28ZM68.2129 28.0312C68.2893 28.0758 68.3343 28.1263 68.3552 28.155C68.3744 28.1813 68.3732 28.1885 68.3624 28.1593L66.4857 28.8507C66.6003 29.1616 66.8105 29.5286 67.2052 29.7588L68.2129 28.0312ZM68.3525 28.1336L66.8825 24.4586L65.0256 25.2014L66.4956 28.8764L68.3525 28.1336ZM66.8796 24.4514C66.792 24.2373 66.7209 24.0569 66.6654 23.9089L64.7927 24.6111C64.8572 24.7831 64.9361 24.9827 65.0285 25.2086L66.8796 24.4514ZM66.6721 23.9272C66.6194 23.7781 66.5776 23.6433 66.5453 23.5223L64.6128 24.0377C64.6606 24.2167 64.7187 24.4019 64.7861 24.5928L66.6721 23.9272ZM66.5453 23.5223C66.5174 23.4179 66.4959 23.3076 66.4813 23.191L64.4968 23.439C64.5222 23.6424 64.5607 23.8421 64.6128 24.0377L66.5453 23.5223ZM66.4873 23.2563C66.4788 23.1119 66.4741 22.9276 66.4741 22.7H64.4741C64.4741 22.9524 64.4793 23.1781 64.4908 23.3737L66.4873 23.2563ZM66.4741 22.7V18.74H64.4741V22.7H66.4741ZM66.4741 18.74C66.4741 18.71 66.4778 18.7298 66.4629 18.7803C66.4469 18.8342 66.4044 18.9388 66.3012 19.0421L64.887 17.6279C64.5263 17.9885 64.4741 18.4546 64.4741 18.74H66.4741ZM66.3012 19.0421C66.1286 19.2147 65.9599 19.2 66.0141 19.2V17.2C65.6882 17.2 65.2396 17.2753 64.887 17.6279L66.3012 19.0421ZM66.0141 19.2H68.3991V17.2H66.0141V19.2ZM68.3991 19.2C68.4435 19.2 68.3123 19.2107 68.1651 19.0783L69.503 17.5917C69.1559 17.2793 68.7347 17.2 68.3991 17.2V19.2ZM68.2094 19.1159C68.1006 19.0288 68.0389 18.9247 68.0088 18.8436C67.9818 18.7707 67.9841 18.7278 67.9841 18.74H69.9841C69.9841 18.3975 69.8932 17.9017 69.4588 17.5541L68.2094 19.1159ZM67.9841 18.74V22.88H69.9841V18.74H67.9841ZM67.9841 22.88C67.9841 23.0471 68.0008 23.2128 68.0335 23.3761L69.9946 22.9839C69.9873 22.9472 69.9841 22.9129 69.9841 22.88H67.9841ZM68.0335 23.3761C68.0647 23.5322 68.1095 23.6861 68.1643 23.8367L70.0439 23.1533C70.0186 23.0839 70.0034 23.0278 69.9946 22.9839L68.0335 23.3761ZM68.1561 23.8133L68.8611 25.9133L70.7571 25.2767L70.0521 23.1767L68.1561 23.8133ZM68.8512 25.8823C68.8949 26.0279 68.9881 26.2932 69.207 26.5121L70.6212 25.0979C70.7001 25.1768 70.7387 25.2482 70.7522 25.2753C70.7673 25.3054 70.7705 25.3196 70.7669 25.3077L68.8512 25.8823ZM69.3141 26.605C69.6035 26.822 69.9179 26.85 70.0941 26.85V24.85C70.1133 24.85 70.1631 24.8515 70.2316 24.8686C70.3012 24.886 70.4054 24.9235 70.5141 25.005L69.3141 26.605ZM70.0941 26.85H70.2591V24.85H70.0941V26.85ZM70.2591 26.85C70.4352 26.85 70.7497 26.822 71.0391 26.605L69.8391 25.005C69.9477 24.9235 70.0519 24.886 70.1215 24.8686C70.1901 24.8515 70.2398 24.85 70.2591 24.85V26.85ZM71.1462 26.5121C71.3651 26.2932 71.4582 26.0279 71.5019 25.8823L69.5862 25.3077C69.5826 25.3196 69.5858 25.3054 69.6009 25.2753C69.6144 25.2482 69.653 25.1768 69.732 25.0979L71.1462 26.5121ZM71.4927 25.9112L72.1977 23.7962L70.3004 23.1638L69.5954 25.2788L71.4927 25.9112ZM72.1889 23.8217C72.2436 23.6711 72.2884 23.5172 72.3196 23.3611L70.3585 22.9689C70.3497 23.0128 70.3345 23.0689 70.3093 23.1383L72.1889 23.8217ZM72.3196 23.3611C72.3523 23.1978 72.3691 23.0321 72.3691 22.865H70.3691C70.3691 22.8979 70.3658 22.9322 70.3585 22.9689L72.3196 23.3611ZM72.3691 22.865V18.74H70.3691V22.865H72.3691ZM72.3691 18.74C72.3691 18.71 72.3728 18.7298 72.3579 18.7803C72.3419 18.8342 72.2994 18.9388 72.1962 19.0421L70.782 17.6279C70.4213 17.9885 70.3691 18.4546 70.3691 18.74H72.3691ZM72.1962 19.0421C72.0236 19.2147 71.8549 19.2 71.9091 19.2V17.2C71.5832 17.2 71.1346 17.2753 70.782 17.6279L72.1962 19.0421ZM71.9091 19.2H74.2641V17.2H71.9091V19.2ZM74.2641 19.2C74.2853 19.2 74.2538 19.2032 74.1916 19.1824C74.1233 19.1597 74.0176 19.1073 73.9217 18.9994L75.4165 17.6706C75.0603 17.27 74.5769 17.2 74.2641 17.2V19.2ZM74.0047 19.0824C73.8968 18.9865 73.8444 18.8808 73.8216 18.8125C73.8009 18.7503 73.8041 18.7188 73.8041 18.74H75.8041C75.8041 18.4271 75.7341 17.9437 75.3334 17.5876L74.0047 19.0824ZM73.8041 18.74V22.7H75.8041V18.74H73.8041ZM73.8041 22.7C73.8041 22.9152 73.7949 23.0789 73.7809 23.1982L75.7672 23.4318C75.7932 23.2111 75.8041 22.9648 75.8041 22.7H73.8041ZM73.776 23.2526C73.77 23.3488 73.7552 23.4383 73.7328 23.5223L75.6653 24.0377C75.7229 23.8217 75.7581 23.6012 75.7721 23.3774L73.776 23.2526ZM73.7328 23.5223C73.7006 23.6433 73.6587 23.7781 73.6061 23.9272L75.4921 24.5928C75.5594 24.4019 75.6176 24.2167 75.6653 24.0377L73.7328 23.5223ZM73.6127 23.9089C73.5572 24.0569 73.4861 24.2373 73.3985 24.4514L75.2496 25.2086C75.342 24.9827 75.4209 24.7831 75.4854 24.6111L73.6127 23.9089ZM73.3956 24.4586L71.9256 28.1336L73.7825 28.8764L75.2525 25.2014L73.3956 24.4586ZM71.9157 28.1593C71.8986 28.2058 71.9267 28.0971 72.08 28.0145L73.0282 29.7755C73.4415 29.5529 73.6695 29.1842 73.7924 28.8507L71.9157 28.1593ZM72.0502 28.0312C72.0901 28.0079 72.1194 28.0001 72.1276 27.9983C72.1348 27.9967 72.1239 28 72.0891 28V30C72.3937 30 72.7388 29.9449 73.0579 29.7588L72.0502 28.0312ZM76.5361 28.88L75.7887 29.5444L75.8278 29.5883L75.8717 29.6274L76.5361 28.88ZM76.5361 26.27L77.2432 26.9771V26.9771L76.5361 26.27ZM78.4411 26.135V27.135H79.4411V26.135H78.4411ZM78.4411 21.095H79.4411V20.095H78.4411V21.095ZM76.5361 20.975L75.7887 21.6394L75.8278 21.6833L75.8717 21.7224L76.5361 20.975ZM76.5361 18.335L75.829 17.6279V17.6279L76.5361 18.335ZM83.7511 18.335L83.0037 18.9994L83.0428 19.0433L83.0867 19.0824L83.7511 18.335ZM83.7511 20.975L84.4582 21.6821V21.6821L83.7511 20.975ZM81.8911 21.095V20.095H80.8911V21.095H81.8911ZM81.8911 26.135H80.8911V27.135H81.8911V26.135ZM83.7511 26.27L83.0037 26.9344L83.0428 26.9783L83.0867 27.0174L83.7511 26.27ZM83.7511 28.88L84.4582 29.5871V29.5871L83.7511 28.88ZM76.9561 28C76.9274 28 76.9416 27.9966 76.9833 28.0085C77.0279 28.0212 77.1123 28.0542 77.2005 28.1326L75.8717 29.6274C76.2252 29.9416 76.6559 30 76.9561 30V28ZM77.2835 28.2156C77.3619 28.3038 77.3949 28.3882 77.4076 28.4328C77.4195 28.4745 77.4161 28.4887 77.4161 28.46H75.4161C75.4161 28.7602 75.4745 29.1909 75.7887 29.5444L77.2835 28.2156ZM77.4161 28.46V26.675H75.4161V28.46H77.4161ZM77.4161 26.675C77.4161 26.645 77.4199 26.6648 77.4049 26.7153C77.3889 26.7692 77.3465 26.8738 77.2432 26.9771L75.829 25.5629C75.4683 25.9235 75.4161 26.3896 75.4161 26.675H77.4161ZM77.2432 26.9771C77.0706 27.1497 76.9019 27.135 76.9561 27.135V25.135C76.6303 25.135 76.1816 25.2103 75.829 25.5629L77.2432 26.9771ZM76.9561 27.135H78.4411V25.135H76.9561V27.135ZM79.4411 26.135V21.095H77.4411V26.135H79.4411ZM78.4411 20.095H76.9561V22.095H78.4411V20.095ZM76.9561 20.095C76.9274 20.095 76.9416 20.0916 76.9833 20.1035C77.0279 20.1162 77.1123 20.1492 77.2005 20.2276L75.8717 21.7224C76.2252 22.0366 76.6559 22.095 76.9561 22.095V20.095ZM77.2835 20.3106C77.3619 20.3988 77.3949 20.4832 77.4076 20.5278C77.4195 20.5695 77.4161 20.5837 77.4161 20.555H75.4161C75.4161 20.8552 75.4745 21.2859 75.7887 21.6394L77.2835 20.3106ZM77.4161 20.555V18.74H75.4161V20.555H77.4161ZM77.4161 18.74C77.4161 18.71 77.4199 18.7298 77.4049 18.7803C77.3889 18.8342 77.3465 18.9388 77.2432 19.0421L75.829 17.6279C75.4683 17.9885 75.4161 18.4546 75.4161 18.74H77.4161ZM77.2432 19.0421C77.0706 19.2147 76.9019 19.2 76.9561 19.2V17.2C76.6303 17.2 76.1816 17.2753 75.829 17.6279L77.2432 19.0421ZM76.9561 19.2H83.3461V17.2H76.9561V19.2ZM83.3461 19.2C83.3673 19.2 83.3358 19.2032 83.2736 19.1824C83.2053 19.1597 83.0996 19.1073 83.0037 18.9994L84.4985 17.6706C84.1424 17.27 83.659 17.2 83.3461 17.2V19.2ZM83.0867 19.0824C82.9788 18.9865 82.9264 18.8808 82.9037 18.8125C82.8829 18.7503 82.8861 18.7188 82.8861 18.74H84.8861C84.8861 18.4271 84.8161 17.9437 84.4155 17.5876L83.0867 19.0824ZM82.8861 18.74V20.555H84.8861V18.74H82.8861ZM82.8861 20.555C82.8861 20.6092 82.8714 20.4405 83.044 20.2679L84.4582 21.6821C84.8108 21.3295 84.8861 20.8808 84.8861 20.555H82.8861ZM83.044 20.2679C83.1473 20.1646 83.2519 20.1221 83.3058 20.1062C83.3563 20.0912 83.3761 20.095 83.3461 20.095V22.095C83.6315 22.095 84.0975 22.0428 84.4582 21.6821L83.044 20.2679ZM83.3461 20.095H81.8911V22.095H83.3461V20.095ZM80.8911 21.095V26.135H82.8911V21.095H80.8911ZM81.8911 27.135H83.3461V25.135H81.8911V27.135ZM83.3461 27.135C83.3673 27.135 83.3358 27.1382 83.2736 27.1174C83.2053 27.0947 83.0996 27.0423 83.0037 26.9344L84.4985 25.6056C84.1424 25.205 83.659 25.135 83.3461 25.135V27.135ZM83.0867 27.0174C82.9788 26.9215 82.9264 26.8158 82.9037 26.7475C82.8829 26.6853 82.8861 26.6538 82.8861 26.675H84.8861C84.8861 26.3621 84.8161 25.8787 84.4155 25.5226L83.0867 27.0174ZM82.8861 26.675V28.46H84.8861V26.675H82.8861ZM82.8861 28.46C82.8861 28.5142 82.8714 28.3455 83.044 28.1729L84.4582 29.5871C84.8108 29.2345 84.8861 28.7858 84.8861 28.46H82.8861ZM83.044 28.1729C83.1473 28.0696 83.2519 28.0271 83.3058 28.0112C83.3563 27.9962 83.3761 28 83.3461 28V30C83.6315 30 84.0975 29.9478 84.4582 29.5871L83.044 28.1729ZM83.3461 28H76.9561V30H83.3461V28ZM87.9881 28.88L87.2407 29.5444L87.2798 29.5883L87.3238 29.6274L87.9881 28.88ZM87.8681 21.095H88.8681V20.095H87.8681V21.095ZM85.2431 20.975L84.4957 21.6394L84.5348 21.6833L84.5788 21.7224L85.2431 20.975ZM85.2431 18.335L84.536 17.6279V17.6279L85.2431 18.335ZM93.9881 18.335L93.2407 18.9994L93.2798 19.0433L93.3238 19.0824L93.9881 18.335ZM93.9881 20.975L94.6952 21.6821L93.9881 20.975ZM91.3781 21.095V20.095H90.3781V21.095H91.3781ZM91.2431 28.88L90.536 28.1729L91.2431 28.88ZM90.8381 28H88.4081V30H90.8381V28ZM88.4081 28C88.3795 28 88.3936 27.9966 88.4353 28.0085C88.4799 28.0212 88.5643 28.0542 88.6525 28.1326L87.3238 29.6274C87.6772 29.9416 88.1079 30 88.4081 30V28ZM88.7355 28.2156C88.8139 28.3038 88.8469 28.3882 88.8596 28.4328C88.8716 28.4745 88.8681 28.4887 88.8681 28.46H86.8681C86.8681 28.7602 86.9265 29.1909 87.2407 29.5444L88.7355 28.2156ZM88.8681 28.46V21.095H86.8681V28.46H88.8681ZM87.8681 20.095H85.6631V22.095H87.8681V20.095ZM85.6631 20.095C85.6344 20.095 85.6486 20.0916 85.6903 20.1035C85.7349 20.1162 85.8193 20.1492 85.9075 20.2276L84.5788 21.7224C84.9322 22.0366 85.3629 22.095 85.6631 22.095V20.095ZM85.9905 20.3106C86.0689 20.3988 86.1019 20.4832 86.1147 20.5278C86.1266 20.5695 86.1231 20.5837 86.1231 20.555H84.1231C84.1231 20.8552 84.1815 21.2859 84.4957 21.6394L85.9905 20.3106ZM86.1231 20.555V18.74H84.1231V20.555H86.1231ZM86.1231 18.74C86.1231 18.71 86.1269 18.7298 86.1119 18.7803C86.096 18.8342 86.0535 18.9388 85.9502 19.0421L84.536 17.6279C84.1754 17.9885 84.1231 18.4546 84.1231 18.74H86.1231ZM85.9502 19.0421C85.7776 19.2147 85.6089 19.2 85.6631 19.2V17.2C85.3373 17.2 84.8886 17.2753 84.536 17.6279L85.9502 19.0421ZM85.6631 19.2H93.5831V17.2H85.6631V19.2ZM93.5831 19.2C93.6044 19.2 93.5728 19.2032 93.5106 19.1824C93.4424 19.1597 93.3366 19.1073 93.2407 18.9994L94.7355 17.6706C94.3794 17.27 93.896 17.2 93.5831 17.2V19.2ZM93.3238 19.0824C93.2159 18.9865 93.1635 18.8808 93.1407 18.8125C93.12 18.7503 93.1231 18.7188 93.1231 18.74H95.1231C95.1231 18.4271 95.0532 17.9437 94.6525 17.5876L93.3238 19.0824ZM93.1231 18.74V20.555H95.1231V18.74H93.1231ZM93.1231 20.555C93.1231 20.6092 93.1084 20.4405 93.281 20.2679L94.6952 21.6821C95.0478 21.3295 95.1231 20.8808 95.1231 20.555H93.1231ZM93.281 20.2679C93.3843 20.1646 93.489 20.1221 93.5428 20.1062C93.5933 20.0912 93.6132 20.095 93.5831 20.095V22.095C93.8685 22.095 94.3346 22.0428 94.6952 21.6821L93.281 20.2679ZM93.5831 20.095H91.3781V22.095H93.5831V20.095ZM90.3781 21.095V28.46H92.3781V21.095H90.3781ZM90.3781 28.46C90.3781 28.5142 90.3634 28.3455 90.536 28.1729L91.9502 29.5871C92.3028 29.2345 92.3781 28.7858 92.3781 28.46H90.3781ZM90.536 28.1729C90.6393 28.0696 90.744 28.0271 90.7978 28.0112C90.8483 27.9962 90.8682 28 90.8381 28V30C91.1235 30 91.5896 29.9478 91.9502 29.5871L90.536 28.1729ZM95.7019 28.88L94.9545 29.5444L94.9935 29.5883L95.0375 29.6274L95.7019 28.88ZM95.7019 18.335L94.9948 17.6279V17.6279L95.7019 18.335ZM103.487 18.335L102.739 18.9994L102.779 19.0433L102.823 19.0824L103.487 18.335ZM98.9419 21.035V20.035H97.9419V21.035H98.9419ZM98.9419 22.19H97.9419V23.19H98.9419V22.19ZM102.272 22.325L101.524 22.9894L101.564 23.0333L101.608 23.0724L102.272 22.325ZM102.272 24.755L101.565 24.0479L102.272 24.755ZM98.9419 24.875V23.875H97.9419V24.875H98.9419ZM98.9419 26.165H97.9419V27.165H98.9419V26.165ZM103.487 26.3L102.739 26.9644L102.779 27.0083L102.823 27.0474L103.487 26.3ZM103.487 28.88L104.194 29.5871V29.5871L103.487 28.88ZM103.082 28H96.1219V30H103.082V28ZM96.1219 28C96.0932 28 96.1074 27.9966 96.1491 28.0085C96.1937 28.0212 96.2781 28.0542 96.3662 28.1326L95.0375 29.6274C95.391 29.9416 95.8216 30 96.1219 30V28ZM96.4493 28.2156C96.5277 28.3038 96.5607 28.3882 96.5734 28.4328C96.5853 28.4745 96.5819 28.4887 96.5819 28.46H94.5819C94.5819 28.7602 94.6403 29.1909 94.9545 29.5444L96.4493 28.2156ZM96.5819 28.46V18.74H94.5819V28.46H96.5819ZM96.5819 18.74C96.5819 18.71 96.5856 18.7298 96.5707 18.7803C96.5547 18.8342 96.5122 18.9388 96.409 19.0421L94.9948 17.6279C94.6341 17.9885 94.5819 18.4546 94.5819 18.74H96.5819ZM96.409 19.0421C96.2364 19.2147 96.0677 19.2 96.1219 19.2V17.2C95.7961 17.2 95.3474 17.2753 94.9948 17.6279L96.409 19.0421ZM96.1219 19.2H103.082V17.2H96.1219V19.2ZM103.082 19.2C103.103 19.2 103.072 19.2032 103.009 19.1824C102.941 19.1597 102.835 19.1073 102.739 18.9994L104.234 17.6706C103.878 17.27 103.395 17.2 103.082 17.2V19.2ZM102.823 19.0824C102.715 18.9865 102.662 18.8808 102.639 18.8125C102.619 18.7503 102.622 18.7188 102.622 18.74H104.622C104.622 18.4271 104.552 17.9437 104.151 17.5876L102.823 19.0824ZM102.622 18.74V20.495H104.622V18.74H102.622ZM102.622 20.495C102.622 20.5492 102.607 20.3805 102.78 20.2079L104.194 21.6221C104.547 21.2695 104.622 20.8208 104.622 20.495H102.622ZM102.78 20.2079C102.883 20.1046 102.988 20.0621 103.042 20.0462C103.092 20.0312 103.112 20.035 103.082 20.035V22.035C103.367 22.035 103.833 21.9828 104.194 21.6221L102.78 20.2079ZM103.082 20.035H98.9419V22.035H103.082V20.035ZM97.9419 21.035V22.19H99.9419V21.035H97.9419ZM98.9419 23.19H101.867V21.19H98.9419V23.19ZM101.867 23.19C101.888 23.19 101.857 23.1932 101.794 23.1724C101.726 23.1497 101.62 23.0973 101.524 22.9894L103.019 21.6606C102.663 21.26 102.18 21.19 101.867 21.19V23.19ZM101.608 23.0724C101.5 22.9765 101.447 22.8708 101.424 22.8025C101.404 22.7403 101.407 22.7088 101.407 22.73H103.407C103.407 22.4171 103.337 21.9337 102.936 21.5776L101.608 23.0724ZM101.407 22.73V24.335H103.407V22.73H101.407ZM101.407 24.335C101.407 24.3892 101.392 24.2205 101.565 24.0479L102.979 25.4621C103.332 25.1095 103.407 24.6608 103.407 24.335H101.407ZM101.565 24.0479C101.668 23.9446 101.773 23.9021 101.827 23.8862C101.877 23.8712 101.897 23.875 101.867 23.875V25.875C102.152 25.875 102.618 25.8228 102.979 25.4621L101.565 24.0479ZM101.867 23.875H98.9419V25.875H101.867V23.875ZM97.9419 24.875V26.165H99.9419V24.875H97.9419ZM98.9419 27.165H103.082V25.165H98.9419V27.165ZM103.082 27.165C103.103 27.165 103.072 27.1682 103.009 27.1474C102.941 27.1247 102.835 27.0723 102.739 26.9644L104.234 25.6356C103.878 25.235 103.395 25.165 103.082 25.165V27.165ZM102.823 27.0474C102.715 26.9515 102.662 26.8458 102.639 26.7775C102.619 26.7153 102.622 26.6838 102.622 26.705H104.622C104.622 26.3921 104.552 25.9087 104.151 25.5526L102.823 27.0474ZM102.622 26.705V28.46H104.622V26.705H102.622ZM102.622 28.46C102.622 28.5142 102.607 28.3455 102.78 28.1729L104.194 29.5871C104.547 29.2345 104.622 28.7858 104.622 28.46H102.622ZM102.78 28.1729C102.883 28.0696 102.988 28.0271 103.042 28.0112C103.092 27.9962 103.112 28 103.082 28V30C103.367 30 103.833 29.9478 104.194 29.5871L102.78 28.1729ZM112.607 21.35L111.693 20.9439L111.669 20.998L111.652 21.0546L112.607 21.35ZM111.902 23.63L110.947 23.3346L110.546 24.63H111.902V23.63ZM114.257 23.63V24.63H115.613L115.213 23.3346L114.257 23.63ZM113.552 21.35L114.508 21.0546L114.49 20.998L114.466 20.9439L113.552 21.35ZM113.417 21.155L112.71 21.8621L112.749 21.9013L112.793 21.9359L113.417 21.155ZM112.727 21.155L112.103 20.3741L112.059 20.4087L112.02 20.4479L112.727 21.155ZM111.617 28.88L110.91 28.1729L111.617 28.88ZM108.587 28.88L107.84 29.5444L107.879 29.5883L107.923 29.6274L108.587 28.88ZM108.602 23.465L107.634 23.2166L107.631 23.2283L107.628 23.2401L108.602 23.465ZM109.052 22.1L109.986 22.459L109.986 22.4579L109.052 22.1ZM110.357 18.695L111.291 19.0529L111.296 19.0404L111.3 19.0278L110.357 18.695ZM110.627 18.32L110.103 17.4683L110.088 17.4779L110.073 17.4879L110.627 18.32ZM115.622 18.32L115.068 19.152L115.083 19.1621L115.098 19.1717L115.622 18.32ZM115.907 18.695L114.964 19.0278L114.969 19.0404L114.973 19.0529L115.907 18.695ZM117.212 22.1L116.278 22.4579L116.279 22.459L117.212 22.1ZM117.647 23.465L116.673 23.6899L116.676 23.7017L116.679 23.7134L117.647 23.465ZM117.662 28.88L118.369 29.5871V29.5871L117.662 28.88ZM114.542 28.88L113.835 29.5871L113.874 29.6263L113.918 29.6609L114.542 28.88ZM114.407 26.36H115.407V25.36H114.407V26.36ZM111.752 26.36V25.36H110.752V26.36H111.752ZM111.652 21.0546L110.947 23.3346L112.858 23.9254L113.563 21.6454L111.652 21.0546ZM111.902 24.63H114.257V22.63H111.902V24.63ZM115.213 23.3346L114.508 21.0546L112.597 21.6454L113.302 23.9254L115.213 23.3346ZM114.466 20.9439C114.393 20.7791 114.266 20.5536 114.042 20.3741L112.793 21.9359C112.726 21.883 112.687 21.8323 112.666 21.803C112.656 21.7876 112.649 21.7755 112.644 21.768C112.64 21.7605 112.638 21.7562 112.638 21.7561L114.466 20.9439ZM114.124 20.4479C113.885 20.2081 113.575 20.095 113.267 20.095V22.095C113.185 22.095 113.084 22.0808 112.978 22.0385C112.871 21.9957 112.781 21.9329 112.71 21.8621L114.124 20.4479ZM113.267 20.095H112.892V22.095H113.267V20.095ZM112.892 20.095C112.589 20.095 112.317 20.2025 112.103 20.3741L113.352 21.9359C113.237 22.0275 113.075 22.095 112.892 22.095V20.095ZM112.02 20.4479C111.852 20.6163 111.752 20.8122 111.693 20.9439L113.521 21.7561C113.528 21.7408 113.528 21.7434 113.519 21.7578C113.511 21.7703 113.485 21.8116 113.434 21.8621L112.02 20.4479ZM110.752 28.46C110.752 28.5142 110.738 28.3455 110.91 28.1729L112.324 29.5871C112.677 29.2345 112.752 28.7858 112.752 28.46H110.752ZM110.91 28.1729C111.013 28.0696 111.118 28.0271 111.172 28.0112C111.222 27.9962 111.242 28 111.212 28V30C111.498 30 111.964 29.9478 112.324 29.5871L110.91 28.1729ZM111.212 28H109.007V30H111.212V28ZM109.007 28C108.979 28 108.993 27.9966 109.034 28.0085C109.079 28.0212 109.163 28.0542 109.252 28.1326L107.923 29.6274C108.276 29.9416 108.707 30 109.007 30V28ZM109.335 28.2156C109.413 28.3038 109.446 28.3882 109.459 28.4328C109.471 28.4745 109.467 28.4887 109.467 28.46H107.467C107.467 28.7602 107.526 29.1909 107.84 29.5444L109.335 28.2156ZM109.467 28.46V24.5H107.467V28.46H109.467ZM109.467 24.5C109.467 24.296 109.498 24.029 109.577 23.6899L107.628 23.2401C107.526 23.681 107.467 24.104 107.467 24.5H109.467ZM109.571 23.7134C109.658 23.372 109.795 22.9554 109.986 22.459L108.119 21.741C107.91 22.2846 107.746 22.778 107.634 23.2166L109.571 23.7134ZM109.986 22.4579L111.291 19.0529L109.423 18.3371L108.118 21.7421L109.986 22.4579ZM111.3 19.0278C111.304 19.0176 111.3 19.0316 111.281 19.0581C111.261 19.0862 111.228 19.1211 111.182 19.1521L110.073 17.4879C109.732 17.7152 109.528 18.0399 109.414 18.3622L111.3 19.0278ZM111.151 19.1717C111.118 19.1924 111.092 19.1999 111.084 19.2018C111.077 19.2035 111.088 19.2 111.122 19.2V17.2C110.793 17.2 110.433 17.2656 110.103 17.4683L111.151 19.1717ZM111.122 19.2H115.157V17.2H111.122V19.2ZM115.157 19.2C115.211 19.2 115.157 19.2114 115.068 19.152L116.177 17.488C115.848 17.2686 115.483 17.2 115.157 17.2V19.2ZM115.098 19.1717C115.055 19.1451 115.02 19.1118 114.995 19.0788C114.971 19.0475 114.964 19.0264 114.964 19.0278L116.85 18.3622C116.728 18.0172 116.505 17.6891 116.146 17.4683L115.098 19.1717ZM114.973 19.0529L116.278 22.4579L118.146 21.7421L116.841 18.3371L114.973 19.0529ZM116.279 22.459C116.468 22.9508 116.597 23.3592 116.673 23.6899L118.622 23.2401C118.518 22.7908 118.356 22.2892 118.146 21.741L116.279 22.459ZM116.679 23.7134C116.764 24.048 116.797 24.3067 116.797 24.5H118.797C118.797 24.0933 118.73 23.662 118.616 23.2166L116.679 23.7134ZM116.797 24.5V28.46H118.797V24.5H116.797ZM116.797 28.46C116.797 28.5142 116.783 28.3455 116.955 28.1729L118.369 29.5871C118.722 29.2345 118.797 28.7858 118.797 28.46H116.797ZM116.955 28.1729C117.058 28.0696 117.163 28.0271 117.217 28.0112C117.267 27.9962 117.287 28 117.257 28V30C117.543 30 118.009 29.9478 118.369 29.5871L116.955 28.1729ZM117.257 28H114.992V30H117.257V28ZM114.992 28C114.956 28 114.958 27.996 114.987 28.0038C115.018 28.012 115.088 28.0363 115.167 28.0991L113.918 29.6609C114.27 29.943 114.685 30 114.992 30V28ZM115.249 28.1729C115.422 28.3455 115.407 28.5142 115.407 28.46H113.407C113.407 28.7858 113.483 29.2345 113.835 29.5871L115.249 28.1729ZM115.407 28.46V26.36H113.407V28.46H115.407ZM114.407 25.36H111.752V27.36H114.407V25.36ZM110.752 26.36V28.46H112.752V26.36H110.752ZM123.065 28.88L122.318 29.5444L122.357 29.5883L122.401 29.6274L123.065 28.88ZM123.065 18.335L122.358 17.6279V17.6279L123.065 18.335ZM130.58 18.335L129.833 18.9994L129.872 19.0433L129.916 19.0824L130.58 18.335ZM126.35 21.065V20.065H125.35V21.065H126.35ZM126.35 22.625H125.35V23.625H126.35V22.625ZM129.365 22.76L128.618 23.4244L128.657 23.4683L128.701 23.5074L129.365 22.76ZM129.365 25.385L128.658 24.6779V24.6779L129.365 25.385ZM126.35 25.505V24.505H125.35V25.505H126.35ZM126.215 28.88L125.508 28.1729L126.215 28.88ZM125.81 28H123.485V30H125.81V28ZM123.485 28C123.456 28 123.471 27.9966 123.512 28.0085C123.557 28.0212 123.641 28.0542 123.73 28.1326L122.401 29.6274C122.754 29.9416 123.185 30 123.485 30V28ZM123.813 28.2156C123.891 28.3038 123.924 28.3882 123.937 28.4328C123.949 28.4745 123.945 28.4887 123.945 28.46H121.945C121.945 28.7602 122.004 29.1909 122.318 29.5444L123.813 28.2156ZM123.945 28.46V18.74H121.945V28.46H123.945ZM123.945 18.74C123.945 18.71 123.949 18.7298 123.934 18.7803C123.918 18.8342 123.876 18.9388 123.772 19.0421L122.358 17.6279C121.997 17.9885 121.945 18.4546 121.945 18.74H123.945ZM123.772 19.0421C123.6 19.2147 123.431 19.2 123.485 19.2V17.2C123.159 17.2 122.711 17.2753 122.358 17.6279L123.772 19.0421ZM123.485 19.2H130.175V17.2H123.485V19.2ZM130.175 19.2C130.196 19.2 130.165 19.2032 130.103 19.1824C130.034 19.1597 129.929 19.1073 129.833 18.9994L131.328 17.6706C130.971 17.27 130.488 17.2 130.175 17.2V19.2ZM129.916 19.0824C129.808 18.9865 129.755 18.8808 129.733 18.8125C129.712 18.7503 129.715 18.7188 129.715 18.74H131.715C131.715 18.4271 131.645 17.9437 131.245 17.5876L129.916 19.0824ZM129.715 18.74V20.525H131.715V18.74H129.715ZM129.715 20.525C129.715 20.5792 129.7 20.4105 129.873 20.2379L131.287 21.6521C131.64 21.2995 131.715 20.8508 131.715 20.525H129.715ZM129.873 20.2379C129.976 20.1346 130.081 20.0921 130.135 20.0762C130.185 20.0612 130.205 20.065 130.175 20.065V22.065C130.461 22.065 130.927 22.0128 131.287 21.6521L129.873 20.2379ZM130.175 20.065H126.35V22.065H130.175V20.065ZM125.35 21.065V22.625H127.35V21.065H125.35ZM126.35 23.625H128.96V21.625H126.35V23.625ZM128.96 23.625C128.981 23.625 128.95 23.6282 128.888 23.6074C128.819 23.5847 128.714 23.5323 128.618 23.4244L130.113 22.0956C129.756 21.695 129.273 21.625 128.96 21.625V23.625ZM128.701 23.5074C128.593 23.4115 128.54 23.3058 128.518 23.2375C128.497 23.1753 128.5 23.1438 128.5 23.165H130.5C130.5 22.8521 130.43 22.3687 130.03 22.0126L128.701 23.5074ZM128.5 23.165V24.965H130.5V23.165H128.5ZM128.5 24.965C128.5 25.0192 128.485 24.8505 128.658 24.6779L130.072 26.0921C130.425 25.7395 130.5 25.2908 130.5 24.965H128.5ZM128.658 24.6779C128.761 24.5746 128.866 24.5321 128.92 24.5162C128.97 24.5012 128.99 24.505 128.96 24.505V26.505C129.246 26.505 129.712 26.4528 130.072 26.0921L128.658 24.6779ZM128.96 24.505H126.35V26.505H128.96V24.505ZM125.35 25.505V28.46H127.35V25.505H125.35ZM125.35 28.46C125.35 28.5142 125.335 28.3455 125.508 28.1729L126.922 29.5871C127.275 29.2345 127.35 28.7858 127.35 28.46H125.35ZM125.508 28.1729C125.611 28.0696 125.716 28.0271 125.77 28.0112C125.82 27.9962 125.84 28 125.81 28V30C126.096 30 126.562 29.9478 126.922 29.5871L125.508 28.1729ZM135.608 20.9V19.9H134.608V20.9H135.608ZM135.608 22.82H134.608V23.82H135.608V22.82ZM137.258 22.625L138.08 23.1942L138.09 23.1801L138.099 23.1658L137.258 22.625ZM137.258 21.11L136.416 21.6508L136.426 21.6651L136.435 21.6792L137.258 21.11ZM132.338 28.88L131.59 29.5444L131.629 29.5883L131.673 29.6274L132.338 28.88ZM132.338 18.335L131.631 17.6279V17.6279L132.338 18.335ZM140.063 18.905L139.317 19.5713L139.324 19.5797L139.332 19.5879L140.063 18.905ZM140.513 22.475L139.595 22.0774L139.592 22.085L139.589 22.0926L140.513 22.475ZM139.868 23.105L139.481 22.1828L135.927 23.6733L139.757 24.0989L139.868 23.105ZM141.173 23.765L140.418 24.4207L140.422 24.4263L140.427 24.4318L141.173 23.765ZM141.548 28.88L142.255 29.5871V29.5871L141.548 28.88ZM138.398 28.88L137.65 29.5444L137.689 29.5883L137.733 29.6274L138.398 28.88ZM138.143 25.685L137.334 26.2732L137.365 26.3153L137.399 26.354L138.143 25.685ZM135.608 25.52V24.52H134.608V25.52H135.608ZM135.473 28.88L134.766 28.1729L135.473 28.88ZM134.608 20.9V22.82H136.608V20.9H134.608ZM135.608 23.82H136.733V21.82H135.608V23.82ZM136.733 23.82C137.107 23.82 137.708 23.7317 138.08 23.1942L136.435 22.0558C136.527 21.9237 136.642 21.8594 136.711 21.8338C136.769 21.8122 136.787 21.82 136.733 21.82V23.82ZM138.099 23.1658C138.312 22.8345 138.393 22.4677 138.393 22.115H136.393C136.393 22.1402 136.39 22.1456 136.392 22.1366C136.393 22.1321 136.396 22.1246 136.4 22.1151C136.404 22.1055 136.41 22.095 136.416 22.0842L138.099 23.1658ZM138.393 22.115V21.605H136.393V22.115H138.393ZM138.393 21.605C138.393 21.2556 138.313 20.8775 138.08 20.5408L136.435 21.6792C136.411 21.6437 136.399 21.6123 136.394 21.5944C136.39 21.5781 136.393 21.5793 136.393 21.605H138.393ZM138.099 20.5692C137.738 20.0076 137.132 19.9 136.733 19.9V21.9C136.78 21.9 136.754 21.9075 136.687 21.881C136.608 21.8494 136.498 21.7784 136.416 21.6508L138.099 20.5692ZM136.733 19.9H135.608V21.9H136.733V19.9ZM135.068 28H132.758V30H135.068V28ZM132.758 28C132.729 28 132.743 27.9966 132.785 28.0085C132.829 28.0212 132.914 28.0542 133.002 28.1326L131.673 29.6274C132.027 29.9416 132.457 30 132.758 30V28ZM133.085 28.2156C133.163 28.3038 133.196 28.3882 133.209 28.4328C133.221 28.4745 133.218 28.4887 133.218 28.46H131.218C131.218 28.7602 131.276 29.1909 131.59 29.5444L133.085 28.2156ZM133.218 28.46V18.74H131.218V28.46H133.218ZM133.218 18.74C133.218 18.71 133.221 18.7298 133.206 18.7803C133.19 18.8342 133.148 18.9388 133.045 19.0421L131.631 17.6279C131.27 17.9885 131.218 18.4546 131.218 18.74H133.218ZM133.045 19.0421C132.872 19.2147 132.703 19.2 132.758 19.2V17.2C132.432 17.2 131.983 17.2753 131.631 17.6279L133.045 19.0421ZM132.758 19.2H137.753V17.2H132.758V19.2ZM137.753 19.2C138.795 19.2 139.191 19.4301 139.317 19.5713L140.808 18.2387C140.094 17.4399 138.951 17.2 137.753 17.2V19.2ZM139.332 19.5879C139.559 19.8307 139.708 20.1712 139.708 20.705H141.708C141.708 19.7588 141.426 18.8993 140.793 18.2221L139.332 19.5879ZM139.708 20.705V21.395H141.708V20.705H139.708ZM139.708 21.395C139.708 21.7156 139.658 21.9331 139.595 22.0774L141.43 22.8726C141.628 22.4169 141.708 21.9144 141.708 21.395H139.708ZM139.589 22.0926C139.577 22.1204 139.567 22.1468 139.481 22.1828L140.254 24.0272C140.789 23.8032 141.208 23.4096 141.437 22.8574L139.589 22.0926ZM139.757 24.0989C140.069 24.1335 140.266 24.2462 140.418 24.4207L141.928 23.1093C141.419 22.5238 140.746 22.1965 139.978 22.1111L139.757 24.0989ZM140.427 24.4318C140.567 24.5879 140.683 24.8356 140.683 25.28H142.683C142.683 24.4644 142.458 23.7021 141.918 23.0982L140.427 24.4318ZM140.683 25.28V28.46H142.683V25.28H140.683ZM140.683 28.46C140.683 28.5142 140.668 28.3455 140.841 28.1729L142.255 29.5871C142.607 29.2345 142.683 28.7858 142.683 28.46H140.683ZM140.841 28.1729C140.944 28.0696 141.048 28.0271 141.102 28.0112C141.153 27.9962 141.173 28 141.143 28V30C141.428 30 141.894 29.9478 142.255 29.5871L140.841 28.1729ZM141.143 28H138.818V30H141.143V28ZM138.818 28C138.789 28 138.803 27.9966 138.845 28.0085C138.889 28.0212 138.974 28.0542 139.062 28.1326L137.733 29.6274C138.087 29.9416 138.517 30 138.818 30V28ZM139.145 28.2156C139.223 28.3038 139.256 28.3882 139.269 28.4328C139.281 28.4745 139.278 28.4887 139.278 28.46H137.278C137.278 28.7602 137.336 29.1909 137.65 29.5444L139.145 28.2156ZM139.278 28.46V26.165H137.278V28.46H139.278ZM139.278 26.165C139.278 25.8453 139.219 25.3857 138.886 25.016L137.399 26.354C137.32 26.2661 137.291 26.1845 137.281 26.1507C137.272 26.1195 137.278 26.1189 137.278 26.165H139.278ZM138.951 25.0968C138.598 24.6111 138.058 24.52 137.708 24.52V26.52C137.732 26.52 137.692 26.524 137.619 26.4962C137.536 26.4647 137.424 26.3967 137.334 26.2732L138.951 25.0968ZM137.708 24.52H135.608V26.52H137.708V24.52ZM134.608 25.52V28.46H136.608V25.52H134.608ZM134.608 28.46C134.608 28.5142 134.593 28.3455 134.766 28.1729L136.18 29.5871C136.532 29.2345 136.608 28.7858 136.608 28.46H134.608ZM134.766 28.1729C134.869 28.0696 134.973 28.0271 135.027 28.0112C135.078 27.9962 135.098 28 135.068 28V30C135.353 30 135.819 29.9478 136.18 29.5871L134.766 28.1729ZM143.245 28.88L142.498 29.5444L142.537 29.5883L142.581 29.6274L143.245 28.88ZM143.245 26.27L143.952 26.9771V26.9771L143.245 26.27ZM145.15 26.135V27.135H146.15V26.135H145.15ZM145.15 21.095H146.15V20.095H145.15V21.095ZM143.245 20.975L142.498 21.6394L142.537 21.6833L142.581 21.7224L143.245 20.975ZM143.245 18.335L142.538 17.6279V17.6279L143.245 18.335ZM150.46 18.335L149.713 18.9994L149.752 19.0433L149.796 19.0824L150.46 18.335ZM150.46 20.975L151.167 21.6821L151.167 21.6821L150.46 20.975ZM148.6 21.095V20.095H147.6V21.095H148.6ZM148.6 26.135H147.6V27.135H148.6V26.135ZM150.46 26.27L149.713 26.9344L149.752 26.9783L149.796 27.0174L150.46 26.27ZM150.46 28.88L151.167 29.5871L151.167 29.5871L150.46 28.88ZM143.665 28C143.636 28 143.651 27.9966 143.692 28.0085C143.737 28.0212 143.821 28.0542 143.909 28.1326L142.581 29.6274C142.934 29.9416 143.365 30 143.665 30V28ZM143.992 28.2156C144.071 28.3038 144.104 28.3882 144.117 28.4328C144.129 28.4745 144.125 28.4887 144.125 28.46H142.125C142.125 28.7602 142.183 29.1909 142.498 29.5444L143.992 28.2156ZM144.125 28.46V26.675H142.125V28.46H144.125ZM144.125 26.675C144.125 26.645 144.129 26.6648 144.114 26.7153C144.098 26.7692 144.055 26.8738 143.952 26.9771L142.538 25.5629C142.177 25.9235 142.125 26.3896 142.125 26.675H144.125ZM143.952 26.9771C143.78 27.1497 143.611 27.135 143.665 27.135V25.135C143.339 25.135 142.891 25.2103 142.538 25.5629L143.952 26.9771ZM143.665 27.135H145.15V25.135H143.665V27.135ZM146.15 26.135V21.095H144.15V26.135H146.15ZM145.15 20.095H143.665V22.095H145.15V20.095ZM143.665 20.095C143.636 20.095 143.651 20.0916 143.692 20.1035C143.737 20.1162 143.821 20.1492 143.909 20.2276L142.581 21.7224C142.934 22.0366 143.365 22.095 143.665 22.095V20.095ZM143.992 20.3106C144.071 20.3988 144.104 20.4832 144.117 20.5278C144.129 20.5695 144.125 20.5837 144.125 20.555H142.125C142.125 20.8552 142.183 21.2859 142.498 21.6394L143.992 20.3106ZM144.125 20.555V18.74H142.125V20.555H144.125ZM144.125 18.74C144.125 18.71 144.129 18.7298 144.114 18.7803C144.098 18.8342 144.055 18.9388 143.952 19.0421L142.538 17.6279C142.177 17.9885 142.125 18.4546 142.125 18.74H144.125ZM143.952 19.0421C143.78 19.2147 143.611 19.2 143.665 19.2V17.2C143.339 17.2 142.891 17.2753 142.538 17.6279L143.952 19.0421ZM143.665 19.2H150.055V17.2H143.665V19.2ZM150.055 19.2C150.076 19.2 150.045 19.2032 149.983 19.1824C149.914 19.1597 149.809 19.1073 149.713 18.9994L151.207 17.6706C150.851 17.27 150.368 17.2 150.055 17.2V19.2ZM149.796 19.0824C149.688 18.9865 149.635 18.8808 149.613 18.8125C149.592 18.7503 149.595 18.7188 149.595 18.74H151.595C151.595 18.4271 151.525 17.9437 151.124 17.5876L149.796 19.0824ZM149.595 18.74V20.555H151.595V18.74H149.595ZM149.595 20.555C149.595 20.6092 149.58 20.4405 149.753 20.2679L151.167 21.6821C151.52 21.3295 151.595 20.8808 151.595 20.555H149.595ZM149.753 20.2679C149.856 20.1646 149.961 20.1221 150.015 20.1062C150.065 20.0912 150.085 20.095 150.055 20.095V22.095C150.34 22.095 150.807 22.0428 151.167 21.6821L149.753 20.2679ZM150.055 20.095H148.6V22.095H150.055V20.095ZM147.6 21.095V26.135H149.6V21.095H147.6ZM148.6 27.135H150.055V25.135H148.6V27.135ZM150.055 27.135C150.076 27.135 150.045 27.1382 149.983 27.1174C149.914 27.0947 149.809 27.0423 149.713 26.9344L151.207 25.6056C150.851 25.205 150.368 25.135 150.055 25.135V27.135ZM149.796 27.0174C149.688 26.9215 149.635 26.8158 149.613 26.7475C149.592 26.6853 149.595 26.6538 149.595 26.675H151.595C151.595 26.3621 151.525 25.8787 151.124 25.5226L149.796 27.0174ZM149.595 26.675V28.46H151.595V26.675H149.595ZM149.595 28.46C149.595 28.5142 149.58 28.3455 149.753 28.1729L151.167 29.5871C151.52 29.2345 151.595 28.7858 151.595 28.46H149.595ZM149.753 28.1729C149.856 28.0696 149.961 28.0271 150.015 28.0112C150.065 27.9962 150.085 28 150.055 28V30C150.34 30 150.807 29.9478 151.167 29.5871L149.753 28.1729ZM150.055 28H143.665V30H150.055V28ZM152.567 28.88L151.82 29.5444L151.859 29.5883L151.903 29.6274L152.567 28.88ZM152.567 18.335L151.86 17.6279V17.6279L152.567 18.335ZM160.352 18.335L159.605 18.9994L159.644 19.0433L159.688 19.0824L160.352 18.335ZM155.807 21.035V20.035H154.807V21.035H155.807ZM155.807 22.19H154.807V23.19H155.807V22.19ZM159.137 22.325L158.39 22.9894L158.429 23.0333L158.473 23.0724L159.137 22.325ZM159.137 24.755L158.43 24.0479L159.137 24.755ZM155.807 24.875V23.875H154.807V24.875H155.807ZM155.807 26.165H154.807V27.165H155.807V26.165ZM160.352 26.3L159.605 26.9644L159.644 27.0083L159.688 27.0474L160.352 26.3ZM160.352 28.88L161.059 29.5871V29.5871L160.352 28.88ZM159.947 28H152.987V30H159.947V28ZM152.987 28C152.958 28 152.973 27.9966 153.014 28.0085C153.059 28.0212 153.143 28.0542 153.231 28.1326L151.903 29.6274C152.256 29.9416 152.687 30 152.987 30V28ZM153.315 28.2156C153.393 28.3038 153.426 28.3882 153.439 28.4328C153.451 28.4745 153.447 28.4887 153.447 28.46H151.447C151.447 28.7602 151.506 29.1909 151.82 29.5444L153.315 28.2156ZM153.447 28.46V18.74H151.447V28.46H153.447ZM153.447 18.74C153.447 18.71 153.451 18.7298 153.436 18.7803C153.42 18.8342 153.377 18.9388 153.274 19.0421L151.86 17.6279C151.499 17.9885 151.447 18.4546 151.447 18.74H153.447ZM153.274 19.0421C153.102 19.2147 152.933 19.2 152.987 19.2V17.2C152.661 17.2 152.213 17.2753 151.86 17.6279L153.274 19.0421ZM152.987 19.2H159.947V17.2H152.987V19.2ZM159.947 19.2C159.968 19.2 159.937 19.2032 159.875 19.1824C159.806 19.1597 159.701 19.1073 159.605 18.9994L161.1 17.6706C160.743 17.27 160.26 17.2 159.947 17.2V19.2ZM159.688 19.0824C159.58 18.9865 159.527 18.8808 159.505 18.8125C159.484 18.7503 159.487 18.7188 159.487 18.74H161.487C161.487 18.4271 161.417 17.9437 161.016 17.5876L159.688 19.0824ZM159.487 18.74V20.495H161.487V18.74H159.487ZM159.487 20.495C159.487 20.5492 159.472 20.3805 159.645 20.2079L161.059 21.6221C161.412 21.2695 161.487 20.8208 161.487 20.495H159.487ZM159.645 20.2079C159.748 20.1046 159.853 20.0621 159.907 20.0462C159.957 20.0312 159.977 20.035 159.947 20.035V22.035C160.233 22.035 160.699 21.9828 161.059 21.6221L159.645 20.2079ZM159.947 20.035H155.807V22.035H159.947V20.035ZM154.807 21.035V22.19H156.807V21.035H154.807ZM155.807 23.19H158.732V21.19H155.807V23.19ZM158.732 23.19C158.753 23.19 158.722 23.1932 158.66 23.1724C158.591 23.1497 158.486 23.0973 158.39 22.9894L159.885 21.6606C159.528 21.26 159.045 21.19 158.732 21.19V23.19ZM158.473 23.0724C158.365 22.9765 158.312 22.8708 158.29 22.8025C158.269 22.7403 158.272 22.7088 158.272 22.73H160.272C160.272 22.4171 160.202 21.9337 159.801 21.5776L158.473 23.0724ZM158.272 22.73V24.335H160.272V22.73H158.272ZM158.272 24.335C158.272 24.3892 158.257 24.2205 158.43 24.0479L159.844 25.4621C160.197 25.1095 160.272 24.6608 160.272 24.335H158.272ZM158.43 24.0479C158.533 23.9446 158.638 23.9021 158.692 23.8862C158.742 23.8712 158.762 23.875 158.732 23.875V25.875C159.018 25.875 159.484 25.8228 159.844 25.4621L158.43 24.0479ZM158.732 23.875H155.807V25.875H158.732V23.875ZM154.807 24.875V26.165H156.807V24.875H154.807ZM155.807 27.165H159.947V25.165H155.807V27.165ZM159.947 27.165C159.968 27.165 159.937 27.1682 159.875 27.1474C159.806 27.1247 159.701 27.0723 159.605 26.9644L161.1 25.6356C160.743 25.235 160.26 25.165 159.947 25.165V27.165ZM159.688 27.0474C159.58 26.9515 159.527 26.8458 159.505 26.7775C159.484 26.7153 159.487 26.6838 159.487 26.705H161.487C161.487 26.3921 161.417 25.9087 161.016 25.5526L159.688 27.0474ZM159.487 26.705V28.46H161.487V26.705H159.487ZM159.487 28.46C159.487 28.5142 159.472 28.3455 159.645 28.1729L161.059 29.5871C161.412 29.2345 161.487 28.7858 161.487 28.46H159.487ZM159.645 28.1729C159.748 28.0696 159.853 28.0271 159.907 28.0112C159.957 27.9962 159.977 28 159.947 28V30C160.233 30 160.699 29.9478 161.059 29.5871L159.645 28.1729ZM162.382 28.88L161.634 29.5444L161.673 29.5883L161.717 29.6274L162.382 28.88ZM162.382 18.335L161.674 17.6279V17.6279L162.382 18.335ZM164.842 18.29L164.423 19.198L164.435 19.2037L164.448 19.2091L164.842 18.29ZM165.247 18.605L164.491 19.2599L164.494 19.263L165.247 18.605ZM168.157 21.935L167.404 22.593L169.157 24.599V21.935H168.157ZM171.352 18.335L170.604 18.9994L170.643 19.0433L170.687 19.0824L171.352 18.335ZM171.352 28.88L170.644 28.1729V28.1729L171.352 28.88ZM168.277 28.88L167.529 29.5444L167.568 29.5883L167.612 29.6274L168.277 28.88ZM168.157 26.615H169.157V26.2554L168.928 25.9781L168.157 26.615ZM165.592 23.51L166.363 22.8731L164.592 20.7293V23.51H165.592ZM165.457 28.88L164.749 28.1729L165.457 28.88ZM165.052 28H162.802V30H165.052V28ZM162.802 28C162.773 28 162.787 27.9966 162.829 28.0085C162.873 28.0212 162.958 28.0542 163.046 28.1326L161.717 29.6274C162.071 29.9416 162.501 30 162.802 30V28ZM163.129 28.2156C163.207 28.3038 163.24 28.3882 163.253 28.4328C163.265 28.4745 163.262 28.4887 163.262 28.46H161.262C161.262 28.7602 161.32 29.1909 161.634 29.5444L163.129 28.2156ZM163.262 28.46V18.74H161.262V28.46H163.262ZM163.262 18.74C163.262 18.71 163.265 18.7298 163.25 18.7803C163.234 18.8342 163.192 18.9388 163.089 19.0421L161.674 17.6279C161.314 17.9885 161.262 18.4546 161.262 18.74H163.262ZM163.089 19.0421C162.916 19.2147 162.747 19.2 162.802 19.2V17.2C162.476 17.2 162.027 17.2753 161.674 17.6279L163.089 19.0421ZM162.802 19.2H164.362V17.2H162.802V19.2ZM164.362 19.2C164.405 19.2 164.43 19.2035 164.44 19.2054C164.45 19.2072 164.442 19.2069 164.423 19.198L165.261 17.382C164.964 17.245 164.651 17.2 164.362 17.2V19.2ZM164.448 19.2091C164.43 19.2016 164.426 19.1968 164.434 19.2031C164.442 19.2098 164.462 19.2266 164.491 19.2599L166.002 17.9501C165.802 17.7191 165.55 17.5057 165.235 17.3709L164.448 19.2091ZM164.494 19.263L167.404 22.593L168.91 21.277L166 17.947L164.494 19.263ZM169.157 21.935V18.74H167.157V21.935H169.157ZM169.157 18.74C169.157 18.71 169.16 18.7298 169.145 18.7803C169.129 18.8342 169.087 18.9388 168.984 19.0421L167.569 17.6279C167.209 17.9885 167.157 18.4546 167.157 18.74H169.157ZM168.984 19.0421C168.811 19.2147 168.642 19.2 168.697 19.2V17.2C168.371 17.2 167.922 17.2753 167.569 17.6279L168.984 19.0421ZM168.697 19.2H170.947V17.2H168.697V19.2ZM170.947 19.2C170.968 19.2 170.936 19.2032 170.874 19.1824C170.806 19.1597 170.7 19.1073 170.604 18.9994L172.099 17.6706C171.743 17.27 171.259 17.2 170.947 17.2V19.2ZM170.687 19.0824C170.579 18.9865 170.527 18.8808 170.504 18.8125C170.483 18.7503 170.487 18.7188 170.487 18.74H172.487C172.487 18.4271 172.417 17.9437 172.016 17.5876L170.687 19.0824ZM170.487 18.74V28.46H172.487V18.74H170.487ZM170.487 28.46C170.487 28.5142 170.472 28.3455 170.644 28.1729L172.059 29.5871C172.411 29.2345 172.487 28.7858 172.487 28.46H170.487ZM170.644 28.1729C170.748 28.0696 170.852 28.0271 170.906 28.0112C170.957 27.9962 170.977 28 170.947 28V30C171.232 30 171.698 29.9478 172.059 29.5871L170.644 28.1729ZM170.947 28H168.697V30H170.947V28ZM168.697 28C168.668 28 168.682 27.9966 168.724 28.0085C168.768 28.0212 168.853 28.0542 168.941 28.1326L167.612 29.6274C167.966 29.9416 168.396 30 168.697 30V28ZM169.024 28.2156C169.102 28.3038 169.135 28.3882 169.148 28.4328C169.16 28.4745 169.157 28.4887 169.157 28.46H167.157C167.157 28.7602 167.215 29.1909 167.529 29.5444L169.024 28.2156ZM169.157 28.46V26.615H167.157V28.46H169.157ZM168.928 25.9781L166.363 22.8731L164.821 24.1469L167.386 27.2519L168.928 25.9781ZM164.592 23.51V28.46H166.592V23.51H164.592ZM164.592 28.46C164.592 28.5142 164.577 28.3455 164.749 28.1729L166.164 29.5871C166.516 29.2345 166.592 28.7858 166.592 28.46H164.592ZM164.749 28.1729C164.853 28.0696 164.957 28.0271 165.011 28.0112C165.062 27.9962 165.082 28 165.052 28V30C165.337 30 165.803 29.9478 166.164 29.5871L164.749 28.1729ZM173.676 28.88L172.928 29.5444L172.967 29.5883L173.011 29.6274L173.676 28.88ZM173.676 18.335L172.968 17.6279V17.6279L173.676 18.335ZM181.926 18.95L181.285 19.7182L181.292 19.7234L181.926 18.95ZM181.926 28.25L181.292 27.4766L181.285 27.4818L181.926 28.25ZM176.961 21.065V20.065H175.961V21.065H176.961ZM176.961 26.165H175.961V27.165H176.961V26.165ZM179.271 25.985L178.563 25.2779L178.548 25.2933L178.533 25.3093L179.271 25.985ZM179.271 21.245L178.533 21.9207L178.563 21.9528L178.595 21.9822L179.271 21.245ZM179.151 28H174.096V30H179.151V28ZM174.096 28C174.067 28 174.081 27.9966 174.123 28.0085C174.167 28.0212 174.252 28.0542 174.34 28.1326L173.011 29.6274C173.365 29.9416 173.795 30 174.096 30V28ZM174.423 28.2156C174.501 28.3038 174.534 28.3882 174.547 28.4328C174.559 28.4745 174.556 28.4887 174.556 28.46H172.556C172.556 28.7602 172.614 29.1909 172.928 29.5444L174.423 28.2156ZM174.556 28.46V18.74H172.556V28.46H174.556ZM174.556 18.74C174.556 18.71 174.559 18.7298 174.544 18.7803C174.528 18.8342 174.486 18.9388 174.383 19.0421L172.968 17.6279C172.608 17.9885 172.556 18.4546 172.556 18.74H174.556ZM174.383 19.0421C174.21 19.2147 174.041 19.2 174.096 19.2V17.2C173.77 17.2 173.321 17.2753 172.968 17.6279L174.383 19.0421ZM174.096 19.2H179.151V17.2H174.096V19.2ZM179.151 19.2C180.298 19.2 180.945 19.4349 181.285 19.7182L182.566 18.1818C181.706 17.4651 180.503 17.2 179.151 17.2V19.2ZM181.292 19.7234C181.601 19.9769 181.841 20.4173 181.841 21.26H183.841C183.841 20.0227 183.47 18.9231 182.559 18.1766L181.292 19.7234ZM181.841 21.26V25.94H183.841V21.26H181.841ZM181.841 25.94C181.841 26.7827 181.601 27.2231 181.292 27.4766L182.559 29.0234C183.47 28.2769 183.841 27.1773 183.841 25.94H181.841ZM181.285 27.4818C180.945 27.7651 180.298 28 179.151 28V30C180.503 30 181.706 29.7349 182.566 29.0182L181.285 27.4818ZM175.961 21.065V26.165H177.961V21.065H175.961ZM176.961 27.165H178.746V25.165H176.961V27.165ZM178.746 27.165C179.132 27.165 179.633 27.0689 180.008 26.6607L178.533 25.3093C178.606 25.2302 178.684 25.1907 178.732 25.1741C178.775 25.1594 178.786 25.165 178.746 25.165V27.165ZM179.978 26.6921C180.358 26.3117 180.451 25.8203 180.451 25.43H178.451C178.451 25.4786 178.444 25.4787 178.454 25.4477C178.466 25.412 178.496 25.3449 178.563 25.2779L179.978 26.6921ZM180.451 25.43V21.785H178.451V25.43H180.451ZM180.451 21.785C180.451 21.4037 180.362 20.8887 179.946 20.5078L178.595 21.9822C178.51 21.9046 178.472 21.8231 178.457 21.7787C178.444 21.7402 178.451 21.7354 178.451 21.785H180.451ZM180.008 20.5693C179.633 20.1611 179.132 20.065 178.746 20.065V22.065C178.786 22.065 178.775 22.0706 178.732 22.0559C178.684 22.0393 178.606 21.9998 178.533 21.9207L180.008 20.5693ZM178.746 20.065H176.961V22.065H178.746V20.065Z" fill="black" mask="url(#path-8-outside-1_2530_2301)"/>
</g>
<defs>
<filter id="filter0_d_2530_2301" x="45.083" y="18.2" width="137.758" height="12.8" filterUnits="userSpaceOnUse" color-interpolation-filters="sRGB">
<feFlood flood-opacity="0" result="BackgroundImageFix"/>
<feColorMatrix in="SourceAlpha" type="matrix" values="0 0 0 0 0 0 0 0 0 0 0 0 0 0 0 0 0 0 127 0" result="hardAlpha"/>
<feOffset dy="2"/>
<feComposite in2="hardAlpha" operator="out"/>
<feColorMatrix type="matrix" values="0 0 0 0 0 0 0 0 0 0 0 0 0 0 0 0 0 0 1 0"/>
<feBlend mode="normal" in2="BackgroundImageFix" result="effect1_dropShadow_2530_2301"/>
<feBlend mode="normal" in="SourceGraphic" in2="effect1_dropShadow_2530_2301" result="shape"/>
</filter>
<linearGradient id="paint0_linear_2530_2301" x1="118.148" y1="40.2" x2="118.148" y2="49.2" gradientUnits="userSpaceOnUse">
<stop stop-color="#DB8400"/>
<stop offset="1" stop-color="#B94100"/>
</linearGradient>
<linearGradient id="paint1_linear_2530_2301" x1="86" y1="44" x2="86" y2="2" gradientUnits="userSpaceOnUse">
<stop stop-color="#FFDE00"/>
<stop offset="1" stop-color="#FFE636"/>
</linearGradient>
<linearGradient id="paint2_linear_2530_2301" x1="7.18519" y1="5" x2="18.361" y2="20.2497" gradientUnits="userSpaceOnUse">
<stop stop-color="white"/>
<stop offset="1" stop-color="white" stop-opacity="0"/>
</linearGradient>
<linearGradient id="paint3_linear_2530_2301" x1="144.673" y1="9.51613" x2="144.673" y2="32.1935" gradientUnits="userSpaceOnUse">
<stop stop-color="#FFDC02"/>
<stop offset="1" stop-color="#FFBB00"/>
</linearGradient>
</defs>
</svg>
