<svg width="54" height="68" viewBox="0 0 54 68" fill="none" xmlns="http://www.w3.org/2000/svg">
<g filter="url(#filter0_iiiii_4501_245)">
<circle cx="27" cy="24" r="24" fill="url(#paint0_linear_4501_245)"/>
</g>
<g filter="url(#filter1_iii_4501_245)">
<path d="M36.2999 30.9585C36.2909 30.91 36.2991 30.8583 36.3276 30.8114C37.0261 29.7096 37.7074 28.6357 38.4181 27.5148C38.5071 27.3749 38.4034 27.1945 38.2354 27.1945H35.1249C35.0017 27.1945 34.9037 27.0935 34.9095 26.9735C34.9739 25.7088 35.0376 24.4726 35.102 23.2143C35.1069 23.1149 35.1836 23.0322 35.2848 23.0171C38.5903 22.5195 40.7388 21.7135 40.7388 20.8033C40.7388 20.8025 40.7388 20.8025 40.7388 20.8017C40.7698 20.6236 40.689 20.4424 40.4997 20.2842C39.7882 19.5179 37.532 18.866 34.4272 18.4709C34.3399 18.4598 34.2657 18.3986 34.2461 18.3151C34.2461 18.3143 34.2461 18.3143 34.2461 18.3136C33.772 16.3143 33.2808 14.319 32.7945 12.323C32.668 11.8063 32.5391 11.2896 32.3954 10.7101C32.3677 10.5996 32.2559 10.5312 32.1417 10.5543C29.0173 11.1862 25.9134 11.0273 22.8249 10.5694C22.7221 10.5543 22.6226 10.6131 22.5883 10.7093C22.563 10.7816 22.545 10.8341 22.532 10.8881C21.9584 13.2451 21.3839 15.6021 20.8144 17.9598C20.7768 18.1164 20.7475 18.2372 20.7164 18.3302C20.6911 18.4074 20.6218 18.463 20.5386 18.4733C17.4803 18.8636 15.2494 19.5044 14.5118 20.2571C14.3192 20.4169 14.2335 20.5902 14.2499 20.7651C14.2491 20.7778 14.2474 20.7905 14.2474 20.8033C14.2474 21.7127 16.3926 22.5179 19.694 23.0155C19.7952 23.0306 19.8719 23.1133 19.8768 23.2127C19.9405 24.4615 20.0041 25.7032 20.0694 26.9878C20.0751 27.1078 19.9772 27.2088 19.854 27.2088H16.75C16.5811 27.2088 16.4783 27.3892 16.5672 27.5291C17.2788 28.6508 17.9593 29.7231 18.6504 30.813C18.6806 30.8607 18.6879 30.9147 18.6773 30.9648C16.8977 31.4744 15.3792 32.1326 14.2229 32.8989C13.8558 33.1318 13.5073 33.387 13.2054 33.6866C12.2875 34.5277 11.775 35.4633 11.775 36.4498H43.225C43.225 34.1644 40.4785 32.1493 36.2999 30.9585ZM28.8248 25.4703C30.0805 24.8232 31.3371 24.1761 32.597 23.5275C32.7112 23.4687 32.8565 23.5187 32.8997 23.638C33.1682 24.382 32.6696 25.4011 31.6676 25.979C30.5938 26.5983 29.3486 26.4902 28.7562 25.7843C28.6705 25.6833 28.7064 25.5315 28.8248 25.4703ZM22.0799 23.6563C22.1175 23.5291 22.2676 23.4702 22.3876 23.5315C23.6548 24.1833 24.9065 24.828 26.1598 25.4727C26.2748 25.5315 26.3132 25.6778 26.2357 25.7795C25.7461 26.4178 24.5858 26.5943 23.5577 26.1078C22.4202 25.5704 21.8213 24.5275 22.0799 23.6563Z" fill="url(#paint1_linear_4501_245)"/>
</g>
<mask id="path-3-outside-1_4501_245" maskUnits="userSpaceOnUse" x="12" y="52" width="31" height="13" fill="black">
<rect fill="white" x="12" y="52" width="31" height="13"/>
<path d="M13.0711 56.408H15.3751V62.888L14.2871 63.032C13.9245 63.032 13.6311 62.92 13.4071 62.696C13.1831 62.472 13.0711 62.1787 13.0711 61.816V56.408ZM14.2871 63.032V61.16H19.3431C19.4178 61.256 19.4818 61.384 19.5351 61.544C19.5885 61.704 19.6151 61.8747 19.6151 62.056C19.6151 62.376 19.5405 62.6213 19.3911 62.792C19.2418 62.952 19.0445 63.032 18.7991 63.032H14.2871ZM15.3751 59.16H13.0711V53.288C13.1778 53.2667 13.3325 53.24 13.5351 53.208C13.7378 53.1653 13.9405 53.144 14.1431 53.144C14.5698 53.144 14.8791 53.224 15.0711 53.384C15.2738 53.5333 15.3751 53.816 15.3751 54.232V59.16ZM27.6955 59.176C27.6955 60.008 27.5302 60.728 27.1995 61.336C26.8688 61.944 26.4048 62.4133 25.8075 62.744C25.2102 63.0747 24.5062 63.24 23.6955 63.24C22.8848 63.24 22.1755 63.08 21.5675 62.76C20.9702 62.4293 20.5062 61.96 20.1755 61.352C19.8448 60.744 19.6795 60.0187 19.6795 59.176C19.6795 58.344 19.8448 57.6293 20.1755 57.032C20.5168 56.424 20.9862 55.9547 21.5835 55.624C22.1915 55.2933 22.8955 55.128 23.6955 55.128C24.4955 55.128 25.1942 55.2933 25.7915 55.624C26.3888 55.9547 26.8528 56.424 27.1835 57.032C27.5248 57.64 27.6955 58.3547 27.6955 59.176ZM23.6795 56.888C23.1568 56.888 22.7408 57.0907 22.4315 57.496C22.1222 57.8907 21.9675 58.4507 21.9675 59.176C21.9675 59.9227 22.1168 60.4933 22.4155 60.888C22.7248 61.2827 23.1515 61.48 23.6955 61.48C24.2288 61.48 24.6448 61.2827 24.9435 60.888C25.2528 60.4827 25.4075 59.912 25.4075 59.176C25.4075 58.4613 25.2528 57.9013 24.9435 57.496C24.6448 57.0907 24.2235 56.888 23.6795 56.888ZM36.0986 59.176C36.0986 60.008 35.9333 60.728 35.6026 61.336C35.272 61.944 34.808 62.4133 34.2106 62.744C33.6133 63.0747 32.9093 63.24 32.0986 63.24C31.288 63.24 30.5786 63.08 29.9706 62.76C29.3733 62.4293 28.9093 61.96 28.5786 61.352C28.248 60.744 28.0826 60.0187 28.0826 59.176C28.0826 58.344 28.248 57.6293 28.5786 57.032C28.92 56.424 29.3893 55.9547 29.9866 55.624C30.5946 55.2933 31.2986 55.128 32.0986 55.128C32.8986 55.128 33.5973 55.2933 34.1946 55.624C34.792 55.9547 35.256 56.424 35.5866 57.032C35.928 57.64 36.0986 58.3547 36.0986 59.176ZM32.0826 56.888C31.56 56.888 31.144 57.0907 30.8346 57.496C30.5253 57.8907 30.3706 58.4507 30.3706 59.176C30.3706 59.9227 30.52 60.4933 30.8186 60.888C31.128 61.2827 31.5546 61.48 32.0986 61.48C32.632 61.48 33.048 61.2827 33.3466 60.888C33.656 60.4827 33.8106 59.912 33.8106 59.176C33.8106 58.4613 33.656 57.9013 33.3466 57.496C33.048 57.0907 32.6266 56.888 32.0826 56.888ZM36.8697 58.776H39.0937V60.552C39.0937 60.872 39.1897 61.1013 39.3817 61.24C39.5844 61.3787 39.8617 61.448 40.2137 61.448C40.3844 61.448 40.5604 61.432 40.7417 61.4C40.9337 61.3573 41.0991 61.3093 41.2377 61.256C41.3231 61.3413 41.3977 61.4533 41.4617 61.592C41.5257 61.72 41.5577 61.8747 41.5577 62.056C41.5577 62.3867 41.4084 62.664 41.1097 62.888C40.8217 63.112 40.3417 63.224 39.6697 63.224C38.7951 63.224 38.1071 63.0267 37.6057 62.632C37.1151 62.2373 36.8697 61.5973 36.8697 60.712V58.776ZM38.2617 57.256V55.528H41.3657C41.4191 55.6133 41.4671 55.7307 41.5097 55.88C41.5631 56.0293 41.5897 56.1947 41.5897 56.376C41.5897 56.6747 41.5204 56.8987 41.3817 57.048C41.2431 57.1867 41.0564 57.256 40.8217 57.256H38.2617ZM39.0937 59.192H36.8697V53.432C36.9657 53.4 37.1044 53.368 37.2857 53.336C37.4777 53.304 37.6751 53.288 37.8777 53.288C38.2937 53.288 38.5977 53.3627 38.7897 53.512C38.9924 53.6613 39.0937 53.9333 39.0937 54.328V59.192Z"/>
</mask>
<path d="M13.0711 56.408H15.3751V62.888L14.2871 63.032C13.9245 63.032 13.6311 62.92 13.4071 62.696C13.1831 62.472 13.0711 62.1787 13.0711 61.816V56.408ZM14.2871 63.032V61.16H19.3431C19.4178 61.256 19.4818 61.384 19.5351 61.544C19.5885 61.704 19.6151 61.8747 19.6151 62.056C19.6151 62.376 19.5405 62.6213 19.3911 62.792C19.2418 62.952 19.0445 63.032 18.7991 63.032H14.2871ZM15.3751 59.16H13.0711V53.288C13.1778 53.2667 13.3325 53.24 13.5351 53.208C13.7378 53.1653 13.9405 53.144 14.1431 53.144C14.5698 53.144 14.8791 53.224 15.0711 53.384C15.2738 53.5333 15.3751 53.816 15.3751 54.232V59.16ZM27.6955 59.176C27.6955 60.008 27.5302 60.728 27.1995 61.336C26.8688 61.944 26.4048 62.4133 25.8075 62.744C25.2102 63.0747 24.5062 63.24 23.6955 63.24C22.8848 63.24 22.1755 63.08 21.5675 62.76C20.9702 62.4293 20.5062 61.96 20.1755 61.352C19.8448 60.744 19.6795 60.0187 19.6795 59.176C19.6795 58.344 19.8448 57.6293 20.1755 57.032C20.5168 56.424 20.9862 55.9547 21.5835 55.624C22.1915 55.2933 22.8955 55.128 23.6955 55.128C24.4955 55.128 25.1942 55.2933 25.7915 55.624C26.3888 55.9547 26.8528 56.424 27.1835 57.032C27.5248 57.64 27.6955 58.3547 27.6955 59.176ZM23.6795 56.888C23.1568 56.888 22.7408 57.0907 22.4315 57.496C22.1222 57.8907 21.9675 58.4507 21.9675 59.176C21.9675 59.9227 22.1168 60.4933 22.4155 60.888C22.7248 61.2827 23.1515 61.48 23.6955 61.48C24.2288 61.48 24.6448 61.2827 24.9435 60.888C25.2528 60.4827 25.4075 59.912 25.4075 59.176C25.4075 58.4613 25.2528 57.9013 24.9435 57.496C24.6448 57.0907 24.2235 56.888 23.6795 56.888ZM36.0986 59.176C36.0986 60.008 35.9333 60.728 35.6026 61.336C35.272 61.944 34.808 62.4133 34.2106 62.744C33.6133 63.0747 32.9093 63.24 32.0986 63.24C31.288 63.24 30.5786 63.08 29.9706 62.76C29.3733 62.4293 28.9093 61.96 28.5786 61.352C28.248 60.744 28.0826 60.0187 28.0826 59.176C28.0826 58.344 28.248 57.6293 28.5786 57.032C28.92 56.424 29.3893 55.9547 29.9866 55.624C30.5946 55.2933 31.2986 55.128 32.0986 55.128C32.8986 55.128 33.5973 55.2933 34.1946 55.624C34.792 55.9547 35.256 56.424 35.5866 57.032C35.928 57.64 36.0986 58.3547 36.0986 59.176ZM32.0826 56.888C31.56 56.888 31.144 57.0907 30.8346 57.496C30.5253 57.8907 30.3706 58.4507 30.3706 59.176C30.3706 59.9227 30.52 60.4933 30.8186 60.888C31.128 61.2827 31.5546 61.48 32.0986 61.48C32.632 61.48 33.048 61.2827 33.3466 60.888C33.656 60.4827 33.8106 59.912 33.8106 59.176C33.8106 58.4613 33.656 57.9013 33.3466 57.496C33.048 57.0907 32.6266 56.888 32.0826 56.888ZM36.8697 58.776H39.0937V60.552C39.0937 60.872 39.1897 61.1013 39.3817 61.24C39.5844 61.3787 39.8617 61.448 40.2137 61.448C40.3844 61.448 40.5604 61.432 40.7417 61.4C40.9337 61.3573 41.0991 61.3093 41.2377 61.256C41.3231 61.3413 41.3977 61.4533 41.4617 61.592C41.5257 61.72 41.5577 61.8747 41.5577 62.056C41.5577 62.3867 41.4084 62.664 41.1097 62.888C40.8217 63.112 40.3417 63.224 39.6697 63.224C38.7951 63.224 38.1071 63.0267 37.6057 62.632C37.1151 62.2373 36.8697 61.5973 36.8697 60.712V58.776ZM38.2617 57.256V55.528H41.3657C41.4191 55.6133 41.4671 55.7307 41.5097 55.88C41.5631 56.0293 41.5897 56.1947 41.5897 56.376C41.5897 56.6747 41.5204 56.8987 41.3817 57.048C41.2431 57.1867 41.0564 57.256 40.8217 57.256H38.2617ZM39.0937 59.192H36.8697V53.432C36.9657 53.4 37.1044 53.368 37.2857 53.336C37.4777 53.304 37.6751 53.288 37.8777 53.288C38.2937 53.288 38.5977 53.3627 38.7897 53.512C38.9924 53.6613 39.0937 53.9333 39.0937 54.328V59.192Z" fill="white"/>
<path d="M13.0711 56.408V55.408H12.0711V56.408H13.0711ZM15.3751 56.408H16.3751V55.408H15.3751V56.408ZM15.3751 62.888L15.5063 63.8794L16.3751 63.7644V62.888H15.3751ZM14.2871 63.032V64.032H14.353L14.4183 64.0234L14.2871 63.032ZM13.4071 62.696L12.7 63.4031L13.4071 62.696ZM14.2871 63.032H13.2871V64.032H14.2871V63.032ZM14.2871 61.16V60.16H13.2871V61.16H14.2871ZM19.3431 61.16L20.1325 60.5461L19.8322 60.16H19.3431V61.16ZM19.3911 62.792L20.1222 63.4743L20.1331 63.4626L20.1437 63.4505L19.3911 62.792ZM15.3751 59.16V60.16H16.3751V59.16H15.3751ZM13.0711 59.16H12.0711V60.16H13.0711V59.16ZM13.0711 53.288L12.875 52.3074L12.0711 52.4682V53.288H13.0711ZM13.5351 53.208L13.6911 54.1958L13.7162 54.1918L13.7411 54.1865L13.5351 53.208ZM15.0711 53.384L14.4309 54.1522L14.4539 54.1713L14.4779 54.1891L15.0711 53.384ZM13.0711 57.408H15.3751V55.408H13.0711V57.408ZM14.3751 56.408V62.888H16.3751V56.408H14.3751ZM15.2439 61.8966L14.1559 62.0406L14.4183 64.0234L15.5063 63.8794L15.2439 61.8966ZM14.2871 62.032C14.148 62.032 14.1231 61.9978 14.1142 61.9889L12.7 63.4031C13.1391 63.8422 13.701 64.032 14.2871 64.032V62.032ZM14.1142 61.9889C14.1053 61.98 14.0711 61.9552 14.0711 61.816H12.0711C12.0711 62.4022 12.2609 62.964 12.7 63.4031L14.1142 61.9889ZM14.0711 61.816V56.408H12.0711V61.816H14.0711ZM15.2871 63.032V61.16H13.2871V63.032H15.2871ZM14.2871 62.16H19.3431V60.16H14.2871V62.16ZM18.5538 61.7739C18.5443 61.7618 18.5451 61.7601 18.5527 61.7752C18.5602 61.7902 18.5722 61.8174 18.5864 61.8602L20.4838 61.2278C20.4075 60.9987 20.2979 60.7588 20.1325 60.5461L18.5538 61.7739ZM18.5864 61.8602C18.6033 61.9109 18.6151 61.9741 18.6151 62.056H20.6151C20.6151 61.7753 20.5736 61.4971 20.4838 61.2278L18.5864 61.8602ZM18.6151 62.056C18.6151 62.1407 18.605 62.1805 18.6025 62.1888C18.601 62.1937 18.6084 62.1679 18.6385 62.1335L20.1437 63.4505C20.5074 63.0349 20.6151 62.5194 20.6151 62.056H18.6151ZM18.6601 62.1097C18.6818 62.0864 18.7155 62.0615 18.7554 62.0453C18.7928 62.0301 18.8124 62.032 18.7991 62.032V64.032C19.2846 64.032 19.7598 63.8625 20.1222 63.4743L18.6601 62.1097ZM18.7991 62.032H14.2871V64.032H18.7991V62.032ZM15.3751 58.16H13.0711V60.16H15.3751V58.16ZM14.0711 59.16V53.288H12.0711V59.16H14.0711ZM13.2672 54.2686C13.3536 54.2513 13.4923 54.2271 13.6911 54.1958L13.3792 52.2202C13.1726 52.2529 13.0019 52.282 12.875 52.3074L13.2672 54.2686ZM13.7411 54.1865C13.8775 54.1578 14.0112 54.144 14.1431 54.144V52.144C13.8697 52.144 13.598 52.1728 13.3291 52.2294L13.7411 54.1865ZM14.1431 54.144C14.2983 54.144 14.3939 54.159 14.4447 54.1721C14.4948 54.1851 14.4755 54.1894 14.4309 54.1522L15.7113 52.6158C15.2504 52.2317 14.6528 52.144 14.1431 52.144V54.144ZM14.4779 54.1891C14.4376 54.1594 14.4073 54.1263 14.3863 54.0965C14.3661 54.0678 14.3587 54.048 14.3578 54.0455C14.3571 54.0435 14.3618 54.0561 14.3665 54.0885C14.3712 54.1208 14.3751 54.1678 14.3751 54.232H16.3751C16.3751 53.7051 16.253 53.0127 15.6643 52.5789L14.4779 54.1891ZM14.3751 54.232V59.16H16.3751V54.232H14.3751ZM27.1995 61.336L28.078 61.8138L28.078 61.8138L27.1995 61.336ZM21.5675 62.76L21.0832 63.6349L21.0924 63.64L21.1018 63.6449L21.5675 62.76ZM20.1755 57.032L19.3035 56.5425L19.3006 56.5477L20.1755 57.032ZM21.5835 55.624L21.1057 54.7455L21.0992 54.7491L21.5835 55.624ZM25.7915 55.624L26.2758 54.7491L26.2758 54.7491L25.7915 55.624ZM27.1835 57.032L26.3049 57.5098L26.3115 57.5215L27.1835 57.032ZM22.4315 57.496L23.2186 58.1129L23.2265 58.1027L22.4315 57.496ZM22.4155 60.888L21.6181 61.4914L21.6232 61.4982L21.6284 61.5049L22.4155 60.888ZM24.9435 60.888L24.1485 60.2813L24.1461 60.2846L24.9435 60.888ZM24.9435 57.496L24.1384 58.0892L24.1434 58.096L24.1485 58.1027L24.9435 57.496ZM26.6955 59.176C26.6955 59.8747 26.5573 60.4238 26.321 60.8582L28.078 61.8138C28.503 61.0322 28.6955 60.1413 28.6955 59.176H26.6955ZM26.321 60.8582C26.08 61.3015 25.7516 61.6319 25.3232 61.8691L26.2918 63.6189C27.058 63.1947 27.6577 62.5865 28.078 61.8138L26.321 60.8582ZM25.3232 61.8691C24.8996 62.1036 24.3685 62.24 23.6955 62.24V64.24C24.6438 64.24 25.5207 64.0457 26.2918 63.6189L25.3232 61.8691ZM23.6955 62.24C23.018 62.24 22.4739 62.107 22.0332 61.8751L21.1018 63.6449C21.8771 64.053 22.7517 64.24 23.6955 64.24V62.24ZM22.0518 61.8851C21.6234 61.6479 21.295 61.3175 21.054 60.8742L19.297 61.8298C19.7173 62.6025 20.3169 63.2107 21.0832 63.6349L22.0518 61.8851ZM21.054 60.8742C20.8186 60.4415 20.6795 59.8878 20.6795 59.176H18.6795C18.6795 60.1496 18.871 61.0465 19.297 61.8298L21.054 60.8742ZM20.6795 59.176C20.6795 58.4767 20.8179 57.9363 21.0504 57.5163L19.3006 56.5477C18.8717 57.3224 18.6795 58.2113 18.6795 59.176H20.6795ZM21.0475 57.5215C21.2999 57.0719 21.6366 56.7376 22.0678 56.4989L21.0992 54.7491C20.3357 55.1717 19.7337 55.7761 19.3035 56.5425L21.0475 57.5215ZM22.0613 56.5025C22.5012 56.2632 23.0362 56.128 23.6955 56.128V54.128C22.7548 54.128 21.8818 54.3235 21.1057 54.7455L22.0613 56.5025ZM23.6955 56.128C24.3553 56.128 24.8817 56.2634 25.3072 56.4989L26.2758 54.7491C25.5066 54.3233 24.6357 54.128 23.6955 54.128V56.128ZM25.3072 56.4989C25.7356 56.7361 26.064 57.0665 26.305 57.5098L28.062 56.5542C27.6417 55.7815 27.042 55.1733 26.2758 54.7491L25.3072 56.4989ZM26.3115 57.5215C26.5551 57.9554 26.6955 58.4955 26.6955 59.176H28.6955C28.6955 58.2139 28.4946 57.3246 28.0555 56.5425L26.3115 57.5215ZM23.6795 55.888C22.8542 55.888 22.1405 56.2289 21.6365 56.8893L23.2265 58.1027C23.3411 57.9524 23.4595 57.888 23.6795 57.888V55.888ZM21.6444 56.8791C21.1474 57.5133 20.9675 58.3238 20.9675 59.176H22.9675C22.9675 58.5776 23.0969 58.2681 23.2186 58.1129L21.6444 56.8791ZM20.9675 59.176C20.9675 60.0353 21.1362 60.8546 21.6181 61.4914L23.2129 60.2846C23.0975 60.1321 22.9675 59.81 22.9675 59.176H20.9675ZM21.6284 61.5049C22.1451 62.164 22.8742 62.48 23.6955 62.48V60.48C23.4288 60.48 23.3046 60.4013 23.2026 60.2711L21.6284 61.5049ZM23.6955 62.48C24.5139 62.48 25.2368 62.1575 25.7409 61.4914L24.1461 60.2846C24.0528 60.4078 23.9438 60.48 23.6955 60.48V62.48ZM25.7385 61.4947C26.2283 60.8528 26.4075 60.0372 26.4075 59.176H24.4075C24.4075 59.7868 24.2773 60.1126 24.1485 60.2813L25.7385 61.4947ZM26.4075 59.176C26.4075 58.3282 26.2249 57.5268 25.7385 56.8893L24.1485 58.1027C24.2807 58.2759 24.4075 58.5945 24.4075 59.176H26.4075ZM25.7486 56.9028C25.2444 56.2186 24.5115 55.888 23.6795 55.888V57.888C23.9355 57.888 24.0452 57.9627 24.1384 58.0892L25.7486 56.9028ZM35.6026 61.336L36.4811 61.8138L36.4811 61.8138L35.6026 61.336ZM29.9706 62.76L29.4863 63.6349L29.4955 63.64L29.5049 63.6449L29.9706 62.76ZM28.5786 57.032L27.7066 56.5425L27.7037 56.5477L28.5786 57.032ZM29.9866 55.624L29.5088 54.7455L29.5023 54.7491L29.9866 55.624ZM34.1946 55.624L34.6789 54.7491L34.6789 54.7491L34.1946 55.624ZM35.5866 57.032L34.7081 57.5098L34.7146 57.5215L35.5866 57.032ZM30.8346 57.496L31.6217 58.1129L31.6296 58.1027L30.8346 57.496ZM30.8186 60.888L30.0212 61.4914L30.0263 61.4982L30.0316 61.5049L30.8186 60.888ZM33.3466 60.888L32.5517 60.2813L32.5492 60.2846L33.3466 60.888ZM33.3466 57.496L32.5416 58.0892L32.5466 58.096L32.5517 58.1027L33.3466 57.496ZM35.0986 59.176C35.0986 59.8747 34.9604 60.4238 34.7241 60.8582L36.4811 61.8138C36.9062 61.0322 37.0986 60.1413 37.0986 59.176H35.0986ZM34.7241 60.8582C34.4831 61.3015 34.1547 61.6319 33.7263 61.8691L34.6949 63.6189C35.4612 63.1947 36.0608 62.5865 36.4811 61.8138L34.7241 60.8582ZM33.7263 61.8691C33.3027 62.1036 32.7716 62.24 32.0986 62.24V64.24C33.047 64.24 33.9239 64.0457 34.6949 63.6189L33.7263 61.8691ZM32.0986 62.24C31.4211 62.24 30.877 62.107 30.4364 61.8751L29.5049 63.6449C30.2802 64.053 31.1548 64.24 32.0986 64.24V62.24ZM30.4549 61.8851C30.0265 61.6479 29.6982 61.3175 29.4571 60.8742L27.7001 61.8298C28.1204 62.6025 28.7201 63.2107 29.4863 63.6349L30.4549 61.8851ZM29.4571 60.8742C29.2218 60.4415 29.0826 59.8878 29.0826 59.176H27.0826C27.0826 60.1496 27.2741 61.0465 27.7001 61.8298L29.4571 60.8742ZM29.0826 59.176C29.0826 58.4767 29.221 57.9363 29.4535 57.5163L27.7037 56.5477C27.2749 57.3224 27.0826 58.2113 27.0826 59.176H29.0826ZM29.4506 57.5215C29.7031 57.0719 30.0397 56.7376 30.4709 56.4989L29.5023 54.7491C28.7389 55.1717 28.1369 55.7761 27.7066 56.5425L29.4506 57.5215ZM30.4644 56.5025C30.9044 56.2632 31.4393 56.128 32.0986 56.128V54.128C31.1579 54.128 30.2849 54.3235 29.5089 54.7455L30.4644 56.5025ZM32.0986 56.128C32.7584 56.128 33.2848 56.2634 33.7103 56.4989L34.6789 54.7491C33.9097 54.3233 33.0388 54.128 32.0986 54.128V56.128ZM33.7103 56.4989C34.1387 56.7361 34.4671 57.0665 34.7081 57.5098L36.4651 56.5542C36.0448 55.7815 35.4452 55.1733 34.6789 54.7491L33.7103 56.4989ZM34.7146 57.5215C34.9582 57.9554 35.0986 58.4955 35.0986 59.176H37.0986C37.0986 58.2139 36.8977 57.3246 36.4586 56.5425L34.7146 57.5215ZM32.0826 55.888C31.2573 55.888 30.5437 56.2289 30.0397 56.8893L31.6296 58.1027C31.7442 57.9524 31.8626 57.888 32.0826 57.888V55.888ZM30.0476 56.8791C29.5505 57.5133 29.3706 58.3238 29.3706 59.176H31.3706C31.3706 58.5776 31.5 58.2681 31.6217 58.1129L30.0476 56.8791ZM29.3706 59.176C29.3706 60.0353 29.5393 60.8546 30.0212 61.4914L31.616 60.2846C31.5006 60.1321 31.3706 59.81 31.3706 59.176H29.3706ZM30.0316 61.5049C30.5482 62.164 31.2773 62.48 32.0986 62.48V60.48C31.8319 60.48 31.7077 60.4013 31.6057 60.2711L30.0316 61.5049ZM32.0986 62.48C32.917 62.48 33.64 62.1575 34.144 61.4914L32.5492 60.2846C32.4559 60.4078 32.3469 60.48 32.0986 60.48V62.48ZM34.1416 61.4947C34.6315 60.8528 34.8106 60.0372 34.8106 59.176H32.8106C32.8106 59.7868 32.6805 60.1126 32.5517 60.2813L34.1416 61.4947ZM34.8106 59.176C34.8106 58.3282 34.6281 57.5268 34.1416 56.8893L32.5517 58.1027C32.6838 58.2759 32.8106 58.5945 32.8106 59.176H34.8106ZM34.1517 56.9028C33.6475 56.2186 32.9146 55.888 32.0826 55.888V57.888C32.3386 57.888 32.4484 57.9627 32.5416 58.0892L34.1517 56.9028ZM36.8697 58.776V57.776H35.8697V58.776H36.8697ZM39.0937 58.776H40.0937V57.776H39.0937V58.776ZM39.3817 61.24L38.7963 62.0507L38.8066 62.0581L38.8171 62.0653L39.3817 61.24ZM40.7417 61.4L40.9155 62.3848L40.9372 62.381L40.9587 62.3762L40.7417 61.4ZM41.2377 61.256L41.9449 60.5489L41.4853 60.0894L40.8788 60.3227L41.2377 61.256ZM41.4617 61.592L40.5538 62.0111L40.5603 62.0252L40.5673 62.0392L41.4617 61.592ZM41.1097 62.888L40.5097 62.088L40.5027 62.0933L40.4958 62.0986L41.1097 62.888ZM37.6057 62.632L36.979 63.4113L36.9872 63.4177L37.6057 62.632ZM38.2617 57.256H37.2617V58.256H38.2617V57.256ZM38.2617 55.528V54.528H37.2617V55.528H38.2617ZM41.3657 55.528L42.2137 54.998L41.92 54.528H41.3657V55.528ZM41.5097 55.88L40.5482 56.1547L40.5571 56.1858L40.568 56.2163L41.5097 55.88ZM41.3817 57.048L42.0889 57.7551L42.1019 57.742L42.1145 57.7285L41.3817 57.048ZM39.0937 59.192V60.192H40.0937V59.192H39.0937ZM36.8697 59.192H35.8697V60.192H36.8697V59.192ZM36.8697 53.432L36.5535 52.4833L35.8697 52.7112V53.432H36.8697ZM37.2857 53.336L37.1213 52.3496L37.112 52.3512L37.2857 53.336ZM38.7897 53.512L38.1758 54.3014L38.1861 54.3093L38.1966 54.3171L38.7897 53.512ZM36.8697 59.776H39.0937V57.776H36.8697V59.776ZM38.0937 58.776V60.552H40.0937V58.776H38.0937ZM38.0937 60.552C38.0937 61.0706 38.2584 61.6622 38.7963 62.0507L39.9672 60.4293C39.9943 60.4489 40.0206 60.4737 40.0433 60.5027C40.0657 60.5314 40.0799 60.5581 40.0882 60.5779C40.1038 60.6151 40.0937 60.6159 40.0937 60.552H38.0937ZM38.8171 62.0653C39.2438 62.3573 39.7438 62.448 40.2137 62.448V60.448C39.9797 60.448 39.925 60.4001 39.9464 60.4147L38.8171 62.0653ZM40.2137 62.448C40.447 62.448 40.6813 62.4261 40.9155 62.3848L40.568 60.4152C40.4395 60.4379 40.3218 60.448 40.2137 60.448V62.448ZM40.9587 62.3762C41.1846 62.326 41.3998 62.2651 41.5967 62.1893L40.8788 60.3227C40.7984 60.3536 40.6829 60.3887 40.5248 60.4238L40.9587 62.3762ZM40.5306 61.9631C40.5218 61.9542 40.5208 61.9513 40.5257 61.9587C40.5307 61.9662 40.5407 61.9827 40.5538 62.0111L42.3697 61.1729C42.2688 60.9544 42.1324 60.7365 41.9449 60.5489L40.5306 61.9631ZM40.5673 62.0392C40.5568 62.0182 40.5543 62.0055 40.5545 62.0066C40.5548 62.0083 40.5577 62.0236 40.5577 62.056H42.5577C42.5577 61.7598 42.5056 61.4437 42.3562 61.1448L40.5673 62.0392ZM40.5577 62.056C40.5577 62.0628 40.5571 62.0618 40.5586 62.0555C40.5602 62.0489 40.5628 62.0425 40.5653 62.0379C40.5709 62.0274 40.5643 62.0471 40.5097 62.088L41.7097 63.688C42.223 63.3031 42.5577 62.7452 42.5577 62.056H40.5577ZM40.4958 62.0986C40.4985 62.0966 40.4525 62.1321 40.3065 62.1662C40.1624 62.1998 39.9548 62.224 39.6697 62.224V64.224C40.4005 64.224 41.1643 64.1125 41.7237 63.6774L40.4958 62.0986ZM39.6697 62.224C38.9372 62.224 38.494 62.0586 38.2243 61.8463L36.9872 63.4177C37.7201 63.9947 38.653 64.224 39.6697 64.224V62.224ZM38.2325 61.8528C38.0628 61.7163 37.8697 61.4236 37.8697 60.712H35.8697C35.8697 61.7711 36.1673 62.7584 36.979 63.4112L38.2325 61.8528ZM37.8697 60.712V58.776H35.8697V60.712H37.8697ZM39.2617 57.256V55.528H37.2617V57.256H39.2617ZM38.2617 56.528H41.3657V54.528H38.2617V56.528ZM40.5178 56.058C40.5078 56.042 40.5084 56.0397 40.5162 56.0586C40.5236 56.0768 40.5348 56.1078 40.5482 56.1547L42.4713 55.6053C42.4152 55.4091 42.3359 55.1934 42.2137 54.998L40.5178 56.058ZM40.568 56.2163C40.5777 56.2434 40.5897 56.2931 40.5897 56.376H42.5897C42.5897 56.0963 42.5485 55.8152 42.4515 55.5437L40.568 56.2163ZM40.5897 56.376C40.5897 56.4124 40.5876 56.438 40.5854 56.4545C40.5833 56.4709 40.5813 56.4761 40.5825 56.4723C40.5837 56.4683 40.5883 56.4548 40.5992 56.4353C40.6103 56.4154 40.6265 56.3917 40.649 56.3675L42.1145 57.7285C42.4902 57.3238 42.5897 56.8112 42.5897 56.376H40.5897ZM40.6746 56.3409C40.7086 56.3069 40.7502 56.2812 40.7896 56.2666C40.8256 56.2532 40.841 56.256 40.8217 56.256V58.256C41.2658 58.256 41.7265 58.1174 42.0889 57.7551L40.6746 56.3409ZM40.8217 56.256H38.2617V58.256H40.8217V56.256ZM39.0937 58.192H36.8697V60.192H39.0937V58.192ZM37.8697 59.192V53.432H35.8697V59.192H37.8697ZM37.186 54.3807C37.2122 54.3719 37.2942 54.35 37.4595 54.3208L37.112 52.3512C36.9146 52.386 36.7193 52.4281 36.5535 52.4833L37.186 54.3807ZM37.4501 54.3224C37.5856 54.2998 37.7279 54.288 37.8777 54.288V52.288C37.6223 52.288 37.3699 52.3082 37.1213 52.3496L37.4501 54.3224ZM37.8777 54.288C38.0299 54.288 38.126 54.3021 38.1792 54.3151C38.2323 54.3282 38.2178 54.334 38.1758 54.3014L39.4037 52.7226C38.9495 52.3694 38.3734 52.288 37.8777 52.288V54.288ZM38.1966 54.3171C38.161 54.2909 38.1326 54.2609 38.1118 54.2321C38.0916 54.2042 38.083 54.1834 38.0807 54.1771C38.0786 54.1714 38.0821 54.1792 38.0861 54.2053C38.0901 54.2313 38.0937 54.2714 38.0937 54.328H40.0937C40.0937 53.7997 39.9602 53.1323 39.3829 52.7069L38.1966 54.3171ZM38.0937 54.328V59.192H40.0937V54.328H38.0937Z" fill="black" mask="url(#path-3-outside-1_4501_245)"/>
<defs>
<filter id="filter0_iiiii_4501_245" x="3" y="-4" width="48" height="52" filterUnits="userSpaceOnUse" color-interpolation-filters="sRGB">
<feFlood flood-opacity="0" result="BackgroundImageFix"/>
<feBlend mode="normal" in="SourceGraphic" in2="BackgroundImageFix" result="shape"/>
<feColorMatrix in="SourceAlpha" type="matrix" values="0 0 0 0 0 0 0 0 0 0 0 0 0 0 0 0 0 0 127 0" result="hardAlpha"/>
<feOffset dy="-1"/>
<feGaussianBlur stdDeviation="0.5"/>
<feComposite in2="hardAlpha" operator="arithmetic" k2="-1" k3="1"/>
<feColorMatrix type="matrix" values="0 0 0 0 0.921569 0 0 0 0 0.545098 0 0 0 0 0.996078 0 0 0 0.37 0"/>
<feBlend mode="normal" in2="shape" result="effect1_innerShadow_4501_245"/>
<feColorMatrix in="SourceAlpha" type="matrix" values="0 0 0 0 0 0 0 0 0 0 0 0 0 0 0 0 0 0 127 0" result="hardAlpha"/>
<feOffset dy="-2"/>
<feGaussianBlur stdDeviation="1"/>
<feComposite in2="hardAlpha" operator="arithmetic" k2="-1" k3="1"/>
<feColorMatrix type="matrix" values="0 0 0 0 0.921569 0 0 0 0 0.545098 0 0 0 0 0.996078 0 0 0 0.32 0"/>
<feBlend mode="normal" in2="effect1_innerShadow_4501_245" result="effect2_innerShadow_4501_245"/>
<feColorMatrix in="SourceAlpha" type="matrix" values="0 0 0 0 0 0 0 0 0 0 0 0 0 0 0 0 0 0 127 0" result="hardAlpha"/>
<feOffset dy="-5"/>
<feGaussianBlur stdDeviation="1.5"/>
<feComposite in2="hardAlpha" operator="arithmetic" k2="-1" k3="1"/>
<feColorMatrix type="matrix" values="0 0 0 0 0.921569 0 0 0 0 0.545098 0 0 0 0 0.996078 0 0 0 0.19 0"/>
<feBlend mode="normal" in2="effect2_innerShadow_4501_245" result="effect3_innerShadow_4501_245"/>
<feColorMatrix in="SourceAlpha" type="matrix" values="0 0 0 0 0 0 0 0 0 0 0 0 0 0 0 0 0 0 127 0" result="hardAlpha"/>
<feOffset dy="-8"/>
<feGaussianBlur stdDeviation="1.5"/>
<feComposite in2="hardAlpha" operator="arithmetic" k2="-1" k3="1"/>
<feColorMatrix type="matrix" values="0 0 0 0 0.921569 0 0 0 0 0.545098 0 0 0 0 0.996078 0 0 0 0.06 0"/>
<feBlend mode="normal" in2="effect3_innerShadow_4501_245" result="effect4_innerShadow_4501_245"/>
<feColorMatrix in="SourceAlpha" type="matrix" values="0 0 0 0 0 0 0 0 0 0 0 0 0 0 0 0 0 0 127 0" result="hardAlpha"/>
<feOffset dy="-13"/>
<feGaussianBlur stdDeviation="2"/>
<feComposite in2="hardAlpha" operator="arithmetic" k2="-1" k3="1"/>
<feColorMatrix type="matrix" values="0 0 0 0 0.921569 0 0 0 0 0.545098 0 0 0 0 0.996078 0 0 0 0.01 0"/>
<feBlend mode="normal" in2="effect4_innerShadow_4501_245" result="effect5_innerShadow_4501_245"/>
</filter>
<filter id="filter1_iii_4501_245" x="11.775" y="10.5498" width="32.45" height="26.8999" filterUnits="userSpaceOnUse" color-interpolation-filters="sRGB">
<feFlood flood-opacity="0" result="BackgroundImageFix"/>
<feBlend mode="normal" in="SourceGraphic" in2="BackgroundImageFix" result="shape"/>
<feColorMatrix in="SourceAlpha" type="matrix" values="0 0 0 0 0 0 0 0 0 0 0 0 0 0 0 0 0 0 127 0" result="hardAlpha"/>
<feOffset/>
<feGaussianBlur stdDeviation="0.5"/>
<feComposite in2="hardAlpha" operator="arithmetic" k2="-1" k3="1"/>
<feColorMatrix type="matrix" values="0 0 0 0 1 0 0 0 0 0.972549 0 0 0 0 0.780392 0 0 0 0.17 0"/>
<feBlend mode="normal" in2="shape" result="effect1_innerShadow_4501_245"/>
<feColorMatrix in="SourceAlpha" type="matrix" values="0 0 0 0 0 0 0 0 0 0 0 0 0 0 0 0 0 0 127 0" result="hardAlpha"/>
<feOffset dx="1" dy="1"/>
<feGaussianBlur stdDeviation="0.5"/>
<feComposite in2="hardAlpha" operator="arithmetic" k2="-1" k3="1"/>
<feColorMatrix type="matrix" values="0 0 0 0 1 0 0 0 0 0.972549 0 0 0 0 0.780392 0 0 0 0.1 0"/>
<feBlend mode="normal" in2="effect1_innerShadow_4501_245" result="effect2_innerShadow_4501_245"/>
<feColorMatrix in="SourceAlpha" type="matrix" values="0 0 0 0 0 0 0 0 0 0 0 0 0 0 0 0 0 0 127 0" result="hardAlpha"/>
<feOffset dx="2" dy="1"/>
<feGaussianBlur stdDeviation="0.5"/>
<feComposite in2="hardAlpha" operator="arithmetic" k2="-1" k3="1"/>
<feColorMatrix type="matrix" values="0 0 0 0 1 0 0 0 0 0.972549 0 0 0 0 0.780392 0 0 0 0.03 0"/>
<feBlend mode="normal" in2="effect2_innerShadow_4501_245" result="effect3_innerShadow_4501_245"/>
</filter>
<linearGradient id="paint0_linear_4501_245" x1="27" y1="0" x2="27" y2="48" gradientUnits="userSpaceOnUse">
<stop stop-color="#6F00FF"/>
<stop offset="1" stop-color="#B71FFF"/>
</linearGradient>
<linearGradient id="paint1_linear_4501_245" x1="43.225" y1="36.4498" x2="17.8056" y2="5.58342" gradientUnits="userSpaceOnUse">
<stop stop-color="#FF695F"/>
<stop offset="1" stop-color="#FFDD65"/>
</linearGradient>
</defs>
</svg>
