<svg width="343" height="72" viewBox="0 0 343 72" fill="none" xmlns="http://www.w3.org/2000/svg">
<rect y="-6.10352e-05" width="343" height="72" rx="16.6153" fill="black"/>
<rect x="3.21948" y="5.53864" width="336.561" height="62.7692" rx="14.7692" fill="url(#paint0_linear_2543_2019)"/>
<rect x="3.21948" y="3.69257" width="336.561" height="60.9231" rx="12.923" fill="url(#paint1_linear_2543_2019)"/>
<rect x="3.21948" y="3.69257" width="336.561" height="60.9231" rx="12.923" fill="url(#paint2_linear_2543_2019)"/>
<rect x="6.43896" y="7.38464" width="330.122" height="53.5385" rx="11.0769" fill="url(#paint3_linear_2543_2019)"/>
<ellipse cx="2.90149" cy="1.99141" rx="2.90149" ry="1.99141" transform="matrix(0.73474 -0.678349 0.574531 0.818483 6.43896 11.3214)" fill="#FFFEE2"/>
<ellipse cx="2.90149" cy="1.99141" rx="2.90149" ry="1.99141" transform="matrix(0.734739 -0.67835 0.57453 0.818483 330.122 57.4749)" fill="#FFE638"/>
<g filter="url(#filter0_d_2543_2019)">
<mask id="path-8-outside-1_2543_2019" maskUnits="userSpaceOnUse" x="147" y="28" width="51" height="15" fill="black">
<rect fill="white" x="147" y="28" width="51" height="15"/>
<path d="M156.736 41H152.011C150.761 41 149.831 40.75 149.221 40.25C148.621 39.75 148.321 38.98 148.321 37.94V33.26C148.321 32.22 148.621 31.45 149.221 30.95C149.831 30.45 150.761 30.2 152.011 30.2H155.761C155.951 30.2 156.086 30.245 156.166 30.335C156.256 30.415 156.301 30.55 156.301 30.74V32.555C156.301 32.745 156.256 32.885 156.166 32.975C156.086 33.055 155.951 33.095 155.761 33.095H152.641C152.331 33.095 152.101 33.16 151.951 33.29C151.801 33.41 151.726 33.595 151.726 33.845V37.43C151.726 37.68 151.781 37.865 151.891 37.985C152.011 38.105 152.186 38.165 152.416 38.165H153.871V35.825C153.871 35.635 153.911 35.5 153.991 35.42C154.081 35.33 154.221 35.285 154.411 35.285H156.736C156.926 35.285 157.061 35.33 157.141 35.42C157.231 35.5 157.276 35.635 157.276 35.825V40.46C157.276 40.65 157.231 40.79 157.141 40.88C157.061 40.96 156.926 41 156.736 41ZM167.356 38.165C167.356 38.625 167.286 39.045 167.146 39.425C167.016 39.795 166.776 40.115 166.426 40.385C166.086 40.645 165.611 40.85 165.001 41C164.401 41.15 163.636 41.225 162.706 41.225C161.776 41.225 161.006 41.15 160.396 41C159.786 40.85 159.306 40.645 158.956 40.385C158.616 40.115 158.376 39.795 158.236 39.425C158.106 39.045 158.041 38.625 158.041 38.165V33.05C158.041 32.59 158.106 32.175 158.236 31.805C158.376 31.425 158.616 31.1 158.956 30.83C159.306 30.56 159.786 30.35 160.396 30.2C161.006 30.05 161.776 29.975 162.706 29.975C163.636 29.975 164.401 30.05 165.001 30.2C165.611 30.35 166.086 30.56 166.426 30.83C166.776 31.1 167.016 31.425 167.146 31.805C167.286 32.175 167.356 32.59 167.356 33.05V38.165ZM161.446 37.625C161.446 37.825 161.521 37.995 161.671 38.135C161.821 38.265 162.166 38.33 162.706 38.33C163.246 38.33 163.591 38.265 163.741 38.135C163.891 37.995 163.966 37.825 163.966 37.625V33.59C163.966 33.4 163.891 33.24 163.741 33.11C163.591 32.97 163.246 32.9 162.706 32.9C162.166 32.9 161.821 32.97 161.671 33.11C161.521 33.24 161.446 33.4 161.446 33.59V37.625ZM173.392 41H170.962C170.772 41 170.632 40.96 170.542 40.88C170.462 40.79 170.422 40.65 170.422 40.46V33.095H168.217C168.027 33.095 167.887 33.055 167.797 32.975C167.717 32.885 167.677 32.745 167.677 32.555V30.74C167.677 30.55 167.717 30.415 167.797 30.335C167.887 30.245 168.027 30.2 168.217 30.2H176.137C176.327 30.2 176.462 30.245 176.542 30.335C176.632 30.415 176.677 30.55 176.677 30.74V32.555C176.677 32.745 176.632 32.885 176.542 32.975C176.462 33.055 176.327 33.095 176.137 33.095H173.932V40.46C173.932 40.65 173.887 40.79 173.797 40.88C173.717 40.96 173.582 41 173.392 41ZM179.859 41C179.669 41 179.529 40.96 179.439 40.88C179.359 40.79 179.319 40.65 179.319 40.46V38.675C179.319 38.485 179.359 38.35 179.439 38.27C179.529 38.18 179.669 38.135 179.859 38.135H181.344V33.095H179.859C179.669 33.095 179.529 33.055 179.439 32.975C179.359 32.885 179.319 32.745 179.319 32.555V30.74C179.319 30.55 179.359 30.415 179.439 30.335C179.529 30.245 179.669 30.2 179.859 30.2H186.249C186.439 30.2 186.574 30.245 186.654 30.335C186.744 30.415 186.789 30.55 186.789 30.74V32.555C186.789 32.745 186.744 32.885 186.654 32.975C186.574 33.055 186.439 33.095 186.249 33.095H184.794V38.135H186.249C186.439 38.135 186.574 38.18 186.654 38.27C186.744 38.35 186.789 38.485 186.789 38.675V40.46C186.789 40.65 186.744 40.79 186.654 40.88C186.574 40.96 186.439 41 186.249 41H179.859ZM192.841 41H190.411C190.221 41 190.081 40.96 189.991 40.88C189.911 40.79 189.871 40.65 189.871 40.46V33.095H187.666C187.476 33.095 187.336 33.055 187.246 32.975C187.166 32.885 187.126 32.745 187.126 32.555V30.74C187.126 30.55 187.166 30.415 187.246 30.335C187.336 30.245 187.476 30.2 187.666 30.2H195.586C195.776 30.2 195.911 30.245 195.991 30.335C196.081 30.415 196.126 30.55 196.126 30.74V32.555C196.126 32.745 196.081 32.885 195.991 32.975C195.911 33.055 195.776 33.095 195.586 33.095H193.381V40.46C193.381 40.65 193.336 40.79 193.246 40.88C193.166 40.96 193.031 41 192.841 41Z"/>
</mask>
<path d="M156.736 41H152.011C150.761 41 149.831 40.75 149.221 40.25C148.621 39.75 148.321 38.98 148.321 37.94V33.26C148.321 32.22 148.621 31.45 149.221 30.95C149.831 30.45 150.761 30.2 152.011 30.2H155.761C155.951 30.2 156.086 30.245 156.166 30.335C156.256 30.415 156.301 30.55 156.301 30.74V32.555C156.301 32.745 156.256 32.885 156.166 32.975C156.086 33.055 155.951 33.095 155.761 33.095H152.641C152.331 33.095 152.101 33.16 151.951 33.29C151.801 33.41 151.726 33.595 151.726 33.845V37.43C151.726 37.68 151.781 37.865 151.891 37.985C152.011 38.105 152.186 38.165 152.416 38.165H153.871V35.825C153.871 35.635 153.911 35.5 153.991 35.42C154.081 35.33 154.221 35.285 154.411 35.285H156.736C156.926 35.285 157.061 35.33 157.141 35.42C157.231 35.5 157.276 35.635 157.276 35.825V40.46C157.276 40.65 157.231 40.79 157.141 40.88C157.061 40.96 156.926 41 156.736 41ZM167.356 38.165C167.356 38.625 167.286 39.045 167.146 39.425C167.016 39.795 166.776 40.115 166.426 40.385C166.086 40.645 165.611 40.85 165.001 41C164.401 41.15 163.636 41.225 162.706 41.225C161.776 41.225 161.006 41.15 160.396 41C159.786 40.85 159.306 40.645 158.956 40.385C158.616 40.115 158.376 39.795 158.236 39.425C158.106 39.045 158.041 38.625 158.041 38.165V33.05C158.041 32.59 158.106 32.175 158.236 31.805C158.376 31.425 158.616 31.1 158.956 30.83C159.306 30.56 159.786 30.35 160.396 30.2C161.006 30.05 161.776 29.975 162.706 29.975C163.636 29.975 164.401 30.05 165.001 30.2C165.611 30.35 166.086 30.56 166.426 30.83C166.776 31.1 167.016 31.425 167.146 31.805C167.286 32.175 167.356 32.59 167.356 33.05V38.165ZM161.446 37.625C161.446 37.825 161.521 37.995 161.671 38.135C161.821 38.265 162.166 38.33 162.706 38.33C163.246 38.33 163.591 38.265 163.741 38.135C163.891 37.995 163.966 37.825 163.966 37.625V33.59C163.966 33.4 163.891 33.24 163.741 33.11C163.591 32.97 163.246 32.9 162.706 32.9C162.166 32.9 161.821 32.97 161.671 33.11C161.521 33.24 161.446 33.4 161.446 33.59V37.625ZM173.392 41H170.962C170.772 41 170.632 40.96 170.542 40.88C170.462 40.79 170.422 40.65 170.422 40.46V33.095H168.217C168.027 33.095 167.887 33.055 167.797 32.975C167.717 32.885 167.677 32.745 167.677 32.555V30.74C167.677 30.55 167.717 30.415 167.797 30.335C167.887 30.245 168.027 30.2 168.217 30.2H176.137C176.327 30.2 176.462 30.245 176.542 30.335C176.632 30.415 176.677 30.55 176.677 30.74V32.555C176.677 32.745 176.632 32.885 176.542 32.975C176.462 33.055 176.327 33.095 176.137 33.095H173.932V40.46C173.932 40.65 173.887 40.79 173.797 40.88C173.717 40.96 173.582 41 173.392 41ZM179.859 41C179.669 41 179.529 40.96 179.439 40.88C179.359 40.79 179.319 40.65 179.319 40.46V38.675C179.319 38.485 179.359 38.35 179.439 38.27C179.529 38.18 179.669 38.135 179.859 38.135H181.344V33.095H179.859C179.669 33.095 179.529 33.055 179.439 32.975C179.359 32.885 179.319 32.745 179.319 32.555V30.74C179.319 30.55 179.359 30.415 179.439 30.335C179.529 30.245 179.669 30.2 179.859 30.2H186.249C186.439 30.2 186.574 30.245 186.654 30.335C186.744 30.415 186.789 30.55 186.789 30.74V32.555C186.789 32.745 186.744 32.885 186.654 32.975C186.574 33.055 186.439 33.095 186.249 33.095H184.794V38.135H186.249C186.439 38.135 186.574 38.18 186.654 38.27C186.744 38.35 186.789 38.485 186.789 38.675V40.46C186.789 40.65 186.744 40.79 186.654 40.88C186.574 40.96 186.439 41 186.249 41H179.859ZM192.841 41H190.411C190.221 41 190.081 40.96 189.991 40.88C189.911 40.79 189.871 40.65 189.871 40.46V33.095H187.666C187.476 33.095 187.336 33.055 187.246 32.975C187.166 32.885 187.126 32.745 187.126 32.555V30.74C187.126 30.55 187.166 30.415 187.246 30.335C187.336 30.245 187.476 30.2 187.666 30.2H195.586C195.776 30.2 195.911 30.245 195.991 30.335C196.081 30.415 196.126 30.55 196.126 30.74V32.555C196.126 32.745 196.081 32.885 195.991 32.975C195.911 33.055 195.776 33.095 195.586 33.095H193.381V40.46C193.381 40.65 193.336 40.79 193.246 40.88C193.166 40.96 193.031 41 192.841 41Z" fill="white"/>
<path d="M149.221 40.25L148.58 41.0182L148.587 41.0234L149.221 40.25ZM149.221 30.95L148.587 30.1766L148.58 30.1818L149.221 30.95ZM156.166 30.335L155.418 30.9994L155.457 31.0433L155.501 31.0824L156.166 30.335ZM156.166 32.975L156.873 33.6821L156.166 32.975ZM151.951 33.29L152.575 34.0709L152.591 34.0586L152.606 34.0457L151.951 33.29ZM151.891 37.985L151.154 38.6607L151.168 38.6767L151.184 38.6921L151.891 37.985ZM153.871 38.165V39.165H154.871V38.165H153.871ZM157.141 35.42L156.393 36.0844L156.432 36.1283L156.476 36.1674L157.141 35.42ZM157.141 40.88L157.848 41.5871L157.848 41.5871L157.141 40.88ZM156.736 40H152.011V42H156.736V40ZM152.011 40C150.865 40 150.208 39.7659 149.855 39.4766L148.587 41.0234C149.454 41.7341 150.657 42 152.011 42V40ZM149.861 39.4818C149.559 39.23 149.321 38.788 149.321 37.94H147.321C147.321 39.172 147.683 40.27 148.58 41.0182L149.861 39.4818ZM149.321 37.94V33.26H147.321V37.94H149.321ZM149.321 33.26C149.321 32.412 149.559 31.97 149.861 31.7182L148.58 30.1818C147.683 30.93 147.321 32.028 147.321 33.26H149.321ZM149.855 31.7234C150.208 31.4341 150.865 31.2 152.011 31.2V29.2C150.657 29.2 149.454 29.4659 148.587 30.1766L149.855 31.7234ZM152.011 31.2H155.761V29.2H152.011V31.2ZM155.761 31.2C155.782 31.2 155.75 31.2032 155.688 31.1824C155.62 31.1597 155.514 31.1073 155.418 30.9994L156.913 29.6706C156.557 29.27 156.074 29.2 155.761 29.2V31.2ZM155.501 31.0824C155.393 30.9865 155.341 30.8808 155.318 30.8125C155.298 30.7503 155.301 30.7188 155.301 30.74H157.301C157.301 30.4271 157.231 29.9437 156.83 29.5876L155.501 31.0824ZM155.301 30.74V32.555H157.301V30.74H155.301ZM155.301 32.555C155.301 32.6092 155.286 32.4405 155.459 32.2679L156.873 33.6821C157.225 33.3295 157.301 32.8808 157.301 32.555H155.301ZM155.459 32.2679C155.562 32.1646 155.667 32.1221 155.72 32.1062C155.771 32.0912 155.791 32.095 155.761 32.095V34.095C156.046 34.095 156.512 34.0428 156.873 33.6821L155.459 32.2679ZM155.761 32.095H152.641V34.095H155.761V32.095ZM152.641 32.095C152.219 32.095 151.706 32.1791 151.296 32.5343L152.606 34.0457C152.549 34.0944 152.506 34.1067 152.508 34.1061C152.509 34.1057 152.52 34.1028 152.543 34.1C152.566 34.0973 152.598 34.095 152.641 34.095V32.095ZM151.326 32.5091C150.871 32.8732 150.726 33.3902 150.726 33.845H152.726C152.726 33.8175 152.73 33.8416 152.709 33.8945C152.684 33.9542 152.639 34.0196 152.575 34.0709L151.326 32.5091ZM150.726 33.845V37.43H152.726V33.845H150.726ZM150.726 37.43C150.726 37.8007 150.804 38.279 151.154 38.6607L152.628 37.3093C152.693 37.38 152.718 37.4452 152.725 37.4713C152.732 37.4939 152.726 37.4853 152.726 37.43H150.726ZM151.184 38.6921C151.55 39.0585 152.017 39.165 152.416 39.165V37.165C152.385 37.165 152.398 37.1608 152.436 37.1741C152.48 37.1889 152.541 37.2207 152.598 37.2779L151.184 38.6921ZM152.416 39.165H153.871V37.165H152.416V39.165ZM154.871 38.165V35.825H152.871V38.165H154.871ZM154.871 35.825C154.871 35.795 154.874 35.8148 154.859 35.8653C154.844 35.9192 154.801 36.0238 154.698 36.1271L153.284 34.7129C152.923 35.0735 152.871 35.5396 152.871 35.825H154.871ZM154.698 36.1271C154.525 36.2997 154.357 36.285 154.411 36.285V34.285C154.085 34.285 153.636 34.3603 153.284 34.7129L154.698 36.1271ZM154.411 36.285H156.736V34.285H154.411V36.285ZM156.736 36.285C156.757 36.285 156.725 36.2882 156.663 36.2674C156.595 36.2447 156.489 36.1923 156.393 36.0844L157.888 34.7556C157.532 34.355 157.049 34.285 156.736 34.285V36.285ZM156.476 36.1674C156.368 36.0715 156.316 35.9658 156.293 35.8975C156.273 35.8353 156.276 35.8038 156.276 35.825H158.276C158.276 35.5121 158.206 35.0287 157.805 34.6726L156.476 36.1674ZM156.276 35.825V40.46H158.276V35.825H156.276ZM156.276 40.46C156.276 40.5142 156.261 40.3455 156.434 40.1729L157.848 41.5871C158.2 41.2345 158.276 40.7858 158.276 40.46H156.276ZM156.434 40.1729C156.537 40.0696 156.642 40.0271 156.695 40.0112C156.746 39.9962 156.766 40 156.736 40V42C157.021 42 157.487 41.9478 157.848 41.5871L156.434 40.1729ZM167.146 39.425L166.207 39.0793L166.205 39.0864L166.202 39.0935L167.146 39.425ZM166.426 40.385L167.033 41.1794L167.037 41.1768L166.426 40.385ZM165.001 41L164.762 40.0289L164.758 40.0299L165.001 41ZM160.396 41L160.157 41.9711L160.157 41.9711L160.396 41ZM158.956 40.385L158.334 41.1681L158.347 41.1781L158.359 41.1877L158.956 40.385ZM158.236 39.425L157.29 39.7487L157.295 39.7639L157.301 39.7789L158.236 39.425ZM158.236 31.805L157.297 31.4593L157.295 31.4664L157.292 31.4735L158.236 31.805ZM158.956 30.83L158.345 30.0381L158.334 30.0469L158.956 30.83ZM160.396 30.2L160.157 29.2289L160.157 29.2289L160.396 30.2ZM165.001 30.2L164.758 31.1701L164.762 31.1711L165.001 30.2ZM166.426 30.83L165.804 31.6132L165.815 31.6218L166.426 30.83ZM167.146 31.805L166.2 32.1287L166.205 32.1439L166.211 32.1589L167.146 31.805ZM161.671 38.135L160.988 38.8661L161.002 38.8786L161.016 38.8907L161.671 38.135ZM163.741 38.135L164.396 38.8907L164.41 38.8786L164.423 38.8661L163.741 38.135ZM163.741 33.11L163.058 33.8411L163.072 33.8536L163.086 33.8657L163.741 33.11ZM161.671 33.11L162.326 33.8657L162.34 33.8536L162.353 33.8411L161.671 33.11ZM166.356 38.165C166.356 38.5229 166.302 38.824 166.207 39.0793L168.084 39.7707C168.27 39.266 168.356 38.7271 168.356 38.165H166.356ZM166.202 39.0935C166.144 39.2586 166.032 39.4258 165.815 39.5932L167.037 41.1768C167.52 40.8042 167.887 40.3314 168.089 39.7565L166.202 39.0935ZM165.818 39.5906C165.626 39.7374 165.296 39.8977 164.762 40.0289L165.24 41.9711C165.926 41.8023 166.545 41.5526 167.033 41.1794L165.818 39.5906ZM164.758 40.0299C164.267 40.1528 163.591 40.225 162.706 40.225V42.225C163.681 42.225 164.535 42.1472 165.243 41.9701L164.758 40.0299ZM162.706 40.225C161.822 40.225 161.139 40.1529 160.635 40.0289L160.157 41.9711C160.873 42.1471 161.73 42.225 162.706 42.225V40.225ZM160.635 40.0289C160.101 39.8978 159.759 39.7361 159.552 39.5823L158.359 41.1877C158.852 41.5539 159.47 41.8022 160.157 41.9711L160.635 40.0289ZM159.578 39.6019C159.365 39.4328 159.241 39.2562 159.171 39.0711L157.301 39.7789C157.51 40.3338 157.867 40.7972 158.334 41.1681L159.578 39.6019ZM159.182 39.1013C159.092 38.8394 159.041 38.5306 159.041 38.165H157.041C157.041 38.7194 157.119 39.2506 157.29 39.7487L159.182 39.1013ZM159.041 38.165V33.05H157.041V38.165H159.041ZM159.041 33.05C159.041 32.6838 159.093 32.3833 159.179 32.1365L157.292 31.4735C157.119 31.9667 157.041 32.4962 157.041 33.05H159.041ZM159.174 32.1507C159.246 31.9552 159.371 31.7776 159.578 31.6131L158.334 30.0469C157.861 30.4224 157.505 30.8948 157.297 31.4593L159.174 32.1507ZM159.567 31.6218C159.77 31.4647 160.107 31.3008 160.635 31.1711L160.157 29.2289C159.465 29.3992 158.841 29.6553 158.345 30.0382L159.567 31.6218ZM160.635 31.1711C161.139 31.0471 161.822 30.975 162.706 30.975V28.975C161.73 28.975 160.873 29.0529 160.157 29.2289L160.635 31.1711ZM162.706 30.975C163.591 30.975 164.267 31.0472 164.758 31.1701L165.243 29.2299C164.535 29.0528 163.681 28.975 162.706 28.975V30.975ZM164.762 31.1711C165.29 31.3009 165.615 31.4633 165.804 31.6131L167.048 30.0469C166.556 29.6567 165.932 29.3991 165.24 29.2289L164.762 31.1711ZM165.815 31.6218C166.026 31.7845 166.139 31.9527 166.2 32.1287L168.092 31.4813C167.892 30.8973 167.526 30.4155 167.037 30.0382L165.815 31.6218ZM166.211 32.1589C166.301 32.399 166.356 32.6915 166.356 33.05H168.356C168.356 32.4884 168.27 31.951 168.081 31.4511L166.211 32.1589ZM166.356 33.05V38.165H168.356V33.05H166.356ZM160.446 37.625C160.446 38.1102 160.642 38.5425 160.988 38.8661L162.353 37.4039C162.367 37.4166 162.394 37.4478 162.417 37.4989C162.44 37.5505 162.446 37.5968 162.446 37.625H160.446ZM161.016 38.8907C161.292 39.1299 161.626 39.2205 161.857 39.264C162.114 39.3123 162.403 39.33 162.706 39.33V37.33C162.469 37.33 162.315 37.3152 162.227 37.2985C162.185 37.2905 162.174 37.2852 162.186 37.2899C162.196 37.2938 162.254 37.3172 162.326 37.3793L161.016 38.8907ZM162.706 39.33C163.009 39.33 163.298 39.3123 163.555 39.264C163.786 39.2205 164.12 39.1299 164.396 38.8907L163.086 37.3793C163.157 37.3172 163.215 37.2938 163.225 37.2899C163.237 37.2852 163.227 37.2905 163.184 37.2985C163.096 37.3152 162.943 37.33 162.706 37.33V39.33ZM164.423 38.8661C164.77 38.5425 164.966 38.1102 164.966 37.625H162.966C162.966 37.5968 162.972 37.5505 162.995 37.4989C163.017 37.4478 163.045 37.4166 163.058 37.4039L164.423 38.8661ZM164.966 37.625V33.59H162.966V37.625H164.966ZM164.966 33.59C164.966 33.0955 164.754 32.6646 164.396 32.3543L163.086 33.8657C163.068 33.8503 163.033 33.8134 163.004 33.7519C162.975 33.6893 162.966 33.6305 162.966 33.59H164.966ZM164.423 32.3789C164.148 32.1219 163.808 32.0211 163.568 31.9725C163.306 31.9191 163.011 31.9 162.706 31.9V33.9C162.94 33.9 163.089 33.9159 163.171 33.9325C163.21 33.9405 163.217 33.9452 163.201 33.9387C163.187 33.9327 163.128 33.9062 163.058 33.8411L164.423 32.3789ZM162.706 31.9C162.4 31.9 162.106 31.9191 161.843 31.9725C161.604 32.0211 161.264 32.1219 160.988 32.3789L162.353 33.8411C162.283 33.9062 162.225 33.9327 162.21 33.9387C162.195 33.9452 162.201 33.9405 162.241 33.9325C162.323 33.9159 162.471 33.9 162.706 33.9V31.9ZM161.016 32.3543C160.658 32.6646 160.446 33.0955 160.446 33.59H162.446C162.446 33.6305 162.437 33.6893 162.408 33.7519C162.379 33.8134 162.343 33.8503 162.326 33.8657L161.016 32.3543ZM160.446 33.59V37.625H162.446V33.59H160.446ZM170.542 40.88L169.795 41.5444L169.834 41.5883L169.878 41.6274L170.542 40.88ZM170.422 33.095H171.422V32.095H170.422V33.095ZM167.797 32.975L167.05 33.6394L167.089 33.6833L167.133 33.7224L167.797 32.975ZM167.797 30.335L167.09 29.6279L167.09 29.6279L167.797 30.335ZM176.542 30.335L175.795 30.9994L175.834 31.0433L175.878 31.0824L176.542 30.335ZM176.542 32.975L177.249 33.6821L176.542 32.975ZM173.932 33.095V32.095H172.932V33.095H173.932ZM173.797 40.88L173.09 40.1729L173.09 40.1729L173.797 40.88ZM173.392 40H170.962V42H173.392V40ZM170.962 40C170.933 40 170.948 39.9966 170.989 40.0085C171.034 40.0212 171.118 40.0542 171.206 40.1326L169.878 41.6274C170.231 41.9416 170.662 42 170.962 42V40ZM171.29 40.2156C171.368 40.3038 171.401 40.3882 171.414 40.4328C171.426 40.4745 171.422 40.4887 171.422 40.46H169.422C169.422 40.7602 169.481 41.1909 169.795 41.5444L171.29 40.2156ZM171.422 40.46V33.095H169.422V40.46H171.422ZM170.422 32.095H168.217V34.095H170.422V32.095ZM168.217 32.095C168.188 32.095 168.203 32.0916 168.244 32.1035C168.289 32.1162 168.373 32.1492 168.461 32.2276L167.133 33.7224C167.486 34.0366 167.917 34.095 168.217 34.095V32.095ZM168.545 32.3106C168.623 32.3988 168.656 32.4832 168.669 32.5278C168.681 32.5695 168.677 32.5837 168.677 32.555H166.677C166.677 32.8552 166.736 33.2859 167.05 33.6394L168.545 32.3106ZM168.677 32.555V30.74H166.677V32.555H168.677ZM168.677 30.74C168.677 30.71 168.681 30.7298 168.666 30.7803C168.65 30.8342 168.608 30.9388 168.504 31.0421L167.09 29.6279C166.729 29.9885 166.677 30.4546 166.677 30.74H168.677ZM168.504 31.0421C168.332 31.2147 168.163 31.2 168.217 31.2V29.2C167.891 29.2 167.443 29.2753 167.09 29.6279L168.504 31.0421ZM168.217 31.2H176.137V29.2H168.217V31.2ZM176.137 31.2C176.158 31.2 176.127 31.2032 176.065 31.1824C175.996 31.1597 175.891 31.1073 175.795 30.9994L177.29 29.6706C176.933 29.27 176.45 29.2 176.137 29.2V31.2ZM175.878 31.0824C175.77 30.9865 175.717 30.8808 175.695 30.8125C175.674 30.7503 175.677 30.7188 175.677 30.74H177.677C177.677 30.4271 177.607 29.9437 177.206 29.5876L175.878 31.0824ZM175.677 30.74V32.555H177.677V30.74H175.677ZM175.677 32.555C175.677 32.6092 175.662 32.4405 175.835 32.2679L177.249 33.6821C177.602 33.3295 177.677 32.8808 177.677 32.555H175.677ZM175.835 32.2679C175.938 32.1646 176.043 32.1221 176.097 32.1062C176.147 32.0912 176.167 32.095 176.137 32.095V34.095C176.423 34.095 176.889 34.0428 177.249 33.6821L175.835 32.2679ZM176.137 32.095H173.932V34.095H176.137V32.095ZM172.932 33.095V40.46H174.932V33.095H172.932ZM172.932 40.46C172.932 40.5142 172.917 40.3455 173.09 40.1729L174.504 41.5871C174.857 41.2345 174.932 40.7858 174.932 40.46H172.932ZM173.09 40.1729C173.193 40.0696 173.298 40.0271 173.352 40.0112C173.402 39.9962 173.422 40 173.392 40V42C173.678 42 174.144 41.9478 174.504 41.5871L173.09 40.1729ZM179.439 40.88L178.691 41.5444L178.73 41.5883L178.774 41.6274L179.439 40.88ZM179.439 38.27L180.146 38.9771L180.146 38.9771L179.439 38.27ZM181.344 38.135V39.135H182.344V38.135H181.344ZM181.344 33.095H182.344V32.095H181.344V33.095ZM179.439 32.975L178.691 33.6394L178.73 33.6833L178.774 33.7224L179.439 32.975ZM179.439 30.335L178.731 29.6279L178.731 29.6279L179.439 30.335ZM186.654 30.335L185.906 30.9994L185.945 31.0433L185.989 31.0824L186.654 30.335ZM186.654 32.975L187.361 33.6821L187.361 33.6821L186.654 32.975ZM184.794 33.095V32.095H183.794V33.095H184.794ZM184.794 38.135H183.794V39.135H184.794V38.135ZM186.654 38.27L185.906 38.9344L185.945 38.9783L185.989 39.0174L186.654 38.27ZM186.654 40.88L187.361 41.5871L187.361 41.5871L186.654 40.88ZM179.859 40C179.83 40 179.844 39.9966 179.886 40.0085C179.93 40.0212 180.015 40.0542 180.103 40.1326L178.774 41.6274C179.128 41.9416 179.558 42 179.859 42V40ZM180.186 40.2156C180.264 40.3038 180.297 40.3882 180.31 40.4328C180.322 40.4745 180.319 40.4887 180.319 40.46H178.319C178.319 40.7602 178.377 41.1909 178.691 41.5444L180.186 40.2156ZM180.319 40.46V38.675H178.319V40.46H180.319ZM180.319 38.675C180.319 38.645 180.322 38.6648 180.307 38.7153C180.291 38.7692 180.249 38.8738 180.146 38.9771L178.731 37.5629C178.371 37.9235 178.319 38.3896 178.319 38.675H180.319ZM180.146 38.9771C179.973 39.1497 179.804 39.135 179.859 39.135V37.135C179.533 37.135 179.084 37.2103 178.731 37.5629L180.146 38.9771ZM179.859 39.135H181.344V37.135H179.859V39.135ZM182.344 38.135V33.095H180.344V38.135H182.344ZM181.344 32.095H179.859V34.095H181.344V32.095ZM179.859 32.095C179.83 32.095 179.844 32.0916 179.886 32.1035C179.93 32.1162 180.015 32.1492 180.103 32.2276L178.774 33.7224C179.128 34.0366 179.558 34.095 179.859 34.095V32.095ZM180.186 32.3106C180.264 32.3988 180.297 32.4832 180.31 32.5278C180.322 32.5695 180.319 32.5837 180.319 32.555H178.319C178.319 32.8552 178.377 33.2859 178.691 33.6394L180.186 32.3106ZM180.319 32.555V30.74H178.319V32.555H180.319ZM180.319 30.74C180.319 30.71 180.322 30.7298 180.307 30.7803C180.291 30.8342 180.249 30.9388 180.146 31.0421L178.731 29.6279C178.371 29.9885 178.319 30.4546 178.319 30.74H180.319ZM180.146 31.0421C179.973 31.2147 179.804 31.2 179.859 31.2V29.2C179.533 29.2 179.084 29.2753 178.731 29.6279L180.146 31.0421ZM179.859 31.2H186.249V29.2H179.859V31.2ZM186.249 31.2C186.27 31.2 186.238 31.2032 186.176 31.1824C186.108 31.1597 186.002 31.1073 185.906 30.9994L187.401 29.6706C187.045 29.27 186.561 29.2 186.249 29.2V31.2ZM185.989 31.0824C185.881 30.9865 185.829 30.8808 185.806 30.8125C185.785 30.7503 185.789 30.7188 185.789 30.74H187.789C187.789 30.4271 187.719 29.9437 187.318 29.5876L185.989 31.0824ZM185.789 30.74V32.555H187.789V30.74H185.789ZM185.789 32.555C185.789 32.6092 185.774 32.4405 185.946 32.2679L187.361 33.6821C187.713 33.3295 187.789 32.8808 187.789 32.555H185.789ZM185.946 32.2679C186.05 32.1646 186.154 32.1221 186.208 32.1062C186.259 32.0912 186.279 32.095 186.249 32.095V34.095C186.534 34.095 187 34.0428 187.361 33.6821L185.946 32.2679ZM186.249 32.095H184.794V34.095H186.249V32.095ZM183.794 33.095V38.135H185.794V33.095H183.794ZM184.794 39.135H186.249V37.135H184.794V39.135ZM186.249 39.135C186.27 39.135 186.238 39.1382 186.176 39.1174C186.108 39.0947 186.002 39.0423 185.906 38.9344L187.401 37.6056C187.045 37.205 186.561 37.135 186.249 37.135V39.135ZM185.989 39.0174C185.881 38.9215 185.829 38.8158 185.806 38.7475C185.785 38.6853 185.789 38.6538 185.789 38.675H187.789C187.789 38.3621 187.719 37.8787 187.318 37.5226L185.989 39.0174ZM185.789 38.675V40.46H187.789V38.675H185.789ZM185.789 40.46C185.789 40.5142 185.774 40.3455 185.946 40.1729L187.361 41.5871C187.713 41.2345 187.789 40.7858 187.789 40.46H185.789ZM185.946 40.1729C186.05 40.0696 186.154 40.0271 186.208 40.0112C186.259 39.9962 186.279 40 186.249 40V42C186.534 42 187 41.9478 187.361 41.5871L185.946 40.1729ZM186.249 40H179.859V42H186.249V40ZM189.991 40.88L189.243 41.5444L189.282 41.5883L189.326 41.6274L189.991 40.88ZM189.871 33.095H190.871V32.095H189.871V33.095ZM187.246 32.975L186.498 33.6394L186.537 33.6833L186.581 33.7224L187.246 32.975ZM187.246 30.335L186.538 29.6279L186.538 29.6279L187.246 30.335ZM195.991 30.335L195.243 30.9994L195.282 31.0433L195.326 31.0824L195.991 30.335ZM195.991 32.975L196.698 33.6821L195.991 32.975ZM193.381 33.095V32.095H192.381V33.095H193.381ZM193.246 40.88L192.538 40.1729L192.538 40.1729L193.246 40.88ZM192.841 40H190.411V42H192.841V40ZM190.411 40C190.382 40 190.396 39.9966 190.438 40.0085C190.482 40.0212 190.567 40.0542 190.655 40.1326L189.326 41.6274C189.68 41.9416 190.11 42 190.411 42V40ZM190.738 40.2156C190.816 40.3038 190.849 40.3882 190.862 40.4328C190.874 40.4745 190.871 40.4887 190.871 40.46H188.871C188.871 40.7602 188.929 41.1909 189.243 41.5444L190.738 40.2156ZM190.871 40.46V33.095H188.871V40.46H190.871ZM189.871 32.095H187.666V34.095H189.871V32.095ZM187.666 32.095C187.637 32.095 187.651 32.0916 187.693 32.1035C187.737 32.1162 187.822 32.1492 187.91 32.2276L186.581 33.7224C186.935 34.0366 187.365 34.095 187.666 34.095V32.095ZM187.993 32.3106C188.071 32.3988 188.104 32.4832 188.117 32.5278C188.129 32.5695 188.126 32.5837 188.126 32.555H186.126C186.126 32.8552 186.184 33.2859 186.498 33.6394L187.993 32.3106ZM188.126 32.555V30.74H186.126V32.555H188.126ZM188.126 30.74C188.126 30.71 188.129 30.7298 188.114 30.7803C188.098 30.8342 188.056 30.9388 187.953 31.0421L186.538 29.6279C186.178 29.9885 186.126 30.4546 186.126 30.74H188.126ZM187.953 31.0421C187.78 31.2147 187.611 31.2 187.666 31.2V29.2C187.34 29.2 186.891 29.2753 186.538 29.6279L187.953 31.0421ZM187.666 31.2H195.586V29.2H187.666V31.2ZM195.586 31.2C195.607 31.2 195.575 31.2032 195.513 31.1824C195.445 31.1597 195.339 31.1073 195.243 30.9994L196.738 29.6706C196.382 29.27 195.898 29.2 195.586 29.2V31.2ZM195.326 31.0824C195.218 30.9865 195.166 30.8808 195.143 30.8125C195.122 30.7503 195.126 30.7188 195.126 30.74H197.126C197.126 30.4271 197.056 29.9437 196.655 29.5876L195.326 31.0824ZM195.126 30.74V32.555H197.126V30.74H195.126ZM195.126 32.555C195.126 32.6092 195.111 32.4405 195.283 32.2679L196.698 33.6821C197.05 33.3295 197.126 32.8808 197.126 32.555H195.126ZM195.283 32.2679C195.387 32.1646 195.491 32.1221 195.545 32.1062C195.596 32.0912 195.616 32.095 195.586 32.095V34.095C195.871 34.095 196.337 34.0428 196.698 33.6821L195.283 32.2679ZM195.586 32.095H193.381V34.095H195.586V32.095ZM192.381 33.095V40.46H194.381V33.095H192.381ZM192.381 40.46C192.381 40.5142 192.366 40.3455 192.538 40.1729L193.953 41.5871C194.305 41.2345 194.381 40.7858 194.381 40.46H192.381ZM192.538 40.1729C192.642 40.0696 192.746 40.0271 192.8 40.0112C192.851 39.9962 192.871 40 192.841 40V42C193.126 42 193.592 41.9478 193.953 41.5871L192.538 40.1729Z" fill="black" mask="url(#path-8-outside-1_2543_2019)"/>
</g>
<defs>
<filter id="filter0_d_2543_2019" x="148.321" y="29.975" width="47.8047" height="13.25" filterUnits="userSpaceOnUse" color-interpolation-filters="sRGB">
<feFlood flood-opacity="0" result="BackgroundImageFix"/>
<feColorMatrix in="SourceAlpha" type="matrix" values="0 0 0 0 0 0 0 0 0 0 0 0 0 0 0 0 0 0 127 0" result="hardAlpha"/>
<feOffset dy="2"/>
<feComposite in2="hardAlpha" operator="out"/>
<feColorMatrix type="matrix" values="0 0 0 0 0 0 0 0 0 0 0 0 0 0 0 0 0 0 1 0"/>
<feBlend mode="normal" in2="BackgroundImageFix" result="effect1_dropShadow_2543_2019"/>
<feBlend mode="normal" in="SourceGraphic" in2="effect1_dropShadow_2543_2019" result="shape"/>
</filter>
<linearGradient id="paint0_linear_2543_2019" x1="177.733" y1="56.6507" x2="177.733" y2="70.1013" gradientUnits="userSpaceOnUse">
<stop stop-color="#DB8400"/>
<stop offset="1" stop-color="#B94100"/>
</linearGradient>
<linearGradient id="paint1_linear_2543_2019" x1="129.43" y1="64.6156" x2="129.43" y2="3.69256" gradientUnits="userSpaceOnUse">
<stop stop-color="#FFDE00"/>
<stop offset="1" stop-color="#FFE636"/>
</linearGradient>
<linearGradient id="paint2_linear_2543_2019" x1="11.0102" y1="8.04421" x2="27.0415" y2="30.7027" gradientUnits="userSpaceOnUse">
<stop stop-color="white"/>
<stop offset="1" stop-color="white" stop-opacity="0"/>
</linearGradient>
<linearGradient id="paint3_linear_2543_2019" x1="217.527" y1="15.1564" x2="217.527" y2="47.1067" gradientUnits="userSpaceOnUse">
<stop stop-color="#FFDC02"/>
<stop offset="1" stop-color="#FFBB00"/>
</linearGradient>
</defs>
</svg>
