<svg width="109" height="48" viewBox="0 0 109 48" fill="none" xmlns="http://www.w3.org/2000/svg">
<rect width="109" height="48" rx="8" fill="black"/>
<rect x="2" y="3.84619" width="105" height="42" rx="7" fill="url(#paint0_linear_2530_992)"/>
<rect x="2" y="2" width="105" height="40" rx="7" fill="url(#paint1_linear_2530_992)"/>
<rect x="2" y="2" width="105" height="42" rx="7" fill="url(#paint2_linear_2530_992)"/>
<rect x="5" y="5" width="99" height="34" rx="6" fill="url(#paint3_linear_2530_992)"/>
<ellipse cx="3.5438" cy="1.99141" rx="3.5438" ry="1.99141" transform="matrix(0.73474 -0.678349 0.574531 0.818483 3.78052 8.24414)" fill="#FCF7FF"/>
<ellipse cx="2.90149" cy="1.99141" rx="2.90149" ry="1.99141" transform="matrix(0.73474 -0.678349 0.574531 0.818483 98.7805 36.2441)" fill="#F2DCF7"/>
<g filter="url(#filter0_d_2530_992)">
<mask id="path-8-outside-1_2530_992" maskUnits="userSpaceOnUse" x="35" y="16" width="41" height="13" fill="black">
<rect fill="white" x="35" y="16" width="41" height="13"/>
<path d="M39.2 28H36.965C36.775 28 36.635 27.96 36.545 27.88C36.465 27.79 36.425 27.65 36.425 27.46V17.74C36.425 17.55 36.465 17.415 36.545 17.335C36.635 17.245 36.775 17.2 36.965 17.2H39.38C39.54 17.2 39.67 17.235 39.77 17.305C39.88 17.375 39.98 17.49 40.07 17.65L41.42 20.095C41.47 20.185 41.51 20.25 41.54 20.29C41.58 20.33 41.63 20.35 41.69 20.35H41.825C41.885 20.35 41.93 20.33 41.96 20.29C42 20.25 42.045 20.185 42.095 20.095L43.43 17.65C43.52 17.49 43.615 17.375 43.715 17.305C43.825 17.235 43.96 17.2 44.12 17.2H46.55C46.74 17.2 46.875 17.245 46.955 17.335C47.045 17.415 47.09 17.55 47.09 17.74V27.46C47.09 27.65 47.045 27.79 46.955 27.88C46.875 27.96 46.74 28 46.55 28H44.24C44.05 28 43.91 27.96 43.82 27.88C43.74 27.79 43.7 27.65 43.7 27.46V22.18L42.815 23.815C42.725 23.985 42.615 24.11 42.485 24.19C42.365 24.26 42.21 24.295 42.02 24.295H41.42C41.23 24.295 41.07 24.26 40.94 24.19C40.82 24.11 40.715 23.985 40.625 23.815L39.74 22.18V27.46C39.74 27.65 39.695 27.79 39.605 27.88C39.525 27.96 39.39 28 39.2 28ZM48.5545 28C48.3645 28 48.2245 27.96 48.1345 27.88C48.0545 27.79 48.0145 27.65 48.0145 27.46V25.675C48.0145 25.485 48.0545 25.35 48.1345 25.27C48.2245 25.18 48.3645 25.135 48.5545 25.135H50.0395V20.095H48.5545C48.3645 20.095 48.2245 20.055 48.1345 19.975C48.0545 19.885 48.0145 19.745 48.0145 19.555V17.74C48.0145 17.55 48.0545 17.415 48.1345 17.335C48.2245 17.245 48.3645 17.2 48.5545 17.2H54.9445C55.1345 17.2 55.2695 17.245 55.3495 17.335C55.4395 17.415 55.4845 17.55 55.4845 17.74V19.555C55.4845 19.745 55.4395 19.885 55.3495 19.975C55.2695 20.055 55.1345 20.095 54.9445 20.095H53.4895V25.135H54.9445C55.1345 25.135 55.2695 25.18 55.3495 25.27C55.4395 25.35 55.4845 25.485 55.4845 25.675V27.46C55.4845 27.65 55.4395 27.79 55.3495 27.88C55.2695 27.96 55.1345 28 54.9445 28H48.5545ZM59.2266 28H56.9766C56.7866 28 56.6466 27.96 56.5566 27.88C56.4766 27.79 56.4366 27.65 56.4366 27.46V17.74C56.4366 17.55 56.4766 17.415 56.5566 17.335C56.6466 17.245 56.7866 17.2 56.9766 17.2H58.5366C58.7266 17.2 58.8866 17.23 59.0166 17.29C59.1566 17.35 59.2916 17.455 59.4216 17.605L62.3316 20.935V17.74C62.3316 17.55 62.3716 17.415 62.4516 17.335C62.5416 17.245 62.6816 17.2 62.8716 17.2H65.1216C65.3116 17.2 65.4466 17.245 65.5266 17.335C65.6166 17.415 65.6616 17.55 65.6616 17.74V27.46C65.6616 27.65 65.6166 27.79 65.5266 27.88C65.4466 27.96 65.3116 28 65.1216 28H62.8716C62.6816 28 62.5416 27.96 62.4516 27.88C62.3716 27.79 62.3316 27.65 62.3316 27.46V25.615L59.7666 22.51V27.46C59.7666 27.65 59.7216 27.79 59.6316 27.88C59.5516 27.96 59.4166 28 59.2266 28ZM74.3305 28H67.3705C67.1805 28 67.0405 27.96 66.9505 27.88C66.8705 27.79 66.8305 27.65 66.8305 27.46V17.74C66.8305 17.55 66.8705 17.415 66.9505 17.335C67.0405 17.245 67.1805 17.2 67.3705 17.2H74.3305C74.5205 17.2 74.6555 17.245 74.7355 17.335C74.8255 17.415 74.8705 17.55 74.8705 17.74V19.495C74.8705 19.685 74.8255 19.825 74.7355 19.915C74.6555 19.995 74.5205 20.035 74.3305 20.035H70.1905V21.19H73.1155C73.3055 21.19 73.4405 21.235 73.5205 21.325C73.6105 21.405 73.6555 21.54 73.6555 21.73V23.335C73.6555 23.525 73.6105 23.665 73.5205 23.755C73.4405 23.835 73.3055 23.875 73.1155 23.875H70.1905V25.165H74.3305C74.5205 25.165 74.6555 25.21 74.7355 25.3C74.8255 25.38 74.8705 25.515 74.8705 25.705V27.46C74.8705 27.65 74.8255 27.79 74.7355 27.88C74.6555 27.96 74.5205 28 74.3305 28Z"/>
</mask>
<path d="M39.2 28H36.965C36.775 28 36.635 27.96 36.545 27.88C36.465 27.79 36.425 27.65 36.425 27.46V17.74C36.425 17.55 36.465 17.415 36.545 17.335C36.635 17.245 36.775 17.2 36.965 17.2H39.38C39.54 17.2 39.67 17.235 39.77 17.305C39.88 17.375 39.98 17.49 40.07 17.65L41.42 20.095C41.47 20.185 41.51 20.25 41.54 20.29C41.58 20.33 41.63 20.35 41.69 20.35H41.825C41.885 20.35 41.93 20.33 41.96 20.29C42 20.25 42.045 20.185 42.095 20.095L43.43 17.65C43.52 17.49 43.615 17.375 43.715 17.305C43.825 17.235 43.96 17.2 44.12 17.2H46.55C46.74 17.2 46.875 17.245 46.955 17.335C47.045 17.415 47.09 17.55 47.09 17.74V27.46C47.09 27.65 47.045 27.79 46.955 27.88C46.875 27.96 46.74 28 46.55 28H44.24C44.05 28 43.91 27.96 43.82 27.88C43.74 27.79 43.7 27.65 43.7 27.46V22.18L42.815 23.815C42.725 23.985 42.615 24.11 42.485 24.19C42.365 24.26 42.21 24.295 42.02 24.295H41.42C41.23 24.295 41.07 24.26 40.94 24.19C40.82 24.11 40.715 23.985 40.625 23.815L39.74 22.18V27.46C39.74 27.65 39.695 27.79 39.605 27.88C39.525 27.96 39.39 28 39.2 28ZM48.5545 28C48.3645 28 48.2245 27.96 48.1345 27.88C48.0545 27.79 48.0145 27.65 48.0145 27.46V25.675C48.0145 25.485 48.0545 25.35 48.1345 25.27C48.2245 25.18 48.3645 25.135 48.5545 25.135H50.0395V20.095H48.5545C48.3645 20.095 48.2245 20.055 48.1345 19.975C48.0545 19.885 48.0145 19.745 48.0145 19.555V17.74C48.0145 17.55 48.0545 17.415 48.1345 17.335C48.2245 17.245 48.3645 17.2 48.5545 17.2H54.9445C55.1345 17.2 55.2695 17.245 55.3495 17.335C55.4395 17.415 55.4845 17.55 55.4845 17.74V19.555C55.4845 19.745 55.4395 19.885 55.3495 19.975C55.2695 20.055 55.1345 20.095 54.9445 20.095H53.4895V25.135H54.9445C55.1345 25.135 55.2695 25.18 55.3495 25.27C55.4395 25.35 55.4845 25.485 55.4845 25.675V27.46C55.4845 27.65 55.4395 27.79 55.3495 27.88C55.2695 27.96 55.1345 28 54.9445 28H48.5545ZM59.2266 28H56.9766C56.7866 28 56.6466 27.96 56.5566 27.88C56.4766 27.79 56.4366 27.65 56.4366 27.46V17.74C56.4366 17.55 56.4766 17.415 56.5566 17.335C56.6466 17.245 56.7866 17.2 56.9766 17.2H58.5366C58.7266 17.2 58.8866 17.23 59.0166 17.29C59.1566 17.35 59.2916 17.455 59.4216 17.605L62.3316 20.935V17.74C62.3316 17.55 62.3716 17.415 62.4516 17.335C62.5416 17.245 62.6816 17.2 62.8716 17.2H65.1216C65.3116 17.2 65.4466 17.245 65.5266 17.335C65.6166 17.415 65.6616 17.55 65.6616 17.74V27.46C65.6616 27.65 65.6166 27.79 65.5266 27.88C65.4466 27.96 65.3116 28 65.1216 28H62.8716C62.6816 28 62.5416 27.96 62.4516 27.88C62.3716 27.79 62.3316 27.65 62.3316 27.46V25.615L59.7666 22.51V27.46C59.7666 27.65 59.7216 27.79 59.6316 27.88C59.5516 27.96 59.4166 28 59.2266 28ZM74.3305 28H67.3705C67.1805 28 67.0405 27.96 66.9505 27.88C66.8705 27.79 66.8305 27.65 66.8305 27.46V17.74C66.8305 17.55 66.8705 17.415 66.9505 17.335C67.0405 17.245 67.1805 17.2 67.3705 17.2H74.3305C74.5205 17.2 74.6555 17.245 74.7355 17.335C74.8255 17.415 74.8705 17.55 74.8705 17.74V19.495C74.8705 19.685 74.8255 19.825 74.7355 19.915C74.6555 19.995 74.5205 20.035 74.3305 20.035H70.1905V21.19H73.1155C73.3055 21.19 73.4405 21.235 73.5205 21.325C73.6105 21.405 73.6555 21.54 73.6555 21.73V23.335C73.6555 23.525 73.6105 23.665 73.5205 23.755C73.4405 23.835 73.3055 23.875 73.1155 23.875H70.1905V25.165H74.3305C74.5205 25.165 74.6555 25.21 74.7355 25.3C74.8255 25.38 74.8705 25.515 74.8705 25.705V27.46C74.8705 27.65 74.8255 27.79 74.7355 27.88C74.6555 27.96 74.5205 28 74.3305 28Z" fill="white"/>
<path d="M36.545 27.88L35.7976 28.5444L35.8367 28.5883L35.8807 28.6274L36.545 27.88ZM36.545 17.335L35.8379 16.6279L35.8379 16.6279L36.545 17.335ZM39.77 17.305L39.1966 18.1242L39.2146 18.1368L39.2332 18.1487L39.77 17.305ZM40.07 17.65L40.9455 17.1666L40.9416 17.1597L40.07 17.65ZM41.42 20.095L40.5446 20.5784L40.5459 20.5806L41.42 20.095ZM41.54 20.29L40.74 20.89L40.7827 20.9469L40.8329 20.9971L41.54 20.29ZM41.96 20.29L41.2529 19.5829L41.2027 19.6331L41.16 19.69L41.96 20.29ZM42.095 20.095L42.9692 20.5807L42.9727 20.5742L42.095 20.095ZM43.43 17.65L42.5584 17.1597L42.5523 17.1708L43.43 17.65ZM43.715 17.305L43.1782 16.4613L43.1596 16.4731L43.1416 16.4858L43.715 17.305ZM46.955 17.335L46.2076 17.9994L46.2467 18.0433L46.2907 18.0824L46.955 17.335ZM46.955 27.88L47.6621 28.5871L47.6621 28.5871L46.955 27.88ZM43.82 27.88L43.0726 28.5444L43.1117 28.5883L43.1557 28.6274L43.82 27.88ZM43.7 22.18H44.7L42.8206 21.704L43.7 22.18ZM42.815 23.815L41.9356 23.339L41.9313 23.3471L42.815 23.815ZM42.485 24.19L42.9889 25.0538L42.9991 25.0478L43.0091 25.0417L42.485 24.19ZM40.94 24.19L40.3853 25.022L40.4245 25.0482L40.4659 25.0705L40.94 24.19ZM40.625 23.815L41.5089 23.3471L41.5045 23.339L40.625 23.815ZM39.74 22.18L40.6195 21.704L38.74 22.18H39.74ZM39.605 27.88L40.3121 28.5871L40.3121 28.5871L39.605 27.88ZM39.2 27H36.965V29H39.2V27ZM36.965 27C36.9364 27 36.9505 26.9966 36.9923 27.0085C37.0368 27.0212 37.1212 27.0542 37.2094 27.1326L35.8807 28.6274C36.2341 28.9416 36.6648 29 36.965 29V27ZM37.2924 27.2156C37.3708 27.3038 37.4038 27.3882 37.4166 27.4328C37.4285 27.4745 37.425 27.4887 37.425 27.46H35.425C35.425 27.7602 35.4834 28.1909 35.7976 28.5444L37.2924 27.2156ZM37.425 27.46V17.74H35.425V27.46H37.425ZM37.425 17.74C37.425 17.71 37.4288 17.7298 37.4138 17.7803C37.3979 17.8342 37.3554 17.9388 37.2521 18.0421L35.8379 16.6279C35.4773 16.9885 35.425 17.4546 35.425 17.74H37.425ZM37.2521 18.0421C37.0795 18.2147 36.9109 18.2 36.965 18.2V16.2C36.6392 16.2 36.1905 16.2753 35.8379 16.6279L37.2521 18.0421ZM36.965 18.2H39.38V16.2H36.965V18.2ZM39.38 18.2C39.3981 18.2 39.3099 18.2036 39.1966 18.1242L40.3435 16.4858C40.0302 16.2664 39.682 16.2 39.38 16.2V18.2ZM39.2332 18.1487C39.1946 18.1241 39.1757 18.1031 39.1729 18.0999C39.1705 18.0971 39.1802 18.1078 39.1985 18.1403L40.9416 17.1597C40.8019 16.9114 40.601 16.6485 40.3069 16.4613L39.2332 18.1487ZM39.1946 18.1334L40.5446 20.5784L42.2955 19.6116L40.9455 17.1666L39.1946 18.1334ZM40.5459 20.5806C40.6 20.678 40.6671 20.7927 40.74 20.89L42.34 19.69C42.3461 19.698 42.3487 19.7021 42.3477 19.7006C42.3469 19.6994 42.3441 19.6951 42.3392 19.6872C42.3291 19.6708 42.3143 19.6455 42.2942 19.6094L40.5459 20.5806ZM40.8329 20.9971C41.0727 21.2369 41.3827 21.35 41.69 21.35V19.35C41.7728 19.35 41.8731 19.3642 41.9789 19.4065C42.086 19.4493 42.1763 19.512 42.2471 19.5829L40.8329 20.9971ZM41.69 21.35H41.825V19.35H41.69V21.35ZM41.825 21.35C42.129 21.35 42.5024 21.2335 42.76 20.89L41.16 19.69C41.2458 19.5757 41.3618 19.4816 41.4977 19.4212C41.6278 19.3634 41.745 19.35 41.825 19.35V21.35ZM42.6671 20.9971C42.806 20.8583 42.9045 20.697 42.9692 20.5806L41.2209 19.6094C41.2144 19.621 41.2094 19.6295 41.2059 19.6353C41.2023 19.6411 41.2009 19.6431 41.2016 19.642C41.2023 19.6411 41.2063 19.6354 41.2137 19.6261C41.221 19.6171 41.234 19.6018 41.2529 19.5829L42.6671 20.9971ZM42.9727 20.5742L44.3077 18.1292L42.5523 17.1708L41.2174 19.6158L42.9727 20.5742ZM44.3016 18.1403C44.3124 18.121 44.3214 18.1067 44.3282 18.0966C44.335 18.0865 44.339 18.0815 44.3398 18.0806C44.3405 18.0797 44.3372 18.0839 44.3292 18.0914C44.3213 18.099 44.3079 18.1107 44.2885 18.1242L43.1416 16.4858C42.8727 16.674 42.6882 16.9292 42.5585 17.1597L44.3016 18.1403ZM44.2519 18.1487C44.2128 18.1736 44.1764 18.1873 44.1498 18.1942C44.1243 18.2008 44.1126 18.2 44.12 18.2V16.2C43.8132 16.2 43.4816 16.2682 43.1782 16.4613L44.2519 18.1487ZM44.12 18.2H46.55V16.2H44.12V18.2ZM46.55 18.2C46.5713 18.2 46.5397 18.2032 46.4776 18.1824C46.4093 18.1597 46.3035 18.1073 46.2076 17.9994L47.7024 16.6706C47.3463 16.27 46.8629 16.2 46.55 16.2V18.2ZM46.2907 18.0824C46.1828 17.9865 46.1304 17.8808 46.1076 17.8125C46.0869 17.7503 46.09 17.7188 46.09 17.74H48.09C48.09 17.4271 48.0201 16.9437 47.6194 16.5876L46.2907 18.0824ZM46.09 17.74V27.46H48.09V17.74H46.09ZM46.09 27.46C46.09 27.5142 46.0753 27.3455 46.2479 27.1729L47.6621 28.5871C48.0147 28.2345 48.09 27.7858 48.09 27.46H46.09ZM46.2479 27.1729C46.3512 27.0696 46.4559 27.0271 46.5097 27.0112C46.5602 26.9962 46.5801 27 46.55 27V29C46.8355 29 47.3015 28.9478 47.6621 28.5871L46.2479 27.1729ZM46.55 27H44.24V29H46.55V27ZM44.24 27C44.2114 27 44.2255 26.9966 44.2673 27.0085C44.3118 27.0212 44.3962 27.0542 44.4844 27.1326L43.1557 28.6274C43.5091 28.9416 43.9398 29 44.24 29V27ZM44.5674 27.2156C44.6458 27.3038 44.6788 27.3882 44.6916 27.4328C44.7035 27.4745 44.7 27.4887 44.7 27.46H42.7C42.7 27.7602 42.7584 28.1909 43.0726 28.5444L44.5674 27.2156ZM44.7 27.46V22.18H42.7V27.46H44.7ZM42.8206 21.704L41.9356 23.339L43.6945 24.291L44.5795 22.656L42.8206 21.704ZM41.9313 23.3471C41.9174 23.3733 41.9103 23.3802 41.9143 23.3756C41.919 23.3703 41.934 23.3549 41.9609 23.3383L43.0091 25.0417C43.3259 24.8467 43.5468 24.5701 43.6988 24.2829L41.9313 23.3471ZM41.9812 23.3262C42.0211 23.3029 42.0504 23.2951 42.0585 23.2933C42.0657 23.2917 42.0549 23.295 42.02 23.295V25.295C42.3247 25.295 42.6698 25.2399 42.9889 25.0538L41.9812 23.3262ZM42.02 23.295H41.42V25.295H42.02V23.295ZM41.42 23.295C41.3858 23.295 41.3709 23.2918 41.3712 23.2918C41.3723 23.2921 41.3889 23.2959 41.4141 23.3095L40.4659 25.0705C40.7775 25.2382 41.1107 25.295 41.42 25.295V23.295ZM41.4947 23.358C41.5233 23.377 41.5364 23.3923 41.537 23.3931C41.5372 23.3934 41.5346 23.3902 41.5296 23.3826C41.5245 23.375 41.5175 23.3634 41.5088 23.3471L39.7413 24.2829C39.884 24.5526 40.0887 24.8243 40.3853 25.022L41.4947 23.358ZM41.5045 23.339L40.6195 21.704L38.8606 22.656L39.7456 24.291L41.5045 23.339ZM38.74 22.18V27.46H40.74V22.18H38.74ZM38.74 27.46C38.74 27.5142 38.7253 27.3455 38.8979 27.1729L40.3121 28.5871C40.6647 28.2345 40.74 27.7858 40.74 27.46H38.74ZM38.8979 27.1729C39.0012 27.0696 39.1059 27.0271 39.1597 27.0112C39.2102 26.9962 39.2301 27 39.2 27V29C39.4855 29 39.9515 28.9478 40.3121 28.5871L38.8979 27.1729ZM48.1345 27.88L47.3871 28.5444L47.4262 28.5883L47.4702 28.6274L48.1345 27.88ZM48.1345 25.27L48.8416 25.9771L48.8416 25.9771L48.1345 25.27ZM50.0395 25.135V26.135H51.0395V25.135H50.0395ZM50.0395 20.095H51.0395V19.095H50.0395V20.095ZM48.1345 19.975L47.3871 20.6394L47.4262 20.6833L47.4702 20.7224L48.1345 19.975ZM48.1345 17.335L47.4274 16.6279L47.4274 16.6279L48.1345 17.335ZM55.3495 17.335L54.6021 17.9994L54.6412 18.0433L54.6852 18.0824L55.3495 17.335ZM55.3495 19.975L56.0566 20.6821L56.0566 20.6821L55.3495 19.975ZM53.4895 20.095V19.095H52.4895V20.095H53.4895ZM53.4895 25.135H52.4895V26.135H53.4895V25.135ZM55.3495 25.27L54.6021 25.9344L54.6412 25.9783L54.6852 26.0174L55.3495 25.27ZM55.3495 27.88L56.0566 28.5871L56.0566 28.5871L55.3495 27.88ZM48.5545 27C48.5259 27 48.54 26.9966 48.5818 27.0085C48.6263 27.0212 48.7107 27.0542 48.7989 27.1326L47.4702 28.6274C47.8236 28.9416 48.2543 29 48.5545 29V27ZM48.8819 27.2156C48.9603 27.3038 48.9933 27.3882 49.0061 27.4328C49.018 27.4745 49.0145 27.4887 49.0145 27.46H47.0145C47.0145 27.7602 47.0729 28.1909 47.3871 28.5444L48.8819 27.2156ZM49.0145 27.46V25.675H47.0145V27.46H49.0145ZM49.0145 25.675C49.0145 25.645 49.0183 25.6648 49.0033 25.7153C48.9874 25.7692 48.9449 25.8738 48.8416 25.9771L47.4274 24.5629C47.0668 24.9235 47.0145 25.3896 47.0145 25.675H49.0145ZM48.8416 25.9771C48.669 26.1497 48.5003 26.135 48.5545 26.135V24.135C48.2287 24.135 47.78 24.2103 47.4274 24.5629L48.8416 25.9771ZM48.5545 26.135H50.0395V24.135H48.5545V26.135ZM51.0395 25.135V20.095H49.0395V25.135H51.0395ZM50.0395 19.095H48.5545V21.095H50.0395V19.095ZM48.5545 19.095C48.5259 19.095 48.54 19.0916 48.5818 19.1035C48.6263 19.1162 48.7107 19.1492 48.7989 19.2276L47.4702 20.7224C47.8236 21.0366 48.2543 21.095 48.5545 21.095V19.095ZM48.8819 19.3106C48.9603 19.3988 48.9933 19.4832 49.0061 19.5278C49.018 19.5695 49.0145 19.5837 49.0145 19.555H47.0145C47.0145 19.8552 47.0729 20.2859 47.3871 20.6394L48.8819 19.3106ZM49.0145 19.555V17.74H47.0145V19.555H49.0145ZM49.0145 17.74C49.0145 17.71 49.0183 17.7298 49.0033 17.7803C48.9874 17.8342 48.9449 17.9388 48.8416 18.0421L47.4274 16.6279C47.0668 16.9885 47.0145 17.4546 47.0145 17.74H49.0145ZM48.8416 18.0421C48.669 18.2147 48.5003 18.2 48.5545 18.2V16.2C48.2287 16.2 47.78 16.2753 47.4274 16.6279L48.8416 18.0421ZM48.5545 18.2H54.9445V16.2H48.5545V18.2ZM54.9445 18.2C54.9658 18.2 54.9342 18.2032 54.8721 18.1824C54.8038 18.1597 54.698 18.1073 54.6021 17.9994L56.0969 16.6706C55.7408 16.27 55.2574 16.2 54.9445 16.2V18.2ZM54.6852 18.0824C54.5773 17.9865 54.5249 17.8808 54.5021 17.8125C54.4814 17.7503 54.4845 17.7188 54.4845 17.74H56.4845C56.4845 17.4271 56.4146 16.9437 56.0139 16.5876L54.6852 18.0824ZM54.4845 17.74V19.555H56.4845V17.74H54.4845ZM54.4845 19.555C54.4845 19.6092 54.4698 19.4405 54.6424 19.2679L56.0566 20.6821C56.4092 20.3295 56.4845 19.8808 56.4845 19.555H54.4845ZM54.6424 19.2679C54.7457 19.1646 54.8504 19.1221 54.9042 19.1062C54.9547 19.0912 54.9746 19.095 54.9445 19.095V21.095C55.2299 21.095 55.696 21.0428 56.0566 20.6821L54.6424 19.2679ZM54.9445 19.095H53.4895V21.095H54.9445V19.095ZM52.4895 20.095V25.135H54.4895V20.095H52.4895ZM53.4895 26.135H54.9445V24.135H53.4895V26.135ZM54.9445 26.135C54.9658 26.135 54.9342 26.1382 54.8721 26.1174C54.8038 26.0947 54.698 26.0423 54.6021 25.9344L56.0969 24.6056C55.7408 24.205 55.2574 24.135 54.9445 24.135V26.135ZM54.6852 26.0174C54.5773 25.9215 54.5249 25.8158 54.5021 25.7475C54.4814 25.6853 54.4845 25.6538 54.4845 25.675H56.4845C56.4845 25.3621 56.4146 24.8787 56.0139 24.5226L54.6852 26.0174ZM54.4845 25.675V27.46H56.4845V25.675H54.4845ZM54.4845 27.46C54.4845 27.5142 54.4698 27.3455 54.6424 27.1729L56.0566 28.5871C56.4092 28.2345 56.4845 27.7858 56.4845 27.46H54.4845ZM54.6424 27.1729C54.7457 27.0696 54.8504 27.0271 54.9042 27.0112C54.9547 26.9962 54.9746 27 54.9445 27V29C55.2299 29 55.696 28.9478 56.0566 28.5871L54.6424 27.1729ZM54.9445 27H48.5545V29H54.9445V27ZM56.5566 27.88L55.8092 28.5444L55.8482 28.5883L55.8922 28.6274L56.5566 27.88ZM56.5566 17.335L55.8495 16.6279L55.8495 16.6279L56.5566 17.335ZM59.0166 17.29L58.5975 18.198L58.61 18.2037L58.6226 18.2091L59.0166 17.29ZM59.4216 17.605L58.6659 18.2599L58.6686 18.263L59.4216 17.605ZM62.3316 20.935L61.5786 21.593L63.3316 23.599V20.935H62.3316ZM65.5266 17.335L64.7792 17.9994L64.8182 18.0433L64.8622 18.0824L65.5266 17.335ZM65.5266 27.88L64.8195 27.1729L64.8195 27.1729L65.5266 27.88ZM62.4516 27.88L61.7042 28.5444L61.7432 28.5883L61.7872 28.6274L62.4516 27.88ZM62.3316 25.615H63.3316V25.2554L63.1025 24.9781L62.3316 25.615ZM59.7666 22.51L60.5375 21.8731L58.7666 19.7293V22.51H59.7666ZM59.6316 27.88L58.9245 27.1729L58.9245 27.1729L59.6316 27.88ZM59.2266 27H56.9766V29H59.2266V27ZM56.9766 27C56.9479 27 56.962 26.9966 57.0038 27.0085C57.0484 27.0212 57.1327 27.0542 57.2209 27.1326L55.8922 28.6274C56.2457 28.9416 56.6763 29 56.9766 29V27ZM57.304 27.2156C57.3824 27.3038 57.4154 27.3882 57.4281 27.4328C57.44 27.4745 57.4366 27.4887 57.4366 27.46H55.4366C55.4366 27.7602 55.495 28.1909 55.8092 28.5444L57.304 27.2156ZM57.4366 27.46V17.74H55.4366V27.46H57.4366ZM57.4366 17.74C57.4366 17.71 57.4403 17.7298 57.4254 17.7803C57.4094 17.8342 57.3669 17.9388 57.2637 18.0421L55.8495 16.6279C55.4888 16.9885 55.4366 17.4546 55.4366 17.74H57.4366ZM57.2637 18.0421C57.0911 18.2147 56.9224 18.2 56.9766 18.2V16.2C56.6507 16.2 56.2021 16.2753 55.8495 16.6279L57.2637 18.0421ZM56.9766 18.2H58.5366V16.2H56.9766V18.2ZM58.5366 18.2C58.5797 18.2 58.6046 18.2035 58.6148 18.2054C58.6246 18.2072 58.6168 18.2069 58.5975 18.198L59.4356 16.382C59.1387 16.245 58.8262 16.2 58.5366 16.2V18.2ZM58.6226 18.2091C58.6051 18.2016 58.6007 18.1968 58.6089 18.2031C58.6174 18.2098 58.637 18.2266 58.6659 18.2599L60.1773 16.9501C59.9771 16.7191 59.725 16.5057 59.4105 16.3709L58.6226 18.2091ZM58.6686 18.263L61.5786 21.593L63.0846 20.277L60.1746 16.947L58.6686 18.263ZM63.3316 20.935V17.74H61.3316V20.935H63.3316ZM63.3316 17.74C63.3316 17.71 63.3353 17.7298 63.3204 17.7803C63.3044 17.8342 63.2619 17.9388 63.1587 18.0421L61.7445 16.6279C61.3838 16.9885 61.3316 17.4546 61.3316 17.74H63.3316ZM63.1587 18.0421C62.9861 18.2147 62.8174 18.2 62.8716 18.2V16.2C62.5457 16.2 62.0971 16.2753 61.7445 16.6279L63.1587 18.0421ZM62.8716 18.2H65.1216V16.2H62.8716V18.2ZM65.1216 18.2C65.1428 18.2 65.1113 18.2032 65.0491 18.1824C64.9808 18.1597 64.8751 18.1073 64.7792 17.9994L66.274 16.6706C65.9178 16.27 65.4344 16.2 65.1216 16.2V18.2ZM64.8622 18.0824C64.7543 17.9865 64.7019 17.8808 64.6791 17.8125C64.6584 17.7503 64.6616 17.7188 64.6616 17.74H66.6616C66.6616 17.4271 66.5916 16.9437 66.1909 16.5876L64.8622 18.0824ZM64.6616 17.74V27.46H66.6616V17.74H64.6616ZM64.6616 27.46C64.6616 27.5142 64.6469 27.3455 64.8195 27.1729L66.2337 28.5871C66.5863 28.2345 66.6616 27.7858 66.6616 27.46H64.6616ZM64.8195 27.1729C64.9227 27.0696 65.0274 27.0271 65.0812 27.0112C65.1317 26.9962 65.1516 27 65.1216 27V29C65.407 29 65.873 28.9478 66.2337 28.5871L64.8195 27.1729ZM65.1216 27H62.8716V29H65.1216V27ZM62.8716 27C62.8429 27 62.857 26.9966 62.8988 27.0085C62.9434 27.0212 63.0277 27.0542 63.1159 27.1326L61.7872 28.6274C62.1407 28.9416 62.5713 29 62.8716 29V27ZM63.199 27.2156C63.2774 27.3038 63.3104 27.3882 63.3231 27.4328C63.335 27.4745 63.3316 27.4887 63.3316 27.46H61.3316C61.3316 27.7602 61.39 28.1909 61.7042 28.5444L63.199 27.2156ZM63.3316 27.46V25.615H61.3316V27.46H63.3316ZM63.1025 24.9781L60.5375 21.8731L58.9956 23.1469L61.5606 26.2519L63.1025 24.9781ZM58.7666 22.51V27.46H60.7666V22.51H58.7666ZM58.7666 27.46C58.7666 27.5142 58.7519 27.3455 58.9245 27.1729L60.3387 28.5871C60.6913 28.2345 60.7666 27.7858 60.7666 27.46H58.7666ZM58.9245 27.1729C59.0277 27.0696 59.1324 27.0271 59.1862 27.0112C59.2367 26.9962 59.2566 27 59.2266 27V29C59.512 29 59.978 28.9478 60.3387 28.5871L58.9245 27.1729ZM66.9505 27.88L66.2031 28.5444L66.2422 28.5883L66.2861 28.6274L66.9505 27.88ZM66.9505 17.335L66.2434 16.6279L66.2434 16.6279L66.9505 17.335ZM74.7355 17.335L73.9881 17.9994L74.0272 18.0433L74.0711 18.0824L74.7355 17.335ZM70.1905 20.035V19.035H69.1905V20.035H70.1905ZM70.1905 21.19H69.1905V22.19H70.1905V21.19ZM73.5205 21.325L72.7731 21.9894L72.8122 22.0333L72.8561 22.0724L73.5205 21.325ZM73.5205 23.755L72.8134 23.0479L73.5205 23.755ZM70.1905 23.875V22.875H69.1905V23.875H70.1905ZM70.1905 25.165H69.1905V26.165H70.1905V25.165ZM74.7355 25.3L73.9881 25.9644L74.0272 26.0083L74.0711 26.0474L74.7355 25.3ZM74.7355 27.88L75.4426 28.5871L75.4426 28.5871L74.7355 27.88ZM74.3305 27H67.3705V29H74.3305V27ZM67.3705 27C67.3418 27 67.356 26.9966 67.3977 27.0085C67.4423 27.0212 67.5267 27.0542 67.6149 27.1326L66.2861 28.6274C66.6396 28.9416 67.0703 29 67.3705 29V27ZM67.6979 27.2156C67.7763 27.3038 67.8093 27.3882 67.822 27.4328C67.834 27.4745 67.8305 27.4887 67.8305 27.46H65.8305C65.8305 27.7602 65.8889 28.1909 66.2031 28.5444L67.6979 27.2156ZM67.8305 27.46V17.74H65.8305V27.46H67.8305ZM67.8305 17.74C67.8305 17.71 67.8343 17.7298 67.8193 17.7803C67.8034 17.8342 67.7609 17.9388 67.6576 18.0421L66.2434 16.6279C65.8827 16.9885 65.8305 17.4546 65.8305 17.74H67.8305ZM67.6576 18.0421C67.485 18.2147 67.3163 18.2 67.3705 18.2V16.2C67.0447 16.2 66.596 16.2753 66.2434 16.6279L67.6576 18.0421ZM67.3705 18.2H74.3305V16.2H67.3705V18.2ZM74.3305 18.2C74.3517 18.2 74.3202 18.2032 74.258 18.1824C74.1897 18.1597 74.084 18.1073 73.9881 17.9994L75.4829 16.6706C75.1268 16.27 74.6434 16.2 74.3305 16.2V18.2ZM74.0711 18.0824C73.9632 17.9865 73.9108 17.8808 73.8881 17.8125C73.8674 17.7503 73.8705 17.7188 73.8705 17.74H75.8705C75.8705 17.4271 75.8005 16.9437 75.3999 16.5876L74.0711 18.0824ZM73.8705 17.74V19.495H75.8705V17.74H73.8705ZM73.8705 19.495C73.8705 19.5492 73.8558 19.3805 74.0284 19.2079L75.4426 20.6221C75.7952 20.2695 75.8705 19.8208 75.8705 19.495H73.8705ZM74.0284 19.2079C74.1317 19.1046 74.2364 19.0621 74.2902 19.0462C74.3407 19.0312 74.3605 19.035 74.3305 19.035V21.035C74.6159 21.035 75.082 20.9828 75.4426 20.6221L74.0284 19.2079ZM74.3305 19.035H70.1905V21.035H74.3305V19.035ZM69.1905 20.035V21.19H71.1905V20.035H69.1905ZM70.1905 22.19H73.1155V20.19H70.1905V22.19ZM73.1155 22.19C73.1367 22.19 73.1052 22.1932 73.043 22.1724C72.9748 22.1497 72.869 22.0973 72.7731 21.9894L74.2679 20.6606C73.9118 20.26 73.4284 20.19 73.1155 20.19V22.19ZM72.8561 22.0724C72.7482 21.9765 72.6958 21.8708 72.6731 21.8025C72.6524 21.7403 72.6555 21.7088 72.6555 21.73H74.6555C74.6555 21.4171 74.5855 20.9337 74.1849 20.5776L72.8561 22.0724ZM72.6555 21.73V23.335H74.6555V21.73H72.6555ZM72.6555 23.335C72.6555 23.3892 72.6408 23.2205 72.8134 23.0479L74.2276 24.4621C74.5802 24.1095 74.6555 23.6608 74.6555 23.335H72.6555ZM72.8134 23.0479C72.9167 22.9446 73.0214 22.9021 73.0752 22.8862C73.1257 22.8712 73.1455 22.875 73.1155 22.875V24.875C73.4009 24.875 73.867 24.8228 74.2276 24.4621L72.8134 23.0479ZM73.1155 22.875H70.1905V24.875H73.1155V22.875ZM69.1905 23.875V25.165H71.1905V23.875H69.1905ZM70.1905 26.165H74.3305V24.165H70.1905V26.165ZM74.3305 26.165C74.3517 26.165 74.3202 26.1682 74.258 26.1474C74.1897 26.1247 74.084 26.0723 73.9881 25.9644L75.4829 24.6356C75.1268 24.235 74.6434 24.165 74.3305 24.165V26.165ZM74.0711 26.0474C73.9632 25.9515 73.9108 25.8458 73.8881 25.7775C73.8674 25.7153 73.8705 25.6838 73.8705 25.705H75.8705C75.8705 25.3921 75.8005 24.9087 75.3999 24.5526L74.0711 26.0474ZM73.8705 25.705V27.46H75.8705V25.705H73.8705ZM73.8705 27.46C73.8705 27.5142 73.8558 27.3455 74.0284 27.1729L75.4426 28.5871C75.7952 28.2345 75.8705 27.7858 75.8705 27.46H73.8705ZM74.0284 27.1729C74.1317 27.0696 74.2364 27.0271 74.2902 27.0112C74.3407 26.9962 74.3605 27 74.3305 27V29C74.6159 29 75.082 28.9478 75.4426 28.5871L74.0284 27.1729Z" fill="black" mask="url(#path-8-outside-1_2530_992)"/>
</g>
<defs>
<filter id="filter0_d_2530_992" x="36.425" y="17.2002" width="38.4456" height="12.7998" filterUnits="userSpaceOnUse" color-interpolation-filters="sRGB">
<feFlood flood-opacity="0" result="BackgroundImageFix"/>
<feColorMatrix in="SourceAlpha" type="matrix" values="0 0 0 0 0 0 0 0 0 0 0 0 0 0 0 0 0 0 127 0" result="hardAlpha"/>
<feOffset dy="2"/>
<feComposite in2="hardAlpha" operator="out"/>
<feColorMatrix type="matrix" values="0 0 0 0 0 0 0 0 0 0 0 0 0 0 0 0 0 0 1 0"/>
<feBlend mode="normal" in2="BackgroundImageFix" result="effect1_dropShadow_2530_992"/>
<feBlend mode="normal" in="SourceGraphic" in2="effect1_dropShadow_2530_992" result="shape"/>
</filter>
<linearGradient id="paint0_linear_2530_992" x1="54.5" y1="3.84619" x2="54.5" y2="45.8462" gradientUnits="userSpaceOnUse">
<stop stop-color="#9156FF"/>
<stop offset="1" stop-color="#4500B7"/>
</linearGradient>
<linearGradient id="paint1_linear_2530_992" x1="41.375" y1="42" x2="41.375" y2="2" gradientUnits="userSpaceOnUse">
<stop stop-color="#F6E6F6"/>
<stop offset="1" stop-color="#AFADFF"/>
</linearGradient>
<linearGradient id="paint2_linear_2530_992" x1="4.43056" y1="5" x2="15.0704" y2="11.8054" gradientUnits="userSpaceOnUse">
<stop stop-color="white"/>
<stop offset="1" stop-color="white" stop-opacity="0"/>
</linearGradient>
<linearGradient id="paint3_linear_2530_992" x1="54.5" y1="5" x2="54.5" y2="39" gradientUnits="userSpaceOnUse">
<stop stop-color="#9747FF"/>
<stop offset="1" stop-color="#6F00FF"/>
</linearGradient>
</defs>
</svg>
