<svg width="109" height="48" viewBox="0 0 109 48" fill="none" xmlns="http://www.w3.org/2000/svg">
<rect width="109" height="48" rx="8" fill="black"/>
<rect x="2" y="3.84619" width="105" height="42" rx="7" fill="url(#paint0_linear_2530_992)"/>
<rect x="2" y="2" width="105" height="40" rx="7" fill="url(#paint1_linear_2530_992)"/>
<rect x="2" y="2" width="105" height="42" rx="7" fill="url(#paint2_linear_2530_992)"/>
<rect x="5" y="5" width="99" height="34" rx="6" fill="url(#paint3_linear_2530_992)"/>
<ellipse cx="3.5438" cy="1.99141" rx="3.5438" ry="1.99141" transform="matrix(0.73474 -0.678349 0.574531 0.818483 3.78052 8.24414)" fill="#FCF7FF"/>
<ellipse cx="2.90149" cy="1.99141" rx="2.90149" ry="1.99141" transform="matrix(0.73474 -0.678349 0.574531 0.818483 98.7805 36.2441)" fill="#F2DCF7"/>
<g filter="url(#filter0_d_2530_992)">
<mask id="path-8-outside-1_2530_992" maskUnits="userSpaceOnUse" x="35" y="16" width="41" height="13" fill="black">
<rect fill="white" x="35" y="16" width="41" height="13"/>
<path d="M40.362 20.35L39.657 22.63H42.012L41.307 20.35C41.267 20.26 41.222 20.195 41.172 20.155C41.132 20.115 41.082 20.095 41.022 20.095H40.647C40.587 20.095 40.532 20.115 40.482 20.155C40.442 20.195 40.402 20.26 40.362 20.35ZM39.507 27.46C39.507 27.65 39.462 27.79 39.372 27.88C39.292 27.96 39.157 28 38.967 28H36.762C36.572 28 36.432 27.96 36.342 27.88C36.262 27.79 36.222 27.65 36.222 27.46V23.5C36.222 23.2 36.267 22.855 36.357 22.465C36.457 22.075 36.607 21.62 36.807 21.1L38.112 17.695C38.172 17.525 38.262 17.4 38.382 17.32C38.512 17.24 38.677 17.2 38.877 17.2H42.912C43.102 17.2 43.257 17.24 43.377 17.32C43.507 17.4 43.602 17.525 43.662 17.695L44.967 21.1C45.167 21.62 45.312 22.075 45.402 22.465C45.502 22.855 45.552 23.2 45.552 23.5V27.46C45.552 27.65 45.507 27.79 45.417 27.88C45.337 27.96 45.202 28 45.012 28H42.747C42.547 28 42.397 27.96 42.297 27.88C42.207 27.79 42.162 27.65 42.162 27.46V25.36H39.507V27.46ZM49.894 19.9V21.82H51.019C51.279 21.82 51.454 21.755 51.544 21.625C51.634 21.485 51.679 21.315 51.679 21.115V20.605C51.679 20.405 51.634 20.24 51.544 20.11C51.454 19.97 51.279 19.9 51.019 19.9H49.894ZM49.354 28H47.044C46.854 28 46.714 27.96 46.624 27.88C46.544 27.79 46.504 27.65 46.504 27.46V17.74C46.504 17.55 46.544 17.415 46.624 17.335C46.714 17.245 46.854 17.2 47.044 17.2H52.039C53.159 17.2 53.929 17.435 54.349 17.905C54.779 18.365 54.994 18.965 54.994 19.705V20.395C54.994 20.815 54.929 21.175 54.799 21.475C54.679 21.765 54.464 21.975 54.154 22.105C54.694 22.165 55.129 22.385 55.459 22.765C55.799 23.145 55.969 23.65 55.969 24.28V27.46C55.969 27.65 55.924 27.79 55.834 27.88C55.754 27.96 55.619 28 55.429 28H53.104C52.914 28 52.774 27.96 52.684 27.88C52.604 27.79 52.564 27.65 52.564 27.46V25.165C52.564 24.945 52.519 24.785 52.429 24.685C52.349 24.575 52.204 24.52 51.994 24.52H49.894V27.46C49.894 27.65 49.849 27.79 49.759 27.88C49.679 27.96 49.544 28 49.354 28ZM64.2515 28H57.2915C57.1015 28 56.9615 27.96 56.8715 27.88C56.7915 27.79 56.7515 27.65 56.7515 27.46V17.74C56.7515 17.55 56.7915 17.415 56.8715 17.335C56.9615 17.245 57.1015 17.2 57.2915 17.2H64.2515C64.4415 17.2 64.5765 17.245 64.6565 17.335C64.7465 17.415 64.7915 17.55 64.7915 17.74V19.495C64.7915 19.685 64.7465 19.825 64.6565 19.915C64.5765 19.995 64.4415 20.035 64.2515 20.035H60.1115V21.19H63.0365C63.2265 21.19 63.3615 21.235 63.4415 21.325C63.5315 21.405 63.5765 21.54 63.5765 21.73V23.335C63.5765 23.525 63.5315 23.665 63.4415 23.755C63.3615 23.835 63.2265 23.875 63.0365 23.875H60.1115V25.165H64.2515C64.4415 25.165 64.5765 25.21 64.6565 25.3C64.7465 25.38 64.7915 25.515 64.7915 25.705V27.46C64.7915 27.65 64.7465 27.79 64.6565 27.88C64.5765 27.96 64.4415 28 64.2515 28ZM69.581 20.35L68.876 22.63H71.231L70.526 20.35C70.486 20.26 70.441 20.195 70.391 20.155C70.351 20.115 70.301 20.095 70.241 20.095H69.866C69.806 20.095 69.751 20.115 69.701 20.155C69.661 20.195 69.621 20.26 69.581 20.35ZM68.726 27.46C68.726 27.65 68.681 27.79 68.591 27.88C68.511 27.96 68.376 28 68.186 28H65.981C65.791 28 65.651 27.96 65.561 27.88C65.481 27.79 65.441 27.65 65.441 27.46V23.5C65.441 23.2 65.486 22.855 65.576 22.465C65.676 22.075 65.826 21.62 66.026 21.1L67.331 17.695C67.391 17.525 67.481 17.4 67.601 17.32C67.731 17.24 67.896 17.2 68.096 17.2H72.131C72.321 17.2 72.476 17.24 72.596 17.32C72.726 17.4 72.821 17.525 72.881 17.695L74.186 21.1C74.386 21.62 74.531 22.075 74.621 22.465C74.721 22.855 74.771 23.2 74.771 23.5V27.46C74.771 27.65 74.726 27.79 74.636 27.88C74.556 27.96 74.421 28 74.231 28H71.966C71.766 28 71.616 27.96 71.516 27.88C71.426 27.79 71.381 27.65 71.381 27.46V25.36H68.726V27.46Z"/>
</mask>
<path d="M40.362 20.35L39.657 22.63H42.012L41.307 20.35C41.267 20.26 41.222 20.195 41.172 20.155C41.132 20.115 41.082 20.095 41.022 20.095H40.647C40.587 20.095 40.532 20.115 40.482 20.155C40.442 20.195 40.402 20.26 40.362 20.35ZM39.507 27.46C39.507 27.65 39.462 27.79 39.372 27.88C39.292 27.96 39.157 28 38.967 28H36.762C36.572 28 36.432 27.96 36.342 27.88C36.262 27.79 36.222 27.65 36.222 27.46V23.5C36.222 23.2 36.267 22.855 36.357 22.465C36.457 22.075 36.607 21.62 36.807 21.1L38.112 17.695C38.172 17.525 38.262 17.4 38.382 17.32C38.512 17.24 38.677 17.2 38.877 17.2H42.912C43.102 17.2 43.257 17.24 43.377 17.32C43.507 17.4 43.602 17.525 43.662 17.695L44.967 21.1C45.167 21.62 45.312 22.075 45.402 22.465C45.502 22.855 45.552 23.2 45.552 23.5V27.46C45.552 27.65 45.507 27.79 45.417 27.88C45.337 27.96 45.202 28 45.012 28H42.747C42.547 28 42.397 27.96 42.297 27.88C42.207 27.79 42.162 27.65 42.162 27.46V25.36H39.507V27.46ZM49.894 19.9V21.82H51.019C51.279 21.82 51.454 21.755 51.544 21.625C51.634 21.485 51.679 21.315 51.679 21.115V20.605C51.679 20.405 51.634 20.24 51.544 20.11C51.454 19.97 51.279 19.9 51.019 19.9H49.894ZM49.354 28H47.044C46.854 28 46.714 27.96 46.624 27.88C46.544 27.79 46.504 27.65 46.504 27.46V17.74C46.504 17.55 46.544 17.415 46.624 17.335C46.714 17.245 46.854 17.2 47.044 17.2H52.039C53.159 17.2 53.929 17.435 54.349 17.905C54.779 18.365 54.994 18.965 54.994 19.705V20.395C54.994 20.815 54.929 21.175 54.799 21.475C54.679 21.765 54.464 21.975 54.154 22.105C54.694 22.165 55.129 22.385 55.459 22.765C55.799 23.145 55.969 23.65 55.969 24.28V27.46C55.969 27.65 55.924 27.79 55.834 27.88C55.754 27.96 55.619 28 55.429 28H53.104C52.914 28 52.774 27.96 52.684 27.88C52.604 27.79 52.564 27.65 52.564 27.46V25.165C52.564 24.945 52.519 24.785 52.429 24.685C52.349 24.575 52.204 24.52 51.994 24.52H49.894V27.46C49.894 27.65 49.849 27.79 49.759 27.88C49.679 27.96 49.544 28 49.354 28ZM64.2515 28H57.2915C57.1015 28 56.9615 27.96 56.8715 27.88C56.7915 27.79 56.7515 27.65 56.7515 27.46V17.74C56.7515 17.55 56.7915 17.415 56.8715 17.335C56.9615 17.245 57.1015 17.2 57.2915 17.2H64.2515C64.4415 17.2 64.5765 17.245 64.6565 17.335C64.7465 17.415 64.7915 17.55 64.7915 17.74V19.495C64.7915 19.685 64.7465 19.825 64.6565 19.915C64.5765 19.995 64.4415 20.035 64.2515 20.035H60.1115V21.19H63.0365C63.2265 21.19 63.3615 21.235 63.4415 21.325C63.5315 21.405 63.5765 21.54 63.5765 21.73V23.335C63.5765 23.525 63.5315 23.665 63.4415 23.755C63.3615 23.835 63.2265 23.875 63.0365 23.875H60.1115V25.165H64.2515C64.4415 25.165 64.5765 25.21 64.6565 25.3C64.7465 25.38 64.7915 25.515 64.7915 25.705V27.46C64.7915 27.65 64.7465 27.79 64.6565 27.88C64.5765 27.96 64.4415 28 64.2515 28ZM69.581 20.35L68.876 22.63H71.231L70.526 20.35C70.486 20.26 70.441 20.195 70.391 20.155C70.351 20.115 70.301 20.095 70.241 20.095H69.866C69.806 20.095 69.751 20.115 69.701 20.155C69.661 20.195 69.621 20.26 69.581 20.35ZM68.726 27.46C68.726 27.65 68.681 27.79 68.591 27.88C68.511 27.96 68.376 28 68.186 28H65.981C65.791 28 65.651 27.96 65.561 27.88C65.481 27.79 65.441 27.65 65.441 27.46V23.5C65.441 23.2 65.486 22.855 65.576 22.465C65.676 22.075 65.826 21.62 66.026 21.1L67.331 17.695C67.391 17.525 67.481 17.4 67.601 17.32C67.731 17.24 67.896 17.2 68.096 17.2H72.131C72.321 17.2 72.476 17.24 72.596 17.32C72.726 17.4 72.821 17.525 72.881 17.695L74.186 21.1C74.386 21.62 74.531 22.075 74.621 22.465C74.721 22.855 74.771 23.2 74.771 23.5V27.46C74.771 27.65 74.726 27.79 74.636 27.88C74.556 27.96 74.421 28 74.231 28H71.966C71.766 28 71.616 27.96 71.516 27.88C71.426 27.79 71.381 27.65 71.381 27.46V25.36H68.726V27.46Z" fill="white"/>
<path d="M40.362 20.35L39.4482 19.9439L39.4241 19.998L39.4066 20.0546L40.362 20.35ZM39.657 22.63L38.7016 22.3346L38.3011 23.63H39.657V22.63ZM42.012 22.63V23.63H43.3679L42.9674 22.3346L42.012 22.63ZM41.307 20.35L42.2624 20.0546L42.2449 19.998L42.2208 19.9439L41.307 20.35ZM41.172 20.155L40.4649 20.8621L40.5041 20.9013L40.5473 20.9359L41.172 20.155ZM40.482 20.155L39.8573 19.3741L39.8141 19.4087L39.7749 19.4479L40.482 20.155ZM39.372 27.88L38.6649 27.1729L38.6649 27.1729L39.372 27.88ZM36.342 27.88L35.5946 28.5444L35.6337 28.5883L35.6776 28.6274L36.342 27.88ZM36.357 22.465L35.3883 22.2166L35.3853 22.2283L35.3826 22.2401L36.357 22.465ZM36.807 21.1L37.7404 21.459L37.7408 21.4579L36.807 21.1ZM38.112 17.695L39.0458 18.0529L39.0506 18.0404L39.055 18.0278L38.112 17.695ZM38.382 17.32L37.8579 16.4683L37.8424 16.4779L37.8273 16.4879L38.382 17.32ZM43.377 17.32L42.8223 18.152L42.8374 18.1621L42.8529 18.1717L43.377 17.32ZM43.662 17.695L42.719 18.0278L42.7235 18.0404L42.7282 18.0529L43.662 17.695ZM44.967 21.1L44.0332 21.4579L44.0337 21.459L44.967 21.1ZM45.402 22.465L44.4276 22.6899L44.4303 22.7017L44.4333 22.7134L45.402 22.465ZM45.417 27.88L46.1241 28.5871L46.1241 28.5871L45.417 27.88ZM42.297 27.88L41.5899 28.5871L41.6291 28.6263L41.6723 28.6609L42.297 27.88ZM42.162 25.36H43.162V24.36H42.162V25.36ZM39.507 25.36V24.36H38.507V25.36H39.507ZM39.4066 20.0546L38.7016 22.3346L40.6124 22.9254L41.3174 20.6454L39.4066 20.0546ZM39.657 23.63H42.012V21.63H39.657V23.63ZM42.9674 22.3346L42.2624 20.0546L40.3516 20.6454L41.0566 22.9254L42.9674 22.3346ZM42.2208 19.9439C42.1476 19.7791 42.0211 19.5536 41.7967 19.3741L40.5473 20.9359C40.4813 20.883 40.4414 20.8323 40.4211 20.803C40.4105 20.7876 40.4034 20.7755 40.3993 20.768C40.3951 20.7605 40.3932 20.7562 40.3932 20.7561L42.2208 19.9439ZM41.8791 19.4479C41.6393 19.2081 41.3294 19.095 41.022 19.095V21.095C40.9393 21.095 40.839 21.0808 40.7331 21.0385C40.6261 20.9957 40.5357 20.9329 40.4649 20.8621L41.8791 19.4479ZM41.022 19.095H40.647V21.095H41.022V19.095ZM40.647 19.095C40.3441 19.095 40.0718 19.2025 39.8573 19.3741L41.1067 20.9359C40.9922 21.0275 40.8299 21.095 40.647 21.095V19.095ZM39.7749 19.4479C39.6065 19.6163 39.5067 19.8122 39.4482 19.9439L41.2758 20.7561C41.2826 20.7408 41.2825 20.7434 41.2737 20.7578C41.266 20.7703 41.2396 20.8116 41.1891 20.8621L39.7749 19.4479ZM38.507 27.46C38.507 27.5142 38.4923 27.3455 38.6649 27.1729L40.0791 28.5871C40.4317 28.2345 40.507 27.7858 40.507 27.46H38.507ZM38.6649 27.1729C38.7682 27.0696 38.8729 27.0271 38.9267 27.0112C38.9772 26.9962 38.997 27 38.967 27V29C39.2524 29 39.7185 28.9478 40.0791 28.5871L38.6649 27.1729ZM38.967 27H36.762V29H38.967V27ZM36.762 27C36.7333 27 36.7475 26.9966 36.7892 27.0085C36.8338 27.0212 36.9182 27.0542 37.0064 27.1326L35.6776 28.6274C36.0311 28.9416 36.4618 29 36.762 29V27ZM37.0894 27.2156C37.1678 27.3038 37.2008 27.3882 37.2135 27.4328C37.2255 27.4745 37.222 27.4887 37.222 27.46H35.222C35.222 27.7602 35.2804 28.1909 35.5946 28.5444L37.0894 27.2156ZM37.222 27.46V23.5H35.222V27.46H37.222ZM37.222 23.5C37.222 23.296 37.2531 23.029 37.3314 22.6899L35.3826 22.2401C35.2809 22.681 35.222 23.104 35.222 23.5H37.222ZM37.3257 22.7134C37.4132 22.372 37.5494 21.9554 37.7404 21.459L35.8737 20.741C35.6646 21.2846 35.5008 21.778 35.3883 22.2166L37.3257 22.7134ZM37.7408 21.4579L39.0458 18.0529L37.1782 17.3371L35.8732 20.7421L37.7408 21.4579ZM39.055 18.0278C39.0586 18.0176 39.0551 18.0316 39.036 18.0581C39.0158 18.0862 38.9831 18.1211 38.9367 18.1521L37.8273 16.4879C37.4864 16.7152 37.2828 17.0399 37.169 17.3622L39.055 18.0278ZM38.9061 18.1717C38.8724 18.1924 38.8469 18.1999 38.8389 18.2018C38.832 18.2035 38.8427 18.2 38.877 18.2V16.2C38.5481 16.2 38.1873 16.2656 37.8579 16.4683L38.9061 18.1717ZM38.877 18.2H42.912V16.2H38.877V18.2ZM42.912 18.2C42.9663 18.2 42.9113 18.2114 42.8223 18.152L43.9317 16.488C43.6027 16.2686 43.2378 16.2 42.912 16.2V18.2ZM42.8529 18.1717C42.8098 18.1451 42.7746 18.1118 42.7496 18.0788C42.7258 18.0475 42.7185 18.0264 42.719 18.0278L44.605 17.3622C44.4832 17.0172 44.2599 16.6891 43.9011 16.4683L42.8529 18.1717ZM42.7282 18.0529L44.0332 21.4579L45.9008 20.7421L44.5958 17.3371L42.7282 18.0529ZM44.0337 21.459C44.2228 21.9508 44.3513 22.3592 44.4276 22.6899L46.3764 22.2401C46.2727 21.7908 46.1112 21.2892 45.9004 20.741L44.0337 21.459ZM44.4333 22.7134C44.5191 23.048 44.552 23.3067 44.552 23.5H46.552C46.552 23.0933 46.4849 22.662 46.3707 22.2166L44.4333 22.7134ZM44.552 23.5V27.46H46.552V23.5H44.552ZM44.552 27.46C44.552 27.5142 44.5373 27.3455 44.7099 27.1729L46.1241 28.5871C46.4767 28.2345 46.552 27.7858 46.552 27.46H44.552ZM44.7099 27.1729C44.8132 27.0696 44.9179 27.0271 44.9717 27.0112C45.0222 26.9962 45.042 27 45.012 27V29C45.2974 29 45.7635 28.9478 46.1241 28.5871L44.7099 27.1729ZM45.012 27H42.747V29H45.012V27ZM42.747 27C42.7104 27 42.713 26.996 42.7422 27.0038C42.7732 27.012 42.8431 27.0363 42.9217 27.0991L41.6723 28.6609C42.025 28.943 42.4402 29 42.747 29V27ZM43.0041 27.1729C43.1767 27.3455 43.162 27.5142 43.162 27.46H41.162C41.162 27.7858 41.2373 28.2345 41.5899 28.5871L43.0041 27.1729ZM43.162 27.46V25.36H41.162V27.46H43.162ZM42.162 24.36H39.507V26.36H42.162V24.36ZM38.507 25.36V27.46H40.507V25.36H38.507ZM49.894 19.9V18.9H48.894V19.9H49.894ZM49.894 21.82H48.894V22.82H49.894V21.82ZM51.544 21.625L52.3662 22.1942L52.376 22.1801L52.3852 22.1658L51.544 21.625ZM51.544 20.11L50.7029 20.6508L50.7121 20.6651L50.7219 20.6792L51.544 20.11ZM46.624 27.88L45.8766 28.5444L45.9157 28.5883L45.9597 28.6274L46.624 27.88ZM46.624 17.335L45.9169 16.6279L45.9169 16.6279L46.624 17.335ZM54.349 17.905L53.6034 18.5713L53.6109 18.5797L53.6185 18.5879L54.349 17.905ZM54.799 21.475L53.8815 21.0774L53.8782 21.085L53.875 21.0926L54.799 21.475ZM54.154 22.105L53.7673 21.1828L50.2131 22.6733L54.0436 23.0989L54.154 22.105ZM55.459 22.765L54.704 23.4207L54.7089 23.4263L54.7138 23.4318L55.459 22.765ZM55.834 27.88L56.5412 28.5871L56.5412 28.5871L55.834 27.88ZM52.684 27.88L51.9366 28.5444L51.9757 28.5883L52.0197 28.6274L52.684 27.88ZM52.429 24.685L51.6203 25.2732L51.6509 25.3153L51.6857 25.354L52.429 24.685ZM49.894 24.52V23.52H48.894V24.52H49.894ZM49.759 27.88L49.0519 27.1729L49.0519 27.1729L49.759 27.88ZM48.894 19.9V21.82H50.894V19.9H48.894ZM49.894 22.82H51.019V20.82H49.894V22.82ZM51.019 22.82C51.3934 22.82 51.9941 22.7317 52.3662 22.1942L50.7219 21.0558C50.8133 20.9237 50.9282 20.8594 50.9971 20.8338C51.0554 20.8122 51.0734 20.82 51.019 20.82V22.82ZM52.3852 22.1658C52.5982 21.8345 52.679 21.4677 52.679 21.115H50.679C50.679 21.1402 50.6762 21.1456 50.6786 21.1366C50.6798 21.1321 50.6821 21.1246 50.6863 21.1151C50.6904 21.1055 50.6959 21.095 50.7029 21.0842L52.3852 22.1658ZM52.679 21.115V20.605H50.679V21.115H52.679ZM52.679 20.605C52.679 20.2556 52.5994 19.8775 52.3662 19.5408L50.7219 20.6792C50.6972 20.6437 50.6854 20.6123 50.6805 20.5944C50.6761 20.5781 50.679 20.5793 50.679 20.605H52.679ZM52.3852 19.5692C52.0242 19.0076 51.4189 18.9 51.019 18.9V20.9C51.0668 20.9 51.0401 20.9075 50.9739 20.881C50.8949 20.8494 50.7849 20.7784 50.7029 20.6508L52.3852 19.5692ZM51.019 18.9H49.894V20.9H51.019V18.9ZM49.354 27H47.044V29H49.354V27ZM47.044 27C47.0154 27 47.0295 26.9966 47.0713 27.0085C47.1158 27.0212 47.2002 27.0542 47.2884 27.1326L45.9597 28.6274C46.3131 28.9416 46.7438 29 47.044 29V27ZM47.3715 27.2156C47.4498 27.3038 47.4828 27.3882 47.4956 27.4328C47.5075 27.4745 47.504 27.4887 47.504 27.46H45.504C45.504 27.7602 45.5624 28.1909 45.8766 28.5444L47.3715 27.2156ZM47.504 27.46V17.74H45.504V27.46H47.504ZM47.504 17.74C47.504 17.71 47.5078 17.7298 47.4928 17.7803C47.4769 17.8342 47.4344 17.9388 47.3312 18.0421L45.9169 16.6279C45.5563 16.9885 45.504 17.4546 45.504 17.74H47.504ZM47.3312 18.0421C47.1586 18.2147 46.9899 18.2 47.044 18.2V16.2C46.7182 16.2 46.2695 16.2753 45.9169 16.6279L47.3312 18.0421ZM47.044 18.2H52.039V16.2H47.044V18.2ZM52.039 18.2C53.0811 18.2 53.4772 18.4301 53.6034 18.5713L55.0947 17.2387C54.3809 16.4399 53.237 16.2 52.039 16.2V18.2ZM53.6185 18.5879C53.8455 18.8307 53.994 19.1712 53.994 19.705H55.994C55.994 18.7588 55.7126 17.8993 55.0796 17.2221L53.6185 18.5879ZM53.994 19.705V20.395H55.994V19.705H53.994ZM53.994 20.395C53.994 20.7156 53.944 20.9331 53.8815 21.0774L55.7166 21.8726C55.9141 21.4169 55.994 20.9144 55.994 20.395H53.994ZM53.875 21.0926C53.8636 21.1204 53.8531 21.1468 53.7673 21.1828L54.5408 23.0272C55.075 22.8032 55.4945 22.4096 55.7231 21.8574L53.875 21.0926ZM54.0436 23.0989C54.3556 23.1335 54.5525 23.2462 54.704 23.4207L56.2141 22.1093C55.7056 21.5238 55.0325 21.1965 54.2645 21.1111L54.0436 23.0989ZM54.7138 23.4318C54.8535 23.5879 54.969 23.8356 54.969 24.28H56.969C56.969 23.4644 56.7446 22.7021 56.2043 22.0982L54.7138 23.4318ZM54.969 24.28V27.46H56.969V24.28H54.969ZM54.969 27.46C54.969 27.5142 54.9543 27.3455 55.1269 27.1729L56.5412 28.5871C56.8938 28.2345 56.969 27.7858 56.969 27.46H54.969ZM55.1269 27.1729C55.2302 27.0696 55.3349 27.0271 55.3887 27.0112C55.4392 26.9962 55.4591 27 55.429 27V29C55.7145 29 56.1805 28.9478 56.5412 28.5871L55.1269 27.1729ZM55.429 27H53.104V29H55.429V27ZM53.104 27C53.0754 27 53.0895 26.9966 53.1313 27.0085C53.1758 27.0212 53.2602 27.0542 53.3484 27.1326L52.0197 28.6274C52.3731 28.9416 52.8038 29 53.104 29V27ZM53.4315 27.2156C53.5098 27.3038 53.5428 27.3882 53.5556 27.4328C53.5675 27.4745 53.564 27.4887 53.564 27.46H51.564C51.564 27.7602 51.6225 28.1909 51.9366 28.5444L53.4315 27.2156ZM53.564 27.46V25.165H51.564V27.46H53.564ZM53.564 25.165C53.564 24.8453 53.505 24.3857 53.1723 24.016L51.6857 25.354C51.6067 25.2661 51.5771 25.1845 51.5676 25.1507C51.5588 25.1195 51.564 25.1189 51.564 25.165H53.564ZM53.2378 24.0968C52.8845 23.6111 52.3448 23.52 51.994 23.52V25.52C52.018 25.52 51.9787 25.524 51.9056 25.4962C51.8225 25.4647 51.7102 25.3967 51.6203 25.2732L53.2378 24.0968ZM51.994 23.52H49.894V25.52H51.994V23.52ZM48.894 24.52V27.46H50.894V24.52H48.894ZM48.894 27.46C48.894 27.5142 48.8793 27.3455 49.0519 27.1729L50.4662 28.5871C50.8188 28.2345 50.894 27.7858 50.894 27.46H48.894ZM49.0519 27.1729C49.1552 27.0696 49.2599 27.0271 49.3137 27.0112C49.3642 26.9962 49.3841 27 49.354 27V29C49.6395 29 50.1055 28.9478 50.4662 28.5871L49.0519 27.1729ZM56.8715 27.88L56.1241 28.5444L56.1632 28.5883L56.2071 28.6274L56.8715 27.88ZM56.8715 17.335L56.1644 16.6279L56.1644 16.6279L56.8715 17.335ZM64.6565 17.335L63.9091 17.9994L63.9482 18.0433L63.9921 18.0824L64.6565 17.335ZM60.1115 20.035V19.035H59.1115V20.035H60.1115ZM60.1115 21.19H59.1115V22.19H60.1115V21.19ZM63.4415 21.325L62.6941 21.9894L62.7332 22.0333L62.7771 22.0724L63.4415 21.325ZM63.4415 23.755L62.7344 23.0479L63.4415 23.755ZM60.1115 23.875V22.875H59.1115V23.875H60.1115ZM60.1115 25.165H59.1115V26.165H60.1115V25.165ZM64.6565 25.3L63.9091 25.9644L63.9482 26.0083L63.9921 26.0474L64.6565 25.3ZM64.6565 27.88L65.3636 28.5871L65.3636 28.5871L64.6565 27.88ZM64.2515 27H57.2915V29H64.2515V27ZM57.2915 27C57.2628 27 57.277 26.9966 57.3187 27.0085C57.3633 27.0212 57.4477 27.0542 57.5359 27.1326L56.2071 28.6274C56.5606 28.9416 56.9913 29 57.2915 29V27ZM57.6189 27.2156C57.6973 27.3038 57.7303 27.3882 57.743 27.4328C57.755 27.4745 57.7515 27.4887 57.7515 27.46H55.7515C55.7515 27.7602 55.8099 28.1909 56.1241 28.5444L57.6189 27.2156ZM57.7515 27.46V17.74H55.7515V27.46H57.7515ZM57.7515 17.74C57.7515 17.71 57.7553 17.7298 57.7403 17.7803C57.7244 17.8342 57.6819 17.9388 57.5786 18.0421L56.1644 16.6279C55.8037 16.9885 55.7515 17.4546 55.7515 17.74H57.7515ZM57.5786 18.0421C57.406 18.2147 57.2373 18.2 57.2915 18.2V16.2C56.9657 16.2 56.517 16.2753 56.1644 16.6279L57.5786 18.0421ZM57.2915 18.2H64.2515V16.2H57.2915V18.2ZM64.2515 18.2C64.2727 18.2 64.2412 18.2032 64.179 18.1824C64.1107 18.1597 64.005 18.1073 63.9091 17.9994L65.4039 16.6706C65.0478 16.27 64.5644 16.2 64.2515 16.2V18.2ZM63.9921 18.0824C63.8842 17.9865 63.8318 17.8808 63.8091 17.8125C63.7884 17.7503 63.7915 17.7188 63.7915 17.74H65.7915C65.7915 17.4271 65.7215 16.9437 65.3209 16.5876L63.9921 18.0824ZM63.7915 17.74V19.495H65.7915V17.74H63.7915ZM63.7915 19.495C63.7915 19.5492 63.7768 19.3805 63.9494 19.2079L65.3636 20.6221C65.7162 20.2695 65.7915 19.8208 65.7915 19.495H63.7915ZM63.9494 19.2079C64.0527 19.1046 64.1574 19.0621 64.2112 19.0462C64.2617 19.0312 64.2815 19.035 64.2515 19.035V21.035C64.5369 21.035 65.003 20.9828 65.3636 20.6221L63.9494 19.2079ZM64.2515 19.035H60.1115V21.035H64.2515V19.035ZM59.1115 20.035V21.19H61.1115V20.035H59.1115ZM60.1115 22.19H63.0365V20.19H60.1115V22.19ZM63.0365 22.19C63.0577 22.19 63.0262 22.1932 62.964 22.1724C62.8957 22.1497 62.79 22.0973 62.6941 21.9894L64.1889 20.6606C63.8328 20.26 63.3494 20.19 63.0365 20.19V22.19ZM62.7771 22.0724C62.6692 21.9765 62.6168 21.8708 62.5941 21.8025C62.5734 21.7403 62.5765 21.7088 62.5765 21.73H64.5765C64.5765 21.4171 64.5065 20.9337 64.1059 20.5776L62.7771 22.0724ZM62.5765 21.73V23.335H64.5765V21.73H62.5765ZM62.5765 23.335C62.5765 23.3892 62.5618 23.2205 62.7344 23.0479L64.1486 24.4621C64.5012 24.1095 64.5765 23.6608 64.5765 23.335H62.5765ZM62.7344 23.0479C62.8377 22.9446 62.9424 22.9021 62.9962 22.8862C63.0467 22.8712 63.0665 22.875 63.0365 22.875V24.875C63.3219 24.875 63.788 24.8228 64.1486 24.4621L62.7344 23.0479ZM63.0365 22.875H60.1115V24.875H63.0365V22.875ZM59.1115 23.875V25.165H61.1115V23.875H59.1115ZM60.1115 26.165H64.2515V24.165H60.1115V26.165ZM64.2515 26.165C64.2727 26.165 64.2412 26.1682 64.179 26.1474C64.1107 26.1247 64.005 26.0723 63.9091 25.9644L65.4039 24.6356C65.0478 24.235 64.5644 24.165 64.2515 24.165V26.165ZM63.9921 26.0474C63.8842 25.9515 63.8318 25.8458 63.8091 25.7775C63.7884 25.7153 63.7915 25.6838 63.7915 25.705H65.7915C65.7915 25.3921 65.7215 24.9087 65.3209 24.5526L63.9921 26.0474ZM63.7915 25.705V27.46H65.7915V25.705H63.7915ZM63.7915 27.46C63.7915 27.5142 63.7768 27.3455 63.9494 27.1729L65.3636 28.5871C65.7162 28.2345 65.7915 27.7858 65.7915 27.46H63.7915ZM63.9494 27.1729C64.0527 27.0696 64.1574 27.0271 64.2112 27.0112C64.2617 26.9962 64.2815 27 64.2515 27V29C64.5369 29 65.003 28.9478 65.3636 28.5871L63.9494 27.1729ZM69.581 20.35L68.6671 19.9439L68.6431 19.998L68.6256 20.0546L69.581 20.35ZM68.876 22.63L67.9206 22.3346L67.52 23.63H68.876V22.63ZM71.231 22.63V23.63H72.5869L72.1863 22.3346L71.231 22.63ZM70.526 20.35L71.4813 20.0546L71.4638 19.998L71.4398 19.9439L70.526 20.35ZM70.391 20.155L69.6838 20.8621L69.723 20.9013L69.7663 20.9359L70.391 20.155ZM69.701 20.155L69.0763 19.3741L69.033 19.4087L68.9939 19.4479L69.701 20.155ZM68.591 27.88L67.8838 27.1729L67.8838 27.1729L68.591 27.88ZM65.561 27.88L64.8135 28.5444L64.8526 28.5883L64.8966 28.6274L65.561 27.88ZM65.576 22.465L64.6073 22.2166L64.6043 22.2283L64.6016 22.2401L65.576 22.465ZM66.026 21.1L66.9593 21.459L66.9597 21.4579L66.026 21.1ZM67.331 17.695L68.2647 18.0529L68.2695 18.0404L68.2739 18.0278L67.331 17.695ZM67.601 17.32L67.0769 16.4683L67.0614 16.4779L67.0463 16.4879L67.601 17.32ZM72.596 17.32L72.0413 18.152L72.0564 18.1621L72.0719 18.1717L72.596 17.32ZM72.881 17.695L71.938 18.0278L71.9424 18.0404L71.9472 18.0529L72.881 17.695ZM74.186 21.1L73.2522 21.4579L73.2526 21.459L74.186 21.1ZM74.621 22.465L73.6466 22.6899L73.6493 22.7017L73.6523 22.7134L74.621 22.465ZM74.636 27.88L75.3431 28.5871L75.3431 28.5871L74.636 27.88ZM71.516 27.88L70.8089 28.5871L70.848 28.6263L70.8913 28.6609L71.516 27.88ZM71.381 25.36H72.381V24.36H71.381V25.36ZM68.726 25.36V24.36H67.726V25.36H68.726ZM68.6256 20.0546L67.9206 22.3346L69.8313 22.9254L70.5363 20.6454L68.6256 20.0546ZM68.876 23.63H71.231V21.63H68.876V23.63ZM72.1863 22.3346L71.4813 20.0546L69.5706 20.6454L70.2756 22.9254L72.1863 22.3346ZM71.4398 19.9439C71.3666 19.7791 71.24 19.5536 71.0156 19.3741L69.7663 20.9359C69.7002 20.883 69.6603 20.8323 69.64 20.803C69.6294 20.7876 69.6223 20.7755 69.6182 20.768C69.6141 20.7605 69.6122 20.7562 69.6121 20.7561L71.4398 19.9439ZM71.0981 19.4479C70.8583 19.2081 70.5483 19.095 70.241 19.095V21.095C70.1582 21.095 70.0579 21.0808 69.9521 21.0385C69.845 20.9957 69.7547 20.9329 69.6838 20.8621L71.0981 19.4479ZM70.241 19.095H69.866V21.095H70.241V19.095ZM69.866 19.095C69.563 19.095 69.2908 19.2025 69.0763 19.3741L70.3257 20.9359C70.2111 21.0275 70.0489 21.095 69.866 21.095V19.095ZM68.9939 19.4479C68.8255 19.6163 68.7257 19.8122 68.6671 19.9439L70.4948 20.7561C70.5016 20.7408 70.5015 20.7434 70.4926 20.7578C70.4849 20.7703 70.4586 20.8116 70.4081 20.8621L68.9939 19.4479ZM67.726 27.46C67.726 27.5142 67.7112 27.3455 67.8838 27.1729L69.2981 28.5871C69.6507 28.2345 69.726 27.7858 69.726 27.46H67.726ZM67.8838 27.1729C67.9871 27.0696 68.0918 27.0271 68.1456 27.0112C68.1961 26.9962 68.216 27 68.186 27V29C68.4714 29 68.9374 28.9478 69.2981 28.5871L67.8838 27.1729ZM68.186 27H65.981V29H68.186V27ZM65.981 27C65.9523 27 65.9664 26.9966 66.0082 27.0085C66.0528 27.0212 66.1371 27.0542 66.2253 27.1326L64.8966 28.6274C65.2501 28.9416 65.6807 29 65.981 29V27ZM66.3084 27.2156C66.3868 27.3038 66.4197 27.3882 66.4325 27.4328C66.4444 27.4745 66.441 27.4887 66.441 27.46H64.441C64.441 27.7602 64.4994 28.1909 64.8135 28.5444L66.3084 27.2156ZM66.441 27.46V23.5H64.441V27.46H66.441ZM66.441 23.5C66.441 23.296 66.4721 23.029 66.5503 22.6899L64.6016 22.2401C64.4998 22.681 64.441 23.104 64.441 23.5H66.441ZM66.5446 22.7134C66.6321 22.372 66.7684 21.9554 66.9593 21.459L65.0926 20.741C64.8836 21.2846 64.7198 21.778 64.6073 22.2166L66.5446 22.7134ZM66.9597 21.4579L68.2647 18.0529L66.3972 17.3371L65.0922 20.7421L66.9597 21.4579ZM68.2739 18.0278C68.2775 18.0176 68.2741 18.0316 68.255 18.0581C68.2347 18.0862 68.202 18.1211 68.1557 18.1521L67.0463 16.4879C66.7053 16.7152 66.5017 17.0399 66.388 17.3622L68.2739 18.0278ZM68.1251 18.1717C68.0914 18.1924 68.0659 18.1999 68.0578 18.2018C68.0509 18.2035 68.0617 18.2 68.096 18.2V16.2C67.7671 16.2 67.4063 16.2656 67.0769 16.4683L68.1251 18.1717ZM68.096 18.2H72.131V16.2H68.096V18.2ZM72.131 18.2C72.1852 18.2 72.1303 18.2114 72.0413 18.152L73.1507 16.488C72.8216 16.2686 72.4567 16.2 72.131 16.2V18.2ZM72.0719 18.1717C72.0287 18.1451 71.9936 18.1118 71.9685 18.0788C71.9448 18.0475 71.9375 18.0264 71.938 18.0278L73.8239 17.3622C73.7022 17.0172 73.4788 16.6891 73.1201 16.4683L72.0719 18.1717ZM71.9472 18.0529L73.2522 21.4579L75.1197 20.7421L73.8147 17.3371L71.9472 18.0529ZM73.2526 21.459C73.4418 21.9508 73.5703 22.3592 73.6466 22.6899L75.5953 22.2401C75.4916 21.7908 75.3301 21.2892 75.1193 20.741L73.2526 21.459ZM73.6523 22.7134C73.7381 23.048 73.771 23.3067 73.771 23.5H75.771C75.771 23.0933 75.7038 22.662 75.5896 22.2166L73.6523 22.7134ZM73.771 23.5V27.46H75.771V23.5H73.771ZM73.771 27.46C73.771 27.5142 73.7563 27.3455 73.9289 27.1729L75.3431 28.5871C75.6957 28.2345 75.771 27.7858 75.771 27.46H73.771ZM73.9289 27.1729C74.0321 27.0696 74.1368 27.0271 74.1906 27.0112C74.2411 26.9962 74.261 27 74.231 27V29C74.5164 29 74.9824 28.9478 75.3431 28.5871L73.9289 27.1729ZM74.231 27H71.966V29H74.231V27ZM71.966 27C71.9293 27 71.932 26.996 71.9611 27.0038C71.9922 27.012 72.0621 27.0363 72.1407 27.0991L70.8913 28.6609C71.2439 28.943 71.6591 29 71.966 29V27ZM72.2231 27.1729C72.3957 27.3455 72.381 27.5142 72.381 27.46H70.381C70.381 27.7858 70.4562 28.2345 70.8089 28.5871L72.2231 27.1729ZM72.381 27.46V25.36H70.381V27.46H72.381ZM71.381 24.36H68.726V26.36H71.381V24.36ZM67.726 25.36V27.46H69.726V25.36H67.726Z" fill="black" mask="url(#path-8-outside-1_2530_992)"/>
</g>
<defs>
<filter id="filter0_d_2530_992" x="36.2219" y="17.2002" width="38.5491" height="12.7998" filterUnits="userSpaceOnUse" color-interpolation-filters="sRGB">
<feFlood flood-opacity="0" result="BackgroundImageFix"/>
<feColorMatrix in="SourceAlpha" type="matrix" values="0 0 0 0 0 0 0 0 0 0 0 0 0 0 0 0 0 0 127 0" result="hardAlpha"/>
<feOffset dy="2"/>
<feComposite in2="hardAlpha" operator="out"/>
<feColorMatrix type="matrix" values="0 0 0 0 0 0 0 0 0 0 0 0 0 0 0 0 0 0 1 0"/>
<feBlend mode="normal" in2="BackgroundImageFix" result="effect1_dropShadow_2530_992"/>
<feBlend mode="normal" in="SourceGraphic" in2="effect1_dropShadow_2530_992" result="shape"/>
</filter>
<linearGradient id="paint0_linear_2530_992" x1="54.5" y1="3.84619" x2="54.5" y2="45.8462" gradientUnits="userSpaceOnUse">
<stop stop-color="#9156FF"/>
<stop offset="1" stop-color="#4500B7"/>
</linearGradient>
<linearGradient id="paint1_linear_2530_992" x1="41.375" y1="42" x2="41.375" y2="2" gradientUnits="userSpaceOnUse">
<stop stop-color="#F6E6F6"/>
<stop offset="1" stop-color="#AFADFF"/>
</linearGradient>
<linearGradient id="paint2_linear_2530_992" x1="4.43056" y1="5" x2="15.0704" y2="11.8054" gradientUnits="userSpaceOnUse">
<stop stop-color="white"/>
<stop offset="1" stop-color="white" stop-opacity="0"/>
</linearGradient>
<linearGradient id="paint3_linear_2530_992" x1="54.5" y1="5" x2="54.5" y2="39" gradientUnits="userSpaceOnUse">
<stop stop-color="#9747FF"/>
<stop offset="1" stop-color="#6F00FF"/>
</linearGradient>
</defs>
</svg>
