<svg width="56" height="39" viewBox="0 0 56 39" fill="none" xmlns="http://www.w3.org/2000/svg">
<rect y="4" width="56" height="35" rx="7" fill="url(#paint0_linear_2529_1125)"/>
<rect width="56" height="35" rx="7" fill="url(#paint1_linear_2529_1125)"/>
<rect width="56" height="35" rx="7" fill="url(#paint2_linear_2529_1125)"/>
<rect x="2" y="2" width="52" height="31" rx="6" fill="url(#paint3_linear_2529_1125)"/>
<ellipse cx="52.0351" cy="30.9491" rx="1.70013" ry="1.13342" transform="rotate(-38.8351 52.0351 30.9491)" fill="#FFE638"/>
<ellipse cx="4.03507" cy="3.94909" rx="1.70013" ry="1.13342" transform="rotate(-38.8351 4.03507 3.94909)" fill="#FFFEE2"/>
<g filter="url(#filter0_d_2529_1125)">
<mask id="path-7-outside-1_2529_1125" maskUnits="userSpaceOnUse" x="5" y="11" width="47" height="15" fill="black">
<rect fill="white" x="5" y="11" width="47" height="15"/>
<path d="M12.8814 15.288C11.9574 15.288 11.2494 15.57 10.7574 16.134C10.2654 16.698 10.0194 17.496 10.0194 18.528C10.0194 19.572 10.2894 20.376 10.8294 20.94C11.3814 21.504 12.1194 21.786 13.0434 21.786C13.5354 21.786 13.9494 21.72 14.2854 21.588C14.6334 21.456 14.9634 21.306 15.2754 21.138C15.4794 21.306 15.6354 21.51 15.7434 21.75C15.8634 21.978 15.9234 22.248 15.9234 22.56C15.9234 23.052 15.6474 23.472 15.0954 23.82C14.5554 24.156 13.7274 24.324 12.6114 24.324C11.8074 24.324 11.0514 24.21 10.3434 23.982C9.63541 23.754 9.01741 23.406 8.48941 22.938C7.96141 22.458 7.54141 21.858 7.22941 21.138C6.92941 20.406 6.77941 19.536 6.77941 18.528C6.77941 17.592 6.92341 16.77 7.21141 16.062C7.51141 15.342 7.91341 14.736 8.41741 14.244C8.93341 13.752 9.53341 13.38 10.2174 13.128C10.9014 12.876 11.6334 12.75 12.4134 12.75C13.5174 12.75 14.3694 12.93 14.9694 13.29C15.5814 13.65 15.8874 14.112 15.8874 14.676C15.8874 14.988 15.8094 15.258 15.6534 15.486C15.4974 15.714 15.3174 15.894 15.1134 16.026C14.8014 15.822 14.4654 15.648 14.1054 15.504C13.7574 15.36 13.3494 15.288 12.8814 15.288ZM20.4826 23.982C20.3506 24.006 20.1526 24.036 19.8886 24.072C19.6366 24.12 19.3786 24.144 19.1146 24.144C18.8506 24.144 18.6106 24.126 18.3946 24.09C18.1906 24.054 18.0166 23.982 17.8726 23.874C17.7286 23.766 17.6146 23.622 17.5306 23.442C17.4586 23.25 17.4226 23.004 17.4226 22.704V12.264C17.5546 12.24 17.7466 12.21 17.9986 12.174C18.2626 12.126 18.5266 12.102 18.7906 12.102C19.0546 12.102 19.2886 12.12 19.4926 12.156C19.7086 12.192 19.8886 12.264 20.0326 12.372C20.1766 12.48 20.2846 12.63 20.3566 12.822C20.4406 13.002 20.4826 13.242 20.4826 13.542V23.982ZM31.4675 19.626C31.4675 20.37 31.3535 21.036 31.1255 21.624C30.8975 22.2 30.5735 22.686 30.1535 23.082C29.7455 23.478 29.2535 23.778 28.6775 23.982C28.1015 24.186 27.4595 24.288 26.7515 24.288C26.0435 24.288 25.4015 24.18 24.8255 23.964C24.2495 23.748 23.7515 23.442 23.3315 23.046C22.9235 22.638 22.6055 22.146 22.3775 21.57C22.1495 20.994 22.0355 20.346 22.0355 19.626C22.0355 18.918 22.1495 18.276 22.3775 17.7C22.6055 17.124 22.9235 16.638 23.3315 16.242C23.7515 15.834 24.2495 15.522 24.8255 15.306C25.4015 15.09 26.0435 14.982 26.7515 14.982C27.4595 14.982 28.1015 15.096 28.6775 15.324C29.2535 15.54 29.7455 15.852 30.1535 16.26C30.5735 16.656 30.8975 17.142 31.1255 17.718C31.3535 18.294 31.4675 18.93 31.4675 19.626ZM25.1675 19.626C25.1675 20.358 25.3055 20.922 25.5815 21.318C25.8695 21.702 26.2655 21.894 26.7695 21.894C27.2735 21.894 27.6575 21.696 27.9215 21.3C28.1975 20.904 28.3355 20.346 28.3355 19.626C28.3355 18.906 28.1975 18.354 27.9215 17.97C27.6455 17.574 27.2555 17.376 26.7515 17.376C26.2475 17.376 25.8575 17.574 25.5815 17.97C25.3055 18.354 25.1675 18.906 25.1675 19.626ZM40.3404 21.39C40.3404 22.302 39.9984 23.016 39.3144 23.532C38.6304 24.048 37.6224 24.306 36.2904 24.306C35.7864 24.306 35.3184 24.27 34.8864 24.198C34.4544 24.126 34.0824 24.018 33.7704 23.874C33.4704 23.718 33.2304 23.526 33.0504 23.298C32.8824 23.07 32.7984 22.8 32.7984 22.488C32.7984 22.2 32.8584 21.96 32.9784 21.768C33.0984 21.564 33.2424 21.396 33.4104 21.264C33.7584 21.456 34.1544 21.63 34.5984 21.786C35.0544 21.93 35.5764 22.002 36.1644 22.002C36.5364 22.002 36.8184 21.948 37.0104 21.84C37.2144 21.732 37.3164 21.588 37.3164 21.408C37.3164 21.24 37.2444 21.108 37.1004 21.012C36.9564 20.916 36.7164 20.838 36.3804 20.778L35.8404 20.67C34.7964 20.466 34.0164 20.148 33.5004 19.716C32.9964 19.272 32.7444 18.642 32.7444 17.826C32.7444 17.382 32.8404 16.98 33.0324 16.62C33.2244 16.26 33.4944 15.96 33.8424 15.72C34.1904 15.48 34.6044 15.294 35.0844 15.162C35.5764 15.03 36.1164 14.964 36.7044 14.964C37.1484 14.964 37.5624 15 37.9464 15.072C38.3424 15.132 38.6844 15.228 38.9724 15.36C39.2604 15.492 39.4884 15.666 39.6564 15.882C39.8244 16.086 39.9084 16.332 39.9084 16.62C39.9084 16.896 39.8544 17.136 39.7464 17.34C39.6504 17.532 39.5244 17.694 39.3684 17.826C39.2724 17.766 39.1284 17.706 38.9364 17.646C38.7444 17.574 38.5344 17.514 38.3064 17.466C38.0784 17.406 37.8444 17.358 37.6044 17.322C37.3764 17.286 37.1664 17.268 36.9744 17.268C36.5784 17.268 36.2724 17.316 36.0564 17.412C35.8404 17.496 35.7324 17.634 35.7324 17.826C35.7324 17.958 35.7924 18.066 35.9124 18.15C36.0324 18.234 36.2604 18.312 36.5964 18.384L37.1544 18.51C38.3064 18.774 39.1224 19.14 39.6024 19.608C40.0944 20.064 40.3404 20.658 40.3404 21.39ZM46.5337 24.288C45.8257 24.288 45.1657 24.192 44.5537 24C43.9537 23.796 43.4257 23.496 42.9697 23.1C42.5257 22.704 42.1717 22.206 41.9077 21.606C41.6557 21.006 41.5297 20.304 41.5297 19.5C41.5297 18.708 41.6557 18.03 41.9077 17.466C42.1717 16.89 42.5137 16.422 42.9337 16.062C43.3537 15.69 43.8337 15.42 44.3737 15.252C44.9137 15.072 45.4657 14.982 46.0297 14.982C46.6657 14.982 47.2417 15.078 47.7577 15.27C48.2857 15.462 48.7357 15.726 49.1077 16.062C49.4917 16.398 49.7857 16.8 49.9897 17.268C50.2057 17.736 50.3137 18.246 50.3137 18.798C50.3137 19.206 50.1997 19.518 49.9717 19.734C49.7437 19.95 49.4257 20.088 49.0177 20.148L44.5717 20.814C44.7037 21.21 44.9737 21.51 45.3817 21.714C45.7897 21.906 46.2577 22.002 46.7857 22.002C47.2777 22.002 47.7397 21.942 48.1717 21.822C48.6157 21.69 48.9757 21.54 49.2517 21.372C49.4437 21.492 49.6057 21.66 49.7377 21.876C49.8697 22.092 49.9357 22.32 49.9357 22.56C49.9357 23.1 49.6837 23.502 49.1797 23.766C48.7957 23.97 48.3637 24.108 47.8837 24.18C47.4037 24.252 46.9537 24.288 46.5337 24.288ZM46.0297 17.214C45.7417 17.214 45.4897 17.262 45.2737 17.358C45.0697 17.454 44.9017 17.58 44.7697 17.736C44.6377 17.88 44.5357 18.048 44.4637 18.24C44.4037 18.42 44.3677 18.606 44.3557 18.798L47.4337 18.294C47.3977 18.054 47.2657 17.814 47.0377 17.574C46.8097 17.334 46.4737 17.214 46.0297 17.214Z"/>
</mask>
<path d="M12.8814 15.288C11.9574 15.288 11.2494 15.57 10.7574 16.134C10.2654 16.698 10.0194 17.496 10.0194 18.528C10.0194 19.572 10.2894 20.376 10.8294 20.94C11.3814 21.504 12.1194 21.786 13.0434 21.786C13.5354 21.786 13.9494 21.72 14.2854 21.588C14.6334 21.456 14.9634 21.306 15.2754 21.138C15.4794 21.306 15.6354 21.51 15.7434 21.75C15.8634 21.978 15.9234 22.248 15.9234 22.56C15.9234 23.052 15.6474 23.472 15.0954 23.82C14.5554 24.156 13.7274 24.324 12.6114 24.324C11.8074 24.324 11.0514 24.21 10.3434 23.982C9.63541 23.754 9.01741 23.406 8.48941 22.938C7.96141 22.458 7.54141 21.858 7.22941 21.138C6.92941 20.406 6.77941 19.536 6.77941 18.528C6.77941 17.592 6.92341 16.77 7.21141 16.062C7.51141 15.342 7.91341 14.736 8.41741 14.244C8.93341 13.752 9.53341 13.38 10.2174 13.128C10.9014 12.876 11.6334 12.75 12.4134 12.75C13.5174 12.75 14.3694 12.93 14.9694 13.29C15.5814 13.65 15.8874 14.112 15.8874 14.676C15.8874 14.988 15.8094 15.258 15.6534 15.486C15.4974 15.714 15.3174 15.894 15.1134 16.026C14.8014 15.822 14.4654 15.648 14.1054 15.504C13.7574 15.36 13.3494 15.288 12.8814 15.288ZM20.4826 23.982C20.3506 24.006 20.1526 24.036 19.8886 24.072C19.6366 24.12 19.3786 24.144 19.1146 24.144C18.8506 24.144 18.6106 24.126 18.3946 24.09C18.1906 24.054 18.0166 23.982 17.8726 23.874C17.7286 23.766 17.6146 23.622 17.5306 23.442C17.4586 23.25 17.4226 23.004 17.4226 22.704V12.264C17.5546 12.24 17.7466 12.21 17.9986 12.174C18.2626 12.126 18.5266 12.102 18.7906 12.102C19.0546 12.102 19.2886 12.12 19.4926 12.156C19.7086 12.192 19.8886 12.264 20.0326 12.372C20.1766 12.48 20.2846 12.63 20.3566 12.822C20.4406 13.002 20.4826 13.242 20.4826 13.542V23.982ZM31.4675 19.626C31.4675 20.37 31.3535 21.036 31.1255 21.624C30.8975 22.2 30.5735 22.686 30.1535 23.082C29.7455 23.478 29.2535 23.778 28.6775 23.982C28.1015 24.186 27.4595 24.288 26.7515 24.288C26.0435 24.288 25.4015 24.18 24.8255 23.964C24.2495 23.748 23.7515 23.442 23.3315 23.046C22.9235 22.638 22.6055 22.146 22.3775 21.57C22.1495 20.994 22.0355 20.346 22.0355 19.626C22.0355 18.918 22.1495 18.276 22.3775 17.7C22.6055 17.124 22.9235 16.638 23.3315 16.242C23.7515 15.834 24.2495 15.522 24.8255 15.306C25.4015 15.09 26.0435 14.982 26.7515 14.982C27.4595 14.982 28.1015 15.096 28.6775 15.324C29.2535 15.54 29.7455 15.852 30.1535 16.26C30.5735 16.656 30.8975 17.142 31.1255 17.718C31.3535 18.294 31.4675 18.93 31.4675 19.626ZM25.1675 19.626C25.1675 20.358 25.3055 20.922 25.5815 21.318C25.8695 21.702 26.2655 21.894 26.7695 21.894C27.2735 21.894 27.6575 21.696 27.9215 21.3C28.1975 20.904 28.3355 20.346 28.3355 19.626C28.3355 18.906 28.1975 18.354 27.9215 17.97C27.6455 17.574 27.2555 17.376 26.7515 17.376C26.2475 17.376 25.8575 17.574 25.5815 17.97C25.3055 18.354 25.1675 18.906 25.1675 19.626ZM40.3404 21.39C40.3404 22.302 39.9984 23.016 39.3144 23.532C38.6304 24.048 37.6224 24.306 36.2904 24.306C35.7864 24.306 35.3184 24.27 34.8864 24.198C34.4544 24.126 34.0824 24.018 33.7704 23.874C33.4704 23.718 33.2304 23.526 33.0504 23.298C32.8824 23.07 32.7984 22.8 32.7984 22.488C32.7984 22.2 32.8584 21.96 32.9784 21.768C33.0984 21.564 33.2424 21.396 33.4104 21.264C33.7584 21.456 34.1544 21.63 34.5984 21.786C35.0544 21.93 35.5764 22.002 36.1644 22.002C36.5364 22.002 36.8184 21.948 37.0104 21.84C37.2144 21.732 37.3164 21.588 37.3164 21.408C37.3164 21.24 37.2444 21.108 37.1004 21.012C36.9564 20.916 36.7164 20.838 36.3804 20.778L35.8404 20.67C34.7964 20.466 34.0164 20.148 33.5004 19.716C32.9964 19.272 32.7444 18.642 32.7444 17.826C32.7444 17.382 32.8404 16.98 33.0324 16.62C33.2244 16.26 33.4944 15.96 33.8424 15.72C34.1904 15.48 34.6044 15.294 35.0844 15.162C35.5764 15.03 36.1164 14.964 36.7044 14.964C37.1484 14.964 37.5624 15 37.9464 15.072C38.3424 15.132 38.6844 15.228 38.9724 15.36C39.2604 15.492 39.4884 15.666 39.6564 15.882C39.8244 16.086 39.9084 16.332 39.9084 16.62C39.9084 16.896 39.8544 17.136 39.7464 17.34C39.6504 17.532 39.5244 17.694 39.3684 17.826C39.2724 17.766 39.1284 17.706 38.9364 17.646C38.7444 17.574 38.5344 17.514 38.3064 17.466C38.0784 17.406 37.8444 17.358 37.6044 17.322C37.3764 17.286 37.1664 17.268 36.9744 17.268C36.5784 17.268 36.2724 17.316 36.0564 17.412C35.8404 17.496 35.7324 17.634 35.7324 17.826C35.7324 17.958 35.7924 18.066 35.9124 18.15C36.0324 18.234 36.2604 18.312 36.5964 18.384L37.1544 18.51C38.3064 18.774 39.1224 19.14 39.6024 19.608C40.0944 20.064 40.3404 20.658 40.3404 21.39ZM46.5337 24.288C45.8257 24.288 45.1657 24.192 44.5537 24C43.9537 23.796 43.4257 23.496 42.9697 23.1C42.5257 22.704 42.1717 22.206 41.9077 21.606C41.6557 21.006 41.5297 20.304 41.5297 19.5C41.5297 18.708 41.6557 18.03 41.9077 17.466C42.1717 16.89 42.5137 16.422 42.9337 16.062C43.3537 15.69 43.8337 15.42 44.3737 15.252C44.9137 15.072 45.4657 14.982 46.0297 14.982C46.6657 14.982 47.2417 15.078 47.7577 15.27C48.2857 15.462 48.7357 15.726 49.1077 16.062C49.4917 16.398 49.7857 16.8 49.9897 17.268C50.2057 17.736 50.3137 18.246 50.3137 18.798C50.3137 19.206 50.1997 19.518 49.9717 19.734C49.7437 19.95 49.4257 20.088 49.0177 20.148L44.5717 20.814C44.7037 21.21 44.9737 21.51 45.3817 21.714C45.7897 21.906 46.2577 22.002 46.7857 22.002C47.2777 22.002 47.7397 21.942 48.1717 21.822C48.6157 21.69 48.9757 21.54 49.2517 21.372C49.4437 21.492 49.6057 21.66 49.7377 21.876C49.8697 22.092 49.9357 22.32 49.9357 22.56C49.9357 23.1 49.6837 23.502 49.1797 23.766C48.7957 23.97 48.3637 24.108 47.8837 24.18C47.4037 24.252 46.9537 24.288 46.5337 24.288ZM46.0297 17.214C45.7417 17.214 45.4897 17.262 45.2737 17.358C45.0697 17.454 44.9017 17.58 44.7697 17.736C44.6377 17.88 44.5357 18.048 44.4637 18.24C44.4037 18.42 44.3677 18.606 44.3557 18.798L47.4337 18.294C47.3977 18.054 47.2657 17.814 47.0377 17.574C46.8097 17.334 46.4737 17.214 46.0297 17.214Z" fill="white"/>
<path d="M10.7574 16.134L11.511 16.7914L11.511 16.7914L10.7574 16.134ZM10.8294 20.94L10.1071 21.6316L10.1147 21.6395L10.8294 20.94ZM14.2854 21.588L13.9307 20.6529L13.9198 20.6572L14.2854 21.588ZM15.2754 21.138L15.9111 20.3661L15.3927 19.9391L14.8013 20.2575L15.2754 21.138ZM15.7434 21.75L14.8315 22.1604L14.8441 22.1885L14.8585 22.2157L15.7434 21.75ZM15.0954 23.82L15.6237 24.6691L15.6287 24.6659L15.0954 23.82ZM10.3434 23.982L10.0369 24.9339L10.3434 23.982ZM8.48941 22.938L7.81669 23.678L7.82611 23.6863L8.48941 22.938ZM7.22941 21.138L6.30411 21.5172L6.30789 21.5265L6.31186 21.5356L7.22941 21.138ZM7.21141 16.062L6.2883 15.6774L6.28512 15.6852L7.21141 16.062ZM8.41741 14.244L7.72729 13.5202L7.71888 13.5284L8.41741 14.244ZM10.2174 13.128L9.87171 12.1897L9.87171 12.1897L10.2174 13.128ZM14.9694 13.29L14.4549 14.1475L14.4624 14.1519L14.9694 13.29ZM15.6534 15.486L14.8281 14.9213L14.8281 14.9213L15.6534 15.486ZM15.1134 16.026L14.5662 16.863L15.1106 17.2189L15.6567 16.8656L15.1134 16.026ZM14.1054 15.504L13.723 16.4281L13.734 16.4325L14.1054 15.504ZM12.8814 14.288C11.742 14.288 10.7292 14.6451 10.0038 15.4766L11.511 16.7914C11.7696 16.4949 12.1728 16.288 12.8814 16.288V14.288ZM10.0038 15.4766C9.30161 16.2816 9.01941 17.3459 9.01941 18.528H11.0194C11.0194 17.6461 11.2292 17.1144 11.511 16.7914L10.0038 15.4766ZM9.01941 18.528C9.01941 19.7406 9.33559 20.8258 10.1071 21.6316L11.5517 20.2484C11.2432 19.9262 11.0194 19.4034 11.0194 18.528H9.01941ZM10.1147 21.6395C10.887 22.4285 11.9002 22.786 13.0434 22.786V20.786C12.3386 20.786 11.8758 20.5795 11.5441 20.2405L10.1147 21.6395ZM13.0434 22.786C13.6181 22.786 14.1647 22.7098 14.6511 22.5188L13.9198 20.6572C13.7341 20.7302 13.4528 20.786 13.0434 20.786V22.786ZM14.6401 22.523C15.027 22.3762 15.3971 22.2083 15.7495 22.0185L14.8013 20.2575C14.5298 20.4037 14.2398 20.5358 13.9308 20.653L14.6401 22.523ZM14.6397 21.9099C14.7256 21.9807 14.7868 22.0611 14.8315 22.1604L16.6553 21.3396C16.484 20.9589 16.2332 20.6313 15.9111 20.3661L14.6397 21.9099ZM14.8585 22.2157C14.8886 22.2729 14.9234 22.3764 14.9234 22.56H16.9234C16.9234 22.1196 16.8383 21.6831 16.6283 21.2843L14.8585 22.2157ZM14.9234 22.56C14.9234 22.5993 14.93 22.7422 14.5621 22.9741L15.6287 24.6659C16.3649 24.2018 16.9234 23.5047 16.9234 22.56H14.9234ZM14.5671 22.9709C14.265 23.1589 13.6637 23.324 12.6114 23.324V25.324C13.7911 25.324 14.8458 25.1531 15.6237 24.6691L14.5671 22.9709ZM12.6114 23.324C11.9031 23.324 11.2512 23.2238 10.6499 23.0301L10.0369 24.9339C10.8516 25.1962 11.7118 25.324 12.6114 25.324V23.324ZM10.6499 23.0301C10.0664 22.8422 9.57159 22.5609 9.15272 22.1897L7.82611 23.6863C8.46324 24.2511 9.20443 24.6658 10.0369 24.9339L10.6499 23.0301ZM9.16209 22.1981C8.74914 21.8227 8.40823 21.3433 8.14697 20.7404L6.31186 21.5356C6.6746 22.3727 7.17368 23.0933 7.81674 23.6779L9.16209 22.1981ZM8.15472 20.7588C7.91554 20.1752 7.77941 19.4401 7.77941 18.528H5.77941C5.77941 19.6319 5.94329 20.6368 6.30411 21.5172L8.15472 20.7588ZM7.77941 18.528C7.77941 17.693 7.90798 17.0035 8.13771 16.4388L6.28512 15.6852C5.93885 16.5365 5.77941 17.491 5.77941 18.528H7.77941ZM8.13449 16.4466C8.38828 15.8375 8.71819 15.3479 9.11595 14.9596L7.71888 13.5284C7.10864 14.1241 6.63455 14.8465 6.28834 15.6774L8.13449 16.4466ZM9.10749 14.9677C9.52232 14.5722 10.0044 14.2722 10.5631 14.0663L9.87171 12.1897C9.06241 12.4878 8.34451 12.9318 7.72734 13.5203L9.10749 14.9677ZM10.5631 14.0663C11.1289 13.8579 11.7431 13.75 12.4134 13.75V11.75C11.5238 11.75 10.6739 11.8941 9.87171 12.1897L10.5631 14.0663ZM12.4134 13.75C13.4315 13.75 14.0756 13.9199 14.4549 14.1475L15.4839 12.4325C14.6632 11.9401 13.6033 11.75 12.4134 11.75V13.75ZM14.4624 14.1519C14.8605 14.3861 14.8874 14.5611 14.8874 14.676H16.8874C16.8874 13.6629 16.3023 12.9139 15.4764 12.4281L14.4624 14.1519ZM14.8874 14.676C14.8874 14.8135 14.8559 14.8806 14.8281 14.9213L16.4787 16.0507C16.7629 15.6354 16.8874 15.1625 16.8874 14.676H14.8874ZM14.8281 14.9213C14.7368 15.0548 14.6486 15.1357 14.5702 15.1864L15.6567 16.8656C15.9862 16.6523 16.2581 16.3732 16.4787 16.0507L14.8281 14.9213ZM15.6607 15.189C15.291 14.9474 14.8959 14.7431 14.4768 14.5755L13.734 16.4325C14.035 16.5529 14.3118 16.6966 14.5662 16.863L15.6607 15.189ZM14.4878 14.58C13.993 14.3752 13.4498 14.288 12.8814 14.288V16.288C13.249 16.288 13.5218 16.3447 13.7231 16.428L14.4878 14.58ZM20.4826 23.982L20.6615 24.9659L21.4826 24.8166V23.982H20.4826ZM19.8886 24.072L19.7535 23.0812L19.7274 23.0847L19.7015 23.0897L19.8886 24.072ZM18.3946 24.09L18.2208 25.0748L18.2302 25.0764L18.3946 24.09ZM17.8726 23.874L17.2726 24.674L17.8726 23.874ZM17.5306 23.442L16.5943 23.7931L16.608 23.8296L16.6244 23.8649L17.5306 23.442ZM17.4226 12.264L17.2437 11.2801L16.4226 11.4294V12.264H17.4226ZM17.9986 12.174L18.14 13.1639L18.1588 13.1613L18.1775 13.1579L17.9986 12.174ZM19.4926 12.156L19.3188 13.1408L19.3282 13.1424L19.4926 12.156ZM20.0326 12.372L19.4326 13.172V13.172L20.0326 12.372ZM20.3566 12.822L19.4203 13.1731L19.434 13.2096L19.4504 13.2449L20.3566 12.822ZM20.3037 22.9981C20.1943 23.018 20.0141 23.0456 19.7535 23.0812L20.0237 25.0628C20.2911 25.0264 20.5069 24.994 20.6615 24.9659L20.3037 22.9981ZM19.7015 23.0897C19.513 23.1256 19.3177 23.144 19.1146 23.144V25.144C19.4396 25.144 19.7603 25.1144 20.0757 25.0543L19.7015 23.0897ZM19.1146 23.144C18.8949 23.144 18.711 23.1289 18.559 23.1036L18.2302 25.0764C18.5103 25.1231 18.8063 25.144 19.1146 25.144V23.144ZM18.5684 23.1052C18.4956 23.0924 18.4733 23.0745 18.4726 23.074L17.2726 24.674C17.5599 24.8895 17.8856 25.0156 18.2208 25.0748L18.5684 23.1052ZM18.4726 23.074C18.4708 23.0726 18.4679 23.0702 18.4632 23.0643C18.4582 23.058 18.4486 23.0443 18.4368 23.0191L16.6244 23.8649C16.7706 24.1781 16.9839 24.4575 17.2726 24.674L18.4726 23.074ZM18.4669 23.0909C18.4517 23.0503 18.4226 22.9346 18.4226 22.704H16.4226C16.4226 23.0734 16.4655 23.4497 16.5943 23.7931L18.4669 23.0909ZM18.4226 22.704V12.264H16.4226V22.704H18.4226ZM17.6015 13.2479C17.7145 13.2273 17.8916 13.1994 18.14 13.1639L17.8572 11.1841C17.6016 11.2206 17.3947 11.2527 17.2437 11.2801L17.6015 13.2479ZM18.1775 13.1579C18.3834 13.1204 18.5876 13.102 18.7906 13.102V11.102C18.4656 11.102 18.1418 11.1316 17.8197 11.1901L18.1775 13.1579ZM18.7906 13.102C19.0113 13.102 19.1853 13.1172 19.3188 13.1408L19.6664 11.1712C19.3919 11.1228 19.0979 11.102 18.7906 11.102V13.102ZM19.3282 13.1424C19.42 13.1577 19.4417 13.1788 19.4326 13.172L20.6326 11.572C20.3356 11.3492 19.9972 11.2263 19.657 11.1696L19.3282 13.1424ZM19.4326 13.172C19.4275 13.1682 19.4227 13.164 19.4185 13.1596C19.4143 13.1553 19.4115 13.1518 19.4101 13.1498C19.407 13.1456 19.412 13.1511 19.4203 13.1731L21.2929 12.4709C21.1635 12.1258 20.9497 11.8098 20.6326 11.572L19.4326 13.172ZM19.4504 13.2449C19.448 13.2396 19.457 13.2572 19.4661 13.3094C19.4752 13.3612 19.4826 13.4371 19.4826 13.542H21.4826C21.4826 13.1637 21.432 12.7616 21.2628 12.3991L19.4504 13.2449ZM19.4826 13.542V23.982H21.4826V13.542H19.4826ZM31.1255 21.624L32.0554 21.9921L32.0579 21.9855L31.1255 21.624ZM30.1535 23.082L29.4675 22.3544L29.4623 22.3594L29.4571 22.3644L30.1535 23.082ZM28.6775 23.982L28.3437 23.0394L28.6775 23.982ZM24.8255 23.964L24.4744 24.9003L24.8255 23.964ZM23.3315 23.046L22.6244 23.7531L22.6348 23.7635L22.6455 23.7736L23.3315 23.046ZM22.3775 21.57L21.4477 21.938H21.4477L22.3775 21.57ZM22.3775 17.7L21.4477 17.332H21.4477L22.3775 17.7ZM23.3315 16.242L24.028 16.9596L24.0283 16.9593L23.3315 16.242ZM24.8255 15.306L25.1767 16.2423V16.2423L24.8255 15.306ZM28.6775 15.324L28.3095 16.2538L28.3179 16.2571L28.3264 16.2603L28.6775 15.324ZM30.1535 16.26L29.4464 16.9671L29.4568 16.9775L29.4675 16.9876L30.1535 16.26ZM31.1255 17.718L30.1957 18.086V18.086L31.1255 17.718ZM25.5815 21.318L24.7611 21.8898L24.7711 21.9041L24.7815 21.918L25.5815 21.318ZM27.9215 21.3L27.1011 20.7282L27.0952 20.7367L27.0895 20.7453L27.9215 21.3ZM27.9215 17.97L27.1011 18.5418L27.1053 18.5477L27.1095 18.5536L27.9215 17.97ZM25.5815 17.97L26.3936 18.5536L26.3978 18.5477L26.4019 18.5418L25.5815 17.97ZM30.4675 19.626C30.4675 20.2681 30.3692 20.8085 30.1932 21.2625L32.0579 21.9855C32.3379 21.2635 32.4675 20.4719 32.4675 19.626H30.4675ZM30.1957 21.256C30.0177 21.7058 29.7732 22.0662 29.4675 22.3544L30.8396 23.8096C31.3738 23.3058 31.7774 22.6942 32.0553 21.992L30.1957 21.256ZM29.4571 22.3644C29.1599 22.6528 28.7943 22.8798 28.3437 23.0394L29.0114 24.9246C29.7127 24.6762 30.3312 24.3032 30.85 23.7996L29.4571 22.3644ZM28.3437 23.0394C27.8904 23.1999 27.3635 23.288 26.7515 23.288V25.288C27.5556 25.288 28.3127 25.1721 29.0114 24.9246L28.3437 23.0394ZM26.7515 23.288C26.1456 23.288 25.6248 23.1957 25.1767 23.0277L24.4744 24.9003C25.1783 25.1643 25.9415 25.288 26.7515 25.288V23.288ZM25.1767 23.0277C24.7168 22.8552 24.3347 22.6174 24.0176 22.3184L22.6455 23.7736C23.1684 24.2666 23.7823 24.6408 24.4744 24.9003L25.1767 23.0277ZM24.0386 22.3389C23.7342 22.0345 23.4888 21.6604 23.3073 21.202L21.4477 21.938C21.7223 22.6316 22.1129 23.2415 22.6244 23.7531L24.0386 22.3389ZM23.3073 21.202C23.1326 20.7605 23.0355 20.2401 23.0355 19.626H21.0355C21.0355 20.4519 21.1665 21.2275 21.4477 21.938L23.3073 21.202ZM23.0355 19.626C23.0355 19.0262 23.1319 18.5114 23.3073 18.068L21.4477 17.332C21.1672 18.0406 21.0355 18.8098 21.0355 19.626H23.0355ZM23.3073 18.068C23.4879 17.6118 23.7305 17.2484 24.028 16.9596L22.6351 15.5244C22.1166 16.0276 21.7232 16.6362 21.4477 17.332L23.3073 18.068ZM24.0283 16.9593C24.3445 16.6522 24.7231 16.4124 25.1767 16.2423L24.4744 14.3697C23.776 14.6316 23.1586 15.0158 22.6348 15.5247L24.0283 16.9593ZM25.1767 16.2423C25.6248 16.0743 26.1456 15.982 26.7515 15.982V13.982C25.9415 13.982 25.1783 14.1057 24.4744 14.3697L25.1767 16.2423ZM26.7515 15.982C27.3514 15.982 27.8662 16.0783 28.3095 16.2538L29.0456 14.3942C28.3369 14.1137 27.5677 13.982 26.7515 13.982V15.982ZM28.3264 16.2603C28.7778 16.4296 29.146 16.6666 29.4464 16.9671L30.8606 15.5529C30.3451 15.0374 29.7293 14.6504 29.0287 14.3877L28.3264 16.2603ZM29.4675 16.9876C29.7732 17.2758 30.0177 17.6362 30.1957 18.086L32.0553 17.35C31.7774 16.6478 31.3738 16.0362 30.8396 15.5324L29.4675 16.9876ZM30.1957 18.086C30.372 18.5313 30.4675 19.0405 30.4675 19.626H32.4675C32.4675 18.8195 32.3351 18.0567 32.0553 17.35L30.1957 18.086ZM24.1675 19.626C24.1675 20.4633 24.3221 21.2598 24.7611 21.8898L26.4019 20.7462C26.289 20.5842 26.1675 20.2527 26.1675 19.626H24.1675ZM24.7815 21.918C25.2692 22.5682 25.9692 22.894 26.7695 22.894V20.894C26.5619 20.894 26.4699 20.8358 26.3815 20.718L24.7815 21.918ZM26.7695 22.894C27.5844 22.894 28.2915 22.5479 28.7536 21.8547L27.0895 20.7453C27.0236 20.8441 26.9627 20.894 26.7695 20.894V22.894ZM28.7419 21.8718C29.1794 21.2441 29.3355 20.4555 29.3355 19.626H27.3355C27.3355 20.2365 27.2157 20.5639 27.1011 20.7282L28.7419 21.8718ZM29.3355 19.626C29.3355 18.7995 29.1806 18.0083 28.7336 17.3864L27.1095 18.5536C27.2145 18.6997 27.3355 19.0125 27.3355 19.626H29.3355ZM28.7419 17.3982C28.2694 16.7202 27.5654 16.376 26.7515 16.376V18.376C26.9456 18.376 27.0217 18.4278 27.1011 18.5418L28.7419 17.3982ZM26.7515 16.376C25.9376 16.376 25.2337 16.7202 24.7611 17.3982L26.4019 18.5418C26.4814 18.4278 26.5574 18.376 26.7515 18.376V16.376ZM24.7695 17.3864C24.3225 18.0083 24.1675 18.7995 24.1675 19.626H26.1675C26.1675 19.0125 26.2886 18.6997 26.3936 18.5536L24.7695 17.3864ZM39.3144 23.532L39.9167 24.3303V24.3303L39.3144 23.532ZM34.8864 24.198L35.0508 23.2116L34.8864 24.198ZM33.7704 23.874L33.3091 24.7612L33.33 24.7721L33.3514 24.782L33.7704 23.874ZM33.0504 23.298L32.2454 23.8912L32.2552 23.9046L32.2655 23.9176L33.0504 23.298ZM32.9784 21.768L33.8264 22.298L33.8335 22.2866L33.8403 22.275L32.9784 21.768ZM33.4104 21.264L33.8935 20.3884L33.3135 20.0684L32.7926 20.4777L33.4104 21.264ZM34.5984 21.786L34.2669 22.7295L34.282 22.7348L34.2973 22.7396L34.5984 21.786ZM37.0104 21.84L36.5425 20.9562L36.5313 20.9622L36.5202 20.9684L37.0104 21.84ZM36.3804 20.778L36.1843 21.7586L36.1944 21.7606L36.2046 21.7624L36.3804 20.778ZM35.8404 20.67L36.0365 19.6894L36.0322 19.6886L35.8404 20.67ZM33.5004 19.716L32.8394 20.4664L32.8488 20.4747L32.8585 20.4828L33.5004 19.716ZM33.0324 16.62L32.1501 16.1494V16.1494L33.0324 16.62ZM33.8424 15.72L34.4101 16.5432V16.5432L33.8424 15.72ZM35.0844 15.162L34.8253 14.1961L34.8193 14.1978L35.0844 15.162ZM37.9464 15.072L37.7621 16.0549L37.7793 16.0581L37.7966 16.0607L37.9464 15.072ZM38.9724 15.36L38.5558 16.2691V16.2691L38.9724 15.36ZM39.6564 15.882L38.8671 16.4959L38.8756 16.5069L38.8845 16.5177L39.6564 15.882ZM39.7464 17.34L38.8626 16.8721L38.8572 16.8824L38.852 16.8928L39.7464 17.34ZM39.3684 17.826L38.8384 18.674L39.4573 19.0608L40.0144 18.5894L39.3684 17.826ZM38.9364 17.646L38.5853 18.5823L38.6115 18.5921L38.6381 18.6005L38.9364 17.646ZM38.3064 17.466L38.0519 18.4331L38.076 18.4394L38.1004 18.4446L38.3064 17.466ZM37.6044 17.322L37.4484 18.3098L37.4561 18.3109L37.6044 17.322ZM36.0564 17.412L36.4189 18.344L36.4409 18.3354L36.4626 18.3258L36.0564 17.412ZM35.9124 18.15L35.339 18.9692H35.339L35.9124 18.15ZM36.5964 18.384L36.8167 17.4085L36.8059 17.4062L36.5964 18.384ZM37.1544 18.51L37.3778 17.5353L37.3747 17.5346L37.1544 18.51ZM39.6024 19.608L38.9043 20.324L38.9134 20.3328L38.9226 20.3414L39.6024 19.608ZM39.3404 21.39C39.3404 22.0117 39.1275 22.4204 38.7122 22.7337L39.9167 24.3303C40.8693 23.6116 41.3404 22.5923 41.3404 21.39H39.3404ZM38.7122 22.7337C38.2742 23.0641 37.5181 23.306 36.2904 23.306V25.306C37.7267 25.306 38.9866 25.0319 39.9167 24.3303L38.7122 22.7337ZM36.2904 23.306C35.8335 23.306 35.4211 23.2733 35.0508 23.2116L34.722 25.1844C35.2157 25.2667 35.7394 25.306 36.2904 25.306V23.306ZM35.0508 23.2116C34.684 23.1505 34.4018 23.0641 34.1895 22.966L33.3514 24.782C33.763 24.9719 34.2248 25.1015 34.722 25.1844L35.0508 23.2116ZM34.2318 22.9868C34.0369 22.8855 33.9144 22.7785 33.8353 22.6784L32.2655 23.9176C32.5465 24.2735 32.9039 24.5505 33.3091 24.7612L34.2318 22.9868ZM33.8555 22.7048C33.827 22.6662 33.7984 22.6094 33.7984 22.488H31.7984C31.7984 22.9906 31.9378 23.4738 32.2454 23.8912L33.8555 22.7048ZM33.7984 22.488C33.7984 22.4127 33.8063 22.3635 33.8136 22.3345C33.8171 22.3203 33.8205 22.311 33.8227 22.3056C33.8249 22.3004 33.8263 22.2981 33.8264 22.298L32.1304 21.238C31.8874 21.6269 31.7984 22.063 31.7984 22.488H33.7984ZM33.8403 22.275C33.9039 22.167 33.9683 22.0974 34.0282 22.0503L32.7926 20.4777C32.5165 20.6946 32.2929 20.961 32.1165 21.261L33.8403 22.275ZM32.9273 22.1396C33.3318 22.3627 33.7798 22.5583 34.2669 22.7295L34.9299 20.8425C34.529 20.7017 34.1851 20.5493 33.8935 20.3884L32.9273 22.1396ZM34.2973 22.7396C34.8701 22.9205 35.4968 23.002 36.1644 23.002V21.002C35.6561 21.002 35.2388 20.9395 34.8995 20.8324L34.2973 22.7396ZM36.1644 23.002C36.6041 23.002 37.0889 22.9432 37.5007 22.7116L36.5202 20.9684C36.5419 20.9562 36.5322 20.9668 36.4668 20.9793C36.4029 20.9916 36.3047 21.002 36.1644 21.002V23.002ZM37.4783 22.7238C37.9012 22.4999 38.3164 22.0669 38.3164 21.408H36.3164C36.3164 21.2954 36.3527 21.1735 36.4239 21.073C36.4869 20.984 36.5472 20.9537 36.5425 20.9562L37.4783 22.7238ZM38.3164 21.408C38.3164 20.8937 38.0672 20.4547 37.6551 20.1799L36.5457 21.8441C36.5034 21.8159 36.437 21.7581 36.3845 21.6619C36.3313 21.5644 36.3164 21.4713 36.3164 21.408H38.3164ZM37.6551 20.1799C37.3321 19.9646 36.9215 19.8588 36.5562 19.7936L36.2046 21.7624C36.3421 21.787 36.4391 21.8117 36.5033 21.8325C36.5723 21.855 36.5758 21.8641 36.5457 21.8441L37.6551 20.1799ZM36.5765 19.7974L36.0365 19.6894L35.6443 21.6506L36.1843 21.7586L36.5765 19.7974ZM36.0322 19.6886C35.067 19.5 34.4746 19.2274 34.1424 18.9492L32.8585 20.4828C33.5582 21.0686 34.5258 21.432 35.6486 21.6514L36.0322 19.6886ZM34.1614 18.9656C33.9187 18.7518 33.7444 18.422 33.7444 17.826H31.7444C31.7444 18.862 32.0742 19.7922 32.8394 20.4664L34.1614 18.9656ZM33.7444 17.826C33.7444 17.5313 33.8067 17.2932 33.9148 17.0906L32.1501 16.1494C31.8741 16.6668 31.7444 17.2327 31.7444 17.826H33.7444ZM33.9148 17.0906C34.0288 16.8768 34.1888 16.6959 34.4101 16.5432L33.2747 14.8968C32.8001 15.2241 32.42 15.6432 32.1501 16.1494L33.9148 17.0906ZM34.4101 16.5432C34.6512 16.377 34.9589 16.2336 35.3496 16.1262L34.8193 14.1978C34.2499 14.3544 33.7297 14.583 33.2747 14.8968L34.4101 16.5432ZM35.3435 16.1278C35.7392 16.0217 36.1908 15.964 36.7044 15.964V13.964C36.0421 13.964 35.4136 14.0383 34.8253 14.1962L35.3435 16.1278ZM36.7044 15.964C37.0948 15.964 37.4465 15.9957 37.7621 16.0549L38.1307 14.0891C37.6784 14.0043 37.202 13.964 36.7044 13.964V15.964ZM37.7966 16.0607C38.1235 16.1102 38.3715 16.1846 38.5558 16.2691L39.3891 14.4509C38.9974 14.2714 38.5613 14.1538 38.0962 14.0833L37.7966 16.0607ZM38.5558 16.2691C38.7207 16.3447 38.8123 16.4255 38.8671 16.4959L40.4458 15.2681C40.1645 14.9065 39.8001 14.6393 39.3891 14.4509L38.5558 16.2691ZM38.8845 16.5177C38.8915 16.5262 38.9084 16.5416 38.9084 16.62H40.9084C40.9084 16.1224 40.7574 15.6458 40.4283 15.2463L38.8845 16.5177ZM38.9084 16.62C38.9084 16.7647 38.8807 16.8379 38.8626 16.8721L40.6302 17.8079C40.8281 17.4341 40.9084 17.0273 40.9084 16.62H38.9084ZM38.852 16.8928C38.8134 16.9699 38.7699 17.0225 38.7225 17.0626L40.0144 18.5894C40.2789 18.3655 40.4874 18.0941 40.6408 17.7872L38.852 16.8928ZM39.8984 16.978C39.6948 16.8507 39.4556 16.7606 39.2347 16.6915L38.6381 18.6005C38.7128 18.6238 38.7668 18.6437 38.8038 18.6591C38.8428 18.6753 38.8504 18.6815 38.8384 18.674L39.8984 16.978ZM39.2875 16.7097C39.0424 16.6178 38.7833 16.5445 38.5124 16.4874L38.1004 18.4446C38.2856 18.4835 38.4464 18.5302 38.5853 18.5823L39.2875 16.7097ZM38.5609 16.4989C38.2969 16.4295 38.0275 16.3743 37.7528 16.3331L37.4561 18.3109C37.6614 18.3417 37.8599 18.3825 38.0519 18.4331L38.5609 16.4989ZM37.7604 16.3342C37.4907 16.2917 37.2278 16.268 36.9744 16.268V18.268C37.105 18.268 37.2621 18.2803 37.4485 18.3098L37.7604 16.3342ZM36.9744 16.268C36.5206 16.268 36.0524 16.3195 35.6503 16.4982L36.4626 18.3258C36.4925 18.3125 36.6362 18.268 36.9744 18.268V16.268ZM35.694 16.48C35.471 16.5667 35.2209 16.7131 35.0259 16.9622C34.8209 17.2242 34.7324 17.5293 34.7324 17.826H36.7324C36.7324 17.9307 36.698 18.0708 36.6009 18.1948C36.514 18.3059 36.4258 18.3413 36.4189 18.344L35.694 16.48ZM34.7324 17.826C34.7324 18.3239 34.9858 18.722 35.339 18.9692L36.4859 17.3308C36.5272 17.3597 36.5955 17.4194 36.6516 17.5204C36.7097 17.6251 36.7324 17.7341 36.7324 17.826H34.7324ZM35.339 18.9692C35.6408 19.1805 36.0499 19.2896 36.3869 19.3618L36.8059 17.4062C36.6618 17.3753 36.5617 17.3474 36.4971 17.3253C36.4655 17.3145 36.4493 17.3074 36.4447 17.3053C36.4389 17.3026 36.456 17.3098 36.4859 17.3308L35.339 18.9692ZM36.3762 19.3594L36.9342 19.4854L37.3747 17.5346L36.8167 17.4086L36.3762 19.3594ZM36.931 19.4847C38.0228 19.7349 38.6219 20.0486 38.9043 20.324L40.3005 18.892C39.6229 18.2314 38.5901 17.8131 37.3778 17.5353L36.931 19.4847ZM38.9226 20.3414C39.1906 20.5898 39.3404 20.9081 39.3404 21.39H41.3404C41.3404 20.4079 40.9982 19.5382 40.2822 18.8746L38.9226 20.3414ZM44.5537 24L44.2318 24.9468L44.243 24.9506L44.2543 24.9541L44.5537 24ZM42.9697 23.1L42.304 23.8464L42.314 23.855L42.9697 23.1ZM41.9077 21.606L40.9857 21.9932L40.989 22.001L40.9924 22.0087L41.9077 21.606ZM41.9077 17.466L40.9986 17.0493L40.9947 17.0581L41.9077 17.466ZM42.9337 16.062L43.5845 16.8213L43.5906 16.816L43.5967 16.8106L42.9337 16.062ZM44.3737 15.252L44.6707 16.2069L44.6804 16.2039L44.6899 16.2007L44.3737 15.252ZM47.7577 15.27L47.4089 16.2072L47.4159 16.2098L47.7577 15.27ZM49.1077 16.062L48.4374 16.8041L48.4432 16.8094L48.4492 16.8146L49.1077 16.062ZM49.9897 17.268L49.073 17.6676L49.0772 17.6774L49.0817 17.6871L49.9897 17.268ZM49.9717 19.734L49.2839 19.008V19.008L49.9717 19.734ZM49.0177 20.148L48.8722 19.1586L48.8695 19.159L49.0177 20.148ZM44.5717 20.814L44.4235 19.825L43.2467 20.0013L43.623 21.1302L44.5717 20.814ZM45.3817 21.714L44.9345 22.6084L44.9451 22.6138L44.9559 22.6188L45.3817 21.714ZM48.1717 21.822L48.4393 22.7855L48.448 22.7831L48.4566 22.7805L48.1717 21.822ZM49.2517 21.372L49.7817 20.524L49.2586 20.1971L48.7317 20.5178L49.2517 21.372ZM49.7377 21.876L50.591 21.3545L49.7377 21.876ZM49.1797 23.766L48.7157 22.8802L48.7105 22.8829L49.1797 23.766ZM47.8837 24.18L47.7353 23.1911L47.8837 24.18ZM45.2737 17.358L44.8675 16.4442L44.8577 16.4486L44.8479 16.4532L45.2737 17.358ZM44.7697 17.736L45.5068 18.4117L45.5202 18.3971L45.5331 18.3819L44.7697 17.736ZM44.4637 18.24L43.5274 17.8889L43.5209 17.9062L43.515 17.9238L44.4637 18.24ZM44.3557 18.798L43.3576 18.7356L43.2794 19.9876L44.5173 19.7849L44.3557 18.798ZM47.4337 18.294L47.5953 19.2809L48.569 19.1214L48.4226 18.1457L47.4337 18.294ZM47.0377 17.574L47.7627 16.8853V16.8852L47.0377 17.574ZM46.5337 23.288C45.9168 23.288 45.3587 23.2045 44.853 23.0459L44.2543 24.9541C44.9727 25.1795 45.7346 25.288 46.5337 25.288V23.288ZM44.8756 23.0532C44.3921 22.8888 43.9788 22.6519 43.6254 22.345L42.314 23.855C42.8726 24.3401 43.5153 24.7032 44.2318 24.9468L44.8756 23.0532ZM43.6353 22.3537C43.3086 22.0624 43.0352 21.6856 42.823 21.2033L40.9924 22.0087C41.3081 22.7264 41.7427 23.3456 42.3041 23.8463L43.6353 22.3537ZM42.8297 21.2188C42.6397 20.7666 42.5297 20.2014 42.5297 19.5H40.5297C40.5297 20.4066 40.6716 21.2454 40.9857 21.9932L42.8297 21.2188ZM42.5297 19.5C42.5297 18.8104 42.6398 18.2788 42.8207 17.8739L40.9947 17.0581C40.6716 17.7812 40.5297 18.6056 40.5297 19.5H42.5297ZM42.8167 17.8827C43.0292 17.4191 43.2892 17.0743 43.5845 16.8213L42.2829 15.3027C41.7381 15.7697 41.3142 16.3609 40.9986 17.0493L42.8167 17.8827ZM43.5967 16.8106C43.9098 16.5333 44.2649 16.3331 44.6707 16.2069L44.0766 14.2971C43.4025 14.5069 42.7975 14.8467 42.2706 15.3134L43.5967 16.8106ZM44.6899 16.2007C45.1289 16.0544 45.5742 15.982 46.0297 15.982V13.982C45.3572 13.982 44.6985 14.0896 44.0575 14.3033L44.6899 16.2007ZM46.0297 15.982C46.5648 15.982 47.0204 16.0626 47.4089 16.2072L48.1064 14.3328C47.463 14.0934 46.7665 13.982 46.0297 13.982V15.982ZM47.4159 16.2098C47.8373 16.363 48.172 16.5644 48.4374 16.8041L49.778 15.3199C49.2993 14.8876 48.7341 14.561 48.0994 14.3302L47.4159 16.2098ZM48.4492 16.8146C48.7221 17.0533 48.9279 17.3348 49.073 17.6676L50.9064 16.8684C50.6434 16.2652 50.2613 15.7427 49.7662 15.3094L48.4492 16.8146ZM49.0817 17.6871C49.2329 18.0145 49.3137 18.3803 49.3137 18.798H51.3137C51.3137 18.1117 51.1785 17.4575 50.8976 16.8489L49.0817 17.6871ZM49.3137 18.798C49.3137 18.9107 49.2977 18.9706 49.2889 18.9948C49.2819 19.0141 49.2792 19.0126 49.2839 19.008L50.6594 20.46C51.1418 20.003 51.3137 19.3942 51.3137 18.798H49.3137ZM49.2839 19.008C49.2457 19.0442 49.1398 19.1193 48.8722 19.1586L49.1632 21.1374C49.7116 21.0567 50.2416 20.8558 50.6594 20.46L49.2839 19.008ZM48.8695 19.159L44.4235 19.825L44.7198 21.803L49.1658 21.137L48.8695 19.159ZM43.623 21.1302C43.8471 21.8024 44.3135 22.2979 44.9345 22.6084L45.8289 20.8196C45.6339 20.7221 45.5603 20.6176 45.5204 20.4978L43.623 21.1302ZM44.9559 22.6188C45.518 22.8833 46.1355 23.002 46.7857 23.002V21.002C46.3799 21.002 46.0614 20.9287 45.8075 20.8092L44.9559 22.6188ZM46.7857 23.002C47.3594 23.002 47.9122 22.932 48.4393 22.7855L47.904 20.8585C47.5672 20.952 47.1959 21.002 46.7857 21.002V23.002ZM48.4566 22.7805C48.9507 22.6336 49.398 22.4536 49.7716 22.2262L48.7317 20.5178C48.5534 20.6264 48.2806 20.7464 47.8867 20.8635L48.4566 22.7805ZM48.7217 22.22C48.7672 22.2484 48.8237 22.2981 48.8844 22.3975L50.591 21.3545C50.3877 21.0219 50.1202 20.7356 49.7817 20.524L48.7217 22.22ZM48.8844 22.3975C48.9259 22.4654 48.9357 22.5143 48.9357 22.56H50.9357C50.9357 22.1257 50.8134 21.7186 50.591 21.3545L48.8844 22.3975ZM48.9357 22.56C48.9357 22.6687 48.9124 22.7147 48.8994 22.7354C48.8846 22.7589 48.8421 22.814 48.7157 22.8802L49.6437 24.6518C50.0213 24.454 50.3567 24.1761 50.594 23.7976C50.833 23.4163 50.9357 22.9913 50.9357 22.56H48.9357ZM48.7105 22.8829C48.4376 23.0279 48.1161 23.1339 47.7353 23.1911L48.032 25.1689C48.6112 25.0821 49.1537 24.9121 49.6488 24.6491L48.7105 22.8829ZM47.7353 23.1911C47.2971 23.2568 46.8971 23.288 46.5337 23.288V25.288C47.0103 25.288 47.5103 25.2472 48.032 25.1689L47.7353 23.1911ZM46.0297 16.214C45.6316 16.214 45.2361 16.2804 44.8675 16.4442L45.6798 18.2718C45.7432 18.2436 45.8517 18.214 46.0297 18.214V16.214ZM44.8479 16.4532C44.5276 16.6039 44.2401 16.8137 44.0063 17.0901L45.5331 18.3819C45.5632 18.3463 45.6117 18.3041 45.6995 18.2628L44.8479 16.4532ZM44.0325 17.0603C43.8097 17.3034 43.6421 17.583 43.5274 17.8889L45.4 18.5911C45.4293 18.513 45.4657 18.4566 45.5068 18.4117L44.0325 17.0603ZM43.515 17.9238C43.4272 18.187 43.375 18.4584 43.3576 18.7356L45.3537 18.8604C45.3604 18.7536 45.3801 18.653 45.4124 18.5562L43.515 17.9238ZM44.5173 19.7849L47.5953 19.2809L47.2721 17.3071L44.1941 17.8111L44.5173 19.7849ZM48.4226 18.1457C48.3469 17.6408 48.0817 17.2211 47.7627 16.8853L46.3127 18.2627C46.4496 18.4069 46.4485 18.4672 46.4447 18.4423L48.4226 18.1457ZM47.7627 16.8852C47.288 16.3856 46.6506 16.214 46.0297 16.214V18.214C46.164 18.214 46.241 18.2324 46.2783 18.2457C46.2963 18.2521 46.3052 18.2574 46.3084 18.2594C46.3113 18.2613 46.3121 18.2622 46.3127 18.2627L47.7627 16.8852Z" fill="black" mask="url(#path-7-outside-1_2529_1125)"/>
</g>
<defs>
<filter id="filter0_d_2529_1125" x="6.7793" y="12.1021" width="43.5342" height="13.7222" filterUnits="userSpaceOnUse" color-interpolation-filters="sRGB">
<feFlood flood-opacity="0" result="BackgroundImageFix"/>
<feColorMatrix in="SourceAlpha" type="matrix" values="0 0 0 0 0 0 0 0 0 0 0 0 0 0 0 0 0 0 127 0" result="hardAlpha"/>
<feOffset dy="1.5"/>
<feComposite in2="hardAlpha" operator="out"/>
<feColorMatrix type="matrix" values="0 0 0 0 0 0 0 0 0 0 0 0 0 0 0 0 0 0 1 0"/>
<feBlend mode="normal" in2="BackgroundImageFix" result="effect1_dropShadow_2529_1125"/>
<feBlend mode="normal" in="SourceGraphic" in2="effect1_dropShadow_2529_1125" result="shape"/>
</filter>
<linearGradient id="paint0_linear_2529_1125" x1="29.037" y1="32.5" x2="29.037" y2="40" gradientUnits="userSpaceOnUse">
<stop stop-color="#DB8400"/>
<stop offset="1" stop-color="#B94100"/>
</linearGradient>
<linearGradient id="paint1_linear_2529_1125" x1="21" y1="35" x2="21" y2="-5.31658e-07" gradientUnits="userSpaceOnUse">
<stop stop-color="#FFDE00"/>
<stop offset="1" stop-color="#FFE636"/>
</linearGradient>
<linearGradient id="paint2_linear_2529_1125" x1="1.2963" y1="2.5" x2="8.14478" y2="5.30347" gradientUnits="userSpaceOnUse">
<stop stop-color="white"/>
<stop offset="1" stop-color="white" stop-opacity="0"/>
</linearGradient>
<linearGradient id="paint3_linear_2529_1125" x1="35.25" y1="6.5" x2="35.25" y2="25" gradientUnits="userSpaceOnUse">
<stop stop-color="#FFDC02"/>
<stop offset="1" stop-color="#FFBB00"/>
</linearGradient>
</defs>
</svg>
