<svg width="343" height="72" viewBox="0 0 343 72" fill="none" xmlns="http://www.w3.org/2000/svg">
<rect width="343" height="72" rx="16.6153" fill="black"/>
<rect x="3.21948" y="5.53857" width="336.561" height="62.7692" rx="14.7692" fill="url(#paint0_linear_2529_1305)"/>
<rect x="3.21948" y="3.69263" width="336.561" height="60.9231" rx="12.923" fill="url(#paint1_linear_2529_1305)"/>
<rect x="3.21948" y="3.69263" width="336.561" height="60.9231" rx="12.923" fill="url(#paint2_linear_2529_1305)"/>
<rect x="6.43896" y="7.38464" width="330.122" height="53.5385" rx="11.0769" fill="url(#paint3_linear_2529_1305)"/>
<ellipse cx="2.90149" cy="1.99141" rx="2.90149" ry="1.99141" transform="matrix(0.73474 -0.678349 0.574531 0.818483 6.43896 11.3214)" fill="#FFFEE2"/>
<ellipse cx="2.90149" cy="1.99141" rx="2.90149" ry="1.99141" transform="matrix(0.734739 -0.67835 0.57453 0.818483 330.122 57.475)" fill="#FFE638"/>
<g filter="url(#filter0_d_2529_1305)">
<mask id="path-8-outside-1_2529_1305" maskUnits="userSpaceOnUse" x="137" y="29" width="71" height="14" fill="black">
<rect fill="white" x="137" y="29" width="71" height="14"/>
<path d="M147.357 38.165C147.357 38.625 147.287 39.045 147.147 39.425C147.017 39.795 146.777 40.115 146.427 40.385C146.087 40.645 145.617 40.85 145.017 41C144.417 41.15 143.652 41.225 142.722 41.225C141.792 41.225 141.027 41.15 140.427 41C139.827 40.85 139.352 40.645 139.002 40.385C138.662 40.115 138.422 39.795 138.282 39.425C138.152 39.045 138.087 38.625 138.087 38.165V30.74C138.087 30.55 138.127 30.415 138.207 30.335C138.297 30.245 138.437 30.2 138.627 30.2H140.982C141.172 30.2 141.307 30.245 141.387 30.335C141.477 30.415 141.522 30.55 141.522 30.74V37.58C141.522 37.78 141.597 37.95 141.747 38.09C141.897 38.22 142.232 38.285 142.752 38.285C143.282 38.285 143.622 38.22 143.772 38.09C143.922 37.95 143.997 37.78 143.997 37.58V30.74C143.997 30.55 144.037 30.415 144.117 30.335C144.207 30.245 144.347 30.2 144.537 30.2H146.817C147.007 30.2 147.142 30.245 147.222 30.335C147.312 30.415 147.357 30.55 147.357 30.74V38.165ZM151.318 41H148.993C148.803 41 148.663 40.96 148.573 40.88C148.493 40.79 148.453 40.65 148.453 40.46V30.74C148.453 30.55 148.493 30.415 148.573 30.335C148.663 30.245 148.803 30.2 148.993 30.2H153.583C154.943 30.2 155.873 30.47 156.373 31.01C156.873 31.55 157.123 32.255 157.123 33.125V35.045C157.123 35.915 156.873 36.62 156.373 37.16C155.873 37.7 154.943 37.97 153.583 37.97H151.858V40.46C151.858 40.65 151.813 40.79 151.723 40.88C151.643 40.96 151.508 41 151.318 41ZM151.828 33.005V35.27H153.178C153.468 35.27 153.658 35.195 153.748 35.045C153.838 34.895 153.883 34.725 153.883 34.535V33.74C153.883 33.55 153.838 33.38 153.748 33.23C153.658 33.08 153.468 33.005 153.178 33.005H151.828ZM166.028 41H161.303C160.053 41 159.123 40.75 158.513 40.25C157.913 39.75 157.613 38.98 157.613 37.94V33.26C157.613 32.22 157.913 31.45 158.513 30.95C159.123 30.45 160.053 30.2 161.303 30.2H165.053C165.243 30.2 165.378 30.245 165.458 30.335C165.548 30.415 165.593 30.55 165.593 30.74V32.555C165.593 32.745 165.548 32.885 165.458 32.975C165.378 33.055 165.243 33.095 165.053 33.095H161.933C161.623 33.095 161.393 33.16 161.243 33.29C161.093 33.41 161.018 33.595 161.018 33.845V37.43C161.018 37.68 161.073 37.865 161.183 37.985C161.303 38.105 161.478 38.165 161.708 38.165H163.163V35.825C163.163 35.635 163.203 35.5 163.283 35.42C163.373 35.33 163.513 35.285 163.703 35.285H166.028C166.218 35.285 166.353 35.33 166.433 35.42C166.523 35.5 166.568 35.635 166.568 35.825V40.46C166.568 40.65 166.523 40.79 166.433 40.88C166.353 40.96 166.218 41 166.028 41ZM170.888 32.9V34.82H172.013C172.273 34.82 172.448 34.755 172.538 34.625C172.628 34.485 172.673 34.315 172.673 34.115V33.605C172.673 33.405 172.628 33.24 172.538 33.11C172.448 32.97 172.273 32.9 172.013 32.9H170.888ZM170.348 41H168.038C167.848 41 167.708 40.96 167.618 40.88C167.538 40.79 167.498 40.65 167.498 40.46V30.74C167.498 30.55 167.538 30.415 167.618 30.335C167.708 30.245 167.848 30.2 168.038 30.2H173.033C174.153 30.2 174.923 30.435 175.343 30.905C175.773 31.365 175.988 31.965 175.988 32.705V33.395C175.988 33.815 175.923 34.175 175.793 34.475C175.673 34.765 175.458 34.975 175.148 35.105C175.688 35.165 176.123 35.385 176.453 35.765C176.793 36.145 176.963 36.65 176.963 37.28V40.46C176.963 40.65 176.918 40.79 176.828 40.88C176.748 40.96 176.613 41 176.423 41H174.098C173.908 41 173.768 40.96 173.678 40.88C173.598 40.79 173.558 40.65 173.558 40.46V38.165C173.558 37.945 173.513 37.785 173.423 37.685C173.343 37.575 173.198 37.52 172.988 37.52H170.888V40.46C170.888 40.65 170.843 40.79 170.753 40.88C170.673 40.96 170.538 41 170.348 41ZM181.66 33.35L180.955 35.63H183.31L182.605 33.35C182.565 33.26 182.52 33.195 182.47 33.155C182.43 33.115 182.38 33.095 182.32 33.095H181.945C181.885 33.095 181.83 33.115 181.78 33.155C181.74 33.195 181.7 33.26 181.66 33.35ZM180.805 40.46C180.805 40.65 180.76 40.79 180.67 40.88C180.59 40.96 180.455 41 180.265 41H178.06C177.87 41 177.73 40.96 177.64 40.88C177.56 40.79 177.52 40.65 177.52 40.46V36.5C177.52 36.2 177.565 35.855 177.655 35.465C177.755 35.075 177.905 34.62 178.105 34.1L179.41 30.695C179.47 30.525 179.56 30.4 179.68 30.32C179.81 30.24 179.975 30.2 180.175 30.2H184.21C184.4 30.2 184.555 30.24 184.675 30.32C184.805 30.4 184.9 30.525 184.96 30.695L186.265 34.1C186.465 34.62 186.61 35.075 186.7 35.465C186.8 35.855 186.85 36.2 186.85 36.5V40.46C186.85 40.65 186.805 40.79 186.715 40.88C186.635 40.96 186.5 41 186.31 41H184.045C183.845 41 183.695 40.96 183.595 40.88C183.505 40.79 183.46 40.65 183.46 40.46V38.36H180.805V40.46ZM193.397 41H188.342C188.152 41 188.012 40.96 187.922 40.88C187.842 40.79 187.802 40.65 187.802 40.46V30.74C187.802 30.55 187.842 30.415 187.922 30.335C188.012 30.245 188.152 30.2 188.342 30.2H193.397C194.647 30.2 195.572 30.45 196.172 30.95C196.782 31.45 197.087 32.22 197.087 33.26V37.94C197.087 38.98 196.782 39.75 196.172 40.25C195.572 40.75 194.647 41 193.397 41ZM191.207 33.065V38.165H192.992C193.232 38.165 193.407 38.105 193.517 37.985C193.637 37.865 193.697 37.68 193.697 37.43V33.785C193.697 33.535 193.637 33.355 193.517 33.245C193.407 33.125 193.232 33.065 192.992 33.065H191.207ZM205.594 41H198.634C198.444 41 198.304 40.96 198.214 40.88C198.134 40.79 198.094 40.65 198.094 40.46V30.74C198.094 30.55 198.134 30.415 198.214 30.335C198.304 30.245 198.444 30.2 198.634 30.2H205.594C205.784 30.2 205.919 30.245 205.999 30.335C206.089 30.415 206.134 30.55 206.134 30.74V32.495C206.134 32.685 206.089 32.825 205.999 32.915C205.919 32.995 205.784 33.035 205.594 33.035H201.454V34.19H204.379C204.569 34.19 204.704 34.235 204.784 34.325C204.874 34.405 204.919 34.54 204.919 34.73V36.335C204.919 36.525 204.874 36.665 204.784 36.755C204.704 36.835 204.569 36.875 204.379 36.875H201.454V38.165H205.594C205.784 38.165 205.919 38.21 205.999 38.3C206.089 38.38 206.134 38.515 206.134 38.705V40.46C206.134 40.65 206.089 40.79 205.999 40.88C205.919 40.96 205.784 41 205.594 41Z"/>
</mask>
<path d="M147.357 38.165C147.357 38.625 147.287 39.045 147.147 39.425C147.017 39.795 146.777 40.115 146.427 40.385C146.087 40.645 145.617 40.85 145.017 41C144.417 41.15 143.652 41.225 142.722 41.225C141.792 41.225 141.027 41.15 140.427 41C139.827 40.85 139.352 40.645 139.002 40.385C138.662 40.115 138.422 39.795 138.282 39.425C138.152 39.045 138.087 38.625 138.087 38.165V30.74C138.087 30.55 138.127 30.415 138.207 30.335C138.297 30.245 138.437 30.2 138.627 30.2H140.982C141.172 30.2 141.307 30.245 141.387 30.335C141.477 30.415 141.522 30.55 141.522 30.74V37.58C141.522 37.78 141.597 37.95 141.747 38.09C141.897 38.22 142.232 38.285 142.752 38.285C143.282 38.285 143.622 38.22 143.772 38.09C143.922 37.95 143.997 37.78 143.997 37.58V30.74C143.997 30.55 144.037 30.415 144.117 30.335C144.207 30.245 144.347 30.2 144.537 30.2H146.817C147.007 30.2 147.142 30.245 147.222 30.335C147.312 30.415 147.357 30.55 147.357 30.74V38.165ZM151.318 41H148.993C148.803 41 148.663 40.96 148.573 40.88C148.493 40.79 148.453 40.65 148.453 40.46V30.74C148.453 30.55 148.493 30.415 148.573 30.335C148.663 30.245 148.803 30.2 148.993 30.2H153.583C154.943 30.2 155.873 30.47 156.373 31.01C156.873 31.55 157.123 32.255 157.123 33.125V35.045C157.123 35.915 156.873 36.62 156.373 37.16C155.873 37.7 154.943 37.97 153.583 37.97H151.858V40.46C151.858 40.65 151.813 40.79 151.723 40.88C151.643 40.96 151.508 41 151.318 41ZM151.828 33.005V35.27H153.178C153.468 35.27 153.658 35.195 153.748 35.045C153.838 34.895 153.883 34.725 153.883 34.535V33.74C153.883 33.55 153.838 33.38 153.748 33.23C153.658 33.08 153.468 33.005 153.178 33.005H151.828ZM166.028 41H161.303C160.053 41 159.123 40.75 158.513 40.25C157.913 39.75 157.613 38.98 157.613 37.94V33.26C157.613 32.22 157.913 31.45 158.513 30.95C159.123 30.45 160.053 30.2 161.303 30.2H165.053C165.243 30.2 165.378 30.245 165.458 30.335C165.548 30.415 165.593 30.55 165.593 30.74V32.555C165.593 32.745 165.548 32.885 165.458 32.975C165.378 33.055 165.243 33.095 165.053 33.095H161.933C161.623 33.095 161.393 33.16 161.243 33.29C161.093 33.41 161.018 33.595 161.018 33.845V37.43C161.018 37.68 161.073 37.865 161.183 37.985C161.303 38.105 161.478 38.165 161.708 38.165H163.163V35.825C163.163 35.635 163.203 35.5 163.283 35.42C163.373 35.33 163.513 35.285 163.703 35.285H166.028C166.218 35.285 166.353 35.33 166.433 35.42C166.523 35.5 166.568 35.635 166.568 35.825V40.46C166.568 40.65 166.523 40.79 166.433 40.88C166.353 40.96 166.218 41 166.028 41ZM170.888 32.9V34.82H172.013C172.273 34.82 172.448 34.755 172.538 34.625C172.628 34.485 172.673 34.315 172.673 34.115V33.605C172.673 33.405 172.628 33.24 172.538 33.11C172.448 32.97 172.273 32.9 172.013 32.9H170.888ZM170.348 41H168.038C167.848 41 167.708 40.96 167.618 40.88C167.538 40.79 167.498 40.65 167.498 40.46V30.74C167.498 30.55 167.538 30.415 167.618 30.335C167.708 30.245 167.848 30.2 168.038 30.2H173.033C174.153 30.2 174.923 30.435 175.343 30.905C175.773 31.365 175.988 31.965 175.988 32.705V33.395C175.988 33.815 175.923 34.175 175.793 34.475C175.673 34.765 175.458 34.975 175.148 35.105C175.688 35.165 176.123 35.385 176.453 35.765C176.793 36.145 176.963 36.65 176.963 37.28V40.46C176.963 40.65 176.918 40.79 176.828 40.88C176.748 40.96 176.613 41 176.423 41H174.098C173.908 41 173.768 40.96 173.678 40.88C173.598 40.79 173.558 40.65 173.558 40.46V38.165C173.558 37.945 173.513 37.785 173.423 37.685C173.343 37.575 173.198 37.52 172.988 37.52H170.888V40.46C170.888 40.65 170.843 40.79 170.753 40.88C170.673 40.96 170.538 41 170.348 41ZM181.66 33.35L180.955 35.63H183.31L182.605 33.35C182.565 33.26 182.52 33.195 182.47 33.155C182.43 33.115 182.38 33.095 182.32 33.095H181.945C181.885 33.095 181.83 33.115 181.78 33.155C181.74 33.195 181.7 33.26 181.66 33.35ZM180.805 40.46C180.805 40.65 180.76 40.79 180.67 40.88C180.59 40.96 180.455 41 180.265 41H178.06C177.87 41 177.73 40.96 177.64 40.88C177.56 40.79 177.52 40.65 177.52 40.46V36.5C177.52 36.2 177.565 35.855 177.655 35.465C177.755 35.075 177.905 34.62 178.105 34.1L179.41 30.695C179.47 30.525 179.56 30.4 179.68 30.32C179.81 30.24 179.975 30.2 180.175 30.2H184.21C184.4 30.2 184.555 30.24 184.675 30.32C184.805 30.4 184.9 30.525 184.96 30.695L186.265 34.1C186.465 34.62 186.61 35.075 186.7 35.465C186.8 35.855 186.85 36.2 186.85 36.5V40.46C186.85 40.65 186.805 40.79 186.715 40.88C186.635 40.96 186.5 41 186.31 41H184.045C183.845 41 183.695 40.96 183.595 40.88C183.505 40.79 183.46 40.65 183.46 40.46V38.36H180.805V40.46ZM193.397 41H188.342C188.152 41 188.012 40.96 187.922 40.88C187.842 40.79 187.802 40.65 187.802 40.46V30.74C187.802 30.55 187.842 30.415 187.922 30.335C188.012 30.245 188.152 30.2 188.342 30.2H193.397C194.647 30.2 195.572 30.45 196.172 30.95C196.782 31.45 197.087 32.22 197.087 33.26V37.94C197.087 38.98 196.782 39.75 196.172 40.25C195.572 40.75 194.647 41 193.397 41ZM191.207 33.065V38.165H192.992C193.232 38.165 193.407 38.105 193.517 37.985C193.637 37.865 193.697 37.68 193.697 37.43V33.785C193.697 33.535 193.637 33.355 193.517 33.245C193.407 33.125 193.232 33.065 192.992 33.065H191.207ZM205.594 41H198.634C198.444 41 198.304 40.96 198.214 40.88C198.134 40.79 198.094 40.65 198.094 40.46V30.74C198.094 30.55 198.134 30.415 198.214 30.335C198.304 30.245 198.444 30.2 198.634 30.2H205.594C205.784 30.2 205.919 30.245 205.999 30.335C206.089 30.415 206.134 30.55 206.134 30.74V32.495C206.134 32.685 206.089 32.825 205.999 32.915C205.919 32.995 205.784 33.035 205.594 33.035H201.454V34.19H204.379C204.569 34.19 204.704 34.235 204.784 34.325C204.874 34.405 204.919 34.54 204.919 34.73V36.335C204.919 36.525 204.874 36.665 204.784 36.755C204.704 36.835 204.569 36.875 204.379 36.875H201.454V38.165H205.594C205.784 38.165 205.919 38.21 205.999 38.3C206.089 38.38 206.134 38.515 206.134 38.705V40.46C206.134 40.65 206.089 40.79 205.999 40.88C205.919 40.96 205.784 41 205.594 41Z" fill="white"/>
<path d="M147.147 39.425L146.208 39.0793L146.206 39.0864L146.203 39.0935L147.147 39.425ZM146.427 40.385L147.034 41.1794L147.038 41.1768L146.427 40.385ZM140.427 41L140.669 40.0299L140.669 40.0299L140.427 41ZM139.002 40.385L138.38 41.1681L138.392 41.1781L138.405 41.1877L139.002 40.385ZM138.282 39.425L137.336 39.7487L137.341 39.7639L137.346 39.7789L138.282 39.425ZM138.207 30.335L137.5 29.6279L137.5 29.6279L138.207 30.335ZM141.387 30.335L140.639 30.9994L140.678 31.0433L140.722 31.0824L141.387 30.335ZM141.747 38.09L141.064 38.8211L141.078 38.8336L141.092 38.8457L141.747 38.09ZM143.772 38.09L144.427 38.8457L144.441 38.8336L144.454 38.8211L143.772 38.09ZM144.117 30.335L143.41 29.6279L143.41 29.6279L144.117 30.335ZM147.222 30.335L146.474 30.9994L146.513 31.0433L146.557 31.0824L147.222 30.335ZM146.357 38.165C146.357 38.5229 146.302 38.824 146.208 39.0793L148.085 39.7707C148.271 39.266 148.357 38.7271 148.357 38.165H146.357ZM146.203 39.0935C146.145 39.2586 146.033 39.4258 145.816 39.5932L147.038 41.1768C147.521 40.8042 147.888 40.3314 148.09 39.7565L146.203 39.0935ZM145.819 39.5906C145.625 39.7395 145.296 39.8994 144.774 40.0299L145.259 41.9701C145.937 41.8006 146.549 41.5505 147.034 41.1794L145.819 39.5906ZM144.774 40.0299C144.283 40.1528 143.607 40.225 142.722 40.225V42.225C143.697 42.225 144.551 42.1472 145.259 41.9701L144.774 40.0299ZM142.722 40.225C141.837 40.225 141.161 40.1528 140.669 40.0299L140.184 41.9701C140.893 42.1472 141.747 42.225 142.722 42.225V40.225ZM140.669 40.0299C140.148 39.8994 139.808 39.7381 139.598 39.5823L138.405 41.1877C138.896 41.5519 139.506 41.8006 140.184 41.9701L140.669 40.0299ZM139.624 39.6019C139.411 39.4328 139.287 39.2562 139.217 39.0711L137.346 39.7789C137.556 40.3338 137.913 40.7972 138.38 41.1681L139.624 39.6019ZM139.228 39.1013C139.138 38.8394 139.087 38.5306 139.087 38.165H137.087C137.087 38.7194 137.165 39.2506 137.336 39.7487L139.228 39.1013ZM139.087 38.165V30.74H137.087V38.165H139.087ZM139.087 30.74C139.087 30.71 139.091 30.7298 139.076 30.7803C139.06 30.8342 139.017 30.9388 138.914 31.0421L137.5 29.6279C137.139 29.9885 137.087 30.4546 137.087 30.74H139.087ZM138.914 31.0421C138.741 31.2147 138.573 31.2 138.627 31.2V29.2C138.301 29.2 137.852 29.2753 137.5 29.6279L138.914 31.0421ZM138.627 31.2H140.982V29.2H138.627V31.2ZM140.982 31.2C141.003 31.2 140.971 31.2032 140.909 31.1824C140.841 31.1597 140.735 31.1073 140.639 30.9994L142.134 29.6706C141.778 29.27 141.295 29.2 140.982 29.2V31.2ZM140.722 31.0824C140.614 30.9865 140.562 30.8808 140.539 30.8125C140.519 30.7503 140.522 30.7188 140.522 30.74H142.522C142.522 30.4271 142.452 29.9437 142.051 29.5876L140.722 31.0824ZM140.522 30.74V37.58H142.522V30.74H140.522ZM140.522 37.58C140.522 38.0652 140.718 38.4975 141.064 38.8211L142.429 37.3589C142.443 37.3716 142.47 37.4028 142.493 37.4539C142.516 37.5055 142.522 37.5518 142.522 37.58H140.522ZM141.092 38.8457C141.363 39.0807 141.689 39.1731 141.92 39.2179C142.174 39.2672 142.457 39.285 142.752 39.285V37.285C142.526 37.285 142.382 37.2703 142.301 37.2546C142.262 37.247 142.254 37.2422 142.267 37.2475C142.279 37.2521 142.334 37.2753 142.402 37.3343L141.092 38.8457ZM142.752 39.285C143.05 39.285 143.337 39.2673 143.592 39.2185C143.823 39.1743 144.153 39.0828 144.427 38.8457L143.117 37.3343C143.187 37.2738 143.243 37.2505 143.254 37.2462C143.266 37.2412 143.257 37.2462 143.216 37.254C143.132 37.2702 142.983 37.285 142.752 37.285V39.285ZM144.454 38.8211C144.801 38.4975 144.997 38.0652 144.997 37.58H142.997C142.997 37.5518 143.003 37.5055 143.026 37.4539C143.048 37.4028 143.076 37.3716 143.089 37.3589L144.454 38.8211ZM144.997 37.58V30.74H142.997V37.58H144.997ZM144.997 30.74C144.997 30.71 145.001 30.7298 144.986 30.7803C144.97 30.8342 144.927 30.9388 144.824 31.0421L143.41 29.6279C143.049 29.9885 142.997 30.4546 142.997 30.74H144.997ZM144.824 31.0421C144.651 31.2147 144.483 31.2 144.537 31.2V29.2C144.211 29.2 143.762 29.2753 143.41 29.6279L144.824 31.0421ZM144.537 31.2H146.817V29.2H144.537V31.2ZM146.817 31.2C146.838 31.2 146.806 31.2032 146.744 31.1824C146.676 31.1597 146.57 31.1073 146.474 30.9994L147.969 29.6706C147.613 29.27 147.13 29.2 146.817 29.2V31.2ZM146.557 31.0824C146.449 30.9865 146.397 30.8808 146.374 30.8125C146.354 30.7503 146.357 30.7188 146.357 30.74H148.357C148.357 30.4271 148.287 29.9437 147.886 29.5876L146.557 31.0824ZM146.357 30.74V38.165H148.357V30.74H146.357ZM148.573 40.88L147.826 41.5444L147.865 41.5883L147.909 41.6274L148.573 40.88ZM148.573 30.335L147.866 29.6279L147.866 29.6279L148.573 30.335ZM156.373 31.01L155.639 31.6894L155.639 31.6894L156.373 31.01ZM156.373 37.16L155.639 36.4806L155.639 36.4806L156.373 37.16ZM151.858 37.97V36.97H150.858V37.97H151.858ZM151.723 40.88L151.016 40.1729L151.016 40.1729L151.723 40.88ZM151.828 33.005V32.005H150.828V33.005H151.828ZM151.828 35.27H150.828V36.27H151.828V35.27ZM153.748 35.045L154.606 35.5595L154.606 35.5595L153.748 35.045ZM153.748 33.23L152.891 33.7445L152.891 33.7445L153.748 33.23ZM151.318 40H148.993V42H151.318V40ZM148.993 40C148.964 40 148.979 39.9966 149.02 40.0085C149.065 40.0212 149.149 40.0542 149.238 40.1326L147.909 41.6274C148.262 41.9416 148.693 42 148.993 42V40ZM149.321 40.2156C149.399 40.3038 149.432 40.3882 149.445 40.4328C149.457 40.4745 149.453 40.4887 149.453 40.46H147.453C147.453 40.7602 147.512 41.1909 147.826 41.5444L149.321 40.2156ZM149.453 40.46V30.74H147.453V40.46H149.453ZM149.453 30.74C149.453 30.71 149.457 30.7298 149.442 30.7803C149.426 30.8342 149.384 30.9388 149.28 31.0421L147.866 29.6279C147.505 29.9885 147.453 30.4546 147.453 30.74H149.453ZM149.28 31.0421C149.108 31.2147 148.939 31.2 148.993 31.2V29.2C148.667 29.2 148.219 29.2753 147.866 29.6279L149.28 31.0421ZM148.993 31.2H153.583V29.2H148.993V31.2ZM153.583 31.2C154.88 31.2 155.437 31.4711 155.639 31.6894L157.107 30.3306C156.309 29.4689 155.006 29.2 153.583 29.2V31.2ZM155.639 31.6894C155.938 32.0116 156.123 32.4581 156.123 33.125H158.123C158.123 32.0519 157.809 31.0884 157.107 30.3306L155.639 31.6894ZM156.123 33.125V35.045H158.123V33.125H156.123ZM156.123 35.045C156.123 35.7119 155.938 36.1584 155.639 36.4806L157.107 37.8394C157.809 37.0816 158.123 36.1181 158.123 35.045H156.123ZM155.639 36.4806C155.437 36.6989 154.88 36.97 153.583 36.97V38.97C155.006 38.97 156.309 38.7011 157.107 37.8394L155.639 36.4806ZM153.583 36.97H151.858V38.97H153.583V36.97ZM150.858 37.97V40.46H152.858V37.97H150.858ZM150.858 40.46C150.858 40.5142 150.843 40.3455 151.016 40.1729L152.43 41.5871C152.783 41.2345 152.858 40.7858 152.858 40.46H150.858ZM151.016 40.1729C151.119 40.0696 151.224 40.0271 151.278 40.0112C151.328 39.9962 151.348 40 151.318 40V42C151.604 42 152.07 41.9478 152.43 41.5871L151.016 40.1729ZM150.828 33.005V35.27H152.828V33.005H150.828ZM151.828 36.27H153.178V34.27H151.828V36.27ZM153.178 36.27C153.581 36.27 154.239 36.1706 154.606 35.5595L152.891 34.5305C152.977 34.3863 153.097 34.3128 153.171 34.2836C153.231 34.2599 153.246 34.27 153.178 34.27V36.27ZM154.606 35.5595C154.797 35.2408 154.883 34.8901 154.883 34.535H152.883C152.883 34.5505 152.881 34.554 152.883 34.5491C152.883 34.5469 152.884 34.5437 152.886 34.54C152.887 34.5363 152.889 34.5331 152.891 34.5305L154.606 35.5595ZM154.883 34.535V33.74H152.883V34.535H154.883ZM154.883 33.74C154.883 33.3849 154.797 33.0342 154.606 32.7155L152.891 33.7445C152.889 33.7419 152.887 33.7387 152.886 33.735C152.884 33.7313 152.883 33.7281 152.883 33.7259C152.881 33.721 152.883 33.7245 152.883 33.74H154.883ZM154.606 32.7155C154.239 32.1044 153.581 32.005 153.178 32.005V34.005C153.246 34.005 153.231 34.0151 153.171 33.9914C153.097 33.9622 152.977 33.8887 152.891 33.7445L154.606 32.7155ZM153.178 32.005H151.828V34.005H153.178V32.005ZM158.513 40.25L157.873 41.0182L157.879 41.0234L158.513 40.25ZM158.513 30.95L157.879 30.1766L157.873 30.1818L158.513 30.95ZM165.458 30.335L164.71 30.9994L164.749 31.0433L164.793 31.0824L165.458 30.335ZM165.458 32.975L166.165 33.6821L165.458 32.975ZM161.243 33.29L161.867 34.0709L161.883 34.0586L161.898 34.0457L161.243 33.29ZM161.183 37.985L160.446 38.6607L160.46 38.6767L160.476 38.6921L161.183 37.985ZM163.163 38.165V39.165H164.163V38.165H163.163ZM166.433 35.42L165.685 36.0844L165.724 36.1283L165.768 36.1674L166.433 35.42ZM166.433 40.88L167.14 41.5871L167.14 41.5871L166.433 40.88ZM166.028 40H161.303V42H166.028V40ZM161.303 40C160.157 40 159.5 39.7659 159.147 39.4766L157.879 41.0234C158.746 41.7341 159.949 42 161.303 42V40ZM159.153 39.4818C158.851 39.23 158.613 38.788 158.613 37.94H156.613C156.613 39.172 156.975 40.27 157.873 41.0182L159.153 39.4818ZM158.613 37.94V33.26H156.613V37.94H158.613ZM158.613 33.26C158.613 32.412 158.851 31.97 159.153 31.7182L157.873 30.1818C156.975 30.93 156.613 32.028 156.613 33.26H158.613ZM159.147 31.7234C159.5 31.4341 160.157 31.2 161.303 31.2V29.2C159.949 29.2 158.746 29.4659 157.879 30.1766L159.147 31.7234ZM161.303 31.2H165.053V29.2H161.303V31.2ZM165.053 31.2C165.074 31.2 165.042 31.2032 164.98 31.1824C164.912 31.1597 164.806 31.1073 164.71 30.9994L166.205 29.6706C165.849 29.27 165.366 29.2 165.053 29.2V31.2ZM164.793 31.0824C164.686 30.9865 164.633 30.8808 164.61 30.8125C164.59 30.7503 164.593 30.7188 164.593 30.74H166.593C166.593 30.4271 166.523 29.9437 166.122 29.5876L164.793 31.0824ZM164.593 30.74V32.555H166.593V30.74H164.593ZM164.593 32.555C164.593 32.6092 164.578 32.4405 164.751 32.2679L166.165 33.6821C166.517 33.3295 166.593 32.8808 166.593 32.555H164.593ZM164.751 32.2679C164.854 32.1646 164.959 32.1221 165.012 32.1062C165.063 32.0912 165.083 32.095 165.053 32.095V34.095C165.338 34.095 165.804 34.0428 166.165 33.6821L164.751 32.2679ZM165.053 32.095H161.933V34.095H165.053V32.095ZM161.933 32.095C161.511 32.095 160.998 32.1791 160.588 32.5343L161.898 34.0457C161.841 34.0944 161.798 34.1067 161.8 34.1061C161.801 34.1057 161.812 34.1028 161.835 34.1C161.858 34.0973 161.89 34.095 161.933 34.095V32.095ZM160.618 32.5091C160.163 32.8732 160.018 33.3902 160.018 33.845H162.018C162.018 33.8175 162.022 33.8416 162.001 33.8945C161.977 33.9542 161.932 34.0196 161.867 34.0709L160.618 32.5091ZM160.018 33.845V37.43H162.018V33.845H160.018ZM160.018 37.43C160.018 37.8007 160.096 38.279 160.446 38.6607L161.92 37.3093C161.985 37.38 162.01 37.4452 162.018 37.4713C162.024 37.4939 162.018 37.4853 162.018 37.43H160.018ZM160.476 38.6921C160.842 39.0585 161.309 39.165 161.708 39.165V37.165C161.677 37.165 161.69 37.1608 161.728 37.1741C161.772 37.1889 161.833 37.2207 161.89 37.2779L160.476 38.6921ZM161.708 39.165H163.163V37.165H161.708V39.165ZM164.163 38.165V35.825H162.163V38.165H164.163ZM164.163 35.825C164.163 35.795 164.167 35.8148 164.152 35.8653C164.136 35.9192 164.093 36.0238 163.99 36.1271L162.576 34.7129C162.215 35.0735 162.163 35.5396 162.163 35.825H164.163ZM163.99 36.1271C163.817 36.2997 163.649 36.285 163.703 36.285V34.285C163.377 34.285 162.928 34.3603 162.576 34.7129L163.99 36.1271ZM163.703 36.285H166.028V34.285H163.703V36.285ZM166.028 36.285C166.049 36.285 166.017 36.2882 165.955 36.2674C165.887 36.2447 165.781 36.1923 165.685 36.0844L167.18 34.7556C166.824 34.355 166.341 34.285 166.028 34.285V36.285ZM165.768 36.1674C165.661 36.0715 165.608 35.9658 165.585 35.8975C165.565 35.8353 165.568 35.8038 165.568 35.825H167.568C167.568 35.5121 167.498 35.0287 167.097 34.6726L165.768 36.1674ZM165.568 35.825V40.46H167.568V35.825H165.568ZM165.568 40.46C165.568 40.5142 165.553 40.3455 165.726 40.1729L167.14 41.5871C167.492 41.2345 167.568 40.7858 167.568 40.46H165.568ZM165.726 40.1729C165.829 40.0696 165.934 40.0271 165.987 40.0112C166.038 39.9962 166.058 40 166.028 40V42C166.313 42 166.779 41.9478 167.14 41.5871L165.726 40.1729ZM170.888 32.9V31.9H169.888V32.9H170.888ZM170.888 34.82H169.888V35.82H170.888V34.82ZM172.538 34.625L173.36 35.1942L173.37 35.1801L173.379 35.1658L172.538 34.625ZM172.538 33.11L171.697 33.6508L171.706 33.6651L171.716 33.6792L172.538 33.11ZM167.618 40.88L166.87 41.5444L166.91 41.5883L166.954 41.6274L167.618 40.88ZM167.618 30.335L166.911 29.6279L166.911 29.6279L167.618 30.335ZM175.343 30.905L174.597 31.5713L174.605 31.5797L174.612 31.5879L175.343 30.905ZM175.793 34.475L174.875 34.0774L174.872 34.085L174.869 34.0926L175.793 34.475ZM175.148 35.105L174.761 34.1828L171.207 35.6733L175.037 36.0989L175.148 35.105ZM176.453 35.765L175.698 36.4207L175.703 36.4263L175.708 36.4318L176.453 35.765ZM176.828 40.88L177.535 41.5871L177.535 41.5871L176.828 40.88ZM173.678 40.88L172.93 41.5444L172.97 41.5883L173.014 41.6274L173.678 40.88ZM173.423 37.685L172.614 38.2732L172.645 38.3153L172.68 38.354L173.423 37.685ZM170.888 37.52V36.52H169.888V37.52H170.888ZM170.753 40.88L170.046 40.1729L170.046 40.1729L170.753 40.88ZM169.888 32.9V34.82H171.888V32.9H169.888ZM170.888 35.82H172.013V33.82H170.888V35.82ZM172.013 35.82C172.387 35.82 172.988 35.7317 173.36 35.1942L171.716 34.0558C171.807 33.9237 171.922 33.8594 171.991 33.8338C172.049 33.8122 172.067 33.82 172.013 33.82V35.82ZM173.379 35.1658C173.592 34.8345 173.673 34.4677 173.673 34.115H171.673C171.673 34.1402 171.67 34.1456 171.672 34.1366C171.674 34.1321 171.676 34.1246 171.68 34.1151C171.684 34.1055 171.69 34.095 171.697 34.0842L173.379 35.1658ZM173.673 34.115V33.605H171.673V34.115H173.673ZM173.673 33.605C173.673 33.2556 173.593 32.8775 173.36 32.5408L171.716 33.6792C171.691 33.6437 171.679 33.6123 171.674 33.5944C171.67 33.5781 171.673 33.5793 171.673 33.605H173.673ZM173.379 32.5692C173.018 32.0076 172.413 31.9 172.013 31.9V33.9C172.061 33.9 172.034 33.9075 171.968 33.881C171.889 33.8494 171.779 33.7784 171.697 33.6508L173.379 32.5692ZM172.013 31.9H170.888V33.9H172.013V31.9ZM170.348 40H168.038V42H170.348V40ZM168.038 40C168.009 40 168.023 39.9966 168.065 40.0085C168.11 40.0212 168.194 40.0542 168.282 40.1326L166.954 41.6274C167.307 41.9416 167.738 42 168.038 42V40ZM168.365 40.2156C168.444 40.3038 168.477 40.3882 168.489 40.4328C168.501 40.4745 168.498 40.4887 168.498 40.46H166.498C166.498 40.7602 166.556 41.1909 166.87 41.5444L168.365 40.2156ZM168.498 40.46V30.74H166.498V40.46H168.498ZM168.498 30.74C168.498 30.71 168.502 30.7298 168.487 30.7803C168.471 30.8342 168.428 30.9388 168.325 31.0421L166.911 29.6279C166.55 29.9885 166.498 30.4546 166.498 30.74H168.498ZM168.325 31.0421C168.152 31.2147 167.984 31.2 168.038 31.2V29.2C167.712 29.2 167.263 29.2753 166.911 29.6279L168.325 31.0421ZM168.038 31.2H173.033V29.2H168.038V31.2ZM173.033 31.2C174.075 31.2 174.471 31.4301 174.597 31.5713L176.089 30.2387C175.375 29.4399 174.231 29.2 173.033 29.2V31.2ZM174.612 31.5879C174.839 31.8307 174.988 32.1712 174.988 32.705H176.988C176.988 31.7588 176.706 30.8993 176.073 30.2221L174.612 31.5879ZM174.988 32.705V33.395H176.988V32.705H174.988ZM174.988 33.395C174.988 33.7156 174.938 33.9331 174.875 34.0774L176.71 34.8726C176.908 34.4169 176.988 33.9144 176.988 33.395H174.988ZM174.869 34.0926C174.857 34.1204 174.847 34.1468 174.761 34.1828L175.535 36.0272C176.069 35.8032 176.488 35.4096 176.717 34.8574L174.869 34.0926ZM175.037 36.0989C175.349 36.1335 175.546 36.2462 175.698 36.4207L177.208 35.1093C176.699 34.5238 176.026 34.1965 175.258 34.1111L175.037 36.0989ZM175.708 36.4318C175.847 36.5879 175.963 36.8356 175.963 37.28H177.963C177.963 36.4644 177.738 35.7021 177.198 35.0982L175.708 36.4318ZM175.963 37.28V40.46H177.963V37.28H175.963ZM175.963 40.46C175.963 40.5142 175.948 40.3455 176.121 40.1729L177.535 41.5871C177.888 41.2345 177.963 40.7858 177.963 40.46H175.963ZM176.121 40.1729C176.224 40.0696 176.329 40.0271 176.383 40.0112C176.433 39.9962 176.453 40 176.423 40V42C176.708 42 177.174 41.9478 177.535 41.5871L176.121 40.1729ZM176.423 40H174.098V42H176.423V40ZM174.098 40C174.069 40 174.083 39.9966 174.125 40.0085C174.17 40.0212 174.254 40.0542 174.342 40.1326L173.014 41.6274C173.367 41.9416 173.798 42 174.098 42V40ZM174.425 40.2156C174.504 40.3038 174.537 40.3882 174.549 40.4328C174.561 40.4745 174.558 40.4887 174.558 40.46H172.558C172.558 40.7602 172.616 41.1909 172.93 41.5444L174.425 40.2156ZM174.558 40.46V38.165H172.558V40.46H174.558ZM174.558 38.165C174.558 37.8453 174.499 37.3857 174.166 37.016L172.68 38.354C172.601 38.2661 172.571 38.1845 172.561 38.1507C172.553 38.1195 172.558 38.1189 172.558 38.165H174.558ZM174.232 37.0968C173.878 36.6111 173.339 36.52 172.988 36.52V38.52C173.012 38.52 172.973 38.524 172.899 38.4962C172.816 38.4647 172.704 38.3967 172.614 38.2732L174.232 37.0968ZM172.988 36.52H170.888V38.52H172.988V36.52ZM169.888 37.52V40.46H171.888V37.52H169.888ZM169.888 40.46C169.888 40.5142 169.873 40.3455 170.046 40.1729L171.46 41.5871C171.813 41.2345 171.888 40.7858 171.888 40.46H169.888ZM170.046 40.1729C170.149 40.0696 170.254 40.0271 170.308 40.0112C170.358 39.9962 170.378 40 170.348 40V42C170.633 42 171.099 41.9478 171.46 41.5871L170.046 40.1729ZM181.66 33.35L180.747 32.9439L180.722 32.998L180.705 33.0546L181.66 33.35ZM180.955 35.63L180 35.3346L179.599 36.63H180.955V35.63ZM183.31 35.63V36.63H184.666L184.266 35.3346L183.31 35.63ZM182.605 33.35L183.561 33.0546L183.543 32.998L183.519 32.9439L182.605 33.35ZM182.47 33.155L181.763 33.8621L181.802 33.9013L181.846 33.9359L182.47 33.155ZM181.78 33.155L181.156 32.3741L181.112 32.4087L181.073 32.4479L181.78 33.155ZM180.67 40.88L179.963 40.1729L179.963 40.1729L180.67 40.88ZM177.64 40.88L176.893 41.5444L176.932 41.5883L176.976 41.6274L177.64 40.88ZM177.655 35.465L176.687 35.2166L176.684 35.2283L176.681 35.2401L177.655 35.465ZM178.105 34.1L179.039 34.459L179.039 34.4579L178.105 34.1ZM179.41 30.695L180.344 31.0529L180.349 31.0404L180.353 31.0278L179.41 30.695ZM179.68 30.32L179.156 29.4683L179.141 29.4779L179.126 29.4879L179.68 30.32ZM184.675 30.32L184.121 31.152L184.136 31.1621L184.151 31.1717L184.675 30.32ZM184.96 30.695L184.017 31.0278L184.022 31.0404L184.027 31.0529L184.96 30.695ZM186.265 34.1L185.332 34.4579L185.332 34.459L186.265 34.1ZM186.7 35.465L185.726 35.6899L185.729 35.7017L185.732 35.7134L186.7 35.465ZM186.715 40.88L187.422 41.5871L187.422 41.5871L186.715 40.88ZM183.595 40.88L182.888 41.5871L182.927 41.6263L182.971 41.6609L183.595 40.88ZM183.46 38.36H184.46V37.36H183.46V38.36ZM180.805 38.36V37.36H179.805V38.36H180.805ZM180.705 33.0546L180 35.3346L181.911 35.9254L182.616 33.6454L180.705 33.0546ZM180.955 36.63H183.31V34.63H180.955V36.63ZM184.266 35.3346L183.561 33.0546L181.65 33.6454L182.355 35.9254L184.266 35.3346ZM183.519 32.9439C183.446 32.7791 183.319 32.5536 183.095 32.3741L181.846 33.9359C181.78 33.883 181.74 33.8323 181.719 33.803C181.709 33.7876 181.702 33.7755 181.698 33.768C181.693 33.7605 181.692 33.7562 181.692 33.7561L183.519 32.9439ZM183.177 32.4479C182.938 32.2081 182.628 32.095 182.32 32.095V34.095C182.238 34.095 182.137 34.0808 182.031 34.0385C181.924 33.9957 181.834 33.9329 181.763 33.8621L183.177 32.4479ZM182.32 32.095H181.945V34.095H182.32V32.095ZM181.945 32.095C181.642 32.095 181.37 32.2025 181.156 32.3741L182.405 33.9359C182.291 34.0275 182.128 34.095 181.945 34.095V32.095ZM181.073 32.4479C180.905 32.6163 180.805 32.8122 180.747 32.9439L182.574 33.7561C182.581 33.7408 182.581 33.7434 182.572 33.7578C182.564 33.7703 182.538 33.8116 182.487 33.8621L181.073 32.4479ZM179.805 40.46C179.805 40.5142 179.791 40.3455 179.963 40.1729L181.377 41.5871C181.73 41.2345 181.805 40.7858 181.805 40.46H179.805ZM179.963 40.1729C180.067 40.0696 180.171 40.0271 180.225 40.0112C180.276 39.9962 180.295 40 180.265 40V42C180.551 42 181.017 41.9478 181.377 41.5871L179.963 40.1729ZM180.265 40H178.06V42H180.265V40ZM178.06 40C178.032 40 178.046 39.9966 178.088 40.0085C178.132 40.0212 178.217 40.0542 178.305 40.1326L176.976 41.6274C177.329 41.9416 177.76 42 178.06 42V40ZM178.388 40.2156C178.466 40.3038 178.499 40.3882 178.512 40.4328C178.524 40.4745 178.52 40.4887 178.52 40.46H176.52C176.52 40.7602 176.579 41.1909 176.893 41.5444L178.388 40.2156ZM178.52 40.46V36.5H176.52V40.46H178.52ZM178.52 36.5C178.52 36.296 178.551 36.029 178.63 35.6899L176.681 35.2401C176.579 35.681 176.52 36.104 176.52 36.5H178.52ZM178.624 35.7134C178.712 35.372 178.848 34.9554 179.039 34.459L177.172 33.741C176.963 34.2846 176.799 34.778 176.687 35.2166L178.624 35.7134ZM179.039 34.4579L180.344 31.0529L178.477 30.3371L177.172 33.7421L179.039 34.4579ZM180.353 31.0278C180.357 31.0176 180.353 31.0316 180.334 31.0581C180.314 31.0862 180.281 31.1211 180.235 31.1521L179.126 29.4879C178.785 29.7152 178.581 30.0399 178.467 30.3622L180.353 31.0278ZM180.204 31.1717C180.171 31.1924 180.145 31.1999 180.137 31.2018C180.13 31.2035 180.141 31.2 180.175 31.2V29.2C179.846 29.2 179.486 29.2656 179.156 29.4683L180.204 31.1717ZM180.175 31.2H184.21V29.2H180.175V31.2ZM184.21 31.2C184.265 31.2 184.21 31.2114 184.121 31.152L185.23 29.488C184.901 29.2686 184.536 29.2 184.21 29.2V31.2ZM184.151 31.1717C184.108 31.1451 184.073 31.1118 184.048 31.0788C184.024 31.0475 184.017 31.0264 184.017 31.0278L185.903 30.3622C185.782 30.0172 185.558 29.6891 185.199 29.4683L184.151 31.1717ZM184.027 31.0529L185.332 34.4579L187.199 33.7421L185.894 30.3371L184.027 31.0529ZM185.332 34.459C185.521 34.9508 185.65 35.3592 185.726 35.6899L187.675 35.2401C187.571 34.7908 187.41 34.2892 187.199 33.741L185.332 34.459ZM185.732 35.7134C185.817 36.048 185.85 36.3067 185.85 36.5H187.85C187.85 36.0933 187.783 35.662 187.669 35.2166L185.732 35.7134ZM185.85 36.5V40.46H187.85V36.5H185.85ZM185.85 40.46C185.85 40.5142 185.836 40.3455 186.008 40.1729L187.422 41.5871C187.775 41.2345 187.85 40.7858 187.85 40.46H185.85ZM186.008 40.1729C186.112 40.0696 186.216 40.0271 186.27 40.0112C186.321 39.9962 186.34 40 186.31 40V42C186.596 42 187.062 41.9478 187.422 41.5871L186.008 40.1729ZM186.31 40H184.045V42H186.31V40ZM184.045 40C184.009 40 184.011 39.996 184.041 40.0038C184.072 40.012 184.141 40.0363 184.22 40.0991L182.971 41.6609C183.323 41.943 183.739 42 184.045 42V40ZM184.302 40.1729C184.475 40.3455 184.46 40.5142 184.46 40.46H182.46C182.46 40.7858 182.536 41.2345 182.888 41.5871L184.302 40.1729ZM184.46 40.46V38.36H182.46V40.46H184.46ZM183.46 37.36H180.805V39.36H183.46V37.36ZM179.805 38.36V40.46H181.805V38.36H179.805ZM187.922 40.88L187.175 41.5444L187.214 41.5883L187.258 41.6274L187.922 40.88ZM187.922 30.335L187.215 29.6279L187.215 29.6279L187.922 30.335ZM196.172 30.95L195.532 31.7182L195.538 31.7234L196.172 30.95ZM196.172 40.25L195.538 39.4766L195.532 39.4818L196.172 40.25ZM191.207 33.065V32.065H190.207V33.065H191.207ZM191.207 38.165H190.207V39.165H191.207V38.165ZM193.517 37.985L192.81 37.2779L192.795 37.2933L192.78 37.3093L193.517 37.985ZM193.517 33.245L192.78 33.9207L192.81 33.9528L192.842 33.9822L193.517 33.245ZM193.397 40H188.342V42H193.397V40ZM188.342 40C188.314 40 188.328 39.9966 188.37 40.0085C188.414 40.0212 188.499 40.0542 188.587 40.1326L187.258 41.6274C187.611 41.9416 188.042 42 188.342 42V40ZM188.67 40.2156C188.748 40.3038 188.781 40.3882 188.794 40.4328C188.806 40.4745 188.802 40.4887 188.802 40.46H186.802C186.802 40.7602 186.861 41.1909 187.175 41.5444L188.67 40.2156ZM188.802 40.46V30.74H186.802V40.46H188.802ZM188.802 30.74C188.802 30.71 188.806 30.7298 188.791 30.7803C188.775 30.8342 188.733 30.9388 188.629 31.0421L187.215 29.6279C186.855 29.9885 186.802 30.4546 186.802 30.74H188.802ZM188.629 31.0421C188.457 31.2147 188.288 31.2 188.342 31.2V29.2C188.017 29.2 187.568 29.2753 187.215 29.6279L188.629 31.0421ZM188.342 31.2H193.397V29.2H188.342V31.2ZM193.397 31.2C194.545 31.2 195.192 31.4349 195.532 31.7182L196.813 30.1818C195.953 29.4651 194.75 29.2 193.397 29.2V31.2ZM195.538 31.7234C195.848 31.9769 196.087 32.4173 196.087 33.26H198.087C198.087 32.0227 197.717 30.9231 196.806 30.1766L195.538 31.7234ZM196.087 33.26V37.94H198.087V33.26H196.087ZM196.087 37.94C196.087 38.7827 195.848 39.2231 195.538 39.4766L196.806 41.0234C197.717 40.2769 198.087 39.1773 198.087 37.94H196.087ZM195.532 39.4818C195.192 39.7651 194.545 40 193.397 40V42C194.75 42 195.953 41.7349 196.813 41.0182L195.532 39.4818ZM190.207 33.065V38.165H192.207V33.065H190.207ZM191.207 39.165H192.992V37.165H191.207V39.165ZM192.992 39.165C193.379 39.165 193.88 39.0689 194.255 38.6607L192.78 37.3093C192.853 37.2302 192.931 37.1907 192.979 37.1741C193.022 37.1594 193.033 37.165 192.992 37.165V39.165ZM194.224 38.6921C194.605 38.3117 194.697 37.8203 194.697 37.43H192.697C192.697 37.4786 192.691 37.4787 192.701 37.4477C192.713 37.412 192.743 37.3449 192.81 37.2779L194.224 38.6921ZM194.697 37.43V33.785H192.697V37.43H194.697ZM194.697 33.785C194.697 33.4037 194.609 32.8887 194.193 32.5078L192.842 33.9822C192.757 33.9046 192.718 33.8231 192.704 33.7787C192.691 33.7402 192.697 33.7354 192.697 33.785H194.697ZM194.255 32.5693C193.88 32.1611 193.379 32.065 192.992 32.065V34.065C193.033 34.065 193.022 34.0706 192.979 34.0559C192.931 34.0393 192.853 33.9998 192.78 33.9207L194.255 32.5693ZM192.992 32.065H191.207V34.065H192.992V32.065ZM198.214 40.88L197.466 41.5444L197.505 41.5883L197.549 41.6274L198.214 40.88ZM198.214 30.335L197.507 29.6279L197.507 29.6279L198.214 30.335ZM205.999 30.335L205.251 30.9994L205.29 31.0433L205.334 31.0824L205.999 30.335ZM201.454 33.035V32.035H200.454V33.035H201.454ZM201.454 34.19H200.454V35.19H201.454V34.19ZM204.784 34.325L204.036 34.9894L204.075 35.0333L204.119 35.0724L204.784 34.325ZM204.784 36.755L204.077 36.0479L204.784 36.755ZM201.454 36.875V35.875H200.454V36.875H201.454ZM201.454 38.165H200.454V39.165H201.454V38.165ZM205.999 38.3L205.251 38.9644L205.29 39.0083L205.334 39.0474L205.999 38.3ZM205.999 40.88L206.706 41.5871L206.706 41.5871L205.999 40.88ZM205.594 40H198.634V42H205.594V40ZM198.634 40C198.605 40 198.619 39.9966 198.661 40.0085C198.706 40.0212 198.79 40.0542 198.878 40.1326L197.549 41.6274C197.903 41.9416 198.334 42 198.634 42V40ZM198.961 40.2156C199.04 40.3038 199.073 40.3882 199.085 40.4328C199.097 40.4745 199.094 40.4887 199.094 40.46H197.094C197.094 40.7602 197.152 41.1909 197.466 41.5444L198.961 40.2156ZM199.094 40.46V30.74H197.094V40.46H199.094ZM199.094 30.74C199.094 30.71 199.098 30.7298 199.083 30.7803C199.067 30.8342 199.024 30.9388 198.921 31.0421L197.507 29.6279C197.146 29.9885 197.094 30.4546 197.094 30.74H199.094ZM198.921 31.0421C198.748 31.2147 198.58 31.2 198.634 31.2V29.2C198.308 29.2 197.859 29.2753 197.507 29.6279L198.921 31.0421ZM198.634 31.2H205.594V29.2H198.634V31.2ZM205.594 31.2C205.615 31.2 205.583 31.2032 205.521 31.1824C205.453 31.1597 205.347 31.1073 205.251 30.9994L206.746 29.6706C206.39 29.27 205.907 29.2 205.594 29.2V31.2ZM205.334 31.0824C205.227 30.9865 205.174 30.8808 205.151 30.8125C205.131 30.7503 205.134 30.7188 205.134 30.74H207.134C207.134 30.4271 207.064 29.9437 206.663 29.5876L205.334 31.0824ZM205.134 30.74V32.495H207.134V30.74H205.134ZM205.134 32.495C205.134 32.5492 205.119 32.3805 205.292 32.2079L206.706 33.6221C207.058 33.2695 207.134 32.8208 207.134 32.495H205.134ZM205.292 32.2079C205.395 32.1046 205.5 32.0621 205.553 32.0462C205.604 32.0312 205.624 32.035 205.594 32.035V34.035C205.879 34.035 206.345 33.9828 206.706 33.6221L205.292 32.2079ZM205.594 32.035H201.454V34.035H205.594V32.035ZM200.454 33.035V34.19H202.454V33.035H200.454ZM201.454 35.19H204.379V33.19H201.454V35.19ZM204.379 35.19C204.4 35.19 204.368 35.1932 204.306 35.1724C204.238 35.1497 204.132 35.0973 204.036 34.9894L205.531 33.6606C205.175 33.26 204.692 33.19 204.379 33.19V35.19ZM204.119 35.0724C204.012 34.9765 203.959 34.8708 203.936 34.8025C203.916 34.7403 203.919 34.7088 203.919 34.73H205.919C205.919 34.4171 205.849 33.9337 205.448 33.5776L204.119 35.0724ZM203.919 34.73V36.335H205.919V34.73H203.919ZM203.919 36.335C203.919 36.3892 203.904 36.2205 204.077 36.0479L205.491 37.4621C205.843 37.1095 205.919 36.6608 205.919 36.335H203.919ZM204.077 36.0479C204.18 35.9446 204.285 35.9021 204.338 35.8862C204.389 35.8712 204.409 35.875 204.379 35.875V37.875C204.664 37.875 205.13 37.8228 205.491 37.4621L204.077 36.0479ZM204.379 35.875H201.454V37.875H204.379V35.875ZM200.454 36.875V38.165H202.454V36.875H200.454ZM201.454 39.165H205.594V37.165H201.454V39.165ZM205.594 39.165C205.615 39.165 205.583 39.1682 205.521 39.1474C205.453 39.1247 205.347 39.0723 205.251 38.9644L206.746 37.6356C206.39 37.235 205.907 37.165 205.594 37.165V39.165ZM205.334 39.0474C205.227 38.9515 205.174 38.8458 205.151 38.7775C205.131 38.7153 205.134 38.6838 205.134 38.705H207.134C207.134 38.3921 207.064 37.9087 206.663 37.5526L205.334 39.0474ZM205.134 38.705V40.46H207.134V38.705H205.134ZM205.134 40.46C205.134 40.5142 205.119 40.3455 205.292 40.1729L206.706 41.5871C207.058 41.2345 207.134 40.7858 207.134 40.46H205.134ZM205.292 40.1729C205.395 40.0696 205.5 40.0271 205.553 40.0112C205.604 39.9962 205.624 40 205.594 40V42C205.879 42 206.345 41.9478 206.706 41.5871L205.292 40.1729Z" fill="black" mask="url(#path-8-outside-1_2529_1305)"/>
</g>
<defs>
<filter id="filter0_d_2529_1305" x="138.087" y="30.2" width="68.0471" height="13.025" filterUnits="userSpaceOnUse" color-interpolation-filters="sRGB">
<feFlood flood-opacity="0" result="BackgroundImageFix"/>
<feColorMatrix in="SourceAlpha" type="matrix" values="0 0 0 0 0 0 0 0 0 0 0 0 0 0 0 0 0 0 127 0" result="hardAlpha"/>
<feOffset dy="2"/>
<feComposite in2="hardAlpha" operator="out"/>
<feColorMatrix type="matrix" values="0 0 0 0 0 0 0 0 0 0 0 0 0 0 0 0 0 0 1 0"/>
<feBlend mode="normal" in2="BackgroundImageFix" result="effect1_dropShadow_2529_1305"/>
<feBlend mode="normal" in="SourceGraphic" in2="effect1_dropShadow_2529_1305" result="shape"/>
</filter>
<linearGradient id="paint0_linear_2529_1305" x1="177.733" y1="56.6507" x2="177.733" y2="70.1012" gradientUnits="userSpaceOnUse">
<stop stop-color="#DB8400"/>
<stop offset="1" stop-color="#B94100"/>
</linearGradient>
<linearGradient id="paint1_linear_2529_1305" x1="129.43" y1="64.6157" x2="129.43" y2="3.69263" gradientUnits="userSpaceOnUse">
<stop stop-color="#FFDE00"/>
<stop offset="1" stop-color="#FFE636"/>
</linearGradient>
<linearGradient id="paint2_linear_2529_1305" x1="11.0102" y1="8.04427" x2="27.0415" y2="30.7028" gradientUnits="userSpaceOnUse">
<stop stop-color="white"/>
<stop offset="1" stop-color="white" stop-opacity="0"/>
</linearGradient>
<linearGradient id="paint3_linear_2529_1305" x1="217.527" y1="15.1564" x2="217.527" y2="47.1067" gradientUnits="userSpaceOnUse">
<stop stop-color="#FFDC02"/>
<stop offset="1" stop-color="#FFBB00"/>
</linearGradient>
</defs>
</svg>
