<svg width="54" height="68" viewBox="0 0 54 68" fill="none" xmlns="http://www.w3.org/2000/svg">
<g filter="url(#filter0_iiiii_2766_911)">
<circle cx="27" cy="24" r="24" fill="url(#paint0_linear_2766_911)"/>
</g>
<g filter="url(#filter1_d_2766_911)">
<path fill-rule="evenodd" clip-rule="evenodd" d="M14.55 14.7981C14.55 13.4736 15.6237 12.3999 16.9482 12.3999C18.2727 12.3999 19.3463 13.4736 19.3463 14.7981V15.0672C19.3463 16.3917 18.2727 17.4654 16.9482 17.4654C15.6237 17.4654 14.55 16.3917 14.55 15.0672V14.7981ZM16.9482 20.5046C15.6237 20.5046 14.55 21.5783 14.55 22.9027V23.1719C14.55 24.4964 15.6237 25.5701 16.9482 25.5701C18.2727 25.5701 19.3463 24.4964 19.3463 23.1719V22.9027C19.3463 21.5783 18.2727 20.5046 16.9482 20.5046ZM16.9482 28.6092C15.6237 28.6092 14.55 29.6829 14.55 31.0074V31.2766C14.55 32.601 15.6237 33.6747 16.9482 33.6747C18.2727 33.6747 19.3463 32.601 19.3463 31.2766V31.0074C19.3463 29.6829 18.2727 28.6092 16.9482 28.6092ZM23.7976 28.6092C22.3988 28.6092 21.2649 29.7432 21.2649 31.142C21.2649 32.5408 22.3988 33.6747 23.7976 33.6747H37.9173C39.3161 33.6747 40.4501 32.5408 40.4501 31.142C40.4501 29.7432 39.3161 28.6092 37.9173 28.6092H23.7976ZM21.2649 23.0373C21.2649 21.6385 22.3988 20.5046 23.7976 20.5046H37.9173C39.3161 20.5046 40.4501 21.6385 40.4501 23.0373C40.4501 24.4361 39.3161 25.5701 37.9173 25.5701H23.7976C22.3988 25.5701 21.2649 24.4361 21.2649 23.0373ZM23.7976 12.3999C22.3988 12.3999 21.2649 13.5338 21.2649 14.9326C21.2649 16.3314 22.3988 17.4654 23.7976 17.4654H37.9173C39.3161 17.4654 40.45 16.3314 40.45 14.9326C40.45 13.5338 39.3161 12.3999 37.9173 12.3999H23.7976Z" fill="url(#paint1_linear_2766_911)"/>
</g>
<mask id="path-3-outside-1_2766_911" maskUnits="userSpaceOnUse" x="10" y="50" width="35" height="18" fill="black">
<rect fill="white" x="10" y="50" width="35" height="18"/>
<path d="M18.0821 58.136C18.0821 57.4 17.9541 56.7973 17.6981 56.328C17.4421 55.848 17.0901 55.496 16.6421 55.272C16.2047 55.0373 15.6927 54.92 15.1061 54.92C14.9034 54.92 14.7061 54.9253 14.5141 54.936C14.3221 54.9467 14.1407 54.968 13.9701 55V61.256C14.1301 61.2987 14.3167 61.3307 14.5301 61.352C14.7434 61.3627 14.9514 61.368 15.1541 61.368C16.0607 61.368 16.7754 61.096 17.2981 60.552C17.8207 60.008 18.0821 59.2027 18.0821 58.136ZM20.4341 58.104C20.4341 59.2453 20.2101 60.2 19.7621 60.968C19.3247 61.7253 18.7114 62.2907 17.9221 62.664C17.1327 63.0373 16.2101 63.224 15.1541 63.224C14.8021 63.224 14.3701 63.2027 13.8581 63.16C13.3567 63.1173 12.9034 63.0213 12.4981 62.872C11.9541 62.68 11.6821 62.344 11.6821 61.864V54.136C11.6821 53.9227 11.7407 53.7627 11.8581 53.656C11.9754 53.5387 12.1301 53.448 12.3221 53.384C12.7381 53.2453 13.1861 53.1547 13.6661 53.112C14.1461 53.0693 14.5887 53.048 14.9941 53.048C16.0821 53.048 17.0314 53.2347 17.8421 53.608C18.6527 53.9707 19.2874 54.5253 19.7461 55.272C20.2047 56.0187 20.4341 56.9627 20.4341 58.104ZM24.3402 61.576C24.6175 61.576 24.8735 61.5493 25.1082 61.496C25.3535 61.4427 25.5349 61.3787 25.6522 61.304V59.672L24.2122 59.8C23.8282 59.832 23.5295 59.9173 23.3162 60.056C23.1029 60.1947 22.9962 60.3973 22.9962 60.664C22.9962 60.9413 23.1029 61.1653 23.3162 61.336C23.5295 61.496 23.8709 61.576 24.3402 61.576ZM24.2602 55.128C25.3375 55.128 26.1962 55.3573 26.8362 55.816C27.4869 56.264 27.8122 56.9733 27.8122 57.944V61.592C27.8122 61.8587 27.7429 62.072 27.6042 62.232C27.4762 62.3813 27.3109 62.52 27.1082 62.648C26.7989 62.8293 26.4095 62.9733 25.9402 63.08C25.4709 63.1867 24.9375 63.24 24.3402 63.24C23.2629 63.24 22.4042 63.032 21.7642 62.616C21.1349 62.2 20.8202 61.576 20.8202 60.744C20.8202 60.0187 21.0442 59.464 21.4922 59.08C21.9402 58.696 22.6069 58.4613 23.4922 58.376L25.6362 58.152V57.912C25.6362 57.528 25.4922 57.2507 25.2042 57.08C24.9162 56.9093 24.5109 56.824 23.9882 56.824C23.5829 56.824 23.1829 56.8773 22.7882 56.984C22.3935 57.08 22.0415 57.1973 21.7322 57.336C21.6149 57.2507 21.5135 57.128 21.4282 56.968C21.3429 56.7973 21.3002 56.6213 21.3002 56.44C21.3002 56.0133 21.5295 55.704 21.9882 55.512C22.2975 55.384 22.6549 55.288 23.0602 55.224C23.4655 55.16 23.8655 55.128 24.2602 55.128ZM28.8409 53.128C28.8409 52.7867 28.9583 52.4987 29.1929 52.264C29.4276 52.0293 29.7316 51.912 30.1049 51.912C30.4783 51.912 30.7823 52.0293 31.0169 52.264C31.2516 52.4987 31.3689 52.7867 31.3689 53.128C31.3689 53.4693 31.2516 53.7627 31.0169 54.008C30.7823 54.2427 30.4783 54.36 30.1049 54.36C29.7316 54.36 29.4276 54.2427 29.1929 54.008C28.9583 53.7627 28.8409 53.4693 28.8409 53.128ZM28.9849 58.776H31.2249V62.984C31.1289 63.0053 30.9903 63.032 30.8089 63.064C30.6276 63.096 30.4303 63.112 30.2169 63.112C29.7903 63.112 29.4756 63.0373 29.2729 62.888C29.0809 62.7387 28.9849 62.4667 28.9849 62.072V58.776ZM31.2249 59.928H28.9849V55.432C29.0809 55.4107 29.2196 55.384 29.4009 55.352C29.5823 55.32 29.7796 55.304 29.9929 55.304C30.4196 55.304 30.7289 55.3787 30.9209 55.528C31.1236 55.6773 31.2249 55.9547 31.2249 56.36V59.928ZM32.5138 58.776L34.7378 58.84V62.984C34.6418 63.0053 34.5031 63.032 34.3218 63.064C34.1405 63.096 33.9431 63.112 33.7298 63.112C33.3138 63.112 33.0045 63.0373 32.8018 62.888C32.6098 62.7387 32.5138 62.4667 32.5138 62.072V58.776ZM34.7378 59.992L32.5138 59.928V52.584C32.6098 52.5627 32.7485 52.536 32.9298 52.504C33.1111 52.472 33.3085 52.456 33.5218 52.456C33.9485 52.456 34.2578 52.5307 34.4498 52.68C34.6418 52.8293 34.7378 53.1013 34.7378 53.496V59.992ZM37.2736 61.128C37.1029 60.776 36.9162 60.344 36.7136 59.832C36.5109 59.32 36.2976 58.7227 36.0736 58.04C35.8496 57.3573 35.6149 56.5733 35.3696 55.688C35.4976 55.5493 35.6629 55.4373 35.8656 55.352C36.0789 55.256 36.3082 55.208 36.5536 55.208C36.8629 55.208 37.1136 55.2773 37.3056 55.416C37.5082 55.544 37.6629 55.784 37.7696 56.136C38.0256 56.936 38.2816 57.7307 38.5376 58.52C38.7936 59.2987 39.0602 60.088 39.3376 60.888H39.4016C39.5936 60.408 39.7856 59.864 39.9776 59.256C40.1696 58.6373 40.3509 57.9973 40.5216 57.336C40.6922 56.6747 40.8362 56.0453 40.9536 55.448C41.1029 55.3733 41.2522 55.3147 41.4016 55.272C41.5616 55.2293 41.7322 55.208 41.9136 55.208C42.2229 55.208 42.4896 55.2773 42.7136 55.416C42.9376 55.544 43.0496 55.768 43.0496 56.088C43.0496 56.376 43.0016 56.7387 42.9056 57.176C42.8202 57.6027 42.6976 58.072 42.5376 58.584C42.3882 59.0853 42.2122 59.608 42.0096 60.152C41.8069 60.6853 41.5936 61.2027 41.3696 61.704C41.1456 62.2053 40.9162 62.6533 40.6816 63.048C40.1269 64.04 39.6096 64.7813 39.1296 65.272C38.6602 65.7733 38.1909 66.024 37.7216 66.024C37.3589 66.024 37.0602 65.912 36.8256 65.688C36.5909 65.4747 36.4522 65.1973 36.4096 64.856C36.6336 64.664 36.8682 64.4347 37.1136 64.168C37.3696 63.912 37.6149 63.6347 37.8496 63.336C38.0842 63.0373 38.2869 62.7493 38.4576 62.472C38.2762 62.4187 38.0896 62.3013 37.8976 62.12C37.7056 61.9387 37.4976 61.608 37.2736 61.128Z"/>
</mask>
<path d="M18.0821 58.136C18.0821 57.4 17.9541 56.7973 17.6981 56.328C17.4421 55.848 17.0901 55.496 16.6421 55.272C16.2047 55.0373 15.6927 54.92 15.1061 54.92C14.9034 54.92 14.7061 54.9253 14.5141 54.936C14.3221 54.9467 14.1407 54.968 13.9701 55V61.256C14.1301 61.2987 14.3167 61.3307 14.5301 61.352C14.7434 61.3627 14.9514 61.368 15.1541 61.368C16.0607 61.368 16.7754 61.096 17.2981 60.552C17.8207 60.008 18.0821 59.2027 18.0821 58.136ZM20.4341 58.104C20.4341 59.2453 20.2101 60.2 19.7621 60.968C19.3247 61.7253 18.7114 62.2907 17.9221 62.664C17.1327 63.0373 16.2101 63.224 15.1541 63.224C14.8021 63.224 14.3701 63.2027 13.8581 63.16C13.3567 63.1173 12.9034 63.0213 12.4981 62.872C11.9541 62.68 11.6821 62.344 11.6821 61.864V54.136C11.6821 53.9227 11.7407 53.7627 11.8581 53.656C11.9754 53.5387 12.1301 53.448 12.3221 53.384C12.7381 53.2453 13.1861 53.1547 13.6661 53.112C14.1461 53.0693 14.5887 53.048 14.9941 53.048C16.0821 53.048 17.0314 53.2347 17.8421 53.608C18.6527 53.9707 19.2874 54.5253 19.7461 55.272C20.2047 56.0187 20.4341 56.9627 20.4341 58.104ZM24.3402 61.576C24.6175 61.576 24.8735 61.5493 25.1082 61.496C25.3535 61.4427 25.5349 61.3787 25.6522 61.304V59.672L24.2122 59.8C23.8282 59.832 23.5295 59.9173 23.3162 60.056C23.1029 60.1947 22.9962 60.3973 22.9962 60.664C22.9962 60.9413 23.1029 61.1653 23.3162 61.336C23.5295 61.496 23.8709 61.576 24.3402 61.576ZM24.2602 55.128C25.3375 55.128 26.1962 55.3573 26.8362 55.816C27.4869 56.264 27.8122 56.9733 27.8122 57.944V61.592C27.8122 61.8587 27.7429 62.072 27.6042 62.232C27.4762 62.3813 27.3109 62.52 27.1082 62.648C26.7989 62.8293 26.4095 62.9733 25.9402 63.08C25.4709 63.1867 24.9375 63.24 24.3402 63.24C23.2629 63.24 22.4042 63.032 21.7642 62.616C21.1349 62.2 20.8202 61.576 20.8202 60.744C20.8202 60.0187 21.0442 59.464 21.4922 59.08C21.9402 58.696 22.6069 58.4613 23.4922 58.376L25.6362 58.152V57.912C25.6362 57.528 25.4922 57.2507 25.2042 57.08C24.9162 56.9093 24.5109 56.824 23.9882 56.824C23.5829 56.824 23.1829 56.8773 22.7882 56.984C22.3935 57.08 22.0415 57.1973 21.7322 57.336C21.6149 57.2507 21.5135 57.128 21.4282 56.968C21.3429 56.7973 21.3002 56.6213 21.3002 56.44C21.3002 56.0133 21.5295 55.704 21.9882 55.512C22.2975 55.384 22.6549 55.288 23.0602 55.224C23.4655 55.16 23.8655 55.128 24.2602 55.128ZM28.8409 53.128C28.8409 52.7867 28.9583 52.4987 29.1929 52.264C29.4276 52.0293 29.7316 51.912 30.1049 51.912C30.4783 51.912 30.7823 52.0293 31.0169 52.264C31.2516 52.4987 31.3689 52.7867 31.3689 53.128C31.3689 53.4693 31.2516 53.7627 31.0169 54.008C30.7823 54.2427 30.4783 54.36 30.1049 54.36C29.7316 54.36 29.4276 54.2427 29.1929 54.008C28.9583 53.7627 28.8409 53.4693 28.8409 53.128ZM28.9849 58.776H31.2249V62.984C31.1289 63.0053 30.9903 63.032 30.8089 63.064C30.6276 63.096 30.4303 63.112 30.2169 63.112C29.7903 63.112 29.4756 63.0373 29.2729 62.888C29.0809 62.7387 28.9849 62.4667 28.9849 62.072V58.776ZM31.2249 59.928H28.9849V55.432C29.0809 55.4107 29.2196 55.384 29.4009 55.352C29.5823 55.32 29.7796 55.304 29.9929 55.304C30.4196 55.304 30.7289 55.3787 30.9209 55.528C31.1236 55.6773 31.2249 55.9547 31.2249 56.36V59.928ZM32.5138 58.776L34.7378 58.84V62.984C34.6418 63.0053 34.5031 63.032 34.3218 63.064C34.1405 63.096 33.9431 63.112 33.7298 63.112C33.3138 63.112 33.0045 63.0373 32.8018 62.888C32.6098 62.7387 32.5138 62.4667 32.5138 62.072V58.776ZM34.7378 59.992L32.5138 59.928V52.584C32.6098 52.5627 32.7485 52.536 32.9298 52.504C33.1111 52.472 33.3085 52.456 33.5218 52.456C33.9485 52.456 34.2578 52.5307 34.4498 52.68C34.6418 52.8293 34.7378 53.1013 34.7378 53.496V59.992ZM37.2736 61.128C37.1029 60.776 36.9162 60.344 36.7136 59.832C36.5109 59.32 36.2976 58.7227 36.0736 58.04C35.8496 57.3573 35.6149 56.5733 35.3696 55.688C35.4976 55.5493 35.6629 55.4373 35.8656 55.352C36.0789 55.256 36.3082 55.208 36.5536 55.208C36.8629 55.208 37.1136 55.2773 37.3056 55.416C37.5082 55.544 37.6629 55.784 37.7696 56.136C38.0256 56.936 38.2816 57.7307 38.5376 58.52C38.7936 59.2987 39.0602 60.088 39.3376 60.888H39.4016C39.5936 60.408 39.7856 59.864 39.9776 59.256C40.1696 58.6373 40.3509 57.9973 40.5216 57.336C40.6922 56.6747 40.8362 56.0453 40.9536 55.448C41.1029 55.3733 41.2522 55.3147 41.4016 55.272C41.5616 55.2293 41.7322 55.208 41.9136 55.208C42.2229 55.208 42.4896 55.2773 42.7136 55.416C42.9376 55.544 43.0496 55.768 43.0496 56.088C43.0496 56.376 43.0016 56.7387 42.9056 57.176C42.8202 57.6027 42.6976 58.072 42.5376 58.584C42.3882 59.0853 42.2122 59.608 42.0096 60.152C41.8069 60.6853 41.5936 61.2027 41.3696 61.704C41.1456 62.2053 40.9162 62.6533 40.6816 63.048C40.1269 64.04 39.6096 64.7813 39.1296 65.272C38.6602 65.7733 38.1909 66.024 37.7216 66.024C37.3589 66.024 37.0602 65.912 36.8256 65.688C36.5909 65.4747 36.4522 65.1973 36.4096 64.856C36.6336 64.664 36.8682 64.4347 37.1136 64.168C37.3696 63.912 37.6149 63.6347 37.8496 63.336C38.0842 63.0373 38.2869 62.7493 38.4576 62.472C38.2762 62.4187 38.0896 62.3013 37.8976 62.12C37.7056 61.9387 37.4976 61.608 37.2736 61.128Z" fill="white"/>
<path d="M17.6981 56.328L16.8157 56.7986L16.8202 56.8069L17.6981 56.328ZM16.6421 55.272L16.1692 56.1532L16.182 56.16L16.1948 56.1664L16.6421 55.272ZM14.5141 54.936L14.4586 53.9375L14.5141 54.936ZM13.9701 55L13.7858 54.0171L12.9701 54.1701V55H13.9701ZM13.9701 61.256H12.9701V62.0243L13.7124 62.2222L13.9701 61.256ZM14.5301 61.352L14.4306 62.347L14.4553 62.3495L14.4801 62.3508L14.5301 61.352ZM17.2981 60.552L16.577 59.8592L17.2981 60.552ZM19.7621 60.968L18.8983 60.4641L18.8961 60.4679L19.7621 60.968ZM17.9221 62.664L18.3496 63.568L17.9221 62.664ZM13.8581 63.16L13.7733 64.1564L13.775 64.1565L13.8581 63.16ZM12.4981 62.872L12.8438 61.9336L12.8309 61.929L12.4981 62.872ZM11.8581 53.656L12.5307 54.3959L12.5483 54.3799L12.5652 54.3631L11.8581 53.656ZM12.3221 53.384L12.6383 54.3327L12.6383 54.3327L12.3221 53.384ZM17.8421 53.608L17.4237 54.5164L17.4337 54.5208L17.8421 53.608ZM19.7461 55.272L18.894 55.7954L19.7461 55.272ZM19.0821 58.136C19.0821 57.2926 18.9366 56.5103 18.576 55.8491L16.8202 56.8069C16.9715 57.0844 17.0821 57.5073 17.0821 58.136H19.0821ZM18.5804 55.8574C18.2357 55.211 17.7389 54.7024 17.0893 54.3776L16.1948 56.1664C16.4412 56.2896 16.6485 56.485 16.8157 56.7986L18.5804 55.8574ZM17.1149 54.3908C16.5078 54.0651 15.8277 53.92 15.1061 53.92V55.92C15.5578 55.92 15.9016 56.0096 16.1692 56.1532L17.1149 54.3908ZM15.1061 53.92C14.8859 53.92 14.67 53.9258 14.4586 53.9375L14.5695 55.9345C14.7421 55.9249 14.9209 55.92 15.1061 55.92V53.92ZM14.4586 53.9375C14.2279 53.9504 14.0032 53.9764 13.7858 54.0171L14.1544 55.9829C14.2782 55.9596 14.4162 55.943 14.5695 55.9345L14.4586 53.9375ZM12.9701 55V61.256H14.9701V55H12.9701ZM13.7124 62.2222C13.9368 62.2821 14.1785 62.3218 14.4306 62.347L14.6296 60.357C14.455 60.3395 14.3233 60.3153 14.2277 60.2898L13.7124 62.2222ZM14.4801 62.3508C14.7092 62.3622 14.9339 62.368 15.1541 62.368V60.368C14.9689 60.368 14.7776 60.3631 14.58 60.3532L14.4801 62.3508ZM15.1541 62.368C16.2737 62.368 17.2706 62.024 18.0192 61.2448L16.577 59.8592C16.2802 60.168 15.8477 60.368 15.1541 60.368V62.368ZM18.0192 61.2448C18.7835 60.4493 19.0821 59.3535 19.0821 58.136H17.0821C17.0821 59.0518 16.858 59.5667 16.577 59.8592L18.0192 61.2448ZM19.4341 58.104C19.4341 59.1175 19.2352 59.8866 18.8983 60.4641L20.6258 61.4719C21.185 60.5134 21.4341 59.3732 21.4341 58.104H19.4341ZM18.8961 60.4679C18.5603 61.0495 18.0997 61.4738 17.4945 61.76L18.3496 63.568C19.3231 63.1076 20.0892 62.4012 20.628 61.4681L18.8961 60.4679ZM17.4945 61.76C16.8639 62.0583 16.0927 62.224 15.1541 62.224V64.224C16.3275 64.224 17.4016 64.0164 18.3496 63.568L17.4945 61.76ZM15.1541 62.224C14.8392 62.224 14.4368 62.2048 13.9411 62.1635L13.775 64.1565C14.3033 64.2006 14.7649 64.224 15.1541 64.224V62.224ZM13.9429 62.1636C13.5164 62.1273 13.1527 62.0475 12.8438 61.9337L12.1524 63.8103C12.6541 63.9952 13.197 64.1074 13.7733 64.1564L13.9429 62.1636ZM12.8309 61.929C12.6765 61.8745 12.6503 61.8307 12.6633 61.8468C12.6704 61.8555 12.6776 61.8684 12.6817 61.8808C12.6854 61.8918 12.6821 61.8889 12.6821 61.864H10.6821C10.6821 62.3062 10.8127 62.7394 11.1088 63.1052C11.3939 63.4573 11.7756 63.6775 12.1652 63.815L12.8309 61.929ZM12.6821 61.864V54.136H10.6821V61.864H12.6821ZM12.6821 54.136C12.6821 54.1184 12.6848 54.1462 12.6649 54.2003C12.643 54.2601 12.6002 54.3328 12.5307 54.3959L11.1854 52.9161C10.7946 53.2713 10.6821 53.7427 10.6821 54.136H12.6821ZM12.5652 54.3631C12.5512 54.3771 12.5617 54.3582 12.6383 54.3327L12.0058 52.4353C11.6984 52.5378 11.3996 52.7003 11.151 52.9489L12.5652 54.3631ZM12.6383 54.3327C12.9736 54.2209 13.3445 54.1445 13.7546 54.1081L13.5775 52.1159C13.0276 52.1648 12.5025 52.2698 12.0058 52.4353L12.6383 54.3327ZM13.7546 54.1081C14.2105 54.0676 14.6232 54.048 14.9941 54.048V52.048C14.5543 52.048 14.0817 52.0711 13.5775 52.1159L13.7546 54.1081ZM14.9941 54.048C15.9686 54.048 16.7698 54.2151 17.4238 54.5163L18.2604 52.6997C17.293 52.2542 16.1955 52.048 14.9941 52.048V54.048ZM17.4337 54.5208C18.0633 54.8025 18.5422 55.2227 18.894 55.7954L20.5981 54.7486C20.0326 53.828 19.2422 53.1389 18.2504 52.6952L17.4337 54.5208ZM18.894 55.7954C19.2308 56.3437 19.4341 57.0927 19.4341 58.104H21.4341C21.4341 56.8327 21.1787 55.6936 20.5981 54.7486L18.894 55.7954ZM25.1082 61.496L24.8957 60.5188L24.8866 60.5209L25.1082 61.496ZM25.6522 61.304L26.1891 62.1477L26.6522 61.8529V61.304H25.6522ZM25.6522 59.672H26.6522V58.5792L25.5636 58.6759L25.6522 59.672ZM24.2122 59.8L24.2952 60.7966L24.3007 60.7961L24.2122 59.8ZM23.3162 60.056L22.7712 59.2176V59.2176L23.3162 60.056ZM23.3162 61.336L22.6915 62.1169L22.7037 62.1266L22.7162 62.136L23.3162 61.336ZM26.8362 55.816L26.2537 56.6288L26.2613 56.6343L26.2691 56.6396L26.8362 55.816ZM27.6042 62.232L26.8485 61.5771L26.8449 61.5812L27.6042 62.232ZM27.1082 62.648L27.6139 63.5107L27.6282 63.5023L27.6422 63.4935L27.1082 62.648ZM25.9402 63.08L26.1618 64.0551L25.9402 63.08ZM21.7642 62.616L21.2127 63.4502L21.2192 63.4544L21.7642 62.616ZM21.4922 59.08L22.143 59.8393V59.8393L21.4922 59.08ZM23.4922 58.376L23.5881 59.3714L23.5961 59.3706L23.4922 58.376ZM25.6362 58.152L25.7401 59.1466L26.6362 59.053V58.152H25.6362ZM22.7882 56.984L23.0245 57.9557L23.0369 57.9527L23.0491 57.9494L22.7882 56.984ZM21.7322 57.336L21.144 58.1447L21.6126 58.4855L22.1412 58.2485L21.7322 57.336ZM21.4282 56.968L20.5338 57.4152L20.5396 57.427L20.5458 57.4386L21.4282 56.968ZM21.9882 55.512L21.6058 54.588L21.602 54.5896L21.9882 55.512ZM23.0602 55.224L22.9042 54.2362L23.0602 55.224ZM24.3402 62.576C24.6811 62.576 25.0124 62.5433 25.3298 62.4711L24.8866 60.5209C24.7346 60.5554 24.554 60.576 24.3402 60.576V62.576ZM25.3206 62.4732C25.6038 62.4116 25.9223 62.3174 26.1891 62.1477L25.1153 60.4603C25.1398 60.4448 25.1395 60.4494 25.0954 60.465C25.0539 60.4797 24.9892 60.4985 24.8958 60.5188L25.3206 62.4732ZM26.6522 61.304V59.672H24.6522V61.304H26.6522ZM25.5636 58.6759L24.1236 58.8039L24.3007 60.7961L25.7407 60.6681L25.5636 58.6759ZM24.1291 58.8035C23.6581 58.8427 23.1763 58.9542 22.7712 59.2176L23.8612 60.8944C23.8827 60.8804 23.9982 60.8213 24.2952 60.7965L24.1291 58.8035ZM22.7712 59.2176C22.2581 59.5511 21.9962 60.0784 21.9962 60.664H23.9962C23.9962 60.6662 23.9949 60.7135 23.9611 60.7777C23.9263 60.8439 23.8816 60.8812 23.8612 60.8944L22.7712 59.2176ZM21.9962 60.664C21.9962 61.2398 22.2368 61.7531 22.6915 62.1169L23.9409 60.5551C23.9402 60.5546 23.961 60.5722 23.979 60.6101C23.9968 60.6475 23.9962 60.6716 23.9962 60.664H21.9962ZM22.7162 62.136C23.1913 62.4923 23.8006 62.576 24.3402 62.576V60.576C24.1582 60.576 24.036 60.5601 23.9604 60.5424C23.884 60.5245 23.8833 60.5113 23.9162 60.536L22.7162 62.136ZM24.2602 56.128C25.2039 56.128 25.8359 56.3294 26.2537 56.6288L27.4187 55.0032C26.5565 54.3852 25.4712 54.128 24.2602 54.128V56.128ZM26.2691 56.6396C26.5853 56.8574 26.8122 57.2171 26.8122 57.944H28.8122C28.8122 56.7296 28.3884 55.6706 27.4033 54.9924L26.2691 56.6396ZM26.8122 57.944V61.592H28.8122V57.944H26.8122ZM26.8122 61.592C26.8122 61.6396 26.8059 61.6529 26.8092 61.6429C26.8108 61.6377 26.8146 61.6279 26.8216 61.6153C26.8287 61.6025 26.8378 61.5894 26.8485 61.5771L28.3599 62.8869C28.6937 62.5017 28.8122 62.0349 28.8122 61.592H26.8122ZM26.8449 61.5812C26.7943 61.6403 26.7102 61.7166 26.5742 61.8025L27.6422 63.4935C27.9115 63.3234 28.1581 63.1223 28.3634 62.8828L26.8449 61.5812ZM26.6025 61.7853C26.4059 61.9005 26.1199 62.0137 25.7186 62.1049L26.1618 64.0551C26.6992 63.933 27.1918 63.7581 27.6139 63.5107L26.6025 61.7853ZM25.7186 62.1049C25.3369 62.1916 24.88 62.24 24.3402 62.24V64.24C24.995 64.24 25.6048 64.1817 26.1618 64.0551L25.7186 62.1049ZM24.3402 62.24C23.3801 62.24 22.7331 62.0531 22.3092 61.7776L21.2192 63.4544C22.0753 64.0109 23.1456 64.24 24.3402 64.24V62.24ZM22.3156 61.7818C21.9988 61.5723 21.8202 61.281 21.8202 60.744H19.8202C19.8202 61.871 20.2709 62.8277 21.2128 63.4502L22.3156 61.7818ZM21.8202 60.744C21.8202 60.2377 21.9666 59.9905 22.143 59.8393L20.8414 58.3207C20.1218 58.9375 19.8202 59.7996 19.8202 60.744H21.8202ZM22.143 59.8393C22.3738 59.6414 22.8098 59.4464 23.5881 59.3714L23.3962 57.3806C22.4039 57.4763 21.5066 57.7506 20.8414 58.3207L22.143 59.8393ZM23.5961 59.3706L25.7401 59.1466L25.5323 57.1574L23.3883 57.3814L23.5961 59.3706ZM26.6362 58.152V57.912H24.6362V58.152H26.6362ZM26.6362 57.912C26.6362 57.2367 26.3556 56.5999 25.714 56.2197L24.6944 57.9403C24.6951 57.9407 24.6861 57.9354 24.6733 57.9221C24.6602 57.9085 24.6489 57.8926 24.6407 57.8768C24.6237 57.8442 24.6362 57.8442 24.6362 57.912H26.6362ZM25.714 56.2197C25.2082 55.92 24.5983 55.824 23.9882 55.824V57.824C24.4234 57.824 24.6242 57.8987 24.6944 57.9403L25.714 56.2197ZM23.9882 55.824C23.494 55.824 23.0063 55.8892 22.5273 56.0186L23.0491 57.9494C23.3594 57.8655 23.6717 57.824 23.9882 57.824V55.824ZM22.5518 56.0123C22.1092 56.12 21.6978 56.2556 21.3231 56.4235L22.1412 58.2485C22.3853 58.1391 22.6779 58.04 23.0245 57.9557L22.5518 56.0123ZM22.3204 56.5273C22.3521 56.5503 22.342 56.5564 22.3105 56.4974L20.5458 57.4386C20.685 57.6996 20.8776 57.951 21.144 58.1447L22.3204 56.5273ZM22.3226 56.5208C22.303 56.4815 22.3002 56.458 22.3002 56.44H20.3002C20.3002 56.7847 20.3827 57.1132 20.5338 57.4152L22.3226 56.5208ZM22.3002 56.44C22.3002 56.4235 22.3023 56.4255 22.2979 56.4395C22.2932 56.4545 22.2851 56.4706 22.2755 56.4836C22.2561 56.5097 22.2636 56.4808 22.3743 56.4344L21.602 54.5896C21.2542 54.7352 20.9176 54.957 20.6689 55.2924C20.4127 55.638 20.3002 56.0366 20.3002 56.44H22.3002ZM22.3705 56.436C22.593 56.3439 22.8718 56.2661 23.2162 56.2118L22.9042 54.2362C22.4379 54.3099 22.002 54.424 21.6058 54.588L22.3705 56.436ZM23.2161 56.2118C23.5719 56.1556 23.9198 56.128 24.2602 56.128V54.128C23.8113 54.128 23.3591 54.1644 22.9042 54.2362L23.2161 56.2118ZM29.1929 52.264L29.9 52.9711L29.9 52.9711L29.1929 52.264ZM31.0169 52.264L30.3098 52.9711V52.9711L31.0169 52.264ZM31.0169 54.008L31.724 54.7151L31.7319 54.7073L31.7396 54.6992L31.0169 54.008ZM29.1929 54.008L28.4703 54.6992L28.478 54.7073L28.4858 54.7151L29.1929 54.008ZM28.9849 58.776V57.776H27.9849V58.776H28.9849ZM31.2249 58.776H32.2249V57.776H31.2249V58.776ZM31.2249 62.984L31.4419 63.9602L32.2249 63.7862V62.984H31.2249ZM30.8089 63.064L30.6352 62.0792L30.8089 63.064ZM29.2729 62.888L28.659 63.6774L28.6693 63.6853L28.6797 63.6931L29.2729 62.888ZM31.2249 59.928V60.928H32.2249V59.928H31.2249ZM28.9849 59.928H27.9849V60.928H28.9849V59.928ZM28.9849 55.432L28.768 54.4558L27.9849 54.6298V55.432H28.9849ZM29.4009 55.352L29.5747 56.3368L29.5747 56.3368L29.4009 55.352ZM30.9209 55.528L30.307 56.3174L30.3173 56.3253L30.3277 56.3331L30.9209 55.528ZM29.8409 53.128C29.8409 53.0434 29.8588 53.0123 29.9 52.9711L28.4858 51.5569C28.0577 51.985 27.8409 52.5299 27.8409 53.128H29.8409ZM29.9 52.9711C29.9231 52.9481 29.9606 52.912 30.1049 52.912V50.912C29.5026 50.912 28.9321 51.1106 28.4858 51.5569L29.9 52.9711ZM30.1049 52.912C30.2492 52.912 30.2868 52.9481 30.3098 52.9711L31.724 51.5569C31.2777 51.1106 30.7073 50.912 30.1049 50.912V52.912ZM30.3098 52.9711C30.3511 53.0123 30.3689 53.0434 30.3689 53.128H32.3689C32.3689 52.5299 32.1521 51.985 31.724 51.5569L30.3098 52.9711ZM30.3689 53.128C30.3689 53.2134 30.3499 53.2587 30.2943 53.3168L31.7396 54.6992C32.1533 54.2667 32.3689 53.7253 32.3689 53.128H30.3689ZM30.3098 53.3009C30.2868 53.3239 30.2492 53.36 30.1049 53.36V55.36C30.7073 55.36 31.2777 55.1614 31.724 54.7151L30.3098 53.3009ZM30.1049 53.36C29.9606 53.36 29.9231 53.3239 29.9 53.3009L28.4858 54.7151C28.9321 55.1614 29.5026 55.36 30.1049 55.36V53.36ZM29.9156 53.3168C29.86 53.2587 29.8409 53.2134 29.8409 53.128H27.8409C27.8409 53.7253 28.0565 54.2667 28.4703 54.6992L29.9156 53.3168ZM28.9849 59.776H31.2249V57.776H28.9849V59.776ZM30.2249 58.776V62.984H32.2249V58.776H30.2249ZM31.008 62.0078C30.9337 62.0243 30.8122 62.048 30.6352 62.0792L30.9827 64.0488C31.1684 64.016 31.3242 63.9863 31.4419 63.9602L31.008 62.0078ZM30.6352 62.0792C30.5194 62.0997 30.3809 62.112 30.2169 62.112V64.112C30.4796 64.112 30.7358 64.0924 30.9827 64.0488L30.6352 62.0792ZM30.2169 62.112C30.0582 62.112 29.9539 62.0978 29.8918 62.083C29.8296 62.0683 29.8331 62.0586 29.8661 62.0829L28.6797 63.6931C29.1374 64.0303 29.7106 64.112 30.2169 64.112V62.112ZM29.8869 62.0986C29.9246 62.128 29.9529 62.1601 29.9725 62.1887C29.9914 62.2164 29.9987 62.2357 29.9999 62.2392C30.001 62.2422 29.9969 62.2315 29.9927 62.2025C29.9886 62.1735 29.9849 62.1309 29.9849 62.072H27.9849C27.9849 62.5838 28.1043 63.2459 28.659 63.6774L29.8869 62.0986ZM29.9849 62.072V58.776H27.9849V62.072H29.9849ZM31.2249 58.928H28.9849V60.928H31.2249V58.928ZM29.9849 59.928V55.432H27.9849V59.928H29.9849ZM29.2019 56.4082C29.2762 56.3917 29.3977 56.368 29.5747 56.3368L29.2272 54.3672C29.0415 54.4 28.8857 54.4297 28.768 54.4558L29.2019 56.4082ZM29.5747 56.3368C29.6905 56.3163 29.8289 56.304 29.9929 56.304V54.304C29.7303 54.304 29.474 54.3236 29.2272 54.3672L29.5747 56.3368ZM29.9929 56.304C30.1522 56.304 30.2534 56.3184 30.3103 56.3321C30.3677 56.3459 30.3519 56.3523 30.307 56.3174L31.5349 54.7386C31.0775 54.3829 30.4921 54.304 29.9929 54.304V56.304ZM30.3277 56.3331C30.2898 56.3051 30.2604 56.2736 30.2395 56.2443C30.2193 56.2159 30.2113 56.1956 30.2097 56.1912C30.2083 56.1873 30.2124 56.1976 30.2168 56.2268C30.2211 56.256 30.2249 56.2996 30.2249 56.36H32.2249C32.2249 55.8326 32.0972 55.1526 31.5141 54.7229L30.3277 56.3331ZM30.2249 56.36V59.928H32.2249V56.36H30.2249ZM32.5138 58.776L32.5426 57.7764L31.5138 57.7468V58.776H32.5138ZM34.7378 58.84H35.7378V57.8684L34.7666 57.8404L34.7378 58.84ZM34.7378 62.984L34.9547 63.9602L35.7378 63.7862V62.984H34.7378ZM34.3218 63.064L34.4956 64.0488L34.3218 63.064ZM32.8018 62.888L32.1879 63.6774L32.1981 63.6853L32.2086 63.6931L32.8018 62.888ZM34.7378 59.992L34.709 60.9916L35.7378 61.0212V59.992H34.7378ZM32.5138 59.928H31.5138V60.8996L32.485 60.9276L32.5138 59.928ZM32.5138 52.584L32.2969 51.6078L31.5138 51.7818V52.584H32.5138ZM32.9298 52.504L33.1036 53.4888L33.1036 53.4888L32.9298 52.504ZM34.4498 52.68L33.8359 53.4694V53.4694L34.4498 52.68ZM32.4851 59.7756L34.709 59.8396L34.7666 57.8404L32.5426 57.7764L32.4851 59.7756ZM33.7378 58.84V62.984H35.7378V58.84H33.7378ZM34.5209 62.0078C34.4466 62.0243 34.325 62.048 34.148 62.0792L34.4956 64.0488C34.6813 64.016 34.837 63.9863 34.9547 63.9602L34.5209 62.0078ZM34.148 62.0792C34.0322 62.0997 33.8938 62.112 33.7298 62.112V64.112C33.9925 64.112 34.2487 64.0924 34.4956 64.0488L34.148 62.0792ZM33.7298 62.112C33.5782 62.112 33.479 62.098 33.4205 62.0839C33.3623 62.0699 33.3649 62.0607 33.395 62.0829L32.2086 63.6931C32.663 64.0279 33.2273 64.112 33.7298 64.112V62.112ZM33.4158 62.0986C33.4535 62.128 33.4818 62.1601 33.5014 62.1887C33.5203 62.2164 33.5276 62.2357 33.5288 62.2392C33.5299 62.2422 33.5258 62.2315 33.5216 62.2025C33.5174 62.1735 33.5138 62.1309 33.5138 62.072H31.5138C31.5138 62.5838 31.6332 63.2459 32.1879 63.6774L33.4158 62.0986ZM33.5138 62.072V58.776H31.5138V62.072H33.5138ZM34.7666 58.9924L32.5426 58.9284L32.485 60.9276L34.709 60.9916L34.7666 58.9924ZM33.5138 59.928V52.584H31.5138V59.928H33.5138ZM32.7307 53.5602C32.805 53.5437 32.9266 53.52 33.1036 53.4888L32.756 51.5192C32.5704 51.552 32.4146 51.5817 32.2969 51.6078L32.7307 53.5602ZM33.1036 53.4888C33.2194 53.4683 33.3578 53.456 33.5218 53.456V51.456C33.2591 51.456 33.0029 51.4756 32.756 51.5192L33.1036 53.4888ZM33.5218 53.456C33.6811 53.456 33.7823 53.4704 33.8392 53.4841C33.8965 53.4979 33.8808 53.5043 33.8359 53.4694L35.0638 51.8906C34.6064 51.5349 34.021 51.456 33.5218 51.456V53.456ZM33.8359 53.4694C33.7982 53.44 33.7698 53.4079 33.7503 53.3793C33.7313 53.3516 33.724 53.3323 33.7228 53.3288C33.7218 53.3258 33.7258 53.3365 33.73 53.3655C33.7342 53.3945 33.7378 53.4371 33.7378 53.496H35.7378C35.7378 52.9842 35.6185 52.3221 35.0638 51.8906L33.8359 53.4694ZM33.7378 53.496V59.992H35.7378V53.496H33.7378ZM37.2736 61.128L38.1797 60.7051L38.1766 60.6984L38.1734 60.6917L37.2736 61.128ZM36.7136 59.832L37.6434 59.464V59.464L36.7136 59.832ZM36.0736 58.04L35.1234 58.3518L36.0736 58.04ZM35.3696 55.688L34.6348 55.0097L34.2573 55.4187L34.4059 55.955L35.3696 55.688ZM35.8656 55.352L36.2536 56.2736L36.2648 56.2689L36.2759 56.2639L35.8656 55.352ZM37.3056 55.416L36.7201 56.2267L36.7453 56.2449L36.7716 56.2615L37.3056 55.416ZM37.7696 56.136L36.8125 56.426L36.8148 56.4334L36.8171 56.4408L37.7696 56.136ZM38.5376 58.52L37.5863 58.8285L37.5876 58.8323L38.5376 58.52ZM39.3376 60.888L38.3927 61.2155L38.6258 61.888H39.3376V60.888ZM39.4016 60.888V61.888H40.0786L40.33 61.2594L39.4016 60.888ZM39.9776 59.256L40.9312 59.5571L40.9326 59.5524L39.9776 59.256ZM40.5216 57.336L41.4898 57.5859L40.5216 57.336ZM40.9536 55.448L40.5064 54.5536L40.067 54.7733L39.9723 55.2553L40.9536 55.448ZM41.4016 55.272L41.1439 54.3058L41.1354 54.308L41.1268 54.3105L41.4016 55.272ZM42.7136 55.416L42.1872 56.2663L42.2022 56.2755L42.2174 56.2842L42.7136 55.416ZM42.9056 57.176L41.9288 56.9616L41.9268 56.9707L41.925 56.9799L42.9056 57.176ZM42.5376 58.584L41.583 58.2857L41.5792 58.2985L42.5376 58.584ZM42.0096 60.152L42.9444 60.5072L42.9466 60.5011L42.0096 60.152ZM41.3696 61.704L42.2826 62.1119L41.3696 61.704ZM40.6816 63.048L39.822 62.5369L39.8152 62.5484L39.8087 62.56L40.6816 63.048ZM39.1296 65.272L38.4147 64.5727L38.4071 64.5806L38.3995 64.5886L39.1296 65.272ZM36.8256 65.688L37.516 64.9646L37.5072 64.9562L37.4982 64.9481L36.8256 65.688ZM36.4096 64.856L35.7588 64.0967L35.3506 64.4466L35.4173 64.98L36.4096 64.856ZM37.1136 64.168L36.4065 63.4609L36.3917 63.4756L36.3776 63.4909L37.1136 64.168ZM37.8496 63.336L38.6359 63.9538L37.8496 63.336ZM38.4576 62.472L39.3092 62.9961L39.9949 61.8818L38.7397 61.5126L38.4576 62.472ZM37.8976 62.12L37.2109 62.847L37.8976 62.12ZM38.1734 60.6917C38.0169 60.369 37.8403 59.9613 37.6434 59.464L35.7838 60.2C35.9922 60.7267 36.1889 61.183 36.3737 61.5643L38.1734 60.6917ZM37.6434 59.464C37.4499 58.9751 37.2433 58.3973 37.0237 57.7282L35.1234 58.3518C35.3519 59.048 35.5719 59.6649 35.7838 60.2L37.6434 59.464ZM37.0237 57.7282C36.8057 57.0638 36.5755 56.2952 36.3332 55.421L34.4059 55.955C34.6543 56.8515 34.8934 57.6509 35.1234 58.3518L37.0237 57.7282ZM36.1044 56.3663C36.1208 56.3485 36.161 56.3126 36.2536 56.2736L35.4775 54.4304C35.1648 54.562 34.8744 54.7502 34.6348 55.0097L36.1044 56.3663ZM36.2759 56.2639C36.354 56.2288 36.4427 56.208 36.5536 56.208V54.208C36.1738 54.208 35.8038 54.2832 35.4552 54.4401L36.2759 56.2639ZM36.5536 56.208C36.7168 56.208 36.744 56.2439 36.7201 56.2267L37.8911 54.6053C37.4832 54.3107 37.009 54.208 36.5536 54.208V56.208ZM36.7716 56.2615C36.7285 56.2343 36.7196 56.213 36.733 56.2337C36.748 56.2569 36.7788 56.3148 36.8125 56.426L38.7266 55.846C38.586 55.3819 38.3297 54.8801 37.8396 54.5705L36.7716 56.2615ZM36.8171 56.4408C37.0735 57.242 37.3299 58.0379 37.5863 58.8285L39.4888 58.2115C39.2332 57.4234 38.9776 56.63 38.722 55.8312L36.8171 56.4408ZM37.5876 58.8323C37.8453 59.6162 38.1137 60.4106 38.3927 61.2155L40.2824 60.5605C40.0068 59.7654 39.7418 58.9811 39.4875 58.2077L37.5876 58.8323ZM39.3376 61.888H39.4016V59.888H39.3376V61.888ZM40.33 61.2594C40.5331 60.7517 40.7333 60.1836 40.9311 59.5571L39.024 58.9549C38.8378 59.5444 38.654 60.0643 38.4731 60.5166L40.33 61.2594ZM40.9326 59.5524C41.1297 58.9175 41.3154 58.262 41.4898 57.5859L39.5533 57.0861C39.3864 57.7327 39.2095 58.3571 39.0225 58.9596L40.9326 59.5524ZM41.4898 57.5859C41.6648 56.9079 41.8133 56.2594 41.9348 55.6407L39.9723 55.2553C39.8592 55.8313 39.7197 56.4415 39.5533 57.0861L41.4898 57.5859ZM41.4008 56.3424C41.4989 56.2934 41.5906 56.258 41.6763 56.2335L41.1268 54.3105C40.9138 54.3713 40.7069 54.4533 40.5064 54.5536L41.4008 56.3424ZM41.6592 56.2382C41.7276 56.22 41.811 56.208 41.9136 56.208V54.208C41.6534 54.208 41.3955 54.2387 41.1439 54.3058L41.6592 56.2382ZM41.9136 56.208C42.0698 56.208 42.1471 56.2414 42.1872 56.2663L43.2399 54.5657C42.832 54.3132 42.376 54.208 41.9136 54.208V56.208ZM42.2174 56.2842C42.1946 56.2712 42.1659 56.2505 42.1372 56.2205C42.1084 56.1903 42.0864 56.1577 42.0711 56.1272C42.0412 56.0672 42.0496 56.0414 42.0496 56.088H44.0496C44.0496 55.5101 43.824 54.8988 43.2097 54.5478L42.2174 56.2842ZM42.0496 56.088C42.0496 56.2758 42.0169 56.5605 41.9288 56.9616L43.8823 57.3904C43.9863 56.9168 44.0496 56.4762 44.0496 56.088H42.0496ZM41.925 56.9799C41.8479 57.3652 41.7349 57.7999 41.5831 58.2857L43.492 58.8823C43.6602 58.3441 43.7925 57.8401 43.8861 57.3721L41.925 56.9799ZM41.5792 58.2985C41.4369 58.7762 41.2682 59.2776 41.0725 59.8029L42.9466 60.5011C43.1563 59.9384 43.3396 59.3944 43.4959 58.8695L41.5792 58.2985ZM41.0748 59.7968C40.8786 60.313 40.6725 60.8127 40.4566 61.2961L42.2826 62.1119C42.5146 61.5926 42.7352 61.0576 42.9443 60.5072L41.0748 59.7968ZM40.4566 61.2961C40.2454 61.7686 40.0335 62.1813 39.822 62.5369L41.5411 63.5591C41.799 63.1254 42.0457 62.642 42.2826 62.1119L40.4566 61.2961ZM39.8087 62.56C39.273 63.5182 38.8059 64.1729 38.4147 64.5727L39.8444 65.9713C40.4132 65.3898 40.9808 64.5618 41.5544 63.536L39.8087 62.56ZM38.3995 64.5886C38.031 64.9823 37.8072 65.024 37.7216 65.024V67.024C38.5746 67.024 39.2895 66.5644 39.8596 65.9554L38.3995 64.5886ZM37.7216 65.024C37.5831 65.024 37.5422 64.9896 37.516 64.9646L36.1351 66.4114C36.5783 66.8344 37.1347 67.024 37.7216 67.024V65.024ZM37.4982 64.9481C37.4557 64.9094 37.4176 64.858 37.4018 64.732L35.4173 64.98C35.4869 65.5366 35.7261 66.04 36.1529 66.4279L37.4982 64.9481ZM37.0604 65.6153C37.3202 65.3926 37.5832 65.1345 37.8495 64.8451L36.3776 63.4909C36.1533 63.7348 35.947 63.9354 35.7588 64.0967L37.0604 65.6153ZM37.8207 64.8751C38.1062 64.5896 38.3778 64.2823 38.6359 63.9538L37.0632 62.7182C36.852 62.9871 36.633 63.2344 36.4065 63.4609L37.8207 64.8751ZM38.6359 63.9538C38.8903 63.63 39.1156 63.3107 39.3092 62.9961L37.6059 61.9479C37.4582 62.188 37.2781 62.4447 37.0632 62.7182L38.6359 63.9538ZM38.7397 61.5126C38.7576 61.5179 38.7044 61.5066 38.5842 61.393L37.2109 62.847C37.4747 63.0961 37.7949 63.3195 38.1754 63.4314L38.7397 61.5126ZM38.5842 61.393C38.5363 61.3478 38.3931 61.1623 38.1797 60.7051L36.3674 61.5509C36.602 62.0537 36.8748 62.5296 37.2109 62.847L38.5842 61.393Z" fill="black" mask="url(#path-3-outside-1_2766_911)"/>
<defs>
<filter id="filter0_iiiii_2766_911" x="3" y="-4" width="48" height="52" filterUnits="userSpaceOnUse" color-interpolation-filters="sRGB">
<feFlood flood-opacity="0" result="BackgroundImageFix"/>
<feBlend mode="normal" in="SourceGraphic" in2="BackgroundImageFix" result="shape"/>
<feColorMatrix in="SourceAlpha" type="matrix" values="0 0 0 0 0 0 0 0 0 0 0 0 0 0 0 0 0 0 127 0" result="hardAlpha"/>
<feOffset dy="-1"/>
<feGaussianBlur stdDeviation="0.5"/>
<feComposite in2="hardAlpha" operator="arithmetic" k2="-1" k3="1"/>
<feColorMatrix type="matrix" values="0 0 0 0 0.921569 0 0 0 0 0.545098 0 0 0 0 0.996078 0 0 0 0.37 0"/>
<feBlend mode="normal" in2="shape" result="effect1_innerShadow_2766_911"/>
<feColorMatrix in="SourceAlpha" type="matrix" values="0 0 0 0 0 0 0 0 0 0 0 0 0 0 0 0 0 0 127 0" result="hardAlpha"/>
<feOffset dy="-2"/>
<feGaussianBlur stdDeviation="1"/>
<feComposite in2="hardAlpha" operator="arithmetic" k2="-1" k3="1"/>
<feColorMatrix type="matrix" values="0 0 0 0 0.921569 0 0 0 0 0.545098 0 0 0 0 0.996078 0 0 0 0.32 0"/>
<feBlend mode="normal" in2="effect1_innerShadow_2766_911" result="effect2_innerShadow_2766_911"/>
<feColorMatrix in="SourceAlpha" type="matrix" values="0 0 0 0 0 0 0 0 0 0 0 0 0 0 0 0 0 0 127 0" result="hardAlpha"/>
<feOffset dy="-5"/>
<feGaussianBlur stdDeviation="1.5"/>
<feComposite in2="hardAlpha" operator="arithmetic" k2="-1" k3="1"/>
<feColorMatrix type="matrix" values="0 0 0 0 0.921569 0 0 0 0 0.545098 0 0 0 0 0.996078 0 0 0 0.19 0"/>
<feBlend mode="normal" in2="effect2_innerShadow_2766_911" result="effect3_innerShadow_2766_911"/>
<feColorMatrix in="SourceAlpha" type="matrix" values="0 0 0 0 0 0 0 0 0 0 0 0 0 0 0 0 0 0 127 0" result="hardAlpha"/>
<feOffset dy="-8"/>
<feGaussianBlur stdDeviation="1.5"/>
<feComposite in2="hardAlpha" operator="arithmetic" k2="-1" k3="1"/>
<feColorMatrix type="matrix" values="0 0 0 0 0.921569 0 0 0 0 0.545098 0 0 0 0 0.996078 0 0 0 0.06 0"/>
<feBlend mode="normal" in2="effect3_innerShadow_2766_911" result="effect4_innerShadow_2766_911"/>
<feColorMatrix in="SourceAlpha" type="matrix" values="0 0 0 0 0 0 0 0 0 0 0 0 0 0 0 0 0 0 127 0" result="hardAlpha"/>
<feOffset dy="-13"/>
<feGaussianBlur stdDeviation="2"/>
<feComposite in2="hardAlpha" operator="arithmetic" k2="-1" k3="1"/>
<feColorMatrix type="matrix" values="0 0 0 0 0.921569 0 0 0 0 0.545098 0 0 0 0 0.996078 0 0 0 0.01 0"/>
<feBlend mode="normal" in2="effect4_innerShadow_2766_911" result="effect5_innerShadow_2766_911"/>
</filter>
<filter id="filter1_d_2766_911" x="10.55" y="9.3999" width="33.8999" height="29.2749" filterUnits="userSpaceOnUse" color-interpolation-filters="sRGB">
<feFlood flood-opacity="0" result="BackgroundImageFix"/>
<feColorMatrix in="SourceAlpha" type="matrix" values="0 0 0 0 0 0 0 0 0 0 0 0 0 0 0 0 0 0 127 0" result="hardAlpha"/>
<feOffset dy="1"/>
<feGaussianBlur stdDeviation="2"/>
<feComposite in2="hardAlpha" operator="out"/>
<feColorMatrix type="matrix" values="0 0 0 0 0 0 0 0 0 0 0 0 0 0 0 0 0 0 0.25 0"/>
<feBlend mode="normal" in2="BackgroundImageFix" result="effect1_dropShadow_2766_911"/>
<feBlend mode="normal" in="SourceGraphic" in2="effect1_dropShadow_2766_911" result="shape"/>
</filter>
<linearGradient id="paint0_linear_2766_911" x1="27" y1="0" x2="27" y2="48" gradientUnits="userSpaceOnUse">
<stop stop-color="#6F00FF"/>
<stop offset="1" stop-color="#B71FFF"/>
</linearGradient>
<linearGradient id="paint1_linear_2766_911" x1="40.4501" y1="33.6747" x2="19.5804" y2="8.2679" gradientUnits="userSpaceOnUse">
<stop stop-color="#FF695F"/>
<stop offset="1" stop-color="#FFDD65"/>
</linearGradient>
</defs>
</svg>
