<svg width="109" height="48" viewBox="0 0 109 48" fill="none" xmlns="http://www.w3.org/2000/svg">
<rect width="109" height="48" rx="8" fill="black"/>
<rect x="2" y="3.84619" width="105" height="42" rx="7" fill="url(#paint0_linear_2530_1399)"/>
<rect x="2" y="2" width="105" height="40" rx="7" fill="url(#paint1_linear_2530_1399)"/>
<rect x="2" y="2" width="105" height="42" rx="7" fill="url(#paint2_linear_2530_1399)"/>
<rect x="5" y="5" width="99" height="34" rx="6" fill="url(#paint3_linear_2530_1399)"/>
<ellipse cx="3.5438" cy="1.99141" rx="3.5438" ry="1.99141" transform="matrix(0.73474 -0.678349 0.574531 0.818483 3.78052 8.24414)" fill="#FCF7FF"/>
<ellipse cx="2.90149" cy="1.99141" rx="2.90149" ry="1.99141" transform="matrix(0.73474 -0.678349 0.574531 0.818483 98.7805 36.2441)" fill="#F2DCF7"/>
<g filter="url(#filter0_d_2530_1399)">
<mask id="path-8-outside-1_2530_1399" maskUnits="userSpaceOnUse" x="24" y="15" width="62" height="15" fill="black">
<rect fill="white" x="24" y="15" width="62" height="15"/>
<path d="M34.3524 28H29.6274C28.3774 28 27.4474 27.75 26.8374 27.25C26.2374 26.75 25.9374 25.98 25.9374 24.94V20.26C25.9374 19.22 26.2374 18.45 26.8374 17.95C27.4474 17.45 28.3774 17.2 29.6274 17.2H33.3774C33.5674 17.2 33.7024 17.245 33.7824 17.335C33.8724 17.415 33.9174 17.55 33.9174 17.74V19.555C33.9174 19.745 33.8724 19.885 33.7824 19.975C33.7024 20.055 33.5674 20.095 33.3774 20.095H30.2574C29.9474 20.095 29.7174 20.16 29.5674 20.29C29.4174 20.41 29.3424 20.595 29.3424 20.845V24.43C29.3424 24.68 29.3974 24.865 29.5074 24.985C29.6274 25.105 29.8024 25.165 30.0324 25.165H31.4874V22.825C31.4874 22.635 31.5274 22.5 31.6074 22.42C31.6974 22.33 31.8374 22.285 32.0274 22.285H34.3524C34.5424 22.285 34.6774 22.33 34.7574 22.42C34.8474 22.5 34.8924 22.635 34.8924 22.825V27.46C34.8924 27.65 34.8474 27.79 34.7574 27.88C34.6774 27.96 34.5424 28 34.3524 28ZM43.9975 28H36.3625C36.1725 28 36.0325 27.96 35.9425 27.88C35.8625 27.79 35.8225 27.65 35.8225 27.46V17.74C35.8225 17.55 35.8625 17.415 35.9425 17.335C36.0325 17.245 36.1725 17.2 36.3625 17.2H38.6875C38.8775 17.2 39.0125 17.245 39.0925 17.335C39.1825 17.415 39.2275 17.55 39.2275 17.74V25.165H41.2825V22.735C41.2825 22.545 41.3225 22.41 41.4025 22.33C41.4925 22.24 41.6325 22.195 41.8225 22.195H43.9975C44.1875 22.195 44.3225 22.24 44.4025 22.33C44.4925 22.41 44.5375 22.545 44.5375 22.735V27.46C44.5375 27.65 44.4925 27.79 44.4025 27.88C44.3225 27.96 44.1875 28 43.9975 28ZM54.5022 25.165C54.5022 25.625 54.4322 26.045 54.2922 26.425C54.1622 26.795 53.9222 27.115 53.5722 27.385C53.2322 27.645 52.7572 27.85 52.1472 28C51.5472 28.15 50.7822 28.225 49.8522 28.225C48.9222 28.225 48.1522 28.15 47.5422 28C46.9322 27.85 46.4522 27.645 46.1022 27.385C45.7622 27.115 45.5222 26.795 45.3822 26.425C45.2522 26.045 45.1872 25.625 45.1872 25.165V20.05C45.1872 19.59 45.2522 19.175 45.3822 18.805C45.5222 18.425 45.7622 18.1 46.1022 17.83C46.4522 17.56 46.9322 17.35 47.5422 17.2C48.1522 17.05 48.9222 16.975 49.8522 16.975C50.7822 16.975 51.5472 17.05 52.1472 17.2C52.7572 17.35 53.2322 17.56 53.5722 17.83C53.9222 18.1 54.1622 18.425 54.2922 18.805C54.4322 19.175 54.5022 19.59 54.5022 20.05V25.165ZM48.5922 24.625C48.5922 24.825 48.6672 24.995 48.8172 25.135C48.9672 25.265 49.3122 25.33 49.8522 25.33C50.3922 25.33 50.7372 25.265 50.8872 25.135C51.0372 24.995 51.1122 24.825 51.1122 24.625V20.59C51.1122 20.4 51.0372 20.24 50.8872 20.11C50.7372 19.97 50.3922 19.9 49.8522 19.9C49.3122 19.9 48.9672 19.97 48.8172 20.11C48.6672 20.24 48.5922 20.4 48.5922 20.59V24.625ZM61.8118 28H56.0518C55.8618 28 55.7218 27.96 55.6318 27.88C55.5518 27.79 55.5118 27.65 55.5118 27.46V17.74C55.5118 17.55 55.5518 17.415 55.6318 17.335C55.7218 17.245 55.8618 17.2 56.0518 17.2H60.8368C61.8168 17.2 62.5418 17.39 63.0118 17.77C63.4818 18.14 63.7168 18.715 63.7168 19.495V20.215C63.7168 20.635 63.6418 20.98 63.4918 21.25C63.3518 21.51 63.1318 21.705 62.8318 21.835C63.4718 21.895 63.9468 22.115 64.2568 22.495C64.5668 22.875 64.7218 23.43 64.7218 24.16V25.54C64.7218 26.38 64.4818 27 64.0018 27.4C63.5318 27.8 62.8018 28 61.8118 28ZM58.8868 19.75V21.37H60.1618C60.3518 21.37 60.4918 21.32 60.5818 21.22C60.6818 21.12 60.7318 20.97 60.7318 20.77V20.35C60.7318 20.15 60.6818 20 60.5818 19.9C60.4918 19.8 60.3518 19.75 60.1618 19.75H58.8868ZM58.8868 23.68V25.45H60.8368C61.0268 25.45 61.1668 25.4 61.2568 25.3C61.3568 25.2 61.4068 25.05 61.4068 24.85V24.265C61.4068 24.065 61.3568 23.92 61.2568 23.83C61.1668 23.73 61.0268 23.68 60.8368 23.68H58.8868ZM69.3959 20.35L68.6909 22.63H71.0459L70.3409 20.35C70.3009 20.26 70.2559 20.195 70.2059 20.155C70.1659 20.115 70.1159 20.095 70.0559 20.095H69.6809C69.6209 20.095 69.5659 20.115 69.5159 20.155C69.4759 20.195 69.4359 20.26 69.3959 20.35ZM68.5409 27.46C68.5409 27.65 68.4959 27.79 68.4059 27.88C68.3259 27.96 68.1909 28 68.0009 28H65.7959C65.6059 28 65.4659 27.96 65.3759 27.88C65.2959 27.79 65.2559 27.65 65.2559 27.46V23.5C65.2559 23.2 65.3009 22.855 65.3909 22.465C65.4909 22.075 65.6409 21.62 65.8409 21.1L67.1459 17.695C67.2059 17.525 67.2959 17.4 67.4159 17.32C67.5459 17.24 67.7109 17.2 67.9109 17.2H71.9459C72.1359 17.2 72.2909 17.24 72.4109 17.32C72.5409 17.4 72.6359 17.525 72.6959 17.695L74.0009 21.1C74.2009 21.62 74.3459 22.075 74.4359 22.465C74.5359 22.855 74.5859 23.2 74.5859 23.5V27.46C74.5859 27.65 74.5409 27.79 74.4509 27.88C74.3709 27.96 74.2359 28 74.0459 28H71.7809C71.5809 28 71.4309 27.96 71.3309 27.88C71.2409 27.79 71.1959 27.65 71.1959 27.46V25.36H68.5409V27.46ZM83.7129 28H76.0779C75.8879 28 75.7479 27.96 75.6579 27.88C75.5779 27.79 75.5379 27.65 75.5379 27.46V17.74C75.5379 17.55 75.5779 17.415 75.6579 17.335C75.7479 17.245 75.8879 17.2 76.0779 17.2H78.4029C78.5929 17.2 78.7279 17.245 78.8079 17.335C78.8979 17.415 78.9429 17.55 78.9429 17.74V25.165H80.9979V22.735C80.9979 22.545 81.0379 22.41 81.1179 22.33C81.2079 22.24 81.3479 22.195 81.5379 22.195H83.7129C83.9029 22.195 84.0379 22.24 84.1179 22.33C84.2079 22.41 84.2529 22.545 84.2529 22.735V27.46C84.2529 27.65 84.2079 27.79 84.1179 27.88C84.0379 27.96 83.9029 28 83.7129 28Z"/>
</mask>
<path d="M34.3524 28H29.6274C28.3774 28 27.4474 27.75 26.8374 27.25C26.2374 26.75 25.9374 25.98 25.9374 24.94V20.26C25.9374 19.22 26.2374 18.45 26.8374 17.95C27.4474 17.45 28.3774 17.2 29.6274 17.2H33.3774C33.5674 17.2 33.7024 17.245 33.7824 17.335C33.8724 17.415 33.9174 17.55 33.9174 17.74V19.555C33.9174 19.745 33.8724 19.885 33.7824 19.975C33.7024 20.055 33.5674 20.095 33.3774 20.095H30.2574C29.9474 20.095 29.7174 20.16 29.5674 20.29C29.4174 20.41 29.3424 20.595 29.3424 20.845V24.43C29.3424 24.68 29.3974 24.865 29.5074 24.985C29.6274 25.105 29.8024 25.165 30.0324 25.165H31.4874V22.825C31.4874 22.635 31.5274 22.5 31.6074 22.42C31.6974 22.33 31.8374 22.285 32.0274 22.285H34.3524C34.5424 22.285 34.6774 22.33 34.7574 22.42C34.8474 22.5 34.8924 22.635 34.8924 22.825V27.46C34.8924 27.65 34.8474 27.79 34.7574 27.88C34.6774 27.96 34.5424 28 34.3524 28ZM43.9975 28H36.3625C36.1725 28 36.0325 27.96 35.9425 27.88C35.8625 27.79 35.8225 27.65 35.8225 27.46V17.74C35.8225 17.55 35.8625 17.415 35.9425 17.335C36.0325 17.245 36.1725 17.2 36.3625 17.2H38.6875C38.8775 17.2 39.0125 17.245 39.0925 17.335C39.1825 17.415 39.2275 17.55 39.2275 17.74V25.165H41.2825V22.735C41.2825 22.545 41.3225 22.41 41.4025 22.33C41.4925 22.24 41.6325 22.195 41.8225 22.195H43.9975C44.1875 22.195 44.3225 22.24 44.4025 22.33C44.4925 22.41 44.5375 22.545 44.5375 22.735V27.46C44.5375 27.65 44.4925 27.79 44.4025 27.88C44.3225 27.96 44.1875 28 43.9975 28ZM54.5022 25.165C54.5022 25.625 54.4322 26.045 54.2922 26.425C54.1622 26.795 53.9222 27.115 53.5722 27.385C53.2322 27.645 52.7572 27.85 52.1472 28C51.5472 28.15 50.7822 28.225 49.8522 28.225C48.9222 28.225 48.1522 28.15 47.5422 28C46.9322 27.85 46.4522 27.645 46.1022 27.385C45.7622 27.115 45.5222 26.795 45.3822 26.425C45.2522 26.045 45.1872 25.625 45.1872 25.165V20.05C45.1872 19.59 45.2522 19.175 45.3822 18.805C45.5222 18.425 45.7622 18.1 46.1022 17.83C46.4522 17.56 46.9322 17.35 47.5422 17.2C48.1522 17.05 48.9222 16.975 49.8522 16.975C50.7822 16.975 51.5472 17.05 52.1472 17.2C52.7572 17.35 53.2322 17.56 53.5722 17.83C53.9222 18.1 54.1622 18.425 54.2922 18.805C54.4322 19.175 54.5022 19.59 54.5022 20.05V25.165ZM48.5922 24.625C48.5922 24.825 48.6672 24.995 48.8172 25.135C48.9672 25.265 49.3122 25.33 49.8522 25.33C50.3922 25.33 50.7372 25.265 50.8872 25.135C51.0372 24.995 51.1122 24.825 51.1122 24.625V20.59C51.1122 20.4 51.0372 20.24 50.8872 20.11C50.7372 19.97 50.3922 19.9 49.8522 19.9C49.3122 19.9 48.9672 19.97 48.8172 20.11C48.6672 20.24 48.5922 20.4 48.5922 20.59V24.625ZM61.8118 28H56.0518C55.8618 28 55.7218 27.96 55.6318 27.88C55.5518 27.79 55.5118 27.65 55.5118 27.46V17.74C55.5118 17.55 55.5518 17.415 55.6318 17.335C55.7218 17.245 55.8618 17.2 56.0518 17.2H60.8368C61.8168 17.2 62.5418 17.39 63.0118 17.77C63.4818 18.14 63.7168 18.715 63.7168 19.495V20.215C63.7168 20.635 63.6418 20.98 63.4918 21.25C63.3518 21.51 63.1318 21.705 62.8318 21.835C63.4718 21.895 63.9468 22.115 64.2568 22.495C64.5668 22.875 64.7218 23.43 64.7218 24.16V25.54C64.7218 26.38 64.4818 27 64.0018 27.4C63.5318 27.8 62.8018 28 61.8118 28ZM58.8868 19.75V21.37H60.1618C60.3518 21.37 60.4918 21.32 60.5818 21.22C60.6818 21.12 60.7318 20.97 60.7318 20.77V20.35C60.7318 20.15 60.6818 20 60.5818 19.9C60.4918 19.8 60.3518 19.75 60.1618 19.75H58.8868ZM58.8868 23.68V25.45H60.8368C61.0268 25.45 61.1668 25.4 61.2568 25.3C61.3568 25.2 61.4068 25.05 61.4068 24.85V24.265C61.4068 24.065 61.3568 23.92 61.2568 23.83C61.1668 23.73 61.0268 23.68 60.8368 23.68H58.8868ZM69.3959 20.35L68.6909 22.63H71.0459L70.3409 20.35C70.3009 20.26 70.2559 20.195 70.2059 20.155C70.1659 20.115 70.1159 20.095 70.0559 20.095H69.6809C69.6209 20.095 69.5659 20.115 69.5159 20.155C69.4759 20.195 69.4359 20.26 69.3959 20.35ZM68.5409 27.46C68.5409 27.65 68.4959 27.79 68.4059 27.88C68.3259 27.96 68.1909 28 68.0009 28H65.7959C65.6059 28 65.4659 27.96 65.3759 27.88C65.2959 27.79 65.2559 27.65 65.2559 27.46V23.5C65.2559 23.2 65.3009 22.855 65.3909 22.465C65.4909 22.075 65.6409 21.62 65.8409 21.1L67.1459 17.695C67.2059 17.525 67.2959 17.4 67.4159 17.32C67.5459 17.24 67.7109 17.2 67.9109 17.2H71.9459C72.1359 17.2 72.2909 17.24 72.4109 17.32C72.5409 17.4 72.6359 17.525 72.6959 17.695L74.0009 21.1C74.2009 21.62 74.3459 22.075 74.4359 22.465C74.5359 22.855 74.5859 23.2 74.5859 23.5V27.46C74.5859 27.65 74.5409 27.79 74.4509 27.88C74.3709 27.96 74.2359 28 74.0459 28H71.7809C71.5809 28 71.4309 27.96 71.3309 27.88C71.2409 27.79 71.1959 27.65 71.1959 27.46V25.36H68.5409V27.46ZM83.7129 28H76.0779C75.8879 28 75.7479 27.96 75.6579 27.88C75.5779 27.79 75.5379 27.65 75.5379 27.46V17.74C75.5379 17.55 75.5779 17.415 75.6579 17.335C75.7479 17.245 75.8879 17.2 76.0779 17.2H78.4029C78.5929 17.2 78.7279 17.245 78.8079 17.335C78.8979 17.415 78.9429 17.55 78.9429 17.74V25.165H80.9979V22.735C80.9979 22.545 81.0379 22.41 81.1179 22.33C81.2079 22.24 81.3479 22.195 81.5379 22.195H83.7129C83.9029 22.195 84.0379 22.24 84.1179 22.33C84.2079 22.41 84.2529 22.545 84.2529 22.735V27.46C84.2529 27.65 84.2079 27.79 84.1179 27.88C84.0379 27.96 83.9029 28 83.7129 28Z" fill="white"/>
<path d="M26.8374 27.25L26.1972 28.0182L26.2035 28.0234L26.8374 27.25ZM26.8374 17.95L26.2034 17.1766L26.1972 17.1818L26.8374 17.95ZM33.7824 17.335L33.035 17.9994L33.0741 18.0433L33.118 18.0824L33.7824 17.335ZM33.7824 19.975L34.4895 20.6821L33.7824 19.975ZM29.5674 20.29L30.1921 21.0709L30.2074 21.0586L30.2223 21.0457L29.5674 20.29ZM29.5074 24.985L28.7702 25.6607L28.7849 25.6767L28.8003 25.6921L29.5074 24.985ZM31.4874 25.165V26.165H32.4874V25.165H31.4874ZM34.7574 22.42L34.01 23.0844L34.0491 23.1283L34.093 23.1674L34.7574 22.42ZM34.7574 27.88L35.4645 28.5871L35.4645 28.5871L34.7574 27.88ZM34.3524 27H29.6274V29H34.3524V27ZM29.6274 27C28.4815 27 27.8242 26.7659 27.4713 26.4766L26.2035 28.0234C27.0705 28.7341 28.2733 29 29.6274 29V27ZM27.4776 26.4818C27.1754 26.23 26.9374 25.788 26.9374 24.94H24.9374C24.9374 26.172 25.2994 27.27 26.1972 28.0182L27.4776 26.4818ZM26.9374 24.94V20.26H24.9374V24.94H26.9374ZM26.9374 20.26C26.9374 19.412 27.1754 18.97 27.4776 18.7182L26.1972 17.1818C25.2994 17.93 24.9374 19.028 24.9374 20.26H26.9374ZM27.4713 18.7234C27.8242 18.4341 28.4815 18.2 29.6274 18.2V16.2C28.2733 16.2 27.0705 16.4659 26.2035 17.1766L27.4713 18.7234ZM29.6274 18.2H33.3774V16.2H29.6274V18.2ZM33.3774 18.2C33.3986 18.2 33.3671 18.2032 33.3049 18.1824C33.2366 18.1597 33.1309 18.1073 33.035 17.9994L34.5298 16.6706C34.1736 16.27 33.6903 16.2 33.3774 16.2V18.2ZM33.118 18.0824C33.0101 17.9865 32.9577 17.8808 32.935 17.8125C32.9142 17.7503 32.9174 17.7188 32.9174 17.74H34.9174C34.9174 17.4271 34.8474 16.9437 34.4467 16.5876L33.118 18.0824ZM32.9174 17.74V19.555H34.9174V17.74H32.9174ZM32.9174 19.555C32.9174 19.6092 32.9027 19.4405 33.0753 19.2679L34.4895 20.6821C34.8421 20.3295 34.9174 19.8808 34.9174 19.555H32.9174ZM33.0753 19.2679C33.1785 19.1646 33.2832 19.1221 33.337 19.1062C33.3876 19.0912 33.4074 19.095 33.3774 19.095V21.095C33.6628 21.095 34.1288 21.0428 34.4895 20.6821L33.0753 19.2679ZM33.3774 19.095H30.2574V21.095H33.3774V19.095ZM30.2574 19.095C29.8355 19.095 29.3223 19.1791 28.9125 19.5343L30.2223 21.0457C30.1661 21.0944 30.1222 21.1067 30.1243 21.1061C30.1256 21.1057 30.1365 21.1028 30.1594 21.1C30.1822 21.0973 30.2144 21.095 30.2574 21.095V19.095ZM28.9427 19.5091C28.4876 19.8732 28.3424 20.3902 28.3424 20.845H30.3424C30.3424 20.8175 30.3468 20.8416 30.3254 20.8945C30.3012 20.9542 30.2561 21.0196 30.1921 21.0709L28.9427 19.5091ZM28.3424 20.845V24.43H30.3424V20.845H28.3424ZM28.3424 24.43C28.3424 24.8007 28.4203 25.279 28.7702 25.6607L30.2445 24.3093C30.3093 24.38 30.3344 24.4452 30.3422 24.4713C30.3489 24.4939 30.3424 24.4853 30.3424 24.43H28.3424ZM28.8003 25.6921C29.1667 26.0585 29.6339 26.165 30.0324 26.165V24.165C30.002 24.165 30.0142 24.1608 30.053 24.1741C30.0964 24.1889 30.1573 24.2207 30.2145 24.2779L28.8003 25.6921ZM30.0324 26.165H31.4874V24.165H30.0324V26.165ZM32.4874 25.165V22.825H30.4874V25.165H32.4874ZM32.4874 22.825C32.4874 22.795 32.4911 22.8148 32.4762 22.8653C32.4602 22.9192 32.4178 23.0238 32.3145 23.1271L30.9003 21.7129C30.5396 22.0735 30.4874 22.5396 30.4874 22.825H32.4874ZM32.3145 23.1271C32.1419 23.2997 31.9732 23.285 32.0274 23.285V21.285C31.7016 21.285 31.2529 21.3603 30.9003 21.7129L32.3145 23.1271ZM32.0274 23.285H34.3524V21.285H32.0274V23.285ZM34.3524 23.285C34.3736 23.285 34.3421 23.2882 34.2799 23.2674C34.2116 23.2447 34.1059 23.1923 34.01 23.0844L35.5048 21.7556C35.1486 21.355 34.6653 21.285 34.3524 21.285V23.285ZM34.093 23.1674C33.9851 23.0715 33.9327 22.9658 33.91 22.8975C33.8892 22.8353 33.8924 22.8038 33.8924 22.825H35.8924C35.8924 22.5121 35.8224 22.0287 35.4217 21.6726L34.093 23.1674ZM33.8924 22.825V27.46H35.8924V22.825H33.8924ZM33.8924 27.46C33.8924 27.5142 33.8777 27.3455 34.0503 27.1729L35.4645 28.5871C35.8171 28.2345 35.8924 27.7858 35.8924 27.46H33.8924ZM34.0503 27.1729C34.1535 27.0696 34.2582 27.0271 34.312 27.0112C34.3626 26.9962 34.3824 27 34.3524 27V29C34.6378 29 35.1038 28.9478 35.4645 28.5871L34.0503 27.1729ZM35.9425 27.88L35.1951 28.5444L35.2342 28.5883L35.2781 28.6274L35.9425 27.88ZM35.9425 17.335L35.2354 16.6279L35.2354 16.6279L35.9425 17.335ZM39.0925 17.335L38.3451 17.9994L38.3842 18.0433L38.4281 18.0824L39.0925 17.335ZM39.2275 25.165H38.2275V26.165H39.2275V25.165ZM41.2825 25.165V26.165H42.2825V25.165H41.2825ZM41.4025 22.33L40.6954 21.6229L40.6954 21.6229L41.4025 22.33ZM44.4025 22.33L43.6551 22.9944L43.6942 23.0383L43.7381 23.0774L44.4025 22.33ZM44.4025 27.88L45.1096 28.5871L45.1096 28.5871L44.4025 27.88ZM43.9975 27H36.3625V29H43.9975V27ZM36.3625 27C36.3338 27 36.348 26.9966 36.3897 27.0085C36.4343 27.0212 36.5187 27.0542 36.6069 27.1326L35.2781 28.6274C35.6316 28.9416 36.0623 29 36.3625 29V27ZM36.6899 27.2156C36.7683 27.3038 36.8013 27.3882 36.814 27.4328C36.8259 27.4745 36.8225 27.4887 36.8225 27.46H34.8225C34.8225 27.7602 34.8809 28.1909 35.1951 28.5444L36.6899 27.2156ZM36.8225 27.46V17.74H34.8225V27.46H36.8225ZM36.8225 17.74C36.8225 17.71 36.8263 17.7298 36.8113 17.7803C36.7954 17.8342 36.7529 17.9388 36.6496 18.0421L35.2354 16.6279C34.8747 16.9885 34.8225 17.4546 34.8225 17.74H36.8225ZM36.6496 18.0421C36.477 18.2147 36.3083 18.2 36.3625 18.2V16.2C36.0367 16.2 35.588 16.2753 35.2354 16.6279L36.6496 18.0421ZM36.3625 18.2H38.6875V16.2H36.3625V18.2ZM38.6875 18.2C38.7087 18.2 38.6772 18.2032 38.615 18.1824C38.5467 18.1597 38.441 18.1073 38.3451 17.9994L39.8399 16.6706C39.4838 16.27 39.0004 16.2 38.6875 16.2V18.2ZM38.4281 18.0824C38.3202 17.9865 38.2678 17.8808 38.2451 17.8125C38.2243 17.7503 38.2275 17.7188 38.2275 17.74H40.2275C40.2275 17.4271 40.1575 16.9437 39.7569 16.5876L38.4281 18.0824ZM38.2275 17.74V25.165H40.2275V17.74H38.2275ZM39.2275 26.165H41.2825V24.165H39.2275V26.165ZM42.2825 25.165V22.735H40.2825V25.165H42.2825ZM42.2825 22.735C42.2825 22.705 42.2863 22.7248 42.2713 22.7753C42.2554 22.8292 42.2129 22.9338 42.1096 23.0371L40.6954 21.6229C40.3347 21.9835 40.2825 22.4496 40.2825 22.735H42.2825ZM42.1096 23.0371C41.937 23.2097 41.7683 23.195 41.8225 23.195V21.195C41.4967 21.195 41.048 21.2703 40.6954 21.6229L42.1096 23.0371ZM41.8225 23.195H43.9975V21.195H41.8225V23.195ZM43.9975 23.195C44.0187 23.195 43.9872 23.1982 43.925 23.1774C43.8567 23.1547 43.751 23.1023 43.6551 22.9944L45.1499 21.6656C44.7938 21.265 44.3104 21.195 43.9975 21.195V23.195ZM43.7381 23.0774C43.6302 22.9815 43.5778 22.8758 43.5551 22.8075C43.5343 22.7453 43.5375 22.7138 43.5375 22.735H45.5375C45.5375 22.4221 45.4675 21.9387 45.0669 21.5826L43.7381 23.0774ZM43.5375 22.735V27.46H45.5375V22.735H43.5375ZM43.5375 27.46C43.5375 27.5142 43.5228 27.3455 43.6954 27.1729L45.1096 28.5871C45.4622 28.2345 45.5375 27.7858 45.5375 27.46H43.5375ZM43.6954 27.1729C43.7987 27.0696 43.9033 27.0271 43.9572 27.0112C44.0077 26.9962 44.0275 27 43.9975 27V29C44.2829 29 44.749 28.9478 45.1096 28.5871L43.6954 27.1729ZM54.2922 26.425L53.3538 26.0793L53.3512 26.0864L53.3487 26.0935L54.2922 26.425ZM53.5722 27.385L54.1796 28.1794L54.183 28.1768L53.5722 27.385ZM52.1472 28L51.9084 27.0289L51.9047 27.0299L52.1472 28ZM47.5422 28L47.3034 28.9711L47.3034 28.9711L47.5422 28ZM46.1022 27.385L45.4803 28.1681L45.4929 28.1781L45.5059 28.1877L46.1022 27.385ZM45.3822 26.425L44.436 26.7487L44.4412 26.7639L44.4469 26.7789L45.3822 26.425ZM45.3822 18.805L44.4438 18.4593L44.4412 18.4664L44.4387 18.4735L45.3822 18.805ZM46.1022 17.83L45.4913 17.0381L45.4803 17.0469L46.1022 17.83ZM47.5422 17.2L47.3034 16.2289L47.3034 16.2289L47.5422 17.2ZM52.1472 17.2L51.9047 18.1701L51.9084 18.1711L52.1472 17.2ZM53.5722 17.83L52.9502 18.6132L52.9614 18.6218L53.5722 17.83ZM54.2922 18.805L53.346 19.1287L53.3512 19.1439L53.3569 19.1589L54.2922 18.805ZM48.8172 25.135L48.1349 25.8661L48.1483 25.8786L48.1623 25.8907L48.8172 25.135ZM50.8872 25.135L51.5421 25.8907L51.556 25.8786L51.5695 25.8661L50.8872 25.135ZM50.8872 20.11L50.2049 20.8411L50.2183 20.8536L50.2323 20.8657L50.8872 20.11ZM48.8172 20.11L49.4721 20.8657L49.486 20.8536L49.4995 20.8411L48.8172 20.11ZM53.5022 25.165C53.5022 25.5229 53.4479 25.824 53.3538 26.0793L55.2305 26.7707C55.4165 26.266 55.5022 25.7271 55.5022 25.165H53.5022ZM53.3487 26.0935C53.2907 26.2586 53.1784 26.4258 52.9614 26.5932L54.183 28.1768C54.666 27.8042 55.0337 27.3314 55.2356 26.7565L53.3487 26.0935ZM52.9647 26.5906C52.7729 26.7374 52.4419 26.8977 51.9084 27.0289L52.386 28.9711C53.0725 28.8023 53.6915 28.5526 54.1796 28.1794L52.9647 26.5906ZM51.9047 27.0299C51.413 27.1528 50.737 27.225 49.8522 27.225V29.225C50.8273 29.225 51.6814 29.1472 52.3897 28.9701L51.9047 27.0299ZM49.8522 27.225C48.9681 27.225 48.2852 27.1529 47.781 27.0289L47.3034 28.9711C48.0192 29.1471 48.8763 29.225 49.8522 29.225V27.225ZM47.781 27.0289C47.2478 26.8978 46.9056 26.7361 46.6985 26.5823L45.5059 28.1877C45.9988 28.5539 46.6166 28.8022 47.3034 28.9711L47.781 27.0289ZM46.7241 26.6019C46.5111 26.4328 46.3875 26.2562 46.3175 26.0711L44.4469 26.7789C44.6569 27.3338 45.0132 27.7972 45.4803 28.1681L46.7241 26.6019ZM46.3284 26.1013C46.2388 25.8394 46.1872 25.5306 46.1872 25.165H44.1872C44.1872 25.7194 44.2656 26.2506 44.436 26.7487L46.3284 26.1013ZM46.1872 25.165V20.05H44.1872V25.165H46.1872ZM46.1872 20.05C46.1872 19.6838 46.2389 19.3833 46.3256 19.1365L44.4387 18.4735C44.2655 18.9667 44.1872 19.4962 44.1872 20.05H46.1872ZM46.3205 19.1507C46.3926 18.9552 46.5169 18.7776 46.7241 18.6131L45.4803 17.0469C45.0075 17.4224 44.6518 17.8948 44.4438 18.4593L46.3205 19.1507ZM46.713 18.6218C46.9167 18.4647 47.2534 18.3008 47.781 18.1711L47.3034 16.2289C46.611 16.3992 45.9877 16.6553 45.4914 17.0382L46.713 18.6218ZM47.781 18.1711C48.2852 18.0471 48.9681 17.975 49.8522 17.975V15.975C48.8763 15.975 48.0192 16.0529 47.3034 16.2289L47.781 18.1711ZM49.8522 17.975C50.737 17.975 51.413 18.0472 51.9047 18.1701L52.3897 16.2299C51.6814 16.0528 50.8273 15.975 49.8522 15.975V17.975ZM51.9084 18.1711C52.4363 18.3009 52.7617 18.4633 52.9503 18.6131L54.1941 17.0469C53.7027 16.6567 53.0781 16.3991 52.386 16.2289L51.9084 18.1711ZM52.9614 18.6218C53.1724 18.7845 53.2858 18.9527 53.346 19.1287L55.2384 18.4813C55.0385 17.8973 54.672 17.4155 54.183 17.0382L52.9614 18.6218ZM53.3569 19.1589C53.4478 19.399 53.5022 19.6915 53.5022 20.05H55.5022C55.5022 19.4884 55.4166 18.951 55.2275 18.4511L53.3569 19.1589ZM53.5022 20.05V25.165H55.5022V20.05H53.5022ZM47.5922 24.625C47.5922 25.1102 47.7882 25.5425 48.1349 25.8661L49.4995 24.4039C49.513 24.4166 49.5408 24.4478 49.5634 24.4989C49.5861 24.5505 49.5922 24.5968 49.5922 24.625H47.5922ZM48.1623 25.8907C48.4383 26.1299 48.7725 26.2205 49.0033 26.264C49.2601 26.3123 49.5494 26.33 49.8522 26.33V24.33C49.615 24.33 49.4618 24.3152 49.3736 24.2985C49.3309 24.2905 49.3208 24.2852 49.3328 24.2899C49.3427 24.2938 49.4005 24.3172 49.4721 24.3793L48.1623 25.8907ZM49.8522 26.33C50.155 26.33 50.4443 26.3123 50.7011 26.264C50.9319 26.2205 51.2661 26.1299 51.5421 25.8907L50.2323 24.3793C50.3039 24.3172 50.3617 24.2938 50.3716 24.2899C50.3836 24.2852 50.3735 24.2905 50.3308 24.2985C50.2426 24.3152 50.0894 24.33 49.8522 24.33V26.33ZM51.5695 25.8661C51.9162 25.5425 52.1122 25.1102 52.1122 24.625H50.1122C50.1122 24.5968 50.1182 24.5505 50.141 24.4989C50.1636 24.4478 50.1913 24.4166 50.2049 24.4039L51.5695 25.8661ZM52.1122 24.625V20.59H50.1122V24.625H52.1122ZM52.1122 20.59C52.1122 20.0955 51.9001 19.6646 51.5421 19.3543L50.2323 20.8657C50.2146 20.8503 50.1793 20.8134 50.1505 20.7519C50.1211 20.6893 50.1122 20.6305 50.1122 20.59H52.1122ZM51.5695 19.3789C51.2941 19.1219 50.9542 19.0211 50.7148 18.9725C50.452 18.9191 50.1576 18.9 49.8522 18.9V20.9C50.0867 20.9 50.2349 20.9159 50.3171 20.9325C50.3565 20.9405 50.363 20.9452 50.3476 20.9387C50.3334 20.9327 50.2747 20.9062 50.2049 20.8411L51.5695 19.3789ZM49.8522 18.9C49.5467 18.9 49.2524 18.9191 48.9896 18.9725C48.7501 19.0211 48.4103 19.1219 48.1349 19.3789L49.4995 20.8411C49.4297 20.9062 49.371 20.9327 49.3568 20.9387C49.3414 20.9452 49.3478 20.9405 49.3873 20.9325C49.4695 20.9159 49.6176 20.9 49.8522 20.9V18.9ZM48.1623 19.3543C47.8043 19.6646 47.5922 20.0955 47.5922 20.59H49.5922C49.5922 20.6305 49.5833 20.6893 49.5539 20.7519C49.5251 20.8134 49.4898 20.8503 49.4721 20.8657L48.1623 19.3543ZM47.5922 20.59V24.625H49.5922V20.59H47.5922ZM55.6318 27.88L54.8843 28.5444L54.9234 28.5883L54.9674 28.6274L55.6318 27.88ZM55.6318 17.335L54.9247 16.6279L54.9246 16.6279L55.6318 17.335ZM63.0118 17.77L62.383 18.5477L62.3932 18.5557L63.0118 17.77ZM63.4918 21.25L62.6175 20.7643L62.6113 20.7759L63.4918 21.25ZM62.8318 21.835L62.4341 20.9174L62.7384 22.8306L62.8318 21.835ZM64.2568 22.495L63.4819 23.1271L63.4819 23.1271L64.2568 22.495ZM64.0018 27.4L63.3615 26.6317L63.3536 26.6385L64.0018 27.4ZM58.8868 19.75V18.75H57.8868V19.75H58.8868ZM58.8868 21.37H57.8868V22.37H58.8868V21.37ZM60.5818 21.22L59.8747 20.5129L59.8561 20.5315L59.8385 20.551L60.5818 21.22ZM60.5818 19.9L59.8385 20.569L59.8561 20.5885L59.8747 20.6071L60.5818 19.9ZM58.8868 23.68V22.68H57.8868V23.68H58.8868ZM58.8868 25.45H57.8868V26.45H58.8868V25.45ZM61.2568 25.3L60.5497 24.5929L60.5311 24.6115L60.5135 24.631L61.2568 25.3ZM61.2568 23.83L60.5135 24.499L60.5487 24.5381L60.5878 24.5733L61.2568 23.83ZM61.8118 27H56.0518V29H61.8118V27ZM56.0518 27C56.0231 27 56.0372 26.9966 56.079 27.0085C56.1236 27.0212 56.2079 27.0542 56.2961 27.1326L54.9674 28.6274C55.3209 28.9416 55.7515 29 56.0518 29V27ZM56.3792 27.2156C56.4576 27.3038 56.4905 27.3882 56.5033 27.4328C56.5152 27.4745 56.5118 27.4887 56.5118 27.46H54.5118C54.5118 27.7602 54.5702 28.1909 54.8843 28.5444L56.3792 27.2156ZM56.5118 27.46V17.74H54.5118V27.46H56.5118ZM56.5118 17.74C56.5118 17.71 56.5155 17.7298 56.5006 17.7803C56.4846 17.8342 56.4421 17.9388 56.3389 18.0421L54.9246 16.6279C54.564 16.9885 54.5118 17.4546 54.5118 17.74H56.5118ZM56.3389 18.0421C56.1663 18.2147 55.9976 18.2 56.0518 18.2V16.2C55.7259 16.2 55.2773 16.2753 54.9247 16.6279L56.3389 18.0421ZM56.0518 18.2H60.8368V16.2H56.0518V18.2ZM60.8368 18.2C61.7201 18.2 62.172 18.377 62.383 18.5476L63.6405 16.9924C62.9115 16.403 61.9135 16.2 60.8368 16.2V18.2ZM62.3932 18.5557C62.5528 18.6814 62.7168 18.9205 62.7168 19.495H64.7168C64.7168 18.5095 64.4107 17.5986 63.6303 16.9843L62.3932 18.5557ZM62.7168 19.495V20.215H64.7168V19.495H62.7168ZM62.7168 20.215C62.7168 20.5236 62.6607 20.6868 62.6176 20.7644L64.3659 21.7356C64.6228 21.2732 64.7168 20.7464 64.7168 20.215H62.7168ZM62.6113 20.7759C62.5893 20.8166 62.5514 20.8666 62.4341 20.9174L63.2294 22.7526C63.7121 22.5434 64.1142 22.2034 64.3722 21.7241L62.6113 20.7759ZM62.7384 22.8306C63.1981 22.8737 63.3891 23.0134 63.4819 23.1271L65.0316 21.8629C64.5044 21.2166 63.7454 20.9163 62.9251 20.8394L62.7384 22.8306ZM63.4819 23.1271C63.59 23.2596 63.7218 23.5519 63.7218 24.16H65.7218C65.7218 23.3081 65.5435 22.4904 65.0316 21.8629L63.4819 23.1271ZM63.7218 24.16V25.54H65.7218V24.16H63.7218ZM63.7218 25.54C63.7218 26.1917 63.5416 26.4817 63.3616 26.6318L64.6419 28.1682C65.4219 27.5183 65.7218 26.5683 65.7218 25.54H63.7218ZM63.3536 26.6385C63.1459 26.8153 62.6991 27 61.8118 27V29C62.9045 29 63.9177 28.7847 64.6499 28.1615L63.3536 26.6385ZM57.8868 19.75V21.37H59.8868V19.75H57.8868ZM58.8868 22.37H60.1618V20.37H58.8868V22.37ZM60.1618 22.37C60.515 22.37 60.9776 22.275 61.3251 21.889L59.8385 20.551C59.9157 20.4652 60.0035 20.4156 60.0729 20.3908C60.1362 20.3682 60.1725 20.37 60.1618 20.37V22.37ZM61.2889 21.9271C61.6425 21.5734 61.7318 21.1241 61.7318 20.77H59.7318C59.7318 20.8159 59.721 20.6666 59.8747 20.5129L61.2889 21.9271ZM61.7318 20.77V20.35H59.7318V20.77H61.7318ZM61.7318 20.35C61.7318 19.9959 61.6425 19.5466 61.2889 19.1929L59.8747 20.6071C59.721 20.4534 59.7318 20.3041 59.7318 20.35H61.7318ZM61.3251 19.231C60.9776 18.845 60.515 18.75 60.1618 18.75V20.75C60.1725 20.75 60.1362 20.7518 60.0729 20.7292C60.0035 20.7044 59.9157 20.6548 59.8385 20.569L61.3251 19.231ZM60.1618 18.75H58.8868V20.75H60.1618V18.75ZM57.8868 23.68V25.45H59.8868V23.68H57.8868ZM58.8868 26.45H60.8368V24.45H58.8868V26.45ZM60.8368 26.45C61.19 26.45 61.6526 26.355 62.0001 25.969L60.5135 24.631C60.5907 24.5452 60.6785 24.4956 60.7479 24.4708C60.8112 24.4482 60.8475 24.45 60.8368 24.45V26.45ZM61.9639 26.0071C62.3175 25.6534 62.4068 25.2041 62.4068 24.85H60.4068C60.4068 24.8959 60.396 24.7466 60.5497 24.5929L61.9639 26.0071ZM62.4068 24.85V24.265H60.4068V24.85H62.4068ZM62.4068 24.265C62.4068 23.9206 62.3214 23.4428 61.9257 23.0867L60.5878 24.5733C60.3921 24.3972 60.4068 24.2094 60.4068 24.265H62.4068ZM62.0001 23.161C61.6526 22.775 61.19 22.68 60.8368 22.68V24.68C60.8475 24.68 60.8112 24.6818 60.7479 24.6592C60.6785 24.6344 60.5907 24.5848 60.5135 24.499L62.0001 23.161ZM60.8368 22.68H58.8868V24.68H60.8368V22.68ZM69.3959 20.35L68.4821 19.9439L68.458 19.998L68.4405 20.0546L69.3959 20.35ZM68.6909 22.63L67.7355 22.3346L67.335 23.63H68.6909V22.63ZM71.0459 22.63V23.63H72.4018L72.0013 22.3346L71.0459 22.63ZM70.3409 20.35L71.2963 20.0546L71.2788 19.998L71.2547 19.9439L70.3409 20.35ZM70.2059 20.155L69.4988 20.8621L69.538 20.9013L69.5812 20.9359L70.2059 20.155ZM69.5159 20.155L68.8912 19.3741L68.848 19.4087L68.8088 19.4479L69.5159 20.155ZM68.4059 27.88L67.6988 27.1729L67.6988 27.1729L68.4059 27.88ZM65.3759 27.88L64.6285 28.5444L64.6676 28.5883L64.7115 28.6274L65.3759 27.88ZM65.3909 22.465L64.4222 22.2166L64.4192 22.2283L64.4165 22.2401L65.3909 22.465ZM65.8409 21.1L66.7742 21.459L66.7747 21.4579L65.8409 21.1ZM67.1459 17.695L68.0797 18.0529L68.0844 18.0404L68.0889 18.0278L67.1459 17.695ZM67.4159 17.32L66.8918 16.4683L66.8763 16.4779L66.8612 16.4879L67.4159 17.32ZM72.4109 17.32L71.8562 18.152L71.8713 18.1621L71.8868 18.1717L72.4109 17.32ZM72.6959 17.695L71.7529 18.0278L71.7574 18.0404L71.7621 18.0529L72.6959 17.695ZM74.0009 21.1L73.0671 21.4579L73.0676 21.459L74.0009 21.1ZM74.4359 22.465L73.4615 22.6899L73.4642 22.7017L73.4672 22.7134L74.4359 22.465ZM74.4509 27.88L75.158 28.5871L75.158 28.5871L74.4509 27.88ZM71.3309 27.88L70.6238 28.5871L70.663 28.6263L70.7062 28.6609L71.3309 27.88ZM71.1959 25.36H72.1959V24.36H71.1959V25.36ZM68.5409 25.36V24.36H67.5409V25.36H68.5409ZM68.4405 20.0546L67.7355 22.3346L69.6463 22.9254L70.3513 20.6454L68.4405 20.0546ZM68.6909 23.63H71.0459V21.63H68.6909V23.63ZM72.0013 22.3346L71.2963 20.0546L69.3855 20.6454L70.0905 22.9254L72.0013 22.3346ZM71.2547 19.9439C71.1815 19.7791 71.055 19.5536 70.8306 19.3741L69.5812 20.9359C69.5151 20.883 69.4753 20.8323 69.455 20.803C69.4443 20.7876 69.4373 20.7755 69.4332 20.768C69.429 20.7605 69.4271 20.7562 69.4271 20.7561L71.2547 19.9439ZM70.913 19.4479C70.6732 19.2081 70.3633 19.095 70.0559 19.095V21.095C69.9732 21.095 69.8729 21.0808 69.767 21.0385C69.66 20.9957 69.5696 20.9329 69.4988 20.8621L70.913 19.4479ZM70.0559 19.095H69.6809V21.095H70.0559V19.095ZM69.6809 19.095C69.378 19.095 69.1057 19.2025 68.8912 19.3741L70.1406 20.9359C70.0261 21.0275 69.8638 21.095 69.6809 21.095V19.095ZM68.8088 19.4479C68.6404 19.6163 68.5406 19.8122 68.4821 19.9439L70.3097 20.7561C70.3165 20.7408 70.3164 20.7434 70.3076 20.7578C70.2999 20.7703 70.2735 20.8116 70.223 20.8621L68.8088 19.4479ZM67.5409 27.46C67.5409 27.5142 67.5262 27.3455 67.6988 27.1729L69.113 28.5871C69.4656 28.2345 69.5409 27.7858 69.5409 27.46H67.5409ZM67.6988 27.1729C67.8021 27.0696 67.9067 27.0271 67.9606 27.0112C68.0111 26.9962 68.0309 27 68.0009 27V29C68.2863 29 68.7524 28.9478 69.113 28.5871L67.6988 27.1729ZM68.0009 27H65.7959V29H68.0009V27ZM65.7959 27C65.7672 27 65.7814 26.9966 65.8231 27.0085C65.8677 27.0212 65.9521 27.0542 66.0403 27.1326L64.7115 28.6274C65.065 28.9416 65.4957 29 65.7959 29V27ZM66.1233 27.2156C66.2017 27.3038 66.2347 27.3882 66.2474 27.4328C66.2593 27.4745 66.2559 27.4887 66.2559 27.46H64.2559C64.2559 27.7602 64.3143 28.1909 64.6285 28.5444L66.1233 27.2156ZM66.2559 27.46V23.5H64.2559V27.46H66.2559ZM66.2559 23.5C66.2559 23.296 66.287 23.029 66.3653 22.6899L64.4165 22.2401C64.3148 22.681 64.2559 23.104 64.2559 23.5H66.2559ZM66.3596 22.7134C66.4471 22.372 66.5833 21.9554 66.7742 21.459L64.9076 20.741C64.6985 21.2846 64.5347 21.778 64.4222 22.2166L66.3596 22.7134ZM66.7747 21.4579L68.0797 18.0529L66.2121 17.3371L64.9071 20.7421L66.7747 21.4579ZM68.0889 18.0278C68.0925 18.0176 68.089 18.0316 68.0699 18.0581C68.0497 18.0862 68.017 18.1211 67.9706 18.1521L66.8612 16.4879C66.5203 16.7152 66.3166 17.0399 66.2029 17.3622L68.0889 18.0278ZM67.94 18.1717C67.9063 18.1924 67.8808 18.1999 67.8728 18.2018C67.8659 18.2035 67.8766 18.2 67.9109 18.2V16.2C67.582 16.2 67.2212 16.2656 66.8918 16.4683L67.94 18.1717ZM67.9109 18.2H71.9459V16.2H67.9109V18.2ZM71.9459 18.2C72.0002 18.2 71.9452 18.2114 71.8562 18.152L72.9656 16.488C72.6366 16.2686 72.2716 16.2 71.9459 16.2V18.2ZM71.8868 18.1717C71.8437 18.1451 71.8085 18.1118 71.7835 18.0788C71.7597 18.0475 71.7524 18.0264 71.7529 18.0278L73.6389 17.3622C73.5171 17.0172 73.2938 16.6891 72.935 16.4683L71.8868 18.1717ZM71.7621 18.0529L73.0671 21.4579L74.9347 20.7421L73.6297 17.3371L71.7621 18.0529ZM73.0676 21.459C73.2567 21.9508 73.3852 22.3592 73.4615 22.6899L75.4103 22.2401C75.3066 21.7908 75.1451 21.2892 74.9342 20.741L73.0676 21.459ZM73.4672 22.7134C73.553 23.048 73.5859 23.3067 73.5859 23.5H75.5859C75.5859 23.0933 75.5188 22.662 75.4046 22.2166L73.4672 22.7134ZM73.5859 23.5V27.46H75.5859V23.5H73.5859ZM73.5859 27.46C73.5859 27.5142 73.5712 27.3455 73.7438 27.1729L75.158 28.5871C75.5106 28.2345 75.5859 27.7858 75.5859 27.46H73.5859ZM73.7438 27.1729C73.8471 27.0696 73.9517 27.0271 74.0056 27.0112C74.0561 26.9962 74.0759 27 74.0459 27V29C74.3313 29 74.7974 28.9478 75.158 28.5871L73.7438 27.1729ZM74.0459 27H71.7809V29H74.0459V27ZM71.7809 27C71.7443 27 71.7469 26.996 71.7761 27.0038C71.8071 27.012 71.877 27.0363 71.9556 27.0991L70.7062 28.6609C71.0589 28.943 71.4741 29 71.7809 29V27ZM72.038 27.1729C72.2106 27.3455 72.1959 27.5142 72.1959 27.46H70.1959C70.1959 27.7858 70.2712 28.2345 70.6238 28.5871L72.038 27.1729ZM72.1959 27.46V25.36H70.1959V27.46H72.1959ZM71.1959 24.36H68.5409V26.36H71.1959V24.36ZM67.5409 25.36V27.46H69.5409V25.36H67.5409ZM75.6579 27.88L74.9105 28.5444L74.9496 28.5883L74.9936 28.6274L75.6579 27.88ZM75.6579 17.335L74.9508 16.6279L74.9508 16.6279L75.6579 17.335ZM78.8079 17.335L78.0605 17.9994L78.0996 18.0433L78.1436 18.0824L78.8079 17.335ZM78.9429 25.165H77.9429V26.165H78.9429V25.165ZM80.9979 25.165V26.165H81.9979V25.165H80.9979ZM81.1179 22.33L80.4108 21.6229L80.4108 21.6229L81.1179 22.33ZM84.1179 22.33L83.3705 22.9944L83.4096 23.0383L83.4536 23.0774L84.1179 22.33ZM84.1179 27.88L84.825 28.5871L84.825 28.5871L84.1179 27.88ZM83.7129 27H76.0779V29H83.7129V27ZM76.0779 27C76.0493 27 76.0634 26.9966 76.1052 27.0085C76.1497 27.0212 76.2341 27.0542 76.3223 27.1326L74.9936 28.6274C75.347 28.9416 75.7777 29 76.0779 29V27ZM76.4053 27.2156C76.4837 27.3038 76.5167 27.3882 76.5295 27.4328C76.5414 27.4745 76.5379 27.4887 76.5379 27.46H74.5379C74.5379 27.7602 74.5963 28.1909 74.9105 28.5444L76.4053 27.2156ZM76.5379 27.46V17.74H74.5379V27.46H76.5379ZM76.5379 17.74C76.5379 17.71 76.5417 17.7298 76.5267 17.7803C76.5108 17.8342 76.4683 17.9388 76.365 18.0421L74.9508 16.6279C74.5902 16.9885 74.5379 17.4546 74.5379 17.74H76.5379ZM76.365 18.0421C76.1924 18.2147 76.0237 18.2 76.0779 18.2V16.2C75.7521 16.2 75.3034 16.2753 74.9508 16.6279L76.365 18.0421ZM76.0779 18.2H78.4029V16.2H76.0779V18.2ZM78.4029 18.2C78.4242 18.2 78.3926 18.2032 78.3305 18.1824C78.2622 18.1597 78.1564 18.1073 78.0605 17.9994L79.5553 16.6706C79.1992 16.27 78.7158 16.2 78.4029 16.2V18.2ZM78.1436 18.0824C78.0357 17.9865 77.9833 17.8808 77.9605 17.8125C77.9398 17.7503 77.9429 17.7188 77.9429 17.74H79.9429C79.9429 17.4271 79.873 16.9437 79.4723 16.5876L78.1436 18.0824ZM77.9429 17.74V25.165H79.9429V17.74H77.9429ZM78.9429 26.165H80.9979V24.165H78.9429V26.165ZM81.9979 25.165V22.735H79.9979V25.165H81.9979ZM81.9979 22.735C81.9979 22.705 82.0017 22.7248 81.9867 22.7753C81.9708 22.8292 81.9283 22.9338 81.825 23.0371L80.4108 21.6229C80.0502 21.9835 79.9979 22.4496 79.9979 22.735H81.9979ZM81.825 23.0371C81.6524 23.2097 81.4837 23.195 81.5379 23.195V21.195C81.2121 21.195 80.7634 21.2703 80.4108 21.6229L81.825 23.0371ZM81.5379 23.195H83.7129V21.195H81.5379V23.195ZM83.7129 23.195C83.7342 23.195 83.7026 23.1982 83.6405 23.1774C83.5722 23.1547 83.4664 23.1023 83.3705 22.9944L84.8653 21.6656C84.5092 21.265 84.0258 21.195 83.7129 21.195V23.195ZM83.4536 23.0774C83.3457 22.9815 83.2933 22.8758 83.2705 22.8075C83.2498 22.7453 83.2529 22.7138 83.2529 22.735H85.2529C85.2529 22.4221 85.183 21.9387 84.7823 21.5826L83.4536 23.0774ZM83.2529 22.735V27.46H85.2529V22.735H83.2529ZM83.2529 27.46C83.2529 27.5142 83.2382 27.3455 83.4108 27.1729L84.825 28.5871C85.1776 28.2345 85.2529 27.7858 85.2529 27.46H83.2529ZM83.4108 27.1729C83.5141 27.0696 83.6188 27.0271 83.6726 27.0112C83.7231 26.9962 83.743 27 83.7129 27V29C83.9983 29 84.4644 28.9478 84.825 28.5871L83.4108 27.1729Z" fill="black" mask="url(#path-8-outside-1_2530_1399)"/>
</g>
<defs>
<filter id="filter0_d_2530_1399" x="25.9375" y="16.9751" width="58.3154" height="13.25" filterUnits="userSpaceOnUse" color-interpolation-filters="sRGB">
<feFlood flood-opacity="0" result="BackgroundImageFix"/>
<feColorMatrix in="SourceAlpha" type="matrix" values="0 0 0 0 0 0 0 0 0 0 0 0 0 0 0 0 0 0 127 0" result="hardAlpha"/>
<feOffset dy="2"/>
<feComposite in2="hardAlpha" operator="out"/>
<feColorMatrix type="matrix" values="0 0 0 0 0 0 0 0 0 0 0 0 0 0 0 0 0 0 1 0"/>
<feBlend mode="normal" in2="BackgroundImageFix" result="effect1_dropShadow_2530_1399"/>
<feBlend mode="normal" in="SourceGraphic" in2="effect1_dropShadow_2530_1399" result="shape"/>
</filter>
<linearGradient id="paint0_linear_2530_1399" x1="56.4444" y1="38.0462" x2="56.4444" y2="47.0462" gradientUnits="userSpaceOnUse">
<stop stop-color="#2E0D68"/>
<stop offset="1" stop-color="#5D22AC"/>
</linearGradient>
<linearGradient id="paint1_linear_2530_1399" x1="41.375" y1="42" x2="41.375" y2="2" gradientUnits="userSpaceOnUse">
<stop stop-color="#F6E6F6"/>
<stop offset="1" stop-color="#D293FE"/>
</linearGradient>
<linearGradient id="paint2_linear_2530_1399" x1="4.43056" y1="5" x2="15.0704" y2="11.8054" gradientUnits="userSpaceOnUse">
<stop stop-color="white"/>
<stop offset="1" stop-color="white" stop-opacity="0"/>
</linearGradient>
<linearGradient id="paint3_linear_2530_1399" x1="68.3029" y1="9.93548" x2="68.3029" y2="30.2258" gradientUnits="userSpaceOnUse">
<stop stop-color="#E4ADFF"/>
<stop offset="1" stop-color="#D590FD"/>
</linearGradient>
</defs>
</svg>
