<svg width="116" height="46" viewBox="0 0 116 46" fill="none" xmlns="http://www.w3.org/2000/svg">
<rect width="116" height="46" rx="8" fill="black"/>
<rect x="2" y="3.84619" width="112" height="40" rx="7" fill="url(#paint0_linear_2529_664)"/>
<rect x="2" y="2" width="112" height="38" rx="7" fill="url(#paint1_linear_2529_664)"/>
<rect x="2" y="2" width="112" height="40" rx="7" fill="url(#paint2_linear_2529_664)"/>
<rect x="5" y="5" width="106" height="32" rx="6" fill="url(#paint3_linear_2529_664)"/>
<ellipse cx="3.5438" cy="1.99141" rx="3.5438" ry="1.99141" transform="matrix(0.73474 -0.678349 0.574531 0.818483 3.78027 8.24414)" fill="#FCF7FF"/>
<ellipse cx="2.90149" cy="1.99141" rx="2.90149" ry="1.99141" transform="matrix(0.73474 -0.678349 0.574531 0.818483 105.78 34.2441)" fill="#F2DCF7"/>
<g filter="url(#filter0_d_2529_664)">
<mask id="path-8-outside-1_2529_664" maskUnits="userSpaceOnUse" x="24" y="15" width="69" height="13" fill="black">
<rect fill="white" x="24" y="15" width="69" height="13"/>
<path d="M32.6085 27H28.9485C27.6985 27 26.7685 26.75 26.1585 26.25C25.5585 25.75 25.2585 24.98 25.2585 23.94V19.275C25.2585 18.235 25.5585 17.465 26.1585 16.965C26.7685 16.455 27.6985 16.2 28.9485 16.2H32.6085C32.7985 16.2 32.9335 16.245 33.0135 16.335C33.1035 16.415 33.1485 16.55 33.1485 16.74V18.555C33.1485 18.745 33.1035 18.885 33.0135 18.975C32.9335 19.055 32.7985 19.095 32.6085 19.095H29.5935C29.2835 19.095 29.0535 19.16 28.9035 19.29C28.7535 19.41 28.6785 19.595 28.6785 19.845V23.415C28.6785 23.665 28.7535 23.85 28.9035 23.97C29.0535 24.08 29.2835 24.135 29.5935 24.135H32.6085C32.7985 24.135 32.9335 24.18 33.0135 24.27C33.1035 24.35 33.1485 24.485 33.1485 24.675V26.46C33.1485 26.65 33.1035 26.79 33.0135 26.88C32.9335 26.96 32.7985 27 32.6085 27ZM42.1174 27H34.4824C34.2924 27 34.1524 26.96 34.0624 26.88C33.9824 26.79 33.9424 26.65 33.9424 26.46V16.74C33.9424 16.55 33.9824 16.415 34.0624 16.335C34.1524 16.245 34.2924 16.2 34.4824 16.2H36.8074C36.9974 16.2 37.1324 16.245 37.2124 16.335C37.3024 16.415 37.3474 16.55 37.3474 16.74V24.165H39.4024V21.735C39.4024 21.545 39.4424 21.41 39.5224 21.33C39.6124 21.24 39.7524 21.195 39.9424 21.195H42.1174C42.3074 21.195 42.4424 21.24 42.5224 21.33C42.6124 21.41 42.6574 21.545 42.6574 21.735V26.46C42.6574 26.65 42.6124 26.79 42.5224 26.88C42.4424 26.96 42.3074 27 42.1174 27ZM47.3871 19.35L46.6821 21.63H49.0371L48.3321 19.35C48.2921 19.26 48.2471 19.195 48.1971 19.155C48.1571 19.115 48.1071 19.095 48.0471 19.095H47.6721C47.6121 19.095 47.5571 19.115 47.5071 19.155C47.4671 19.195 47.4271 19.26 47.3871 19.35ZM46.5321 26.46C46.5321 26.65 46.4871 26.79 46.3971 26.88C46.3171 26.96 46.1821 27 45.9921 27H43.7871C43.5971 27 43.4571 26.96 43.3671 26.88C43.2871 26.79 43.2471 26.65 43.2471 26.46V22.5C43.2471 22.2 43.2921 21.855 43.3821 21.465C43.4821 21.075 43.6321 20.62 43.8321 20.1L45.1371 16.695C45.1971 16.525 45.2871 16.4 45.4071 16.32C45.5371 16.24 45.7021 16.2 45.9021 16.2H49.9371C50.1271 16.2 50.2821 16.24 50.4021 16.32C50.5321 16.4 50.6271 16.525 50.6871 16.695L51.9921 20.1C52.1921 20.62 52.3371 21.075 52.4271 21.465C52.5271 21.855 52.5771 22.2 52.5771 22.5V26.46C52.5771 26.65 52.5321 26.79 52.4421 26.88C52.3621 26.96 52.2271 27 52.0371 27H49.7721C49.5721 27 49.4221 26.96 49.3221 26.88C49.2321 26.79 49.1871 26.65 49.1871 26.46V24.36H46.5321V26.46ZM53.8291 27C53.6391 27 53.4991 26.96 53.4091 26.88C53.3291 26.79 53.2891 26.65 53.2891 26.46V24.675C53.2891 24.485 53.3291 24.35 53.4091 24.27C53.4991 24.18 53.6391 24.135 53.8291 24.135H55.3141V19.095H53.8291C53.6391 19.095 53.4991 19.055 53.4091 18.975C53.3291 18.885 53.2891 18.745 53.2891 18.555V16.74C53.2891 16.55 53.3291 16.415 53.4091 16.335C53.4991 16.245 53.6391 16.2 53.8291 16.2H60.2191C60.4091 16.2 60.5441 16.245 60.6241 16.335C60.7141 16.415 60.7591 16.55 60.7591 16.74V18.555C60.7591 18.745 60.7141 18.885 60.6241 18.975C60.5441 19.055 60.4091 19.095 60.2191 19.095H58.7641V24.135H60.2191C60.4091 24.135 60.5441 24.18 60.6241 24.27C60.7141 24.35 60.7591 24.485 60.7591 24.675V26.46C60.7591 26.65 60.7141 26.79 60.6241 26.88C60.5441 26.96 60.4091 27 60.2191 27H53.8291ZM64.4862 27H62.2512C62.0612 27 61.9212 26.96 61.8312 26.88C61.7512 26.79 61.7112 26.65 61.7112 26.46V16.74C61.7112 16.55 61.7512 16.415 61.8312 16.335C61.9212 16.245 62.0612 16.2 62.2512 16.2H64.6662C64.8262 16.2 64.9562 16.235 65.0562 16.305C65.1662 16.375 65.2662 16.49 65.3562 16.65L66.7062 19.095C66.7562 19.185 66.7962 19.25 66.8262 19.29C66.8662 19.33 66.9162 19.35 66.9762 19.35H67.1112C67.1712 19.35 67.2162 19.33 67.2462 19.29C67.2862 19.25 67.3312 19.185 67.3812 19.095L68.7162 16.65C68.8062 16.49 68.9012 16.375 69.0012 16.305C69.1112 16.235 69.2462 16.2 69.4062 16.2H71.8362C72.0262 16.2 72.1612 16.245 72.2412 16.335C72.3312 16.415 72.3762 16.55 72.3762 16.74V26.46C72.3762 26.65 72.3312 26.79 72.2412 26.88C72.1612 26.96 72.0262 27 71.8362 27H69.5262C69.3362 27 69.1962 26.96 69.1062 26.88C69.0262 26.79 68.9862 26.65 68.9862 26.46V21.18L68.1012 22.815C68.0112 22.985 67.9012 23.11 67.7712 23.19C67.6512 23.26 67.4962 23.295 67.3062 23.295H66.7062C66.5162 23.295 66.3562 23.26 66.2262 23.19C66.1062 23.11 66.0012 22.985 65.9112 22.815L65.0262 21.18V26.46C65.0262 26.65 64.9812 26.79 64.8912 26.88C64.8112 26.96 64.6762 27 64.4862 27ZM81.0407 27H74.0807C73.8907 27 73.7507 26.96 73.6607 26.88C73.5807 26.79 73.5407 26.65 73.5407 26.46V16.74C73.5407 16.55 73.5807 16.415 73.6607 16.335C73.7507 16.245 73.8907 16.2 74.0807 16.2H81.0407C81.2307 16.2 81.3657 16.245 81.4457 16.335C81.5357 16.415 81.5807 16.55 81.5807 16.74V18.495C81.5807 18.685 81.5357 18.825 81.4457 18.915C81.3657 18.995 81.2307 19.035 81.0407 19.035H76.9007V20.19H79.8257C80.0157 20.19 80.1507 20.235 80.2307 20.325C80.3207 20.405 80.3657 20.54 80.3657 20.73V22.335C80.3657 22.525 80.3207 22.665 80.2307 22.755C80.1507 22.835 80.0157 22.875 79.8257 22.875H76.9007V24.165H81.0407C81.2307 24.165 81.3657 24.21 81.4457 24.3C81.5357 24.38 81.5807 24.515 81.5807 24.705V26.46C81.5807 26.65 81.5357 26.79 81.4457 26.88C81.3657 26.96 81.2307 27 81.0407 27ZM88.0501 27H82.9951C82.8051 27 82.6651 26.96 82.5751 26.88C82.4951 26.79 82.4551 26.65 82.4551 26.46V16.74C82.4551 16.55 82.4951 16.415 82.5751 16.335C82.6651 16.245 82.8051 16.2 82.9951 16.2H88.0501C89.3001 16.2 90.2251 16.45 90.8251 16.95C91.4351 17.45 91.7401 18.22 91.7401 19.26V23.94C91.7401 24.98 91.4351 25.75 90.8251 26.25C90.2251 26.75 89.3001 27 88.0501 27ZM85.8601 19.065V24.165H87.6451C87.8851 24.165 88.0601 24.105 88.1701 23.985C88.2901 23.865 88.3501 23.68 88.3501 23.43V19.785C88.3501 19.535 88.2901 19.355 88.1701 19.245C88.0601 19.125 87.8851 19.065 87.6451 19.065H85.8601Z"/>
</mask>
<path d="M32.6085 27H28.9485C27.6985 27 26.7685 26.75 26.1585 26.25C25.5585 25.75 25.2585 24.98 25.2585 23.94V19.275C25.2585 18.235 25.5585 17.465 26.1585 16.965C26.7685 16.455 27.6985 16.2 28.9485 16.2H32.6085C32.7985 16.2 32.9335 16.245 33.0135 16.335C33.1035 16.415 33.1485 16.55 33.1485 16.74V18.555C33.1485 18.745 33.1035 18.885 33.0135 18.975C32.9335 19.055 32.7985 19.095 32.6085 19.095H29.5935C29.2835 19.095 29.0535 19.16 28.9035 19.29C28.7535 19.41 28.6785 19.595 28.6785 19.845V23.415C28.6785 23.665 28.7535 23.85 28.9035 23.97C29.0535 24.08 29.2835 24.135 29.5935 24.135H32.6085C32.7985 24.135 32.9335 24.18 33.0135 24.27C33.1035 24.35 33.1485 24.485 33.1485 24.675V26.46C33.1485 26.65 33.1035 26.79 33.0135 26.88C32.9335 26.96 32.7985 27 32.6085 27ZM42.1174 27H34.4824C34.2924 27 34.1524 26.96 34.0624 26.88C33.9824 26.79 33.9424 26.65 33.9424 26.46V16.74C33.9424 16.55 33.9824 16.415 34.0624 16.335C34.1524 16.245 34.2924 16.2 34.4824 16.2H36.8074C36.9974 16.2 37.1324 16.245 37.2124 16.335C37.3024 16.415 37.3474 16.55 37.3474 16.74V24.165H39.4024V21.735C39.4024 21.545 39.4424 21.41 39.5224 21.33C39.6124 21.24 39.7524 21.195 39.9424 21.195H42.1174C42.3074 21.195 42.4424 21.24 42.5224 21.33C42.6124 21.41 42.6574 21.545 42.6574 21.735V26.46C42.6574 26.65 42.6124 26.79 42.5224 26.88C42.4424 26.96 42.3074 27 42.1174 27ZM47.3871 19.35L46.6821 21.63H49.0371L48.3321 19.35C48.2921 19.26 48.2471 19.195 48.1971 19.155C48.1571 19.115 48.1071 19.095 48.0471 19.095H47.6721C47.6121 19.095 47.5571 19.115 47.5071 19.155C47.4671 19.195 47.4271 19.26 47.3871 19.35ZM46.5321 26.46C46.5321 26.65 46.4871 26.79 46.3971 26.88C46.3171 26.96 46.1821 27 45.9921 27H43.7871C43.5971 27 43.4571 26.96 43.3671 26.88C43.2871 26.79 43.2471 26.65 43.2471 26.46V22.5C43.2471 22.2 43.2921 21.855 43.3821 21.465C43.4821 21.075 43.6321 20.62 43.8321 20.1L45.1371 16.695C45.1971 16.525 45.2871 16.4 45.4071 16.32C45.5371 16.24 45.7021 16.2 45.9021 16.2H49.9371C50.1271 16.2 50.2821 16.24 50.4021 16.32C50.5321 16.4 50.6271 16.525 50.6871 16.695L51.9921 20.1C52.1921 20.62 52.3371 21.075 52.4271 21.465C52.5271 21.855 52.5771 22.2 52.5771 22.5V26.46C52.5771 26.65 52.5321 26.79 52.4421 26.88C52.3621 26.96 52.2271 27 52.0371 27H49.7721C49.5721 27 49.4221 26.96 49.3221 26.88C49.2321 26.79 49.1871 26.65 49.1871 26.46V24.36H46.5321V26.46ZM53.8291 27C53.6391 27 53.4991 26.96 53.4091 26.88C53.3291 26.79 53.2891 26.65 53.2891 26.46V24.675C53.2891 24.485 53.3291 24.35 53.4091 24.27C53.4991 24.18 53.6391 24.135 53.8291 24.135H55.3141V19.095H53.8291C53.6391 19.095 53.4991 19.055 53.4091 18.975C53.3291 18.885 53.2891 18.745 53.2891 18.555V16.74C53.2891 16.55 53.3291 16.415 53.4091 16.335C53.4991 16.245 53.6391 16.2 53.8291 16.2H60.2191C60.4091 16.2 60.5441 16.245 60.6241 16.335C60.7141 16.415 60.7591 16.55 60.7591 16.74V18.555C60.7591 18.745 60.7141 18.885 60.6241 18.975C60.5441 19.055 60.4091 19.095 60.2191 19.095H58.7641V24.135H60.2191C60.4091 24.135 60.5441 24.18 60.6241 24.27C60.7141 24.35 60.7591 24.485 60.7591 24.675V26.46C60.7591 26.65 60.7141 26.79 60.6241 26.88C60.5441 26.96 60.4091 27 60.2191 27H53.8291ZM64.4862 27H62.2512C62.0612 27 61.9212 26.96 61.8312 26.88C61.7512 26.79 61.7112 26.65 61.7112 26.46V16.74C61.7112 16.55 61.7512 16.415 61.8312 16.335C61.9212 16.245 62.0612 16.2 62.2512 16.2H64.6662C64.8262 16.2 64.9562 16.235 65.0562 16.305C65.1662 16.375 65.2662 16.49 65.3562 16.65L66.7062 19.095C66.7562 19.185 66.7962 19.25 66.8262 19.29C66.8662 19.33 66.9162 19.35 66.9762 19.35H67.1112C67.1712 19.35 67.2162 19.33 67.2462 19.29C67.2862 19.25 67.3312 19.185 67.3812 19.095L68.7162 16.65C68.8062 16.49 68.9012 16.375 69.0012 16.305C69.1112 16.235 69.2462 16.2 69.4062 16.2H71.8362C72.0262 16.2 72.1612 16.245 72.2412 16.335C72.3312 16.415 72.3762 16.55 72.3762 16.74V26.46C72.3762 26.65 72.3312 26.79 72.2412 26.88C72.1612 26.96 72.0262 27 71.8362 27H69.5262C69.3362 27 69.1962 26.96 69.1062 26.88C69.0262 26.79 68.9862 26.65 68.9862 26.46V21.18L68.1012 22.815C68.0112 22.985 67.9012 23.11 67.7712 23.19C67.6512 23.26 67.4962 23.295 67.3062 23.295H66.7062C66.5162 23.295 66.3562 23.26 66.2262 23.19C66.1062 23.11 66.0012 22.985 65.9112 22.815L65.0262 21.18V26.46C65.0262 26.65 64.9812 26.79 64.8912 26.88C64.8112 26.96 64.6762 27 64.4862 27ZM81.0407 27H74.0807C73.8907 27 73.7507 26.96 73.6607 26.88C73.5807 26.79 73.5407 26.65 73.5407 26.46V16.74C73.5407 16.55 73.5807 16.415 73.6607 16.335C73.7507 16.245 73.8907 16.2 74.0807 16.2H81.0407C81.2307 16.2 81.3657 16.245 81.4457 16.335C81.5357 16.415 81.5807 16.55 81.5807 16.74V18.495C81.5807 18.685 81.5357 18.825 81.4457 18.915C81.3657 18.995 81.2307 19.035 81.0407 19.035H76.9007V20.19H79.8257C80.0157 20.19 80.1507 20.235 80.2307 20.325C80.3207 20.405 80.3657 20.54 80.3657 20.73V22.335C80.3657 22.525 80.3207 22.665 80.2307 22.755C80.1507 22.835 80.0157 22.875 79.8257 22.875H76.9007V24.165H81.0407C81.2307 24.165 81.3657 24.21 81.4457 24.3C81.5357 24.38 81.5807 24.515 81.5807 24.705V26.46C81.5807 26.65 81.5357 26.79 81.4457 26.88C81.3657 26.96 81.2307 27 81.0407 27ZM88.0501 27H82.9951C82.8051 27 82.6651 26.96 82.5751 26.88C82.4951 26.79 82.4551 26.65 82.4551 26.46V16.74C82.4551 16.55 82.4951 16.415 82.5751 16.335C82.6651 16.245 82.8051 16.2 82.9951 16.2H88.0501C89.3001 16.2 90.2251 16.45 90.8251 16.95C91.4351 17.45 91.7401 18.22 91.7401 19.26V23.94C91.7401 24.98 91.4351 25.75 90.8251 26.25C90.2251 26.75 89.3001 27 88.0501 27ZM85.8601 19.065V24.165H87.6451C87.8851 24.165 88.0601 24.105 88.1701 23.985C88.2901 23.865 88.3501 23.68 88.3501 23.43V19.785C88.3501 19.535 88.2901 19.355 88.1701 19.245C88.0601 19.125 87.8851 19.065 87.6451 19.065H85.8601Z" fill="white"/>
<path d="M26.1585 26.25L25.5183 27.0182L25.5245 27.0234L26.1585 26.25ZM26.1585 16.965L26.7987 17.7332L26.7999 17.7322L26.1585 16.965ZM33.0135 16.335L32.2661 16.9994L32.3051 17.0433L32.3491 17.0824L33.0135 16.335ZM33.0135 18.975L33.7206 19.6821L33.0135 18.975ZM28.9035 19.29L29.5282 20.0709L29.5435 20.0586L29.5584 20.0457L28.9035 19.29ZM28.9035 23.97L28.2788 24.7509L28.2952 24.764L28.3121 24.7764L28.9035 23.97ZM33.0135 24.27L32.2661 24.9344L32.3051 24.9783L32.3491 25.0174L33.0135 24.27ZM33.0135 26.88L33.7206 27.5871L33.7206 27.5871L33.0135 26.88ZM32.6085 26H28.9485V28H32.6085V26ZM28.9485 26C27.8026 26 27.1453 25.7659 26.7924 25.4766L25.5245 27.0234C26.3916 27.7341 27.5944 28 28.9485 28V26ZM26.7987 25.4818C26.4965 25.23 26.2585 24.788 26.2585 23.94H24.2585C24.2585 25.172 24.6205 26.27 25.5183 27.0182L26.7987 25.4818ZM26.2585 23.94V19.275H24.2585V23.94H26.2585ZM26.2585 19.275C26.2585 18.427 26.4965 17.985 26.7987 17.7332L25.5183 16.1968C24.6205 16.945 24.2585 18.043 24.2585 19.275H26.2585ZM26.7999 17.7322C27.1522 17.4377 27.8062 17.2 28.9485 17.2V15.2C27.5908 15.2 26.3848 15.4723 25.5171 16.1978L26.7999 17.7322ZM28.9485 17.2H32.6085V15.2H28.9485V17.2ZM32.6085 17.2C32.6297 17.2 32.5982 17.2032 32.536 17.1824C32.4677 17.1597 32.362 17.1073 32.2661 16.9994L33.7609 15.6706C33.4047 15.27 32.9214 15.2 32.6085 15.2V17.2ZM32.3491 17.0824C32.2412 16.9865 32.1888 16.8808 32.166 16.8125C32.1453 16.7503 32.1485 16.7188 32.1485 16.74H34.1485C34.1485 16.4271 34.0785 15.9437 33.6778 15.5876L32.3491 17.0824ZM32.1485 16.74V18.555H34.1485V16.74H32.1485ZM32.1485 18.555C32.1485 18.6092 32.1338 18.4405 32.3064 18.2679L33.7206 19.6821C34.0732 19.3295 34.1485 18.8808 34.1485 18.555H32.1485ZM32.3064 18.2679C32.4096 18.1646 32.5143 18.1221 32.5681 18.1062C32.6186 18.0912 32.6385 18.095 32.6085 18.095V20.095C32.8939 20.095 33.3599 20.0428 33.7206 19.6821L32.3064 18.2679ZM32.6085 18.095H29.5935V20.095H32.6085V18.095ZM29.5935 18.095C29.1716 18.095 28.6584 18.1791 28.2485 18.5343L29.5584 20.0457C29.5021 20.0944 29.4583 20.1067 29.4604 20.1061C29.4617 20.1057 29.4726 20.1028 29.4955 20.1C29.5183 20.0973 29.5505 20.095 29.5935 20.095V18.095ZM28.2788 18.5091C27.8237 18.8732 27.6785 19.3902 27.6785 19.845H29.6785C29.6785 19.8175 29.6829 19.8416 29.6615 19.8945C29.6373 19.9542 29.5922 20.0196 29.5282 20.0709L28.2788 18.5091ZM27.6785 19.845V23.415H29.6785V19.845H27.6785ZM27.6785 23.415C27.6785 23.8698 27.8237 24.3868 28.2788 24.7509L29.5282 23.1891C29.5922 23.2404 29.6373 23.3058 29.6615 23.3655C29.6829 23.4184 29.6785 23.4425 29.6785 23.415H27.6785ZM28.3121 24.7764C28.7144 25.0714 29.1995 25.135 29.5935 25.135V23.135C29.4941 23.135 29.4406 23.1258 29.4211 23.1212C29.4017 23.1166 29.4377 23.1217 29.4948 23.1636L28.3121 24.7764ZM29.5935 25.135H32.6085V23.135H29.5935V25.135ZM32.6085 25.135C32.6297 25.135 32.5982 25.1382 32.536 25.1174C32.4677 25.0947 32.362 25.0423 32.2661 24.9344L33.7609 23.6056C33.4047 23.205 32.9214 23.135 32.6085 23.135V25.135ZM32.3491 25.0174C32.2412 24.9215 32.1888 24.8158 32.166 24.7475C32.1453 24.6853 32.1485 24.6538 32.1485 24.675H34.1485C34.1485 24.3621 34.0785 23.8787 33.6778 23.5226L32.3491 25.0174ZM32.1485 24.675V26.46H34.1485V24.675H32.1485ZM32.1485 26.46C32.1485 26.5142 32.1338 26.3455 32.3064 26.1729L33.7206 27.5871C34.0732 27.2345 34.1485 26.7858 34.1485 26.46H32.1485ZM32.3064 26.1729C32.4096 26.0696 32.5143 26.0271 32.5681 26.0112C32.6186 25.9962 32.6385 26 32.6085 26V28C32.8939 28 33.3599 27.9478 33.7206 27.5871L32.3064 26.1729ZM34.0624 26.88L33.315 27.5444L33.3541 27.5883L33.3981 27.6274L34.0624 26.88ZM34.0624 16.335L33.3553 15.6279L33.3553 15.6279L34.0624 16.335ZM37.2124 16.335L36.465 16.9994L36.5041 17.0433L36.5481 17.0824L37.2124 16.335ZM37.3474 24.165H36.3474V25.165H37.3474V24.165ZM39.4024 24.165V25.165H40.4024V24.165H39.4024ZM39.5224 21.33L38.8153 20.6229L38.8153 20.6229L39.5224 21.33ZM42.5224 21.33L41.775 21.9944L41.8141 22.0383L41.8581 22.0774L42.5224 21.33ZM42.5224 26.88L43.2295 27.5871V27.5871L42.5224 26.88ZM42.1174 26H34.4824V28H42.1174V26ZM34.4824 26C34.4537 26 34.4679 25.9966 34.5096 26.0085C34.5542 26.0212 34.6386 26.0542 34.7268 26.1326L33.3981 27.6274C33.7515 27.9416 34.1822 28 34.4824 28V26ZM34.8098 26.2156C34.8882 26.3038 34.9212 26.3882 34.9339 26.4328C34.9459 26.4745 34.9424 26.4887 34.9424 26.46H32.9424C32.9424 26.7602 33.0008 27.1909 33.315 27.5444L34.8098 26.2156ZM34.9424 26.46V16.74H32.9424V26.46H34.9424ZM34.9424 16.74C34.9424 16.71 34.9462 16.7298 34.9312 16.7803C34.9153 16.8342 34.8728 16.9388 34.7695 17.0421L33.3553 15.6279C32.9947 15.9885 32.9424 16.4546 32.9424 16.74H34.9424ZM34.7695 17.0421C34.5969 17.2147 34.4282 17.2 34.4824 17.2V15.2C34.1566 15.2 33.7079 15.2753 33.3553 15.6279L34.7695 17.0421ZM34.4824 17.2H36.8074V15.2H34.4824V17.2ZM36.8074 17.2C36.8287 17.2 36.7971 17.2032 36.7349 17.1824C36.6667 17.1597 36.5609 17.1073 36.465 16.9994L37.9598 15.6706C37.6037 15.27 37.1203 15.2 36.8074 15.2V17.2ZM36.5481 17.0824C36.4402 16.9865 36.3877 16.8808 36.365 16.8125C36.3443 16.7503 36.3474 16.7188 36.3474 16.74H38.3474C38.3474 16.4271 38.2775 15.9437 37.8768 15.5876L36.5481 17.0824ZM36.3474 16.74V24.165H38.3474V16.74H36.3474ZM37.3474 25.165H39.4024V23.165H37.3474V25.165ZM40.4024 24.165V21.735H38.4024V24.165H40.4024ZM40.4024 21.735C40.4024 21.705 40.4062 21.7248 40.3912 21.7753C40.3753 21.8292 40.3328 21.9338 40.2295 22.0371L38.8153 20.6229C38.4547 20.9835 38.4024 21.4496 38.4024 21.735H40.4024ZM40.2295 22.0371C40.0569 22.2097 39.8882 22.195 39.9424 22.195V20.195C39.6166 20.195 39.1679 20.2703 38.8153 20.6229L40.2295 22.0371ZM39.9424 22.195H42.1174V20.195H39.9424V22.195ZM42.1174 22.195C42.1387 22.195 42.1071 22.1982 42.0449 22.1774C41.9767 22.1547 41.8709 22.1023 41.775 21.9944L43.2698 20.6656C42.9137 20.265 42.4303 20.195 42.1174 20.195V22.195ZM41.8581 22.0774C41.7502 21.9815 41.6978 21.8758 41.675 21.8075C41.6543 21.7453 41.6574 21.7138 41.6574 21.735H43.6574C43.6574 21.4221 43.5875 20.9387 43.1868 20.5826L41.8581 22.0774ZM41.6574 21.735V26.46H43.6574V21.735H41.6574ZM41.6574 26.46C41.6574 26.5142 41.6427 26.3455 41.8153 26.1729L43.2295 27.5871C43.5821 27.2345 43.6574 26.7858 43.6574 26.46H41.6574ZM41.8153 26.1729C41.9186 26.0696 42.0233 26.0271 42.0771 26.0112C42.1276 25.9962 42.1475 26 42.1174 26V28C42.4028 28 42.8689 27.9478 43.2295 27.5871L41.8153 26.1729ZM47.3871 19.35L46.4733 18.9439L46.4492 18.998L46.4317 19.0546L47.3871 19.35ZM46.6821 21.63L45.7267 21.3346L45.3262 22.63H46.6821V21.63ZM49.0371 21.63V22.63H50.393L49.9925 21.3346L49.0371 21.63ZM48.3321 19.35L49.2875 19.0546L49.27 18.998L49.2459 18.9439L48.3321 19.35ZM48.1971 19.155L47.49 19.8621L47.5292 19.9013L47.5724 19.9359L48.1971 19.155ZM47.5071 19.155L46.8824 18.3741L46.8392 18.4087L46.8 18.4479L47.5071 19.155ZM46.3971 26.88L45.69 26.1729L46.3971 26.88ZM43.3671 26.88L42.6197 27.5444L42.6588 27.5883L42.7027 27.6274L43.3671 26.88ZM43.3821 21.465L42.4134 21.2166L42.4104 21.2283L42.4077 21.2401L43.3821 21.465ZM43.8321 20.1L44.7655 20.459L44.7659 20.4579L43.8321 20.1ZM45.1371 16.695L46.0709 17.0529L46.0757 17.0404L46.0801 17.0278L45.1371 16.695ZM45.4071 16.32L44.883 15.4683L44.8675 15.4779L44.8524 15.4879L45.4071 16.32ZM50.4021 16.32L49.8474 17.152L49.8625 17.1621L49.878 17.1717L50.4021 16.32ZM50.6871 16.695L49.7441 17.0278L49.7486 17.0404L49.7533 17.0529L50.6871 16.695ZM51.9921 20.1L51.0583 20.4579L51.0588 20.459L51.9921 20.1ZM52.4271 21.465L51.4527 21.6899L51.4554 21.7017L51.4584 21.7134L52.4271 21.465ZM52.4421 26.88L53.1492 27.5871V27.5871L52.4421 26.88ZM49.3221 26.88L48.615 27.5871L48.6542 27.6263L48.6974 27.6609L49.3221 26.88ZM49.1871 24.36H50.1871V23.36H49.1871V24.36ZM46.5321 24.36V23.36H45.5321V24.36H46.5321ZM46.4317 19.0546L45.7267 21.3346L47.6375 21.9254L48.3425 19.6454L46.4317 19.0546ZM46.6821 22.63H49.0371V20.63H46.6821V22.63ZM49.9925 21.3346L49.2875 19.0546L47.3767 19.6454L48.0817 21.9254L49.9925 21.3346ZM49.2459 18.9439C49.1727 18.7791 49.0462 18.5536 48.8218 18.3741L47.5724 19.9359C47.5064 19.883 47.4665 19.8323 47.4462 19.803C47.4356 19.7876 47.4285 19.7755 47.4244 19.768C47.4202 19.7605 47.4183 19.7562 47.4183 19.7561L49.2459 18.9439ZM48.9042 18.4479C48.6644 18.2081 48.3545 18.095 48.0471 18.095V20.095C47.9644 20.095 47.8641 20.0808 47.7582 20.0385C47.6512 19.9957 47.5608 19.9329 47.49 19.8621L48.9042 18.4479ZM48.0471 18.095H47.6721V20.095H48.0471V18.095ZM47.6721 18.095C47.3692 18.095 47.0969 18.2025 46.8824 18.3741L48.1318 19.9359C48.0173 20.0275 47.855 20.095 47.6721 20.095V18.095ZM46.8 18.4479C46.6316 18.6163 46.5318 18.8122 46.4733 18.9439L48.3009 19.7561C48.3077 19.7408 48.3076 19.7434 48.2988 19.7578C48.2911 19.7703 48.2647 19.8116 48.2142 19.8621L46.8 18.4479ZM45.5321 26.46C45.5321 26.5142 45.5174 26.3455 45.69 26.1729L47.1042 27.5871C47.4568 27.2345 47.5321 26.7858 47.5321 26.46H45.5321ZM45.69 26.1729C45.7933 26.0696 45.898 26.0271 45.9518 26.0112C46.0023 25.9962 46.0221 26 45.9921 26V28C46.2775 28 46.7436 27.9478 47.1042 27.5871L45.69 26.1729ZM45.9921 26H43.7871V28H45.9921V26ZM43.7871 26C43.7584 26 43.7726 25.9966 43.8143 26.0085C43.8589 26.0212 43.9433 26.0542 44.0315 26.1326L42.7027 27.6274C43.0562 27.9416 43.4869 28 43.7871 28V26ZM44.1145 26.2156C44.1929 26.3038 44.2259 26.3882 44.2386 26.4328C44.2506 26.4745 44.2471 26.4887 44.2471 26.46H42.2471C42.2471 26.7602 42.3055 27.1909 42.6197 27.5444L44.1145 26.2156ZM44.2471 26.46V22.5H42.2471V26.46H44.2471ZM44.2471 22.5C44.2471 22.296 44.2782 22.029 44.3565 21.6899L42.4077 21.2401C42.306 21.681 42.2471 22.104 42.2471 22.5H44.2471ZM44.3508 21.7134C44.4383 21.372 44.5745 20.9554 44.7655 20.459L42.8988 19.741C42.6897 20.2846 42.5259 20.778 42.4134 21.2166L44.3508 21.7134ZM44.7659 20.4579L46.0709 17.0529L44.2033 16.3371L42.8983 19.7421L44.7659 20.4579ZM46.0801 17.0278C46.0837 17.0176 46.0802 17.0316 46.0611 17.0581C46.0409 17.0862 46.0082 17.1211 45.9618 17.1521L44.8524 15.4879C44.5115 15.7152 44.3079 16.0399 44.1941 16.3622L46.0801 17.0278ZM45.9312 17.1717C45.8975 17.1924 45.872 17.1999 45.864 17.2018C45.8571 17.2035 45.8678 17.2 45.9021 17.2V15.2C45.5732 15.2 45.2124 15.2656 44.883 15.4683L45.9312 17.1717ZM45.9021 17.2H49.9371V15.2H45.9021V17.2ZM49.9371 17.2C49.9914 17.2 49.9364 17.2114 49.8474 17.152L50.9568 15.488C50.6278 15.2686 50.2629 15.2 49.9371 15.2V17.2ZM49.878 17.1717C49.8349 17.1451 49.7997 17.1118 49.7747 17.0788C49.7509 17.0475 49.7436 17.0264 49.7441 17.0278L51.6301 16.3622C51.5083 16.0172 51.285 15.6891 50.9262 15.4683L49.878 17.1717ZM49.7533 17.0529L51.0583 20.4579L52.9259 19.7421L51.6209 16.3371L49.7533 17.0529ZM51.0588 20.459C51.2479 20.9508 51.3764 21.3592 51.4527 21.6899L53.4015 21.2401C53.2978 20.7908 53.1363 20.2892 52.9255 19.741L51.0588 20.459ZM51.4584 21.7134C51.5442 22.048 51.5771 22.3067 51.5771 22.5H53.5771C53.5771 22.0933 53.51 21.662 53.3958 21.2166L51.4584 21.7134ZM51.5771 22.5V26.46H53.5771V22.5H51.5771ZM51.5771 26.46C51.5771 26.5142 51.5624 26.3455 51.735 26.1729L53.1492 27.5871C53.5018 27.2345 53.5771 26.7858 53.5771 26.46H51.5771ZM51.735 26.1729C51.8383 26.0696 51.943 26.0271 51.9968 26.0112C52.0473 25.9962 52.0671 26 52.0371 26V28C52.3225 28 52.7886 27.9478 53.1492 27.5871L51.735 26.1729ZM52.0371 26H49.7721V28H52.0371V26ZM49.7721 26C49.7355 26 49.7381 25.996 49.7673 26.0038C49.7983 26.012 49.8682 26.0363 49.9468 26.0991L48.6974 27.6609C49.0501 27.943 49.4653 28 49.7721 28V26ZM50.0292 26.1729C50.2018 26.3455 50.1871 26.5142 50.1871 26.46H48.1871C48.1871 26.7858 48.2624 27.2345 48.615 27.5871L50.0292 26.1729ZM50.1871 26.46V24.36H48.1871V26.46H50.1871ZM49.1871 23.36H46.5321V25.36H49.1871V23.36ZM45.5321 24.36V26.46H47.5321V24.36H45.5321ZM53.4091 26.88L52.6617 27.5444L52.7008 27.5883L52.7448 27.6274L53.4091 26.88ZM53.4091 24.27L54.1162 24.9771V24.9771L53.4091 24.27ZM55.3141 24.135V25.135H56.3141V24.135H55.3141ZM55.3141 19.095H56.3141V18.095H55.3141V19.095ZM53.4091 18.975L52.6617 19.6394L52.7008 19.6833L52.7448 19.7224L53.4091 18.975ZM53.4091 16.335L52.702 15.6279V15.6279L53.4091 16.335ZM60.6241 16.335L59.8767 16.9994L59.9158 17.0433L59.9598 17.0824L60.6241 16.335ZM60.6241 18.975L61.3312 19.6821V19.6821L60.6241 18.975ZM58.7641 19.095V18.095H57.7641V19.095H58.7641ZM58.7641 24.135H57.7641V25.135H58.7641V24.135ZM60.6241 24.27L59.8767 24.9344L59.9158 24.9783L59.9598 25.0174L60.6241 24.27ZM60.6241 26.88L61.3312 27.5871V27.5871L60.6241 26.88ZM53.8291 26C53.8005 26 53.8146 25.9966 53.8564 26.0085C53.9009 26.0212 53.9853 26.0542 54.0735 26.1326L52.7448 27.6274C53.0982 27.9416 53.5289 28 53.8291 28V26ZM54.1565 26.2156C54.2349 26.3038 54.2679 26.3882 54.2807 26.4328C54.2926 26.4745 54.2891 26.4887 54.2891 26.46H52.2891C52.2891 26.7602 52.3475 27.1909 52.6617 27.5444L54.1565 26.2156ZM54.2891 26.46V24.675H52.2891V26.46H54.2891ZM54.2891 24.675C54.2891 24.645 54.2929 24.6648 54.2779 24.7153C54.262 24.7692 54.2195 24.8738 54.1162 24.9771L52.702 23.5629C52.3414 23.9235 52.2891 24.3896 52.2891 24.675H54.2891ZM54.1162 24.9771C53.9436 25.1497 53.775 25.135 53.8291 25.135V23.135C53.5033 23.135 53.0546 23.2103 52.702 23.5629L54.1162 24.9771ZM53.8291 25.135H55.3141V23.135H53.8291V25.135ZM56.3141 24.135V19.095H54.3141V24.135H56.3141ZM55.3141 18.095H53.8291V20.095H55.3141V18.095ZM53.8291 18.095C53.8005 18.095 53.8146 18.0916 53.8564 18.1035C53.9009 18.1162 53.9853 18.1492 54.0735 18.2276L52.7448 19.7224C53.0982 20.0366 53.5289 20.095 53.8291 20.095V18.095ZM54.1565 18.3106C54.2349 18.3988 54.2679 18.4832 54.2807 18.5278C54.2926 18.5695 54.2891 18.5837 54.2891 18.555H52.2891C52.2891 18.8552 52.3475 19.2859 52.6617 19.6394L54.1565 18.3106ZM54.2891 18.555V16.74H52.2891V18.555H54.2891ZM54.2891 16.74C54.2891 16.71 54.2929 16.7298 54.2779 16.7803C54.262 16.8342 54.2195 16.9388 54.1162 17.0421L52.702 15.6279C52.3414 15.9885 52.2891 16.4546 52.2891 16.74H54.2891ZM54.1162 17.0421C53.9436 17.2147 53.775 17.2 53.8291 17.2V15.2C53.5033 15.2 53.0546 15.2753 52.702 15.6279L54.1162 17.0421ZM53.8291 17.2H60.2191V15.2H53.8291V17.2ZM60.2191 17.2C60.2404 17.2 60.2088 17.2032 60.1467 17.1824C60.0784 17.1597 59.9726 17.1073 59.8767 16.9994L61.3716 15.6706C61.0154 15.27 60.532 15.2 60.2191 15.2V17.2ZM59.9598 17.0824C59.8519 16.9865 59.7995 16.8808 59.7767 16.8125C59.756 16.7503 59.7591 16.7188 59.7591 16.74H61.7591C61.7591 16.4271 61.6892 15.9437 61.2885 15.5876L59.9598 17.0824ZM59.7591 16.74V18.555H61.7591V16.74H59.7591ZM59.7591 18.555C59.7591 18.6092 59.7444 18.4405 59.917 18.2679L61.3312 19.6821C61.6838 19.3295 61.7591 18.8808 61.7591 18.555H59.7591ZM59.917 18.2679C60.0203 18.1646 60.125 18.1221 60.1788 18.1062C60.2293 18.0912 60.2492 18.095 60.2191 18.095V20.095C60.5046 20.095 60.9706 20.0428 61.3312 19.6821L59.917 18.2679ZM60.2191 18.095H58.7641V20.095H60.2191V18.095ZM57.7641 19.095V24.135H59.7641V19.095H57.7641ZM58.7641 25.135H60.2191V23.135H58.7641V25.135ZM60.2191 25.135C60.2404 25.135 60.2088 25.1382 60.1467 25.1174C60.0784 25.0947 59.9726 25.0423 59.8767 24.9344L61.3716 23.6056C61.0154 23.205 60.532 23.135 60.2191 23.135V25.135ZM59.9598 25.0174C59.8519 24.9215 59.7995 24.8158 59.7767 24.7475C59.756 24.6853 59.7591 24.6538 59.7591 24.675H61.7591C61.7591 24.3621 61.6892 23.8787 61.2885 23.5226L59.9598 25.0174ZM59.7591 24.675V26.46H61.7591V24.675H59.7591ZM59.7591 26.46C59.7591 26.5142 59.7444 26.3455 59.917 26.1729L61.3312 27.5871C61.6838 27.2345 61.7591 26.7858 61.7591 26.46H59.7591ZM59.917 26.1729C60.0203 26.0696 60.125 26.0271 60.1788 26.0112C60.2293 25.9962 60.2492 26 60.2191 26V28C60.5046 28 60.9706 27.9478 61.3312 27.5871L59.917 26.1729ZM60.2191 26H53.8291V28H60.2191V26ZM61.8312 26.88L61.0838 27.5444L61.1228 27.5883L61.1668 27.6274L61.8312 26.88ZM61.8312 16.335L61.1241 15.6279V15.6279L61.8312 16.335ZM65.0562 16.305L64.4827 17.1242L64.5007 17.1368L64.5193 17.1487L65.0562 16.305ZM65.3562 16.65L66.2316 16.1666L66.2277 16.1597L65.3562 16.65ZM66.7062 19.095L65.8307 19.5784L65.832 19.5806L66.7062 19.095ZM66.8262 19.29L66.0262 19.89L66.0688 19.9469L66.1191 19.9971L66.8262 19.29ZM67.2462 19.29L66.5391 18.5829L66.4888 18.6331L66.4462 18.69L67.2462 19.29ZM67.3812 19.095L68.2554 19.5807L68.2589 19.5742L67.3812 19.095ZM68.7162 16.65L67.8445 16.1597L67.8385 16.1708L68.7162 16.65ZM69.0012 16.305L68.4643 15.4613L68.4457 15.4731L68.4277 15.4858L69.0012 16.305ZM72.2412 16.335L71.4938 16.9994L71.5328 17.0433L71.5768 17.0824L72.2412 16.335ZM72.2412 26.88L72.9483 27.5871V27.5871L72.2412 26.88ZM69.1062 26.88L68.3588 27.5444L68.3978 27.5883L68.4418 27.6274L69.1062 26.88ZM68.9862 21.18H69.9862L68.1067 20.704L68.9862 21.18ZM68.1012 22.815L67.2217 22.339L67.2174 22.3471L68.1012 22.815ZM67.7712 23.19L68.275 24.0538L68.2852 24.0478L68.2953 24.0417L67.7712 23.19ZM66.2262 23.19L65.6715 24.022L65.7106 24.0482L65.7521 24.0705L66.2262 23.19ZM65.9112 22.815L66.795 22.3471L66.7906 22.339L65.9112 22.815ZM65.0262 21.18L65.9056 20.704L64.0262 21.18H65.0262ZM64.8912 26.88L65.5983 27.5871V27.5871L64.8912 26.88ZM64.4862 26H62.2512V28H64.4862V26ZM62.2512 26C62.2225 26 62.2367 25.9966 62.2784 26.0085C62.323 26.0212 62.4074 26.0542 62.4955 26.1326L61.1668 27.6274C61.5203 27.9416 61.9509 28 62.2512 28V26ZM62.5786 26.2156C62.657 26.3038 62.69 26.3882 62.7027 26.4328C62.7146 26.4745 62.7112 26.4887 62.7112 26.46H60.7112C60.7112 26.7602 60.7696 27.1909 61.0838 27.5444L62.5786 26.2156ZM62.7112 26.46V16.74H60.7112V26.46H62.7112ZM62.7112 16.74C62.7112 16.71 62.7149 16.7298 62.7 16.7803C62.684 16.8342 62.6415 16.9388 62.5383 17.0421L61.1241 15.6279C60.7634 15.9885 60.7112 16.4546 60.7112 16.74H62.7112ZM62.5383 17.0421C62.3657 17.2147 62.197 17.2 62.2512 17.2V15.2C61.9254 15.2 61.4767 15.2753 61.1241 15.6279L62.5383 17.0421ZM62.2512 17.2H64.6662V15.2H62.2512V17.2ZM64.6662 17.2C64.6842 17.2 64.596 17.2036 64.4827 17.1242L65.6296 15.4858C65.3163 15.2664 64.9682 15.2 64.6662 15.2V17.2ZM64.5193 17.1487C64.4807 17.1241 64.4619 17.1031 64.4591 17.0999C64.4566 17.0971 64.4664 17.1078 64.4846 17.1403L66.2277 16.1597C66.088 15.9114 65.8871 15.6485 65.5931 15.4613L64.5193 17.1487ZM64.4808 17.1334L65.8308 19.5784L67.5816 18.6116L66.2316 16.1666L64.4808 17.1334ZM65.832 19.5806C65.8861 19.678 65.9532 19.7927 66.0262 19.89L67.6262 18.69C67.6322 18.698 67.6349 18.7021 67.6339 18.7006C67.633 18.6994 67.6302 18.6951 67.6253 18.6872C67.6153 18.6708 67.6004 18.6455 67.5803 18.6094L65.832 19.5806ZM66.1191 19.9971C66.3589 20.2369 66.6688 20.35 66.9762 20.35V18.35C67.0589 18.35 67.1592 18.3642 67.2651 18.4065C67.3721 18.4493 67.4624 18.512 67.5333 18.5829L66.1191 19.9971ZM66.9762 20.35H67.1112V18.35H66.9762V20.35ZM67.1112 20.35C67.4152 20.35 67.7885 20.2335 68.0462 19.89L66.4462 18.69C66.5319 18.5757 66.6479 18.4816 66.7838 18.4212C66.9139 18.3634 67.0311 18.35 67.1112 18.35V20.35ZM67.9533 19.9971C68.0921 19.8583 68.1907 19.697 68.2553 19.5806L66.507 18.6094C66.5005 18.621 66.4955 18.6295 66.492 18.6353C66.4884 18.6411 66.487 18.6431 66.4877 18.642C66.4884 18.6411 66.4924 18.6354 66.4999 18.6261C66.5072 18.6171 66.5202 18.6018 66.5391 18.5829L67.9533 19.9971ZM68.2589 19.5742L69.5939 17.1292L67.8385 16.1708L66.5035 18.6158L68.2589 19.5742ZM69.5877 17.1403C69.5986 17.121 69.6075 17.1067 69.6143 17.0966C69.6212 17.0865 69.6251 17.0815 69.6259 17.0806C69.6266 17.0797 69.6233 17.0839 69.6154 17.0914C69.6074 17.099 69.594 17.1107 69.5746 17.1242L68.4277 15.4858C68.1588 15.674 67.9743 15.9292 67.8446 16.1597L69.5877 17.1403ZM69.538 17.1487C69.4989 17.1736 69.4625 17.1873 69.4359 17.1942C69.4104 17.2008 69.3987 17.2 69.4062 17.2V15.2C69.0993 15.2 68.7678 15.2682 68.4643 15.4613L69.538 17.1487ZM69.4062 17.2H71.8362V15.2H69.4062V17.2ZM71.8362 17.2C71.8574 17.2 71.8259 17.2032 71.7637 17.1824C71.6954 17.1597 71.5897 17.1073 71.4938 16.9994L72.9886 15.6706C72.6324 15.27 72.1491 15.2 71.8362 15.2V17.2ZM71.5768 17.0824C71.4689 16.9865 71.4165 16.8808 71.3937 16.8125C71.373 16.7503 71.3762 16.7188 71.3762 16.74H73.3762C73.3762 16.4271 73.3062 15.9437 72.9055 15.5876L71.5768 17.0824ZM71.3762 16.74V26.46H73.3762V16.74H71.3762ZM71.3762 26.46C71.3762 26.5142 71.3615 26.3455 71.5341 26.1729L72.9483 27.5871C73.3009 27.2345 73.3762 26.7858 73.3762 26.46H71.3762ZM71.5341 26.1729C71.6373 26.0696 71.742 26.0271 71.7958 26.0112C71.8463 25.9962 71.8662 26 71.8362 26V28C72.1216 28 72.5876 27.9478 72.9483 27.5871L71.5341 26.1729ZM71.8362 26H69.5262V28H71.8362V26ZM69.5262 26C69.4975 26 69.5117 25.9966 69.5534 26.0085C69.598 26.0212 69.6824 26.0542 69.7705 26.1326L68.4418 27.6274C68.7953 27.9416 69.2259 28 69.5262 28V26ZM69.8536 26.2156C69.932 26.3038 69.965 26.3882 69.9777 26.4328C69.9896 26.4745 69.9862 26.4887 69.9862 26.46H67.9862C67.9862 26.7602 68.0446 27.1909 68.3588 27.5444L69.8536 26.2156ZM69.9862 26.46V21.18H67.9862V26.46H69.9862ZM68.1067 20.704L67.2217 22.339L68.9806 23.291L69.8656 21.656L68.1067 20.704ZM67.2174 22.3471C67.2035 22.3733 67.1964 22.3802 67.2005 22.3756C67.2052 22.3703 67.2202 22.3549 67.2471 22.3383L68.2953 24.0417C68.6121 23.8467 68.8329 23.5701 68.985 23.2829L67.2174 22.3471ZM67.2673 22.3262C67.3072 22.3029 67.3365 22.2951 67.3447 22.2933C67.3519 22.2917 67.341 22.295 67.3062 22.295V24.295C67.6108 24.295 67.956 24.2399 68.275 24.0538L67.2673 22.3262ZM67.3062 22.295H66.7062V24.295H67.3062V22.295ZM66.7062 22.295C66.6719 22.295 66.6571 22.2918 66.6574 22.2919C66.6584 22.2921 66.675 22.2959 66.7003 22.3095L65.7521 24.0705C66.0637 24.2382 66.3969 24.295 66.7062 24.295V22.295ZM66.7809 22.358C66.8094 22.377 66.8225 22.3923 66.8231 22.3931C66.8234 22.3934 66.8207 22.3902 66.8157 22.3826C66.8107 22.375 66.8036 22.3634 66.795 22.3471L65.0274 23.2829C65.1702 23.5526 65.3748 23.8243 65.6715 24.022L66.7809 22.358ZM66.7906 22.339L65.9056 20.704L64.1467 21.656L65.0317 23.291L66.7906 22.339ZM64.0262 21.18V26.46H66.0262V21.18H64.0262ZM64.0262 26.46C64.0262 26.5142 64.0115 26.3455 64.1841 26.1729L65.5983 27.5871C65.9509 27.2345 66.0262 26.7858 66.0262 26.46H64.0262ZM64.1841 26.1729C64.2873 26.0696 64.392 26.0271 64.4458 26.0112C64.4963 25.9962 64.5162 26 64.4862 26V28C64.7716 28 65.2376 27.9478 65.5983 27.5871L64.1841 26.1729ZM73.6607 26.88L72.9133 27.5444L72.9523 27.5883L72.9963 27.6274L73.6607 26.88ZM73.6607 16.335L72.9536 15.6279V15.6279L73.6607 16.335ZM81.4457 16.335L80.6983 16.9994L80.7373 17.0433L80.7813 17.0824L81.4457 16.335ZM76.9007 19.035V18.035H75.9007V19.035H76.9007ZM76.9007 20.19H75.9007V21.19H76.9007V20.19ZM80.2307 20.325L79.4833 20.9894L79.5223 21.0333L79.5663 21.0724L80.2307 20.325ZM80.2307 22.755L79.5236 22.0479L80.2307 22.755ZM76.9007 22.875V21.875H75.9007V22.875H76.9007ZM76.9007 24.165H75.9007V25.165H76.9007V24.165ZM81.4457 24.3L80.6983 24.9644L80.7373 25.0083L80.7813 25.0474L81.4457 24.3ZM81.4457 26.88L82.1528 27.5871V27.5871L81.4457 26.88ZM81.0407 26H74.0807V28H81.0407V26ZM74.0807 26C74.052 26 74.0662 25.9966 74.1079 26.0085C74.1525 26.0212 74.2368 26.0542 74.325 26.1326L72.9963 27.6274C73.3498 27.9416 73.7804 28 74.0807 28V26ZM74.4081 26.2156C74.4865 26.3038 74.5195 26.3882 74.5322 26.4328C74.5441 26.4745 74.5407 26.4887 74.5407 26.46H72.5407C72.5407 26.7602 72.5991 27.1909 72.9133 27.5444L74.4081 26.2156ZM74.5407 26.46V16.74H72.5407V26.46H74.5407ZM74.5407 16.74C74.5407 16.71 74.5444 16.7298 74.5295 16.7803C74.5135 16.8342 74.471 16.9388 74.3678 17.0421L72.9536 15.6279C72.5929 15.9885 72.5407 16.4546 72.5407 16.74H74.5407ZM74.3678 17.0421C74.1952 17.2147 74.0265 17.2 74.0807 17.2V15.2C73.7548 15.2 73.3062 15.2753 72.9536 15.6279L74.3678 17.0421ZM74.0807 17.2H81.0407V15.2H74.0807V17.2ZM81.0407 17.2C81.0619 17.2 81.0304 17.2032 80.9682 17.1824C80.8999 17.1597 80.7942 17.1073 80.6983 16.9994L82.1931 15.6706C81.8369 15.27 81.3535 15.2 81.0407 15.2V17.2ZM80.7813 17.0824C80.6734 16.9865 80.621 16.8808 80.5982 16.8125C80.5775 16.7503 80.5807 16.7188 80.5807 16.74H82.5807C82.5807 16.4271 82.5107 15.9437 82.11 15.5876L80.7813 17.0824ZM80.5807 16.74V18.495H82.5807V16.74H80.5807ZM80.5807 18.495C80.5807 18.5492 80.566 18.3805 80.7386 18.2079L82.1528 19.6221C82.5054 19.2695 82.5807 18.8208 82.5807 18.495H80.5807ZM80.7386 18.2079C80.8418 18.1046 80.9465 18.0621 81.0003 18.0462C81.0508 18.0312 81.0707 18.035 81.0407 18.035V20.035C81.3261 20.035 81.7921 19.9828 82.1528 19.6221L80.7386 18.2079ZM81.0407 18.035H76.9007V20.035H81.0407V18.035ZM75.9007 19.035V20.19H77.9007V19.035H75.9007ZM76.9007 21.19H79.8257V19.19H76.9007V21.19ZM79.8257 21.19C79.8469 21.19 79.8154 21.1932 79.7532 21.1724C79.6849 21.1497 79.5792 21.0973 79.4833 20.9894L80.9781 19.6606C80.6219 19.26 80.1385 19.19 79.8257 19.19V21.19ZM79.5663 21.0724C79.4584 20.9765 79.406 20.8708 79.3832 20.8025C79.3625 20.7403 79.3657 20.7088 79.3657 20.73H81.3657C81.3657 20.4171 81.2957 19.9337 80.895 19.5776L79.5663 21.0724ZM79.3657 20.73V22.335H81.3657V20.73H79.3657ZM79.3657 22.335C79.3657 22.3892 79.351 22.2205 79.5236 22.0479L80.9378 23.4621C81.2904 23.1095 81.3657 22.6608 81.3657 22.335H79.3657ZM79.5236 22.0479C79.6268 21.9446 79.7315 21.9021 79.7853 21.8862C79.8358 21.8712 79.8557 21.875 79.8257 21.875V23.875C80.1111 23.875 80.5771 23.8228 80.9378 23.4621L79.5236 22.0479ZM79.8257 21.875H76.9007V23.875H79.8257V21.875ZM75.9007 22.875V24.165H77.9007V22.875H75.9007ZM76.9007 25.165H81.0407V23.165H76.9007V25.165ZM81.0407 25.165C81.0619 25.165 81.0304 25.1682 80.9682 25.1474C80.8999 25.1247 80.7942 25.0723 80.6983 24.9644L82.1931 23.6356C81.8369 23.235 81.3535 23.165 81.0407 23.165V25.165ZM80.7813 25.0474C80.6734 24.9515 80.621 24.8458 80.5982 24.7775C80.5775 24.7153 80.5807 24.6838 80.5807 24.705H82.5807C82.5807 24.3921 82.5107 23.9087 82.11 23.5526L80.7813 25.0474ZM80.5807 24.705V26.46H82.5807V24.705H80.5807ZM80.5807 26.46C80.5807 26.5142 80.566 26.3455 80.7386 26.1729L82.1528 27.5871C82.5054 27.2345 82.5807 26.7858 82.5807 26.46H80.5807ZM80.7386 26.1729C80.8418 26.0696 80.9465 26.0271 81.0003 26.0112C81.0508 25.9962 81.0707 26 81.0407 26V28C81.3261 28 81.7921 27.9478 82.1528 27.5871L80.7386 26.1729ZM82.5751 26.88L81.8277 27.5444L81.8668 27.5883L81.9108 27.6274L82.5751 26.88ZM82.5751 16.335L81.868 15.6279V15.6279L82.5751 16.335ZM90.8251 16.95L90.1849 17.7182L90.1912 17.7234L90.8251 16.95ZM90.8251 26.25L90.1912 25.4766L90.1849 25.4818L90.8251 26.25ZM85.8601 19.065V18.065H84.8601V19.065H85.8601ZM85.8601 24.165H84.8601V25.165H85.8601V24.165ZM88.1701 23.985L87.463 23.2779L87.4476 23.2933L87.433 23.3093L88.1701 23.985ZM88.1701 19.245L87.433 19.9207L87.4623 19.9528L87.4944 19.9822L88.1701 19.245ZM88.0501 26H82.9951V28H88.0501V26ZM82.9951 26C82.9664 26 82.9806 25.9966 83.0223 26.0085C83.0669 26.0212 83.1513 26.0542 83.2395 26.1326L81.9108 27.6274C82.2642 27.9416 82.6949 28 82.9951 28V26ZM83.3225 26.2156C83.4009 26.3038 83.4339 26.3882 83.4466 26.4328C83.4586 26.4745 83.4551 26.4887 83.4551 26.46H81.4551C81.4551 26.7602 81.5135 27.1909 81.8277 27.5444L83.3225 26.2156ZM83.4551 26.46V16.74H81.4551V26.46H83.4551ZM83.4551 16.74C83.4551 16.71 83.4589 16.7298 83.4439 16.7803C83.428 16.8342 83.3855 16.9388 83.2822 17.0421L81.868 15.6279C81.5074 15.9885 81.4551 16.4546 81.4551 16.74H83.4551ZM83.2822 17.0421C83.1096 17.2147 82.9409 17.2 82.9951 17.2V15.2C82.6693 15.2 82.2206 15.2753 81.868 15.6279L83.2822 17.0421ZM82.9951 17.2H88.0501V15.2H82.9951V17.2ZM88.0501 17.2C89.1979 17.2 89.8449 17.4349 90.1849 17.7182L91.4653 16.1818C90.6053 15.4651 89.4023 15.2 88.0501 15.2V17.2ZM90.1912 17.7234C90.5005 17.9769 90.7401 18.4173 90.7401 19.26H92.7401C92.7401 18.0227 92.3697 16.9231 91.459 16.1766L90.1912 17.7234ZM90.7401 19.26V23.94H92.7401V19.26H90.7401ZM90.7401 23.94C90.7401 24.7827 90.5005 25.2231 90.1912 25.4766L91.459 27.0234C92.3697 26.2769 92.7401 25.1773 92.7401 23.94H90.7401ZM90.1849 25.4818C89.8449 25.7651 89.1979 26 88.0501 26V28C89.4023 28 90.6053 27.7349 91.4653 27.0182L90.1849 25.4818ZM84.8601 19.065V24.165H86.8601V19.065H84.8601ZM85.8601 25.165H87.6451V23.165H85.8601V25.165ZM87.6451 25.165C88.0313 25.165 88.5331 25.0689 88.9073 24.6607L87.433 23.3093C87.5055 23.2302 87.5834 23.1907 87.632 23.1741C87.6747 23.1594 87.6858 23.165 87.6451 23.165V25.165ZM88.8772 24.6921C89.2577 24.3117 89.3501 23.8203 89.3501 23.43H87.3501C87.3501 23.4786 87.3439 23.4787 87.3539 23.4477C87.3655 23.412 87.396 23.3449 87.463 23.2779L88.8772 24.6921ZM89.3501 23.43V19.785H87.3501V23.43H89.3501ZM89.3501 19.785C89.3501 19.4037 89.2614 18.8887 88.8458 18.5078L87.4944 19.9822C87.4098 19.9046 87.3712 19.8231 87.3564 19.7787C87.3436 19.7402 87.3501 19.7354 87.3501 19.785H89.3501ZM88.9073 18.5693C88.5331 18.1611 88.0313 18.065 87.6451 18.065V20.065C87.6858 20.065 87.6747 20.0706 87.632 20.0559C87.5834 20.0393 87.5055 19.9998 87.433 19.9207L88.9073 18.5693ZM87.6451 18.065H85.8601V20.065H87.6451V18.065Z" fill="black" mask="url(#path-8-outside-1_2529_664)"/>
</g>
<defs>
<filter id="filter0_d_2529_664" x="25.2583" y="16.2002" width="66.4819" height="12.7998" filterUnits="userSpaceOnUse" color-interpolation-filters="sRGB">
<feFlood flood-opacity="0" result="BackgroundImageFix"/>
<feColorMatrix in="SourceAlpha" type="matrix" values="0 0 0 0 0 0 0 0 0 0 0 0 0 0 0 0 0 0 127 0" result="hardAlpha"/>
<feOffset dy="2"/>
<feComposite in2="hardAlpha" operator="out"/>
<feColorMatrix type="matrix" values="0 0 0 0 0 0 0 0 0 0 0 0 0 0 0 0 0 0 1 0"/>
<feBlend mode="normal" in2="BackgroundImageFix" result="effect1_dropShadow_2529_664"/>
<feBlend mode="normal" in="SourceGraphic" in2="effect1_dropShadow_2529_664" result="shape"/>
</filter>
<linearGradient id="paint0_linear_2529_664" x1="60.0741" y1="36.4176" x2="60.0741" y2="44.9891" gradientUnits="userSpaceOnUse">
<stop stop-color="#2E0D68"/>
<stop offset="1" stop-color="#5D22AC"/>
</linearGradient>
<linearGradient id="paint1_linear_2529_664" x1="44" y1="40" x2="44" y2="2" gradientUnits="userSpaceOnUse">
<stop stop-color="#F6E6F6"/>
<stop offset="1" stop-color="#D293FE"/>
</linearGradient>
<linearGradient id="paint2_linear_2529_664" x1="4.59259" y1="4.85714" x2="15.1611" y2="12.4282" gradientUnits="userSpaceOnUse">
<stop stop-color="white"/>
<stop offset="1" stop-color="white" stop-opacity="0"/>
</linearGradient>
<linearGradient id="paint3_linear_2529_664" x1="72.7788" y1="9.64516" x2="72.7788" y2="28.7419" gradientUnits="userSpaceOnUse">
<stop stop-color="#E4ADFF"/>
<stop offset="1" stop-color="#D590FD"/>
</linearGradient>
</defs>
</svg>
