<svg width="109" height="48" viewBox="0 0 109 48" fill="none" xmlns="http://www.w3.org/2000/svg">
<rect width="109" height="48" rx="8" fill="black"/>
<rect x="2" y="3.84619" width="105" height="42" rx="7" fill="url(#paint0_linear_2530_2068)"/>
<rect x="2" y="2" width="105" height="40" rx="7" fill="url(#paint1_linear_2530_2068)"/>
<rect x="2" y="2" width="105" height="42" rx="7" fill="url(#paint2_linear_2530_2068)"/>
<rect x="5" y="5" width="99" height="34" rx="6" fill="url(#paint3_linear_2530_2068)"/>
<ellipse cx="3.5438" cy="1.99141" rx="3.5438" ry="1.99141" transform="matrix(0.73474 -0.678349 0.574531 0.818483 3.78052 8.24414)" fill="#FCF7FF"/>
<ellipse cx="2.90149" cy="1.99141" rx="2.90149" ry="1.99141" transform="matrix(0.73474 -0.678349 0.574531 0.818483 98.7805 36.2441)" fill="#F2DCF7"/>
<g filter="url(#filter0_d_2530_2068)">
<mask id="path-8-outside-1_2530_2068" maskUnits="userSpaceOnUse" x="34" y="16" width="43" height="13" fill="black">
<rect fill="white" x="34" y="16" width="43" height="13"/>
<path d="M38.4801 19.9V21.82H39.6051C39.8651 21.82 40.0401 21.755 40.1301 21.625C40.2201 21.485 40.2651 21.315 40.2651 21.115V20.605C40.2651 20.405 40.2201 20.24 40.1301 20.11C40.0401 19.97 39.8651 19.9 39.6051 19.9H38.4801ZM37.9401 28H35.6301C35.4401 28 35.3001 27.96 35.2101 27.88C35.1301 27.79 35.0901 27.65 35.0901 27.46V17.74C35.0901 17.55 35.1301 17.415 35.2101 17.335C35.3001 17.245 35.4401 17.2 35.6301 17.2H40.6251C41.7451 17.2 42.5151 17.435 42.9351 17.905C43.3651 18.365 43.5801 18.965 43.5801 19.705V20.395C43.5801 20.815 43.5151 21.175 43.3851 21.475C43.2651 21.765 43.0501 21.975 42.7401 22.105C43.2801 22.165 43.7151 22.385 44.0451 22.765C44.3851 23.145 44.5551 23.65 44.5551 24.28V27.46C44.5551 27.65 44.5101 27.79 44.4201 27.88C44.3401 27.96 44.2051 28 44.0151 28H41.6901C41.5001 28 41.3601 27.96 41.2701 27.88C41.1901 27.79 41.1501 27.65 41.1501 27.46V25.165C41.1501 24.945 41.1051 24.785 41.0151 24.685C40.9351 24.575 40.7901 24.52 40.5801 24.52H38.4801V27.46C38.4801 27.65 38.4351 27.79 38.3451 27.88C38.2651 27.96 38.1301 28 37.9401 28ZM49.2525 20.35L48.5475 22.63H50.9025L50.1975 20.35C50.1575 20.26 50.1125 20.195 50.0625 20.155C50.0225 20.115 49.9725 20.095 49.9125 20.095H49.5375C49.4775 20.095 49.4225 20.115 49.3725 20.155C49.3325 20.195 49.2925 20.26 49.2525 20.35ZM48.3975 27.46C48.3975 27.65 48.3525 27.79 48.2625 27.88C48.1825 27.96 48.0475 28 47.8575 28H45.6525C45.4625 28 45.3225 27.96 45.2325 27.88C45.1525 27.79 45.1125 27.65 45.1125 27.46V23.5C45.1125 23.2 45.1575 22.855 45.2475 22.465C45.3475 22.075 45.4975 21.62 45.6975 21.1L47.0025 17.695C47.0625 17.525 47.1525 17.4 47.2725 17.32C47.4025 17.24 47.5675 17.2 47.7675 17.2H51.8025C51.9925 17.2 52.1475 17.24 52.2675 17.32C52.3975 17.4 52.4925 17.525 52.5525 17.695L53.8575 21.1C54.0575 21.62 54.2025 22.075 54.2925 22.465C54.3925 22.855 54.4425 23.2 54.4425 23.5V27.46C54.4425 27.65 54.3975 27.79 54.3075 27.88C54.2275 27.96 54.0925 28 53.9025 28H51.6375C51.4375 28 51.2875 27.96 51.1875 27.88C51.0975 27.79 51.0525 27.65 51.0525 27.46V25.36H48.3975V27.46ZM58.1846 28H55.9346C55.7446 28 55.6046 27.96 55.5146 27.88C55.4346 27.79 55.3946 27.65 55.3946 27.46V17.74C55.3946 17.55 55.4346 17.415 55.5146 17.335C55.6046 17.245 55.7446 17.2 55.9346 17.2H57.4946C57.6846 17.2 57.8446 17.23 57.9746 17.29C58.1146 17.35 58.2496 17.455 58.3796 17.605L61.2896 20.935V17.74C61.2896 17.55 61.3296 17.415 61.4096 17.335C61.4996 17.245 61.6396 17.2 61.8296 17.2H64.0796C64.2696 17.2 64.4046 17.245 64.4846 17.335C64.5746 17.415 64.6196 17.55 64.6196 17.74V27.46C64.6196 27.65 64.5746 27.79 64.4846 27.88C64.4046 27.96 64.2696 28 64.0796 28H61.8296C61.6396 28 61.4996 27.96 61.4096 27.88C61.3296 27.79 61.2896 27.65 61.2896 27.46V25.615L58.7246 22.51V27.46C58.7246 27.65 58.6796 27.79 58.5896 27.88C58.5096 27.96 58.3746 28 58.1846 28ZM68.6535 28H66.3285C66.1385 28 65.9985 27.96 65.9085 27.88C65.8285 27.79 65.7885 27.65 65.7885 27.46V17.74C65.7885 17.55 65.8285 17.415 65.9085 17.335C65.9985 17.245 66.1385 17.2 66.3285 17.2H68.6535C68.8435 17.2 68.9785 17.245 69.0585 17.335C69.1485 17.415 69.1935 17.55 69.1935 17.74V21.19H69.7935L71.3385 17.695C71.4085 17.515 71.5035 17.39 71.6235 17.32C71.7435 17.24 71.8985 17.2 72.0885 17.2H74.3985C74.5685 17.2 74.6835 17.245 74.7435 17.335C74.8035 17.415 74.7985 17.535 74.7285 17.695L73.1985 21.19C73.7585 21.22 74.2035 21.42 74.5335 21.79C74.8735 22.15 75.0435 22.63 75.0435 23.23V27.46C75.0435 27.65 74.9985 27.79 74.9085 27.88C74.8285 27.96 74.6935 28 74.5035 28H72.1935C72.0035 28 71.8635 27.96 71.7735 27.88C71.6935 27.79 71.6535 27.65 71.6535 27.46V24.535C71.6535 24.375 71.6135 24.25 71.5335 24.16C71.4535 24.07 71.3335 24.025 71.1735 24.025H69.1935V27.46C69.1935 27.65 69.1485 27.79 69.0585 27.88C68.9785 27.96 68.8435 28 68.6535 28Z"/>
</mask>
<path d="M38.4801 19.9V21.82H39.6051C39.8651 21.82 40.0401 21.755 40.1301 21.625C40.2201 21.485 40.2651 21.315 40.2651 21.115V20.605C40.2651 20.405 40.2201 20.24 40.1301 20.11C40.0401 19.97 39.8651 19.9 39.6051 19.9H38.4801ZM37.9401 28H35.6301C35.4401 28 35.3001 27.96 35.2101 27.88C35.1301 27.79 35.0901 27.65 35.0901 27.46V17.74C35.0901 17.55 35.1301 17.415 35.2101 17.335C35.3001 17.245 35.4401 17.2 35.6301 17.2H40.6251C41.7451 17.2 42.5151 17.435 42.9351 17.905C43.3651 18.365 43.5801 18.965 43.5801 19.705V20.395C43.5801 20.815 43.5151 21.175 43.3851 21.475C43.2651 21.765 43.0501 21.975 42.7401 22.105C43.2801 22.165 43.7151 22.385 44.0451 22.765C44.3851 23.145 44.5551 23.65 44.5551 24.28V27.46C44.5551 27.65 44.5101 27.79 44.4201 27.88C44.3401 27.96 44.2051 28 44.0151 28H41.6901C41.5001 28 41.3601 27.96 41.2701 27.88C41.1901 27.79 41.1501 27.65 41.1501 27.46V25.165C41.1501 24.945 41.1051 24.785 41.0151 24.685C40.9351 24.575 40.7901 24.52 40.5801 24.52H38.4801V27.46C38.4801 27.65 38.4351 27.79 38.3451 27.88C38.2651 27.96 38.1301 28 37.9401 28ZM49.2525 20.35L48.5475 22.63H50.9025L50.1975 20.35C50.1575 20.26 50.1125 20.195 50.0625 20.155C50.0225 20.115 49.9725 20.095 49.9125 20.095H49.5375C49.4775 20.095 49.4225 20.115 49.3725 20.155C49.3325 20.195 49.2925 20.26 49.2525 20.35ZM48.3975 27.46C48.3975 27.65 48.3525 27.79 48.2625 27.88C48.1825 27.96 48.0475 28 47.8575 28H45.6525C45.4625 28 45.3225 27.96 45.2325 27.88C45.1525 27.79 45.1125 27.65 45.1125 27.46V23.5C45.1125 23.2 45.1575 22.855 45.2475 22.465C45.3475 22.075 45.4975 21.62 45.6975 21.1L47.0025 17.695C47.0625 17.525 47.1525 17.4 47.2725 17.32C47.4025 17.24 47.5675 17.2 47.7675 17.2H51.8025C51.9925 17.2 52.1475 17.24 52.2675 17.32C52.3975 17.4 52.4925 17.525 52.5525 17.695L53.8575 21.1C54.0575 21.62 54.2025 22.075 54.2925 22.465C54.3925 22.855 54.4425 23.2 54.4425 23.5V27.46C54.4425 27.65 54.3975 27.79 54.3075 27.88C54.2275 27.96 54.0925 28 53.9025 28H51.6375C51.4375 28 51.2875 27.96 51.1875 27.88C51.0975 27.79 51.0525 27.65 51.0525 27.46V25.36H48.3975V27.46ZM58.1846 28H55.9346C55.7446 28 55.6046 27.96 55.5146 27.88C55.4346 27.79 55.3946 27.65 55.3946 27.46V17.74C55.3946 17.55 55.4346 17.415 55.5146 17.335C55.6046 17.245 55.7446 17.2 55.9346 17.2H57.4946C57.6846 17.2 57.8446 17.23 57.9746 17.29C58.1146 17.35 58.2496 17.455 58.3796 17.605L61.2896 20.935V17.74C61.2896 17.55 61.3296 17.415 61.4096 17.335C61.4996 17.245 61.6396 17.2 61.8296 17.2H64.0796C64.2696 17.2 64.4046 17.245 64.4846 17.335C64.5746 17.415 64.6196 17.55 64.6196 17.74V27.46C64.6196 27.65 64.5746 27.79 64.4846 27.88C64.4046 27.96 64.2696 28 64.0796 28H61.8296C61.6396 28 61.4996 27.96 61.4096 27.88C61.3296 27.79 61.2896 27.65 61.2896 27.46V25.615L58.7246 22.51V27.46C58.7246 27.65 58.6796 27.79 58.5896 27.88C58.5096 27.96 58.3746 28 58.1846 28ZM68.6535 28H66.3285C66.1385 28 65.9985 27.96 65.9085 27.88C65.8285 27.79 65.7885 27.65 65.7885 27.46V17.74C65.7885 17.55 65.8285 17.415 65.9085 17.335C65.9985 17.245 66.1385 17.2 66.3285 17.2H68.6535C68.8435 17.2 68.9785 17.245 69.0585 17.335C69.1485 17.415 69.1935 17.55 69.1935 17.74V21.19H69.7935L71.3385 17.695C71.4085 17.515 71.5035 17.39 71.6235 17.32C71.7435 17.24 71.8985 17.2 72.0885 17.2H74.3985C74.5685 17.2 74.6835 17.245 74.7435 17.335C74.8035 17.415 74.7985 17.535 74.7285 17.695L73.1985 21.19C73.7585 21.22 74.2035 21.42 74.5335 21.79C74.8735 22.15 75.0435 22.63 75.0435 23.23V27.46C75.0435 27.65 74.9985 27.79 74.9085 27.88C74.8285 27.96 74.6935 28 74.5035 28H72.1935C72.0035 28 71.8635 27.96 71.7735 27.88C71.6935 27.79 71.6535 27.65 71.6535 27.46V24.535C71.6535 24.375 71.6135 24.25 71.5335 24.16C71.4535 24.07 71.3335 24.025 71.1735 24.025H69.1935V27.46C69.1935 27.65 69.1485 27.79 69.0585 27.88C68.9785 27.96 68.8435 28 68.6535 28Z" fill="white"/>
<path d="M38.4801 19.9V18.9H37.4801V19.9H38.4801ZM38.4801 21.82H37.4801V22.82H38.4801V21.82ZM40.1301 21.625L40.9523 22.1942L40.962 22.1801L40.9713 22.1658L40.1301 21.625ZM40.1301 20.11L39.2889 20.6508L39.2982 20.6651L39.3079 20.6792L40.1301 20.11ZM35.2101 27.88L34.4627 28.5444L34.5017 28.5883L34.5457 28.6274L35.2101 27.88ZM35.2101 17.335L34.503 16.6279L34.503 16.6279L35.2101 17.335ZM42.9351 17.905L42.1894 18.5713L42.1969 18.5797L42.2046 18.5879L42.9351 17.905ZM43.3851 21.475L42.4675 21.0774L42.4642 21.085L42.4611 21.0926L43.3851 21.475ZM42.7401 22.105L42.3534 21.1828L38.7992 22.6733L42.6296 23.0989L42.7401 22.105ZM44.0451 22.765L43.29 23.4207L43.2949 23.4263L43.2998 23.4318L44.0451 22.765ZM44.4201 27.88L45.1272 28.5871L45.1272 28.5871L44.4201 27.88ZM41.2701 27.88L40.5227 28.5444L40.5617 28.5883L40.6057 28.6274L41.2701 27.88ZM41.0151 24.685L40.2063 25.2732L40.237 25.3153L40.2718 25.354L41.0151 24.685ZM38.4801 24.52V23.52H37.4801V24.52H38.4801ZM38.3451 27.88L37.638 27.1729H37.638L38.3451 27.88ZM37.4801 19.9V21.82H39.4801V19.9H37.4801ZM38.4801 22.82H39.6051V20.82H38.4801V22.82ZM39.6051 22.82C39.9794 22.82 40.5801 22.7317 40.9523 22.1942L39.3079 21.0558C39.3993 20.9237 39.5142 20.8594 39.5831 20.8338C39.6414 20.8122 39.6594 20.82 39.6051 20.82V22.82ZM40.9713 22.1658C41.1842 21.8345 41.2651 21.4677 41.2651 21.115H39.2651C39.2651 21.1402 39.2622 21.1456 39.2646 21.1366C39.2658 21.1321 39.2682 21.1246 39.2723 21.1151C39.2765 21.1055 39.282 21.095 39.2889 21.0842L40.9713 22.1658ZM41.2651 21.115V20.605H39.2651V21.115H41.2651ZM41.2651 20.605C41.2651 20.2556 41.1854 19.8775 40.9523 19.5408L39.3079 20.6792C39.2833 20.6437 39.2715 20.6123 39.2666 20.5944C39.2621 20.5781 39.2651 20.5793 39.2651 20.605H41.2651ZM40.9713 19.5692C40.6102 19.0076 40.0049 18.9 39.6051 18.9V20.9C39.6529 20.9 39.6262 20.9075 39.5599 20.881C39.4809 20.8494 39.3709 20.7784 39.2889 20.6508L40.9713 19.5692ZM39.6051 18.9H38.4801V20.9H39.6051V18.9ZM37.9401 27H35.6301V29H37.9401V27ZM35.6301 27C35.6014 27 35.6156 26.9966 35.6573 27.0085C35.7019 27.0212 35.7863 27.0542 35.8744 27.1326L34.5457 28.6274C34.8992 28.9416 35.3298 29 35.6301 29V27ZM35.9575 27.2156C36.0359 27.3038 36.0689 27.3882 36.0816 27.4328C36.0935 27.4745 36.0901 27.4887 36.0901 27.46H34.0901C34.0901 27.7602 34.1485 28.1909 34.4627 28.5444L35.9575 27.2156ZM36.0901 27.46V17.74H34.0901V27.46H36.0901ZM36.0901 17.74C36.0901 17.71 36.0938 17.7298 36.0789 17.7803C36.0629 17.8342 36.0205 17.9388 35.9172 18.0421L34.503 16.6279C34.1423 16.9885 34.0901 17.4546 34.0901 17.74H36.0901ZM35.9172 18.0421C35.7446 18.2147 35.5759 18.2 35.6301 18.2V16.2C35.3043 16.2 34.8556 16.2753 34.503 16.6279L35.9172 18.0421ZM35.6301 18.2H40.6251V16.2H35.6301V18.2ZM40.6251 18.2C41.6671 18.2 42.0632 18.4301 42.1894 18.5713L43.6807 17.2387C42.967 16.4399 41.8231 16.2 40.6251 16.2V18.2ZM42.2046 18.5879C42.4316 18.8307 42.5801 19.1712 42.5801 19.705H44.5801C44.5801 18.7588 44.2986 17.8993 43.6656 17.2221L42.2046 18.5879ZM42.5801 19.705V20.395H44.5801V19.705H42.5801ZM42.5801 20.395C42.5801 20.7156 42.53 20.9331 42.4675 21.0774L44.3026 21.8726C44.5001 21.4169 44.5801 20.9144 44.5801 20.395H42.5801ZM42.4611 21.0926C42.4496 21.1204 42.4392 21.1468 42.3534 21.1828L43.1268 23.0272C43.661 22.8032 44.0806 22.4096 44.3091 21.8574L42.4611 21.0926ZM42.6296 23.0989C42.9416 23.1335 43.1386 23.2462 43.29 23.4207L44.8001 22.1093C44.2916 21.5238 43.6186 21.1965 42.8505 21.1111L42.6296 23.0989ZM43.2998 23.4318C43.4395 23.5879 43.5551 23.8356 43.5551 24.28H45.5551C45.5551 23.4644 45.3306 22.7021 44.7903 22.0982L43.2998 23.4318ZM43.5551 24.28V27.46H45.5551V24.28H43.5551ZM43.5551 27.46C43.5551 27.5142 43.5404 27.3455 43.713 27.1729L45.1272 28.5871C45.4798 28.2345 45.5551 27.7858 45.5551 27.46H43.5551ZM43.713 27.1729C43.8162 27.0696 43.9209 27.0271 43.9747 27.0112C44.0252 26.9962 44.0451 27 44.0151 27V29C44.3005 29 44.7665 28.9478 45.1272 28.5871L43.713 27.1729ZM44.0151 27H41.6901V29H44.0151V27ZM41.6901 27C41.6614 27 41.6756 26.9966 41.7173 27.0085C41.7619 27.0212 41.8463 27.0542 41.9344 27.1326L40.6057 28.6274C40.9592 28.9416 41.3898 29 41.6901 29V27ZM42.0175 27.2156C42.0959 27.3038 42.1289 27.3882 42.1416 27.4328C42.1535 27.4745 42.1501 27.4887 42.1501 27.46H40.1501C40.1501 27.7602 40.2085 28.1909 40.5227 28.5444L42.0175 27.2156ZM42.1501 27.46V25.165H40.1501V27.46H42.1501ZM42.1501 25.165C42.1501 24.8453 42.0911 24.3857 41.7584 24.016L40.2718 25.354C40.1927 25.2661 40.1632 25.1845 40.1537 25.1507C40.1449 25.1195 40.1501 25.1189 40.1501 25.165H42.1501ZM41.8238 24.0968C41.4705 23.6111 40.9308 23.52 40.5801 23.52V25.52C40.6041 25.52 40.5648 25.524 40.4917 25.4962C40.4085 25.4647 40.2962 25.3967 40.2063 25.2732L41.8238 24.0968ZM40.5801 23.52H38.4801V25.52H40.5801V23.52ZM37.4801 24.52V27.46H39.4801V24.52H37.4801ZM37.4801 27.46C37.4801 27.5142 37.4654 27.3455 37.638 27.1729L39.0522 28.5871C39.4048 28.2345 39.4801 27.7858 39.4801 27.46H37.4801ZM37.638 27.1729C37.7412 27.0696 37.8459 27.0271 37.8997 27.0112C37.9502 26.9962 37.9701 27 37.9401 27V29C38.2255 29 38.6915 28.9478 39.0522 28.5871L37.638 27.1729ZM49.2525 20.35L48.3387 19.9439L48.3147 19.998L48.2972 20.0546L49.2525 20.35ZM48.5475 22.63L47.5922 22.3346L47.1916 23.63H48.5475V22.63ZM50.9025 22.63V23.63H52.2585L51.8579 22.3346L50.9025 22.63ZM50.1975 20.35L51.1529 20.0546L51.1354 19.998L51.1114 19.9439L50.1975 20.35ZM50.0625 20.155L49.3554 20.8621L49.3946 20.9013L49.4379 20.9359L50.0625 20.155ZM49.3725 20.155L48.7478 19.3741L48.7046 19.4087L48.6654 19.4479L49.3725 20.155ZM48.2625 27.88L47.5554 27.1729H47.5554L48.2625 27.88ZM45.2325 27.88L44.4851 28.5444L44.5242 28.5883L44.5682 28.6274L45.2325 27.88ZM45.2475 22.465L44.2789 22.2166L44.2759 22.2283L44.2731 22.2401L45.2475 22.465ZM45.6975 21.1L46.6309 21.459L46.6313 21.4579L45.6975 21.1ZM47.0025 17.695L47.9363 18.0529L47.9411 18.0404L47.9455 18.0278L47.0025 17.695ZM47.2725 17.32L46.7484 16.4683L46.733 16.4779L46.7178 16.4879L47.2725 17.32ZM52.2675 17.32L51.7128 18.152L51.728 18.1621L51.7434 18.1717L52.2675 17.32ZM52.5525 17.695L51.6095 18.0278L51.614 18.0404L51.6188 18.0529L52.5525 17.695ZM53.8575 21.1L52.9238 21.4579L52.9242 21.459L53.8575 21.1ZM54.2925 22.465L53.3181 22.6899L53.3209 22.7017L53.3239 22.7134L54.2925 22.465ZM54.3075 27.88L55.0146 28.5871V28.5871L54.3075 27.88ZM51.1875 27.88L50.4804 28.5871L50.5196 28.6263L50.5628 28.6609L51.1875 27.88ZM51.0525 25.36H52.0525V24.36H51.0525V25.36ZM48.3975 25.36V24.36H47.3975V25.36H48.3975ZM48.2972 20.0546L47.5922 22.3346L49.5029 22.9254L50.2079 20.6454L48.2972 20.0546ZM48.5475 23.63H50.9025V21.63H48.5475V23.63ZM51.8579 22.3346L51.1529 20.0546L49.2422 20.6454L49.9472 22.9254L51.8579 22.3346ZM51.1114 19.9439C51.0381 19.7791 50.9116 19.5536 50.6872 19.3741L49.4379 20.9359C49.3718 20.883 49.3319 20.8323 49.3116 20.803C49.301 20.7876 49.2939 20.7755 49.2898 20.768C49.2856 20.7605 49.2838 20.7562 49.2837 20.7561L51.1114 19.9439ZM50.7696 19.4479C50.5299 19.2081 50.2199 19.095 49.9125 19.095V21.095C49.8298 21.095 49.7295 21.0808 49.6236 21.0385C49.5166 20.9957 49.4263 20.9329 49.3554 20.8621L50.7696 19.4479ZM49.9125 19.095H49.5375V21.095H49.9125V19.095ZM49.5375 19.095C49.2346 19.095 48.9624 19.2025 48.7478 19.3741L49.9972 20.9359C49.8827 21.0275 49.7205 21.095 49.5375 21.095V19.095ZM48.6654 19.4479C48.4971 19.6163 48.3972 19.8122 48.3387 19.9439L50.1664 20.7561C50.1732 20.7408 50.1731 20.7434 50.1642 20.7578C50.1565 20.7703 50.1301 20.8116 50.0796 20.8621L48.6654 19.4479ZM47.3975 27.46C47.3975 27.5142 47.3828 27.3455 47.5554 27.1729L48.9696 28.5871C49.3222 28.2345 49.3975 27.7858 49.3975 27.46H47.3975ZM47.5554 27.1729C47.6587 27.0696 47.7634 27.0271 47.8172 27.0112C47.8677 26.9962 47.8876 27 47.8575 27V29C48.143 29 48.609 28.9478 48.9696 28.5871L47.5554 27.1729ZM47.8575 27H45.6525V29H47.8575V27ZM45.6525 27C45.6239 27 45.638 26.9966 45.6798 27.0085C45.7243 27.0212 45.8087 27.0542 45.8969 27.1326L44.5682 28.6274C44.9216 28.9416 45.3523 29 45.6525 29V27ZM45.9799 27.2156C46.0583 27.3038 46.0913 27.3882 46.1041 27.4328C46.116 27.4745 46.1125 27.4887 46.1125 27.46H44.1125C44.1125 27.7602 44.1709 28.1909 44.4851 28.5444L45.9799 27.2156ZM46.1125 27.46V23.5H44.1125V27.46H46.1125ZM46.1125 23.5C46.1125 23.296 46.1437 23.029 46.2219 22.6899L44.2731 22.2401C44.1714 22.681 44.1125 23.104 44.1125 23.5H46.1125ZM46.2162 22.7134C46.3037 22.372 46.4399 21.9554 46.6309 21.459L44.7642 20.741C44.5551 21.2846 44.3914 21.778 44.2789 22.2166L46.2162 22.7134ZM46.6313 21.4579L47.9363 18.0529L46.0688 17.3371L44.7638 20.7421L46.6313 21.4579ZM47.9455 18.0278C47.9491 18.0176 47.9456 18.0316 47.9266 18.0581C47.9063 18.0862 47.8736 18.1211 47.8272 18.1521L46.7178 16.4879C46.3769 16.7152 46.1733 17.0399 46.0595 17.3622L47.9455 18.0278ZM47.7966 18.1717C47.763 18.1924 47.7374 18.1999 47.7294 18.2018C47.7225 18.2035 47.7333 18.2 47.7675 18.2V16.2C47.4386 16.2 47.0779 16.2656 46.7484 16.4683L47.7966 18.1717ZM47.7675 18.2H51.8025V16.2H47.7675V18.2ZM51.8025 18.2C51.8568 18.2 51.8018 18.2114 51.7128 18.152L52.8222 16.488C52.4932 16.2686 52.1283 16.2 51.8025 16.2V18.2ZM51.7434 18.1717C51.7003 18.1451 51.6651 18.1118 51.6401 18.0788C51.6163 18.0475 51.6091 18.0264 51.6095 18.0278L53.4955 17.3622C53.3738 17.0172 53.1504 16.6891 52.7916 16.4683L51.7434 18.1717ZM51.6188 18.0529L52.9238 21.4579L54.7913 20.7421L53.4863 17.3371L51.6188 18.0529ZM52.9242 21.459C53.1134 21.9508 53.2419 22.3592 53.3181 22.6899L55.2669 22.2401C55.1632 21.7908 55.0017 21.2892 54.7909 20.741L52.9242 21.459ZM53.3239 22.7134C53.4097 23.048 53.4425 23.3067 53.4425 23.5H55.4425C55.4425 23.0933 55.3754 22.662 55.2612 22.2166L53.3239 22.7134ZM53.4425 23.5V27.46H55.4425V23.5H53.4425ZM53.4425 27.46C53.4425 27.5142 53.4278 27.3455 53.6004 27.1729L55.0146 28.5871C55.3672 28.2345 55.4425 27.7858 55.4425 27.46H53.4425ZM53.6004 27.1729C53.7037 27.0696 53.8084 27.0271 53.8622 27.0112C53.9127 26.9962 53.9326 27 53.9025 27V29C54.188 29 54.654 28.9478 55.0146 28.5871L53.6004 27.1729ZM53.9025 27H51.6375V29H53.9025V27ZM51.6375 27C51.6009 27 51.6035 26.996 51.6327 27.0038C51.6638 27.012 51.7336 27.0363 51.8122 27.0991L50.5628 28.6609C50.9155 28.943 51.3307 29 51.6375 29V27ZM51.8946 27.1729C52.0672 27.3455 52.0525 27.5142 52.0525 27.46H50.0525C50.0525 27.7858 50.1278 28.2345 50.4804 28.5871L51.8946 27.1729ZM52.0525 27.46V25.36H50.0525V27.46H52.0525ZM51.0525 24.36H48.3975V26.36H51.0525V24.36ZM47.3975 25.36V27.46H49.3975V25.36H47.3975ZM55.5146 27.88L54.7672 28.5444L54.8062 28.5883L54.8502 28.6274L55.5146 27.88ZM55.5146 17.335L54.8075 16.6279V16.6279L55.5146 17.335ZM57.9746 17.29L57.5555 18.198L57.568 18.2037L57.5807 18.2091L57.9746 17.29ZM58.3796 17.605L57.6239 18.2599L57.6266 18.263L58.3796 17.605ZM61.2896 20.935L60.5366 21.593L62.2896 23.599V20.935H61.2896ZM64.4846 17.335L63.7372 17.9994L63.7762 18.0433L63.8202 18.0824L64.4846 17.335ZM64.4846 27.88L63.7775 27.1729L63.7775 27.1729L64.4846 27.88ZM61.4096 27.88L60.6622 28.5444L60.7012 28.5883L60.7452 28.6274L61.4096 27.88ZM61.2896 25.615H62.2896V25.2554L62.0605 24.9781L61.2896 25.615ZM58.7246 22.51L59.4955 21.8731L57.7246 19.7293V22.51H58.7246ZM58.5896 27.88L57.8825 27.1729H57.8825L58.5896 27.88ZM58.1846 27H55.9346V29H58.1846V27ZM55.9346 27C55.9059 27 55.9201 26.9966 55.9618 27.0085C56.0064 27.0212 56.0908 27.0542 56.1789 27.1326L54.8502 28.6274C55.2037 28.9416 55.6343 29 55.9346 29V27ZM56.262 27.2156C56.3404 27.3038 56.3734 27.3882 56.3861 27.4328C56.398 27.4745 56.3946 27.4887 56.3946 27.46H54.3946C54.3946 27.7602 54.453 28.1909 54.7672 28.5444L56.262 27.2156ZM56.3946 27.46V17.74H54.3946V27.46H56.3946ZM56.3946 17.74C56.3946 17.71 56.3983 17.7298 56.3834 17.7803C56.3674 17.8342 56.3249 17.9388 56.2217 18.0421L54.8075 16.6279C54.4468 16.9885 54.3946 17.4546 54.3946 17.74H56.3946ZM56.2217 18.0421C56.0491 18.2147 55.8804 18.2 55.9346 18.2V16.2C55.6088 16.2 55.1601 16.2753 54.8075 16.6279L56.2217 18.0421ZM55.9346 18.2H57.4946V16.2H55.9346V18.2ZM57.4946 18.2C57.5377 18.2 57.5626 18.2035 57.5728 18.2054C57.5826 18.2072 57.5748 18.2069 57.5555 18.198L58.3936 16.382C58.0967 16.245 57.7842 16.2 57.4946 16.2V18.2ZM57.5807 18.2091C57.5631 18.2016 57.5587 18.1968 57.5669 18.2031C57.5754 18.2098 57.595 18.2266 57.6239 18.2599L59.1353 16.9501C58.9351 16.7191 58.683 16.5057 58.3685 16.3709L57.5807 18.2091ZM57.6266 18.263L60.5366 21.593L62.0426 20.277L59.1326 16.947L57.6266 18.263ZM62.2896 20.935V17.74H60.2896V20.935H62.2896ZM62.2896 17.74C62.2896 17.71 62.2933 17.7298 62.2784 17.7803C62.2624 17.8342 62.2199 17.9388 62.1167 18.0421L60.7025 16.6279C60.3418 16.9885 60.2896 17.4546 60.2896 17.74H62.2896ZM62.1167 18.0421C61.9441 18.2147 61.7754 18.2 61.8296 18.2V16.2C61.5038 16.2 61.0551 16.2753 60.7025 16.6279L62.1167 18.0421ZM61.8296 18.2H64.0796V16.2H61.8296V18.2ZM64.0796 18.2C64.1008 18.2 64.0693 18.2032 64.0071 18.1824C63.9388 18.1597 63.8331 18.1073 63.7372 17.9994L65.232 16.6706C64.8758 16.27 64.3925 16.2 64.0796 16.2V18.2ZM63.8202 18.0824C63.7123 17.9865 63.6599 17.8808 63.6371 17.8125C63.6164 17.7503 63.6196 17.7188 63.6196 17.74H65.6196C65.6196 17.4271 65.5496 16.9437 65.1489 16.5876L63.8202 18.0824ZM63.6196 17.74V27.46H65.6196V17.74H63.6196ZM63.6196 27.46C63.6196 27.5142 63.6049 27.3455 63.7775 27.1729L65.1917 28.5871C65.5443 28.2345 65.6196 27.7858 65.6196 27.46H63.6196ZM63.7775 27.1729C63.8807 27.0696 63.9854 27.0271 64.0392 27.0112C64.0897 26.9962 64.1096 27 64.0796 27V29C64.365 29 64.831 28.9478 65.1917 28.5871L63.7775 27.1729ZM64.0796 27H61.8296V29H64.0796V27ZM61.8296 27C61.8009 27 61.8151 26.9966 61.8568 27.0085C61.9014 27.0212 61.9858 27.0542 62.0739 27.1326L60.7452 28.6274C61.0987 28.9416 61.5293 29 61.8296 29V27ZM62.157 27.2156C62.2354 27.3038 62.2684 27.3882 62.2811 27.4328C62.293 27.4745 62.2896 27.4887 62.2896 27.46H60.2896C60.2896 27.7602 60.348 28.1909 60.6622 28.5444L62.157 27.2156ZM62.2896 27.46V25.615H60.2896V27.46H62.2896ZM62.0605 24.9781L59.4955 21.8731L57.9536 23.1469L60.5186 26.2519L62.0605 24.9781ZM57.7246 22.51V27.46H59.7246V22.51H57.7246ZM57.7246 27.46C57.7246 27.5142 57.7099 27.3455 57.8825 27.1729L59.2967 28.5871C59.6493 28.2345 59.7246 27.7858 59.7246 27.46H57.7246ZM57.8825 27.1729C57.9857 27.0696 58.0904 27.0271 58.1442 27.0112C58.1947 26.9962 58.2146 27 58.1846 27V29C58.47 29 58.936 28.9478 59.2967 28.5871L57.8825 27.1729ZM65.9085 27.88L65.1611 28.5444L65.2002 28.5883L65.2442 28.6274L65.9085 27.88ZM65.9085 17.335L65.2014 16.6279V16.6279L65.9085 17.335ZM69.0585 17.335L68.3111 17.9994L68.3502 18.0433L68.3941 18.0824L69.0585 17.335ZM69.1935 21.19H68.1935V22.19H69.1935V21.19ZM69.7935 21.19V22.19H70.4448L70.7081 21.5943L69.7935 21.19ZM71.3385 17.695L72.2531 18.0993L72.2623 18.0786L72.2705 18.0574L71.3385 17.695ZM71.6235 17.32L72.1274 18.1838L72.1533 18.1687L72.1782 18.152L71.6235 17.32ZM74.7435 17.335L73.9115 17.8897L73.9269 17.9128L73.9435 17.935L74.7435 17.335ZM74.7285 17.695L75.6446 18.096L75.6447 18.0958L74.7285 17.695ZM73.1985 21.19L72.2824 20.789L71.7036 22.1113L73.145 22.1886L73.1985 21.19ZM74.5335 21.79L73.7872 22.4556L73.7967 22.4663L73.8065 22.4766L74.5335 21.79ZM74.9085 27.88L75.6156 28.5871V28.5871L74.9085 27.88ZM71.7735 27.88L71.0261 28.5444L71.0652 28.5883L71.1092 28.6274L71.7735 27.88ZM69.1935 24.025V23.025H68.1935V24.025H69.1935ZM69.0585 27.88L68.3514 27.1729H68.3514L69.0585 27.88ZM68.6535 27H66.3285V29H68.6535V27ZM66.3285 27C66.2998 27 66.314 26.9966 66.3557 27.0085C66.4003 27.0212 66.4847 27.0542 66.5729 27.1326L65.2442 28.6274C65.5976 28.9416 66.0283 29 66.3285 29V27ZM66.6559 27.2156C66.7343 27.3038 66.7673 27.3882 66.78 27.4328C66.792 27.4745 66.7885 27.4887 66.7885 27.46H64.7885C64.7885 27.7602 64.8469 28.1909 65.1611 28.5444L66.6559 27.2156ZM66.7885 27.46V17.74H64.7885V27.46H66.7885ZM66.7885 17.74C66.7885 17.71 66.7923 17.7298 66.7773 17.7803C66.7614 17.8342 66.7189 17.9388 66.6156 18.0421L65.2014 16.6279C64.8408 16.9885 64.7885 17.4546 64.7885 17.74H66.7885ZM66.6156 18.0421C66.443 18.2147 66.2743 18.2 66.3285 18.2V16.2C66.0027 16.2 65.554 16.2753 65.2014 16.6279L66.6156 18.0421ZM66.3285 18.2H68.6535V16.2H66.3285V18.2ZM68.6535 18.2C68.6747 18.2 68.6432 18.2032 68.581 18.1824C68.5128 18.1597 68.407 18.1073 68.3111 17.9994L69.8059 16.6706C69.4498 16.27 68.9664 16.2 68.6535 16.2V18.2ZM68.3941 18.0824C68.2862 17.9865 68.2338 17.8808 68.2111 17.8125C68.1904 17.7503 68.1935 17.7188 68.1935 17.74H70.1935C70.1935 17.4271 70.1236 16.9437 69.7229 16.5876L68.3941 18.0824ZM68.1935 17.74V21.19H70.1935V17.74H68.1935ZM69.1935 22.19H69.7935V20.19H69.1935V22.19ZM70.7081 21.5943L72.2531 18.0993L70.4239 17.2907L68.8789 20.7857L70.7081 21.5943ZM72.2705 18.0574C72.2901 18.0071 72.2664 18.1027 72.1274 18.1838L71.1196 16.4562C70.7406 16.6773 70.5269 17.0229 70.4065 17.3326L72.2705 18.0574ZM72.1782 18.152C72.0892 18.2114 72.0343 18.2 72.0885 18.2V16.2C71.7628 16.2 71.3978 16.2686 71.0688 16.488L72.1782 18.152ZM72.0885 18.2H74.3985V16.2H72.0885V18.2ZM74.3985 18.2C74.3977 18.2 74.3838 18.2 74.3597 18.1962C74.3356 18.1924 74.2965 18.184 74.2479 18.165C74.1426 18.1238 74.0107 18.0386 73.9115 17.8897L75.5756 16.7803C75.242 16.2799 74.7044 16.2 74.3985 16.2V18.2ZM73.9435 17.935C73.8087 17.7553 73.7805 17.5657 73.7856 17.4434C73.7901 17.3369 73.8183 17.2806 73.8124 17.2942L75.6447 18.0958C75.7492 17.8569 75.9451 17.2705 75.5435 16.735L73.9435 17.935ZM73.8124 17.294L72.2824 20.789L74.1146 21.591L75.6446 18.096L73.8124 17.294ZM73.145 22.1886C73.477 22.2064 73.6584 22.3112 73.7872 22.4556L75.2798 21.1244C74.7486 20.5288 74.04 20.2336 73.252 20.1914L73.145 22.1886ZM73.8065 22.4766C73.9355 22.6132 74.0435 22.8282 74.0435 23.23H76.0435C76.0435 22.4318 75.8115 21.6868 75.2605 21.1034L73.8065 22.4766ZM74.0435 23.23V27.46H76.0435V23.23H74.0435ZM74.0435 27.46C74.0435 27.5142 74.0288 27.3455 74.2014 27.1729L75.6156 28.5871C75.9682 28.2345 76.0435 27.7858 76.0435 27.46H74.0435ZM74.2014 27.1729C74.3047 27.0696 74.4094 27.0271 74.4632 27.0112C74.5137 26.9962 74.5335 27 74.5035 27V29C74.7889 29 75.255 28.9478 75.6156 28.5871L74.2014 27.1729ZM74.5035 27H72.1935V29H74.5035V27ZM72.1935 27C72.1648 27 72.179 26.9966 72.2207 27.0085C72.2653 27.0212 72.3497 27.0542 72.4379 27.1326L71.1092 28.6274C71.4626 28.9416 71.8933 29 72.1935 29V27ZM72.5209 27.2156C72.5993 27.3038 72.6323 27.3882 72.645 27.4328C72.657 27.4745 72.6535 27.4887 72.6535 27.46H70.6535C70.6535 27.7602 70.7119 28.1909 71.0261 28.5444L72.5209 27.2156ZM72.6535 27.46V24.535H70.6535V27.46H72.6535ZM72.6535 24.535C72.6535 24.2119 72.5708 23.8218 72.2809 23.4956L70.7861 24.8244C70.6562 24.6782 70.6535 24.5381 70.6535 24.535H72.6535ZM72.2809 23.4956C71.9541 23.1279 71.5202 23.025 71.1735 23.025V25.025C71.1623 25.025 71.1087 25.0237 71.0324 24.9951C70.9502 24.9643 70.8611 24.9087 70.7861 24.8244L72.2809 23.4956ZM71.1735 23.025H69.1935V25.025H71.1735V23.025ZM68.1935 24.025V27.46H70.1935V24.025H68.1935ZM68.1935 27.46C68.1935 27.5142 68.1788 27.3455 68.3514 27.1729L69.7656 28.5871C70.1182 28.2345 70.1935 27.7858 70.1935 27.46H68.1935ZM68.3514 27.1729C68.4547 27.0696 68.5594 27.0271 68.6132 27.0112C68.6637 26.9962 68.6835 27 68.6535 27V29C68.9389 29 69.405 28.9478 69.7656 28.5871L68.3514 27.1729Z" fill="black" mask="url(#path-8-outside-1_2530_2068)"/>
</g>
<defs>
<filter id="filter0_d_2530_2068" x="35.0901" y="17.2" width="39.9534" height="12.8" filterUnits="userSpaceOnUse" color-interpolation-filters="sRGB">
<feFlood flood-opacity="0" result="BackgroundImageFix"/>
<feColorMatrix in="SourceAlpha" type="matrix" values="0 0 0 0 0 0 0 0 0 0 0 0 0 0 0 0 0 0 127 0" result="hardAlpha"/>
<feOffset dy="2"/>
<feComposite in2="hardAlpha" operator="out"/>
<feColorMatrix type="matrix" values="0 0 0 0 0 0 0 0 0 0 0 0 0 0 0 0 0 0 1 0"/>
<feBlend mode="normal" in2="BackgroundImageFix" result="effect1_dropShadow_2530_2068"/>
<feBlend mode="normal" in="SourceGraphic" in2="effect1_dropShadow_2530_2068" result="shape"/>
</filter>
<linearGradient id="paint0_linear_2530_2068" x1="54.5" y1="3.84619" x2="54.5" y2="45.8462" gradientUnits="userSpaceOnUse">
<stop stop-color="#9156FF"/>
<stop offset="1" stop-color="#4500B7"/>
</linearGradient>
<linearGradient id="paint1_linear_2530_2068" x1="41.375" y1="42" x2="41.375" y2="2" gradientUnits="userSpaceOnUse">
<stop stop-color="#F6E6F6"/>
<stop offset="1" stop-color="#AFADFF"/>
</linearGradient>
<linearGradient id="paint2_linear_2530_2068" x1="4.43056" y1="5" x2="15.0704" y2="11.8054" gradientUnits="userSpaceOnUse">
<stop stop-color="white"/>
<stop offset="1" stop-color="white" stop-opacity="0"/>
</linearGradient>
<linearGradient id="paint3_linear_2530_2068" x1="54.5" y1="5" x2="54.5" y2="39" gradientUnits="userSpaceOnUse">
<stop stop-color="#9747FF"/>
<stop offset="1" stop-color="#6F00FF"/>
</linearGradient>
</defs>
</svg>
