<svg width="66" height="72" viewBox="0 0 66 72" fill="none" xmlns="http://www.w3.org/2000/svg">
<rect width="66" height="72" rx="16.6153" fill="black"/>
<rect x="3.21973" y="5.53857" width="59.561" height="62.7692" rx="14.7692" fill="url(#paint0_linear_2531_1143)"/>
<rect x="3.21973" y="3.69238" width="59.561" height="60.9231" rx="12.923" fill="url(#paint1_linear_2531_1143)"/>
<rect x="3.21973" y="3.69238" width="59.561" height="60.9231" rx="12.923" fill="url(#paint2_linear_2531_1143)"/>
<rect x="6.43896" y="7.38477" width="53.1219" height="53.5385" rx="11.0769" fill="url(#paint3_linear_2531_1143)"/>
<ellipse cx="2.90149" cy="1.99141" rx="2.90149" ry="1.99141" transform="matrix(0.73474 -0.678349 0.574531 0.818483 6.43896 11.3213)" fill="#FFFEE2"/>
<ellipse cx="2.90149" cy="1.99141" rx="2.90149" ry="1.99141" transform="matrix(0.73474 -0.678349 0.574531 0.818483 53.1221 57.4751)" fill="#F5CFFE"/>
<g filter="url(#filter0_d_2531_1143)">
<mask id="path-8-outside-1_2531_1143" maskUnits="userSpaceOnUse" x="1" y="28" width="63" height="15" fill="black">
<rect fill="white" x="1" y="28" width="63" height="15"/>
<path d="M11.3123 41H6.58734C5.33734 41 4.40734 40.75 3.79734 40.25C3.19734 39.75 2.89734 38.98 2.89734 37.94V33.26C2.89734 32.22 3.19734 31.45 3.79734 30.95C4.40734 30.45 5.33734 30.2 6.58734 30.2H10.3373C10.5273 30.2 10.6623 30.245 10.7423 30.335C10.8323 30.415 10.8773 30.55 10.8773 30.74V32.555C10.8773 32.745 10.8323 32.885 10.7423 32.975C10.6623 33.055 10.5273 33.095 10.3373 33.095H7.21734C6.90734 33.095 6.67734 33.16 6.52734 33.29C6.37734 33.41 6.30234 33.595 6.30234 33.845V37.43C6.30234 37.68 6.35734 37.865 6.46734 37.985C6.58734 38.105 6.76234 38.165 6.99234 38.165H8.44734V35.825C8.44734 35.635 8.48734 35.5 8.56734 35.42C8.65734 35.33 8.79734 35.285 8.98734 35.285H11.3123C11.5023 35.285 11.6373 35.33 11.7173 35.42C11.8073 35.5 11.8523 35.635 11.8523 35.825V40.46C11.8523 40.65 11.8073 40.79 11.7173 40.88C11.6373 40.96 11.5023 41 11.3123 41ZM16.1725 32.9V34.82H17.2975C17.5575 34.82 17.7325 34.755 17.8225 34.625C17.9125 34.485 17.9575 34.315 17.9575 34.115V33.605C17.9575 33.405 17.9125 33.24 17.8225 33.11C17.7325 32.97 17.5575 32.9 17.2975 32.9H16.1725ZM15.6325 41H13.3225C13.1325 41 12.9925 40.96 12.9025 40.88C12.8225 40.79 12.7825 40.65 12.7825 40.46V30.74C12.7825 30.55 12.8225 30.415 12.9025 30.335C12.9925 30.245 13.1325 30.2 13.3225 30.2H18.3175C19.4375 30.2 20.2075 30.435 20.6275 30.905C21.0575 31.365 21.2725 31.965 21.2725 32.705V33.395C21.2725 33.815 21.2075 34.175 21.0775 34.475C20.9575 34.765 20.7425 34.975 20.4325 35.105C20.9725 35.165 21.4075 35.385 21.7375 35.765C22.0775 36.145 22.2475 36.65 22.2475 37.28V40.46C22.2475 40.65 22.2025 40.79 22.1125 40.88C22.0325 40.96 21.8975 41 21.7075 41H19.3825C19.1925 41 19.0525 40.96 18.9625 40.88C18.8825 40.79 18.8425 40.65 18.8425 40.46V38.165C18.8425 37.945 18.7975 37.785 18.7075 37.685C18.6275 37.575 18.4825 37.52 18.2725 37.52H16.1725V40.46C16.1725 40.65 16.1275 40.79 16.0375 40.88C15.9575 40.96 15.8225 41 15.6325 41ZM32.1067 38.165C32.1067 38.625 32.0367 39.045 31.8967 39.425C31.7667 39.795 31.5267 40.115 31.1767 40.385C30.8367 40.645 30.3617 40.85 29.7517 41C29.1517 41.15 28.3867 41.225 27.4567 41.225C26.5267 41.225 25.7567 41.15 25.1467 41C24.5367 40.85 24.0567 40.645 23.7067 40.385C23.3667 40.115 23.1267 39.795 22.9867 39.425C22.8567 39.045 22.7917 38.625 22.7917 38.165V33.05C22.7917 32.59 22.8567 32.175 22.9867 31.805C23.1267 31.425 23.3667 31.1 23.7067 30.83C24.0567 30.56 24.5367 30.35 25.1467 30.2C25.7567 30.05 26.5267 29.975 27.4567 29.975C28.3867 29.975 29.1517 30.05 29.7517 30.2C30.3617 30.35 30.8367 30.56 31.1767 30.83C31.5267 31.1 31.7667 31.425 31.8967 31.805C32.0367 32.175 32.1067 32.59 32.1067 33.05V38.165ZM26.1967 37.625C26.1967 37.825 26.2717 37.995 26.4217 38.135C26.5717 38.265 26.9167 38.33 27.4567 38.33C27.9967 38.33 28.3417 38.265 28.4917 38.135C28.6417 37.995 28.7167 37.825 28.7167 37.625V33.59C28.7167 33.4 28.6417 33.24 28.4917 33.11C28.3417 32.97 27.9967 32.9 27.4567 32.9C26.9167 32.9 26.5717 32.97 26.4217 33.11C26.2717 33.24 26.1967 33.4 26.1967 33.59V37.625ZM40.8712 30.2H43.1062C43.2962 30.2 43.4312 30.245 43.5112 30.335C43.6012 30.415 43.6462 30.55 43.6462 30.74V36.56C43.6462 36.88 43.6312 37.18 43.6012 37.46C43.5812 37.73 43.5062 38.05 43.3762 38.42L42.6262 40.46C42.5762 40.61 42.5012 40.74 42.4012 40.85C42.3112 40.95 42.1862 41 42.0262 41H40.0312C39.8712 41 39.7262 40.965 39.5962 40.895C39.4662 40.825 39.3812 40.71 39.3412 40.55L38.6512 38.105C38.6212 38.005 38.5812 37.94 38.5312 37.91C38.4912 37.87 38.4412 37.85 38.3812 37.85H38.2462C38.1862 37.85 38.1312 37.87 38.0812 37.91C38.0412 37.94 38.0062 38.005 37.9762 38.105L37.2712 40.55C37.2312 40.7 37.1562 40.815 37.0462 40.895C36.9362 40.965 36.8012 41 36.6412 41H34.6612C34.5012 41 34.3612 40.95 34.2412 40.85C34.1312 40.75 34.0512 40.62 34.0012 40.46L33.2512 38.39C33.1212 38.02 33.0412 37.7 33.0112 37.43C32.9912 37.15 32.9812 36.85 32.9812 36.53V30.74C32.9812 30.55 33.0212 30.415 33.1012 30.335C33.1912 30.245 33.3312 30.2 33.5212 30.2H35.8312C36.0212 30.2 36.1562 30.245 36.2362 30.335C36.3262 30.415 36.3712 30.55 36.3712 30.74V36.26L37.2412 34.37C37.3212 34.2 37.4262 34.08 37.5562 34.01C37.6862 33.94 37.8462 33.905 38.0362 33.905H38.6662C38.8562 33.905 39.0162 33.94 39.1462 34.01C39.2762 34.08 39.3812 34.2 39.4612 34.37L40.3312 36.26V30.74C40.3312 30.55 40.3712 30.415 40.4512 30.335C40.5412 30.245 40.6812 30.2 40.8712 30.2ZM49.7821 41H47.3521C47.1621 41 47.0221 40.96 46.9321 40.88C46.8521 40.79 46.8121 40.65 46.8121 40.46V33.095H44.6071C44.4171 33.095 44.2771 33.055 44.1871 32.975C44.1071 32.885 44.0671 32.745 44.0671 32.555V30.74C44.0671 30.55 44.1071 30.415 44.1871 30.335C44.2771 30.245 44.4171 30.2 44.6071 30.2H52.5271C52.7171 30.2 52.8521 30.245 52.9321 30.335C53.0221 30.415 53.0671 30.55 53.0671 30.74V32.555C53.0671 32.745 53.0221 32.885 52.9321 32.975C52.8521 33.055 52.7171 33.095 52.5271 33.095H50.3221V40.46C50.3221 40.65 50.2771 40.79 50.1871 40.88C50.1071 40.96 49.9721 41 49.7821 41ZM56.4908 41H54.1658C53.9758 41 53.8358 40.96 53.7458 40.88C53.6658 40.79 53.6258 40.65 53.6258 40.46V30.74C53.6258 30.55 53.6658 30.415 53.7458 30.335C53.8358 30.245 53.9758 30.2 54.1658 30.2H56.4908C56.6808 30.2 56.8158 30.245 56.8958 30.335C56.9858 30.415 57.0308 30.55 57.0308 30.74V33.995H59.5358V30.74C59.5358 30.55 59.5758 30.415 59.6558 30.335C59.7458 30.245 59.8858 30.2 60.0758 30.2H62.4008C62.5908 30.2 62.7258 30.245 62.8058 30.335C62.8958 30.415 62.9408 30.55 62.9408 30.74V40.46C62.9408 40.65 62.8958 40.79 62.8058 40.88C62.7258 40.96 62.5908 41 62.4008 41H60.0758C59.8858 41 59.7458 40.96 59.6558 40.88C59.5758 40.79 59.5358 40.65 59.5358 40.46V37.13H57.0308V40.46C57.0308 40.65 56.9858 40.79 56.8958 40.88C56.8158 40.96 56.6808 41 56.4908 41Z"/>
</mask>
<path d="M11.3123 41H6.58734C5.33734 41 4.40734 40.75 3.79734 40.25C3.19734 39.75 2.89734 38.98 2.89734 37.94V33.26C2.89734 32.22 3.19734 31.45 3.79734 30.95C4.40734 30.45 5.33734 30.2 6.58734 30.2H10.3373C10.5273 30.2 10.6623 30.245 10.7423 30.335C10.8323 30.415 10.8773 30.55 10.8773 30.74V32.555C10.8773 32.745 10.8323 32.885 10.7423 32.975C10.6623 33.055 10.5273 33.095 10.3373 33.095H7.21734C6.90734 33.095 6.67734 33.16 6.52734 33.29C6.37734 33.41 6.30234 33.595 6.30234 33.845V37.43C6.30234 37.68 6.35734 37.865 6.46734 37.985C6.58734 38.105 6.76234 38.165 6.99234 38.165H8.44734V35.825C8.44734 35.635 8.48734 35.5 8.56734 35.42C8.65734 35.33 8.79734 35.285 8.98734 35.285H11.3123C11.5023 35.285 11.6373 35.33 11.7173 35.42C11.8073 35.5 11.8523 35.635 11.8523 35.825V40.46C11.8523 40.65 11.8073 40.79 11.7173 40.88C11.6373 40.96 11.5023 41 11.3123 41ZM16.1725 32.9V34.82H17.2975C17.5575 34.82 17.7325 34.755 17.8225 34.625C17.9125 34.485 17.9575 34.315 17.9575 34.115V33.605C17.9575 33.405 17.9125 33.24 17.8225 33.11C17.7325 32.97 17.5575 32.9 17.2975 32.9H16.1725ZM15.6325 41H13.3225C13.1325 41 12.9925 40.96 12.9025 40.88C12.8225 40.79 12.7825 40.65 12.7825 40.46V30.74C12.7825 30.55 12.8225 30.415 12.9025 30.335C12.9925 30.245 13.1325 30.2 13.3225 30.2H18.3175C19.4375 30.2 20.2075 30.435 20.6275 30.905C21.0575 31.365 21.2725 31.965 21.2725 32.705V33.395C21.2725 33.815 21.2075 34.175 21.0775 34.475C20.9575 34.765 20.7425 34.975 20.4325 35.105C20.9725 35.165 21.4075 35.385 21.7375 35.765C22.0775 36.145 22.2475 36.65 22.2475 37.28V40.46C22.2475 40.65 22.2025 40.79 22.1125 40.88C22.0325 40.96 21.8975 41 21.7075 41H19.3825C19.1925 41 19.0525 40.96 18.9625 40.88C18.8825 40.79 18.8425 40.65 18.8425 40.46V38.165C18.8425 37.945 18.7975 37.785 18.7075 37.685C18.6275 37.575 18.4825 37.52 18.2725 37.52H16.1725V40.46C16.1725 40.65 16.1275 40.79 16.0375 40.88C15.9575 40.96 15.8225 41 15.6325 41ZM32.1067 38.165C32.1067 38.625 32.0367 39.045 31.8967 39.425C31.7667 39.795 31.5267 40.115 31.1767 40.385C30.8367 40.645 30.3617 40.85 29.7517 41C29.1517 41.15 28.3867 41.225 27.4567 41.225C26.5267 41.225 25.7567 41.15 25.1467 41C24.5367 40.85 24.0567 40.645 23.7067 40.385C23.3667 40.115 23.1267 39.795 22.9867 39.425C22.8567 39.045 22.7917 38.625 22.7917 38.165V33.05C22.7917 32.59 22.8567 32.175 22.9867 31.805C23.1267 31.425 23.3667 31.1 23.7067 30.83C24.0567 30.56 24.5367 30.35 25.1467 30.2C25.7567 30.05 26.5267 29.975 27.4567 29.975C28.3867 29.975 29.1517 30.05 29.7517 30.2C30.3617 30.35 30.8367 30.56 31.1767 30.83C31.5267 31.1 31.7667 31.425 31.8967 31.805C32.0367 32.175 32.1067 32.59 32.1067 33.05V38.165ZM26.1967 37.625C26.1967 37.825 26.2717 37.995 26.4217 38.135C26.5717 38.265 26.9167 38.33 27.4567 38.33C27.9967 38.33 28.3417 38.265 28.4917 38.135C28.6417 37.995 28.7167 37.825 28.7167 37.625V33.59C28.7167 33.4 28.6417 33.24 28.4917 33.11C28.3417 32.97 27.9967 32.9 27.4567 32.9C26.9167 32.9 26.5717 32.97 26.4217 33.11C26.2717 33.24 26.1967 33.4 26.1967 33.59V37.625ZM40.8712 30.2H43.1062C43.2962 30.2 43.4312 30.245 43.5112 30.335C43.6012 30.415 43.6462 30.55 43.6462 30.74V36.56C43.6462 36.88 43.6312 37.18 43.6012 37.46C43.5812 37.73 43.5062 38.05 43.3762 38.42L42.6262 40.46C42.5762 40.61 42.5012 40.74 42.4012 40.85C42.3112 40.95 42.1862 41 42.0262 41H40.0312C39.8712 41 39.7262 40.965 39.5962 40.895C39.4662 40.825 39.3812 40.71 39.3412 40.55L38.6512 38.105C38.6212 38.005 38.5812 37.94 38.5312 37.91C38.4912 37.87 38.4412 37.85 38.3812 37.85H38.2462C38.1862 37.85 38.1312 37.87 38.0812 37.91C38.0412 37.94 38.0062 38.005 37.9762 38.105L37.2712 40.55C37.2312 40.7 37.1562 40.815 37.0462 40.895C36.9362 40.965 36.8012 41 36.6412 41H34.6612C34.5012 41 34.3612 40.95 34.2412 40.85C34.1312 40.75 34.0512 40.62 34.0012 40.46L33.2512 38.39C33.1212 38.02 33.0412 37.7 33.0112 37.43C32.9912 37.15 32.9812 36.85 32.9812 36.53V30.74C32.9812 30.55 33.0212 30.415 33.1012 30.335C33.1912 30.245 33.3312 30.2 33.5212 30.2H35.8312C36.0212 30.2 36.1562 30.245 36.2362 30.335C36.3262 30.415 36.3712 30.55 36.3712 30.74V36.26L37.2412 34.37C37.3212 34.2 37.4262 34.08 37.5562 34.01C37.6862 33.94 37.8462 33.905 38.0362 33.905H38.6662C38.8562 33.905 39.0162 33.94 39.1462 34.01C39.2762 34.08 39.3812 34.2 39.4612 34.37L40.3312 36.26V30.74C40.3312 30.55 40.3712 30.415 40.4512 30.335C40.5412 30.245 40.6812 30.2 40.8712 30.2ZM49.7821 41H47.3521C47.1621 41 47.0221 40.96 46.9321 40.88C46.8521 40.79 46.8121 40.65 46.8121 40.46V33.095H44.6071C44.4171 33.095 44.2771 33.055 44.1871 32.975C44.1071 32.885 44.0671 32.745 44.0671 32.555V30.74C44.0671 30.55 44.1071 30.415 44.1871 30.335C44.2771 30.245 44.4171 30.2 44.6071 30.2H52.5271C52.7171 30.2 52.8521 30.245 52.9321 30.335C53.0221 30.415 53.0671 30.55 53.0671 30.74V32.555C53.0671 32.745 53.0221 32.885 52.9321 32.975C52.8521 33.055 52.7171 33.095 52.5271 33.095H50.3221V40.46C50.3221 40.65 50.2771 40.79 50.1871 40.88C50.1071 40.96 49.9721 41 49.7821 41ZM56.4908 41H54.1658C53.9758 41 53.8358 40.96 53.7458 40.88C53.6658 40.79 53.6258 40.65 53.6258 40.46V30.74C53.6258 30.55 53.6658 30.415 53.7458 30.335C53.8358 30.245 53.9758 30.2 54.1658 30.2H56.4908C56.6808 30.2 56.8158 30.245 56.8958 30.335C56.9858 30.415 57.0308 30.55 57.0308 30.74V33.995H59.5358V30.74C59.5358 30.55 59.5758 30.415 59.6558 30.335C59.7458 30.245 59.8858 30.2 60.0758 30.2H62.4008C62.5908 30.2 62.7258 30.245 62.8058 30.335C62.8958 30.415 62.9408 30.55 62.9408 30.74V40.46C62.9408 40.65 62.8958 40.79 62.8058 40.88C62.7258 40.96 62.5908 41 62.4008 41H60.0758C59.8858 41 59.7458 40.96 59.6558 40.88C59.5758 40.79 59.5358 40.65 59.5358 40.46V37.13H57.0308V40.46C57.0308 40.65 56.9858 40.79 56.8958 40.88C56.8158 40.96 56.6808 41 56.4908 41Z" fill="white"/>
<path d="M3.79734 40.25L3.15714 41.0182L3.16342 41.0234L3.79734 40.25ZM3.79734 30.95L3.16339 30.1766L3.15716 30.1818L3.79734 30.95ZM10.7423 30.335L9.99494 30.9994L10.034 31.0433L10.078 31.0824L10.7423 30.335ZM10.7423 32.975L11.4495 33.6821L10.7423 32.975ZM6.52734 33.29L7.15204 34.0709L7.1674 34.0586L7.18227 34.0457L6.52734 33.29ZM6.46734 37.985L5.73019 38.6607L5.74487 38.6767L5.76024 38.6921L6.46734 37.985ZM8.44734 38.165V39.165H9.44734V38.165H8.44734ZM11.7173 35.42L10.9699 36.0844L11.009 36.1283L11.053 36.1674L11.7173 35.42ZM11.7173 40.88L12.4244 41.5871L12.4245 41.5871L11.7173 40.88ZM11.3123 40H6.58734V42H11.3123V40ZM6.58734 40C5.44145 40 4.78419 39.7659 4.43127 39.4766L3.16342 41.0234C4.03049 41.7341 5.23323 42 6.58734 42V40ZM4.43753 39.4818C4.13536 39.23 3.89734 38.788 3.89734 37.94H1.89734C1.89734 39.172 2.25933 40.27 3.15716 41.0182L4.43753 39.4818ZM3.89734 37.94V33.26H1.89734V37.94H3.89734ZM3.89734 33.26C3.89734 32.412 4.13536 31.97 4.43753 31.7182L3.15716 30.1818C2.25933 30.93 1.89734 32.028 1.89734 33.26H3.89734ZM4.43127 31.7234C4.78419 31.4341 5.44145 31.2 6.58734 31.2V29.2C5.23323 29.2 4.03049 29.4659 3.16342 30.1766L4.43127 31.7234ZM6.58734 31.2H10.3373V29.2H6.58734V31.2ZM10.3373 31.2C10.3586 31.2 10.327 31.2032 10.2649 31.1824C10.1966 31.1597 10.0908 31.1073 9.99494 30.9994L11.4898 29.6706C11.1336 29.27 10.6502 29.2 10.3373 29.2V31.2ZM10.078 31.0824C9.97008 30.9865 9.91767 30.8808 9.89491 30.8125C9.87419 30.7503 9.87734 30.7188 9.87734 30.74H11.8773C11.8773 30.4271 11.8074 29.9437 11.4067 29.5876L10.078 31.0824ZM9.87734 30.74V32.555H11.8773V30.74H9.87734ZM9.87734 32.555C9.87734 32.6092 9.86264 32.4405 10.0352 32.2679L11.4495 33.6821C11.8021 33.3295 11.8773 32.8808 11.8773 32.555H9.87734ZM10.0352 32.2679C10.1385 32.1646 10.2432 32.1221 10.297 32.1062C10.3475 32.0912 10.3674 32.095 10.3373 32.095V34.095C10.6228 34.095 11.0888 34.0428 11.4495 33.6821L10.0352 32.2679ZM10.3373 32.095H7.21734V34.095H10.3373V32.095ZM7.21734 32.095C6.79547 32.095 6.28231 32.1791 5.87241 32.5343L7.18227 34.0457C7.12601 34.0944 7.08219 34.1067 7.0843 34.1061C7.08559 34.1057 7.09649 34.1028 7.11935 34.1C7.14216 34.0973 7.17438 34.095 7.21734 34.095V32.095ZM5.90265 32.5091C5.4476 32.8732 5.30234 33.3902 5.30234 33.845H7.30234C7.30234 33.8175 7.30674 33.8416 7.28533 33.8945C7.26113 33.9542 7.2161 34.0196 7.15204 34.0709L5.90265 32.5091ZM5.30234 33.845V37.43H7.30234V33.845H5.30234ZM5.30234 37.43C5.30234 37.8007 5.3803 38.279 5.73019 38.6607L7.2045 37.3093C7.26929 37.38 7.29437 37.4452 7.30213 37.4713C7.30885 37.4939 7.30234 37.4853 7.30234 37.43H5.30234ZM5.76024 38.6921C6.12662 39.0585 6.59391 39.165 6.99234 39.165V37.165C6.96195 37.165 6.97418 37.1608 7.01292 37.1741C7.05634 37.1889 7.11726 37.2207 7.17445 37.2779L5.76024 38.6921ZM6.99234 39.165H8.44734V37.165H6.99234V39.165ZM9.44734 38.165V35.825H7.44734V38.165H9.44734ZM9.44734 35.825C9.44734 35.795 9.45111 35.8148 9.43614 35.8653C9.4202 35.9192 9.37772 36.0238 9.27445 36.1271L7.86024 34.7129C7.49958 35.0735 7.44734 35.5396 7.44734 35.825H9.44734ZM9.27445 36.1271C9.10185 36.2997 8.93316 36.285 8.98734 36.285V34.285C8.66153 34.285 8.21284 34.3603 7.86024 34.7129L9.27445 36.1271ZM8.98734 36.285H11.3123V34.285H8.98734V36.285ZM11.3123 36.285C11.3336 36.285 11.302 36.2882 11.2399 36.2674C11.1716 36.2447 11.0658 36.1923 10.9699 36.0844L12.4648 34.7556C12.1086 34.355 11.6252 34.285 11.3123 34.285V36.285ZM11.053 36.1674C10.9451 36.0715 10.8927 35.9658 10.8699 35.8975C10.8492 35.8353 10.8523 35.8038 10.8523 35.825H12.8523C12.8523 35.5121 12.7824 35.0287 12.3817 34.6726L11.053 36.1674ZM10.8523 35.825V40.46H12.8523V35.825H10.8523ZM10.8523 40.46C10.8523 40.5142 10.8376 40.3455 11.0102 40.1729L12.4245 41.5871C12.7771 41.2345 12.8523 40.7858 12.8523 40.46H10.8523ZM11.0102 40.1729C11.1135 40.0696 11.2182 40.0271 11.272 40.0112C11.3225 39.9962 11.3424 40 11.3123 40V42C11.5978 42 12.0638 41.9478 12.4244 41.5871L11.0102 40.1729ZM16.1725 32.9V31.9H15.1725V32.9H16.1725ZM16.1725 34.82H15.1725V35.82H16.1725V34.82ZM17.8225 34.625L18.6447 35.1942L18.6544 35.1801L18.6636 35.1658L17.8225 34.625ZM17.8225 33.11L16.9813 33.6508L16.9905 33.6651L17.0003 33.6792L17.8225 33.11ZM12.9025 40.88L12.1551 41.5444L12.1941 41.5883L12.2381 41.6274L12.9025 40.88ZM12.9025 30.335L12.1954 29.6279L12.1954 29.6279L12.9025 30.335ZM20.6275 30.905L19.8818 31.5713L19.8893 31.5797L19.8969 31.5879L20.6275 30.905ZM21.0775 34.475L20.1599 34.0774L20.1566 34.085L20.1534 34.0926L21.0775 34.475ZM20.4325 35.105L20.0457 34.1828L16.4915 35.6733L20.322 36.0989L20.4325 35.105ZM21.7375 35.765L20.9824 36.4207L20.9873 36.4263L20.9922 36.4318L21.7375 35.765ZM22.1125 40.88L22.8196 41.5871V41.5871L22.1125 40.88ZM18.9625 40.88L18.2151 41.5444L18.2541 41.5883L18.2981 41.6274L18.9625 40.88ZM18.7075 37.685L17.8987 38.2732L17.9293 38.3153L17.9642 38.354L18.7075 37.685ZM16.1725 37.52V36.52H15.1725V37.52H16.1725ZM16.0375 40.88L15.3304 40.1729H15.3304L16.0375 40.88ZM15.1725 32.9V34.82H17.1725V32.9H15.1725ZM16.1725 35.82H17.2975V33.82H16.1725V35.82ZM17.2975 35.82C17.6718 35.82 18.2725 35.7317 18.6447 35.1942L17.0003 34.0558C17.0917 33.9237 17.2066 33.8594 17.2755 33.8338C17.3338 33.8122 17.3518 33.82 17.2975 33.82V35.82ZM18.6636 35.1658C18.8766 34.8345 18.9575 34.4677 18.9575 34.115H16.9575C16.9575 34.1402 16.9546 34.1456 16.957 34.1366C16.9582 34.1321 16.9605 34.1246 16.9647 34.1151C16.9689 34.1055 16.9744 34.095 16.9813 34.0842L18.6636 35.1658ZM18.9575 34.115V33.605H16.9575V34.115H18.9575ZM18.9575 33.605C18.9575 33.2556 18.8778 32.8775 18.6447 32.5408L17.0003 33.6792C16.9757 33.6437 16.9638 33.6123 16.9589 33.5944C16.9545 33.5781 16.9575 33.5793 16.9575 33.605H18.9575ZM18.6636 32.5692C18.3026 32.0076 17.6973 31.9 17.2975 31.9V33.9C17.3452 33.9 17.3186 33.9075 17.2523 33.881C17.1733 33.8494 17.0633 33.7784 16.9813 33.6508L18.6636 32.5692ZM17.2975 31.9H16.1725V33.9H17.2975V31.9ZM15.6325 40H13.3225V42H15.6325V40ZM13.3225 40C13.2938 40 13.3079 39.9966 13.3497 40.0085C13.3943 40.0212 13.4786 40.0542 13.5668 40.1326L12.2381 41.6274C12.5916 41.9416 13.0222 42 13.3225 42V40ZM13.6499 40.2156C13.7283 40.3038 13.7612 40.3882 13.774 40.4328C13.7859 40.4745 13.7825 40.4887 13.7825 40.46H11.7825C11.7825 40.7602 11.8409 41.1909 12.1551 41.5444L13.6499 40.2156ZM13.7825 40.46V30.74H11.7825V40.46H13.7825ZM13.7825 30.74C13.7825 30.71 13.7862 30.7298 13.7713 30.7803C13.7553 30.8342 13.7128 30.9388 13.6096 31.0421L12.1954 29.6279C11.8347 29.9885 11.7825 30.4546 11.7825 30.74H13.7825ZM13.6096 31.0421C13.437 31.2147 13.2683 31.2 13.3225 31.2V29.2C12.9966 29.2 12.548 29.2753 12.1954 29.6279L13.6096 31.0421ZM13.3225 31.2H18.3175V29.2H13.3225V31.2ZM18.3175 31.2C19.3595 31.2 19.7556 31.4301 19.8818 31.5713L21.3731 30.2387C20.6593 29.4399 19.5154 29.2 18.3175 29.2V31.2ZM19.8969 31.5879C20.1239 31.8307 20.2725 32.1712 20.2725 32.705H22.2725C22.2725 31.7588 21.991 30.8993 21.358 30.2221L19.8969 31.5879ZM20.2725 32.705V33.395H22.2725V32.705H20.2725ZM20.2725 33.395C20.2725 33.7156 20.2224 33.9331 20.1599 34.0774L21.995 34.8726C22.1925 34.4169 22.2725 33.9144 22.2725 33.395H20.2725ZM20.1534 34.0926C20.142 34.1204 20.1316 34.1468 20.0457 34.1828L20.8192 36.0272C21.3534 35.8032 21.7729 35.4096 22.0015 34.8574L20.1534 34.0926ZM20.322 36.0989C20.634 36.1335 20.8309 36.2462 20.9824 36.4207L22.4925 35.1093C21.984 34.5238 21.3109 34.1965 20.5429 34.1111L20.322 36.0989ZM20.9922 36.4318C21.1319 36.5879 21.2475 36.8356 21.2475 37.28H23.2475C23.2475 36.4644 23.023 35.7021 22.4827 35.0982L20.9922 36.4318ZM21.2475 37.28V40.46H23.2475V37.28H21.2475ZM21.2475 40.46C21.2475 40.5142 21.2328 40.3455 21.4054 40.1729L22.8196 41.5871C23.1722 41.2345 23.2475 40.7858 23.2475 40.46H21.2475ZM21.4054 40.1729C21.5086 40.0696 21.6133 40.0271 21.6671 40.0112C21.7176 39.9962 21.7375 40 21.7075 40V42C21.9929 42 22.4589 41.9478 22.8196 41.5871L21.4054 40.1729ZM21.7075 40H19.3825V42H21.7075V40ZM19.3825 40C19.3538 40 19.3679 39.9966 19.4097 40.0085C19.4543 40.0212 19.5386 40.0542 19.6268 40.1326L18.2981 41.6274C18.6516 41.9416 19.0822 42 19.3825 42V40ZM19.7099 40.2156C19.7883 40.3038 19.8212 40.3882 19.834 40.4328C19.8459 40.4745 19.8425 40.4887 19.8425 40.46H17.8425C17.8425 40.7602 17.9009 41.1909 18.2151 41.5444L19.7099 40.2156ZM19.8425 40.46V38.165H17.8425V40.46H19.8425ZM19.8425 38.165C19.8425 37.8453 19.7834 37.3857 19.4508 37.016L17.9642 38.354C17.8851 38.2661 17.8555 38.1845 17.8461 38.1507C17.8373 38.1195 17.8425 38.1189 17.8425 38.165H19.8425ZM19.5162 37.0968C19.1629 36.6111 18.6232 36.52 18.2725 36.52V38.52C18.2965 38.52 18.2572 38.524 18.1841 38.4962C18.1009 38.4647 17.9886 38.3967 17.8987 38.2732L19.5162 37.0968ZM18.2725 36.52H16.1725V38.52H18.2725V36.52ZM15.1725 37.52V40.46H17.1725V37.52H15.1725ZM15.1725 40.46C15.1725 40.5142 15.1578 40.3455 15.3304 40.1729L16.7446 41.5871C17.0972 41.2345 17.1725 40.7858 17.1725 40.46H15.1725ZM15.3304 40.1729C15.4336 40.0696 15.5383 40.0271 15.5921 40.0112C15.6426 39.9962 15.6625 40 15.6325 40V42C15.9179 42 16.3839 41.9478 16.7446 41.5871L15.3304 40.1729ZM31.8967 39.425L30.9583 39.0793L30.9557 39.0864L30.9532 39.0935L31.8967 39.425ZM31.1767 40.385L31.7841 41.1794L31.7875 41.1768L31.1767 40.385ZM29.7517 41L29.5129 40.0289L29.5091 40.0299L29.7517 41ZM25.1467 41L24.9079 41.9711L25.1467 41ZM23.7067 40.385L23.0848 41.1681L23.0974 41.1781L23.1104 41.1877L23.7067 40.385ZM22.9867 39.425L22.0405 39.7487L22.0457 39.7639L22.0514 39.7789L22.9867 39.425ZM22.9867 31.805L22.0483 31.4593L22.0457 31.4664L22.0432 31.4735L22.9867 31.805ZM23.7067 30.83L23.0958 30.0381L23.0848 30.0469L23.7067 30.83ZM25.1467 30.2L24.9079 29.2289L25.1467 30.2ZM29.7517 30.2L29.5091 31.1701L29.5129 31.1711L29.7517 30.2ZM31.1767 30.83L30.5547 31.6132L30.5659 31.6218L31.1767 30.83ZM31.8967 31.805L30.9505 32.1287L30.9557 32.1439L30.9614 32.1589L31.8967 31.805ZM26.4217 38.135L25.7394 38.8661L25.7528 38.8786L25.7668 38.8907L26.4217 38.135ZM28.4917 38.135L29.1466 38.8907L29.1605 38.8786L29.174 38.8661L28.4917 38.135ZM28.4917 33.11L27.8094 33.8411L27.8228 33.8536L27.8368 33.8657L28.4917 33.11ZM26.4217 33.11L27.0766 33.8657L27.0905 33.8536L27.104 33.8411L26.4217 33.11ZM31.1067 38.165C31.1067 38.5229 31.0524 38.824 30.9583 39.0793L32.835 39.7707C33.021 39.266 33.1067 38.7271 33.1067 38.165H31.1067ZM30.9532 39.0935C30.8952 39.2586 30.7829 39.4258 30.5659 39.5932L31.7875 41.1768C32.2705 40.8042 32.6382 40.3314 32.8401 39.7565L30.9532 39.0935ZM30.5692 39.5906C30.3774 39.7374 30.0464 39.8977 29.5129 40.0289L29.9905 41.9711C30.677 41.8023 31.296 41.5526 31.7841 41.1794L30.5692 39.5906ZM29.5091 40.0299C29.0175 40.1528 28.3415 40.225 27.4567 40.225V42.225C28.4318 42.225 29.2859 42.1472 29.9942 41.9701L29.5091 40.0299ZM27.4567 40.225C26.5726 40.225 25.8897 40.1529 25.3855 40.0289L24.9079 41.9711C25.6237 42.1471 26.4808 42.225 27.4567 42.225V40.225ZM25.3855 40.0289C24.8523 39.8978 24.5101 39.7361 24.303 39.5823L23.1104 41.1877C23.6033 41.5539 24.2211 41.8022 24.9079 41.9711L25.3855 40.0289ZM24.3286 39.6019C24.1156 39.4328 23.992 39.2562 23.922 39.0711L22.0514 39.7789C22.2614 40.3338 22.6177 40.7972 23.0848 41.1681L24.3286 39.6019ZM23.9328 39.1013C23.8433 38.8394 23.7917 38.5306 23.7917 38.165H21.7917C21.7917 38.7194 21.8701 39.2506 22.0405 39.7487L23.9328 39.1013ZM23.7917 38.165V33.05H21.7917V38.165H23.7917ZM23.7917 33.05C23.7917 32.6838 23.8434 32.3833 23.9301 32.1365L22.0432 31.4735C21.87 31.9667 21.7917 32.4962 21.7917 33.05H23.7917ZM23.925 32.1507C23.997 31.9552 24.1214 31.7776 24.3286 31.6131L23.0848 30.0469C22.612 30.4224 22.2563 30.8948 22.0483 31.4593L23.925 32.1507ZM24.3175 31.6218C24.5212 31.4647 24.8578 31.3008 25.3855 31.1711L24.9079 29.2289C24.2155 29.3992 23.5922 29.6553 23.0959 30.0382L24.3175 31.6218ZM25.3855 31.1711C25.8897 31.0471 26.5726 30.975 27.4567 30.975V28.975C26.4808 28.975 25.6237 29.0529 24.9079 29.2289L25.3855 31.1711ZM27.4567 30.975C28.3415 30.975 29.0175 31.0472 29.5091 31.1701L29.9942 29.2299C29.2859 29.0528 28.4318 28.975 27.4567 28.975V30.975ZM29.5129 31.1711C30.0408 31.3009 30.3662 31.4633 30.5548 31.6131L31.7986 30.0469C31.3072 29.6567 30.6826 29.3991 29.9905 29.2289L29.5129 31.1711ZM30.5659 31.6218C30.7769 31.7845 30.8903 31.9527 30.9505 32.1287L32.8428 31.4813C32.643 30.8973 32.2765 30.4155 31.7875 30.0382L30.5659 31.6218ZM30.9614 32.1589C31.0523 32.399 31.1067 32.6915 31.1067 33.05H33.1067C33.1067 32.4884 33.0211 31.951 32.832 31.4511L30.9614 32.1589ZM31.1067 33.05V38.165H33.1067V33.05H31.1067ZM25.1967 37.625C25.1967 38.1102 25.3927 38.5425 25.7394 38.8661L27.104 37.4039C27.1175 37.4166 27.1453 37.4478 27.1678 37.4989C27.1906 37.5505 27.1967 37.5968 27.1967 37.625H25.1967ZM25.7668 38.8907C26.0428 39.1299 26.377 39.2205 26.6078 39.264C26.8646 39.3123 27.1539 39.33 27.4567 39.33V37.33C27.2195 37.33 27.0662 37.3152 26.9781 37.2985C26.9354 37.2905 26.9253 37.2852 26.9373 37.2899C26.9472 37.2938 27.005 37.3172 27.0766 37.3793L25.7668 38.8907ZM27.4567 39.33C27.7595 39.33 28.0487 39.3123 28.3056 39.264C28.5364 39.2205 28.8706 39.1299 29.1466 38.8907L27.8368 37.3793C27.9084 37.3172 27.9662 37.2938 27.9761 37.2899C27.9881 37.2852 27.9779 37.2905 27.9353 37.2985C27.8471 37.3152 27.6939 37.33 27.4567 37.33V39.33ZM29.174 38.8661C29.5207 38.5425 29.7167 38.1102 29.7167 37.625H27.7167C27.7167 37.5968 27.7227 37.5505 27.7455 37.4989C27.768 37.4478 27.7958 37.4166 27.8094 37.4039L29.174 38.8661ZM29.7167 37.625V33.59H27.7167V37.625H29.7167ZM29.7167 33.59C29.7167 33.0955 29.5046 32.6646 29.1466 32.3543L27.8368 33.8657C27.819 33.8503 27.7838 33.8134 27.755 33.7519C27.7256 33.6893 27.7167 33.6305 27.7167 33.59H29.7167ZM29.174 32.3789C28.8986 32.1219 28.5587 32.0211 28.3193 31.9725C28.0565 31.9191 27.7621 31.9 27.4567 31.9V33.9C27.6912 33.9 27.8394 33.9159 27.9216 33.9325C27.961 33.9405 27.9675 33.9452 27.9521 33.9387C27.9379 33.9327 27.8792 33.9062 27.8094 33.8411L29.174 32.3789ZM27.4567 31.9C27.1512 31.9 26.8569 31.9191 26.5941 31.9725C26.3546 32.0211 26.0147 32.1219 25.7394 32.3789L27.104 33.8411C27.0342 33.9062 26.9755 33.9327 26.9613 33.9387C26.9459 33.9452 26.9523 33.9405 26.9918 33.9325C27.074 33.9159 27.2221 33.9 27.4567 33.9V31.9ZM25.7668 32.3543C25.4088 32.6646 25.1967 33.0955 25.1967 33.59H27.1967C27.1967 33.6305 27.1878 33.6893 27.1584 33.7519C27.1296 33.8134 27.0943 33.8503 27.0766 33.8657L25.7668 32.3543ZM25.1967 33.59V37.625H27.1967V33.59H25.1967ZM43.5112 30.335L42.7638 30.9994L42.8029 31.0433L42.8469 31.0824L43.5112 30.335ZM43.6012 37.46L42.6069 37.3535L42.6052 37.3698L42.604 37.3861L43.6012 37.46ZM43.3763 38.42L44.3148 38.7651L44.3173 38.7583L44.3197 38.7515L43.3763 38.42ZM42.6263 40.46L41.6877 40.1149L41.6824 40.1293L41.6776 40.1438L42.6263 40.46ZM42.4012 40.85L41.6613 40.1773L41.658 40.181L42.4012 40.85ZM39.5962 40.895L40.0704 40.0145V40.0145L39.5962 40.895ZM39.3413 40.55L40.3114 40.3075L40.3077 40.2929L40.3037 40.2784L39.3413 40.55ZM38.6512 38.105L39.6137 37.8334L39.6114 37.8255L39.6091 37.8177L38.6512 38.105ZM38.5312 37.91L37.8241 38.6171L37.9112 38.7042L38.0168 38.7675L38.5312 37.91ZM38.0812 37.91L38.6813 38.71L38.6937 38.7006L38.7059 38.6909L38.0812 37.91ZM37.9762 38.105L37.0184 37.8176L37.0154 37.8279L37.9762 38.105ZM37.2712 40.55L36.3104 40.2729L36.3076 40.2826L36.305 40.2923L37.2712 40.55ZM37.0462 40.895L37.5831 41.7387L37.6093 41.722L37.6344 41.7037L37.0462 40.895ZM34.2412 40.85L33.5686 41.5899L33.5845 41.6044L33.6011 41.6182L34.2412 40.85ZM34.0013 40.46L34.9557 40.1617L34.9491 40.1404L34.9414 40.1194L34.0013 40.46ZM33.2512 38.39L32.3077 38.7215L32.3111 38.7306L33.2512 38.39ZM33.0112 37.43L32.0138 37.5012L32.0152 37.5209L32.0174 37.5404L33.0112 37.43ZM33.1012 30.335L32.3941 29.6279V29.6279L33.1012 30.335ZM36.2362 30.335L35.4888 30.9994L35.5279 31.0433L35.5719 31.0824L36.2362 30.335ZM36.3713 36.26H35.3713L37.2796 36.6781L36.3713 36.26ZM37.2412 34.37L36.3364 33.9442L36.3329 33.9519L37.2412 34.37ZM37.5562 34.01L37.0821 33.1295V33.1295L37.5562 34.01ZM39.1462 34.01L38.6721 34.8905V34.8905L39.1462 34.01ZM39.4613 34.37L40.3697 33.9518L40.3661 33.9442L39.4613 34.37ZM40.3312 36.26L39.4229 36.6781L41.3312 36.26H40.3312ZM40.8713 31.2H43.1063V29.2H40.8713V31.2ZM43.1063 31.2C43.1275 31.2 43.0959 31.2032 43.0338 31.1824C42.9655 31.1597 42.8598 31.1073 42.7638 30.9994L44.2587 29.6706C43.9025 29.27 43.4191 29.2 43.1063 29.2V31.2ZM42.8469 31.0824C42.739 30.9865 42.6866 30.8808 42.6638 30.8125C42.6431 30.7503 42.6462 30.7188 42.6462 30.74H44.6462C44.6462 30.4271 44.5763 29.9437 44.1756 29.5876L42.8469 31.0824ZM42.6462 30.74V36.56H44.6462V30.74H42.6462ZM42.6462 36.56C42.6462 36.8491 42.6327 37.1132 42.6069 37.3535L44.5956 37.5665C44.6298 37.2468 44.6462 36.9109 44.6462 36.56H42.6462ZM42.604 37.3861C42.5927 37.5386 42.5454 37.768 42.4328 38.0885L44.3197 38.7515C44.4671 38.332 44.5698 37.9214 44.5985 37.5339L42.604 37.3861ZM42.4377 38.0749L41.6877 40.1149L43.5648 40.8051L44.3148 38.7651L42.4377 38.0749ZM41.6776 40.1438C41.6687 40.1703 41.6618 40.1768 41.6613 40.1773L43.1412 41.5227C43.3407 41.3032 43.4838 41.0497 43.5749 40.7762L41.6776 40.1438ZM41.658 40.181C41.7155 40.1171 41.789 40.0659 41.8686 40.034C41.9442 40.0038 42.0025 40 42.0262 40V42C42.4112 42 42.829 41.8696 43.1445 41.519L41.658 40.181ZM42.0262 40H40.0312V42H42.0262V40ZM40.0312 40C40.0246 40 40.0275 39.9993 40.0371 40.0017C40.0472 40.0041 40.059 40.0084 40.0704 40.0145L39.1222 41.7755C39.4099 41.9304 39.72 42 40.0312 42V40ZM40.0704 40.0145C40.1308 40.0471 40.1912 40.0969 40.2392 40.1619C40.2855 40.2245 40.3045 40.2797 40.3114 40.3075L38.3711 40.7925C38.4705 41.19 38.714 41.5557 39.1222 41.7755L40.0704 40.0145ZM40.3037 40.2784L39.6137 37.8334L37.6888 38.3766L38.3788 40.8216L40.3037 40.2784ZM39.6091 37.8177C39.5586 37.6494 39.4242 37.2796 39.0457 37.0525L38.0168 38.7675C37.8684 38.6785 37.7861 38.5687 37.7471 38.5053C37.7084 38.4424 37.6949 38.3973 37.6934 38.3923L39.6091 37.8177ZM39.2384 37.2029C38.9986 36.9631 38.6886 36.85 38.3812 36.85V38.85C38.2985 38.85 38.1982 38.8358 38.0924 38.7935C37.9853 38.7507 37.895 38.6879 37.8241 38.6171L39.2384 37.2029ZM38.3812 36.85H38.2463V38.85H38.3812V36.85ZM38.2463 36.85C37.9433 36.85 37.6711 36.9575 37.4566 37.1291L38.7059 38.6909C38.5914 38.7825 38.4292 38.85 38.2463 38.85V36.85ZM37.4812 37.11C37.1636 37.3482 37.0552 37.695 37.0184 37.8177L38.9341 38.3923C38.937 38.3828 38.9301 38.4096 38.9055 38.4553C38.8842 38.4948 38.819 38.6067 38.6813 38.71L37.4812 37.11ZM37.0154 37.8279L36.3104 40.2729L38.2321 40.8271L38.9371 38.3821L37.0154 37.8279ZM36.305 40.2923C36.3088 40.2781 36.32 40.2445 36.3474 40.2025C36.3757 40.159 36.4137 40.1185 36.4581 40.0863L37.6344 41.7037C37.9558 41.47 38.1472 41.1462 38.2375 40.8077L36.305 40.2923ZM36.5094 40.0513C36.5485 40.0264 36.5849 40.0127 36.6115 40.0058C36.637 39.9992 36.6487 40 36.6413 40V42C36.9481 42 37.2797 41.9318 37.5831 41.7387L36.5094 40.0513ZM36.6413 40H34.6613V42H36.6413V40ZM34.6613 40C34.6871 40 34.7267 40.0044 34.7726 40.0208C34.8188 40.0373 34.8558 40.0604 34.8814 40.0818L33.6011 41.6182C33.9055 41.8719 34.2735 42 34.6613 42V40ZM34.9139 40.1101C34.9303 40.1249 34.9425 40.1406 34.9504 40.1534C34.9579 40.1657 34.9584 40.1702 34.9557 40.1617L33.0468 40.7583C33.1429 41.0658 33.3109 41.3557 33.5686 41.5899L34.9139 40.1101ZM34.9414 40.1194L34.1914 38.0494L32.3111 38.7306L33.0611 40.8006L34.9414 40.1194ZM34.1947 38.0585C34.0798 37.7314 34.024 37.4891 34.0051 37.3196L32.0174 37.5404C32.0585 37.9109 32.1627 38.3086 32.3078 38.7215L34.1947 38.0585ZM34.0087 37.3588C33.9906 37.1055 33.9812 36.8294 33.9812 36.53H31.9812C31.9812 36.8706 31.9919 37.1945 32.0138 37.5012L34.0087 37.3588ZM33.9812 36.53V30.74H31.9812V36.53H33.9812ZM33.9812 30.74C33.9812 30.71 33.985 30.7298 33.97 30.7803C33.9541 30.8342 33.9116 30.9388 33.8084 31.0421L32.3941 29.6279C32.0335 29.9885 31.9812 30.4546 31.9812 30.74H33.9812ZM33.8084 31.0421C33.6358 31.2147 33.4671 31.2 33.5212 31.2V29.2C33.1954 29.2 32.7467 29.2753 32.3941 29.6279L33.8084 31.0421ZM33.5212 31.2H35.8312V29.2H33.5212V31.2ZM35.8312 31.2C35.8525 31.2 35.8209 31.2032 35.7588 31.1824C35.6905 31.1597 35.5848 31.1073 35.4888 30.9994L36.9837 29.6706C36.6275 29.27 36.1441 29.2 35.8312 29.2V31.2ZM35.5719 31.0824C35.464 30.9865 35.4116 30.8808 35.3888 30.8125C35.3681 30.7503 35.3713 30.7188 35.3713 30.74H37.3713C37.3713 30.4271 37.3013 29.9437 36.9006 29.5876L35.5719 31.0824ZM35.3713 30.74V36.26H37.3713V30.74H35.3713ZM37.2796 36.6781L38.1496 34.7881L36.3329 33.9519L35.4629 35.8419L37.2796 36.6781ZM38.1461 34.7958C38.1533 34.7805 38.1512 34.7897 38.1326 34.811C38.1126 34.8338 38.0788 34.8644 38.0303 34.8905L37.0821 33.1295C36.7177 33.3258 36.4826 33.6336 36.3364 33.9442L38.1461 34.7958ZM38.0303 34.8905C38.0051 34.9041 37.9885 34.9079 37.9874 34.9081C37.9871 34.9082 38.002 34.905 38.0363 34.905V32.905C37.7269 32.905 37.3937 32.9618 37.0821 33.1295L38.0303 34.8905ZM38.0363 34.905H38.6662V32.905H38.0363V34.905ZM38.6662 34.905C38.7005 34.905 38.7154 34.9082 38.7151 34.9081C38.714 34.9079 38.6974 34.9041 38.6721 34.8905L39.6203 33.1295C39.3088 32.9618 38.9756 32.905 38.6662 32.905V34.905ZM38.6721 34.8905C38.6237 34.8644 38.5899 34.8338 38.5699 34.811C38.5513 34.7897 38.5492 34.7805 38.5564 34.7958L40.3661 33.9442C40.2199 33.6336 39.9848 33.3258 39.6203 33.1295L38.6721 34.8905ZM38.5529 34.7881L39.4229 36.6781L41.2396 35.8419L40.3696 33.9519L38.5529 34.7881ZM41.3312 36.26V30.74H39.3312V36.26H41.3312ZM41.3312 30.74C41.3312 30.71 41.335 30.7298 41.32 30.7803C41.3041 30.8342 41.2616 30.9388 41.1584 31.0421L39.7441 29.6279C39.3835 29.9885 39.3312 30.4546 39.3312 30.74H41.3312ZM41.1584 31.0421C40.9858 31.2147 40.8171 31.2 40.8713 31.2V29.2C40.5454 29.2 40.0967 29.2753 39.7441 29.6279L41.1584 31.0421ZM46.9321 40.88L46.1847 41.5444L46.2237 41.5883L46.2677 41.6274L46.9321 40.88ZM46.8121 33.095H47.8121V32.095H46.8121V33.095ZM44.1871 32.975L43.4397 33.6394L43.4787 33.6833L43.5227 33.7224L44.1871 32.975ZM44.1871 30.335L43.48 29.6279V29.6279L44.1871 30.335ZM52.9321 30.335L52.1847 30.9994L52.2237 31.0433L52.2677 31.0824L52.9321 30.335ZM52.9321 32.975L53.6392 33.6821L52.9321 32.975ZM50.3221 33.095V32.095H49.3221V33.095H50.3221ZM50.1871 40.88L49.48 40.1729L50.1871 40.88ZM49.7821 40H47.3521V42H49.7821V40ZM47.3521 40C47.3234 40 47.3376 39.9966 47.3793 40.0085C47.4239 40.0212 47.5083 40.0542 47.5964 40.1326L46.2677 41.6274C46.6212 41.9416 47.0518 42 47.3521 42V40ZM47.6795 40.2156C47.7579 40.3038 47.7909 40.3882 47.8036 40.4328C47.8155 40.4745 47.8121 40.4887 47.8121 40.46H45.8121C45.8121 40.7602 45.8705 41.1909 46.1847 41.5444L47.6795 40.2156ZM47.8121 40.46V33.095H45.8121V40.46H47.8121ZM46.8121 32.095H44.6071V34.095H46.8121V32.095ZM44.6071 32.095C44.5784 32.095 44.5926 32.0916 44.6343 32.1035C44.6789 32.1162 44.7633 32.1492 44.8514 32.2276L43.5227 33.7224C43.8762 34.0366 44.3068 34.095 44.6071 34.095V32.095ZM44.9345 32.3106C45.0129 32.3988 45.0459 32.4832 45.0586 32.5278C45.0705 32.5695 45.0671 32.5837 45.0671 32.555H43.0671C43.0671 32.8552 43.1255 33.2859 43.4397 33.6394L44.9345 32.3106ZM45.0671 32.555V30.74H43.0671V32.555H45.0671ZM45.0671 30.74C45.0671 30.71 45.0708 30.7298 45.0559 30.7803C45.0399 30.8342 44.9974 30.9388 44.8942 31.0421L43.48 29.6279C43.1193 29.9885 43.0671 30.4546 43.0671 30.74H45.0671ZM44.8942 31.0421C44.7216 31.2147 44.5529 31.2 44.6071 31.2V29.2C44.2813 29.2 43.8326 29.2753 43.48 29.6279L44.8942 31.0421ZM44.6071 31.2H52.5271V29.2H44.6071V31.2ZM52.5271 31.2C52.5483 31.2 52.5168 31.2032 52.4546 31.1824C52.3863 31.1597 52.2806 31.1073 52.1847 30.9994L53.6795 29.6706C53.3233 29.27 52.84 29.2 52.5271 29.2V31.2ZM52.2677 31.0824C52.1598 30.9865 52.1074 30.8808 52.0846 30.8125C52.0639 30.7503 52.0671 30.7188 52.0671 30.74H54.0671C54.0671 30.4271 53.9971 29.9437 53.5964 29.5876L52.2677 31.0824ZM52.0671 30.74V32.555H54.0671V30.74H52.0671ZM52.0671 32.555C52.0671 32.6092 52.0524 32.4405 52.225 32.2679L53.6392 33.6821C53.9918 33.3295 54.0671 32.8808 54.0671 32.555H52.0671ZM52.225 32.2679C52.3282 32.1646 52.4329 32.1221 52.4867 32.1062C52.5372 32.0912 52.5571 32.095 52.5271 32.095V34.095C52.8125 34.095 53.2785 34.0428 53.6392 33.6821L52.225 32.2679ZM52.5271 32.095H50.3221V34.095H52.5271V32.095ZM49.3221 33.095V40.46H51.3221V33.095H49.3221ZM49.3221 40.46C49.3221 40.5142 49.3074 40.3455 49.48 40.1729L50.8942 41.5871C51.2468 41.2345 51.3221 40.7858 51.3221 40.46H49.3221ZM49.48 40.1729C49.5832 40.0696 49.6879 40.0271 49.7417 40.0112C49.7922 39.9962 49.8121 40 49.7821 40V42C50.0675 42 50.5335 41.9478 50.8942 41.5871L49.48 40.1729ZM53.7458 40.88L52.9984 41.5444L53.0375 41.5883L53.0815 41.6274L53.7458 40.88ZM53.7458 30.335L53.0387 29.6279V29.6279L53.7458 30.335ZM56.8958 30.335L56.1484 30.9994L56.1875 31.0433L56.2315 31.0824L56.8958 30.335ZM57.0308 33.995H56.0308V34.995H57.0308V33.995ZM59.5358 33.995V34.995H60.5358V33.995H59.5358ZM59.6558 30.335L58.9487 29.6279L58.9487 29.6279L59.6558 30.335ZM62.8058 30.335L62.0584 30.9994L62.0975 31.0433L62.1415 31.0824L62.8058 30.335ZM62.8058 40.88L63.5129 41.5871V41.5871L62.8058 40.88ZM59.6558 40.88L58.9084 41.5444L58.9475 41.5883L58.9915 41.6274L59.6558 40.88ZM59.5358 37.13H60.5358V36.13H59.5358V37.13ZM57.0308 37.13V36.13H56.0308V37.13H57.0308ZM56.8958 40.88L56.1887 40.1729L56.8958 40.88ZM56.4908 40H54.1658V42H56.4908V40ZM54.1658 40C54.1371 40 54.1513 39.9966 54.193 40.0085C54.2376 40.0212 54.322 40.0542 54.4102 40.1326L53.0815 41.6274C53.4349 41.9416 53.8656 42 54.1658 42V40ZM54.4932 40.2156C54.5716 40.3038 54.6046 40.3882 54.6173 40.4328C54.6293 40.4745 54.6258 40.4887 54.6258 40.46H52.6258C52.6258 40.7602 52.6842 41.1909 52.9984 41.5444L54.4932 40.2156ZM54.6258 40.46V30.74H52.6258V40.46H54.6258ZM54.6258 30.74C54.6258 30.71 54.6296 30.7298 54.6146 30.7803C54.5987 30.8342 54.5562 30.9388 54.4529 31.0421L53.0387 29.6279C52.6781 29.9885 52.6258 30.4546 52.6258 30.74H54.6258ZM54.4529 31.0421C54.2803 31.2147 54.1116 31.2 54.1658 31.2V29.2C53.84 29.2 53.3913 29.2753 53.0387 29.6279L54.4529 31.0421ZM54.1658 31.2H56.4908V29.2H54.1658V31.2ZM56.4908 31.2C56.5121 31.2 56.4805 31.2032 56.4183 31.1824C56.3501 31.1597 56.2443 31.1073 56.1484 30.9994L57.6432 29.6706C57.2871 29.27 56.8037 29.2 56.4908 29.2V31.2ZM56.2315 31.0824C56.1236 30.9865 56.0711 30.8808 56.0484 30.8125C56.0277 30.7503 56.0308 30.7188 56.0308 30.74H58.0308C58.0308 30.4271 57.9609 29.9437 57.5602 29.5876L56.2315 31.0824ZM56.0308 30.74V33.995H58.0308V30.74H56.0308ZM57.0308 34.995H59.5358V32.995H57.0308V34.995ZM60.5358 33.995V30.74H58.5358V33.995H60.5358ZM60.5358 30.74C60.5358 30.71 60.5396 30.7298 60.5246 30.7803C60.5087 30.8342 60.4662 30.9388 60.3629 31.0421L58.9487 29.6279C58.5881 29.9885 58.5358 30.4546 58.5358 30.74H60.5358ZM60.3629 31.0421C60.1903 31.2147 60.0216 31.2 60.0758 31.2V29.2C59.75 29.2 59.3013 29.2753 58.9487 29.6279L60.3629 31.0421ZM60.0758 31.2H62.4008V29.2H60.0758V31.2ZM62.4008 31.2C62.4221 31.2 62.3905 31.2032 62.3283 31.1824C62.2601 31.1597 62.1543 31.1073 62.0584 30.9994L63.5532 29.6706C63.1971 29.27 62.7137 29.2 62.4008 29.2V31.2ZM62.1415 31.0824C62.0336 30.9865 61.9811 30.8808 61.9584 30.8125C61.9377 30.7503 61.9408 30.7188 61.9408 30.74H63.9408C63.9408 30.4271 63.8709 29.9437 63.4702 29.5876L62.1415 31.0824ZM61.9408 30.74V40.46H63.9408V30.74H61.9408ZM61.9408 40.46C61.9408 40.5142 61.9261 40.3455 62.0987 40.1729L63.5129 41.5871C63.8655 41.2345 63.9408 40.7858 63.9408 40.46H61.9408ZM62.0987 40.1729C62.202 40.0696 62.3067 40.0271 62.3605 40.0112C62.411 39.9962 62.4309 40 62.4008 40V42C62.6862 42 63.1523 41.9478 63.5129 41.5871L62.0987 40.1729ZM62.4008 40H60.0758V42H62.4008V40ZM60.0758 40C60.0471 40 60.0613 39.9966 60.103 40.0085C60.1476 40.0212 60.232 40.0542 60.3202 40.1326L58.9915 41.6274C59.3449 41.9416 59.7756 42 60.0758 42V40ZM60.4032 40.2156C60.4816 40.3038 60.5146 40.3882 60.5273 40.4328C60.5393 40.4745 60.5358 40.4887 60.5358 40.46H58.5358C58.5358 40.7602 58.5942 41.1909 58.9084 41.5444L60.4032 40.2156ZM60.5358 40.46V37.13H58.5358V40.46H60.5358ZM59.5358 36.13H57.0308V38.13H59.5358V36.13ZM56.0308 37.13V40.46H58.0308V37.13H56.0308ZM56.0308 40.46C56.0308 40.5142 56.0161 40.3455 56.1887 40.1729L57.6029 41.5871C57.9555 41.2345 58.0308 40.7858 58.0308 40.46H56.0308ZM56.1887 40.1729C56.292 40.0696 56.3967 40.0271 56.4505 40.0112C56.501 39.9962 56.5209 40 56.4908 40V42C56.7762 42 57.2423 41.9478 57.6029 41.5871L56.1887 40.1729Z" fill="black" mask="url(#path-8-outside-1_2531_1143)"/>
</g>
<defs>
<filter id="filter0_d_2531_1143" x="2.89746" y="29.9751" width="60.0435" height="13.25" filterUnits="userSpaceOnUse" color-interpolation-filters="sRGB">
<feFlood flood-opacity="0" result="BackgroundImageFix"/>
<feColorMatrix in="SourceAlpha" type="matrix" values="0 0 0 0 0 0 0 0 0 0 0 0 0 0 0 0 0 0 127 0" result="hardAlpha"/>
<feOffset dy="2"/>
<feComposite in2="hardAlpha" operator="out"/>
<feColorMatrix type="matrix" values="0 0 0 0 0 0 0 0 0 0 0 0 0 0 0 0 0 0 1 0"/>
<feBlend mode="normal" in2="BackgroundImageFix" result="effect1_dropShadow_2531_1143"/>
<feBlend mode="normal" in="SourceGraphic" in2="effect1_dropShadow_2531_1143" result="shape"/>
</filter>
<linearGradient id="paint0_linear_2531_1143" x1="34.1032" y1="56.6507" x2="34.1032" y2="70.1012" gradientUnits="userSpaceOnUse">
<stop stop-color="#2E0D68"/>
<stop offset="1" stop-color="#3E0B82"/>
</linearGradient>
<linearGradient id="paint1_linear_2531_1143" x1="25.5551" y1="64.6155" x2="25.5551" y2="3.69238" gradientUnits="userSpaceOnUse">
<stop stop-color="#F6E6F6"/>
<stop offset="1" stop-color="#D293FE"/>
</linearGradient>
<linearGradient id="paint2_linear_2531_1143" x1="4.59845" y1="8.04403" x2="12.6023" y2="10.046" gradientUnits="userSpaceOnUse">
<stop stop-color="white"/>
<stop offset="1" stop-color="white" stop-opacity="0"/>
</linearGradient>
<linearGradient id="paint3_linear_2531_1143" x1="40.4064" y1="15.1565" x2="40.4064" y2="47.1069" gradientUnits="userSpaceOnUse">
<stop stop-color="#E4ADFF"/>
<stop offset="1" stop-color="#D590FD"/>
</linearGradient>
</defs>
</svg>
