<svg width="66" height="72" viewBox="0 0 66 72" fill="none" xmlns="http://www.w3.org/2000/svg">
<rect width="66" height="72" rx="16.6153" fill="black"/>
<rect x="3.21948" y="5.53857" width="59.561" height="62.7692" rx="14.7692" fill="url(#paint0_linear_2531_1233)"/>
<rect x="3.21948" y="3.69263" width="59.561" height="60.9231" rx="12.923" fill="url(#paint1_linear_2531_1233)"/>
<rect x="3.21948" y="3.69263" width="59.561" height="60.9231" rx="12.923" fill="url(#paint2_linear_2531_1233)"/>
<rect x="6.43896" y="7.38464" width="53.1219" height="53.5385" rx="11.0769" fill="url(#paint3_linear_2531_1233)"/>
<ellipse cx="2.90149" cy="1.99141" rx="2.90149" ry="1.99141" transform="matrix(0.73474 -0.678349 0.574531 0.818483 6.43896 11.3214)" fill="#FFFEE2"/>
<ellipse cx="2.90149" cy="1.99141" rx="2.90149" ry="1.99141" transform="matrix(0.73474 -0.678349 0.574531 0.818483 53.1218 57.475)" fill="#FFE638"/>
<g filter="url(#filter0_d_2531_1233)">
<mask id="path-8-outside-1_2531_1233" maskUnits="userSpaceOnUse" x="9" y="28" width="50" height="15" fill="black">
<rect fill="white" x="9" y="28" width="50" height="15"/>
<path d="M16.4143 41H10.6543C10.4643 41 10.3243 40.96 10.2343 40.88C10.1543 40.79 10.1143 40.65 10.1143 40.46V30.74C10.1143 30.55 10.1543 30.415 10.2343 30.335C10.3243 30.245 10.4643 30.2 10.6543 30.2H15.4393C16.4193 30.2 17.1443 30.39 17.6143 30.77C18.0843 31.14 18.3193 31.715 18.3193 32.495V33.215C18.3193 33.635 18.2443 33.98 18.0943 34.25C17.9543 34.51 17.7343 34.705 17.4343 34.835C18.0743 34.895 18.5493 35.115 18.8593 35.495C19.1693 35.875 19.3243 36.43 19.3243 37.16V38.54C19.3243 39.38 19.0843 40 18.6043 40.4C18.1343 40.8 17.4043 41 16.4143 41ZM13.4893 32.75V34.37H14.7643C14.9543 34.37 15.0943 34.32 15.1843 34.22C15.2843 34.12 15.3343 33.97 15.3343 33.77V33.35C15.3343 33.15 15.2843 33 15.1843 32.9C15.0943 32.8 14.9543 32.75 14.7643 32.75H13.4893ZM13.4893 36.68V38.45H15.4393C15.6293 38.45 15.7693 38.4 15.8593 38.3C15.9593 38.2 16.0093 38.05 16.0093 37.85V37.265C16.0093 37.065 15.9593 36.92 15.8593 36.83C15.7693 36.73 15.6293 36.68 15.4393 36.68H13.4893ZM29.2334 38.165C29.2334 38.625 29.1634 39.045 29.0234 39.425C28.8934 39.795 28.6534 40.115 28.3034 40.385C27.9634 40.645 27.4884 40.85 26.8784 41C26.2784 41.15 25.5134 41.225 24.5834 41.225C23.6534 41.225 22.8834 41.15 22.2734 41C21.6634 40.85 21.1834 40.645 20.8334 40.385C20.4934 40.115 20.2534 39.795 20.1134 39.425C19.9834 39.045 19.9184 38.625 19.9184 38.165V33.05C19.9184 32.59 19.9834 32.175 20.1134 31.805C20.2534 31.425 20.4934 31.1 20.8334 30.83C21.1834 30.56 21.6634 30.35 22.2734 30.2C22.8834 30.05 23.6534 29.975 24.5834 29.975C25.5134 29.975 26.2784 30.05 26.8784 30.2C27.4884 30.35 27.9634 30.56 28.3034 30.83C28.6534 31.1 28.8934 31.425 29.0234 31.805C29.1634 32.175 29.2334 32.59 29.2334 33.05V38.165ZM23.3234 37.625C23.3234 37.825 23.3984 37.995 23.5484 38.135C23.6984 38.265 24.0434 38.33 24.5834 38.33C25.1234 38.33 25.4684 38.265 25.6184 38.135C25.7684 37.995 25.8434 37.825 25.8434 37.625V33.59C25.8434 33.4 25.7684 33.24 25.6184 33.11C25.4684 32.97 25.1234 32.9 24.5834 32.9C24.0434 32.9 23.6984 32.97 23.5484 33.11C23.3984 33.24 23.3234 33.4 23.3234 33.59V37.625ZM39.393 38.165C39.393 38.625 39.323 39.045 39.183 39.425C39.053 39.795 38.813 40.115 38.463 40.385C38.123 40.645 37.648 40.85 37.038 41C36.438 41.15 35.673 41.225 34.743 41.225C33.813 41.225 33.043 41.15 32.433 41C31.823 40.85 31.343 40.645 30.993 40.385C30.653 40.115 30.413 39.795 30.273 39.425C30.143 39.045 30.078 38.625 30.078 38.165V33.05C30.078 32.59 30.143 32.175 30.273 31.805C30.413 31.425 30.653 31.1 30.993 30.83C31.343 30.56 31.823 30.35 32.433 30.2C33.043 30.05 33.813 29.975 34.743 29.975C35.673 29.975 36.438 30.05 37.038 30.2C37.648 30.35 38.123 30.56 38.463 30.83C38.813 31.1 39.053 31.425 39.183 31.805C39.323 32.175 39.393 32.59 39.393 33.05V38.165ZM33.483 37.625C33.483 37.825 33.558 37.995 33.708 38.135C33.858 38.265 34.203 38.33 34.743 38.33C35.283 38.33 35.628 38.265 35.778 38.135C35.928 37.995 36.003 37.825 36.003 37.625V33.59C36.003 33.4 35.928 33.24 35.778 33.11C35.628 32.97 35.283 32.9 34.743 32.9C34.203 32.9 33.858 32.97 33.708 33.11C33.558 33.24 33.483 33.4 33.483 33.59V37.625ZM45.4126 41H40.6726C40.4826 41 40.3426 40.96 40.2526 40.88C40.1726 40.79 40.1326 40.65 40.1326 40.46V38.705C40.1326 38.515 40.1726 38.38 40.2526 38.3C40.3426 38.21 40.4826 38.165 40.6726 38.165H44.7076C44.8376 38.165 44.9326 38.125 44.9926 38.045C45.0626 37.955 45.0976 37.85 45.0976 37.73C45.0976 37.56 45.0626 37.435 44.9926 37.355C44.9326 37.275 44.8376 37.23 44.7076 37.22L42.4576 36.905C41.7576 36.805 41.1926 36.575 40.7626 36.215C40.3426 35.855 40.1326 35.255 40.1326 34.415V32.84C40.1326 31.99 40.4076 31.34 40.9576 30.89C41.5076 30.43 42.2676 30.2 43.2376 30.2H47.4376C47.6276 30.2 47.7626 30.245 47.8426 30.335C47.9326 30.415 47.9776 30.55 47.9776 30.74V32.525C47.9776 32.715 47.9326 32.855 47.8426 32.945C47.7626 33.025 47.6276 33.065 47.4376 33.065H43.9426C43.8126 33.065 43.7126 33.11 43.6426 33.2C43.5726 33.28 43.5376 33.385 43.5376 33.515C43.5376 33.645 43.5726 33.755 43.6426 33.845C43.7126 33.935 43.8126 33.985 43.9426 33.995L46.1776 34.295C46.8776 34.395 47.4426 34.625 47.8726 34.985C48.3026 35.345 48.5176 35.945 48.5176 36.785V38.36C48.5176 39.21 48.2376 39.865 47.6776 40.325C47.1276 40.775 46.3726 41 45.4126 41ZM54.212 41H51.782C51.592 41 51.452 40.96 51.362 40.88C51.282 40.79 51.242 40.65 51.242 40.46V33.095H49.037C48.847 33.095 48.707 33.055 48.617 32.975C48.537 32.885 48.497 32.745 48.497 32.555V30.74C48.497 30.55 48.537 30.415 48.617 30.335C48.707 30.245 48.847 30.2 49.037 30.2H56.957C57.147 30.2 57.282 30.245 57.362 30.335C57.452 30.415 57.497 30.55 57.497 30.74V32.555C57.497 32.745 57.452 32.885 57.362 32.975C57.282 33.055 57.147 33.095 56.957 33.095H54.752V40.46C54.752 40.65 54.707 40.79 54.617 40.88C54.537 40.96 54.402 41 54.212 41Z"/>
</mask>
<path d="M16.4143 41H10.6543C10.4643 41 10.3243 40.96 10.2343 40.88C10.1543 40.79 10.1143 40.65 10.1143 40.46V30.74C10.1143 30.55 10.1543 30.415 10.2343 30.335C10.3243 30.245 10.4643 30.2 10.6543 30.2H15.4393C16.4193 30.2 17.1443 30.39 17.6143 30.77C18.0843 31.14 18.3193 31.715 18.3193 32.495V33.215C18.3193 33.635 18.2443 33.98 18.0943 34.25C17.9543 34.51 17.7343 34.705 17.4343 34.835C18.0743 34.895 18.5493 35.115 18.8593 35.495C19.1693 35.875 19.3243 36.43 19.3243 37.16V38.54C19.3243 39.38 19.0843 40 18.6043 40.4C18.1343 40.8 17.4043 41 16.4143 41ZM13.4893 32.75V34.37H14.7643C14.9543 34.37 15.0943 34.32 15.1843 34.22C15.2843 34.12 15.3343 33.97 15.3343 33.77V33.35C15.3343 33.15 15.2843 33 15.1843 32.9C15.0943 32.8 14.9543 32.75 14.7643 32.75H13.4893ZM13.4893 36.68V38.45H15.4393C15.6293 38.45 15.7693 38.4 15.8593 38.3C15.9593 38.2 16.0093 38.05 16.0093 37.85V37.265C16.0093 37.065 15.9593 36.92 15.8593 36.83C15.7693 36.73 15.6293 36.68 15.4393 36.68H13.4893ZM29.2334 38.165C29.2334 38.625 29.1634 39.045 29.0234 39.425C28.8934 39.795 28.6534 40.115 28.3034 40.385C27.9634 40.645 27.4884 40.85 26.8784 41C26.2784 41.15 25.5134 41.225 24.5834 41.225C23.6534 41.225 22.8834 41.15 22.2734 41C21.6634 40.85 21.1834 40.645 20.8334 40.385C20.4934 40.115 20.2534 39.795 20.1134 39.425C19.9834 39.045 19.9184 38.625 19.9184 38.165V33.05C19.9184 32.59 19.9834 32.175 20.1134 31.805C20.2534 31.425 20.4934 31.1 20.8334 30.83C21.1834 30.56 21.6634 30.35 22.2734 30.2C22.8834 30.05 23.6534 29.975 24.5834 29.975C25.5134 29.975 26.2784 30.05 26.8784 30.2C27.4884 30.35 27.9634 30.56 28.3034 30.83C28.6534 31.1 28.8934 31.425 29.0234 31.805C29.1634 32.175 29.2334 32.59 29.2334 33.05V38.165ZM23.3234 37.625C23.3234 37.825 23.3984 37.995 23.5484 38.135C23.6984 38.265 24.0434 38.33 24.5834 38.33C25.1234 38.33 25.4684 38.265 25.6184 38.135C25.7684 37.995 25.8434 37.825 25.8434 37.625V33.59C25.8434 33.4 25.7684 33.24 25.6184 33.11C25.4684 32.97 25.1234 32.9 24.5834 32.9C24.0434 32.9 23.6984 32.97 23.5484 33.11C23.3984 33.24 23.3234 33.4 23.3234 33.59V37.625ZM39.393 38.165C39.393 38.625 39.323 39.045 39.183 39.425C39.053 39.795 38.813 40.115 38.463 40.385C38.123 40.645 37.648 40.85 37.038 41C36.438 41.15 35.673 41.225 34.743 41.225C33.813 41.225 33.043 41.15 32.433 41C31.823 40.85 31.343 40.645 30.993 40.385C30.653 40.115 30.413 39.795 30.273 39.425C30.143 39.045 30.078 38.625 30.078 38.165V33.05C30.078 32.59 30.143 32.175 30.273 31.805C30.413 31.425 30.653 31.1 30.993 30.83C31.343 30.56 31.823 30.35 32.433 30.2C33.043 30.05 33.813 29.975 34.743 29.975C35.673 29.975 36.438 30.05 37.038 30.2C37.648 30.35 38.123 30.56 38.463 30.83C38.813 31.1 39.053 31.425 39.183 31.805C39.323 32.175 39.393 32.59 39.393 33.05V38.165ZM33.483 37.625C33.483 37.825 33.558 37.995 33.708 38.135C33.858 38.265 34.203 38.33 34.743 38.33C35.283 38.33 35.628 38.265 35.778 38.135C35.928 37.995 36.003 37.825 36.003 37.625V33.59C36.003 33.4 35.928 33.24 35.778 33.11C35.628 32.97 35.283 32.9 34.743 32.9C34.203 32.9 33.858 32.97 33.708 33.11C33.558 33.24 33.483 33.4 33.483 33.59V37.625ZM45.4126 41H40.6726C40.4826 41 40.3426 40.96 40.2526 40.88C40.1726 40.79 40.1326 40.65 40.1326 40.46V38.705C40.1326 38.515 40.1726 38.38 40.2526 38.3C40.3426 38.21 40.4826 38.165 40.6726 38.165H44.7076C44.8376 38.165 44.9326 38.125 44.9926 38.045C45.0626 37.955 45.0976 37.85 45.0976 37.73C45.0976 37.56 45.0626 37.435 44.9926 37.355C44.9326 37.275 44.8376 37.23 44.7076 37.22L42.4576 36.905C41.7576 36.805 41.1926 36.575 40.7626 36.215C40.3426 35.855 40.1326 35.255 40.1326 34.415V32.84C40.1326 31.99 40.4076 31.34 40.9576 30.89C41.5076 30.43 42.2676 30.2 43.2376 30.2H47.4376C47.6276 30.2 47.7626 30.245 47.8426 30.335C47.9326 30.415 47.9776 30.55 47.9776 30.74V32.525C47.9776 32.715 47.9326 32.855 47.8426 32.945C47.7626 33.025 47.6276 33.065 47.4376 33.065H43.9426C43.8126 33.065 43.7126 33.11 43.6426 33.2C43.5726 33.28 43.5376 33.385 43.5376 33.515C43.5376 33.645 43.5726 33.755 43.6426 33.845C43.7126 33.935 43.8126 33.985 43.9426 33.995L46.1776 34.295C46.8776 34.395 47.4426 34.625 47.8726 34.985C48.3026 35.345 48.5176 35.945 48.5176 36.785V38.36C48.5176 39.21 48.2376 39.865 47.6776 40.325C47.1276 40.775 46.3726 41 45.4126 41ZM54.212 41H51.782C51.592 41 51.452 40.96 51.362 40.88C51.282 40.79 51.242 40.65 51.242 40.46V33.095H49.037C48.847 33.095 48.707 33.055 48.617 32.975C48.537 32.885 48.497 32.745 48.497 32.555V30.74C48.497 30.55 48.537 30.415 48.617 30.335C48.707 30.245 48.847 30.2 49.037 30.2H56.957C57.147 30.2 57.282 30.245 57.362 30.335C57.452 30.415 57.497 30.55 57.497 30.74V32.555C57.497 32.745 57.452 32.885 57.362 32.975C57.282 33.055 57.147 33.095 56.957 33.095H54.752V40.46C54.752 40.65 54.707 40.79 54.617 40.88C54.537 40.96 54.402 41 54.212 41Z" fill="white"/>
<path d="M10.2343 40.88L9.48689 41.5444L9.52597 41.5883L9.56993 41.6274L10.2343 40.88ZM10.2343 30.335L9.52719 29.6279L9.52719 29.6279L10.2343 30.335ZM17.6143 30.77L16.9855 31.5477L16.9957 31.5557L17.6143 30.77ZM18.0943 34.25L17.2201 33.7643L17.2138 33.7759L18.0943 34.25ZM17.4343 34.835L17.0367 33.9174L17.341 35.8306L17.4343 34.835ZM18.8593 35.495L18.0844 36.1271L18.0844 36.1271L18.8593 35.495ZM18.6043 40.4L17.9641 39.6317L17.9562 39.6385L18.6043 40.4ZM13.4893 32.75V31.75H12.4893V32.75H13.4893ZM13.4893 34.37H12.4893V35.37H13.4893V34.37ZM15.1843 34.22L14.4772 33.5129L14.4586 33.5315L14.441 33.551L15.1843 34.22ZM15.1843 32.9L14.441 33.569L14.4586 33.5885L14.4772 33.6071L15.1843 32.9ZM13.4893 36.68V35.68H12.4893V36.68H13.4893ZM13.4893 38.45H12.4893V39.45H13.4893V38.45ZM15.8593 38.3L15.1522 37.5929L15.1336 37.6115L15.116 37.631L15.8593 38.3ZM15.8593 36.83L15.116 37.499L15.1512 37.5381L15.1903 37.5733L15.8593 36.83ZM16.4143 40H10.6543V42H16.4143V40ZM10.6543 40C10.6256 40 10.6398 39.9966 10.6815 40.0085C10.7261 40.0212 10.8105 40.0542 10.8987 40.1326L9.56993 41.6274C9.92339 41.9416 10.3541 42 10.6543 42V40ZM10.9817 40.2156C11.0601 40.3038 11.0931 40.3882 11.1058 40.4328C11.1177 40.4745 11.1143 40.4887 11.1143 40.46H9.1143C9.1143 40.7602 9.1727 41.1909 9.48689 41.5444L10.9817 40.2156ZM11.1143 40.46V30.74H9.1143V40.46H11.1143ZM11.1143 30.74C11.1143 30.71 11.1181 30.7298 11.1031 30.7803C11.0871 30.8342 11.0447 30.9388 10.9414 31.0421L9.52719 29.6279C9.16654 29.9885 9.1143 30.4546 9.1143 30.74H11.1143ZM10.9414 31.0421C10.7688 31.2147 10.6001 31.2 10.6543 31.2V29.2C10.3285 29.2 9.87979 29.2753 9.52719 29.6279L10.9414 31.0421ZM10.6543 31.2H15.4393V29.2H10.6543V31.2ZM15.4393 31.2C16.3226 31.2 16.7745 31.377 16.9856 31.5476L18.243 29.9924C17.514 29.403 16.516 29.2 15.4393 29.2V31.2ZM16.9957 31.5557C17.1553 31.6814 17.3193 31.9205 17.3193 32.495H19.3193C19.3193 31.5095 19.0132 30.5986 18.2329 29.9843L16.9957 31.5557ZM17.3193 32.495V33.215H19.3193V32.495H17.3193ZM17.3193 33.215C17.3193 33.5236 17.2632 33.6868 17.2201 33.7644L18.9685 34.7356C19.2254 34.2732 19.3193 33.7464 19.3193 33.215H17.3193ZM17.2138 33.7759C17.1919 33.8166 17.1539 33.8666 17.0367 33.9174L17.8319 35.7526C18.3147 35.5434 18.7167 35.2034 18.9748 34.7241L17.2138 33.7759ZM17.341 35.8306C17.8006 35.8737 17.9917 36.0134 18.0844 36.1271L19.6342 34.8629C19.1069 34.2166 18.348 33.9163 17.5276 33.8394L17.341 35.8306ZM18.0844 36.1271C18.1925 36.2596 18.3243 36.5519 18.3243 37.16H20.3243C20.3243 36.3081 20.1461 35.4904 19.6342 34.8629L18.0844 36.1271ZM18.3243 37.16V38.54H20.3243V37.16H18.3243ZM18.3243 38.54C18.3243 39.1917 18.1442 39.4817 17.9641 39.6318L19.2445 41.1682C20.0244 40.5183 20.3243 39.5683 20.3243 38.54H18.3243ZM17.9562 39.6385C17.7484 39.8153 17.3016 40 16.4143 40V42C17.507 42 18.5202 41.7847 19.2524 41.1615L17.9562 39.6385ZM12.4893 32.75V34.37H14.4893V32.75H12.4893ZM13.4893 35.37H14.7643V33.37H13.4893V35.37ZM14.7643 35.37C15.1176 35.37 15.5802 35.275 15.9276 34.889L14.441 33.551C14.5182 33.4652 14.606 33.4156 14.6755 33.3908C14.7387 33.3682 14.775 33.37 14.7643 33.37V35.37ZM15.8914 34.9271C16.2451 34.5734 16.3343 34.1241 16.3343 33.77H14.3343C14.3343 33.8159 14.3235 33.6666 14.4772 33.5129L15.8914 34.9271ZM16.3343 33.77V33.35H14.3343V33.77H16.3343ZM16.3343 33.35C16.3343 32.9959 16.2451 32.5466 15.8914 32.1929L14.4772 33.6071C14.3235 33.4534 14.3343 33.3041 14.3343 33.35H16.3343ZM15.9276 32.231C15.5802 31.845 15.1176 31.75 14.7643 31.75V33.75C14.775 33.75 14.7387 33.7518 14.6755 33.7292C14.606 33.7044 14.5182 33.6548 14.441 33.569L15.9276 32.231ZM14.7643 31.75H13.4893V33.75H14.7643V31.75ZM12.4893 36.68V38.45H14.4893V36.68H12.4893ZM13.4893 39.45H15.4393V37.45H13.4893V39.45ZM15.4393 39.45C15.7926 39.45 16.2552 39.355 16.6026 38.969L15.116 37.631C15.1932 37.5452 15.281 37.4956 15.3505 37.4708C15.4137 37.4482 15.45 37.45 15.4393 37.45V39.45ZM16.5664 39.0071C16.9201 38.6534 17.0093 38.2041 17.0093 37.85H15.0093C15.0093 37.8959 14.9985 37.7466 15.1522 37.5929L16.5664 39.0071ZM17.0093 37.85V37.265H15.0093V37.85H17.0093ZM17.0093 37.265C17.0093 36.9206 16.924 36.4428 16.5283 36.0867L15.1903 37.5733C14.9946 37.3972 15.0093 37.2094 15.0093 37.265H17.0093ZM16.6026 36.161C16.2552 35.775 15.7926 35.68 15.4393 35.68V37.68C15.45 37.68 15.4137 37.6818 15.3505 37.6592C15.281 37.6344 15.1932 37.5848 15.116 37.499L16.6026 36.161ZM15.4393 35.68H13.4893V37.68H15.4393V35.68ZM29.0234 39.425L28.0851 39.0793L28.0825 39.0864L28.08 39.0935L29.0234 39.425ZM28.3034 40.385L28.9109 41.1794L28.9142 41.1768L28.3034 40.385ZM26.8784 41L26.6396 40.0289L26.6359 40.0299L26.8784 41ZM22.2734 41L22.0346 41.9711L22.0346 41.9711L22.2734 41ZM20.8334 40.385L20.2116 41.1681L20.2242 41.1781L20.2371 41.1877L20.8334 40.385ZM20.1134 39.425L19.1673 39.7487L19.1725 39.7639L19.1782 39.7789L20.1134 39.425ZM20.1134 31.805L19.1751 31.4593L19.1725 31.4664L19.17 31.4735L20.1134 31.805ZM20.8334 30.83L20.2226 30.0381L20.2116 30.0469L20.8334 30.83ZM22.2734 30.2L22.0346 29.2289L22.0346 29.2289L22.2734 30.2ZM26.8784 30.2L26.6359 31.1701L26.6396 31.1711L26.8784 30.2ZM28.3034 30.83L27.6815 31.6132L27.6926 31.6218L28.3034 30.83ZM29.0234 31.805L28.0773 32.1287L28.0825 32.1439L28.0882 32.1589L29.0234 31.805ZM23.5484 38.135L22.8661 38.8661L22.8796 38.8786L22.8935 38.8907L23.5484 38.135ZM25.6184 38.135L26.2734 38.8907L26.2873 38.8786L26.3008 38.8661L25.6184 38.135ZM25.6184 33.11L24.9361 33.8411L24.9496 33.8536L24.9635 33.8657L25.6184 33.11ZM23.5484 33.11L24.2034 33.8657L24.2173 33.8536L24.2308 33.8411L23.5484 33.11ZM28.2334 38.165C28.2334 38.5229 28.1792 38.824 28.0851 39.0793L29.9618 39.7707C30.1477 39.266 30.2334 38.7271 30.2334 38.165H28.2334ZM28.08 39.0935C28.022 39.2586 27.9097 39.4258 27.6926 39.5932L28.9142 41.1768C29.3972 40.8042 29.7649 40.3314 29.9669 39.7565L28.08 39.0935ZM27.696 39.5906C27.5041 39.7374 27.1732 39.8977 26.6396 40.0289L27.1172 41.9711C27.8037 41.8023 28.4227 41.5526 28.9109 41.1794L27.696 39.5906ZM26.6359 40.0299C26.1442 40.1528 25.4683 40.225 24.5834 40.225V42.225C25.5586 42.225 26.4126 42.1472 27.121 41.9701L26.6359 40.0299ZM24.5834 40.225C23.6993 40.225 23.0164 40.1529 22.5122 40.0289L22.0346 41.9711C22.7504 42.1471 23.6075 42.225 24.5834 42.225V40.225ZM22.5122 40.0289C21.979 39.8978 21.6368 39.7361 21.4298 39.5823L20.2371 41.1877C20.73 41.5539 21.3478 41.8022 22.0346 41.9711L22.5122 40.0289ZM21.4553 39.6019C21.2424 39.4328 21.1188 39.2562 21.0487 39.0711L19.1782 39.7789C19.3881 40.3338 19.7445 40.7972 20.2116 41.1681L21.4553 39.6019ZM21.0596 39.1013C20.97 38.8394 20.9184 38.5306 20.9184 38.165H18.9184C18.9184 38.7194 18.9969 39.2506 19.1673 39.7487L21.0596 39.1013ZM20.9184 38.165V33.05H18.9184V38.165H20.9184ZM20.9184 33.05C20.9184 32.6838 20.9702 32.3833 21.0569 32.1365L19.17 31.4735C18.9967 31.9667 18.9184 32.4962 18.9184 33.05H20.9184ZM21.0518 32.1507C21.1238 31.9552 21.2482 31.7776 21.4553 31.6131L20.2116 30.0469C19.7387 30.4224 19.3831 30.8948 19.1751 31.4593L21.0518 32.1507ZM21.4442 31.6218C21.6479 31.4647 21.9846 31.3008 22.5122 31.1711L22.0346 29.2289C21.3423 29.3992 20.7189 29.6553 20.2226 30.0382L21.4442 31.6218ZM22.5122 31.1711C23.0164 31.0471 23.6993 30.975 24.5834 30.975V28.975C23.6075 28.975 22.7504 29.0529 22.0346 29.2289L22.5122 31.1711ZM24.5834 30.975C25.4683 30.975 26.1442 31.0472 26.6359 31.1701L27.121 29.2299C26.4126 29.0528 25.5586 28.975 24.5834 28.975V30.975ZM26.6396 31.1711C27.1675 31.3009 27.4929 31.4633 27.6816 31.6131L28.9253 30.0469C28.4339 29.6567 27.8093 29.3991 27.1172 29.2289L26.6396 31.1711ZM27.6926 31.6218C27.9036 31.7845 28.0171 31.9527 28.0773 32.1287L29.9696 31.4813C29.7698 30.8973 29.4032 30.4155 28.9142 30.0382L27.6926 31.6218ZM28.0882 32.1589C28.179 32.399 28.2334 32.6915 28.2334 33.05H30.2334C30.2334 32.4884 30.1479 31.951 29.9587 31.4511L28.0882 32.1589ZM28.2334 33.05V38.165H30.2334V33.05H28.2334ZM22.3234 37.625C22.3234 38.1102 22.5194 38.5425 22.8661 38.8661L24.2308 37.4039C24.2443 37.4166 24.2721 37.4478 24.2946 37.4989C24.3174 37.5505 24.3234 37.5968 24.3234 37.625H22.3234ZM22.8935 38.8907C23.1695 39.1299 23.5037 39.2205 23.7345 39.264C23.9914 39.3123 24.2806 39.33 24.5834 39.33V37.33C24.3462 37.33 24.193 37.3152 24.1048 37.2985C24.0622 37.2905 24.0521 37.2852 24.064 37.2899C24.0739 37.2938 24.1318 37.3172 24.2034 37.3793L22.8935 38.8907ZM24.5834 39.33C24.8862 39.33 25.1755 39.3123 25.4323 39.264C25.6631 39.2205 25.9974 39.1299 26.2734 38.8907L24.9635 37.3793C25.0351 37.3172 25.0929 37.2938 25.1029 37.2899C25.1148 37.2852 25.1047 37.2905 25.062 37.2985C24.9739 37.3152 24.8206 37.33 24.5834 37.33V39.33ZM26.3008 38.8661C26.6474 38.5425 26.8434 38.1102 26.8434 37.625H24.8434C24.8434 37.5968 24.8495 37.5505 24.8723 37.4989C24.8948 37.4478 24.9226 37.4166 24.9361 37.4039L26.3008 38.8661ZM26.8434 37.625V33.59H24.8434V37.625H26.8434ZM26.8434 33.59C26.8434 33.0955 26.6314 32.6646 26.2734 32.3543L24.9635 33.8657C24.9458 33.8503 24.9106 33.8134 24.8817 33.7519C24.8524 33.6893 24.8434 33.6305 24.8434 33.59H26.8434ZM26.3008 32.3789C26.0254 32.1219 25.6855 32.0211 25.446 31.9725C25.1832 31.9191 24.8889 31.9 24.5834 31.9V33.9C24.818 33.9 24.9661 33.9159 25.0483 33.9325C25.0878 33.9405 25.0942 33.9452 25.0788 33.9387C25.0647 33.9327 25.006 33.9062 24.9361 33.8411L26.3008 32.3789ZM24.5834 31.9C24.278 31.9 23.9836 31.9191 23.7208 31.9725C23.4814 32.0211 23.1415 32.1219 22.8661 32.3789L24.2308 33.8411C24.1609 33.9062 24.1022 33.9327 24.088 33.9387C24.0726 33.9452 24.0791 33.9405 24.1185 33.9325C24.2007 33.9159 24.3489 33.9 24.5834 33.9V31.9ZM22.8935 32.3543C22.5355 32.6646 22.3234 33.0955 22.3234 33.59H24.3234C24.3234 33.6305 24.3145 33.6893 24.2851 33.7519C24.2563 33.8134 24.2211 33.8503 24.2034 33.8657L22.8935 32.3543ZM22.3234 33.59V37.625H24.3234V33.59H22.3234ZM39.183 39.425L38.2447 39.0793L38.2421 39.0864L38.2395 39.0935L39.183 39.425ZM38.463 40.385L39.0705 41.1794L39.0738 41.1768L38.463 40.385ZM37.038 41L36.7992 40.0289L36.7955 40.0299L37.038 41ZM32.433 41L32.1942 41.9711L32.1942 41.9711L32.433 41ZM30.993 40.385L30.3711 41.1681L30.3837 41.1781L30.3967 41.1877L30.993 40.385ZM30.273 39.425L29.3268 39.7487L29.332 39.7639L29.3377 39.7789L30.273 39.425ZM30.273 31.805L29.3347 31.4593L29.3321 31.4664L29.3295 31.4735L30.273 31.805ZM30.993 30.83L30.3821 30.0381L30.3711 30.0469L30.993 30.83ZM32.433 30.2L32.1942 29.2289L32.1942 29.2289L32.433 30.2ZM37.038 30.2L36.7955 31.1701L36.7992 31.1711L37.038 30.2ZM38.463 30.83L37.8411 31.6132L37.8522 31.6218L38.463 30.83ZM39.183 31.805L38.2368 32.1287L38.242 32.1439L38.2477 32.1589L39.183 31.805ZM33.708 38.135L33.0257 38.8661L33.0392 38.8786L33.0531 38.8907L33.708 38.135ZM35.778 38.135L36.4329 38.8907L36.4469 38.8786L36.4603 38.8661L35.778 38.135ZM35.778 33.11L35.0957 33.8411L35.1092 33.8536L35.1231 33.8657L35.778 33.11ZM33.708 33.11L34.3629 33.8657L34.3769 33.8536L34.3903 33.8411L33.708 33.11ZM38.393 38.165C38.393 38.5229 38.3387 38.824 38.2447 39.0793L40.1214 39.7707C40.3073 39.266 40.393 38.7271 40.393 38.165H38.393ZM38.2395 39.0935C38.1815 39.2586 38.0692 39.4258 37.8522 39.5932L39.0738 41.1768C39.5568 40.8042 39.9245 40.3314 40.1265 39.7565L38.2395 39.0935ZM37.8556 39.5906C37.6637 39.7374 37.3327 39.8977 36.7992 40.0289L37.2768 41.9711C37.9633 41.8023 38.5823 41.5526 39.0705 41.1794L37.8556 39.5906ZM36.7955 40.0299C36.3038 40.1528 35.6279 40.225 34.743 40.225V42.225C35.7182 42.225 36.5722 42.1472 37.2805 41.9701L36.7955 40.0299ZM34.743 40.225C33.8589 40.225 33.176 40.1529 32.6718 40.0289L32.1942 41.9711C32.91 42.1471 33.7671 42.225 34.743 42.225V40.225ZM32.6718 40.0289C32.1386 39.8978 31.7964 39.7361 31.5893 39.5823L30.3967 41.1877C30.8896 41.5539 31.5074 41.8022 32.1942 41.9711L32.6718 40.0289ZM31.6149 39.6019C31.402 39.4328 31.2783 39.2562 31.2083 39.0711L29.3377 39.7789C29.5477 40.3338 29.9041 40.7972 30.3711 41.1681L31.6149 39.6019ZM31.2192 39.1013C31.1296 38.8394 31.078 38.5306 31.078 38.165H29.078C29.078 38.7194 29.1564 39.2506 29.3268 39.7487L31.2192 39.1013ZM31.078 38.165V33.05H29.078V38.165H31.078ZM31.078 33.05C31.078 32.6838 31.1297 32.3833 31.2165 32.1365L29.3295 31.4735C29.1563 31.9667 29.078 32.4962 29.078 33.05H31.078ZM31.2114 32.1507C31.2834 31.9552 31.4077 31.7776 31.6149 31.6131L30.3711 30.0469C29.8983 30.4224 29.5426 30.8948 29.3347 31.4593L31.2114 32.1507ZM31.6038 31.6218C31.8075 31.4647 32.1442 31.3008 32.6718 31.1711L32.1942 29.2289C31.5018 29.3992 30.8785 29.6553 30.3822 30.0382L31.6038 31.6218ZM32.6718 31.1711C33.176 31.0471 33.8589 30.975 34.743 30.975V28.975C33.7671 28.975 32.91 29.0529 32.1942 29.2289L32.6718 31.1711ZM34.743 30.975C35.6279 30.975 36.3038 31.0472 36.7955 31.1701L37.2805 29.2299C36.5722 29.0528 35.7182 28.975 34.743 28.975V30.975ZM36.7992 31.1711C37.3271 31.3009 37.6525 31.4633 37.8411 31.6131L39.0849 30.0469C38.5935 29.6567 37.9689 29.3991 37.2768 29.2289L36.7992 31.1711ZM37.8522 31.6218C38.0632 31.7845 38.1767 31.9527 38.2368 32.1287L40.1292 31.4813C39.9294 30.8973 39.5628 30.4155 39.0738 30.0382L37.8522 31.6218ZM38.2477 32.1589C38.3386 32.399 38.393 32.6915 38.393 33.05H40.393C40.393 32.4884 40.3074 31.951 40.1183 31.4511L38.2477 32.1589ZM38.393 33.05V38.165H40.393V33.05H38.393ZM32.483 37.625C32.483 38.1102 32.679 38.5425 33.0257 38.8661L34.3903 37.4039C34.4038 37.4166 34.4316 37.4478 34.4542 37.4989C34.477 37.5505 34.483 37.5968 34.483 37.625H32.483ZM33.0531 38.8907C33.3291 39.1299 33.6633 39.2205 33.8941 39.264C34.1509 39.3123 34.4402 39.33 34.743 39.33V37.33C34.5058 37.33 34.3526 37.3152 34.2644 37.2985C34.2217 37.2905 34.2116 37.2852 34.2236 37.2899C34.2335 37.2938 34.2913 37.3172 34.3629 37.3793L33.0531 38.8907ZM34.743 39.33C35.0458 39.33 35.3351 39.3123 35.5919 39.264C35.8227 39.2205 36.1569 39.1299 36.4329 38.8907L35.1231 37.3793C35.1947 37.3172 35.2525 37.2938 35.2624 37.2899C35.2744 37.2852 35.2643 37.2905 35.2216 37.2985C35.1334 37.3152 34.9802 37.33 34.743 37.33V39.33ZM36.4603 38.8661C36.807 38.5425 37.003 38.1102 37.003 37.625H35.003C35.003 37.5968 35.009 37.5505 35.0318 37.4989C35.0544 37.4478 35.0822 37.4166 35.0957 37.4039L36.4603 38.8661ZM37.003 37.625V33.59H35.003V37.625H37.003ZM37.003 33.59C37.003 33.0955 36.7909 32.6646 36.4329 32.3543L35.1231 33.8657C35.1054 33.8503 35.0701 33.8134 35.0413 33.7519C35.0119 33.6893 35.003 33.6305 35.003 33.59H37.003ZM36.4603 32.3789C36.1849 32.1219 35.8451 32.0211 35.6056 31.9725C35.3428 31.9191 35.0485 31.9 34.743 31.9V33.9C34.9776 33.9 35.1257 33.9159 35.2079 33.9325C35.2474 33.9405 35.2538 33.9452 35.2384 33.9387C35.2242 33.9327 35.1655 33.9062 35.0957 33.8411L36.4603 32.3789ZM34.743 31.9C34.4376 31.9 34.1432 31.9191 33.8804 31.9725C33.6409 32.0211 33.3011 32.1219 33.0257 32.3789L34.3903 33.8411C34.3205 33.9062 34.2618 33.9327 34.2476 33.9387C34.2322 33.9452 34.2387 33.9405 34.2781 33.9325C34.3603 33.9159 34.5085 33.9 34.743 33.9V31.9ZM33.0531 32.3543C32.6951 32.6646 32.483 33.0955 32.483 33.59H34.483C34.483 33.6305 34.4741 33.6893 34.4447 33.7519C34.4159 33.8134 34.3806 33.8503 34.3629 33.8657L33.0531 32.3543ZM32.483 33.59V37.625H34.483V33.59H32.483ZM40.2526 40.88L39.5052 41.5444L39.5442 41.5883L39.5882 41.6274L40.2526 40.88ZM40.2526 38.3L40.9597 39.0071L40.9597 39.0071L40.2526 38.3ZM44.9926 38.045L44.2032 37.4311L44.1978 37.438L44.1926 37.445L44.9926 38.045ZM44.9926 37.355L44.1926 37.955L44.2152 37.9851L44.24 38.0135L44.9926 37.355ZM44.7076 37.22L44.5689 38.2103L44.5998 38.2147L44.6309 38.2171L44.7076 37.22ZM42.4576 36.905L42.3162 37.895L42.3189 37.8953L42.4576 36.905ZM40.7626 36.215L40.1117 36.9743L40.1206 36.9818L40.7626 36.215ZM40.9576 30.89L41.5909 31.664L41.5991 31.6571L40.9576 30.89ZM47.8426 30.335L47.0952 30.9994L47.1342 31.0433L47.1782 31.0824L47.8426 30.335ZM43.6426 33.2L44.3952 33.8585L44.4142 33.8368L44.4319 33.8139L43.6426 33.2ZM43.9426 33.995L44.0756 33.0039L44.0475 33.0001L44.0193 32.9979L43.9426 33.995ZM46.1776 34.295L46.319 33.305L46.3106 33.3039L46.1776 34.295ZM47.8726 34.985L48.5145 34.2182L48.5145 34.2182L47.8726 34.985ZM47.6776 40.325L48.3108 41.099L48.3123 41.0977L47.6776 40.325ZM45.4126 40H40.6726V42H45.4126V40ZM40.6726 40C40.6439 40 40.6581 39.9966 40.6998 40.0085C40.7444 40.0212 40.8288 40.0542 40.9169 40.1326L39.5882 41.6274C39.9417 41.9416 40.3723 42 40.6726 42V40ZM41 40.2156C41.0784 40.3038 41.1114 40.3882 41.1241 40.4328C41.136 40.4745 41.1326 40.4887 41.1326 40.46H39.1326C39.1326 40.7602 39.191 41.1909 39.5052 41.5444L41 40.2156ZM41.1326 40.46V38.705H39.1326V40.46H41.1326ZM41.1326 38.705C41.1326 38.675 41.1363 38.6948 41.1214 38.7453C41.1054 38.7992 41.0629 38.9038 40.9597 39.0071L39.5455 37.5929C39.1848 37.9535 39.1326 38.4196 39.1326 38.705H41.1326ZM40.9597 39.0071C40.7871 39.1797 40.6184 39.165 40.6726 39.165V37.165C40.3468 37.165 39.8981 37.2403 39.5455 37.5929L40.9597 39.0071ZM40.6726 39.165H44.7076V37.165H40.6726V39.165ZM44.7076 39.165C45.049 39.165 45.4893 39.0494 45.7926 38.645L44.1926 37.445C44.2723 37.3387 44.3776 37.2599 44.4883 37.2134C44.5912 37.17 44.6728 37.165 44.7076 37.165V39.165ZM45.7819 38.6589C45.9959 38.3838 46.0976 38.0599 46.0976 37.73H44.0976C44.0976 37.6916 44.1034 37.6402 44.1226 37.5825C44.1421 37.5242 44.1708 37.4728 44.2032 37.4311L45.7819 38.6589ZM46.0976 37.73C46.0976 37.4548 46.0463 37.0406 45.7452 36.6965L44.24 38.0135C44.1574 37.9191 44.1224 37.8284 44.1084 37.7784C44.0951 37.7308 44.0976 37.7097 44.0976 37.73H46.0976ZM45.7926 36.755C45.5109 36.3795 45.1085 36.2479 44.7843 36.2229L44.6309 38.2171C44.6023 38.2149 44.5342 38.2057 44.4482 38.165C44.3567 38.1216 44.2651 38.0516 44.1926 37.955L45.7926 36.755ZM44.8462 36.2297L42.5962 35.9147L42.3189 37.8953L44.5689 38.2103L44.8462 36.2297ZM42.599 35.9151C42.0357 35.8346 41.6588 35.6611 41.4045 35.4482L40.1206 36.9818C40.7264 37.4889 41.4795 37.7754 42.3162 37.8949L42.599 35.9151ZM41.4134 35.4557C41.3093 35.3665 41.1326 35.1156 41.1326 34.415H39.1326C39.1326 35.3944 39.3759 36.3435 40.1118 36.9743L41.4134 35.4557ZM41.1326 34.415V32.84H39.1326V34.415H41.1326ZM41.1326 32.84C41.1326 32.2248 41.3191 31.8863 41.5908 31.664L40.3243 30.116C39.4961 30.7937 39.1326 31.7552 39.1326 32.84H41.1326ZM41.5991 31.6571C41.9145 31.3933 42.4192 31.2 43.2376 31.2V29.2C42.1159 29.2 41.1007 29.4667 40.316 30.1229L41.5991 31.6571ZM43.2376 31.2H47.4376V29.2H43.2376V31.2ZM47.4376 31.2C47.4588 31.2 47.4273 31.2032 47.3651 31.1824C47.2968 31.1597 47.1911 31.1073 47.0952 30.9994L48.59 29.6706C48.2338 29.27 47.7505 29.2 47.4376 29.2V31.2ZM47.1782 31.0824C47.0703 30.9865 47.0179 30.8808 46.9951 30.8125C46.9744 30.7503 46.9776 30.7188 46.9776 30.74H48.9776C48.9776 30.4271 48.9076 29.9437 48.5069 29.5876L47.1782 31.0824ZM46.9776 30.74V32.525H48.9776V30.74H46.9776ZM46.9776 32.525C46.9776 32.5792 46.9629 32.4105 47.1355 32.2379L48.5497 33.6521C48.9023 33.2995 48.9776 32.8508 48.9776 32.525H46.9776ZM47.1355 32.2379C47.2387 32.1346 47.3434 32.0921 47.3972 32.0762C47.4477 32.0612 47.4676 32.065 47.4376 32.065V34.065C47.723 34.065 48.189 34.0128 48.5497 33.6521L47.1355 32.2379ZM47.4376 32.065H43.9426V34.065H47.4376V32.065ZM43.9426 32.065C43.5531 32.065 43.1409 32.2162 42.8532 32.5861L44.4319 33.8139C44.3709 33.8924 44.2852 33.9635 44.1804 34.0107C44.0797 34.056 43.9932 34.065 43.9426 34.065V32.065ZM42.89 32.5415C42.6269 32.8421 42.5376 33.1991 42.5376 33.515H44.5376C44.5376 33.5392 44.5343 33.5895 44.5125 33.655C44.4898 33.7232 44.4512 33.7945 44.3952 33.8585L42.89 32.5415ZM42.5376 33.515C42.5376 33.8347 42.6279 34.1692 42.8532 34.4589L44.4319 33.2311C44.4703 33.2804 44.4989 33.3358 44.5168 33.3918C44.5341 33.4463 44.5376 33.4899 44.5376 33.515H42.5376ZM42.8532 34.4589C43.1218 34.8043 43.4994 34.9639 43.8659 34.9921L44.0193 32.9979C44.0621 33.0012 44.134 33.0139 44.2173 33.0556C44.3036 33.0987 44.3771 33.1606 44.4319 33.2311L42.8532 34.4589ZM43.8095 34.9861L46.0445 35.2861L46.3106 33.3039L44.0756 33.0039L43.8095 34.9861ZM46.0362 35.2849C46.5995 35.3654 46.9764 35.5389 47.2306 35.7518L48.5145 34.2182C47.9088 33.7111 47.1557 33.4246 46.319 33.3051L46.0362 35.2849ZM47.2306 35.7518C47.3395 35.8429 47.5176 36.091 47.5176 36.785H49.5176C49.5176 35.799 49.2656 34.8471 48.5145 34.2182L47.2306 35.7518ZM47.5176 36.785V38.36H49.5176V36.785H47.5176ZM47.5176 38.36C47.5176 38.9684 47.3305 39.316 47.0428 39.5523L48.3123 41.0977C49.1447 40.414 49.5176 39.4516 49.5176 38.36H47.5176ZM47.0443 39.551C46.727 39.8107 46.2227 40 45.4126 40V42C46.5225 42 47.5282 41.7393 48.3108 41.099L47.0443 39.551ZM51.362 40.88L50.6145 41.5444L50.6536 41.5883L50.6976 41.6274L51.362 40.88ZM51.242 33.095H52.242V32.095H51.242V33.095ZM48.617 32.975L47.8695 33.6394L47.9086 33.6833L47.9526 33.7224L48.617 32.975ZM48.617 30.335L47.9098 29.6279L47.9098 29.6279L48.617 30.335ZM57.362 30.335L56.6145 30.9994L56.6536 31.0433L56.6976 31.0824L57.362 30.335ZM57.362 32.975L58.0691 33.6821L57.362 32.975ZM54.752 33.095V32.095H53.752V33.095H54.752ZM54.617 40.88L53.9098 40.1729L53.9098 40.1729L54.617 40.88ZM54.212 40H51.782V42H54.212V40ZM51.782 40C51.7533 40 51.7674 39.9966 51.8092 40.0085C51.8538 40.0212 51.9381 40.0542 52.0263 40.1326L50.6976 41.6274C51.051 41.9416 51.4817 42 51.782 42V40ZM52.1094 40.2156C52.1877 40.3038 52.2207 40.3882 52.2335 40.4328C52.2454 40.4745 52.242 40.4887 52.242 40.46H50.242C50.242 40.7602 50.3004 41.1909 50.6145 41.5444L52.1094 40.2156ZM52.242 40.46V33.095H50.242V40.46H52.242ZM51.242 32.095H49.037V34.095H51.242V32.095ZM49.037 32.095C49.0083 32.095 49.0224 32.0916 49.0642 32.1035C49.1088 32.1162 49.1931 32.1492 49.2813 32.2276L47.9526 33.7224C48.306 34.0366 48.7367 34.095 49.037 34.095V32.095ZM49.3644 32.3106C49.4427 32.3988 49.4757 32.4832 49.4885 32.5278C49.5004 32.5695 49.497 32.5837 49.497 32.555H47.497C47.497 32.8552 47.5554 33.2859 47.8695 33.6394L49.3644 32.3106ZM49.497 32.555V30.74H47.497V32.555H49.497ZM49.497 30.74C49.497 30.71 49.5007 30.7298 49.4858 30.7803C49.4698 30.8342 49.4273 30.9388 49.3241 31.0421L47.9098 29.6279C47.5492 29.9885 47.497 30.4546 47.497 30.74H49.497ZM49.3241 31.0421C49.1515 31.2147 48.9828 31.2 49.037 31.2V29.2C48.7111 29.2 48.2624 29.2753 47.9098 29.6279L49.3241 31.0421ZM49.037 31.2H56.957V29.2H49.037V31.2ZM56.957 31.2C56.9782 31.2 56.9466 31.2032 56.8845 31.1824C56.8162 31.1597 56.7105 31.1073 56.6145 30.9994L58.1094 29.6706C57.7532 29.27 57.2698 29.2 56.957 29.2V31.2ZM56.6976 31.0824C56.5897 30.9865 56.5373 30.8808 56.5145 30.8125C56.4938 30.7503 56.497 30.7188 56.497 30.74H58.497C58.497 30.4271 58.427 29.9437 58.0263 29.5876L56.6976 31.0824ZM56.497 30.74V32.555H58.497V30.74H56.497ZM56.497 32.555C56.497 32.6092 56.4822 32.4405 56.6548 32.2679L58.0691 33.6821C58.4217 33.3295 58.497 32.8808 58.497 32.555H56.497ZM56.6548 32.2679C56.7581 32.1646 56.8628 32.1221 56.9166 32.1062C56.9671 32.0912 56.987 32.095 56.957 32.095V34.095C57.2424 34.095 57.7084 34.0428 58.0691 33.6821L56.6548 32.2679ZM56.957 32.095H54.752V34.095H56.957V32.095ZM53.752 33.095V40.46H55.752V33.095H53.752ZM53.752 40.46C53.752 40.5142 53.7372 40.3455 53.9098 40.1729L55.3241 41.5871C55.6767 41.2345 55.752 40.7858 55.752 40.46H53.752ZM53.9098 40.1729C54.0131 40.0696 54.1178 40.0271 54.1716 40.0112C54.2221 39.9962 54.242 40 54.212 40V42C54.4974 42 54.9634 41.9478 55.3241 41.5871L53.9098 40.1729Z" fill="black" mask="url(#path-8-outside-1_2531_1233)"/>
</g>
<defs>
<filter id="filter0_d_2531_1233" x="10.1143" y="29.975" width="47.3828" height="13.25" filterUnits="userSpaceOnUse" color-interpolation-filters="sRGB">
<feFlood flood-opacity="0" result="BackgroundImageFix"/>
<feColorMatrix in="SourceAlpha" type="matrix" values="0 0 0 0 0 0 0 0 0 0 0 0 0 0 0 0 0 0 127 0" result="hardAlpha"/>
<feOffset dy="2"/>
<feComposite in2="hardAlpha" operator="out"/>
<feColorMatrix type="matrix" values="0 0 0 0 0 0 0 0 0 0 0 0 0 0 0 0 0 0 1 0"/>
<feBlend mode="normal" in2="BackgroundImageFix" result="effect1_dropShadow_2531_1233"/>
<feBlend mode="normal" in="SourceGraphic" in2="effect1_dropShadow_2531_1233" result="shape"/>
</filter>
<linearGradient id="paint0_linear_2531_1233" x1="34.103" y1="56.6507" x2="34.1029" y2="70.1012" gradientUnits="userSpaceOnUse">
<stop stop-color="#DB8400"/>
<stop offset="1" stop-color="#B94100"/>
</linearGradient>
<linearGradient id="paint1_linear_2531_1233" x1="25.5548" y1="64.6157" x2="25.5548" y2="3.69263" gradientUnits="userSpaceOnUse">
<stop stop-color="#FFDE00"/>
<stop offset="1" stop-color="#FFE636"/>
</linearGradient>
<linearGradient id="paint2_linear_2531_1233" x1="4.59821" y1="8.04427" x2="12.602" y2="10.0463" gradientUnits="userSpaceOnUse">
<stop stop-color="white"/>
<stop offset="1" stop-color="white" stop-opacity="0"/>
</linearGradient>
<linearGradient id="paint3_linear_2531_1233" x1="40.4064" y1="15.1564" x2="40.4064" y2="47.1067" gradientUnits="userSpaceOnUse">
<stop stop-color="#FFDC02"/>
<stop offset="1" stop-color="#FFBB00"/>
</linearGradient>
</defs>
</svg>
