<svg width="252" height="72" viewBox="0 0 252 72" fill="none" xmlns="http://www.w3.org/2000/svg">
<rect width="252" height="72" rx="16.6153" fill="black"/>
<rect x="3.21948" y="5.53857" width="245.561" height="62.7692" rx="14.7692" fill="url(#paint0_linear_2531_1620)"/>
<rect x="3.21948" y="3.69238" width="245.561" height="60.9231" rx="12.923" fill="url(#paint1_linear_2531_1620)"/>
<rect x="3.21948" y="3.69238" width="245.561" height="60.9231" rx="12.923" fill="url(#paint2_linear_2531_1620)"/>
<rect x="6.43896" y="7.38477" width="239.122" height="53.5385" rx="11.0769" fill="url(#paint3_linear_2531_1620)"/>
<ellipse cx="2.90149" cy="1.99141" rx="2.90149" ry="1.99141" transform="matrix(0.73474 -0.678349 0.574531 0.818483 6.43896 11.3213)" fill="#FFFEE2"/>
<ellipse cx="2.90149" cy="1.99141" rx="2.90149" ry="1.99141" transform="matrix(0.734739 -0.67835 0.57453 0.818483 239.122 57.4751)" fill="#FFE638"/>
<g filter="url(#filter0_d_2531_1620)">
<mask id="path-8-outside-1_2531_1620" maskUnits="userSpaceOnUse" x="86" y="23" width="81" height="22" fill="black">
<rect fill="white" x="86" y="23" width="81" height="22"/>
<path d="M96.8347 43H89.2507C88.9467 43 88.7227 42.936 88.5787 42.808C88.4507 42.664 88.3867 42.44 88.3867 42.136V39.328C88.3867 39.024 88.4507 38.808 88.5787 38.68C88.7227 38.536 88.9467 38.464 89.2507 38.464H95.7067C95.9147 38.464 96.0667 38.4 96.1627 38.272C96.2747 38.128 96.3307 37.96 96.3307 37.768C96.3307 37.496 96.2747 37.296 96.1627 37.168C96.0667 37.04 95.9147 36.968 95.7067 36.952L92.1067 36.448C90.9867 36.288 90.0827 35.92 89.3947 35.344C88.7227 34.768 88.3867 33.808 88.3867 32.464V29.944C88.3867 28.584 88.8267 27.544 89.7067 26.824C90.5867 26.088 91.8027 25.72 93.3547 25.72H100.075C100.379 25.72 100.595 25.792 100.723 25.936C100.867 26.064 100.939 26.28 100.939 26.584V29.44C100.939 29.744 100.867 29.968 100.723 30.112C100.595 30.24 100.379 30.304 100.075 30.304H94.4827C94.2747 30.304 94.1147 30.376 94.0027 30.52C93.8907 30.648 93.8347 30.816 93.8347 31.024C93.8347 31.232 93.8907 31.408 94.0027 31.552C94.1147 31.696 94.2747 31.776 94.4827 31.792L98.0587 32.272C99.1787 32.432 100.083 32.8 100.771 33.376C101.459 33.952 101.803 34.912 101.803 36.256V38.776C101.803 40.136 101.355 41.184 100.459 41.92C99.5787 42.64 98.3707 43 96.8347 43ZM111.634 43H107.746C107.442 43 107.218 42.936 107.074 42.808C106.946 42.664 106.882 42.44 106.882 42.136V30.352H103.354C103.05 30.352 102.826 30.288 102.682 30.16C102.554 30.016 102.49 29.792 102.49 29.488V26.584C102.49 26.28 102.554 26.064 102.682 25.936C102.826 25.792 103.05 25.72 103.354 25.72H116.026C116.33 25.72 116.546 25.792 116.674 25.936C116.818 26.064 116.89 26.28 116.89 26.584V29.488C116.89 29.792 116.818 30.016 116.674 30.16C116.546 30.288 116.33 30.352 116.026 30.352H112.498V42.136C112.498 42.44 112.426 42.664 112.282 42.808C112.154 42.936 111.938 43 111.634 43ZM123.807 30.76L122.679 34.408H126.447L125.319 30.76C125.255 30.616 125.183 30.512 125.103 30.448C125.039 30.384 124.959 30.352 124.863 30.352H124.263C124.167 30.352 124.079 30.384 123.999 30.448C123.935 30.512 123.871 30.616 123.807 30.76ZM122.439 42.136C122.439 42.44 122.367 42.664 122.223 42.808C122.095 42.936 121.879 43 121.575 43H118.047C117.743 43 117.519 42.936 117.375 42.808C117.247 42.664 117.183 42.44 117.183 42.136V35.8C117.183 35.32 117.255 34.768 117.399 34.144C117.559 33.52 117.799 32.792 118.119 31.96L120.207 26.512C120.303 26.24 120.447 26.04 120.639 25.912C120.847 25.784 121.111 25.72 121.431 25.72H127.887C128.191 25.72 128.439 25.784 128.631 25.912C128.839 26.04 128.991 26.24 129.087 26.512L131.175 31.96C131.495 32.792 131.727 33.52 131.871 34.144C132.031 34.768 132.111 35.32 132.111 35.8V42.136C132.111 42.44 132.039 42.664 131.895 42.808C131.767 42.936 131.551 43 131.247 43H127.623C127.303 43 127.063 42.936 126.903 42.808C126.759 42.664 126.687 42.44 126.687 42.136V38.776H122.439V42.136ZM139.778 30.04V33.112H141.578C141.994 33.112 142.274 33.008 142.418 32.8C142.562 32.576 142.634 32.304 142.634 31.984V31.168C142.634 30.848 142.562 30.584 142.418 30.376C142.274 30.152 141.994 30.04 141.578 30.04H139.778ZM138.914 43H135.218C134.914 43 134.69 42.936 134.546 42.808C134.418 42.664 134.354 42.44 134.354 42.136V26.584C134.354 26.28 134.418 26.064 134.546 25.936C134.69 25.792 134.914 25.72 135.218 25.72H143.21C145.002 25.72 146.234 26.096 146.906 26.848C147.594 27.584 147.938 28.544 147.938 29.728V30.832C147.938 31.504 147.834 32.08 147.626 32.56C147.434 33.024 147.09 33.36 146.594 33.568C147.458 33.664 148.154 34.016 148.682 34.624C149.226 35.232 149.498 36.04 149.498 37.048V42.136C149.498 42.44 149.426 42.664 149.282 42.808C149.154 42.936 148.938 43 148.634 43H144.914C144.61 43 144.386 42.936 144.242 42.808C144.114 42.664 144.05 42.44 144.05 42.136V38.464C144.05 38.112 143.978 37.856 143.834 37.696C143.706 37.52 143.474 37.432 143.138 37.432H139.778V42.136C139.778 42.44 139.706 42.664 139.562 42.808C139.434 42.936 139.218 43 138.914 43ZM158.903 43H155.015C154.711 43 154.487 42.936 154.343 42.808C154.215 42.664 154.151 42.44 154.151 42.136V30.352H150.623C150.319 30.352 150.095 30.288 149.951 30.16C149.823 30.016 149.759 29.792 149.759 29.488V26.584C149.759 26.28 149.823 26.064 149.951 25.936C150.095 25.792 150.319 25.72 150.623 25.72H163.295C163.599 25.72 163.815 25.792 163.943 25.936C164.087 26.064 164.159 26.28 164.159 26.584V29.488C164.159 29.792 164.087 30.016 163.943 30.16C163.815 30.288 163.599 30.352 163.295 30.352H159.767V42.136C159.767 42.44 159.695 42.664 159.551 42.808C159.423 42.936 159.207 43 158.903 43Z"/>
</mask>
<path d="M96.8347 43H89.2507C88.9467 43 88.7227 42.936 88.5787 42.808C88.4507 42.664 88.3867 42.44 88.3867 42.136V39.328C88.3867 39.024 88.4507 38.808 88.5787 38.68C88.7227 38.536 88.9467 38.464 89.2507 38.464H95.7067C95.9147 38.464 96.0667 38.4 96.1627 38.272C96.2747 38.128 96.3307 37.96 96.3307 37.768C96.3307 37.496 96.2747 37.296 96.1627 37.168C96.0667 37.04 95.9147 36.968 95.7067 36.952L92.1067 36.448C90.9867 36.288 90.0827 35.92 89.3947 35.344C88.7227 34.768 88.3867 33.808 88.3867 32.464V29.944C88.3867 28.584 88.8267 27.544 89.7067 26.824C90.5867 26.088 91.8027 25.72 93.3547 25.72H100.075C100.379 25.72 100.595 25.792 100.723 25.936C100.867 26.064 100.939 26.28 100.939 26.584V29.44C100.939 29.744 100.867 29.968 100.723 30.112C100.595 30.24 100.379 30.304 100.075 30.304H94.4827C94.2747 30.304 94.1147 30.376 94.0027 30.52C93.8907 30.648 93.8347 30.816 93.8347 31.024C93.8347 31.232 93.8907 31.408 94.0027 31.552C94.1147 31.696 94.2747 31.776 94.4827 31.792L98.0587 32.272C99.1787 32.432 100.083 32.8 100.771 33.376C101.459 33.952 101.803 34.912 101.803 36.256V38.776C101.803 40.136 101.355 41.184 100.459 41.92C99.5787 42.64 98.3707 43 96.8347 43ZM111.634 43H107.746C107.442 43 107.218 42.936 107.074 42.808C106.946 42.664 106.882 42.44 106.882 42.136V30.352H103.354C103.05 30.352 102.826 30.288 102.682 30.16C102.554 30.016 102.49 29.792 102.49 29.488V26.584C102.49 26.28 102.554 26.064 102.682 25.936C102.826 25.792 103.05 25.72 103.354 25.72H116.026C116.33 25.72 116.546 25.792 116.674 25.936C116.818 26.064 116.89 26.28 116.89 26.584V29.488C116.89 29.792 116.818 30.016 116.674 30.16C116.546 30.288 116.33 30.352 116.026 30.352H112.498V42.136C112.498 42.44 112.426 42.664 112.282 42.808C112.154 42.936 111.938 43 111.634 43ZM123.807 30.76L122.679 34.408H126.447L125.319 30.76C125.255 30.616 125.183 30.512 125.103 30.448C125.039 30.384 124.959 30.352 124.863 30.352H124.263C124.167 30.352 124.079 30.384 123.999 30.448C123.935 30.512 123.871 30.616 123.807 30.76ZM122.439 42.136C122.439 42.44 122.367 42.664 122.223 42.808C122.095 42.936 121.879 43 121.575 43H118.047C117.743 43 117.519 42.936 117.375 42.808C117.247 42.664 117.183 42.44 117.183 42.136V35.8C117.183 35.32 117.255 34.768 117.399 34.144C117.559 33.52 117.799 32.792 118.119 31.96L120.207 26.512C120.303 26.24 120.447 26.04 120.639 25.912C120.847 25.784 121.111 25.72 121.431 25.72H127.887C128.191 25.72 128.439 25.784 128.631 25.912C128.839 26.04 128.991 26.24 129.087 26.512L131.175 31.96C131.495 32.792 131.727 33.52 131.871 34.144C132.031 34.768 132.111 35.32 132.111 35.8V42.136C132.111 42.44 132.039 42.664 131.895 42.808C131.767 42.936 131.551 43 131.247 43H127.623C127.303 43 127.063 42.936 126.903 42.808C126.759 42.664 126.687 42.44 126.687 42.136V38.776H122.439V42.136ZM139.778 30.04V33.112H141.578C141.994 33.112 142.274 33.008 142.418 32.8C142.562 32.576 142.634 32.304 142.634 31.984V31.168C142.634 30.848 142.562 30.584 142.418 30.376C142.274 30.152 141.994 30.04 141.578 30.04H139.778ZM138.914 43H135.218C134.914 43 134.69 42.936 134.546 42.808C134.418 42.664 134.354 42.44 134.354 42.136V26.584C134.354 26.28 134.418 26.064 134.546 25.936C134.69 25.792 134.914 25.72 135.218 25.72H143.21C145.002 25.72 146.234 26.096 146.906 26.848C147.594 27.584 147.938 28.544 147.938 29.728V30.832C147.938 31.504 147.834 32.08 147.626 32.56C147.434 33.024 147.09 33.36 146.594 33.568C147.458 33.664 148.154 34.016 148.682 34.624C149.226 35.232 149.498 36.04 149.498 37.048V42.136C149.498 42.44 149.426 42.664 149.282 42.808C149.154 42.936 148.938 43 148.634 43H144.914C144.61 43 144.386 42.936 144.242 42.808C144.114 42.664 144.05 42.44 144.05 42.136V38.464C144.05 38.112 143.978 37.856 143.834 37.696C143.706 37.52 143.474 37.432 143.138 37.432H139.778V42.136C139.778 42.44 139.706 42.664 139.562 42.808C139.434 42.936 139.218 43 138.914 43ZM158.903 43H155.015C154.711 43 154.487 42.936 154.343 42.808C154.215 42.664 154.151 42.44 154.151 42.136V30.352H150.623C150.319 30.352 150.095 30.288 149.951 30.16C149.823 30.016 149.759 29.792 149.759 29.488V26.584C149.759 26.28 149.823 26.064 149.951 25.936C150.095 25.792 150.319 25.72 150.623 25.72H163.295C163.599 25.72 163.815 25.792 163.943 25.936C164.087 26.064 164.159 26.28 164.159 26.584V29.488C164.159 29.792 164.087 30.016 163.943 30.16C163.815 30.288 163.599 30.352 163.295 30.352H159.767V42.136C159.767 42.44 159.695 42.664 159.551 42.808C159.423 42.936 159.207 43 158.903 43Z" fill="white"/>
<path d="M88.5787 42.808L87.0838 44.1367L87.162 44.2247L87.2499 44.3028L88.5787 42.808ZM88.5787 38.68L89.9929 40.0942H89.9929L88.5787 38.68ZM96.1627 38.272L94.584 37.0441L94.5732 37.058L94.5627 37.072L96.1627 38.272ZM96.1627 37.168L94.5627 38.368L94.6079 38.4283L94.6575 38.485L96.1627 37.168ZM95.7067 36.952L95.4294 38.9327L95.4911 38.9413L95.5533 38.9461L95.7067 36.952ZM92.1067 36.448L91.8238 38.4279L91.8294 38.4287L92.1067 36.448ZM89.3947 35.344L88.0931 36.8625L88.1019 36.8701L88.1108 36.8775L89.3947 35.344ZM89.7067 26.824L90.9731 28.3719L90.9815 28.3651L90.9898 28.3582L89.7067 26.824ZM100.723 25.936L99.2278 27.2647L99.306 27.3527L99.3939 27.4308L100.723 25.936ZM94.0027 30.52L95.5078 31.837L95.5459 31.7935L95.5814 31.7479L94.0027 30.52ZM94.4827 31.792L94.7487 29.8098L94.6926 29.8022L94.6361 29.7979L94.4827 31.792ZM98.0587 32.272L98.3415 30.2921L98.3331 30.2909L98.3247 30.2898L98.0587 32.272ZM100.771 33.376L102.055 31.8425L100.771 33.376ZM100.459 41.92L101.725 43.4679L101.728 43.4655L100.459 41.92ZM96.8347 41H89.2507V45H96.8347V41ZM89.2507 41C89.2313 41 89.2926 40.9971 89.4041 41.029C89.5213 41.0624 89.713 41.1404 89.9074 41.3132L87.2499 44.3028C87.9208 44.8992 88.7262 45 89.2507 45V41ZM90.0735 41.4793C90.2462 41.6736 90.3242 41.8654 90.3577 41.9826C90.3896 42.094 90.3867 42.1553 90.3867 42.136H86.3867C86.3867 42.6605 86.4875 43.4658 87.0838 44.1367L90.0735 41.4793ZM90.3867 42.136V39.328H86.3867V42.136H90.3867ZM90.3867 39.328C90.3867 39.3059 90.3902 39.3782 90.3523 39.5062C90.3124 39.6408 90.2154 39.8717 89.9929 40.0942L87.1644 37.2658C86.4751 37.9551 86.3867 38.8332 86.3867 39.328H90.3867ZM89.9929 40.0942C89.8076 40.2795 89.61 40.376 89.4667 40.4221C89.3977 40.4442 89.3429 40.4544 89.3079 40.4592C89.2729 40.4639 89.2527 40.464 89.2507 40.464V36.464C88.675 36.464 87.8336 36.5966 87.1644 37.2658L89.9929 40.0942ZM89.2507 40.464H95.7067V36.464H89.2507V40.464ZM95.7067 40.464C96.3375 40.464 97.1801 40.2487 97.7627 39.472L94.5627 37.072C94.7342 36.8433 94.9603 36.6739 95.2005 36.5727C95.4253 36.4781 95.6112 36.464 95.7067 36.464V40.464ZM97.7414 39.4999C98.1414 38.9855 98.3307 38.3797 98.3307 37.768H94.3307C94.3307 37.6671 94.3458 37.5419 94.3913 37.4055C94.4372 37.268 94.505 37.1456 94.584 37.0441L97.7414 39.4999ZM98.3307 37.768C98.3307 37.2857 98.2421 36.5073 97.6678 35.851L94.6575 38.485C94.4784 38.2803 94.3977 38.0783 94.3627 37.9533C94.3452 37.8908 94.3376 37.8424 94.3341 37.8131C94.3323 37.7981 94.3315 37.7867 94.3311 37.7794C94.3307 37.7721 94.3307 37.7682 94.3307 37.768H98.3307ZM97.7627 35.968C97.2234 35.249 96.4566 35.0038 95.86 34.9579L95.5533 38.9461C95.4701 38.9397 95.3114 38.9159 95.1205 38.8255C94.9184 38.7298 94.7196 38.5773 94.5627 38.368L97.7627 35.968ZM95.984 34.9713L92.384 34.4673L91.8294 38.4287L95.4294 38.9327L95.984 34.9713ZM92.3895 34.4681C91.5428 34.3471 91.0151 34.0923 90.6785 33.8105L88.1108 36.8775C89.1502 37.7477 90.4305 38.2289 91.8238 38.4279L92.3895 34.4681ZM90.6962 33.8255C90.656 33.791 90.3867 33.5293 90.3867 32.464H86.3867C86.3867 34.0867 86.7893 35.745 88.0931 36.8625L90.6962 33.8255ZM90.3867 32.464V29.944H86.3867V32.464H90.3867ZM90.3867 29.944C90.3867 29.0535 90.6497 28.6366 90.9731 28.3719L88.4402 25.2761C87.0037 26.4514 86.3867 28.1145 86.3867 29.944H90.3867ZM90.9898 28.3582C91.4005 28.0146 92.106 27.72 93.3547 27.72V23.72C91.4993 23.72 89.7728 24.1614 88.4235 25.2898L90.9898 28.3582ZM93.3547 27.72H100.075V23.72H93.3547V27.72ZM100.075 27.72C100.073 27.72 100.051 27.72 100.012 27.7146C99.9732 27.7092 99.9108 27.6976 99.8322 27.6714C99.6686 27.6168 99.4357 27.4985 99.2278 27.2647L102.217 24.6073C101.537 23.8419 100.624 23.72 100.075 23.72V27.72ZM99.3939 27.4308C99.1601 27.223 99.0418 26.99 98.9873 26.8265C98.9611 26.7478 98.9494 26.6855 98.9441 26.6468C98.9387 26.608 98.9387 26.5858 98.9387 26.584H102.939C102.939 26.0342 102.817 25.1215 102.051 24.4412L99.3939 27.4308ZM98.9387 26.584V29.44H102.939V26.584H98.9387ZM98.9387 29.44C98.9387 29.4379 98.9387 29.4178 98.9435 29.3828C98.9483 29.3477 98.9584 29.2929 98.9806 29.224C99.0267 29.0806 99.1232 28.8831 99.3084 28.6978L102.137 31.5262C102.806 30.857 102.939 30.0156 102.939 29.44H98.9387ZM99.3084 28.6978C99.531 28.4753 99.7619 28.3783 99.8965 28.3384C100.024 28.3005 100.097 28.304 100.075 28.304V32.304C100.569 32.304 101.448 32.2155 102.137 31.5262L99.3084 28.6978ZM100.075 28.304H94.4827V32.304H100.075V28.304ZM94.4827 28.304C93.7556 28.304 92.9713 28.5884 92.424 29.2921L95.5814 31.7479C95.4453 31.9228 95.2569 32.0786 95.0274 32.1818C94.806 32.2815 94.6098 32.304 94.4827 32.304V28.304ZM92.4975 29.203C91.9994 29.7723 91.8347 30.4442 91.8347 31.024H95.8347C95.8347 31.1878 95.7819 31.5237 95.5078 31.837L92.4975 29.203ZM91.8347 31.024C91.8347 31.6113 92.0013 32.2365 92.424 32.7799L95.5814 30.3241C95.672 30.4407 95.7399 30.5716 95.7825 30.7056C95.8242 30.8367 95.8347 30.9478 95.8347 31.024H91.8347ZM92.424 32.7799C92.9331 33.4345 93.6484 33.7337 94.3293 33.7861L94.6361 29.7979C94.7477 29.8065 94.9146 29.8379 95.1011 29.9311C95.2936 30.0274 95.4578 30.1652 95.5814 30.3241L92.424 32.7799ZM94.2166 33.7742L97.7926 34.2542L98.3247 30.2898L94.7487 29.8098L94.2166 33.7742ZM97.7758 34.2519C98.6225 34.3729 99.1502 34.6277 99.4868 34.9095L102.055 31.8425C101.015 30.9723 99.7348 30.4911 98.3415 30.2921L97.7758 34.2519ZM99.4868 34.9095C99.5326 34.9478 99.8027 35.2041 99.8027 36.256H103.803C103.803 34.6199 103.385 32.9562 102.055 31.8425L99.4868 34.9095ZM99.8027 36.256V38.776H103.803V36.256H99.8027ZM99.8027 38.776C99.8027 39.6528 99.5404 40.086 99.1892 40.3745L101.728 43.4655C103.169 42.282 103.803 40.6192 103.803 38.776H99.8027ZM99.1922 40.3721C98.7774 40.7114 98.0709 41 96.8347 41V45C98.6705 45 100.38 44.5686 101.725 43.4679L99.1922 40.3721ZM107.074 42.808L105.579 44.1367L105.657 44.2247L105.745 44.3028L107.074 42.808ZM106.882 30.352H108.882V28.352H106.882V30.352ZM102.682 30.16L101.187 31.4887L101.265 31.5767L101.353 31.6548L102.682 30.16ZM102.682 25.936L101.267 24.5218L101.267 24.5218L102.682 25.936ZM116.674 25.936L115.179 27.2647L115.257 27.3527L115.345 27.4308L116.674 25.936ZM112.498 30.352V28.352H110.498V30.352H112.498ZM112.282 42.808L110.867 41.3938V41.3938L112.282 42.808ZM111.634 41H107.746V45H111.634V41ZM107.746 41C107.726 41 107.788 40.9971 107.899 41.029C108.016 41.0624 108.208 41.1404 108.402 41.3132L105.745 44.3028C106.416 44.8992 107.221 45 107.746 45V41ZM108.568 41.4793C108.741 41.6736 108.819 41.8654 108.853 41.9826C108.885 42.094 108.882 42.1553 108.882 42.136H104.882C104.882 42.6605 104.982 43.4658 105.579 44.1367L108.568 41.4793ZM108.882 42.136V30.352H104.882V42.136H108.882ZM106.882 28.352H103.354V32.352H106.882V28.352ZM103.354 28.352C103.334 28.352 103.396 28.3491 103.507 28.381C103.624 28.4144 103.816 28.4924 104.01 28.6652L101.353 31.6548C102.024 32.2512 102.829 32.352 103.354 32.352V28.352ZM104.176 28.8313C104.349 29.0256 104.427 29.2174 104.461 29.3346C104.493 29.446 104.49 29.5073 104.49 29.488H100.49C100.49 30.0125 100.59 30.8178 101.187 31.4887L104.176 28.8313ZM104.49 29.488V26.584H100.49V29.488H104.49ZM104.49 26.584C104.49 26.5619 104.493 26.6342 104.455 26.7622C104.415 26.8968 104.318 27.1277 104.096 27.3502L101.267 24.5218C100.578 25.2111 100.49 26.0892 100.49 26.584H104.49ZM104.096 27.3502C103.911 27.5355 103.713 27.632 103.57 27.6781C103.501 27.7002 103.446 27.7104 103.411 27.7152C103.376 27.7199 103.356 27.72 103.354 27.72V23.72C102.778 23.72 101.937 23.8526 101.267 24.5218L104.096 27.3502ZM103.354 27.72H116.026V23.72H103.354V27.72ZM116.026 27.72C116.024 27.72 116.002 27.72 115.963 27.7146C115.924 27.7092 115.862 27.6976 115.783 27.6714C115.62 27.6168 115.387 27.4985 115.179 27.2647L118.168 24.6073C117.488 23.8419 116.575 23.72 116.026 23.72V27.72ZM115.345 27.4308C115.111 27.223 114.993 26.99 114.938 26.8265C114.912 26.7478 114.9 26.6855 114.895 26.6468C114.89 26.608 114.89 26.5858 114.89 26.584H118.89C118.89 26.0342 118.768 25.1215 118.002 24.4412L115.345 27.4308ZM114.89 26.584V29.488H118.89V26.584H114.89ZM114.89 29.488C114.89 29.4859 114.89 29.4658 114.894 29.4308C114.899 29.3957 114.909 29.3409 114.932 29.272C114.978 29.1286 115.074 28.9311 115.259 28.7458L118.088 31.5742C118.757 30.905 118.89 30.0636 118.89 29.488H114.89ZM115.259 28.7458C115.482 28.5233 115.713 28.4263 115.847 28.3864C115.975 28.3485 116.048 28.352 116.026 28.352V32.352C116.52 32.352 117.399 32.2635 118.088 31.5742L115.259 28.7458ZM116.026 28.352H112.498V32.352H116.026V28.352ZM110.498 30.352V42.136H114.498V30.352H110.498ZM110.498 42.136C110.498 42.1339 110.498 42.1138 110.502 42.0788C110.507 42.0437 110.517 41.9889 110.54 41.92C110.586 41.7766 110.682 41.5791 110.867 41.3938L113.696 44.2222C114.365 43.553 114.498 42.7116 114.498 42.136H110.498ZM110.867 41.3938C111.09 41.1713 111.321 41.0743 111.455 41.0344C111.583 40.9965 111.656 41 111.634 41V45C112.128 45 113.007 44.9115 113.696 44.2222L110.867 41.3938ZM123.807 30.76L121.979 29.9477L121.931 30.056L121.896 30.1692L123.807 30.76ZM122.679 34.408L120.768 33.8172L119.967 36.408H122.679V34.408ZM126.447 34.408V36.408H129.159L128.357 33.8172L126.447 34.408ZM125.319 30.76L127.229 30.1692L127.194 30.056L127.146 29.9477L125.319 30.76ZM125.103 30.448L123.688 31.8622L123.767 31.9405L123.853 32.0097L125.103 30.448ZM123.999 30.448L122.749 28.8863L122.663 28.9555L122.585 29.0338L123.999 30.448ZM122.223 42.808L120.809 41.3938V41.3938L122.223 42.808ZM117.375 42.808L115.88 44.1367L115.958 44.2247L116.046 44.3028L117.375 42.808ZM117.399 34.144L115.461 33.6472L115.455 33.6707L115.45 33.6943L117.399 34.144ZM118.119 31.96L119.985 32.678L119.986 32.6758L118.119 31.96ZM120.207 26.512L122.074 27.2278L122.084 27.2028L122.093 27.1776L120.207 26.512ZM120.639 25.912L119.591 24.2087L119.56 24.2277L119.529 24.2479L120.639 25.912ZM128.631 25.912L127.521 27.5761L127.552 27.5963L127.583 27.6153L128.631 25.912ZM129.087 26.512L127.201 27.1776L127.21 27.2028L127.219 27.2278L129.087 26.512ZM131.175 31.96L129.307 32.6758L129.308 32.678L131.175 31.96ZM131.871 34.144L129.922 34.5937L129.927 34.6173L129.933 34.6408L131.871 34.144ZM131.895 42.808L133.309 44.2222L133.309 44.2222L131.895 42.808ZM126.903 42.808L125.489 44.2222L125.567 44.3005L125.653 44.3697L126.903 42.808ZM126.687 38.776H128.687V36.776H126.687V38.776ZM122.439 38.776V36.776H120.439V38.776H122.439ZM121.896 30.1692L120.768 33.8172L124.589 34.9988L125.717 31.3508L121.896 30.1692ZM122.679 36.408H126.447V32.408H122.679V36.408ZM128.357 33.8172L127.229 30.1692L123.408 31.3508L124.536 34.9988L128.357 33.8172ZM127.146 29.9477C127.016 29.6543 126.781 29.2293 126.352 28.8863L123.853 32.0097C123.711 31.896 123.622 31.7841 123.572 31.7124C123.522 31.6403 123.498 31.5879 123.491 31.5723L127.146 29.9477ZM126.517 29.0338C126.053 28.5702 125.453 28.352 124.863 28.352V32.352C124.685 32.352 124.474 32.3217 124.252 32.233C124.028 32.1433 123.838 32.0119 123.688 31.8622L126.517 29.0338ZM124.863 28.352H124.263V32.352H124.863V28.352ZM124.263 28.352C123.681 28.352 123.158 28.559 122.749 28.8863L125.248 32.0097C124.999 32.209 124.653 32.352 124.263 32.352V28.352ZM122.585 29.0338C122.264 29.3545 122.08 29.7205 121.979 29.9477L125.634 31.5723C125.64 31.5596 125.632 31.5803 125.606 31.6222C125.583 31.6602 125.522 31.7532 125.413 31.8622L122.585 29.0338ZM120.439 42.136C120.439 42.1339 120.439 42.1138 120.444 42.0788C120.448 42.0437 120.459 41.9889 120.481 41.92C120.527 41.7766 120.623 41.5791 120.809 41.3938L123.637 44.2222C124.306 43.553 124.439 42.7116 124.439 42.136H120.439ZM120.809 41.3938C121.031 41.1713 121.262 41.0743 121.397 41.0344C121.525 40.9965 121.597 41 121.575 41V45C122.07 45 122.948 44.9115 123.637 44.2222L120.809 41.3938ZM121.575 41H118.047V45H121.575V41ZM118.047 41C118.027 41 118.089 40.9971 118.2 41.029C118.317 41.0624 118.509 41.1404 118.703 41.3132L116.046 44.3028C116.717 44.8992 117.522 45 118.047 45V41ZM118.87 41.4793C119.042 41.6736 119.12 41.8654 119.154 41.9826C119.186 42.094 119.183 42.1553 119.183 42.136H115.183C115.183 42.6605 115.284 43.4658 115.88 44.1367L118.87 41.4793ZM119.183 42.136V35.8H115.183V42.136H119.183ZM119.183 35.8C119.183 35.512 119.227 35.1159 119.347 34.5937L115.45 33.6943C115.282 34.4201 115.183 35.128 115.183 35.8H119.183ZM119.336 34.6408C119.471 34.1141 119.684 33.4629 119.985 32.678L116.252 31.242C115.914 32.1211 115.646 32.9259 115.461 33.6472L119.336 34.6408ZM119.986 32.6758L122.074 27.2278L118.339 25.7962L116.251 31.2442L119.986 32.6758ZM122.093 27.1776C122.081 27.2102 121.998 27.4096 121.748 27.5761L119.529 24.2479C118.896 24.6704 118.524 25.2698 118.321 25.8464L122.093 27.1776ZM121.687 27.6153C121.496 27.7328 121.369 27.72 121.431 27.72V23.72C120.853 23.72 120.197 23.8352 119.591 24.2087L121.687 27.6153ZM121.431 27.72H127.887V23.72H121.431V27.72ZM127.887 27.72C127.919 27.72 127.747 27.7268 127.521 27.5761L129.74 24.2479C129.13 23.8412 128.462 23.72 127.887 23.72V27.72ZM127.583 27.6153C127.47 27.5462 127.377 27.459 127.308 27.3682C127.242 27.2806 127.212 27.2088 127.201 27.1776L130.973 25.8464C130.753 25.2243 130.344 24.6182 129.679 24.2087L127.583 27.6153ZM127.219 27.2278L129.307 32.6758L133.042 31.2442L130.954 25.7962L127.219 27.2278ZM129.308 32.678C129.606 33.4537 129.805 34.0885 129.922 34.5937L133.819 33.6943C133.648 32.9515 133.383 32.1303 133.041 31.242L129.308 32.678ZM129.933 34.6408C130.065 35.1539 130.111 35.5335 130.111 35.8H134.111C134.111 35.1065 133.996 34.3821 133.808 33.6472L129.933 34.6408ZM130.111 35.8V42.136H134.111V35.8H130.111ZM130.111 42.136C130.111 42.1339 130.111 42.1138 130.116 42.0788C130.12 42.0437 130.131 41.9889 130.153 41.92C130.199 41.7766 130.295 41.5791 130.481 41.3938L133.309 44.2222C133.978 43.553 134.111 42.7116 134.111 42.136H130.111ZM130.481 41.3938C130.703 41.1713 130.934 41.0743 131.069 41.0344C131.197 40.9965 131.269 41 131.247 41V45C131.742 45 132.62 44.9115 133.309 44.2222L130.481 41.3938ZM131.247 41H127.623V45H131.247V41ZM127.623 41C127.59 41 127.63 40.996 127.718 41.0195C127.81 41.0441 127.975 41.1045 128.152 41.2463L125.653 44.3697C126.319 44.902 127.089 45 127.623 45V41ZM128.317 41.3938C128.502 41.5791 128.599 41.7766 128.645 41.92C128.667 41.9889 128.677 42.0437 128.682 42.0788C128.687 42.1138 128.687 42.1339 128.687 42.136H124.687C124.687 42.7116 124.819 43.553 125.489 44.2222L128.317 41.3938ZM128.687 42.136V38.776H124.687V42.136H128.687ZM126.687 36.776H122.439V40.776H126.687V36.776ZM120.439 38.776V42.136H124.439V38.776H120.439ZM139.778 30.04V28.04H137.778V30.04H139.778ZM139.778 33.112H137.778V35.112H139.778V33.112ZM142.418 32.8L144.062 33.9384L144.082 33.9103L144.1 33.8815L142.418 32.8ZM142.418 30.376L140.736 31.4575L140.754 31.4863L140.774 31.5144L142.418 30.376ZM134.546 42.808L133.051 44.1367L133.129 44.2247L133.217 44.3028L134.546 42.808ZM134.546 25.936L133.132 24.5218V24.5218L134.546 25.936ZM146.906 26.848L145.415 28.1807L145.43 28.1974L145.445 28.2138L146.906 26.848ZM147.626 32.56L145.791 31.7648L145.784 31.78L145.778 31.7953L147.626 32.56ZM146.594 33.568L145.821 31.7236L138.712 34.7046L146.373 35.5558L146.594 33.568ZM148.682 34.624L147.172 35.9354L147.182 35.9466L147.191 35.9576L148.682 34.624ZM149.282 42.808L150.696 44.2222V44.2222L149.282 42.808ZM144.242 42.808L142.747 44.1367L142.825 44.2247L142.913 44.3028L144.242 42.808ZM143.834 37.696L142.216 38.8723L142.278 38.9565L142.347 39.0339L143.834 37.696ZM139.778 37.432V35.432H137.778V37.432H139.778ZM139.562 42.808L138.148 41.3938V41.3938L139.562 42.808ZM137.778 30.04V33.112H141.778V30.04H137.778ZM139.778 35.112H141.578V31.112H139.778V35.112ZM141.578 35.112C142.223 35.112 143.354 34.9615 144.062 33.9384L140.774 31.6616C140.974 31.3714 141.231 31.2233 141.404 31.1591C141.555 31.1028 141.635 31.112 141.578 31.112V35.112ZM144.1 33.8815C144.49 33.2749 144.634 32.6093 144.634 31.984H140.634C140.634 31.9944 140.633 31.9682 140.647 31.9162C140.661 31.8618 140.688 31.7918 140.736 31.7185L144.1 33.8815ZM144.634 31.984V31.168H140.634V31.984H144.634ZM144.634 31.168C144.634 30.5492 144.493 29.859 144.062 29.2376L140.774 31.5144C140.631 31.309 140.634 31.1468 140.634 31.168H144.634ZM144.1 29.2945C143.414 28.2273 142.274 28.04 141.578 28.04V32.04C141.622 32.04 141.525 32.0479 141.357 31.981C141.164 31.9038 140.918 31.7407 140.736 31.4575L144.1 29.2945ZM141.578 28.04H139.778V32.04H141.578V28.04ZM138.914 41H135.218V45H138.914V41ZM135.218 41C135.199 41 135.26 40.9971 135.371 41.029C135.489 41.0624 135.68 41.1404 135.875 41.3132L133.217 44.3028C133.888 44.8992 134.694 45 135.218 45V41ZM136.041 41.4793C136.214 41.6736 136.292 41.8654 136.325 41.9826C136.357 42.094 136.354 42.1553 136.354 42.136H132.354C132.354 42.6605 132.455 43.4658 133.051 44.1367L136.041 41.4793ZM136.354 42.136V26.584H132.354V42.136H136.354ZM136.354 26.584C136.354 26.5619 136.357 26.6342 136.32 26.7622C136.28 26.8968 136.183 27.1277 135.96 27.3502L133.132 24.5218C132.442 25.2111 132.354 26.0892 132.354 26.584H136.354ZM135.96 27.3502C135.775 27.5355 135.577 27.632 135.434 27.6781C135.365 27.7002 135.31 27.7104 135.275 27.7152C135.24 27.7199 135.22 27.72 135.218 27.72V23.72C134.642 23.72 133.801 23.8526 133.132 24.5218L135.96 27.3502ZM135.218 27.72H143.21V23.72H135.218V27.72ZM143.21 27.72C144.846 27.72 145.33 28.0862 145.415 28.1807L148.397 25.5153C147.138 24.1058 145.158 23.72 143.21 23.72V27.72ZM145.445 28.2138C145.727 28.5155 145.938 28.9564 145.938 29.728H149.938C149.938 28.1316 149.461 26.6525 148.367 25.4822L145.445 28.2138ZM145.938 29.728V30.832H149.938V29.728H145.938ZM145.938 30.832C145.938 31.3051 145.864 31.5963 145.791 31.7648L149.461 33.3552C149.804 32.5637 149.938 31.7029 149.938 30.832H145.938ZM145.778 31.7953C145.778 31.7945 145.782 31.7851 145.792 31.7708C145.802 31.7562 145.814 31.7418 145.826 31.7292C145.839 31.7168 145.848 31.7105 145.85 31.7093C145.852 31.7083 145.843 31.714 145.821 31.7236L147.367 35.4124C148.312 35.0164 149.065 34.3133 149.474 33.3247L145.778 31.7953ZM146.373 35.5558C146.781 35.6011 147.001 35.7385 147.172 35.9354L150.192 33.3126C149.307 32.2935 148.135 31.7269 146.815 31.5802L146.373 35.5558ZM147.191 35.9576C147.335 36.1178 147.498 36.4112 147.498 37.048H151.498C151.498 35.6688 151.117 34.3462 150.172 33.2904L147.191 35.9576ZM147.498 37.048V42.136H151.498V37.048H147.498ZM147.498 42.136C147.498 42.1339 147.498 42.1138 147.503 42.0788C147.508 42.0437 147.518 41.9889 147.54 41.92C147.586 41.7766 147.682 41.5791 147.868 41.3938L150.696 44.2222C151.365 43.553 151.498 42.7116 151.498 42.136H147.498ZM147.868 41.3938C148.09 41.1713 148.321 41.0743 148.456 41.0344C148.584 40.9965 148.656 41 148.634 41V45C149.129 45 150.007 44.9115 150.696 44.2222L147.868 41.3938ZM148.634 41H144.914V45H148.634V41ZM144.914 41C144.895 41 144.956 40.9971 145.067 41.029C145.185 41.0624 145.376 41.1404 145.571 41.3132L142.913 44.3028C143.584 44.8992 144.39 45 144.914 45V41ZM145.737 41.4793C145.91 41.6736 145.988 41.8654 146.021 41.9826C146.053 42.094 146.05 42.1553 146.05 42.136H142.05C142.05 42.6605 142.151 43.4658 142.747 44.1367L145.737 41.4793ZM146.05 42.136V38.464H142.05V42.136H146.05ZM146.05 38.464C146.05 37.9126 145.95 37.0574 145.321 36.3581L142.347 39.0339C142.171 38.8383 142.099 38.6489 142.071 38.5495C142.044 38.4549 142.05 38.4158 142.05 38.464H146.05ZM145.451 36.5197C144.777 35.5921 143.755 35.432 143.138 35.432V39.432C143.136 39.432 143.11 39.432 143.064 39.4249C143.019 39.4179 142.946 39.4025 142.855 39.368C142.659 39.2939 142.412 39.1415 142.216 38.8723L145.451 36.5197ZM143.138 35.432H139.778V39.432H143.138V35.432ZM137.778 37.432V42.136H141.778V37.432H137.778ZM137.778 42.136C137.778 42.1339 137.778 42.1138 137.783 42.0788C137.788 42.0437 137.798 41.9889 137.82 41.92C137.866 41.7766 137.962 41.5791 138.148 41.3938L140.976 44.2222C141.645 43.553 141.778 42.7116 141.778 42.136H137.778ZM138.148 41.3938C138.37 41.1713 138.601 41.0743 138.736 41.0344C138.864 40.9965 138.936 41 138.914 41V45C139.409 45 140.287 44.9115 140.976 44.2222L138.148 41.3938ZM154.343 42.808L152.849 44.1367L152.927 44.2247L153.015 44.3028L154.343 42.808ZM154.151 30.352H156.151V28.352H154.151V30.352ZM149.951 30.16L148.457 31.4887L148.535 31.5767L148.623 31.6548L149.951 30.16ZM149.951 25.936L148.537 24.5218L148.537 24.5218L149.951 25.936ZM163.943 25.936L162.449 27.2647L162.527 27.3527L162.615 27.4308L163.943 25.936ZM159.767 30.352V28.352H157.767V30.352H159.767ZM159.551 42.808L158.137 41.3938V41.3938L159.551 42.808ZM158.903 41H155.015V45H158.903V41ZM155.015 41C154.996 41 155.057 40.9971 155.169 41.029C155.286 41.0624 155.478 41.1404 155.672 41.3132L153.015 44.3028C153.686 44.8992 154.491 45 155.015 45V41ZM155.838 41.4793C156.011 41.6736 156.089 41.8654 156.122 41.9826C156.154 42.094 156.151 42.1553 156.151 42.136H152.151C152.151 42.6605 152.252 43.4658 152.849 44.1367L155.838 41.4793ZM156.151 42.136V30.352H152.151V42.136H156.151ZM154.151 28.352H150.623V32.352H154.151V28.352ZM150.623 28.352C150.604 28.352 150.665 28.3491 150.777 28.381C150.894 28.4144 151.086 28.4924 151.28 28.6652L148.623 31.6548C149.294 32.2512 150.099 32.352 150.623 32.352V28.352ZM151.446 28.8313C151.619 29.0256 151.697 29.2174 151.73 29.3346C151.762 29.446 151.759 29.5073 151.759 29.488H147.759C147.759 30.0125 147.86 30.8178 148.457 31.4887L151.446 28.8313ZM151.759 29.488V26.584H147.759V29.488H151.759ZM151.759 26.584C151.759 26.5619 151.763 26.6342 151.725 26.7622C151.685 26.8968 151.588 27.1277 151.366 27.3502L148.537 24.5218C147.848 25.2111 147.759 26.0892 147.759 26.584H151.759ZM151.366 27.3502C151.18 27.5355 150.983 27.632 150.839 27.6781C150.77 27.7002 150.716 27.7104 150.681 27.7152C150.646 27.7199 150.625 27.72 150.623 27.72V23.72C150.048 23.72 149.206 23.8526 148.537 24.5218L151.366 27.3502ZM150.623 27.72H163.295V23.72H150.623V27.72ZM163.295 27.72C163.294 27.72 163.271 27.72 163.233 27.7146C163.194 27.7092 163.132 27.6976 163.053 27.6714C162.889 27.6168 162.656 27.4985 162.449 27.2647L165.438 24.6073C164.758 23.8419 163.845 23.72 163.295 23.72V27.72ZM162.615 27.4308C162.381 27.223 162.262 26.99 162.208 26.8265C162.182 26.7478 162.17 26.6855 162.165 26.6468C162.159 26.608 162.159 26.5858 162.159 26.584H166.159C166.159 26.0342 166.037 25.1215 165.272 24.4412L162.615 27.4308ZM162.159 26.584V29.488H166.159V26.584H162.159ZM162.159 29.488C162.159 29.4859 162.159 29.4658 162.164 29.4308C162.169 29.3957 162.179 29.3409 162.201 29.272C162.247 29.1286 162.344 28.9311 162.529 28.7458L165.358 31.5742C166.027 30.905 166.159 30.0636 166.159 29.488H162.159ZM162.529 28.7458C162.752 28.5233 162.983 28.4263 163.117 28.3864C163.245 28.3485 163.317 28.352 163.295 28.352V32.352C163.79 32.352 164.668 32.2635 165.358 31.5742L162.529 28.7458ZM163.295 28.352H159.767V32.352H163.295V28.352ZM157.767 30.352V42.136H161.767V30.352H157.767ZM157.767 42.136C157.767 42.1339 157.767 42.1138 157.772 42.0788C157.777 42.0437 157.787 41.9889 157.809 41.92C157.855 41.7766 157.952 41.5791 158.137 41.3938L160.966 44.2222C161.635 43.553 161.767 42.7116 161.767 42.136H157.767ZM158.137 41.3938C158.36 41.1713 158.591 41.0743 158.725 41.0344C158.853 40.9965 158.925 41 158.903 41V45C159.398 45 160.276 44.9115 160.966 44.2222L158.137 41.3938Z" fill="black" mask="url(#path-8-outside-1_2531_1620)"/>
</g>
<defs>
<filter id="filter0_d_2531_1620" x="88.3867" y="25.7202" width="75.7727" height="20.2798" filterUnits="userSpaceOnUse" color-interpolation-filters="sRGB">
<feFlood flood-opacity="0" result="BackgroundImageFix"/>
<feColorMatrix in="SourceAlpha" type="matrix" values="0 0 0 0 0 0 0 0 0 0 0 0 0 0 0 0 0 0 127 0" result="hardAlpha"/>
<feOffset dy="3"/>
<feComposite in2="hardAlpha" operator="out"/>
<feColorMatrix type="matrix" values="0 0 0 0 0 0 0 0 0 0 0 0 0 0 0 0 0 0 1 0"/>
<feBlend mode="normal" in2="BackgroundImageFix" result="effect1_dropShadow_2531_1620"/>
<feBlend mode="normal" in="SourceGraphic" in2="effect1_dropShadow_2531_1620" result="shape"/>
</filter>
<linearGradient id="paint0_linear_2531_1620" x1="130.547" y1="56.6507" x2="130.547" y2="70.1012" gradientUnits="userSpaceOnUse">
<stop stop-color="#DB8400"/>
<stop offset="1" stop-color="#B94100"/>
</linearGradient>
<linearGradient id="paint1_linear_2531_1620" x1="95.3048" y1="64.6155" x2="95.3048" y2="3.69238" gradientUnits="userSpaceOnUse">
<stop stop-color="#FFDE00"/>
<stop offset="1" stop-color="#FFE636"/>
</linearGradient>
<linearGradient id="paint2_linear_2531_1620" x1="8.90376" y1="8.04403" x2="25.8962" y2="25.5673" gradientUnits="userSpaceOnUse">
<stop stop-color="white"/>
<stop offset="1" stop-color="white" stop-opacity="0"/>
</linearGradient>
<linearGradient id="paint3_linear_2531_1620" x1="159.339" y1="15.1565" x2="159.339" y2="47.1069" gradientUnits="userSpaceOnUse">
<stop stop-color="#FFDC02"/>
<stop offset="1" stop-color="#FFBB00"/>
</linearGradient>
</defs>
</svg>
