<svg width="66" height="72" viewBox="0 0 66 72" fill="none" xmlns="http://www.w3.org/2000/svg">
<rect width="66" height="72" rx="16.6153" fill="black"/>
<rect x="3.21948" y="5.53857" width="59.561" height="62.7692" rx="14.7692" fill="url(#paint0_linear_2531_1142)"/>
<rect x="3.21948" y="3.69238" width="59.561" height="60.9231" rx="12.923" fill="url(#paint1_linear_2531_1142)"/>
<rect x="3.21948" y="3.69238" width="59.561" height="60.9231" rx="12.923" fill="url(#paint2_linear_2531_1142)"/>
<rect x="6.43896" y="7.38477" width="53.1219" height="53.5385" rx="11.0769" fill="url(#paint3_linear_2531_1142)"/>
<ellipse cx="2.90149" cy="1.99141" rx="2.90149" ry="1.99141" transform="matrix(0.73474 -0.678349 0.574531 0.818483 6.43896 11.3213)" fill="#FFFEE2"/>
<ellipse cx="2.90149" cy="1.99141" rx="2.90149" ry="1.99141" transform="matrix(0.73474 -0.678349 0.574531 0.818483 53.1218 57.4751)" fill="#FFE638"/>
<g filter="url(#filter0_d_2531_1142)">
<mask id="path-8-outside-1_2531_1142" maskUnits="userSpaceOnUse" x="9" y="28" width="49" height="15" fill="black">
<rect fill="white" x="9" y="28" width="49" height="15"/>
<path d="M20.2018 38.165C20.2018 38.625 20.1318 39.045 19.9918 39.425C19.8618 39.795 19.6218 40.115 19.2718 40.385C18.9318 40.645 18.4568 40.85 17.8468 41C17.2468 41.15 16.4818 41.225 15.5518 41.225C14.6218 41.225 13.8518 41.15 13.2418 41C12.6318 40.85 12.1518 40.645 11.8018 40.385C11.4618 40.115 11.2218 39.795 11.0818 39.425C10.9518 39.045 10.8868 38.625 10.8868 38.165V33.05C10.8868 32.59 10.9518 32.175 11.0818 31.805C11.2218 31.425 11.4618 31.1 11.8018 30.83C12.1518 30.56 12.6318 30.35 13.2418 30.2C13.8518 30.05 14.6218 29.975 15.5518 29.975C16.4818 29.975 17.2468 30.05 17.8468 30.2C18.4568 30.35 18.9318 30.56 19.2718 30.83C19.6218 31.1 19.8618 31.425 19.9918 31.805C20.1318 32.175 20.2018 32.59 20.2018 33.05V38.165ZM14.2918 37.625C14.2918 37.825 14.3668 37.995 14.5168 38.135C14.6668 38.265 15.0118 38.33 15.5518 38.33C16.0918 38.33 16.4368 38.265 16.5868 38.135C16.7368 37.995 16.8118 37.825 16.8118 37.625V33.59C16.8118 33.4 16.7368 33.24 16.5868 33.11C16.4368 32.97 16.0918 32.9 15.5518 32.9C15.0118 32.9 14.6668 32.97 14.5168 33.11C14.3668 33.24 14.2918 33.4 14.2918 33.59V37.625ZM24.0764 41H21.7514C21.5614 41 21.4214 40.96 21.3314 40.88C21.2514 40.79 21.2114 40.65 21.2114 40.46V30.74C21.2114 30.55 21.2514 30.415 21.3314 30.335C21.4214 30.245 21.5614 30.2 21.7514 30.2H28.4414C28.6314 30.2 28.7664 30.245 28.8464 30.335C28.9364 30.415 28.9814 30.55 28.9814 30.74V32.525C28.9814 32.715 28.9364 32.855 28.8464 32.945C28.7664 33.025 28.6314 33.065 28.4414 33.065H24.6164V34.625H27.2264C27.4164 34.625 27.5514 34.67 27.6314 34.76C27.7214 34.84 27.7664 34.975 27.7664 35.165V36.965C27.7664 37.155 27.7214 37.295 27.6314 37.385C27.5514 37.465 27.4164 37.505 27.2264 37.505H24.6164V40.46C24.6164 40.65 24.5714 40.79 24.4814 40.88C24.4014 40.96 24.2664 41 24.0764 41ZM32.4488 41H30.1238C29.9338 41 29.7938 40.96 29.7038 40.88C29.6238 40.79 29.5838 40.65 29.5838 40.46V30.74C29.5838 30.55 29.6238 30.415 29.7038 30.335C29.7938 30.245 29.9338 30.2 30.1238 30.2H36.8138C37.0038 30.2 37.1388 30.245 37.2188 30.335C37.3088 30.415 37.3538 30.55 37.3538 30.74V32.525C37.3538 32.715 37.3088 32.855 37.2188 32.945C37.1388 33.025 37.0038 33.065 36.8138 33.065H32.9888V34.625H35.5988C35.7888 34.625 35.9238 34.67 36.0038 34.76C36.0938 34.84 36.1388 34.975 36.1388 35.165V36.965C36.1388 37.155 36.0938 37.295 36.0038 37.385C35.9238 37.465 35.7888 37.505 35.5988 37.505H32.9888V40.46C32.9888 40.65 32.9438 40.79 32.8538 40.88C32.7738 40.96 32.6388 41 32.4488 41ZM45.4563 41H38.4963C38.3063 41 38.1663 40.96 38.0763 40.88C37.9963 40.79 37.9563 40.65 37.9563 40.46V30.74C37.9563 30.55 37.9963 30.415 38.0763 30.335C38.1663 30.245 38.3063 30.2 38.4963 30.2H45.4563C45.6463 30.2 45.7813 30.245 45.8613 30.335C45.9513 30.415 45.9963 30.55 45.9963 30.74V32.495C45.9963 32.685 45.9513 32.825 45.8613 32.915C45.7813 32.995 45.6463 33.035 45.4563 33.035H41.3163V34.19H44.2413C44.4313 34.19 44.5663 34.235 44.6463 34.325C44.7363 34.405 44.7813 34.54 44.7813 34.73V36.335C44.7813 36.525 44.7363 36.665 44.6463 36.755C44.5663 36.835 44.4313 36.875 44.2413 36.875H41.3163V38.165H45.4563C45.6463 38.165 45.7813 38.21 45.8613 38.3C45.9513 38.38 45.9963 38.515 45.9963 38.705V40.46C45.9963 40.65 45.9513 40.79 45.8613 40.88C45.7813 40.96 45.6463 41 45.4563 41ZM50.2607 32.9V34.82H51.3857C51.6457 34.82 51.8207 34.755 51.9107 34.625C52.0007 34.485 52.0457 34.315 52.0457 34.115V33.605C52.0457 33.405 52.0007 33.24 51.9107 33.11C51.8207 32.97 51.6457 32.9 51.3857 32.9H50.2607ZM49.7207 41H47.4107C47.2207 41 47.0807 40.96 46.9907 40.88C46.9107 40.79 46.8707 40.65 46.8707 40.46V30.74C46.8707 30.55 46.9107 30.415 46.9907 30.335C47.0807 30.245 47.2207 30.2 47.4107 30.2H52.4057C53.5257 30.2 54.2957 30.435 54.7157 30.905C55.1457 31.365 55.3607 31.965 55.3607 32.705V33.395C55.3607 33.815 55.2957 34.175 55.1657 34.475C55.0457 34.765 54.8307 34.975 54.5207 35.105C55.0607 35.165 55.4957 35.385 55.8257 35.765C56.1657 36.145 56.3357 36.65 56.3357 37.28V40.46C56.3357 40.65 56.2907 40.79 56.2007 40.88C56.1207 40.96 55.9857 41 55.7957 41H53.4707C53.2807 41 53.1407 40.96 53.0507 40.88C52.9707 40.79 52.9307 40.65 52.9307 40.46V38.165C52.9307 37.945 52.8857 37.785 52.7957 37.685C52.7157 37.575 52.5707 37.52 52.3607 37.52H50.2607V40.46C50.2607 40.65 50.2157 40.79 50.1257 40.88C50.0457 40.96 49.9107 41 49.7207 41Z"/>
</mask>
<path d="M20.2018 38.165C20.2018 38.625 20.1318 39.045 19.9918 39.425C19.8618 39.795 19.6218 40.115 19.2718 40.385C18.9318 40.645 18.4568 40.85 17.8468 41C17.2468 41.15 16.4818 41.225 15.5518 41.225C14.6218 41.225 13.8518 41.15 13.2418 41C12.6318 40.85 12.1518 40.645 11.8018 40.385C11.4618 40.115 11.2218 39.795 11.0818 39.425C10.9518 39.045 10.8868 38.625 10.8868 38.165V33.05C10.8868 32.59 10.9518 32.175 11.0818 31.805C11.2218 31.425 11.4618 31.1 11.8018 30.83C12.1518 30.56 12.6318 30.35 13.2418 30.2C13.8518 30.05 14.6218 29.975 15.5518 29.975C16.4818 29.975 17.2468 30.05 17.8468 30.2C18.4568 30.35 18.9318 30.56 19.2718 30.83C19.6218 31.1 19.8618 31.425 19.9918 31.805C20.1318 32.175 20.2018 32.59 20.2018 33.05V38.165ZM14.2918 37.625C14.2918 37.825 14.3668 37.995 14.5168 38.135C14.6668 38.265 15.0118 38.33 15.5518 38.33C16.0918 38.33 16.4368 38.265 16.5868 38.135C16.7368 37.995 16.8118 37.825 16.8118 37.625V33.59C16.8118 33.4 16.7368 33.24 16.5868 33.11C16.4368 32.97 16.0918 32.9 15.5518 32.9C15.0118 32.9 14.6668 32.97 14.5168 33.11C14.3668 33.24 14.2918 33.4 14.2918 33.59V37.625ZM24.0764 41H21.7514C21.5614 41 21.4214 40.96 21.3314 40.88C21.2514 40.79 21.2114 40.65 21.2114 40.46V30.74C21.2114 30.55 21.2514 30.415 21.3314 30.335C21.4214 30.245 21.5614 30.2 21.7514 30.2H28.4414C28.6314 30.2 28.7664 30.245 28.8464 30.335C28.9364 30.415 28.9814 30.55 28.9814 30.74V32.525C28.9814 32.715 28.9364 32.855 28.8464 32.945C28.7664 33.025 28.6314 33.065 28.4414 33.065H24.6164V34.625H27.2264C27.4164 34.625 27.5514 34.67 27.6314 34.76C27.7214 34.84 27.7664 34.975 27.7664 35.165V36.965C27.7664 37.155 27.7214 37.295 27.6314 37.385C27.5514 37.465 27.4164 37.505 27.2264 37.505H24.6164V40.46C24.6164 40.65 24.5714 40.79 24.4814 40.88C24.4014 40.96 24.2664 41 24.0764 41ZM32.4488 41H30.1238C29.9338 41 29.7938 40.96 29.7038 40.88C29.6238 40.79 29.5838 40.65 29.5838 40.46V30.74C29.5838 30.55 29.6238 30.415 29.7038 30.335C29.7938 30.245 29.9338 30.2 30.1238 30.2H36.8138C37.0038 30.2 37.1388 30.245 37.2188 30.335C37.3088 30.415 37.3538 30.55 37.3538 30.74V32.525C37.3538 32.715 37.3088 32.855 37.2188 32.945C37.1388 33.025 37.0038 33.065 36.8138 33.065H32.9888V34.625H35.5988C35.7888 34.625 35.9238 34.67 36.0038 34.76C36.0938 34.84 36.1388 34.975 36.1388 35.165V36.965C36.1388 37.155 36.0938 37.295 36.0038 37.385C35.9238 37.465 35.7888 37.505 35.5988 37.505H32.9888V40.46C32.9888 40.65 32.9438 40.79 32.8538 40.88C32.7738 40.96 32.6388 41 32.4488 41ZM45.4563 41H38.4963C38.3063 41 38.1663 40.96 38.0763 40.88C37.9963 40.79 37.9563 40.65 37.9563 40.46V30.74C37.9563 30.55 37.9963 30.415 38.0763 30.335C38.1663 30.245 38.3063 30.2 38.4963 30.2H45.4563C45.6463 30.2 45.7813 30.245 45.8613 30.335C45.9513 30.415 45.9963 30.55 45.9963 30.74V32.495C45.9963 32.685 45.9513 32.825 45.8613 32.915C45.7813 32.995 45.6463 33.035 45.4563 33.035H41.3163V34.19H44.2413C44.4313 34.19 44.5663 34.235 44.6463 34.325C44.7363 34.405 44.7813 34.54 44.7813 34.73V36.335C44.7813 36.525 44.7363 36.665 44.6463 36.755C44.5663 36.835 44.4313 36.875 44.2413 36.875H41.3163V38.165H45.4563C45.6463 38.165 45.7813 38.21 45.8613 38.3C45.9513 38.38 45.9963 38.515 45.9963 38.705V40.46C45.9963 40.65 45.9513 40.79 45.8613 40.88C45.7813 40.96 45.6463 41 45.4563 41ZM50.2607 32.9V34.82H51.3857C51.6457 34.82 51.8207 34.755 51.9107 34.625C52.0007 34.485 52.0457 34.315 52.0457 34.115V33.605C52.0457 33.405 52.0007 33.24 51.9107 33.11C51.8207 32.97 51.6457 32.9 51.3857 32.9H50.2607ZM49.7207 41H47.4107C47.2207 41 47.0807 40.96 46.9907 40.88C46.9107 40.79 46.8707 40.65 46.8707 40.46V30.74C46.8707 30.55 46.9107 30.415 46.9907 30.335C47.0807 30.245 47.2207 30.2 47.4107 30.2H52.4057C53.5257 30.2 54.2957 30.435 54.7157 30.905C55.1457 31.365 55.3607 31.965 55.3607 32.705V33.395C55.3607 33.815 55.2957 34.175 55.1657 34.475C55.0457 34.765 54.8307 34.975 54.5207 35.105C55.0607 35.165 55.4957 35.385 55.8257 35.765C56.1657 36.145 56.3357 36.65 56.3357 37.28V40.46C56.3357 40.65 56.2907 40.79 56.2007 40.88C56.1207 40.96 55.9857 41 55.7957 41H53.4707C53.2807 41 53.1407 40.96 53.0507 40.88C52.9707 40.79 52.9307 40.65 52.9307 40.46V38.165C52.9307 37.945 52.8857 37.785 52.7957 37.685C52.7157 37.575 52.5707 37.52 52.3607 37.52H50.2607V40.46C50.2607 40.65 50.2157 40.79 50.1257 40.88C50.0457 40.96 49.9107 41 49.7207 41Z" fill="white"/>
<path d="M19.9918 39.425L19.0535 39.0793L19.0508 39.0864L19.0483 39.0935L19.9918 39.425ZM19.2718 40.385L19.8793 41.1794L19.8826 41.1768L19.2718 40.385ZM17.8468 41L17.608 40.0289L17.6043 40.0299L17.8468 41ZM13.2418 41L13.003 41.9711L13.003 41.9711L13.2418 41ZM11.8018 40.385L11.1799 41.1681L11.1925 41.1781L11.2055 41.1877L11.8018 40.385ZM11.0818 39.425L10.1356 39.7487L10.1408 39.7639L10.1465 39.7789L11.0818 39.425ZM11.0818 31.805L10.1435 31.4593L10.1408 31.4664L10.1383 31.4735L11.0818 31.805ZM11.8018 30.83L11.1909 30.0381L11.1799 30.0469L11.8018 30.83ZM13.2418 30.2L13.003 29.2289L13.003 29.2289L13.2418 30.2ZM17.8468 30.2L17.6043 31.1701L17.608 31.1711L17.8468 30.2ZM19.2718 30.83L18.6499 31.6132L18.661 31.6218L19.2718 30.83ZM19.9918 31.805L19.0456 32.1287L19.0508 32.1439L19.0565 32.1589L19.9918 31.805ZM14.5168 38.135L13.8345 38.8661L13.8479 38.8786L13.8619 38.8907L14.5168 38.135ZM16.5868 38.135L17.2417 38.8907L17.2556 38.8786L17.2691 38.8661L16.5868 38.135ZM16.5868 33.11L15.9045 33.8411L15.9179 33.8536L15.9319 33.8657L16.5868 33.11ZM14.5168 33.11L15.1717 33.8657L15.1856 33.8536L15.1991 33.8411L14.5168 33.11ZM19.2018 38.165C19.2018 38.5229 19.1475 38.824 19.0535 39.0793L20.9301 39.7707C21.1161 39.266 21.2018 38.7271 21.2018 38.165H19.2018ZM19.0483 39.0935C18.9903 39.2586 18.878 39.4258 18.661 39.5932L19.8826 41.1768C20.3656 40.8042 20.7333 40.3314 20.9353 39.7565L19.0483 39.0935ZM18.6643 39.5906C18.4725 39.7374 18.1415 39.8977 17.608 40.0289L18.0856 41.9711C18.7721 41.8023 19.3911 41.5526 19.8792 41.1794L18.6643 39.5906ZM17.6043 40.0299C17.1126 40.1528 16.4366 40.225 15.5518 40.225V42.225C16.527 42.225 17.381 42.1472 18.0893 41.9701L17.6043 40.0299ZM15.5518 40.225C14.6677 40.225 13.9848 40.1529 13.4806 40.0289L13.003 41.9711C13.7188 42.1471 14.5759 42.225 15.5518 42.225V40.225ZM13.4806 40.0289C12.9474 39.8978 12.6052 39.7361 12.3981 39.5823L11.2055 41.1877C11.6984 41.5539 12.3162 41.8022 13.003 41.9711L13.4806 40.0289ZM12.4237 39.6019C12.2108 39.4328 12.0871 39.2562 12.0171 39.0711L10.1465 39.7789C10.3565 40.3338 10.7128 40.7972 11.1799 41.1681L12.4237 39.6019ZM12.028 39.1013C11.9384 38.8394 11.8868 38.5306 11.8868 38.165H9.8868C9.8868 38.7194 9.96522 39.2506 10.1356 39.7487L12.028 39.1013ZM11.8868 38.165V33.05H9.8868V38.165H11.8868ZM11.8868 33.05C11.8868 32.6838 11.9385 32.3833 12.0253 32.1365L10.1383 31.4735C9.96507 31.9667 9.8868 32.4962 9.8868 33.05H11.8868ZM12.0201 32.1507C12.0922 31.9552 12.2165 31.7776 12.4237 31.6131L11.1799 30.0469C10.7071 30.4224 10.3514 30.8948 10.1435 31.4593L12.0201 32.1507ZM12.4126 31.6218C12.6163 31.4647 12.953 31.3008 13.4806 31.1711L13.003 29.2289C12.3106 29.3992 11.6873 29.6553 11.191 30.0382L12.4126 31.6218ZM13.4806 31.1711C13.9848 31.0471 14.6677 30.975 15.5518 30.975V28.975C14.5759 28.975 13.7188 29.0529 13.003 29.2289L13.4806 31.1711ZM15.5518 30.975C16.4366 30.975 17.1126 31.0472 17.6043 31.1701L18.0893 29.2299C17.381 29.0528 16.527 28.975 15.5518 28.975V30.975ZM17.608 31.1711C18.1359 31.3009 18.4613 31.4633 18.6499 31.6131L19.8937 30.0469C19.4023 29.6567 18.7777 29.3991 18.0856 29.2289L17.608 31.1711ZM18.661 31.6218C18.872 31.7845 18.9854 31.9527 19.0456 32.1287L20.938 31.4813C20.7382 30.8973 20.3716 30.4155 19.8826 30.0382L18.661 31.6218ZM19.0565 32.1589C19.1474 32.399 19.2018 32.6915 19.2018 33.05H21.2018C21.2018 32.4884 21.1162 31.951 20.9271 31.4511L19.0565 32.1589ZM19.2018 33.05V38.165H21.2018V33.05H19.2018ZM13.2918 37.625C13.2918 38.1102 13.4878 38.5425 13.8345 38.8661L15.1991 37.4039C15.2126 37.4166 15.2404 37.4478 15.263 37.4989C15.2858 37.5505 15.2918 37.5968 15.2918 37.625H13.2918ZM13.8619 38.8907C14.1379 39.1299 14.4721 39.2205 14.7029 39.264C14.9597 39.3123 15.249 39.33 15.5518 39.33V37.33C15.3146 37.33 15.1614 37.3152 15.0732 37.2985C15.0305 37.2905 15.0204 37.2852 15.0324 37.2899C15.0423 37.2938 15.1001 37.3172 15.1717 37.3793L13.8619 38.8907ZM15.5518 39.33C15.8546 39.33 16.1439 39.3123 16.4007 39.264C16.6315 39.2205 16.9657 39.1299 17.2417 38.8907L15.9319 37.3793C16.0035 37.3172 16.0613 37.2938 16.0712 37.2899C16.0832 37.2852 16.0731 37.2905 16.0304 37.2985C15.9422 37.3152 15.789 37.33 15.5518 37.33V39.33ZM17.2691 38.8661C17.6158 38.5425 17.8118 38.1102 17.8118 37.625H15.8118C15.8118 37.5968 15.8178 37.5505 15.8406 37.4989C15.8632 37.4478 15.891 37.4166 15.9045 37.4039L17.2691 38.8661ZM17.8118 37.625V33.59H15.8118V37.625H17.8118ZM17.8118 33.59C17.8118 33.0955 17.5997 32.6646 17.2417 32.3543L15.9319 33.8657C15.9142 33.8503 15.8789 33.8134 15.8501 33.7519C15.8207 33.6893 15.8118 33.6305 15.8118 33.59H17.8118ZM17.2691 32.3789C16.9937 32.1219 16.6539 32.0211 16.4144 31.9725C16.1516 31.9191 15.8572 31.9 15.5518 31.9V33.9C15.7864 33.9 15.9345 33.9159 16.0167 33.9325C16.0562 33.9405 16.0626 33.9452 16.0472 33.9387C16.033 33.9327 15.9743 33.9062 15.9045 33.8411L17.2691 32.3789ZM15.5518 31.9C15.2464 31.9 14.952 31.9191 14.6892 31.9725C14.4497 32.0211 14.1099 32.1219 13.8345 32.3789L15.1991 33.8411C15.1293 33.9062 15.0706 33.9327 15.0564 33.9387C15.041 33.9452 15.0474 33.9405 15.0869 33.9325C15.1691 33.9159 15.3172 33.9 15.5518 33.9V31.9ZM13.8619 32.3543C13.5039 32.6646 13.2918 33.0955 13.2918 33.59H15.2918C15.2918 33.6305 15.2829 33.6893 15.2535 33.7519C15.2247 33.8134 15.1894 33.8503 15.1717 33.8657L13.8619 32.3543ZM13.2918 33.59V37.625H15.2918V33.59H13.2918ZM21.3314 40.88L20.584 41.5444L20.623 41.5883L20.667 41.6274L21.3314 40.88ZM21.3314 30.335L20.6243 29.6279L20.6243 29.6279L21.3314 30.335ZM28.8464 30.335L28.099 30.9994L28.138 31.0433L28.182 31.0824L28.8464 30.335ZM24.6164 33.065V32.065H23.6164V33.065H24.6164ZM24.6164 34.625H23.6164V35.625H24.6164V34.625ZM27.6314 34.76L26.884 35.4244L26.923 35.4683L26.967 35.5074L27.6314 34.76ZM27.6314 37.385L26.9243 36.6779L26.9243 36.6779L27.6314 37.385ZM24.6164 37.505V36.505H23.6164V37.505H24.6164ZM24.4814 40.88L23.7743 40.1729L23.7743 40.1729L24.4814 40.88ZM24.0764 40H21.7514V42H24.0764V40ZM21.7514 40C21.7227 40 21.7369 39.9966 21.7786 40.0085C21.8232 40.0212 21.9075 40.0542 21.9957 40.1326L20.667 41.6274C21.0205 41.9416 21.4511 42 21.7514 42V40ZM22.0788 40.2156C22.1572 40.3038 22.1902 40.3882 22.2029 40.4328C22.2148 40.4745 22.2114 40.4887 22.2114 40.46H20.2114C20.2114 40.7602 20.2698 41.1909 20.584 41.5444L22.0788 40.2156ZM22.2114 40.46V30.74H20.2114V40.46H22.2114ZM22.2114 30.74C22.2114 30.71 22.2151 30.7298 22.2002 30.7803C22.1842 30.8342 22.1417 30.9388 22.0385 31.0421L20.6243 29.6279C20.2636 29.9885 20.2114 30.4546 20.2114 30.74H22.2114ZM22.0385 31.0421C21.8659 31.2147 21.6972 31.2 21.7514 31.2V29.2C21.4256 29.2 20.9769 29.2753 20.6243 29.6279L22.0385 31.0421ZM21.7514 31.2H28.4414V29.2H21.7514V31.2ZM28.4414 31.2C28.4626 31.2 28.4311 31.2032 28.3689 31.1824C28.3006 31.1597 28.1949 31.1073 28.099 30.9994L29.5938 29.6706C29.2376 29.27 28.7542 29.2 28.4414 29.2V31.2ZM28.182 31.0824C28.0741 30.9865 28.0217 30.8808 27.9989 30.8125C27.9782 30.7503 27.9814 30.7188 27.9814 30.74H29.9814C29.9814 30.4271 29.9114 29.9437 29.5107 29.5876L28.182 31.0824ZM27.9814 30.74V32.525H29.9814V30.74H27.9814ZM27.9814 32.525C27.9814 32.5792 27.9667 32.4105 28.1393 32.2379L29.5535 33.6521C29.9061 33.2995 29.9814 32.8508 29.9814 32.525H27.9814ZM28.1393 32.2379C28.2425 32.1346 28.3472 32.0921 28.401 32.0762C28.4515 32.0612 28.4714 32.065 28.4414 32.065V34.065C28.7268 34.065 29.1928 34.0128 29.5535 33.6521L28.1393 32.2379ZM28.4414 32.065H24.6164V34.065H28.4414V32.065ZM23.6164 33.065V34.625H25.6164V33.065H23.6164ZM24.6164 35.625H27.2264V33.625H24.6164V35.625ZM27.2264 35.625C27.2476 35.625 27.2161 35.6282 27.1539 35.6074C27.0856 35.5847 26.9799 35.5323 26.884 35.4244L28.3788 34.0956C28.0226 33.695 27.5392 33.625 27.2264 33.625V35.625ZM26.967 35.5074C26.8591 35.4115 26.8067 35.3058 26.7839 35.2375C26.7632 35.1753 26.7664 35.1438 26.7664 35.165H28.7664C28.7664 34.8521 28.6964 34.3687 28.2957 34.0126L26.967 35.5074ZM26.7664 35.165V36.965H28.7664V35.165H26.7664ZM26.7664 36.965C26.7664 37.0192 26.7517 36.8505 26.9243 36.6779L28.3385 38.0921C28.6911 37.7395 28.7664 37.2908 28.7664 36.965H26.7664ZM26.9243 36.6779C27.0275 36.5746 27.1322 36.5321 27.186 36.5162C27.2365 36.5012 27.2564 36.505 27.2264 36.505V38.505C27.5118 38.505 27.9778 38.4528 28.3385 38.0921L26.9243 36.6779ZM27.2264 36.505H24.6164V38.505H27.2264V36.505ZM23.6164 37.505V40.46H25.6164V37.505H23.6164ZM23.6164 40.46C23.6164 40.5142 23.6017 40.3455 23.7743 40.1729L25.1885 41.5871C25.5411 41.2345 25.6164 40.7858 25.6164 40.46H23.6164ZM23.7743 40.1729C23.8775 40.0696 23.9822 40.0271 24.036 40.0112C24.0865 39.9962 24.1064 40 24.0764 40V42C24.3618 42 24.8278 41.9478 25.1885 41.5871L23.7743 40.1729ZM29.7038 40.88L28.9564 41.5444L28.9955 41.5883L29.0395 41.6274L29.7038 40.88ZM29.7038 30.335L28.9967 29.6279L28.9967 29.6279L29.7038 30.335ZM37.2188 30.335L36.4714 30.9994L36.5105 31.0433L36.5545 31.0824L37.2188 30.335ZM32.9888 33.065V32.065H31.9888V33.065H32.9888ZM32.9888 34.625H31.9888V35.625H32.9888V34.625ZM36.0038 34.76L35.2564 35.4244L35.2955 35.4683L35.3395 35.5074L36.0038 34.76ZM36.0038 37.385L35.2967 36.6779L35.2967 36.6779L36.0038 37.385ZM32.9888 37.505V36.505H31.9888V37.505H32.9888ZM32.8538 40.88L32.1467 40.1729L32.1467 40.1729L32.8538 40.88ZM32.4488 40H30.1238V42H32.4488V40ZM30.1238 40C30.0952 40 30.1093 39.9966 30.151 40.0085C30.1956 40.0212 30.28 40.0542 30.3682 40.1326L29.0395 41.6274C29.3929 41.9416 29.8236 42 30.1238 42V40ZM30.4512 40.2156C30.5296 40.3038 30.5626 40.3882 30.5754 40.4328C30.5873 40.4745 30.5838 40.4887 30.5838 40.46H28.5838C28.5838 40.7602 28.6422 41.1909 28.9564 41.5444L30.4512 40.2156ZM30.5838 40.46V30.74H28.5838V40.46H30.5838ZM30.5838 30.74C30.5838 30.71 30.5876 30.7298 30.5726 30.7803C30.5567 30.8342 30.5142 30.9388 30.4109 31.0421L28.9967 29.6279C28.6361 29.9885 28.5838 30.4546 28.5838 30.74H30.5838ZM30.4109 31.0421C30.2383 31.2147 30.0696 31.2 30.1238 31.2V29.2C29.798 29.2 29.3493 29.2753 28.9967 29.6279L30.4109 31.0421ZM30.1238 31.2H36.8138V29.2H30.1238V31.2ZM36.8138 31.2C36.8351 31.2 36.8035 31.2032 36.7414 31.1824C36.6731 31.1597 36.5673 31.1073 36.4714 30.9994L37.9662 29.6706C37.6101 29.27 37.1267 29.2 36.8138 29.2V31.2ZM36.5545 31.0824C36.4466 30.9865 36.3942 30.8808 36.3714 30.8125C36.3507 30.7503 36.3538 30.7188 36.3538 30.74H38.3538C38.3538 30.4271 38.2839 29.9437 37.8832 29.5876L36.5545 31.0824ZM36.3538 30.74V32.525H38.3538V30.74H36.3538ZM36.3538 32.525C36.3538 32.5792 36.3391 32.4105 36.5117 32.2379L37.9259 33.6521C38.2785 33.2995 38.3538 32.8508 38.3538 32.525H36.3538ZM36.5117 32.2379C36.615 32.1346 36.7197 32.0921 36.7735 32.0762C36.824 32.0612 36.8439 32.065 36.8138 32.065V34.065C37.0992 34.065 37.5653 34.0128 37.9259 33.6521L36.5117 32.2379ZM36.8138 32.065H32.9888V34.065H36.8138V32.065ZM31.9888 33.065V34.625H33.9888V33.065H31.9888ZM32.9888 35.625H35.5988V33.625H32.9888V35.625ZM35.5988 35.625C35.6201 35.625 35.5885 35.6282 35.5264 35.6074C35.4581 35.5847 35.3523 35.5323 35.2564 35.4244L36.7512 34.0956C36.3951 33.695 35.9117 33.625 35.5988 33.625V35.625ZM35.3395 35.5074C35.2316 35.4115 35.1792 35.3058 35.1564 35.2375C35.1357 35.1753 35.1388 35.1438 35.1388 35.165H37.1388C37.1388 34.8521 37.0689 34.3687 36.6682 34.0126L35.3395 35.5074ZM35.1388 35.165V36.965H37.1388V35.165H35.1388ZM35.1388 36.965C35.1388 37.0192 35.1241 36.8505 35.2967 36.6779L36.7109 38.0921C37.0635 37.7395 37.1388 37.2908 37.1388 36.965H35.1388ZM35.2967 36.6779C35.4 36.5746 35.5047 36.5321 35.5585 36.5162C35.609 36.5012 35.6289 36.505 35.5988 36.505V38.505C35.8842 38.505 36.3503 38.4528 36.7109 38.0921L35.2967 36.6779ZM35.5988 36.505H32.9888V38.505H35.5988V36.505ZM31.9888 37.505V40.46H33.9888V37.505H31.9888ZM31.9888 40.46C31.9888 40.5142 31.9741 40.3455 32.1467 40.1729L33.5609 41.5871C33.9135 41.2345 33.9888 40.7858 33.9888 40.46H31.9888ZM32.1467 40.1729C32.25 40.0696 32.3547 40.0271 32.4085 40.0112C32.459 39.9962 32.4789 40 32.4488 40V42C32.7342 42 33.2003 41.9478 33.5609 41.5871L32.1467 40.1729ZM38.0763 40.88L37.3289 41.5444L37.368 41.5883L37.4119 41.6274L38.0763 40.88ZM38.0763 30.335L37.3692 29.6279L37.3692 29.6279L38.0763 30.335ZM45.8613 30.335L45.1139 30.9994L45.153 31.0433L45.1969 31.0824L45.8613 30.335ZM41.3163 33.035V32.035H40.3163V33.035H41.3163ZM41.3163 34.19H40.3163V35.19H41.3163V34.19ZM44.6463 34.325L43.8989 34.9894L43.938 35.0333L43.9819 35.0724L44.6463 34.325ZM44.6463 36.755L43.9392 36.0479L44.6463 36.755ZM41.3163 36.875V35.875H40.3163V36.875H41.3163ZM41.3163 38.165H40.3163V39.165H41.3163V38.165ZM45.8613 38.3L45.1139 38.9644L45.153 39.0083L45.1969 39.0474L45.8613 38.3ZM45.8613 40.88L46.5684 41.5871L46.5684 41.5871L45.8613 40.88ZM45.4563 40H38.4963V42H45.4563V40ZM38.4963 40C38.4676 40 38.4818 39.9966 38.5235 40.0085C38.5681 40.0212 38.6525 40.0542 38.7407 40.1326L37.4119 41.6274C37.7654 41.9416 38.1961 42 38.4963 42V40ZM38.8237 40.2156C38.9021 40.3038 38.9351 40.3882 38.9478 40.4328C38.9597 40.4745 38.9563 40.4887 38.9563 40.46H36.9563C36.9563 40.7602 37.0147 41.1909 37.3289 41.5444L38.8237 40.2156ZM38.9563 40.46V30.74H36.9563V40.46H38.9563ZM38.9563 30.74C38.9563 30.71 38.9601 30.7298 38.9451 30.7803C38.9291 30.8342 38.8867 30.9388 38.7834 31.0421L37.3692 29.6279C37.0085 29.9885 36.9563 30.4546 36.9563 30.74H38.9563ZM38.7834 31.0421C38.6108 31.2147 38.4421 31.2 38.4963 31.2V29.2C38.1705 29.2 37.7218 29.2753 37.3692 29.6279L38.7834 31.0421ZM38.4963 31.2H45.4563V29.2H38.4963V31.2ZM45.4563 31.2C45.4775 31.2 45.446 31.2032 45.3838 31.1824C45.3155 31.1597 45.2098 31.1073 45.1139 30.9994L46.6087 29.6706C46.2525 29.27 45.7692 29.2 45.4563 29.2V31.2ZM45.1969 31.0824C45.089 30.9865 45.0366 30.8808 45.0139 30.8125C44.9931 30.7503 44.9963 30.7188 44.9963 30.74H46.9963C46.9963 30.4271 46.9263 29.9437 46.5257 29.5876L45.1969 31.0824ZM44.9963 30.74V32.495H46.9963V30.74H44.9963ZM44.9963 32.495C44.9963 32.5492 44.9816 32.3805 45.1542 32.2079L46.5684 33.6221C46.921 33.2695 46.9963 32.8208 46.9963 32.495H44.9963ZM45.1542 32.2079C45.2574 32.1046 45.3621 32.0621 45.4159 32.0462C45.4665 32.0312 45.4863 32.035 45.4563 32.035V34.035C45.7417 34.035 46.2077 33.9828 46.5684 33.6221L45.1542 32.2079ZM45.4563 32.035H41.3163V34.035H45.4563V32.035ZM40.3163 33.035V34.19H42.3163V33.035H40.3163ZM41.3163 35.19H44.2413V33.19H41.3163V35.19ZM44.2413 35.19C44.2625 35.19 44.231 35.1932 44.1688 35.1724C44.1005 35.1497 43.9948 35.0973 43.8989 34.9894L45.3937 33.6606C45.0375 33.26 44.5542 33.19 44.2413 33.19V35.19ZM43.9819 35.0724C43.874 34.9765 43.8216 34.8708 43.7989 34.8025C43.7781 34.7403 43.7813 34.7088 43.7813 34.73H45.7813C45.7813 34.4171 45.7113 33.9337 45.3107 33.5776L43.9819 35.0724ZM43.7813 34.73V36.335H45.7813V34.73H43.7813ZM43.7813 36.335C43.7813 36.3892 43.7666 36.2205 43.9392 36.0479L45.3534 37.4621C45.706 37.1095 45.7813 36.6608 45.7813 36.335H43.7813ZM43.9392 36.0479C44.0424 35.9446 44.1471 35.9021 44.2009 35.8862C44.2515 35.8712 44.2713 35.875 44.2413 35.875V37.875C44.5267 37.875 44.9927 37.8228 45.3534 37.4621L43.9392 36.0479ZM44.2413 35.875H41.3163V37.875H44.2413V35.875ZM40.3163 36.875V38.165H42.3163V36.875H40.3163ZM41.3163 39.165H45.4563V37.165H41.3163V39.165ZM45.4563 39.165C45.4775 39.165 45.446 39.1682 45.3838 39.1474C45.3155 39.1247 45.2098 39.0723 45.1139 38.9644L46.6087 37.6356C46.2525 37.235 45.7692 37.165 45.4563 37.165V39.165ZM45.1969 39.0474C45.089 38.9515 45.0366 38.8458 45.0139 38.7775C44.9931 38.7153 44.9963 38.6838 44.9963 38.705H46.9963C46.9963 38.3921 46.9263 37.9087 46.5257 37.5526L45.1969 39.0474ZM44.9963 38.705V40.46H46.9963V38.705H44.9963ZM44.9963 40.46C44.9963 40.5142 44.9816 40.3455 45.1542 40.1729L46.5684 41.5871C46.921 41.2345 46.9963 40.7858 46.9963 40.46H44.9963ZM45.1542 40.1729C45.2574 40.0696 45.3621 40.0271 45.4159 40.0112C45.4665 39.9962 45.4863 40 45.4563 40V42C45.7417 42 46.2077 41.9478 46.5684 41.5871L45.1542 40.1729ZM50.2607 32.9V31.9H49.2607V32.9H50.2607ZM50.2607 34.82H49.2607V35.82H50.2607V34.82ZM51.9107 34.625L52.7329 35.1942L52.7427 35.1801L52.7519 35.1658L51.9107 34.625ZM51.9107 33.11L51.0696 33.6508L51.0788 33.6651L51.0886 33.6792L51.9107 33.11ZM46.9907 40.88L46.2433 41.5444L46.2824 41.5883L46.3264 41.6274L46.9907 40.88ZM46.9907 30.335L46.2836 29.6279L46.2836 29.6279L46.9907 30.335ZM54.7157 30.905L53.9701 31.5713L53.9776 31.5797L53.9852 31.5879L54.7157 30.905ZM55.1657 34.475L54.2482 34.0774L54.2449 34.085L54.2417 34.0926L55.1657 34.475ZM54.5207 35.105L54.134 34.1828L50.5798 35.6733L54.4103 36.0989L54.5207 35.105ZM55.8257 35.765L55.0707 36.4207L55.0756 36.4263L55.0805 36.4318L55.8257 35.765ZM56.2007 40.88L56.9078 41.5871L56.9079 41.5871L56.2007 40.88ZM53.0507 40.88L52.3033 41.5444L52.3424 41.5883L52.3864 41.6274L53.0507 40.88ZM52.7957 37.685L51.987 38.2732L52.0176 38.3153L52.0524 38.354L52.7957 37.685ZM50.2607 37.52V36.52H49.2607V37.52H50.2607ZM50.1257 40.88L49.4186 40.1729L49.4186 40.1729L50.1257 40.88ZM49.2607 32.9V34.82H51.2607V32.9H49.2607ZM50.2607 35.82H51.3857V33.82H50.2607V35.82ZM51.3857 35.82C51.7601 35.82 52.3608 35.7317 52.7329 35.1942L51.0886 34.0558C51.18 33.9237 51.2949 33.8594 51.3638 33.8338C51.4221 33.8122 51.4401 33.82 51.3857 33.82V35.82ZM52.7519 35.1658C52.9649 34.8345 53.0457 34.4677 53.0457 34.115H51.0457C51.0457 34.1402 51.0429 34.1456 51.0453 34.1366C51.0465 34.1321 51.0488 34.1246 51.053 34.1151C51.0571 34.1055 51.0626 34.095 51.0696 34.0842L52.7519 35.1658ZM53.0457 34.115V33.605H51.0457V34.115H53.0457ZM53.0457 33.605C53.0457 33.2556 52.966 32.8775 52.7329 32.5408L51.0886 33.6792C51.0639 33.6437 51.0521 33.6123 51.0472 33.5944C51.0428 33.5781 51.0457 33.5793 51.0457 33.605H53.0457ZM52.7519 32.5692C52.3909 32.0076 51.7856 31.9 51.3857 31.9V33.9C51.4335 33.9 51.4068 33.9075 51.3406 33.881C51.2616 33.8494 51.1516 33.7784 51.0696 33.6508L52.7519 32.5692ZM51.3857 31.9H50.2607V33.9H51.3857V31.9ZM49.7207 40H47.4107V42H49.7207V40ZM47.4107 40C47.3821 40 47.3962 39.9966 47.438 40.0085C47.4825 40.0212 47.5669 40.0542 47.6551 40.1326L46.3264 41.6274C46.6798 41.9416 47.1105 42 47.4107 42V40ZM47.7382 40.2156C47.8165 40.3038 47.8495 40.3882 47.8623 40.4328C47.8742 40.4745 47.8707 40.4887 47.8707 40.46H45.8707C45.8707 40.7602 45.9291 41.1909 46.2433 41.5444L47.7382 40.2156ZM47.8707 40.46V30.74H45.8707V40.46H47.8707ZM47.8707 30.74C47.8707 30.71 47.8745 30.7298 47.8595 30.7803C47.8436 30.8342 47.8011 30.9388 47.6979 31.0421L46.2836 29.6279C45.923 29.9885 45.8707 30.4546 45.8707 30.74H47.8707ZM47.6979 31.0421C47.5252 31.2147 47.3566 31.2 47.4107 31.2V29.2C47.0849 29.2 46.6362 29.2753 46.2836 29.6279L47.6979 31.0421ZM47.4107 31.2H52.4057V29.2H47.4107V31.2ZM52.4057 31.2C53.4478 31.2 53.8439 31.4301 53.9701 31.5713L55.4614 30.2387C54.7476 29.4399 53.6037 29.2 52.4057 29.2V31.2ZM53.9852 31.5879C54.2122 31.8307 54.3607 32.1712 54.3607 32.705H56.3607C56.3607 31.7588 56.0793 30.8993 55.4463 30.2221L53.9852 31.5879ZM54.3607 32.705V33.395H56.3607V32.705H54.3607ZM54.3607 33.395C54.3607 33.7156 54.3107 33.9331 54.2482 34.0774L56.0833 34.8726C56.2808 34.4169 56.3607 33.9144 56.3607 33.395H54.3607ZM54.2417 34.0926C54.2303 34.1204 54.2198 34.1468 54.134 34.1828L54.9075 36.0272C55.4417 35.8032 55.8612 35.4096 56.0898 34.8574L54.2417 34.0926ZM54.4103 36.0989C54.7223 36.1335 54.9192 36.2462 55.0707 36.4207L56.5808 35.1093C56.0723 34.5238 55.3992 34.1965 54.6312 34.1111L54.4103 36.0989ZM55.0805 36.4318C55.2202 36.5879 55.3357 36.8356 55.3357 37.28H57.3357C57.3357 36.4644 57.1113 35.7021 56.571 35.0982L55.0805 36.4318ZM55.3357 37.28V40.46H57.3357V37.28H55.3357ZM55.3357 40.46C55.3357 40.5142 55.321 40.3455 55.4936 40.1729L56.9079 41.5871C57.2605 41.2345 57.3357 40.7858 57.3357 40.46H55.3357ZM55.4936 40.1729C55.5969 40.0696 55.7016 40.0271 55.7554 40.0112C55.8059 39.9962 55.8258 40 55.7957 40V42C56.0812 42 56.5472 41.9478 56.9078 41.5871L55.4936 40.1729ZM55.7957 40H53.4707V42H55.7957V40ZM53.4707 40C53.4421 40 53.4562 39.9966 53.498 40.0085C53.5425 40.0212 53.6269 40.0542 53.7151 40.1326L52.3864 41.6274C52.7398 41.9416 53.1705 42 53.4707 42V40ZM53.7982 40.2156C53.8765 40.3038 53.9095 40.3882 53.9223 40.4328C53.9342 40.4745 53.9307 40.4887 53.9307 40.46H51.9307C51.9307 40.7602 51.9891 41.1909 52.3033 41.5444L53.7982 40.2156ZM53.9307 40.46V38.165H51.9307V40.46H53.9307ZM53.9307 38.165C53.9307 37.8453 53.8717 37.3857 53.539 37.016L52.0524 38.354C51.9734 38.2661 51.9438 38.1845 51.9343 38.1507C51.9255 38.1195 51.9307 38.1189 51.9307 38.165H53.9307ZM53.6045 37.0968C53.2512 36.6111 52.7115 36.52 52.3607 36.52V38.52C52.3847 38.52 52.3454 38.524 52.2723 38.4962C52.1892 38.4647 52.0769 38.3967 51.987 38.2732L53.6045 37.0968ZM52.3607 36.52H50.2607V38.52H52.3607V36.52ZM49.2607 37.52V40.46H51.2607V37.52H49.2607ZM49.2607 40.46C49.2607 40.5142 49.246 40.3455 49.4186 40.1729L50.8328 41.5871C51.1855 41.2345 51.2607 40.7858 51.2607 40.46H49.2607ZM49.4186 40.1729C49.5219 40.0696 49.6266 40.0271 49.6804 40.0112C49.7309 39.9962 49.7508 40 49.7207 40V42C50.0062 42 50.4722 41.9478 50.8329 41.5871L49.4186 40.1729Z" fill="black" mask="url(#path-8-outside-1_2531_1142)"/>
</g>
<defs>
<filter id="filter0_d_2531_1142" x="10.8867" y="29.9751" width="45.449" height="13.25" filterUnits="userSpaceOnUse" color-interpolation-filters="sRGB">
<feFlood flood-opacity="0" result="BackgroundImageFix"/>
<feColorMatrix in="SourceAlpha" type="matrix" values="0 0 0 0 0 0 0 0 0 0 0 0 0 0 0 0 0 0 127 0" result="hardAlpha"/>
<feOffset dy="2"/>
<feComposite in2="hardAlpha" operator="out"/>
<feColorMatrix type="matrix" values="0 0 0 0 0 0 0 0 0 0 0 0 0 0 0 0 0 0 1 0"/>
<feBlend mode="normal" in2="BackgroundImageFix" result="effect1_dropShadow_2531_1142"/>
<feBlend mode="normal" in="SourceGraphic" in2="effect1_dropShadow_2531_1142" result="shape"/>
</filter>
<linearGradient id="paint0_linear_2531_1142" x1="34.103" y1="56.6507" x2="34.1029" y2="70.1012" gradientUnits="userSpaceOnUse">
<stop stop-color="#DB8400"/>
<stop offset="1" stop-color="#B94100"/>
</linearGradient>
<linearGradient id="paint1_linear_2531_1142" x1="25.5548" y1="64.6155" x2="25.5548" y2="3.69238" gradientUnits="userSpaceOnUse">
<stop stop-color="#FFDE00"/>
<stop offset="1" stop-color="#FFE636"/>
</linearGradient>
<linearGradient id="paint2_linear_2531_1142" x1="4.59821" y1="8.04403" x2="12.602" y2="10.046" gradientUnits="userSpaceOnUse">
<stop stop-color="white"/>
<stop offset="1" stop-color="white" stop-opacity="0"/>
</linearGradient>
<linearGradient id="paint3_linear_2531_1142" x1="40.4064" y1="15.1565" x2="40.4064" y2="47.1069" gradientUnits="userSpaceOnUse">
<stop stop-color="#FFDC02"/>
<stop offset="1" stop-color="#FFBB00"/>
</linearGradient>
</defs>
</svg>
