<svg width="54" height="68" viewBox="0 0 54 68" fill="none" xmlns="http://www.w3.org/2000/svg">
<g filter="url(#filter0_iiiii_4501_6)">
<circle cx="27" cy="24" r="24" fill="url(#paint0_linear_4501_6)"/>
</g>
<g clip-path="url(#clip0_4501_6)">
<g filter="url(#filter1_d_4501_6)">
<path fill-rule="evenodd" clip-rule="evenodd" d="M15.475 15.8448V18.2371H40.45V15.8448C40.4486 14.7032 39.9927 13.6088 39.1824 12.8015C38.372 11.9943 37.2734 11.5402 36.1274 11.5388H34.6865V12.9741C34.6865 13.4817 34.4841 13.9685 34.1238 14.3274C33.7635 14.6863 33.2749 14.8879 32.7654 14.8879C32.2558 14.8879 31.7672 14.6863 31.4069 14.3274C31.0466 13.9685 30.8442 13.4817 30.8442 12.9741V11.5388H25.0807V12.9741C25.0807 13.4817 24.8783 13.9685 24.5181 14.3274C24.1578 14.6863 23.6691 14.8879 23.1596 14.8879C22.6501 14.8879 22.1614 14.6863 21.8011 14.3274C21.4408 13.9685 21.2384 13.4817 21.2384 12.9741V11.5388H19.7976C18.6516 11.5402 17.5529 11.9943 16.7426 12.8015C15.9322 13.6088 15.4764 14.7032 15.475 15.8448ZM22.4804 13.6508C22.3002 13.4713 22.199 13.2279 22.199 12.9741V10.5819C22.199 10.3281 22.3002 10.0847 22.4804 9.90527C22.6605 9.72582 22.9048 9.625 23.1596 9.625C23.4144 9.625 23.6587 9.72582 23.8388 9.90527C24.019 10.0847 24.1202 10.3281 24.1202 10.5819V12.9741C24.1202 13.2279 24.019 13.4713 23.8388 13.6508C23.6587 13.8302 23.4144 13.931 23.1596 13.931C22.9048 13.931 22.6605 13.8302 22.4804 13.6508ZM31.8048 12.9741V10.5819C31.8048 10.3281 31.906 10.0847 32.0861 9.90527C32.2663 9.72582 32.5106 9.625 32.7654 9.625C33.0201 9.625 33.2644 9.72582 33.4446 9.90527C33.6247 10.0847 33.7259 10.3281 33.7259 10.5819V12.9741C33.7259 13.2279 33.6247 13.4713 33.4446 13.6508C33.2644 13.8302 33.0201 13.931 32.7654 13.931C32.5106 13.931 32.2663 13.8302 32.0861 13.6508C31.906 13.4713 31.8048 13.2279 31.8048 12.9741ZM40.45 33.069V20.1509H15.475V33.069C15.4764 34.2106 15.9322 35.305 16.7426 36.1123C17.5529 36.9195 18.6516 37.3736 19.7976 37.375H36.1274C37.2734 37.3736 38.372 36.9195 39.1824 36.1123C39.9927 35.305 40.4486 34.2106 40.45 33.069ZM25.5273 29.4421L23.1169 27.3367C23.0116 27.2441 22.9733 27.1068 23.019 26.9813C23.0646 26.8558 23.1857 26.7643 23.3316 26.7452L26.663 26.3118L28.1529 23.6065C28.2833 23.3696 28.7167 23.3696 28.8471 23.6065L30.3369 26.3118L33.6683 26.7452C33.8142 26.7643 33.9353 26.8561 33.981 26.9813C34.0267 27.1065 33.9883 27.2445 33.8831 27.3367L31.4723 29.4418L32.0415 32.4155C32.0663 32.5455 32.0067 32.6769 31.8875 32.7546C31.7683 32.8326 31.61 32.8427 31.48 32.7809L28.5 31.3773L25.5195 32.7813C25.463 32.808 25.4011 32.8212 25.3396 32.8212C25.2595 32.8212 25.1794 32.799 25.1121 32.7549C24.9929 32.6773 24.9333 32.5458 24.9581 32.4158L25.5273 29.4421Z" fill="url(#paint1_linear_4501_6)"/>
</g>
</g>
<mask id="path-3-outside-1_4501_6" maskUnits="userSpaceOnUse" x="8" y="52" width="39" height="13" fill="black">
<rect fill="white" x="8" y="52" width="39" height="13"/>
<path d="M9.393 56.344H11.633V62.888C11.537 62.92 11.393 62.952 11.201 62.984C11.0197 63.016 10.8223 63.032 10.609 63.032C10.2357 63.032 9.937 62.92 9.713 62.696C9.49967 62.472 9.393 62.1787 9.393 61.816V56.344ZM11.633 59.944H9.393V54.52C9.393 54.136 9.49967 53.8373 9.713 53.624C9.937 53.4 10.2357 53.288 10.609 53.288C10.8223 53.288 11.0197 53.304 11.201 53.336C11.393 53.368 11.537 53.4 11.633 53.432V59.944ZM10.609 58.952V57.144H15.441C15.505 57.24 15.5583 57.3627 15.601 57.512C15.6543 57.6613 15.681 57.832 15.681 58.024C15.681 58.3333 15.6117 58.568 15.473 58.728C15.3343 58.8773 15.137 58.952 14.881 58.952H10.609ZM10.609 63.032V61.208H15.985C16.0383 61.2933 16.0863 61.416 16.129 61.576C16.1823 61.736 16.209 61.912 16.209 62.104C16.209 62.4133 16.1397 62.648 16.001 62.808C15.8623 62.9573 15.665 63.032 15.409 63.032H10.609ZM10.609 55.112V53.288H15.905C15.969 53.384 16.0223 53.5067 16.065 53.656C16.1183 53.8053 16.145 53.976 16.145 54.168C16.145 54.488 16.0757 54.728 15.937 54.888C15.7983 55.0373 15.601 55.112 15.345 55.112H10.609ZM22.7433 55.208C23.0526 55.208 23.3086 55.2773 23.5113 55.416C23.7246 55.544 23.8313 55.7733 23.8313 56.104C23.8313 56.2853 23.7726 56.5787 23.6553 56.984C23.5486 57.3893 23.4046 57.8587 23.2233 58.392C23.0526 58.9147 22.8606 59.4587 22.6473 60.024C22.4339 60.5787 22.2153 61.1013 21.9913 61.592C21.7779 62.0827 21.5859 62.4933 21.4153 62.824C21.2979 62.9093 21.1219 62.984 20.8873 63.048C20.6526 63.112 20.3859 63.144 20.0873 63.144C19.7566 63.144 19.4686 63.096 19.2233 63C18.9779 62.9147 18.8073 62.776 18.7113 62.584C18.5939 62.36 18.4446 62.0453 18.2633 61.64C18.0926 61.2347 17.9113 60.7707 17.7193 60.248C17.5273 59.7253 17.3299 59.192 17.1273 58.648C16.9353 58.0933 16.7539 57.56 16.5833 57.048C16.4233 56.5253 16.2953 56.072 16.1993 55.688C16.3273 55.5493 16.4926 55.4373 16.6953 55.352C16.9086 55.256 17.1379 55.208 17.3833 55.208C17.6926 55.208 17.9433 55.2773 18.1353 55.416C18.3379 55.544 18.4873 55.784 18.5833 56.136L19.3353 58.728C19.4206 59.016 19.5113 59.3147 19.6073 59.624C19.7033 59.9333 19.7939 60.2267 19.8793 60.504C19.9646 60.7707 20.0339 60.9947 20.0873 61.176H20.1513C20.4393 60.2907 20.7166 59.352 20.9833 58.36C21.2606 57.3573 21.5059 56.3867 21.7193 55.448C22.0179 55.288 22.3593 55.208 22.7433 55.208ZM25.3746 60.264L25.2786 58.728L29.3746 58.104C29.3426 57.7627 29.1986 57.4587 28.9426 57.192C28.6973 56.9253 28.3346 56.792 27.8546 56.792C27.3426 56.792 26.9213 56.9627 26.5906 57.304C26.26 57.6453 26.084 58.136 26.0626 58.776L26.1266 59.784C26.2226 60.4027 26.4786 60.8507 26.8946 61.128C27.3106 61.4053 27.8173 61.544 28.4146 61.544C28.8626 61.544 29.2786 61.48 29.6626 61.352C30.0573 61.224 30.372 61.0853 30.6066 60.936C30.756 61.032 30.8786 61.16 30.9746 61.32C31.0813 61.48 31.1346 61.6507 31.1346 61.832C31.1346 62.1307 31.0066 62.3867 30.7506 62.6C30.5053 62.8133 30.1693 62.9733 29.7426 63.08C29.316 63.1867 28.8253 63.24 28.2706 63.24C27.4386 63.24 26.6973 63.0853 26.0466 62.776C25.4066 62.4667 24.9 62.0027 24.5266 61.384C24.164 60.7653 23.9826 59.9973 23.9826 59.08C23.9826 58.4187 24.0893 57.8373 24.3026 57.336C24.516 56.8347 24.7986 56.424 25.1506 56.104C25.5133 55.7733 25.924 55.528 26.3826 55.368C26.852 55.208 27.3373 55.128 27.8386 55.128C28.564 55.128 29.1933 55.272 29.7266 55.56C30.2706 55.848 30.6973 56.2427 31.0066 56.744C31.316 57.2453 31.4706 57.8213 31.4706 58.472C31.4706 58.792 31.3853 59.0373 31.2146 59.208C31.044 59.368 30.8093 59.4693 30.5106 59.512L25.3746 60.264ZM39.3916 58.04V59.56H37.1676V58.104C37.1676 57.688 37.045 57.384 36.7996 57.192C36.5543 56.9893 36.229 56.888 35.8236 56.888C35.5356 56.888 35.2743 56.9253 35.0396 57C34.805 57.064 34.5916 57.1493 34.3996 57.256V59.56H32.1756V57.032C32.1756 56.7653 32.229 56.552 32.3356 56.392C32.453 56.2213 32.6183 56.0613 32.8316 55.912C33.1623 55.688 33.589 55.5013 34.1116 55.352C34.6343 55.2027 35.2156 55.128 35.8556 55.128C36.9756 55.128 37.845 55.3787 38.4636 55.88C39.0823 56.3707 39.3916 57.0907 39.3916 58.04ZM32.1756 58.808H34.3996V62.984C34.3036 63.0053 34.165 63.032 33.9836 63.064C33.8023 63.096 33.605 63.112 33.3916 63.112C32.9756 63.112 32.6663 63.0373 32.4636 62.888C32.2716 62.7387 32.1756 62.4667 32.1756 62.072V58.808ZM37.1676 58.808H39.3916V62.984C39.2956 63.0053 39.157 63.032 38.9756 63.064C38.7943 63.096 38.6023 63.112 38.3996 63.112C37.973 63.112 37.6583 63.0373 37.4556 62.888C37.2636 62.7387 37.1676 62.4667 37.1676 62.072V58.808ZM40.5479 58.776H42.7719V60.552C42.7719 60.872 42.8679 61.1013 43.0599 61.24C43.2625 61.3787 43.5399 61.448 43.8919 61.448C44.0625 61.448 44.2385 61.432 44.4199 61.4C44.6119 61.3573 44.7772 61.3093 44.9159 61.256C45.0012 61.3413 45.0759 61.4533 45.1399 61.592C45.2039 61.72 45.2359 61.8747 45.2359 62.056C45.2359 62.3867 45.0865 62.664 44.7879 62.888C44.4999 63.112 44.0199 63.224 43.3479 63.224C42.4732 63.224 41.7852 63.0267 41.2839 62.632C40.7932 62.2373 40.5479 61.5973 40.5479 60.712V58.776ZM41.9399 57.256V55.528H45.0439C45.0972 55.6133 45.1452 55.7307 45.1879 55.88C45.2412 56.0293 45.2679 56.1947 45.2679 56.376C45.2679 56.6747 45.1985 56.8987 45.0599 57.048C44.9212 57.1867 44.7345 57.256 44.4999 57.256H41.9399ZM42.7719 59.192H40.5479V53.432C40.6439 53.4 40.7825 53.368 40.9639 53.336C41.1559 53.304 41.3532 53.288 41.5559 53.288C41.9719 53.288 42.2759 53.3627 42.4679 53.512C42.6705 53.6613 42.7719 53.9333 42.7719 54.328V59.192Z"/>
</mask>
<path d="M9.393 56.344H11.633V62.888C11.537 62.92 11.393 62.952 11.201 62.984C11.0197 63.016 10.8223 63.032 10.609 63.032C10.2357 63.032 9.937 62.92 9.713 62.696C9.49967 62.472 9.393 62.1787 9.393 61.816V56.344ZM11.633 59.944H9.393V54.52C9.393 54.136 9.49967 53.8373 9.713 53.624C9.937 53.4 10.2357 53.288 10.609 53.288C10.8223 53.288 11.0197 53.304 11.201 53.336C11.393 53.368 11.537 53.4 11.633 53.432V59.944ZM10.609 58.952V57.144H15.441C15.505 57.24 15.5583 57.3627 15.601 57.512C15.6543 57.6613 15.681 57.832 15.681 58.024C15.681 58.3333 15.6117 58.568 15.473 58.728C15.3343 58.8773 15.137 58.952 14.881 58.952H10.609ZM10.609 63.032V61.208H15.985C16.0383 61.2933 16.0863 61.416 16.129 61.576C16.1823 61.736 16.209 61.912 16.209 62.104C16.209 62.4133 16.1397 62.648 16.001 62.808C15.8623 62.9573 15.665 63.032 15.409 63.032H10.609ZM10.609 55.112V53.288H15.905C15.969 53.384 16.0223 53.5067 16.065 53.656C16.1183 53.8053 16.145 53.976 16.145 54.168C16.145 54.488 16.0757 54.728 15.937 54.888C15.7983 55.0373 15.601 55.112 15.345 55.112H10.609ZM22.7433 55.208C23.0526 55.208 23.3086 55.2773 23.5113 55.416C23.7246 55.544 23.8313 55.7733 23.8313 56.104C23.8313 56.2853 23.7726 56.5787 23.6553 56.984C23.5486 57.3893 23.4046 57.8587 23.2233 58.392C23.0526 58.9147 22.8606 59.4587 22.6473 60.024C22.4339 60.5787 22.2153 61.1013 21.9913 61.592C21.7779 62.0827 21.5859 62.4933 21.4153 62.824C21.2979 62.9093 21.1219 62.984 20.8873 63.048C20.6526 63.112 20.3859 63.144 20.0873 63.144C19.7566 63.144 19.4686 63.096 19.2233 63C18.9779 62.9147 18.8073 62.776 18.7113 62.584C18.5939 62.36 18.4446 62.0453 18.2633 61.64C18.0926 61.2347 17.9113 60.7707 17.7193 60.248C17.5273 59.7253 17.3299 59.192 17.1273 58.648C16.9353 58.0933 16.7539 57.56 16.5833 57.048C16.4233 56.5253 16.2953 56.072 16.1993 55.688C16.3273 55.5493 16.4926 55.4373 16.6953 55.352C16.9086 55.256 17.1379 55.208 17.3833 55.208C17.6926 55.208 17.9433 55.2773 18.1353 55.416C18.3379 55.544 18.4873 55.784 18.5833 56.136L19.3353 58.728C19.4206 59.016 19.5113 59.3147 19.6073 59.624C19.7033 59.9333 19.7939 60.2267 19.8793 60.504C19.9646 60.7707 20.0339 60.9947 20.0873 61.176H20.1513C20.4393 60.2907 20.7166 59.352 20.9833 58.36C21.2606 57.3573 21.5059 56.3867 21.7193 55.448C22.0179 55.288 22.3593 55.208 22.7433 55.208ZM25.3746 60.264L25.2786 58.728L29.3746 58.104C29.3426 57.7627 29.1986 57.4587 28.9426 57.192C28.6973 56.9253 28.3346 56.792 27.8546 56.792C27.3426 56.792 26.9213 56.9627 26.5906 57.304C26.26 57.6453 26.084 58.136 26.0626 58.776L26.1266 59.784C26.2226 60.4027 26.4786 60.8507 26.8946 61.128C27.3106 61.4053 27.8173 61.544 28.4146 61.544C28.8626 61.544 29.2786 61.48 29.6626 61.352C30.0573 61.224 30.372 61.0853 30.6066 60.936C30.756 61.032 30.8786 61.16 30.9746 61.32C31.0813 61.48 31.1346 61.6507 31.1346 61.832C31.1346 62.1307 31.0066 62.3867 30.7506 62.6C30.5053 62.8133 30.1693 62.9733 29.7426 63.08C29.316 63.1867 28.8253 63.24 28.2706 63.24C27.4386 63.24 26.6973 63.0853 26.0466 62.776C25.4066 62.4667 24.9 62.0027 24.5266 61.384C24.164 60.7653 23.9826 59.9973 23.9826 59.08C23.9826 58.4187 24.0893 57.8373 24.3026 57.336C24.516 56.8347 24.7986 56.424 25.1506 56.104C25.5133 55.7733 25.924 55.528 26.3826 55.368C26.852 55.208 27.3373 55.128 27.8386 55.128C28.564 55.128 29.1933 55.272 29.7266 55.56C30.2706 55.848 30.6973 56.2427 31.0066 56.744C31.316 57.2453 31.4706 57.8213 31.4706 58.472C31.4706 58.792 31.3853 59.0373 31.2146 59.208C31.044 59.368 30.8093 59.4693 30.5106 59.512L25.3746 60.264ZM39.3916 58.04V59.56H37.1676V58.104C37.1676 57.688 37.045 57.384 36.7996 57.192C36.5543 56.9893 36.229 56.888 35.8236 56.888C35.5356 56.888 35.2743 56.9253 35.0396 57C34.805 57.064 34.5916 57.1493 34.3996 57.256V59.56H32.1756V57.032C32.1756 56.7653 32.229 56.552 32.3356 56.392C32.453 56.2213 32.6183 56.0613 32.8316 55.912C33.1623 55.688 33.589 55.5013 34.1116 55.352C34.6343 55.2027 35.2156 55.128 35.8556 55.128C36.9756 55.128 37.845 55.3787 38.4636 55.88C39.0823 56.3707 39.3916 57.0907 39.3916 58.04ZM32.1756 58.808H34.3996V62.984C34.3036 63.0053 34.165 63.032 33.9836 63.064C33.8023 63.096 33.605 63.112 33.3916 63.112C32.9756 63.112 32.6663 63.0373 32.4636 62.888C32.2716 62.7387 32.1756 62.4667 32.1756 62.072V58.808ZM37.1676 58.808H39.3916V62.984C39.2956 63.0053 39.157 63.032 38.9756 63.064C38.7943 63.096 38.6023 63.112 38.3996 63.112C37.973 63.112 37.6583 63.0373 37.4556 62.888C37.2636 62.7387 37.1676 62.4667 37.1676 62.072V58.808ZM40.5479 58.776H42.7719V60.552C42.7719 60.872 42.8679 61.1013 43.0599 61.24C43.2625 61.3787 43.5399 61.448 43.8919 61.448C44.0625 61.448 44.2385 61.432 44.4199 61.4C44.6119 61.3573 44.7772 61.3093 44.9159 61.256C45.0012 61.3413 45.0759 61.4533 45.1399 61.592C45.2039 61.72 45.2359 61.8747 45.2359 62.056C45.2359 62.3867 45.0865 62.664 44.7879 62.888C44.4999 63.112 44.0199 63.224 43.3479 63.224C42.4732 63.224 41.7852 63.0267 41.2839 62.632C40.7932 62.2373 40.5479 61.5973 40.5479 60.712V58.776ZM41.9399 57.256V55.528H45.0439C45.0972 55.6133 45.1452 55.7307 45.1879 55.88C45.2412 56.0293 45.2679 56.1947 45.2679 56.376C45.2679 56.6747 45.1985 56.8987 45.0599 57.048C44.9212 57.1867 44.7345 57.256 44.4999 57.256H41.9399ZM42.7719 59.192H40.5479V53.432C40.6439 53.4 40.7825 53.368 40.9639 53.336C41.1559 53.304 41.3532 53.288 41.5559 53.288C41.9719 53.288 42.2759 53.3627 42.4679 53.512C42.6705 53.6613 42.7719 53.9333 42.7719 54.328V59.192Z" fill="white"/>
<path d="M9.393 56.344V55.344H8.393V56.344H9.393ZM11.633 56.344H12.633V55.344H11.633V56.344ZM11.633 62.888L11.9492 63.8367L12.633 63.6088V62.888H11.633ZM11.201 62.984L11.0366 61.9976L11.0272 61.9992L11.201 62.984ZM9.713 62.696L8.98886 63.3857L8.99727 63.3945L9.00589 63.4031L9.713 62.696ZM11.633 59.944V60.944H12.633V59.944H11.633ZM9.393 59.944H8.393V60.944H9.393V59.944ZM9.713 53.624L10.4201 54.3311L10.4201 54.3311L9.713 53.624ZM11.201 53.336L11.0272 54.3208L11.0366 54.3224L11.201 53.336ZM11.633 53.432H12.633V52.7112L11.9492 52.4833L11.633 53.432ZM10.609 58.952H9.609V59.952H10.609V58.952ZM10.609 57.144V56.144H9.609V57.144H10.609ZM15.441 57.144L16.2731 56.5893L15.9762 56.144H15.441V57.144ZM15.601 57.512L14.6395 57.7867L14.6484 57.8178L14.6593 57.8483L15.601 57.512ZM15.473 58.728L16.2058 59.4085L16.2175 59.3959L16.2287 59.3829L15.473 58.728ZM10.609 63.032H9.609V64.032H10.609V63.032ZM10.609 61.208V60.208H9.609V61.208H10.609ZM15.985 61.208L16.833 60.678L16.5392 60.208H15.985V61.208ZM16.129 61.576L15.1628 61.8337L15.1706 61.8632L15.1803 61.8922L16.129 61.576ZM16.001 62.808L16.7338 63.4885L16.7455 63.4759L16.7567 63.4629L16.001 62.808ZM10.609 55.112H9.609V56.112H10.609V55.112ZM10.609 53.288V52.288H9.609V53.288H10.609ZM15.905 53.288L16.7371 52.7333L16.4402 52.288H15.905V53.288ZM16.065 53.656L15.1035 53.9307L15.1124 53.9618L15.1233 53.9923L16.065 53.656ZM15.937 54.888L16.6698 55.5685L16.6815 55.5559L16.6927 55.5429L15.937 54.888ZM9.393 57.344H11.633V55.344H9.393V57.344ZM10.633 56.344V62.888H12.633V56.344H10.633ZM11.3168 61.9393C11.2968 61.946 11.2149 61.9679 11.0366 61.9976L11.3654 63.9704C11.5711 63.9361 11.7772 63.894 11.9492 63.8367L11.3168 61.9393ZM11.0272 61.9992C10.9114 62.0197 10.773 62.032 10.609 62.032V64.032C10.8717 64.032 11.1279 64.0123 11.3748 63.9688L11.0272 61.9992ZM10.609 62.032C10.4499 62.032 10.4234 61.9922 10.4201 61.9889L9.00589 63.4031C9.45063 63.8478 10.0214 64.032 10.609 64.032V62.032ZM10.4371 62.0063C10.4311 62 10.393 61.9693 10.393 61.816H8.393C8.393 62.3881 8.56826 62.944 8.98886 63.3857L10.4371 62.0063ZM10.393 61.816V56.344H8.393V61.816H10.393ZM11.633 58.944H9.393V60.944H11.633V58.944ZM10.393 59.944V54.52H8.393V59.944H10.393ZM10.393 54.52C10.393 54.4192 10.4071 54.3657 10.4147 54.3443C10.4184 54.334 10.421 54.33 10.421 54.33C10.4211 54.3298 10.421 54.3301 10.4206 54.3305C10.4202 54.331 10.42 54.3312 10.4201 54.3311L9.00589 52.9169C8.55739 53.3654 8.393 53.9467 8.393 54.52H10.393ZM10.4201 54.3311C10.4234 54.3278 10.4499 54.288 10.609 54.288V52.288C10.0214 52.288 9.45063 52.4722 9.00589 52.9169L10.4201 54.3311ZM10.609 54.288C10.773 54.288 10.9114 54.3003 11.0272 54.3208L11.3748 52.3512C11.1279 52.3076 10.8717 52.288 10.609 52.288V54.288ZM11.0366 54.3224C11.2149 54.3521 11.2968 54.374 11.3168 54.3807L11.9492 52.4833C11.7772 52.426 11.5711 52.3839 11.3654 52.3496L11.0366 54.3224ZM10.633 53.432V59.944H12.633V53.432H10.633ZM11.609 58.952V57.144H9.609V58.952H11.609ZM10.609 58.144H15.441V56.144H10.609V58.144ZM14.6089 57.6987C14.6033 57.6903 14.6053 57.6914 14.6119 57.7067C14.6185 57.7219 14.6283 57.7478 14.6395 57.7867L16.5625 57.2373C16.5006 57.0206 16.4104 56.7953 16.2731 56.5893L14.6089 57.6987ZM14.6593 57.8483C14.6669 57.8697 14.681 57.9232 14.681 58.024H16.681C16.681 57.7408 16.6418 57.453 16.5427 57.1757L14.6593 57.8483ZM14.681 58.024C14.681 58.0643 14.6787 58.0944 14.676 58.1156C14.6733 58.1367 14.6705 58.147 14.67 58.1487C14.6696 58.1501 14.6718 58.1421 14.6793 58.1278C14.6871 58.1131 14.6993 58.0938 14.7173 58.0731L16.2287 59.3829C16.5838 58.9732 16.681 58.4654 16.681 58.024H14.681ZM14.7402 58.0475C14.7796 58.0051 14.8268 57.976 14.8671 57.9607C14.9028 57.9472 14.9131 57.952 14.881 57.952V59.952C15.339 59.952 15.8317 59.8113 16.2058 59.4085L14.7402 58.0475ZM14.881 57.952H10.609V59.952H14.881V57.952ZM11.609 63.032V61.208H9.609V63.032H11.609ZM10.609 62.208H15.985V60.208H10.609V62.208ZM15.137 61.738C15.1226 61.715 15.1218 61.7082 15.1298 61.7284C15.1372 61.7473 15.1488 61.7811 15.1628 61.8337L17.0952 61.3183C17.0412 61.1157 16.962 60.8845 16.833 60.678L15.137 61.738ZM15.1803 61.8922C15.1953 61.9372 15.209 62.0048 15.209 62.104H17.209C17.209 61.8192 17.1693 61.5348 17.0777 61.2598L15.1803 61.8922ZM15.209 62.104C15.209 62.1443 15.2067 62.1744 15.204 62.1956C15.2013 62.2167 15.1985 62.227 15.198 62.2287C15.1976 62.2301 15.1998 62.2221 15.2073 62.2078C15.2151 62.1931 15.2273 62.1738 15.2453 62.1531L16.7567 63.4629C17.1118 63.0532 17.209 62.5454 17.209 62.104H15.209ZM15.2682 62.1275C15.3076 62.0851 15.3548 62.056 15.3951 62.0407C15.4308 62.0272 15.4411 62.032 15.409 62.032V64.032C15.867 64.032 16.3597 63.8913 16.7338 63.4885L15.2682 62.1275ZM15.409 62.032H10.609V64.032H15.409V62.032ZM11.609 55.112V53.288H9.609V55.112H11.609ZM10.609 54.288H15.905V52.288H10.609V54.288ZM15.073 53.8427C15.0673 53.8343 15.0693 53.8354 15.0759 53.8507C15.0825 53.8659 15.0923 53.8918 15.1035 53.9307L17.0265 53.3813C16.9646 53.1646 16.8744 52.9393 16.7371 52.7333L15.073 53.8427ZM15.1233 53.9923C15.1309 54.0137 15.145 54.0672 15.145 54.168H17.145C17.145 53.8848 17.1058 53.597 17.0067 53.3197L15.1233 53.9923ZM15.145 54.168C15.145 54.2123 15.1426 54.2459 15.1396 54.2701C15.1366 54.2944 15.1333 54.3071 15.1323 54.3105C15.1307 54.3161 15.1402 54.2805 15.1813 54.2331L16.6927 55.5429C17.0523 55.1279 17.145 54.6098 17.145 54.168H15.145ZM15.2042 54.2075C15.2436 54.1651 15.2908 54.136 15.3311 54.1207C15.3668 54.1072 15.3771 54.112 15.345 54.112V56.112C15.803 56.112 16.2957 55.9713 16.6698 55.5685L15.2042 54.2075ZM15.345 54.112H10.609V56.112H15.345V54.112ZM23.5113 55.416L22.9466 56.2413L22.9712 56.2581L22.9968 56.2735L23.5113 55.416ZM23.6553 56.984L22.6947 56.7059L22.6913 56.7177L22.6882 56.7295L23.6553 56.984ZM23.2233 58.392L22.2764 58.0701L22.2726 58.0816L23.2233 58.392ZM22.6473 60.024L23.5806 60.383L23.5829 60.3771L22.6473 60.024ZM21.9913 61.592L21.0816 61.1767L21.0778 61.185L21.0742 61.1933L21.9913 61.592ZM21.4153 62.824L22.0034 63.6327L22.1951 63.4933L22.3039 63.2826L21.4153 62.824ZM20.8873 63.048L20.6241 62.0832L20.8873 63.048ZM19.2233 63L19.5876 62.0688L19.5698 62.0618L19.5518 62.0555L19.2233 63ZM18.7113 62.584L19.6057 62.1368L19.6015 62.1283L19.5971 62.12L18.7113 62.584ZM18.2633 61.64L17.3416 62.0281L17.3459 62.0383L17.3504 62.0484L18.2633 61.64ZM17.7193 60.248L18.6579 59.9032L18.6579 59.9032L17.7193 60.248ZM17.1273 58.648L16.1823 58.9751L16.1861 58.9862L16.1902 58.9971L17.1273 58.648ZM16.5833 57.048L15.6271 57.3407L15.6307 57.3525L15.6346 57.3642L16.5833 57.048ZM16.1993 55.688L15.4644 55.0097L15.0981 55.4066L15.2291 55.9305L16.1993 55.688ZM16.6953 55.352L17.0833 56.2736L17.0945 56.2689L17.1056 56.2639L16.6953 55.352ZM18.1353 55.416L17.5498 56.2267L17.575 56.2449L17.6013 56.2615L18.1353 55.416ZM18.5833 56.136L17.6185 56.3991L17.6206 56.4069L17.6229 56.4146L18.5833 56.136ZM19.3353 58.728L18.3748 59.0066L18.3765 59.0121L19.3353 58.728ZM19.6073 59.624L20.5623 59.3276L20.5623 59.3276L19.6073 59.624ZM19.8793 60.504L18.9234 60.7981L18.9268 60.8088L19.8793 60.504ZM20.0873 61.176L19.1279 61.4582L19.339 62.176H20.0873V61.176ZM20.1513 61.176V62.176H20.8775L21.1022 61.4853L20.1513 61.176ZM20.9833 58.36L20.0194 58.0934L20.0175 58.1004L20.9833 58.36ZM21.7193 55.448L21.247 54.5665L20.8452 54.7818L20.7441 55.2264L21.7193 55.448ZM22.7433 56.208C22.8239 56.208 22.8758 56.2171 22.9058 56.2252C22.9343 56.2329 22.9449 56.2402 22.9466 56.2413L24.0759 54.5907C23.6684 54.3118 23.2017 54.208 22.7433 54.208V56.208ZM22.9968 56.2735C22.9674 56.2559 22.9356 56.2309 22.9063 56.1981C22.8771 56.1655 22.8571 56.1328 22.8445 56.1057C22.8206 56.0543 22.8313 56.0415 22.8313 56.104H24.8313C24.8313 55.5529 24.6377 54.9257 24.0257 54.5585L22.9968 56.2735ZM22.8313 56.104C22.8313 56.1003 22.8302 56.146 22.8067 56.2639C22.7846 56.3744 22.7484 56.5203 22.6947 56.7059L24.6158 57.2621C24.7339 56.854 24.8313 56.4403 24.8313 56.104H22.8313ZM22.6882 56.7295C22.5891 57.106 22.4526 57.552 22.2765 58.0701L24.17 58.7139C24.3565 58.1654 24.5081 57.6727 24.6223 57.2385L22.6882 56.7295ZM22.2726 58.0816C22.1071 58.5886 21.9202 59.1184 21.7116 59.6709L23.5829 60.3771C23.801 59.799 23.9981 59.2407 24.1739 58.7024L22.2726 58.0816ZM21.7139 59.665C21.5072 60.2026 21.2963 60.7063 21.0816 61.1767L22.9009 62.0073C23.1342 61.4963 23.3607 60.9548 23.5806 60.383L21.7139 59.665ZM21.0742 61.1933C20.8662 61.6716 20.6838 62.0608 20.5266 62.3654L22.3039 63.2826C22.488 62.9259 22.6896 62.4937 22.9083 61.9907L21.0742 61.1933ZM20.8271 62.0153C20.8457 62.0017 20.8435 62.007 20.8047 62.0234C20.7675 62.0392 20.7091 62.0601 20.6241 62.0832L21.1504 64.0128C21.4338 63.9355 21.7438 63.8216 22.0034 63.6327L20.8271 62.0153ZM20.6241 62.0832C20.4921 62.1192 20.3164 62.144 20.0873 62.144V64.144C20.4554 64.144 20.8131 64.1048 21.1504 64.0128L20.6241 62.0832ZM20.0873 62.144C19.8507 62.144 19.6914 62.1094 19.5876 62.0688L18.8589 63.9312C19.2457 64.0826 19.6625 64.144 20.0873 64.144V62.144ZM19.5518 62.0555C19.5194 62.0442 19.5223 62.04 19.5418 62.0559C19.5516 62.0638 19.5635 62.0752 19.5757 62.0902C19.5878 62.1054 19.5979 62.1213 19.6057 62.1368L17.8168 63.0312C18.0531 63.5038 18.4581 63.7926 18.8947 63.9445L19.5518 62.0555ZM19.5971 62.12C19.4938 61.9229 19.3542 61.6299 19.1761 61.2316L17.3504 62.0484C17.5349 62.4608 17.694 62.7971 17.8254 63.048L19.5971 62.12ZM19.1849 61.2519C19.0216 60.864 18.8459 60.4149 18.6579 59.9032L16.7806 60.5928C16.9766 61.1264 17.1636 61.6053 17.3416 62.0281L19.1849 61.2519ZM18.6579 59.9032C18.4654 59.379 18.2675 58.8443 18.0643 58.2989L16.1902 58.9971C16.3923 59.5397 16.5891 60.0716 16.7806 60.5928L18.6579 59.9032ZM18.0722 58.3209C17.8814 57.7695 17.7013 57.2398 17.5319 56.7318L15.6346 57.3642C15.8065 57.8802 15.9891 58.4171 16.1823 58.9751L18.0722 58.3209ZM17.5395 56.7553C17.3828 56.2435 17.2599 55.8077 17.1694 55.4455L15.2291 55.9305C15.3306 56.3363 15.4637 56.8072 15.6271 57.3407L17.5395 56.7553ZM16.9341 56.3663C16.9505 56.3485 16.9907 56.3126 17.0833 56.2736L16.3072 54.4304C15.9945 54.562 15.704 54.7502 15.4644 55.0097L16.9341 56.3663ZM17.1056 56.2639C17.1837 56.2288 17.2724 56.208 17.3833 56.208V54.208C17.0035 54.208 16.6335 54.2832 16.2849 54.4401L17.1056 56.2639ZM17.3833 56.208C17.5464 56.208 17.5737 56.2439 17.5498 56.2267L18.7207 54.6053C18.3128 54.3107 17.8387 54.208 17.3833 54.208V56.208ZM17.6013 56.2615C17.5541 56.2317 17.5411 56.2056 17.5502 56.2203C17.5613 56.2381 17.589 56.291 17.6185 56.3991L19.548 55.8729C19.4195 55.4018 19.1702 54.8869 18.6692 54.5705L17.6013 56.2615ZM17.6229 56.4146L18.3749 59.0066L20.2956 58.4494L19.5436 55.8574L17.6229 56.4146ZM18.3765 59.0121C18.4631 59.3045 18.555 59.6073 18.6522 59.9204L20.5623 59.3276C20.4675 59.022 20.3781 58.7275 20.294 58.4439L18.3765 59.0121ZM18.6522 59.9204C18.748 60.229 18.8384 60.5216 18.9235 60.7981L20.835 60.2099C20.7494 59.9317 20.6585 59.6376 20.5623 59.3276L18.6522 59.9204ZM18.9268 60.8088C19.0108 61.0711 19.0776 61.287 19.1279 61.4582L21.0466 60.8938C20.9903 60.7023 20.9184 60.4702 20.8317 60.1992L18.9268 60.8088ZM20.0873 62.176H20.1513V60.176H20.0873V62.176ZM21.1022 61.4853C21.3961 60.582 21.6783 59.6266 21.949 58.6196L20.0175 58.1004C19.7549 59.0774 19.4824 59.9993 19.2003 60.8667L21.1022 61.4853ZM21.9471 58.6266C22.2282 57.6102 22.4774 56.6245 22.6944 55.6696L20.7441 55.2264C20.5345 56.1488 20.293 57.1045 20.0194 58.0934L21.9471 58.6266ZM22.1915 56.3295C22.3265 56.2571 22.5018 56.208 22.7433 56.208V54.208C22.2167 54.208 21.7093 54.3188 21.247 54.5665L22.1915 56.3295ZM25.3746 60.264L24.3766 60.3264L24.4444 61.4109L25.5195 61.2535L25.3746 60.264ZM25.2786 58.728L25.128 57.7394L24.2235 57.8772L24.2806 58.7904L25.2786 58.728ZM29.3746 58.104L29.5252 59.0926L30.4584 58.9504L30.3703 58.0107L29.3746 58.104ZM28.9426 57.192L28.2067 57.8691L28.2139 57.8769L28.2212 57.8845L28.9426 57.192ZM26.5906 57.304L25.8724 56.6082L25.8724 56.6082L26.5906 57.304ZM26.0626 58.776L25.0632 58.7427L25.0616 58.7911L25.0646 58.8394L26.0626 58.776ZM26.1266 59.784L25.1286 59.8474L25.1315 59.8926L25.1385 59.9373L26.1266 59.784ZM26.8946 61.128L26.3399 61.9601L26.8946 61.128ZM29.6626 61.352L29.3541 60.4007L29.3464 60.4033L29.6626 61.352ZM30.6066 60.936L31.1474 60.0948L30.6094 59.7489L30.0698 60.0923L30.6066 60.936ZM30.9746 61.32L30.1171 61.8345L30.1294 61.8549L30.1426 61.8747L30.9746 61.32ZM30.7506 62.6L30.1104 61.8318L30.1024 61.8385L30.0944 61.8454L30.7506 62.6ZM29.7426 63.08L29.9852 64.0501L29.7426 63.08ZM26.0466 62.776L25.6114 63.6764L25.6173 63.6791L26.0466 62.776ZM24.5266 61.384L23.6639 61.8898L23.6704 61.9007L24.5266 61.384ZM24.3026 57.336L25.2228 57.7276L25.2228 57.7276L24.3026 57.336ZM25.1506 56.104L25.8233 56.8439L25.8244 56.843L25.1506 56.104ZM26.3826 55.368L26.0599 54.4215L26.0533 54.4238L26.3826 55.368ZM29.7266 55.56L29.2515 56.4399L29.2587 56.4438L29.7266 55.56ZM31.0066 56.744L31.8577 56.2189L31.8577 56.2189L31.0066 56.744ZM31.2146 59.208L31.8986 59.9375L31.9103 59.9265L31.9217 59.9151L31.2146 59.208ZM30.5106 59.512L30.3692 58.522L30.3658 58.5225L30.5106 59.512ZM26.3727 60.2016L26.2767 58.6656L24.2806 58.7904L24.3766 60.3264L26.3727 60.2016ZM25.4292 59.7166L29.5252 59.0926L29.224 57.1154L25.128 57.7394L25.4292 59.7166ZM30.3703 58.0107C30.3155 57.4262 30.0634 56.9155 29.664 56.4995L28.2212 57.8845C28.3338 58.0018 28.3698 58.0991 28.379 58.1973L30.3703 58.0107ZM29.6786 56.5149C29.1878 55.9815 28.519 55.792 27.8546 55.792V57.792C28.0043 57.792 28.0939 57.813 28.1416 57.8306C28.1838 57.8461 28.1988 57.8604 28.2067 57.8691L29.6786 56.5149ZM27.8546 55.792C27.0952 55.792 26.407 56.0563 25.8724 56.6082L27.3089 57.9998C27.4356 57.869 27.5901 57.792 27.8546 57.792V55.792ZM25.8724 56.6082C25.3165 57.182 25.0899 57.942 25.0632 58.7427L27.0621 58.8093C27.078 58.33 27.2034 58.1087 27.3089 57.9998L25.8724 56.6082ZM25.0646 58.8394L25.1286 59.8474L27.1246 59.7206L27.0606 58.7126L25.0646 58.8394ZM25.1385 59.9373C25.2658 60.7582 25.6344 61.4897 26.3399 61.9601L27.4493 60.2959C27.3229 60.2116 27.1794 60.0471 27.1148 59.6307L25.1385 59.9373ZM26.3399 61.9601C26.9499 62.3667 27.6589 62.544 28.4146 62.544V60.544C27.9756 60.544 27.6713 60.4439 27.4493 60.2959L26.3399 61.9601ZM28.4146 62.544C28.9587 62.544 29.4826 62.4661 29.9789 62.3007L29.3464 60.4033C29.0746 60.4939 28.7665 60.544 28.4146 60.544V62.544ZM29.9711 62.3032C30.4109 62.1606 30.8119 61.9907 31.1435 61.7797L30.0698 60.0923C29.932 60.18 29.7037 60.2874 29.3541 60.4008L29.9711 62.3032ZM30.0659 61.7772C30.0793 61.7858 30.0961 61.7994 30.1171 61.8345L31.8321 60.8055C31.6612 60.5206 31.4326 60.2782 31.1474 60.0948L30.0659 61.7772ZM30.1426 61.8747C30.1471 61.8814 30.1439 61.8784 30.1401 61.8663C30.1384 61.8606 30.1369 61.8543 30.1359 61.8478C30.1349 61.8413 30.1346 61.8359 30.1346 61.832H32.1346C32.1346 61.441 32.0159 61.0791 31.8067 60.7653L30.1426 61.8747ZM30.1346 61.832C30.1346 61.8347 30.1344 61.8311 30.1362 61.8231C30.1381 61.815 30.141 61.8071 30.1442 61.8008C30.1472 61.7947 30.1485 61.7941 30.1447 61.7988C30.1406 61.8037 30.1304 61.8151 30.1104 61.8318L31.3908 63.3682C31.845 62.9897 32.1346 62.4641 32.1346 61.832H30.1346ZM30.0944 61.8454C30.0025 61.9254 29.8252 62.0286 29.5001 62.1099L29.9852 64.0501C30.5134 63.9181 31.0081 63.7013 31.4068 63.3546L30.0944 61.8454ZM29.5001 62.1099C29.1702 62.1923 28.7637 62.24 28.2706 62.24V64.24C28.8868 64.24 29.4617 64.181 29.9852 64.0501L29.5001 62.1099ZM28.2706 62.24C27.5642 62.24 26.9732 62.1093 26.476 61.8729L25.6173 63.6791C26.4214 64.0614 27.313 64.24 28.2706 64.24V62.24ZM26.4818 61.8757C26.0194 61.6522 25.6577 61.3229 25.3828 60.8673L23.6704 61.9007C24.1422 62.6824 24.7939 63.2812 25.6115 63.6763L26.4818 61.8757ZM25.3893 60.8783C25.1384 60.4502 24.9826 59.8683 24.9826 59.08H22.9826C22.9826 60.1264 23.1896 61.0805 23.6639 61.8897L25.3893 60.8783ZM24.9826 59.08C24.9826 58.5251 25.0721 58.0816 25.2228 57.7276L23.3825 56.9444C23.1065 57.5931 22.9826 58.3122 22.9826 59.08H24.9826ZM25.2228 57.7276C25.3879 57.3396 25.5924 57.0539 25.8233 56.8439L24.478 55.3641C24.0049 55.7941 23.644 56.3297 23.3825 56.9444L25.2228 57.7276ZM25.8244 56.843C26.0883 56.6023 26.3821 56.4273 26.712 56.3122L26.0533 54.4238C25.4658 54.6287 24.9382 54.9444 24.4769 55.365L25.8244 56.843ZM26.7053 56.3145C27.0696 56.1903 27.4458 56.128 27.8386 56.128V54.128C27.2288 54.128 26.6343 54.2257 26.06 54.4215L26.7053 56.3145ZM27.8386 56.128C28.4306 56.128 28.8903 56.2449 29.2515 56.4399L30.2018 54.6801C29.4963 54.2991 28.6973 54.128 27.8386 54.128V56.128ZM29.2587 56.4438C29.6527 56.6524 29.944 56.9263 30.1556 57.2691L31.8577 56.2189C31.4505 55.5591 30.8885 55.0436 30.1945 54.6762L29.2587 56.4438ZM30.1556 57.2691C30.3575 57.5964 30.4706 57.9868 30.4706 58.472H32.4706C32.4706 57.6559 32.2744 56.8943 31.8577 56.2189L30.1556 57.2691ZM30.4706 58.472C30.4706 58.5451 30.4607 58.5717 30.4621 58.5675C30.4631 58.5648 30.4667 58.5553 30.475 58.5419C30.4834 58.5283 30.4944 58.514 30.5075 58.5009L31.9217 59.9151C32.3349 59.5019 32.4706 58.9678 32.4706 58.472H30.4706ZM30.5307 58.4785C30.5479 58.4623 30.5233 58.5 30.3692 58.5221L30.652 60.5019C31.0953 60.4386 31.54 60.2737 31.8986 59.9375L30.5307 58.4785ZM30.3658 58.5225L25.2298 59.2745L25.5195 61.2535L30.6555 60.5015L30.3658 58.5225ZM39.3916 59.56V60.56H40.3916V59.56H39.3916ZM37.1676 59.56H36.1676V60.56H37.1676V59.56ZM36.7996 57.192L36.1627 57.963L36.1729 57.9714L36.1833 57.9795L36.7996 57.192ZM35.0396 57L35.3027 57.9648L35.3229 57.9593L35.3428 57.9529L35.0396 57ZM34.3996 57.256L33.914 56.3818L33.3996 56.6676V57.256H34.3996ZM34.3996 59.56V60.56H35.3996V59.56H34.3996ZM32.1756 59.56H31.1756V60.56H32.1756V59.56ZM32.3356 56.392L31.5116 55.8255L31.5075 55.8314L31.5036 55.8373L32.3356 56.392ZM32.8316 55.912L32.2708 55.0841L32.2644 55.0884L32.2582 55.0928L32.8316 55.912ZM34.1116 55.352L34.3863 56.3135L34.3863 56.3135L34.1116 55.352ZM38.4636 55.88L37.834 56.657L37.8422 56.6635L38.4636 55.88ZM32.1756 58.808V57.808H31.1756V58.808H32.1756ZM34.3996 58.808H35.3996V57.808H34.3996V58.808ZM34.3996 62.984L34.6166 63.9602L35.3996 63.7862V62.984H34.3996ZM33.9836 63.064L34.1574 64.0488L33.9836 63.064ZM32.4636 62.888L31.8497 63.6774L31.86 63.6853L31.8704 63.6931L32.4636 62.888ZM37.1676 58.808V57.808H36.1676V58.808H37.1676ZM39.3916 58.808H40.3916V57.808H39.3916V58.808ZM39.3916 62.984L39.6086 63.9602L40.3916 63.7862V62.984H39.3916ZM38.9756 63.064L38.8018 62.0792L38.8018 62.0792L38.9756 63.064ZM37.4556 62.888L36.8417 63.6774L36.852 63.6853L36.8624 63.6931L37.4556 62.888ZM38.3916 58.04V59.56H40.3916V58.04H38.3916ZM39.3916 58.56H37.1676V60.56H39.3916V58.56ZM38.1676 59.56V58.104H36.1676V59.56H38.1676ZM38.1676 58.104C38.1676 57.4914 37.9791 56.8453 37.4159 56.4045L36.1833 57.9795C36.1747 57.9728 36.1654 57.9635 36.1575 57.9528C36.1498 57.9425 36.1475 57.9362 36.1483 57.9382C36.1506 57.944 36.1676 57.9911 36.1676 58.104H38.1676ZM37.4365 56.421C36.9675 56.0336 36.3964 55.888 35.8236 55.888V57.888C36.0615 57.888 36.141 57.945 36.1627 57.963L37.4365 56.421ZM35.8236 55.888C35.4497 55.888 35.0841 55.9364 34.7364 56.0471L35.3428 57.9529C35.4645 57.9142 35.6215 57.888 35.8236 57.888V55.888ZM34.7765 56.0352C34.4725 56.1181 34.1833 56.2322 33.914 56.3818L34.8853 58.1302C34.9999 58.0664 35.1374 58.0098 35.3027 57.9648L34.7765 56.0352ZM33.3996 57.256V59.56H35.3996V57.256H33.3996ZM34.3996 58.56H32.1756V60.56H34.3996V58.56ZM33.1756 59.56V57.032H31.1756V59.56H33.1756ZM33.1756 57.032C33.1756 56.9638 33.1826 56.9272 33.1858 56.9145C33.1886 56.9033 33.1863 56.9187 33.1677 56.9467L31.5036 55.8373C31.2526 56.2138 31.1756 56.6417 31.1756 57.032H33.1756ZM33.1597 56.9585C33.1943 56.9081 33.2655 56.8289 33.4051 56.7312L32.2582 55.0928C31.971 55.2937 31.7116 55.5346 31.5116 55.8255L33.1597 56.9585ZM33.3925 56.7399C33.6102 56.5924 33.9314 56.4435 34.3863 56.3135L33.8369 54.3905C33.2465 54.5591 32.7144 54.7836 32.2708 55.0841L33.3925 56.7399ZM34.3863 56.3135C34.8055 56.1938 35.2926 56.128 35.8556 56.128V54.128C35.1387 54.128 34.4631 54.2116 33.8369 54.3905L34.3863 56.3135ZM35.8556 56.128C36.838 56.128 37.4536 56.3486 37.834 56.6569L39.0932 55.1031C38.2363 54.4087 37.1132 54.128 35.8556 54.128V56.128ZM37.8422 56.6635C38.1726 56.9255 38.3916 57.3273 38.3916 58.04H40.3916C40.3916 56.8541 39.9919 55.8158 39.085 55.0965L37.8422 56.6635ZM32.1756 59.808H34.3996V57.808H32.1756V59.808ZM33.3996 58.808V62.984H35.3996V58.808H33.3996ZM34.1827 62.0078C34.1084 62.0243 33.9868 62.048 33.8098 62.0792L34.1574 64.0488C34.3431 64.016 34.4989 63.9863 34.6166 63.9602L34.1827 62.0078ZM33.8098 62.0792C33.694 62.0997 33.5556 62.112 33.3916 62.112V64.112C33.6543 64.112 33.9105 64.0923 34.1574 64.0488L33.8098 62.0792ZM33.3916 62.112C33.24 62.112 33.1408 62.098 33.0823 62.0839C33.0241 62.0699 33.0267 62.0607 33.0568 62.0829L31.8704 63.6931C32.3248 64.0279 32.8891 64.112 33.3916 64.112V62.112ZM33.0776 62.0986C33.1153 62.128 33.1436 62.1601 33.1632 62.1887C33.1821 62.2164 33.1894 62.2357 33.1906 62.2392C33.1917 62.2422 33.1876 62.2315 33.1834 62.2025C33.1793 62.1735 33.1756 62.1309 33.1756 62.072H31.1756C31.1756 62.5838 31.295 63.2459 31.8497 63.6774L33.0776 62.0986ZM33.1756 62.072V58.808H31.1756V62.072H33.1756ZM37.1676 59.808H39.3916V57.808H37.1676V59.808ZM38.3916 58.808V62.984H40.3916V58.808H38.3916ZM39.1747 62.0078C39.1004 62.0243 38.9788 62.048 38.8018 62.0792L39.1494 64.0488C39.3351 64.016 39.4909 63.9863 39.6086 63.9602L39.1747 62.0078ZM38.8018 62.0792C38.6833 62.1001 38.5498 62.112 38.3996 62.112V64.112C38.6548 64.112 38.9053 64.0919 39.1494 64.0488L38.8018 62.0792ZM38.3996 62.112C38.2409 62.112 38.1366 62.0978 38.0745 62.083C38.0123 62.0683 38.0158 62.0586 38.0488 62.0829L36.8624 63.6931C37.3201 64.0303 37.8932 64.112 38.3996 64.112V62.112ZM38.0696 62.0986C38.1073 62.128 38.1356 62.1601 38.1552 62.1887C38.1741 62.2164 38.1814 62.2357 38.1826 62.2392C38.1837 62.2422 38.1796 62.2315 38.1754 62.2025C38.1713 62.1735 38.1676 62.1309 38.1676 62.072H36.1676C36.1676 62.5838 36.287 63.2459 36.8417 63.6774L38.0696 62.0986ZM38.1676 62.072V58.808H36.1676V62.072H38.1676ZM40.5479 58.776V57.776H39.5479V58.776H40.5479ZM42.7719 58.776H43.7719V57.776H42.7719V58.776ZM43.0599 61.24L42.4744 62.0507L42.4847 62.0581L42.4952 62.0653L43.0599 61.24ZM44.4199 61.4L44.5937 62.3848L44.6153 62.381L44.6368 62.3762L44.4199 61.4ZM44.9159 61.256L45.623 60.5489L45.1635 60.0894L44.5569 60.3227L44.9159 61.256ZM45.1399 61.592L44.2319 62.0111L44.2385 62.0252L44.2454 62.0392L45.1399 61.592ZM44.7879 62.888L44.1879 62.088L44.1809 62.0933L44.1739 62.0986L44.7879 62.888ZM41.2839 62.632L40.6571 63.4113L40.6653 63.4177L41.2839 62.632ZM41.9399 57.256H40.9399V58.256H41.9399V57.256ZM41.9399 55.528V54.528H40.9399V55.528H41.9399ZM45.0439 55.528L45.8919 54.998L45.5981 54.528H45.0439V55.528ZM45.1879 55.88L44.2264 56.1547L44.2352 56.1858L44.2461 56.2163L45.1879 55.88ZM45.0599 57.048L45.767 57.7551L45.7801 57.742L45.7927 57.7285L45.0599 57.048ZM42.7719 59.192V60.192H43.7719V59.192H42.7719ZM40.5479 59.192H39.5479V60.192H40.5479V59.192ZM40.5479 53.432L40.2317 52.4833L39.5479 52.7112V53.432H40.5479ZM40.9639 53.336L40.7995 52.3496L40.7901 52.3512L40.9639 53.336ZM42.4679 53.512L41.8539 54.3014L41.8642 54.3093L41.8747 54.3171L42.4679 53.512ZM40.5479 59.776H42.7719V57.776H40.5479V59.776ZM41.7719 58.776V60.552H43.7719V58.776H41.7719ZM41.7719 60.552C41.7719 61.0706 41.9365 61.6622 42.4744 62.0507L43.6454 60.4293C43.6724 60.4489 43.6987 60.4737 43.7214 60.5027C43.7438 60.5314 43.758 60.5581 43.7663 60.5779C43.7819 60.6151 43.7719 60.6159 43.7719 60.552H41.7719ZM42.4952 62.0653C42.9219 62.3573 43.422 62.448 43.8919 62.448V60.448C43.6578 60.448 43.6032 60.4001 43.6246 60.4147L42.4952 62.0653ZM43.8919 62.448C44.1252 62.448 44.3594 62.4261 44.5937 62.3848L44.2461 60.4152C44.1177 60.4379 43.9999 60.448 43.8919 60.448V62.448ZM44.6368 62.3762C44.8627 62.326 45.0779 62.2651 45.2749 62.1893L44.5569 60.3227C44.4765 60.3536 44.3611 60.3887 44.2029 60.4238L44.6368 62.3762ZM44.2088 61.9631C44.1999 61.9542 44.1989 61.9513 44.2038 61.9587C44.2088 61.9662 44.2188 61.9827 44.2319 62.0111L46.0478 61.1729C45.947 60.9544 45.8106 60.7365 45.623 60.5489L44.2088 61.9631ZM44.2454 62.0392C44.2349 62.0182 44.2324 62.0055 44.2326 62.0066C44.233 62.0083 44.2359 62.0236 44.2359 62.056H46.2359C46.2359 61.7598 46.1838 61.4437 46.0343 61.1448L44.2454 62.0392ZM44.2359 62.056C44.2359 62.0628 44.2352 62.0618 44.2367 62.0555C44.2383 62.0489 44.2409 62.0425 44.2434 62.0379C44.2491 62.0274 44.2424 62.0471 44.1879 62.088L45.3879 63.688C45.9011 63.3031 46.2359 62.7452 46.2359 62.056H44.2359ZM44.1739 62.0986C44.1766 62.0966 44.1307 62.1321 43.9846 62.1662C43.8405 62.1998 43.633 62.224 43.3479 62.224V64.224C44.0787 64.224 44.8424 64.1125 45.4018 63.6774L44.1739 62.0986ZM43.3479 62.224C42.6153 62.224 42.1722 62.0586 41.9024 61.8463L40.6653 63.4177C41.3983 63.9947 42.3311 64.224 43.3479 64.224V62.224ZM41.9106 61.8528C41.7409 61.7163 41.5479 61.4236 41.5479 60.712H39.5479C39.5479 61.7711 39.8455 62.7584 40.6571 63.4112L41.9106 61.8528ZM41.5479 60.712V58.776H39.5479V60.712H41.5479ZM42.9399 57.256V55.528H40.9399V57.256H42.9399ZM41.9399 56.528H45.0439V54.528H41.9399V56.528ZM44.1959 56.058C44.1859 56.042 44.1866 56.0397 44.1943 56.0586C44.2018 56.0768 44.2129 56.1078 44.2264 56.1547L46.1494 55.6053C46.0934 55.4091 46.014 55.1934 45.8919 54.998L44.1959 56.058ZM44.2461 56.2163C44.2558 56.2434 44.2679 56.2931 44.2679 56.376H46.2679C46.2679 56.0963 46.2266 55.8152 46.1296 55.5437L44.2461 56.2163ZM44.2679 56.376C44.2679 56.4124 44.2657 56.438 44.2636 56.4545C44.2614 56.4709 44.2594 56.4761 44.2606 56.4723C44.2618 56.4683 44.2664 56.4548 44.2773 56.4353C44.2884 56.4154 44.3047 56.3917 44.3271 56.3675L45.7927 57.7285C46.1684 57.3238 46.2679 56.8112 46.2679 56.376H44.2679ZM44.3528 56.3409C44.3867 56.3069 44.4284 56.2812 44.4677 56.2666C44.5037 56.2532 44.5191 56.256 44.4999 56.256V58.256C44.9439 58.256 45.4047 58.1174 45.767 57.7551L44.3528 56.3409ZM44.4999 56.256H41.9399V58.256H44.4999V56.256ZM42.7719 58.192H40.5479V60.192H42.7719V58.192ZM41.5479 59.192V53.432H39.5479V59.192H41.5479ZM40.8641 54.3807C40.8904 54.3719 40.9723 54.35 41.1377 54.3208L40.7901 52.3512C40.5927 52.386 40.3974 52.4281 40.2317 52.4833L40.8641 54.3807ZM41.1283 54.3224C41.2638 54.2998 41.406 54.288 41.5559 54.288V52.288C41.3004 52.288 41.048 52.3082 40.7995 52.3496L41.1283 54.3224ZM41.5559 54.288C41.7081 54.288 41.8041 54.3021 41.8574 54.3151C41.9105 54.3282 41.8959 54.334 41.8539 54.3014L43.0818 52.7226C42.6277 52.3694 42.0515 52.288 41.5559 52.288V54.288ZM41.8747 54.3171C41.8391 54.2909 41.8107 54.2609 41.7899 54.2321C41.7698 54.2042 41.7611 54.1834 41.7588 54.1771C41.7567 54.1714 41.7603 54.1792 41.7642 54.2053C41.7682 54.2313 41.7719 54.2714 41.7719 54.328H43.7719C43.7719 53.7997 43.6384 53.1323 43.0611 52.7069L41.8747 54.3171ZM41.7719 54.328V59.192H43.7719V54.328H41.7719Z" fill="black" mask="url(#path-3-outside-1_4501_6)"/>
<defs>
<filter id="filter0_iiiii_4501_6" x="3" y="-4" width="48" height="52" filterUnits="userSpaceOnUse" color-interpolation-filters="sRGB">
<feFlood flood-opacity="0" result="BackgroundImageFix"/>
<feBlend mode="normal" in="SourceGraphic" in2="BackgroundImageFix" result="shape"/>
<feColorMatrix in="SourceAlpha" type="matrix" values="0 0 0 0 0 0 0 0 0 0 0 0 0 0 0 0 0 0 127 0" result="hardAlpha"/>
<feOffset dy="-1"/>
<feGaussianBlur stdDeviation="0.5"/>
<feComposite in2="hardAlpha" operator="arithmetic" k2="-1" k3="1"/>
<feColorMatrix type="matrix" values="0 0 0 0 0.921569 0 0 0 0 0.545098 0 0 0 0 0.996078 0 0 0 0.37 0"/>
<feBlend mode="normal" in2="shape" result="effect1_innerShadow_4501_6"/>
<feColorMatrix in="SourceAlpha" type="matrix" values="0 0 0 0 0 0 0 0 0 0 0 0 0 0 0 0 0 0 127 0" result="hardAlpha"/>
<feOffset dy="-2"/>
<feGaussianBlur stdDeviation="1"/>
<feComposite in2="hardAlpha" operator="arithmetic" k2="-1" k3="1"/>
<feColorMatrix type="matrix" values="0 0 0 0 0.921569 0 0 0 0 0.545098 0 0 0 0 0.996078 0 0 0 0.32 0"/>
<feBlend mode="normal" in2="effect1_innerShadow_4501_6" result="effect2_innerShadow_4501_6"/>
<feColorMatrix in="SourceAlpha" type="matrix" values="0 0 0 0 0 0 0 0 0 0 0 0 0 0 0 0 0 0 127 0" result="hardAlpha"/>
<feOffset dy="-5"/>
<feGaussianBlur stdDeviation="1.5"/>
<feComposite in2="hardAlpha" operator="arithmetic" k2="-1" k3="1"/>
<feColorMatrix type="matrix" values="0 0 0 0 0.921569 0 0 0 0 0.545098 0 0 0 0 0.996078 0 0 0 0.19 0"/>
<feBlend mode="normal" in2="effect2_innerShadow_4501_6" result="effect3_innerShadow_4501_6"/>
<feColorMatrix in="SourceAlpha" type="matrix" values="0 0 0 0 0 0 0 0 0 0 0 0 0 0 0 0 0 0 127 0" result="hardAlpha"/>
<feOffset dy="-8"/>
<feGaussianBlur stdDeviation="1.5"/>
<feComposite in2="hardAlpha" operator="arithmetic" k2="-1" k3="1"/>
<feColorMatrix type="matrix" values="0 0 0 0 0.921569 0 0 0 0 0.545098 0 0 0 0 0.996078 0 0 0 0.06 0"/>
<feBlend mode="normal" in2="effect3_innerShadow_4501_6" result="effect4_innerShadow_4501_6"/>
<feColorMatrix in="SourceAlpha" type="matrix" values="0 0 0 0 0 0 0 0 0 0 0 0 0 0 0 0 0 0 127 0" result="hardAlpha"/>
<feOffset dy="-13"/>
<feGaussianBlur stdDeviation="2"/>
<feComposite in2="hardAlpha" operator="arithmetic" k2="-1" k3="1"/>
<feColorMatrix type="matrix" values="0 0 0 0 0.921569 0 0 0 0 0.545098 0 0 0 0 0.996078 0 0 0 0.01 0"/>
<feBlend mode="normal" in2="effect4_innerShadow_4501_6" result="effect5_innerShadow_4501_6"/>
</filter>
<filter id="filter1_d_4501_6" x="11.475" y="6.625" width="32.975" height="35.75" filterUnits="userSpaceOnUse" color-interpolation-filters="sRGB">
<feFlood flood-opacity="0" result="BackgroundImageFix"/>
<feColorMatrix in="SourceAlpha" type="matrix" values="0 0 0 0 0 0 0 0 0 0 0 0 0 0 0 0 0 0 127 0" result="hardAlpha"/>
<feOffset dy="1"/>
<feGaussianBlur stdDeviation="2"/>
<feComposite in2="hardAlpha" operator="out"/>
<feColorMatrix type="matrix" values="0 0 0 0 0 0 0 0 0 0 0 0 0 0 0 0 0 0 0.25 0"/>
<feBlend mode="normal" in2="BackgroundImageFix" result="effect1_dropShadow_4501_6"/>
<feBlend mode="normal" in="SourceGraphic" in2="effect1_dropShadow_4501_6" result="shape"/>
</filter>
<linearGradient id="paint0_linear_4501_6" x1="27" y1="0" x2="27" y2="48" gradientUnits="userSpaceOnUse">
<stop stop-color="#6F00FF"/>
<stop offset="1" stop-color="#B71FFF"/>
</linearGradient>
<linearGradient id="paint1_linear_4501_6" x1="40.45" y1="37.375" x2="12.8533" y2="12.538" gradientUnits="userSpaceOnUse">
<stop stop-color="#FF695F"/>
<stop offset="1" stop-color="#FFDD65"/>
</linearGradient>
<clipPath id="clip0_4501_6">
<rect width="37" height="37" fill="white" transform="translate(9 5)"/>
</clipPath>
</defs>
</svg>
