<svg width="50" height="50" viewBox="0 0 50 50" fill="none" xmlns="http://www.w3.org/2000/svg">
<path d="M25.12 3C12.92 3 3 12.92 3 25.12C3 37.32 12.92 47.24 25.12 47.24C37.32 47.24 47.24 37.32 47.24 25.12C47.24 12.92 37.3137 3 25.12 3ZM43.1838 34.5487L41.0235 33.3016C40.6078 33.0623 40.0787 33.2072 39.8394 33.6166C39.6 34.0322 39.7449 34.5613 40.1543 34.8006L42.3146 36.0477C40.7086 38.5671 38.5671 40.7086 36.0477 42.3146L34.8006 40.1543C34.5613 39.7386 34.0322 39.6 33.6166 39.8394C33.2009 40.0787 33.0623 40.6078 33.3016 41.0235L34.5487 43.1838C31.9664 44.538 29.0691 45.3505 25.9892 45.4827V42.9823C25.9892 42.5036 25.5987 42.1131 25.12 42.1131C24.6413 42.1131 24.2508 42.5036 24.2508 42.9823V45.4827C21.1709 45.3505 18.2673 44.538 15.6913 43.1838L16.9384 41.0235C17.1777 40.6078 17.0328 40.0787 16.6235 39.8394C16.2078 39.6 15.6787 39.7449 15.4394 40.1543L14.1923 42.3146C11.6729 40.7086 9.53145 38.5671 7.92535 36.0477L10.0857 34.8006C10.5014 34.5613 10.64 34.0322 10.4006 33.6166C10.1613 33.2009 9.63222 33.056 9.21653 33.3016L7.05617 34.5487C5.70202 31.9664 4.88952 29.0691 4.75726 25.9892H7.25772C7.7364 25.9892 8.1269 25.5987 8.1269 25.12C8.1269 24.6413 7.7364 24.2508 7.25772 24.2508H4.75726C4.88952 21.1709 5.70202 18.2673 7.05617 15.6913L9.21653 16.9384C9.35509 17.0203 9.49995 17.058 9.65112 17.058C9.95344 17.058 10.2432 16.9006 10.4006 16.6235C10.64 16.2078 10.4951 15.6787 10.0857 15.4394L7.92535 14.1923C9.53145 11.6729 11.6729 9.53145 14.1923 7.92535L15.4394 10.0857C15.6031 10.3628 15.8928 10.5203 16.1889 10.5203C16.3337 10.5203 16.4849 10.4825 16.6235 10.4006C17.0391 10.1613 17.1777 9.63222 16.9384 9.21653L15.6913 7.05617C18.2736 5.70202 21.1709 4.88952 24.2508 4.75726V7.25772C24.2508 7.7364 24.6413 8.1269 25.12 8.1269C25.5987 8.1269 25.9892 7.7364 25.9892 7.25772V4.75726C29.0691 4.88952 31.9727 5.70202 34.5487 7.05617L33.3016 9.21653C33.0623 9.63222 33.2072 10.1613 33.6166 10.4006C33.7551 10.4825 33.9 10.5203 34.0511 10.5203C34.3535 10.5203 34.6432 10.3628 34.8006 10.0857L36.0477 7.92535C38.5671 9.53145 40.7086 11.6729 42.3146 14.1923L40.1543 15.4394C39.7386 15.6787 39.6 16.2078 39.8394 16.6235C40.0031 16.9006 40.2929 17.058 40.5889 17.058C40.7337 17.058 40.8849 17.0203 41.0235 16.9384L43.1838 15.6913C44.538 18.2736 45.3505 21.1709 45.4827 24.2508H42.9823C42.5036 24.2508 42.1131 24.6413 42.1131 25.12C42.1131 25.5987 42.5036 25.9892 42.9823 25.9892H45.4827C45.3505 29.0628 44.538 31.9664 43.1838 34.5487Z" fill="url(#paint0_linear_2543_1505)"/>
<path d="M39.7071 24.2508H37.5657C37.1185 17.7194 31.6829 12.561 25.0444 12.561C24.8492 12.561 24.6539 12.5673 24.4587 12.5736C27.3937 14.5387 28.8298 19.3129 25.7435 24.1249C25.5609 24.0115 25.3467 23.9359 25.1137 23.9359C24.8051 23.9359 24.5279 24.0556 24.3201 24.2508H10.3754C9.89675 24.2508 9.50625 24.6413 9.50625 25.12C9.50625 25.5987 9.89675 25.9892 10.3754 25.9892H12.5169C12.9641 32.5143 18.3996 37.679 25.0444 37.679C25.2397 37.679 25.4349 37.6727 25.6302 37.6664C22.6825 35.695 21.2465 30.883 24.3894 26.0459C24.5909 26.2033 24.8429 26.3041 25.1137 26.3041C25.4223 26.3041 25.6995 26.1844 25.9073 25.9892H39.7071C40.1858 25.9892 40.5763 25.5987 40.5763 25.12C40.5763 24.6413 40.1858 24.2508 39.7071 24.2508Z" fill="url(#paint1_linear_2543_1505)"/>
<defs>
<linearGradient id="paint0_linear_2543_1505" x1="25.12" y1="3" x2="25.12" y2="47.24" gradientUnits="userSpaceOnUse">
<stop stop-color="white"/>
<stop offset="1" stop-color="#00E4FF"/>
</linearGradient>
<linearGradient id="paint1_linear_2543_1505" x1="25.12" y1="3" x2="25.12" y2="47.24" gradientUnits="userSpaceOnUse">
<stop stop-color="white"/>
<stop offset="1" stop-color="#00E4FF"/>
</linearGradient>
</defs>
</svg>
