<svg width="50" height="50" viewBox="0 0 50 50" fill="none" xmlns="http://www.w3.org/2000/svg">
<path fill-rule="evenodd" clip-rule="evenodd" d="M16.5075 43.6037C15.2425 42.61 14.9267 42.0729 15.1523 40.401L15.4851 37.9343C15.7029 35.9309 17.1684 34.1937 19.226 34.1937H31.774C33.8315 34.1937 35.2971 35.9313 35.5149 37.9343L35.8476 40.401C36.0733 42.0729 35.7575 42.61 34.4925 43.6037C29.3563 47.6385 21.6427 47.6375 16.5075 43.6037ZM25.5001 22.6939C28.4129 22.6939 30.7754 25.0561 30.7754 27.9692C30.7754 30.8823 28.4132 33.2448 25.5001 33.2448C22.5871 33.2448 20.2249 30.8826 20.2249 27.9692C20.2245 25.0561 22.5871 22.6939 25.5001 22.6939ZM20.1138 15.4998H30.8861C30.3774 16.4266 30.0874 17.4904 30.0874 18.6222C30.0874 20.6337 31.0021 22.432 32.4379 23.6242H30.3304C29.1408 22.3027 27.4173 21.4713 25.4998 21.4713C23.5824 21.4713 21.8589 22.3027 20.6693 23.6242H18.5615C19.9976 22.432 20.9122 20.6337 20.9122 18.6222C20.9126 17.4908 20.6229 16.4266 20.1138 15.4998ZM25.5001 4C28.4129 4 30.7754 6.36253 30.7754 9.27529C30.7754 12.188 28.4132 14.5506 25.5001 14.5506C22.5871 14.5506 20.2249 12.188 20.2249 9.27529C20.2249 6.36253 22.5871 4 25.5001 4ZM31.199 24.8468H42.8591C44.9167 24.8468 46.3822 26.5843 46.6 28.5873L46.9328 31.054C47.1584 32.7263 46.843 33.2631 45.5776 34.2571C43.0267 36.2607 39.8406 37.2685 36.6499 37.2822C36.1794 34.9167 34.3063 32.9712 31.7737 32.9712H29.6466C31.0827 31.7793 31.9977 29.9807 31.9977 27.9692C31.998 26.8377 31.708 25.7735 31.199 24.8468ZM36.585 13.3469C39.498 13.3469 41.8602 15.7092 41.8602 18.6222C41.8602 21.5353 39.4977 23.8975 36.585 23.8975C33.6719 23.8975 31.3097 21.5353 31.3097 18.6222C31.31 15.7092 33.6722 13.3469 36.585 13.3469ZM5.42237 34.2571C4.15734 33.2631 3.84158 32.7263 4.06722 31.054L4.40029 28.5873C4.61809 26.5843 6.08361 24.8468 8.14083 24.8468H19.801C19.2919 25.7735 19.0023 26.8374 19.0023 27.9689C19.0023 29.9804 19.9169 31.779 21.3531 32.9708H19.2263C16.6936 32.9708 14.8203 34.9164 14.3504 37.2818C11.1591 37.2685 7.97266 36.2604 5.42237 34.2571ZM14.4147 13.3469C17.3278 13.3469 19.69 15.7092 19.69 18.6222C19.69 21.5353 17.3278 23.8975 14.4147 23.8975C11.5019 23.8975 9.1394 21.5353 9.1394 18.6222C9.1394 15.7092 11.5019 13.3469 14.4147 13.3469Z" fill="url(#paint0_linear_2543_2315)"/>
<defs>
<linearGradient id="paint0_linear_2543_2315" x1="25.5" y1="4" x2="25.5" y2="46.6294" gradientUnits="userSpaceOnUse">
<stop stop-color="white"/>
<stop offset="1" stop-color="#00E4FF"/>
</linearGradient>
</defs>
</svg>
