<svg width="50" height="50" viewBox="0 0 50 50" fill="none" xmlns="http://www.w3.org/2000/svg">
<path fill-rule="evenodd" clip-rule="evenodd" d="M5.46306 38.1044H44.3929L44.3857 38.4926C44.3688 39.3239 43.6736 40 42.8377 40H7.01944C6.18232 40 5.48712 39.3239 5.47148 38.4926L5.46306 38.1044ZM25.5239 25.719C25.5239 25.3929 25.2557 25.1265 24.9274 25.1265C24.599 25.1265 24.3308 25.3917 24.3308 25.719C24.3308 26.045 24.5978 26.3114 24.9274 26.3114C25.2557 26.3102 25.5239 26.045 25.5239 25.719ZM24.9286 30.7787L22.6445 28.637V22.1547H27.2126V28.637L24.9286 30.7787ZM24.9286 28.9357C25.192 28.9357 25.4073 28.723 25.4073 28.4603V27.1846C26.0303 26.9839 26.4813 26.4022 26.4813 25.7178C26.4813 24.8673 25.7849 24.1757 24.9286 24.1757C24.0722 24.1757 23.3758 24.8673 23.3758 25.7178C23.3758 26.4022 23.8268 26.9839 24.4499 27.1846V28.4615C24.4499 28.7242 24.664 28.9357 24.9286 28.9357ZM28.1676 28.8425C28.1676 28.9727 28.1135 29.0981 28.0185 29.1877L25.2557 31.7773C25.1631 31.8633 25.0452 31.9075 24.9274 31.9063C24.8083 31.9063 24.6904 31.8633 24.599 31.7773L21.8375 29.1865C21.7413 29.0969 21.6871 28.9715 21.6871 28.8413V22.1547H5.14553L5.44382 37.1536H44.4109L44.7092 22.1547H28.1676V28.8425ZM37.0741 19.5149C37.0644 19.5149 37.0536 19.5149 37.044 19.5137H34.2861C34.2764 19.5149 34.2668 19.5149 34.2572 19.5149C34.2476 19.5149 34.2368 19.5149 34.2271 19.5137H15.63C15.6204 19.5149 15.6096 19.5149 15.5999 19.5149C15.5903 19.5149 15.5807 19.5149 15.5711 19.5137H12.8119C12.8023 19.5149 12.7915 19.5149 12.7819 19.5149C12.7723 19.5149 12.7626 19.5149 12.753 19.5137H5.09261L5.12629 21.2051H44.7285L44.7621 19.5137H37.1029C37.0933 19.5149 37.0837 19.5149 37.0741 19.5149ZM39.0093 9H35.2759L35.3204 9.06689C37.1559 11.8834 37.9617 15.2351 37.6141 18.5629H44.7826L44.8571 14.8003C44.8535 11.6027 42.2315 9 39.0093 9ZM34.7948 18.5641H36.6519C37.0031 15.4191 36.2514 12.2454 34.517 9.58409L34.1369 9H32.4579L32.5024 9.06689C34.3366 11.8834 35.1436 15.2363 34.7948 18.5641ZM16.0221 18.5641H33.8338C34.185 15.4191 33.4333 12.2454 31.6989 9.58409L31.3188 9H18.5371L18.1582 9.5829C16.4226 12.2454 15.6709 15.4191 16.0221 18.5641ZM13.204 18.5641H15.0599C14.7123 15.2363 15.5182 11.8834 17.3548 9.06689L17.3981 9H15.719L15.3401 9.5829C13.6046 12.2454 12.8528 15.4191 13.204 18.5641ZM14.5367 9.06808L14.58 9.00119H10.8466C7.62443 9.00119 5.00241 11.6039 5 14.8027L5.07457 18.5653H12.243C11.8942 15.2363 12.7001 11.8834 14.5367 9.06808Z" fill="url(#paint0_linear_2543_1568)"/>
<defs>
<linearGradient id="paint0_linear_2543_1568" x1="24.9286" y1="9" x2="24.9286" y2="40" gradientUnits="userSpaceOnUse">
<stop stop-color="white"/>
<stop offset="1" stop-color="#00E4FF"/>
</linearGradient>
</defs>
</svg>
