<svg width="50" height="50" viewBox="0 0 50 50" fill="none" xmlns="http://www.w3.org/2000/svg">
<path d="M46.7979 25.4015L29.3894 8V16.3304L20.2204 14.6601C20.458 15.1144 20.6957 15.5616 20.9333 16.0159C22.4917 18.993 23.9593 22.019 25.4129 25.0451L25.5877 25.4015L25.4129 25.7649C23.9593 28.7979 22.4917 31.817 20.9333 34.7941C20.6957 35.2484 20.458 35.6956 20.2204 36.1499L29.3894 34.4796V42.81L46.7979 25.4015Z" fill="url(#paint0_linear_2529_1405)"/>
<path d="M16.9358 29.6436C17.3551 28.7211 18.3685 26.5406 18.8926 25.4085C18.3964 24.3532 17.3971 22.1938 16.9847 21.2852C16.2789 19.7408 15.573 18.1893 14.9021 16.6309C14.8812 16.5819 14.8602 16.533 14.8393 16.4841C14.399 15.4778 13.9797 14.4644 13.5464 13.4511L11.7573 13.1226C12.2745 14.108 12.7916 15.0934 13.2948 16.0858C14.0775 17.5953 14.8183 19.1188 15.5591 20.6423C15.9225 21.3831 17.3412 24.3253 17.6976 25.0661L17.7675 25.2128L17.8583 25.4085L17.7675 25.5902L17.6906 25.7509C17.3342 26.4987 15.9155 29.4409 15.5451 30.1817C14.7973 31.7052 14.0635 33.2287 13.2808 34.7312C13.0362 35.1995 12.3373 36.5622 11.7573 37.6944L13.5114 37.3729C13.9866 36.2547 14.5527 34.9479 14.8393 34.284C15.5311 32.7255 16.237 31.181 16.9358 29.6436Z" fill="url(#paint1_linear_2529_1405)"/>
<path d="M14.5038 29.6785C14.8183 28.9936 15.9994 26.4358 16.4816 25.4015C16.0762 24.5279 14.8532 21.9002 14.5387 21.2084C13.8329 19.6639 13.1271 18.1264 12.4492 16.575C12.4282 16.526 12.4072 16.4771 12.3863 16.4282C11.8831 15.2751 11.3869 14.115 10.8977 12.9549L8.96187 12.6055C9.56289 13.7725 10.1639 14.9326 10.7579 16.1067C11.5337 17.6093 12.2605 19.1328 13.0082 20.6563C13.2528 21.1455 14.9021 24.5769 15.1398 25.073L15.2096 25.2198L15.3005 25.4085L15.2096 25.5902L15.1398 25.7439C14.9021 26.2401 13.2459 29.6715 13.0013 30.1677C12.2605 31.6842 11.5337 33.2077 10.7579 34.7103C10.5692 35.0667 9.60482 36.9815 8.97585 38.2045L10.8837 37.8551C11.4079 36.6321 12.1836 34.864 12.4212 34.3119C13.0921 32.7535 13.798 31.216 14.5038 29.6785Z" fill="url(#paint2_linear_2529_1405)"/>
<path d="M19.7522 16.575C19.4447 15.8551 19.1372 15.1283 18.8367 14.4085L17.4041 14.1499C17.7325 14.7789 18.068 15.4079 18.3894 16.0438C19.1791 17.5603 19.9409 19.0908 20.6957 20.6213C21.3037 21.8513 22.2541 23.8221 22.8481 25.0591L22.918 25.2058L23.0159 25.4155L22.8411 25.7649C22.2471 27.0089 21.2967 28.9796 20.6817 30.2166C19.9269 31.7471 19.1722 33.2706 18.3824 34.7801C18.1029 35.3113 17.7605 35.9822 17.3971 36.674L18.8227 36.4155C19.1232 35.6887 19.4307 34.9688 19.7382 34.249C21.0032 31.2789 22.3519 28.3437 23.7147 25.4155C22.3659 22.4803 21.0171 19.5451 19.7522 16.575Z" fill="url(#paint3_linear_2529_1405)"/>
<path d="M21.3107 25.4015C20.7446 24.1925 19.9479 22.4663 19.4377 21.3412C18.7319 19.7897 18.033 18.2382 17.3621 16.6658C17.3412 16.6169 17.3202 16.568 17.2992 16.519C16.9288 15.6525 16.5584 14.7859 16.195 13.9193L14.5947 13.6258C15.021 14.4365 15.4403 15.2401 15.8526 16.0578C16.6353 17.5673 17.3901 19.0978 18.1378 20.6213C18.627 21.6067 19.8081 24.0597 20.2833 25.0521L20.3532 25.1988L20.4511 25.4015L20.3602 25.5832L20.2833 25.7439C19.8081 26.7363 18.6201 29.1963 18.1309 30.1887C17.3831 31.7122 16.6353 33.2357 15.8526 34.7452C15.573 35.2763 15.0769 36.2408 14.5947 37.1702L16.188 36.8767C16.5864 35.9402 16.9987 34.9688 17.3062 34.249C17.9701 32.6836 18.669 31.1391 19.3748 29.5946C19.899 28.4485 20.7236 26.6594 21.3107 25.4015Z" fill="url(#paint4_linear_2529_1405)"/>
<path d="M9.63278 29.7554C9.73761 29.5317 11.2541 26.2611 11.6525 25.3945L11.6315 25.3596C11.5197 25.115 9.75158 21.3132 9.64675 21.0686C8.94091 19.5381 8.22109 18.0146 7.55019 16.4701C7.52922 16.4282 7.50826 16.3863 7.48729 16.3373C6.84434 14.8907 6.2014 13.4441 5.57941 11.9905L4 11.7039L10.4854 25.4015L4 39.1061L5.56544 38.8195C5.8939 38.0578 7.43138 34.5915 7.53621 34.3538C8.20711 32.8094 8.93392 31.2859 9.63278 29.7554Z" fill="url(#paint5_linear_2529_1405)"/>
<path d="M12.0648 29.7204C12.2675 29.2662 13.6232 26.345 14.0635 25.4085C13.791 24.8215 12.3094 21.6277 12.0927 21.1525C11.3869 19.615 10.6741 18.0845 10.0032 16.533C9.9822 16.4771 9.96124 16.4282 9.94027 16.3863C9.36022 15.0864 8.80114 13.7795 8.24205 12.4727L6.17344 12.0953C6.86531 13.4371 7.5432 14.7789 8.22109 16.1277C8.98983 17.6302 9.70965 19.1537 10.4504 20.6703C10.5692 20.9149 12.4631 24.8284 12.5819 25.073L12.7427 25.3945L12.6588 25.5762L12.5889 25.723C12.4701 25.9746 10.5832 29.8882 10.4574 30.1328C9.71664 31.6493 8.99682 33.1728 8.22808 34.6683C8.12325 34.871 6.75349 37.5826 6.18742 38.7007L8.23506 38.3303C8.74523 37.1423 9.80749 34.7382 9.9822 34.3259C10.6461 32.7814 11.3659 31.2509 12.0648 29.7204Z" fill="url(#paint6_linear_2529_1405)"/>
<defs>
<linearGradient id="paint0_linear_2529_1405" x1="25.399" y1="8" x2="25.399" y2="42.81" gradientUnits="userSpaceOnUse">
<stop stop-color="white"/>
<stop offset="1" stop-color="#00E4FF"/>
</linearGradient>
<linearGradient id="paint1_linear_2529_1405" x1="25.399" y1="8" x2="25.399" y2="42.81" gradientUnits="userSpaceOnUse">
<stop stop-color="white"/>
<stop offset="1" stop-color="#00E4FF"/>
</linearGradient>
<linearGradient id="paint2_linear_2529_1405" x1="25.399" y1="8" x2="25.399" y2="42.81" gradientUnits="userSpaceOnUse">
<stop stop-color="white"/>
<stop offset="1" stop-color="#00E4FF"/>
</linearGradient>
<linearGradient id="paint3_linear_2529_1405" x1="25.399" y1="8" x2="25.399" y2="42.81" gradientUnits="userSpaceOnUse">
<stop stop-color="white"/>
<stop offset="1" stop-color="#00E4FF"/>
</linearGradient>
<linearGradient id="paint4_linear_2529_1405" x1="25.399" y1="8" x2="25.399" y2="42.81" gradientUnits="userSpaceOnUse">
<stop stop-color="white"/>
<stop offset="1" stop-color="#00E4FF"/>
</linearGradient>
<linearGradient id="paint5_linear_2529_1405" x1="25.399" y1="8" x2="25.399" y2="42.81" gradientUnits="userSpaceOnUse">
<stop stop-color="white"/>
<stop offset="1" stop-color="#00E4FF"/>
</linearGradient>
<linearGradient id="paint6_linear_2529_1405" x1="25.399" y1="8" x2="25.399" y2="42.81" gradientUnits="userSpaceOnUse">
<stop stop-color="white"/>
<stop offset="1" stop-color="#00E4FF"/>
</linearGradient>
</defs>
</svg>
