<svg width="50" height="50" viewBox="0 0 50 50" fill="none" xmlns="http://www.w3.org/2000/svg">
<path d="M43 24.5C43 14.8482 35.1518 7 25.5 7C15.8482 7 8 14.8482 8 24.5C8 34.1518 15.8482 42 25.5 42C28.0941 42 30.6965 41.4071 33.0435 40.2871L42.6624 41.8682L41.1059 32.3976C42.3494 29.96 43 27.2341 43 24.5ZM37.8529 37.0506L32.4012 36.1529L31.8082 36.4659C29.84 37.5035 27.7235 38.0306 25.5 38.0306C18.0388 38.0306 11.9694 31.9612 11.9694 24.5C11.9694 17.0388 18.0388 10.9694 25.5 10.9694C32.9612 10.9694 39.0306 17.0388 39.0306 24.5C39.0306 26.7976 38.4376 29.0788 37.3094 31.0882L36.9718 31.6976L37.8529 37.0506Z" fill="url(#paint0_linear_2543_2326)"/>
<path d="M27.7812 18.6612L25.5 20.9424L23.2188 18.6612C21.2835 16.7259 18.1376 16.7259 16.1941 18.6612C14.2588 20.5965 14.2588 23.7424 16.1941 25.6859L25.5 34.9918L34.8059 25.6859C36.7412 23.7506 36.7412 20.6047 34.8059 18.6612C32.8624 16.7259 29.7165 16.7259 27.7812 18.6612Z" fill="url(#paint1_linear_2543_2326)"/>
<defs>
<linearGradient id="paint0_linear_2543_2326" x1="25.5" y1="7" x2="25.5" y2="42" gradientUnits="userSpaceOnUse">
<stop stop-color="white"/>
<stop offset="1" stop-color="#00E4FF"/>
</linearGradient>
<linearGradient id="paint1_linear_2543_2326" x1="25.5" y1="7" x2="25.5" y2="42" gradientUnits="userSpaceOnUse">
<stop stop-color="white"/>
<stop offset="1" stop-color="#00E4FF"/>
</linearGradient>
</defs>
</svg>
