<svg width="50" height="50" viewBox="0 0 50 50" fill="none" xmlns="http://www.w3.org/2000/svg">
<path fill-rule="evenodd" clip-rule="evenodd" d="M15.1037 41.3985C13.6237 40.236 13.2543 39.6075 13.5183 37.6515L13.9076 34.7656C14.1624 32.4218 15.877 30.3894 18.2841 30.3894H32.9646C35.3718 30.3894 37.0863 32.4222 37.3411 34.7656L37.7304 37.6515C37.9944 39.6075 37.625 40.236 36.145 41.3985C30.136 46.1189 21.1116 46.1177 15.1037 41.3985ZM25.6245 16.9353C29.0323 16.9353 31.7963 19.699 31.7963 23.1071C31.7963 26.5152 29.0327 29.2792 25.6245 29.2792C22.2164 29.2792 19.4524 26.5152 19.4524 23.1071C19.4524 19.699 22.2164 16.9353 25.6245 16.9353ZM3.13956 29.4015C2.12603 28.6053 1.87312 28.1748 2.05382 26.8354L2.32048 24.8595C2.49507 23.2546 3.66906 21.8628 5.31754 21.8628H15.37C17.0185 21.8628 18.1925 23.2546 18.367 24.8595L18.6337 26.8354C18.8144 28.1748 18.5615 28.6049 17.548 29.4011C13.4331 32.6335 7.2533 32.6327 3.13956 29.4015ZM10.3436 12.6497C12.677 12.6497 14.5696 14.5423 14.5696 16.8757C14.5696 19.2096 12.677 21.1022 10.3436 21.1022C8.01011 21.1022 6.11713 19.2096 6.11713 16.8757C6.11713 14.5419 8.01011 12.6497 10.3436 12.6497ZM33.452 29.4015C32.4385 28.6053 32.1856 28.1752 32.3663 26.8357L32.633 24.8599C32.8075 23.2549 33.9815 21.8632 35.63 21.8632H45.6825C47.3309 21.8632 48.5049 23.2549 48.6795 24.8599L48.9462 26.8357C49.1269 28.1752 48.874 28.6053 47.8604 29.4015C43.7456 32.6335 37.5658 32.6327 33.452 29.4015ZM40.656 12.6497C42.9895 12.6497 44.8821 14.5423 44.8821 16.8757C44.8821 19.2096 42.9895 21.1022 40.656 21.1022C38.3226 21.1022 36.4296 19.2096 36.4296 16.8757C36.4296 14.5419 38.3226 12.6497 40.656 12.6497ZM32.1921 8.84959L31.4953 15.5787H26.0975H25.4385H20.0404L19.3439 8.84959L21.0054 8.37052L22.9881 11.7072L23.8057 11.4929L24.3952 9.04022L23.2345 8.15505L25.7678 6L28.3007 8.15505L27.1401 9.04022L27.7295 11.4929L28.5471 11.7072L30.5299 8.37052L32.1921 8.84959Z" fill="url(#paint0_linear_2543_2347)"/>
<defs>
<linearGradient id="paint0_linear_2543_2347" x1="25.5" y1="6" x2="25.5" y2="44.9384" gradientUnits="userSpaceOnUse">
<stop stop-color="white"/>
<stop offset="1" stop-color="#00E4FF"/>
</linearGradient>
</defs>
</svg>
